<?xml version="1.0" encoding="utf-8"?>
<!-- Generator: Adobe Illustrator 25.3.1, SVG Export Plug-In . SVG Version: 6.00 Build 0)  -->
<svg version="1.1" id="Capa_1" xmlns="http://www.w3.org/2000/svg" xmlns:xlink="http://www.w3.org/1999/xlink" x="0px" y="0px"
	 viewBox="0 0 16 16" style="enable-background:new 0 0 16 16;" xml:space="preserve">
<style type="text/css">
	.st0{fill-rule:evenodd;clip-rule:evenodd;fill:#575756;}
</style>
<path class="st0" d="M3.5,10C3.2,10,3,9.8,3,9.5v-8C3,1.2,3.2,1,3.5,1h9C12.8,1,13,1.2,13,1.5v8c0,0.3-0.2,0.5-0.5,0.5h-2
	c-0.3,0-0.5,0.2-0.5,0.5s0.2,0.5,0.5,0.5h2c0.8,0,1.5-0.7,1.5-1.5v-8C14,0.7,13.3,0,12.5,0h-9C2.7,0,2,0.7,2,1.5v8
	C2,10.3,2.7,11,3.5,11h2C5.8,11,6,10.8,6,10.5S5.8,10,5.5,10H3.5z"/>
<path class="st0" d="M7.6,4.1C7.8,4,8.2,4,8.4,4.1c0,0,0,0,0,0l3,3c0.2,0.2,0.2,0.5,0,0.7s-0.5,0.2-0.7,0L8.5,5.7v8.8
	C8.5,14.8,8.3,15,8,15c-0.3,0-0.5-0.2-0.5-0.5V5.7L5.4,7.9C5.2,8,4.8,8,4.6,7.9s-0.2-0.5,0-0.7L7.6,4.1z"/>
</svg>
