<?xml version="1.0" encoding="utf-8"?>
<!-- Generator: Adobe Illustrator 25.3.1, SVG Export Plug-In . SVG Version: 6.00 Build 0)  -->
<svg version="1.1" id="Capa_1" xmlns="http://www.w3.org/2000/svg" xmlns:xlink="http://www.w3.org/1999/xlink" x="0px" y="0px"
	 viewBox="0 0 16 16" style="enable-background:new 0 0 16 16;" xml:space="preserve">
<style type="text/css">
	.st0{fill:#575756;}
</style>
<path class="st0" d="M16,8c0,0-3-5.5-8-5.5S0,8,0,8s3,5.5,8,5.5S16,8,16,8z M1.2,8c0.5-0.7,1-1.4,1.7-2c1.3-1.3,3-2.5,5.2-2.5
	s3.9,1.2,5.2,2.5c0.6,0.6,1.2,1.3,1.7,2c-0.1,0.1-0.1,0.2-0.2,0.3c-0.3,0.5-0.8,1.1-1.5,1.8c-1.3,1.3-3,2.5-5.2,2.5
	c-2.1,0-3.9-1.2-5.2-2.5C2.2,9.4,1.7,8.7,1.2,8L1.2,8z"/>
<path class="st0" d="M8,5.5C6.6,5.5,5.5,6.6,5.5,8s1.1,2.5,2.5,2.5s2.5-1.1,2.5-2.5S9.4,5.5,8,5.5z M4.5,8c0-1.9,1.6-3.5,3.5-3.5
	s3.5,1.6,3.5,3.5S9.9,11.5,8,11.5S4.5,9.9,4.5,8z"/>
</svg>
