<svg xmlns="http://www.w3.org/2000/svg" viewBox="0 0 144 108"><defs><style>.cls-1{fill:#5c7c26;}</style></defs><g id="Capa_2" data-name="Capa 2"><g id="Capa_3" data-name="Capa 3"><path class="cls-1" d="M135,90a9,9,0,0,1-9,9H18a9,9,0,0,1-9-9V36a9,9,0,0,1,9-9H28.55a27,27,0,0,0,19.08-7.91l7.47-7.45A9,9,0,0,1,61.44,9h21.1a9,9,0,0,1,6.36,2.64l7.45,7.45A27,27,0,0,0,115.45,27H126a9,9,0,0,1,9,9ZM18,18A18,18,0,0,0,0,36V90a18,18,0,0,0,18,18H126a18,18,0,0,0,18-18V36a18,18,0,0,0-18-18H115.45a18,18,0,0,1-12.72-5.27L95.27,5.27A18,18,0,0,0,82.55,0H61.45A18,18,0,0,0,48.73,5.27l-7.46,7.46A18,18,0,0,1,28.55,18Z"/><path class="cls-1" d="M72,81A22.5,22.5,0,1,1,94.5,58.5,22.5,22.5,0,0,1,72,81Zm0,9A31.5,31.5,0,1,0,40.5,58.5,31.5,31.5,0,0,0,72,90ZM27,40.5A4.5,4.5,0,1,1,22.5,36,4.49,4.49,0,0,1,27,40.5Z"/></g></g></svg>