<svg xmlns="http://www.w3.org/2000/svg" viewBox="0 0 115 108"><defs><style>.cls-1{fill:#5c7c26;}</style></defs><g id="Capa_2" data-name="Capa 2"><g id="Capa_3" data-name="Capa 3"><path class="cls-1" d="M114.53,39.78,90.33,2.06A4,4,0,0,0,87,.35C86.78.35,66.18.17,45.74.08,2.81-.12,2.69,0,1.15,1.28A3.11,3.11,0,0,0,0,3.63V104.71A3.61,3.61,0,0,0,3.86,108H111.14a3.61,3.61,0,0,0,3.86-3.29V41.36A2.94,2.94,0,0,0,114.53,39.78Zm-7.24,61.65H7.71V6.7c3.48-.07,9.48-.1,16.89-.1V39.46H71.49V6.8l13.16.11L107.29,42.2Z"/></g></g></svg>