<svg id="Capa_1" data-name="Capa 1" xmlns="http://www.w3.org/2000/svg" viewBox="0 0 1080 792"><g id="john_deere" data-name="john deere"><path d="M650.06,381.33V336.81c0-1.4.24-1.9,1.8-1.89,14.4.09,28.81-.08,43.21.16a57.28,57.28,0,0,1,26.62,6.59,39.45,39.45,0,0,1,20,24.58c3.1,10.71,3.21,21.48-.65,32-4.77,13.14-14.18,21.55-27.19,26.14a65.26,65.26,0,0,1-21.29,3.39H651.8c-1.4,0-1.78-.31-1.77-1.74C650.09,411.14,650.06,396.24,650.06,381.33Zm17.21.06h0v29.25c0,1.37.27,1.79,1.74,1.77,7.62-.09,15.23,0,22.84,0a50.42,50.42,0,0,0,11.23-1.2c9.79-2.24,17.47-7.18,21.27-16.94a36.93,36.93,0,0,0,2-16.7c-1-11.61-6.72-19.91-17.69-24.26a39.39,39.39,0,0,0-14.15-2.78c-8.49-.12-17,0-25.48-.13-1.45,0-1.77.37-1.76,1.77C667.33,361.86,667.27,371.61,667.27,381.39Z" style="fill:#010202"/><path d="M984.27,427.75c-4.94,0-9.85-.33-14.69.11-4.34.39-6.92-1.15-9.37-4.67-5-7.27-10.62-14.17-15.94-21.25a3.08,3.08,0,0,0-2.8-1.4c-5.53.08-11.06.09-16.6,0-1.46,0-1.74.43-1.73,1.8.07,7.92,0,15.84.06,23.76,0,1.28-.27,1.72-1.63,1.69-4.53-.09-9.06-.11-13.58,0-1.55,0-2-.34-2-1.94.06-18.35,0-36.72,0-55.08V354.93c0-1.28.39-1.51,1.56-1.51,16.29,0,32.58-.11,48.87.09,7.71.1,14.82,2.34,19.82,8.73A23.44,23.44,0,0,1,964.89,399c-1.56.49-1.56.78-.64,2q9.54,12.39,18.93,24.89A3.29,3.29,0,0,1,984.27,427.75ZM941,385.23c4.58-.2,9.91.42,15.25,0,4.41-.38,7.19-3.08,7.61-7.41a7.7,7.7,0,0,0-6.07-8.71,16.28,16.28,0,0,0-3.93-.44h-29c-1.18,0-1.66.22-1.63,1.53.08,4.53.07,9.06,0,13.58,0,1.26.35,1.58,1.58,1.56,5.08-.15,10.23-.11,16.15-.11Z" style="fill:#010202"/><path d="M598.72,403.39V355.46c0-1.66.39-2.07,2-2,4.59.13,9.19.08,13.78,0,1.13,0,1.5.24,1.5,1.44q-.06,35.67,0,71.34c0,1.22-.3,1.6-1.57,1.58-4.59-.09-9.19-.1-13.78,0a3.74,3.74,0,0,1-3.2-1.46q-20.91-23.91-41.92-47.73c-.28-.32-.58-.63-1-1.07a5.67,5.67,0,0,0-.22,2.49v45.67c0,1.78-.52,2.15-2.18,2.1-4.47-.11-8.94-.07-13.4,0-1.15,0-1.62-.18-1.62-1.51q.07-35.67,0-71.34c0-1.32.48-1.51,1.62-1.49,4.4,0,8.81.1,13.21,0a4.47,4.47,0,0,1,3.83,1.76q16.89,19,33.85,38Z" style="fill:#010202"/><path d="M396,429.52c-9.61-.12-18.9-1.6-27.16-6.92-10.87-7-16.08-17.26-16.63-30-.33-7.85,1-15.39,5-22.29,5.09-8.83,12.91-14.08,22.61-16.55,13.25-3.38,26.42-3.2,39.1,2.33,12,5.25,18.67,14.77,20.6,27.67,1.33,8.92.43,17.55-3.85,25.6-5.65,10.61-14.89,16.3-26.35,18.83A66.14,66.14,0,0,1,396,429.52ZM395.74,367a33.13,33.13,0,0,0-6.44.45c-8.79,1.53-15.71,5.53-18.71,14.49a27.83,27.83,0,0,0-1,12.66c1.1,8.45,5.41,14.43,13.48,17.46a38.1,38.1,0,0,0,19.68,1.67c7.06-1.13,13.31-3.87,17-10.46,3-5.35,3.57-11.17,2.73-17.16-1.12-8.08-5.42-13.73-13-16.83A33.92,33.92,0,0,0,395.74,367Z" style="fill:#020303"/><path d="M990.45,390.64V355.17c0-1.42.35-1.75,1.76-1.75q32.37.07,64.73,0c1.43,0,1.76.36,1.72,1.75-.1,3.9-.12,7.8,0,11.7,0,1.56-.5,1.78-1.89,1.78q-23.58,0-47.17-.07c-1.54,0-2,.32-2,1.93.13,3.45.13,6.92,0,10.37-.05,1.57.25,2.08,2,2.07,12-.09,23.9,0,35.85-.07,1.28,0,1.73.23,1.69,1.61q-.12,6,0,12.07c0,1.36-.39,1.66-1.7,1.65q-18,0-36,0c-1.32,0-1.85.18-1.79,1.69.13,3.65.11,7.3,0,10.94,0,1.34.33,1.65,1.65,1.65,15.78,0,31.57,0,47.36-.08,1.69,0,2.08.42,2,2.06-.13,4-.08,7.92,0,11.88,0,1.11-.21,1.49-1.42,1.49q-32.64-.06-65.3,0c-1.64,0-1.46-.86-1.46-1.87Z" style="fill:#020303"/><path d="M750.61,390.6V355.32c0-1.38.2-1.91,1.79-1.9q32.36.09,64.72,0c1.41,0,1.8.33,1.76,1.76-.11,3.83-.12,7.67,0,11.5,0,1.56-.34,2-1.93,2-15.66-.06-31.32,0-47-.08-1.77,0-2.19.48-2.13,2.17.13,3.52.11,7,0,10.56,0,1.37.39,1.63,1.68,1.62,12,0,23.9,0,35.85-.07,1.59,0,2,.39,1.94,1.95-.12,3.89-.12,7.8,0,11.69,0,1.49-.44,1.73-1.8,1.73-11.89-.06-23.78,0-35.66-.09-1.79,0-2,.57-2,2.11.11,3.52.11,7,0,10.56,0,1.38.39,1.63,1.67,1.62q23.58,0,47.17-.06c1.67,0,2.28.31,2.2,2.12-.15,3.77-.12,7.55,0,11.32,0,1.53-.33,2-1.93,2-19.62-.06-39.25,0-58.87,0a46.5,46.5,0,0,0-5.28,0c-1.93.21-2.22-.55-2.2-2.29C750.65,413.87,750.61,402.24,750.61,390.6Z" style="fill:#020303"/><path d="M828.27,390.5V355.4c0-1.47.2-2,1.87-2q32.19.11,64.36,0c1.54,0,2,.33,2,1.93q-.18,5.66,0,11.32c0,1.52-.31,2-1.92,2-15.54-.07-31.09,0-46.63-.08-1.9,0-2.61.38-2.5,2.42.18,3.39.13,6.79,0,10.19,0,1.42.34,1.75,1.75,1.75,12-.07,23.91,0,35.86-.08,1.59,0,2,.39,1.92,1.94-.12,3.83-.12,7.68,0,11.51,0,1.61-.46,1.93-2,1.92-11.9-.07-23.79,0-35.68-.07-1.53,0-1.89.41-1.85,1.88.1,3.58.1,7.17,0,10.75,0,1.37.4,1.64,1.68,1.64q23.7,0,47.38-.06c1.56,0,2,.37,2,2-.12,4-.08,7.93,0,11.89,0,1.22-.34,1.57-1.59,1.56q-32.56-.06-65.12,0c-1.36,0-1.48-.5-1.48-1.62Q828.35,408.32,828.27,390.5Z" style="fill:#010202"/><path d="M526.11,390.61v35.27c0,1.4-.23,2-1.81,1.92-4.59-.13-9.19-.1-13.77,0-1.33,0-1.66-.33-1.65-1.65.06-8.74,0-17.48.06-26.22,0-1.39-.3-1.78-1.73-1.78q-20.56.11-41.14,0c-1.3,0-1.68.34-1.67,1.67,0,8.74,0,17.48.06,26.22,0,1.44-.39,1.77-1.78,1.74-4.59-.09-9.18-.07-13.77,0-1.14,0-1.63-.17-1.63-1.5q.06-35.76,0-71.5c0-1.06.28-1.36,1.35-1.35,4.71.06,9.43.11,14.15,0,1.56,0,1.67.56,1.66,1.83,0,8.68,0,17.36-.06,26,0,1.32.31,1.67,1.64,1.66q20.67-.07,41.32,0c1.4,0,1.59-.45,1.59-1.69-.06-8.62,0-17.23-.07-25.85,0-1.48.21-2,1.88-2,4.52.14,9,.1,13.58,0,1.36,0,1.8.25,1.79,1.72C526.08,367,526.11,378.79,526.11,390.61Z" style="fill:#010101"/><path d="M279.79,410a69.5,69.5,0,0,0,25,3.37A50.76,50.76,0,0,0,315.41,412c7.4-2,11.17-6.53,11.93-14.18.27-2.7.38-5.39.38-8.1V336.86c0-1.46.33-1.91,1.84-1.88,4.59.11,9.18.08,13.77,0,1.17,0,1.63.22,1.63,1.52q0,28.59-.06,57.16a45.33,45.33,0,0,1-3.17,17.49c-4,9.47-11.55,14.37-21.17,16.62-8.79,2.05-17.71,2-26.63,1.36A96.43,96.43,0,0,1,281,427.5c-.61-.13-1.25,0-1.25-1C279.8,421.07,279.79,415.62,279.79,410Z" style="fill:#010202"/><path d="M138.62,488a217.39,217.39,0,0,1-27-1.33,225.49,225.49,0,0,1-59.6-15c-4.43-1.79-8.77-3.75-13.11-5.75a3.48,3.48,0,0,1-1.86-2.05,212.57,212.57,0,0,1-15.52-71.25A214.55,214.55,0,0,1,37.27,302.1a2.16,2.16,0,0,1,1.17-1.22,226,226,0,0,1,70-20.61q9.61-1.2,19.3-1.58c5.8-.23,11.6-.26,17.39-.05a227.51,227.51,0,0,1,27.2,2.56,224.53,224.53,0,0,1,49.94,13.67c4.53,1.82,9,3.8,13.38,5.9a2,2,0,0,1,1,1.08,213.3,213.3,0,0,1,15.82,91.91,212.51,212.51,0,0,1-9.75,54.3c-1.71,5.41-3.67,10.73-5.77,16a3.65,3.65,0,0,1-2,2.08,226.38,226.38,0,0,1-70.57,20.33,209.76,209.76,0,0,1-23.5,1.54Zm-108-116.35c-.33,2.81-.31,5.63-.36,8.45A142.92,142.92,0,0,0,30.62,395v1.78a217.57,217.57,0,0,0,3.51,26.66,209.5,209.5,0,0,0,10.14,34.58,2.43,2.43,0,0,0,1.42,1.52c1.52.62,3,1.34,4.49,2a214.91,214.91,0,0,0,29.47,10.34,220,220,0,0,0,27.25,5.53c5,.7,10.12,1.28,15.21,1.51a29.89,29.89,0,0,0,5,.27,6,6,0,0,0,.72.11c4.58,0,9.15.13,13.73.1a39.25,39.25,0,0,0,5.74-.21,22.13,22.13,0,0,0,4.38-.25,174,174,0,0,0,17.5-1.78,216.22,216.22,0,0,0,22.55-4.51,211.83,211.83,0,0,0,37.08-13.17,1.54,1.54,0,0,0,.88-.94c.62-1.7,1.29-3.38,1.91-5.08a203.93,203.93,0,0,0,11.34-50.25,205,205,0,0,0,.89-25.63,207.35,207.35,0,0,0-14-69.25,2.49,2.49,0,0,0-1.42-1.52,217,217,0,0,0-66.72-18.46c-5-.55-10.07-1-15.14-1.1a3.79,3.79,0,0,0-.82-.13c-3.87-.05-7.75-.15-11.62-.12a39.76,39.76,0,0,0-6.36.24,82.48,82.48,0,0,0-8.89.49,220.25,220.25,0,0,0-29.78,4.62,215.42,215.42,0,0,0-43.58,14.7,1.81,1.81,0,0,0-1,1.08,212,212,0,0,0-7.23,21.73,204.71,204.71,0,0,0-5.57,28.73C31.21,363,30.76,367.3,30.62,371.67Z" style="fill:#020303"/><path d="M147.27,479.23a39.25,39.25,0,0,1-5.74.21c-4.58,0-9.15,0-13.73-.1a6,6,0,0,1-.72-.11c-.09-.33-.37-.25-.59-.25h-4.36c-5.09-.23-10.16-.81-15.21-1.51a220,220,0,0,1-27.25-5.53,214.06,214.06,0,0,1-29.5-10.36c-1.5-.66-3-1.38-4.49-2a2.44,2.44,0,0,1-1.41-1.52,209.31,209.31,0,0,1-10.08-34.58,217.57,217.57,0,0,1-3.51-26.66V395c.14-4-.23-7.93-.2-11.89s.31-7.65.2-11.48c.14-4.37.59-8.71,1.11-13a203.6,203.6,0,0,1,5.48-28.77,214.85,214.85,0,0,1,7.16-21.73,1.81,1.81,0,0,1,1-1.08,214.81,214.81,0,0,1,43.65-14.7,220,220,0,0,1,29.78-4.53,82.48,82.48,0,0,1,8.89-.49h18.8c5.07.06,10.11.55,15.14,1.1a217,217,0,0,1,66.63,18.42,2.49,2.49,0,0,1,1.42,1.52,207.35,207.35,0,0,1,14,69.25,205,205,0,0,1-.89,25.63,203.93,203.93,0,0,1-11.34,50.25c-.62,1.7-1.29,3.38-1.91,5.08a1.54,1.54,0,0,1-.88.94,212.2,212.2,0,0,1-37.05,13.13,216.22,216.22,0,0,1-22.55,4.51,174,174,0,0,1-17.5,1.78h-3.24C148,479,147.53,478.74,147.27,479.23Zm-29.55-66.52a22.39,22.39,0,0,1-4.24-.56c-5.67-1.07-11.09-3-16.56-4.79a83.37,83.37,0,0,0-17.77-4.18c-1.67-.17-3.35-.21-5.22-.33a60.69,60.69,0,0,0,8.78,12.76c3.87,4.25,8.27,7.71,14,9a5,5,0,0,1,3.73,3.12c1.06,2.37,2.38,4.62,3.69,7.11l-1-.4c-14.54-7.9-27.78-17.54-38.86-30.05a9.37,9.37,0,0,1-2.64-5.4c-.09-.9,0-1.32,1-1.63a84.48,84.48,0,0,1,16.07-3.75c5.19-.73,10.41-1.13,15.63-1.6.83-.07,1-.4,1.1-1.12A83.79,83.79,0,0,1,97,381.3a93.22,93.22,0,0,1,7.78-22c.61-1.2.36-1.72-1-2-3.48-.73-7-1.43-10.45-2.15-1.09-.22-2.41-.18-3.2-.8s-.75-2.11-1.2-3.16c-.32-.75-.08-1.06.66-1.32a227.94,227.94,0,0,1,27.64-8.15,4.1,4.1,0,0,0,3.51-3.34c.07-.3.16-.6.22-.91a4.52,4.52,0,0,0-2.43-5.27,8.73,8.73,0,0,0-2.13-.86c-4-1.07-8.11-.81-12.17-.29a87.56,87.56,0,0,0-19.69,5.13c-.3.11-.7.48-.94.07s.32-.54.56-.72a56,56,0,0,1,9.87-5.89c.8-.37,1-.72.59-1.55a10.52,10.52,0,0,0-2.18-2.91,16.38,16.38,0,0,0-4.86-3c-.22-.09-.53-.14-.45-.46s.4-.2.62-.17c.45.05.9.13,1.34.22,3.69.82,7.09,2.16,9.43,5.34a.81.81,0,0,0,1.07.28,40,40,0,0,1,9.12-1.81c.58,0,.63-.26.57-.78a17.09,17.09,0,0,0-4.95-9.71,16.52,16.52,0,0,0-2.46-2.27c-.18-.13-.33-.29-.21-.52s.36-.11.55,0l1.53.66c5.37,2.5,9.51,6.19,11.49,11.93.21.6.58.49,1,.5a18.57,18.57,0,0,1,6.56,1.14c.48.2.75.17,1-.38a16.41,16.41,0,0,0,1.13-6.86,20.76,20.76,0,0,0-4.57-11.49c-.16-.22-.6-.43-.26-.77s.52,0,.74.16a18.76,18.76,0,0,1,9.64,12.54c1.25,5.31.66,10.55-.7,15.74-.33,1.28-.77,2.54-1.18,3.89,5.81-1.1,11.46-2.16,17.35-2.9-.21.29-.28.41-.36.51a41.15,41.15,0,0,1-11.73,9.33,1.56,1.56,0,0,1-1,.09c-1.91-.23-3.82-.41-5.72-.71-.83-.13-1.09.21-1.27.92-.59,2.22-1.28,4.42-1.82,6.65-1.41,5.81-2.65,11.65-2.53,17.67.09,4.17,1.67,7.51,5.61,9.43a18.26,18.26,0,0,0,5.52,1.51,1.77,1.77,0,0,0,1.28.32h9.12c.27,0,.65.19.8-.25l.55-.06a1.13,1.13,0,0,0,1.1,0h1.74a6.52,6.52,0,0,0,2.78,0l.53.06c.1.33.38.25.61.26h7.25a89.85,89.85,0,0,1,21.06,3.17c.83.25,1,0,1.12-.7a21.25,21.25,0,0,0,0-6.37c-.84-5.64-3.42-10.5-6.82-15-.19-.25-.66-.49-.37-.86s.63.07.88.23a47.32,47.32,0,0,1,12.1,10.23,26.41,26.41,0,0,1,5.91,11.5,1,1,0,0,1-.72,1.37c-1.93.71-3.81,1.55-5.72,2.31-.54.21-.74.37-.25.9a39.77,39.77,0,0,1,8.2,14.57c1.41,4.16,2.3,8.47,3.73,12.62.86,2.5,2,4.83,4.3,6.38,4.31,2.87,8.87,5.27,13.43,7.71a3.38,3.38,0,0,1,1.31,1.15c3.23,4.64,6.15,9.49,9,14.34l2.66,4.48c.14-.36.23-.55.29-.74,1.26-3.58,2.39-7.21,3.44-10.86a198.92,198.92,0,0,0,7.61-48.89,202,202,0,0,0-2.21-36.86,209.25,209.25,0,0,0-10.12-39.66c-.76-2.13-1.75-3.7-4-4.27a10.38,10.38,0,0,1-1.53-.66A216.28,216.28,0,0,0,149,291.39a217.85,217.85,0,0,0-59,4.84A209.86,209.86,0,0,0,48.84,310a2.17,2.17,0,0,0-1.21,1.32c-1.32,3.56-2.6,7.14-3.75,10.76a200,200,0,0,0-8.61,41.81,205.17,205.17,0,0,0-.73,27.94,200.88,200.88,0,0,0,13,63.37A2.63,2.63,0,0,0,49,456.74a212.38,212.38,0,0,0,44.59,14.4,213.58,213.58,0,0,0,61,3.72A219.27,219.27,0,0,0,186.1,470a211.9,211.9,0,0,0,38.7-13c.9-.4,1.08-.69.55-1.61a99.09,99.09,0,0,0-14.5-19.15,3.13,3.13,0,0,0-1.41-.84c-8.49-2.62-17-5.27-25.29-8.4-4.62-1.74-9.17-3.58-13-6.84a75.4,75.4,0,0,1-8.79-8.81,1.56,1.56,0,0,0-1.23-.63,112.16,112.16,0,0,0-23.09.89,103.86,103.86,0,0,1-10.41,1.15Z" style="fill:#efde05"/><path d="M30.62,371.67c.11,3.83-.18,7.65-.2,11.48s.34,7.93.2,11.89a145.71,145.71,0,0,1-.35-14.92A68.16,68.16,0,0,1,30.62,371.67Z" style="fill:#c3bc52"/><path d="M146.55,287.33h-18.8a39.76,39.76,0,0,1,6.36-.24c3.87,0,7.75.07,11.62.12A3.78,3.78,0,0,1,146.55,287.33Z" style="fill:#c3bc52"/><path d="M122.1,479h4.36c.22,0,.5-.08.59.25A29.28,29.28,0,0,1,122.1,479Z" style="fill:#c3bc52"/><path d="M147.27,479.23c.29-.49.76-.23,1.14-.24h3.24A21.39,21.39,0,0,1,147.27,479.23Z" style="fill:#c3bc52"/><path d="M150.6,381.82l-.53-.06a14.35,14.35,0,0,0-2.78,0h-2.93l-.55.06c-.38,0-.76-.07-1.13-.06a99.48,99.48,0,0,1-10.07,0,18.26,18.26,0,0,1-5.52-1.51c-3.94-1.92-5.52-5.26-5.61-9.43-.12-6,1.12-11.86,2.53-17.67.54-2.23,1.23-4.43,1.82-6.65.18-.71.44-1.05,1.27-.92,1.9.3,3.81.48,5.72.71a1.56,1.56,0,0,0,1-.09,41.15,41.15,0,0,0,11.73-9.33c.08-.1.15-.22.36-.51-5.89.74-11.54,1.8-17.35,2.9.41-1.35.85-2.61,1.18-3.89,1.36-5.19,2-10.43.7-15.74a18.76,18.76,0,0,0-9.64-12.54c-.22-.12-.49-.42-.74-.16s.1.55.26.77a20.76,20.76,0,0,1,4.57,11.49,16.41,16.41,0,0,1-1.13,6.86c-.2.55-.47.58-1,.38a18.57,18.57,0,0,0-6.56-1.14c-.39,0-.76.1-1-.5-2-5.74-6.12-9.43-11.49-11.93-.5-.23-1-.44-1.53-.66-.19-.07-.4-.22-.55,0s0,.39.21.52A16.52,16.52,0,0,1,104.3,315a17.09,17.09,0,0,1,5,9.71c.06.52,0,.73-.57.78a40.47,40.47,0,0,0-9,1.91.81.81,0,0,1-1.07-.28c-2.34-3.18-5.74-4.52-9.43-5.34-.44-.09-.89-.17-1.34-.22-.22,0-.54-.16-.62.17s.23.37.45.46a16.38,16.38,0,0,1,4.86,3,10.52,10.52,0,0,1,2.18,2.91c.45.83.21,1.18-.59,1.55a55.91,55.91,0,0,0-9.82,5.89c-.24.18-.81.28-.56.72s.64,0,.94-.07a87.65,87.65,0,0,1,19.62-5.13c4.06-.52,8.14-.78,12.17.29a8.73,8.73,0,0,1,2.13.86,4.52,4.52,0,0,1,2.43,5.27c-.06.31-.15.61-.22.91a4.1,4.1,0,0,1-3.51,3.34,229.3,229.3,0,0,0-27.64,8.17c-.74.26-1,.57-.66,1.32.45,1.05.38,2.5,1.2,3.16s2.11.58,3.2.8c3.48.72,7,1.42,10.45,2.15,1.32.27,1.57.79,1,2a93.22,93.22,0,0,0-7.78,22,83.79,83.79,0,0,0-1.61,9.59c-.07.72-.27,1-1.1,1.12-5.22.47-10.44.87-15.63,1.6a84.7,84.7,0,0,0-16.09,3.76c-.91.31-1,.73-1,1.63a9.41,9.41,0,0,0,2.66,5.37c11.06,12.49,24.3,22.13,38.89,30.06a8.68,8.68,0,0,0,1,.4c-1.31-2.49-2.63-4.74-3.69-7.11a5,5,0,0,0-3.73-3.12c-5.76-1.32-10.16-4.78-14-9A60.69,60.69,0,0,1,74,402.86c1.87.12,3.55.16,5.22.33a82.88,82.88,0,0,1,17.71,4.2c5.47,1.77,10.89,3.72,16.56,4.79a22.39,22.39,0,0,0,4.24.56,42.88,42.88,0,0,0,10,0,103.86,103.86,0,0,0,10.41-1.15,112.16,112.16,0,0,1,23.09-.89,1.56,1.56,0,0,1,1.23.63,75.4,75.4,0,0,0,8.79,8.81c3.82,3.26,8.37,5.1,13,6.84,8.32,3.13,16.8,5.78,25.29,8.4a3.13,3.13,0,0,1,1.41.84,99.23,99.23,0,0,1,14.44,19.17c.53.92.35,1.21-.55,1.61a211.9,211.9,0,0,1-38.7,13,219.27,219.27,0,0,1-31.52,4.89,214.6,214.6,0,0,1-60.94-3.69,212.38,212.38,0,0,1-44.59-14.4,2.63,2.63,0,0,1-1.48-1.58,200.88,200.88,0,0,1-13-63.37,206,206,0,0,1,.7-28A199.63,199.63,0,0,1,43.86,322c1.15-3.62,2.43-7.2,3.75-10.76a2.17,2.17,0,0,1,1.21-1.32A209.86,209.86,0,0,1,90,296.21a217.85,217.85,0,0,1,59-4.84,213.13,213.13,0,0,1,30.61,3.88,210.58,210.58,0,0,1,42.07,13,10.38,10.38,0,0,0,1.53.66c2.26.57,3.25,2.14,4,4.27A209.78,209.78,0,0,1,237.4,352.8a202,202,0,0,1,2.21,36.86A198.92,198.92,0,0,1,232,438.55c-1,3.65-2.18,7.28-3.44,10.86-.06.19-.15.38-.29.74l-2.66-4.48c-2.89-4.85-5.81-9.7-9-14.34a3.38,3.38,0,0,0-1.31-1.15c-4.56-2.44-9.12-4.84-13.43-7.71-2.34-1.55-3.44-3.88-4.3-6.38-1.43-4.15-2.32-8.46-3.73-12.62a39.77,39.77,0,0,0-8.2-14.57c-.49-.53-.29-.69.25-.9,1.91-.76,3.79-1.6,5.72-2.31.76-.28.88-.64.72-1.37a26.43,26.43,0,0,0-5.89-11.53,47.32,47.32,0,0,0-12.1-10.23c-.25-.16-.57-.61-.88-.23s.18.61.37.86c3.4,4.48,6,9.34,6.82,15a21.25,21.25,0,0,1,0,6.37c-.11.75-.29,1-1.12.7a89.85,89.85,0,0,0-21.06-3.17A57.41,57.41,0,0,0,150.6,381.82Z" style="fill:#010101"/><path d="M132.61,381.78a99.48,99.48,0,0,0,10.07,0,7.2,7.2,0,0,1,1.13.06c-.15.44-.53.25-.8.25h-9.12A1.77,1.77,0,0,1,132.61,381.78Z" style="fill:#c3bc52"/><path d="M127.64,412.71a42.88,42.88,0,0,1-10,0Z" style="fill:#c3bc52"/><path d="M150.6,381.82a57.27,57.27,0,0,1,7.86.28h-7.25C151,382.07,150.7,382.15,150.6,381.82Z" style="fill:#c3bc52"/><path d="M147.27,381.74a14.35,14.35,0,0,1,2.78,0A6.52,6.52,0,0,1,147.27,381.74Z" style="fill:#c3bc52"/><path d="M144.36,381.75h1.1A1.13,1.13,0,0,1,144.36,381.75Z" style="fill:#c3bc52"/></g></svg>