<svg xmlns="http://www.w3.org/2000/svg" viewBox="0 0 151.16 42.77"><g id="Capa_2" data-name="Capa 2"><g id="HOME"><g id="marcas"><g id="Capa_69" data-name="Capa 69"><path d="M69,21a23.22,23.22,0,0,1,4.33-6C78.58,9.8,86,10.18,90.52,12.48c4.1,2.08,6,5.77,6.35,10.13.46,6.14.1,12.3.17,18.46,0,.56-.22.73-.76.73-2.82,0-5.63,0-8.45,0-.87,0-.8-.47-.8-1,0-3.93,0-7.87,0-11.8,0-1.64,0-3.27,0-4.91a3.85,3.85,0,0,0-3.23-3.87,4.31,4.31,0,0,0-4.32,2.15,5.2,5.2,0,0,0-.6,2.46c0,5.3,0,10.59,0,15.89,0,.85-.17,1.13-1.08,1.12-8.73,0-17.45,0-26.17,0-4.27,0-7.4-2.35-10.06-5.45-4.93-5.76-3.52-15.1,1.36-20.09a16,16,0,0,1,21.87-1A13.67,13.67,0,0,1,68.36,20C68.52,20.31,68.54,20.73,69,21ZM60.82,31.81H78c-.21-.26-.29-.38-.39-.48-2.57-2.61-5.15-5.22-7.7-7.85-.45-.47-.68-.26-1,.08-1.2,1.23-2.42,2.44-3.62,3.67C63.79,28.72,62.35,30.22,60.82,31.81Zm-7.4-10.22A4.81,4.81,0,0,0,49,24.4c-.87,1.68-.29,3.16.69,4.57.31.45.55.56,1,.11,1.92-2,3.85-4,5.81-5.93.42-.42.29-.6-.17-.82A8,8,0,0,0,53.42,21.59Z" style="fill:#0161ab"/><path d="M36.13,12.34v1c0,8.27,0,16.53,0,24.79a1.5,1.5,0,0,1-.89,1.56,27.33,27.33,0,0,1-15.42,3A22.37,22.37,0,0,1,7.48,38.13C1.77,33.57-.36,27.42.05,20.33.67,9.59,9.1,2.33,16.69.59,23.05-.87,29,.48,34.7,3.37c.61.31.58.57.12,1Q31.37,7.73,28,11.11c-.43.43-.79.32-1.26.16a12.44,12.44,0,0,0-8.51,0C13.78,13,11.78,16.54,11.3,21a10.86,10.86,0,0,0,6.19,10.84,8.3,8.3,0,0,0,5.84.36,2.74,2.74,0,0,0,2.06-3.43,2.91,2.91,0,0,0-3.24-1.86c-.24,0-.54.3-.72-.07a.63.63,0,0,1,.23-.73L35.85,12.36S35.92,12.35,36.13,12.34Z" style="fill:#0161ab"/><path d="M133.49,31.7a56.41,56.41,0,0,0,5.79.12c1.58,0,1.58,0,1.58,1.59V41c0,.49,0,.91-.69.86-3.91-.24-7.82.1-11.72.22-12.36.37-18.36-10.84-15.49-20.59,2.39-8.12,11.6-13.53,21.18-9.23a14.74,14.74,0,0,1,7.9,8.07,2.37,2.37,0,0,1-.53,2.93c-2.48,2.43-5.09,4.74-7.39,7.35A1.68,1.68,0,0,0,133.49,31.7Zm-2.12-10.16A7,7,0,0,0,128,20.32a4.8,4.8,0,0,0-4.67,2.53,4.72,4.72,0,0,0,.28,5.18c.17.3.32.65.76.22C126.67,26,129,23.83,131.37,21.54Z" style="fill:#0161ab"/><path d="M109.84,27.21c0,4.52,0,9,0,13.55,0,.8-.19,1.07-1,1.05-2.66-.06-5.31,0-8,0-.72,0-.93-.19-.93-.91q0-13.66,0-27.34c0-.71.19-.94.92-.93,2.65,0,5.31.05,8,0,.83,0,1.05.22,1,1C109.82,18.17,109.84,22.69,109.84,27.21Z" style="fill:#0161ab"/><path d="M113.67,10H96l3.33-3.45c1.61-1.65,3.21-3.3,4.82-4.93.3-.31.55-.82,1.11-.24C107.94,4.2,110.7,7,113.67,10Z" style="fill:#0262ab"/><path d="M151.16,38.34a3.64,3.64,0,0,1-3.8,3.72,3.76,3.76,0,1,1,3.8-3.72Zm-5.43-2.14c-1.21,1.24-1.29,2.48-.23,4,1.32,1.32,2.87,1.22,3.78-.24a2.63,2.63,0,0,0,.11-3.44A2.47,2.47,0,0,0,146,36Z" style="fill:#0c68ae"/><path d="M146,36.21h-.25L146,36Z" style="fill:#c2d9ea"/><path d="M145.9,40.2a23.94,23.94,0,0,1,.1-4,18.72,18.72,0,0,1,2,.07c.94.13,1.53,1.23.9,1.8-.93.84-.23,1.27.19,1.85-.47.49-.9.42-1.28-.11-.26-.37-.33-.87-.78-1.1C146.35,39,147.35,40.54,145.9,40.2Zm2.16-2.76c-.08-.38-.39-.42-.7-.44s-.6.11-.58.52.33.34.59.35S148,37.86,148.06,37.44Z" style="fill:#0966ad"/></g></g></g></g></svg>