<svg id="Capa_1" data-name="Capa 1" xmlns="http://www.w3.org/2000/svg" viewBox="0 0 813.44 899.12"><path d="M621.74,923.89c-20.36,22.5-44.48,41.39-63,65.67h-6c.88-6.84-5.53-8.68-9-12.13Q369.52,802.55,194.89,628c-18.95-19-35.5-39.69-41.45-66.53-8.8-39.7,5-72.75,32.15-101.17,13.47-14.1,27.39-27.79,41.16-41.61Q387.72,257,548.57,95.27c5.77-5.81,8.75-6.85,15.07-.51Q744.75,276.61,926.37,458c17.92,17.9,29.27,39.5,37.87,62.89v36.06c-15.57,48.9-54.3,79.92-88.6,114.21q-126.35,126.28-253.19,252A1.23,1.23,0,0,0,621.74,923.89ZM940.67,539.13c.5-27.52-13.13-48.59-31.69-67.11Q738.37,301.74,567.89,131.32c-10.34-10.39-14.95-8.12-23.8.82Q375,302.9,205.3,473c-43.08,43.28-43.7,87-1.17,131.38,19.75,20.59,40.24,40.47,60.36,60.7Q405.91,807.22,547.3,949.37c4.91,4.93,8.07,10.33,16.21,2.16q173.93-174.4,348.36-348.3C929.12,585.93,941.1,565.11,940.67,539.13Z" transform="translate(-150.8 -90.44)" style="fill:#090909"/><path d="M621.74,923.89a1.23,1.23,0,0,1,.71-.72c5.24,5.23,8.66-.73,12.67-2.22,14.61-5.42,27.61-4.06,38.33,8.25l-3.58,3.35c-13-9-26-13-39-.06-5.69,3.4-6.7,9.66-9.21,15h-5.47C613.71,938.63,626.73,933.37,621.74,923.89Z" transform="translate(-150.8 -90.44)" style="fill:#252626"/><path d="M669.87,932.55l3.58-3.35c14.66,18.49,11.93,39.79-6.23,48.69l-2.49-2.59C679.36,959.91,680.39,951.35,669.87,932.55Z" transform="translate(-150.8 -90.44)" style="fill:#141414"/><path d="M667.22,977.89c-21,14.1-37.2,10.22-47.9-11.5l5.08-.85,6.56,6c9.77,14.53,22,7.29,33.77,3.81Z" transform="translate(-150.8 -90.44)" style="fill:#141414"/><path d="M624.4,965.54l-5.08.85c-3.89-5.82-4.53-12.17-3.11-18.87h5.47Q623,956.53,624.4,965.54Z" transform="translate(-150.8 -90.44)" style="fill:#1b1b1b"/><path d="M865.71,597.66c.46,4.21-2.89,5.4-4.85,7.36Q712.92,753.24,564.92,901.4c-5.43,5.45-8.6,9-16.21,1.33q-148.25-150-297.21-299.32c-1.38-1.39-2.62-2.93-5.13-5.75ZM330.56,610.5c-2.19-.33-5.54-1.22-5.33,1.77.15,2,3.54,3.79,5.47,5.67a35,35,0,0,0,3.44,4.82q79,79.2,158.2,158.28c1.92,1.92,3.42,5.2,8.94,3.56,5-56.46,10.14-113.54,15.23-170.63,0-4.54-3-4-6-3.46Q420.55,608.59,330.56,610.5Zm450.4,0c-60-1.33-120-1.18-180-.08-2.59-.18-3.54,1.13-3.22,3.58l14.9,172.18,5.15,2.94c3.76-5.21,6.91-11,11.37-15.55q77.33-78.42,155-156.5c2.34-1.35,5.79-3,4.4-5.77C787.39,608.87,783.67,609.85,781,610.51Z" transform="translate(-150.8 -90.44)" style="fill:#070504"/><path d="M873.81,491.1c-32.83-.72-64.18-7.05-95.77-11-65.95-8.29-131.78-17.61-197.78-25.45-44.26-5.26-87.64,5.15-131.18,10.72-68.82,8.79-137.52,18.54-206.26,28-2.75.37-4.91.16-6.46-2.2-3.12-4.73,2.42-4.14,3.87-5.59Q393.53,331.1,546.94,176.77c7-7.1,10.55-8.62,18.36-.72Q715.66,328.12,866.64,479.57C869.3,482.25,873.33,484.13,873.81,491.1ZM321.45,470.72c5.93-.43,10.88-.56,15.77-1.18,62.5-7.87,125-16,187.5-23.53,8.72-1.06,10.18-5.33,10.84-12.68,4.48-49.33,9.69-98.59,13.79-147.95,1.28-15.31,5.14-30.74,3-45.46ZM560.37,239.63c6.56,65.81,13.25,131.39,19.43,197,.84,8.92,6.36,8.57,12.32,9.33,44.57,5.71,89.13,11.57,133.71,17.21,22,2.78,44,5.21,65.91,7.79C714.44,393.67,638,317.22,560.37,239.63Z" transform="translate(-150.8 -90.44)" style="fill:#080606"/><path d="M886.77,577.9c-4.28,9.64-11.12,11.32-20,11.31q-309.84-.29-619.67,0c-8.86,0-15.73-1.66-19.77-11.31Z" transform="translate(-150.8 -90.44)" style="fill:#070504"/><path d="M506.65,511.86c0-7.49.08-15,0-22.46-.06-4.35.37-7.74,6-8.15,6-.42,6.33,2.94,6.32,7.39-.08,21,0,42,0,62.94,0,3.66,0,7.07-5,7.57-4.15.42-6.62-1.51-8.12-5.07-3.15-7.54-6.26-15.09-12.09-22.11,0,6.66-.1,13.33,0,20,.09,4.8-1.51,7.28-6.86,7.32-5.66,0-6.52-3-6.51-7.54.09-20,0-40,0-59.94,0-3.5-.35-7,5-7.18,4.43-.14,7.76.71,9.47,5.24,2.91,7.68,6,15.31,9,22.95Z" transform="translate(-150.8 -90.44)" style="fill:#070504"/><path d="M580.07,552.89c.31,3.19.24,6.2-4.11,6.21-3.38,0-6.34.34-8.76-3.69-8.25-13.76-12.36-13.76-19.65,0-2.71,5.11-6.55,3.84-10.13,3.46-5.52-.59-3.61-5-3-8.1,4.1-22,8.48-44,12.42-66.12,1.1-6.12,4.85-6.59,9.71-6.48,4.51.1,9.15-.62,10.34,5.66C571.21,506.88,575.66,529.88,580.07,552.89Zm-22.56-50.28c-5.16,7.28-4.18,15-5.35,22.28-.61,3.77-.34,7.15,4.82,7.1,5,0,5.61-3.06,4.84-7C560.43,517.76,559.05,510.58,557.51,502.61Z" transform="translate(-150.8 -90.44)" style="fill:#070504"/><path d="M466.36,558c-20.85,6.36-15.93-16.39-27.11-22.71,0,6-.07,11.19,0,16.39.08,4.49-.63,7.86-6.45,7.54-4.59-.26-5.92-2.56-5.91-6.71.07-18.52.14-37-.05-55.57-.05-5.69,3.48-5.95,7.66-6.79,26.51-5.35,37.84,4.95,27.73,29.72-5.49,13.45-2.34,21.87,2.73,32.28C465.8,553.85,465.88,555.88,466.36,558Zm-14.15-46.79c0-4.65.11-8.76-6.13-8.1-4.62.5-7.42,2.12-7.2,7.41.18,4.31.07,7.95,6.22,7.49C450,517.67,452.57,515.86,452.21,511.23Z" transform="translate(-150.8 -90.44)" style="fill:#070504"/><path d="M748.26,520c5.71-7.53-4.61-19.72,8.6-20.13,15-.47,7,12.39,7.94,19.22,1.3,9.28.54,18.89.22,28.34-.13,4.05,2.49,9.79-3.7,11.45-6.47,1.75-8.15-4.08-10.62-8.27-2.68-4.55-5.41-9.08-10.76-13.22,0,5.61.15,11.23-.05,16.84-.18,4.82-3.67,5-7.43,5-3.59-.05-5.72-1.46-5.73-5.14q-.08-26.89,0-53.79c0-1.89-.13-4.2,2.62-4.53,3.74-.44,6.94.55,8.78,4.13C741.42,506.29,744.63,512.75,748.26,520Z" transform="translate(-150.8 -90.44)" style="fill:#070504"/><path d="M712.46,526.85v9c0,21.55-8.46,28-29.82,23.14-7.74-1.77-10.39-6.91-10.39-14.17,0-13,0-25.93,0-38.89-.05-9.17,2.45-16.24,13.5-14.89,10.78,1.31,24.58-1.71,26.56,14.91.82,6.88.14,13.94.14,20.92ZM684.2,524.5c0,4,.25,8-.05,12-.45,5.92.79,9.1,8,9,7.46-.06,7.84-3.87,7.66-9.47-.25-8-.06-16-.06-24,0-5.94-4.4-5.45-8.38-6-5.1-.66-7.47,1.07-7.16,6.41C684.4,516.48,684.22,520.49,684.2,524.5Z" transform="translate(-150.8 -90.44)" style="fill:#070504"/><path d="M304.83,524.69c5.64-7.13-3-21.91,9.91-20.32,9.61,1.18,3.22,13.18,4.12,20.2,1.07,8.34.42,16.92.17,25.39-.09,3.14,1.7,7.46-3,8.86s-7.22-1.81-9.16-5.6c-2.23-4.37-4.6-8.65-8.61-16.15-.51,7-1.1,11-1,14.87.12,4.88-1.38,7.38-6.74,7.32-5.71-.07-6.29-3.39-6.25-7.84.11-12,0-23.93.07-35.9,0-3.29-1.26-7.53,3.38-8.77,4.33-1.15,7.66.62,9.78,4.81S302.13,519.9,304.83,524.69Z" transform="translate(-150.8 -90.44)" style="fill:#070504"/><path d="M393.16,559.27c-12.22,3.14-15.82-3.17-14.54-16.12,1.07-10.88-.09-22,.37-32.93.19-4.57-3.23-11.58,2.6-13.33,7.93-2.38,16.67-2.42,25.09-2.62,2.86-.07,2.28,3.77,2.48,6.16.35,4.09-1.06,6.6-5.52,7.16-3.36.42-7,.81-9.8,2.45-1.19.71-1,4.63-.63,7,.67,4.55,4.19,3.18,6.94,2.61,4.54-1,8.81-2.58,9.14,5,.28,6.43-1.73,9.24-8.38,8.47-4.07-.46-7.9-.39-8.14,5.66-.22,5.64,2.44,6.62,7.21,6.6,5.06,0,11.58-2.06,11.28,7.23s-7.16,6-11.95,6.69A55.36,55.36,0,0,1,393.16,559.27Z" transform="translate(-150.8 -90.44)" style="fill:#070504"/><path d="M613.74,531.27c0,6.46,0,12.93,0,19.4,0,4.76,0,8.69-6.85,8.72-7.16,0-8-3.65-7.93-9.41.22-13.92,0-27.85.1-41.78,0-5.61.78-11.27-7.71-11.24-9.34,0-6-7.34-6.15-12-.18-7.72,5.46-5,9.55-4.5,7.9.92,15.77,2.11,23.68,2.91,5.56.56,9.27,2,9,8.91-.25,5.57-1.54,8.5-7.67,7.61s-6.05,3.32-6,7.53C613.78,515.35,613.73,523.31,613.74,531.27Z" transform="translate(-150.8 -90.44)" style="fill:#070504"/><path d="M795.11,502.66c7.82-.53,12.54,2,13.76,11.2,1.63,12.3,5.22,24.34,7.73,36.55.64,3.08,2.77,7.46-2.48,8.5-3.63.72-7.35,1.24-9.74-4-4.54-10-10.48-10.41-15.29,0-2.28,4.93-6.13,4.91-9.94,4-6.57-1.53-2.75-6.23-2.12-9.6,2.37-12.74,5.05-25.42,7.49-38.15C785.63,505.31,787,500.08,795.11,502.66ZM797,519.82c-3,5.74-6.07,11.42-2.7,17.8.33.63,3.49.8,4.12.09C803.74,531.71,797.54,525.91,797,519.82Z" transform="translate(-150.8 -90.44)" style="fill:#070504"/><path d="M654.62,523.43c0,9-.06,18,0,26.92,0,4.7.3,9-6.53,9.11-6.14.08-7.56-2.89-7.51-8.3.16-18.94.1-37.88,0-56.82,0-4.9.07-9,7-8.22,5.81.66,7.27,3.49,7.05,8.91C654.34,504.48,654.62,514,654.62,523.43Z" transform="translate(-150.8 -90.44)" style="fill:#070504"/><path d="M840.82,527.21c.15,10.27-4,23.6,14.93,20.13,3.1-.57,4.07,2.09,4,4.88,0,3-.09,6.62-4,6.76a204,204,0,0,1-25.34-.29c-4.73-.41-3.6-5.19-3.63-8.48-.09-11-.23-21.93.07-32.88.11-4.29-2.68-10.87,6.13-10.42,7.71.39,8.33,5.32,7.82,11.34C840.61,521.22,840.82,524.22,840.82,527.21Z" transform="translate(-150.8 -90.44)" style="fill:#070504"/><path d="M355.46,534.63c0,6-.11,11.93,0,17.89.11,5.17-2.32,6.9-7.31,6.72-4.68-.18-5.82-2.59-5.76-6.65.1-8.45.35-16.91-.07-25.33-.28-5.44,3.5-12.92-7.46-13.83-4.22-.35-3.1-6.54-1.49-10.1,1.29-2.88,27.52-5.5,29.9-3.11,2.92,2.93,2.2,6.62.23,9.49C355.58,521.33,355.47,521.25,355.46,534.63Z" transform="translate(-150.8 -90.44)" style="fill:#070504"/><path d="M267.5,535c0,6-.05,12,0,17.93,0,4.18-1.51,6.46-6.08,6.43s-8.05-.56-8-6.18c0-12.45,0-24.91.06-37.37,0-5.47,4-6.07,8.16-6.5,6.38-.64,5.82,3.77,5.85,7.75C267.53,523.08,267.5,529.06,267.5,535Z" transform="translate(-150.8 -90.44)" style="fill:#070504"/><path d="M635.26,971,634,935.74c7.15-2.82,14.41-1.78,21.57-.29,4.29.89,6.93,4.4,6.39,8.53-.42,3.27.67,10.09-6.93,6.66.83-6.53.1-11.82-8.5-11.45-4.2.17-7,1.84-6.14,6.25,1.51,7.79,7.49,4,11.94,4.21a9.36,9.36,0,0,1,2.71,1c1.51,2.59-1.68,4.1-2.2,4.05C640.71,953.49,641.85,966.42,635.26,971Z" transform="translate(-150.8 -90.44)" style="fill:#1b1b1b"/><path d="M784.19,617.08q-77.55,78.21-155,156.5c-4.46,4.52-7.61,10.34-11.37,15.55l-5.15-2.94Q605.21,700.1,597.76,614l3.22-3.58c60-1.1,120-1.25,180,.08C781,613.2,781.5,615.69,784.19,617.08Z" transform="translate(-150.8 -90.44)" style="fill:#e47229"/><path d="M516.51,614c-5.09,57.09-10.19,114.17-15.23,170.63-5.52,1.64-7-1.64-8.94-3.56Q413.16,702,334.14,622.76a34.48,34.48,0,0,1-3.44-4.83c-.05-2.48-.1-4.95-.14-7.43q90-1.89,180,0C511.68,613.11,513.89,613.91,516.51,614Z" transform="translate(-150.8 -90.44)" style="fill:#e57229"/><path d="M784.19,617.08c-2.69-1.39-3.17-3.88-3.23-6.57,2.71-.66,6.43-1.64,7.63.8C790,614.11,786.53,615.73,784.19,617.08Z" transform="translate(-150.8 -90.44)" style="fill:#f57a2c"/><path d="M330.56,610.5c0,2.48.09,5,.14,7.43-1.93-1.87-5.32-3.65-5.47-5.66C325,609.28,328.37,610.17,330.56,610.5Z" transform="translate(-150.8 -90.44)" style="fill:#f57a2c"/><path d="M516.51,614c-2.62-.06-4.83-.86-6-3.46C513.53,609.93,516.48,609.43,516.51,614Z" transform="translate(-150.8 -90.44)" style="fill:#f57a2c"/><path d="M601,610.43,597.76,614C597.44,611.56,598.39,610.25,601,610.43Z" transform="translate(-150.8 -90.44)" style="fill:#f57a2c"/><path d="M321.45,470.72l230.94-230.8c2.1,14.72-1.76,30.15-3,45.46-4.1,49.36-9.31,98.62-13.79,148-.66,7.35-2.12,11.62-10.84,12.68-62.54,7.54-125,15.66-187.5,23.53C332.33,470.16,327.38,470.29,321.45,470.72Z" transform="translate(-150.8 -90.44)" style="fill:#e57229"/><path d="M560.37,239.63C638,317.22,714.44,393.67,791.74,471c-22-2.58-44-5-65.91-7.79-44.58-5.64-89.14-11.5-133.71-17.21-6-.76-11.48-.41-12.32-9.33C573.62,371,566.93,305.44,560.37,239.63Z" transform="translate(-150.8 -90.44)" style="fill:#e47229"/></svg>