<svg id="Capa_1" data-name="Capa 1" xmlns="http://www.w3.org/2000/svg" viewBox="0 0 1080 792"><path d="M1061.5,465.4c-3.51,4.48-8.08,5.65-13.8,5.64-62.93-.19-125.87-.11-188.82-.13-11.22,0-13.66-2.38-13.67-13.39,0-42.58.07-85.17-.12-127.76,0-5.62,1-10.23,5.83-13.53,68,0,136,.08,204.06-.16,5.56,0,6.71,1.07,6.68,6.6C1061.38,370.2,1061.5,417.78,1061.5,465.4ZM860.05,430.65l-.24,2.59c-6.26,2.63-2.41,8-3.21,12.07-1.35,6.65,1.44,9,8.57,8.95q79.49-.4,159,0c8.58.06,9.59-3.52,9.4-10.4-.17-6.29.37-11.49-8.94-10.72-9.85.77-19.81.11-29.72.06-.12-.91-.23-1.82-.35-2.74l26-26c2.68,2.31,5.55,1.81,7-.91,5.81-11.18,5-22.66.09-33.85-1.48-3.38-4.58-3.68-7.11-.29-15.37-2.59-31.39-7.31-42.72,8.58-6.43,9-15.34,9.09-24.66,8.24-6.43-.59-9.8.89-9.41,8.34.2,3.92,2.94,11.48-2.48,11.49-5,0-1.74-7.5-2.41-11.66-.6-3.78,1-8.28-5.63-8.16-13,.2-26.07.06-39.09.05-2.62,0-5.71.27-5.57,3.42.61,13.6-2.35,27.33,1.5,40.79l-.32,2.72h-4.86l-.58-3c.09-7.66.25-15.32.26-23,0-21.77,0-21.6-21.87-21.05-4.84.11-6.44,1.29-6.31,6.18.34,10.72.1,21.44.12,32.16C856.51,427.21,855.91,430.32,860.05,430.65Zm190.21-33.5c0-17.15-.19-34.3.09-51.45.09-5.55-1.63-7.63-7.4-7.51-5.26.08-7.16,1.89-7.13,7q.15,51,0,102.07c0,5,1.72,7.06,7,7.13,5.69.05,7.59-1.9,7.5-7.51C1050.07,430.26,1050.26,413.7,1050.26,397.15ZM856.5,361.27c0,22.51,0,22.38,21.89,21.75,4.75-.14,6.43-1.25,6.3-6.15-.34-10.37-.47-20.78,0-31.09.31-6.07-1.68-7.58-7.68-7.56-20.54.1-20.54-.14-20.54,20.37Z" style="fill:#1d3e8d"/><path d="M336.78,369c0,22.95-.41,45.89.22,68.81.23,8-3.52,8-9.38,7.94s-9.64,0-9.53-8c.52-30,.09-60.13.36-90.2,0-3.6-3-10.16,3.44-10.37,6.68-.22,14.8-4.11,20.1,4.52,13.81,22.51,28,44.86,42,67.27,1.07,1.74,2.31,3.41,5,7.37V391.63c0-15.65.48-31.31-.21-46.93-.35-8,3.6-8,9.5-8s9.58,0,9.44,8c-.54,31.29-.36,62.59-.1,93.88.05,5.54-1.39,6.9-7.12,7.4-10,.9-15.56-2.56-20.59-11.17-13.12-22.51-27.41-44.33-41.23-66.47Z" style="fill:#184093"/><path d="M623.54,391.11c0-15.63.18-31.27-.1-46.9-.1-5.21.72-7.64,6.94-7.51,21.71.39,43.44.47,65.15,0,7.35-.17,7.07,3.58,7.07,8.51s.47,8.76-7,8.46c-15.18-.62-30.41,0-45.6-.29-5.45-.1-7.5,1.21-7.59,7.09-.33,21.63-.56,21.63,21.62,21.63,8.69,0,17.4.45,26-.15,6.66-.46,8.28,1.75,8.23,8.13,0,6.09-1.83,7.73-7.84,7.5-13.32-.43-26.68.13-40-.26-5.89-.17-8,1.25-8,7.51C642.27,429,642,429,666,429c10.55,0,21.12.38,31.64-.11,7.35-.36,6,4.28,5.92,8.37-.11,3.87,1.88,8.57-5.7,8.49-22.64-.39-45.3-.31-67.94,0-5.49.07-6.66-1.86-6.58-6.83C623.71,423,623.54,407.06,623.54,391.11Z" style="fill:#1a3f91"/><path d="M433.13,391.32c0-16,.21-31.92-.11-47.88-.1-5.3,1.66-6.77,6.91-6.72,21.74.26,43.49.47,65.21-.08,7.61-.2,6.78,3.87,6.87,8.57s.5,8.72-6.92,8.4c-15.2-.64-30.44.06-45.64-.31-5.75-.14-7.31,1.54-7.37,7.22C451.89,382,451.67,382,473.74,382c9.32,0,18.65.39,27.95-.12,7.17-.4,6,4,6.17,8.26s.14,7.57-6.09,7.38c-14.28-.43-28.58.08-42.88-.25-5.36-.12-6.69,1.58-6.82,6.76-.56,25-.72,25,24.66,25,9.94,0,19.9.37,29.8-.13,6.43-.32,7.29,2.67,6.82,7.74-.4,4.29,1.68,9.28-6.29,9.14-22.66-.39-45.35-.29-68,0-5.31,0-6-2.15-6-6.57C433.25,423.25,433.13,407.28,433.13,391.32Z" style="fill:#1a3f91"/><path d="M736.8,391.33c-.13,9,1.38,17.72,5.94,25.73,6.9,12.05,17.6,16.69,31.25,15.28,10.88-1.14,19.08-9,22.61-21.5,1.43-5.1,14.25-9.31,18.55-6,2.56,2,.76,4.64.36,6.76-3.4,17.45-13.47,29.72-30.8,34.62-19.65,5.56-37.74,1.69-52.14-13.24-20.87-21.61-20.51-61.69.23-83.37,16.91-17.66,48.59-20.37,68.25-5.7a38.72,38.72,0,0,1,13.72,19.22c1.88,5.58,1.83,8.9-6,8.73-7.28-.15-11.79-1.07-15.53-8.69-8.43-17.21-35.66-17.55-47.88-1.3C738.76,370.55,736.68,380.71,736.8,391.33Z" style="fill:#193f92"/><path d="M17.86,391.58c0-15.65.21-31.32-.12-47-.12-5.63.89-8.28,7.5-7.92,16.73.9,33.56-1.17,50.23,1.19,18.33,2.6,28.16,14.35,28.15,33,0,18.09-9.65,29.34-27.67,32.43-10.19,1.75-20.46,1.08-30.67.86-6.25-.14-8.9,1.27-8.47,8,.59,9.18-.05,18.41.2,27.62.27,9.78-7.09,5-11.23,5.74-4.29.79-8.31.88-8.07-6.08C18.22,423.5,17.86,407.51,17.86,391.58Zm36.33-3.46c4.65,0,9.32.35,13.93-.08,10.6-1,16.79-8.25,16.29-18.62s-6.15-16-17.16-16.5c-4-.19-8-.11-12.08-.11-18.27,0-18.27,0-18.27,18.14,0,17.36,0,17.36,17.29,17.17Z" style="fill:#1a3f91"/><path d="M254.19,336.92c8.06-2.15,10.85,2.32,13.33,8.86q17.25,45.57,35.37,90.8c2.78,6.94,2.54,9.12-6.06,9.42-9.07.3-12.87-2.83-15.51-11.08-5.73-17.87-6.19-17.76-25.08-17.76h-.93c-7.73.19-16.87-2.07-22.81,1.24s-5.87,13.46-8.8,20.46c-2.29,5.49-15.13,9.65-20.09,6.44-2.23-1.48-1-3.22-.36-4.78,12.8-33.15,25.69-66.24,38.4-99.48C244.29,334.18,250,337.93,254.19,336.92Zm-.67,18.54c-5.49,15.33-10.16,28.58-15,41.76-1.5,4-.51,5.51,3.91,5.36q11.15-.33,22.3,0c4.73.15,4.94-1.53,3.5-5.43C263.38,384,258.85,370.7,253.52,355.46Z" style="fill:#193f92"/><path d="M122.85,390.81c0-15,.57-30.12-.22-45.11-.46-8.67,3.51-9.18,10.39-9.09,6.5.07,10,.54,9.78,8.7-.63,23.92.2,47.88-.45,71.82-.25,9.18,1.62,12.94,11.79,12.12,12.34-1,24.85.19,37.24-.4,7.28-.35,7.14,3.51,7.05,8.49-.09,4.72.78,8.82-6.82,8.63-20.49-.54-41-.36-61.49-.07-5.61.07-7.51-1.44-7.42-7.21C123.1,422.73,122.85,406.76,122.85,390.81Z" style="fill:#104496"/><path d="M532.39,391c0-15.93.35-31.88-.14-47.79-.27-8.69,5.59-6.19,10-6.3,4.57-.1,10-2,9.86,6.43-.42,25.73.11,51.46-.32,77.19-.12,7,1.89,8.88,8.81,8.58,13.62-.54,27.29.16,40.91-.29,7.18-.24,6.29,4.13,6.11,8.36-.16,3.86,1.92,8.77-5.67,8.65q-31.62-.5-63.25,0c-5.78.08-6.43-2.39-6.43-7.13C532.53,422.82,532.39,406.88,532.39,391Z" style="fill:#104496"/><path d="M1020.52,404.48l-26,26-48.68.15c-3.67-3.53-1-8-1.92-12-.7-2.84,2.22-8.09-2.71-8-4.77.06-2,5.24-2.5,8.1s-.13,6-.22,9.05c-.09,2.57-2,2.56-3.88,2.51L932,432.16c-2.14-2.36-5.08-1.86-7.81-1.85-11.44,0-22.87.11-34.31.16-3.85-13.46-.88-27.2-1.5-40.79-.14-3.15,3-3.42,5.57-3.42,13,0,26.06.15,39.09-.05,6.61-.12,5,4.38,5.63,8.16.67,4.12-2.55,11.66,2.41,11.66,5.36,0,2.68-7.57,2.48-11.49-.39-7.45,2.95-8.93,9.41-8.34,9.37.84,18.23.76,24.66-8.25,11.33-15.86,27.35-11.15,42.72-8.57Q1020.49,387,1020.52,404.48Z" style="fill:#fdfefe"/><path d="M932,432.16l2.51-1.88c2.24,6.19,7.51,1.62,11,3a331.41,331.41,0,0,0,49.22,0c9.92,0,19.88.7,29.73-.07,9.3-.73,8.77,4.47,8.94,10.72.18,6.88-.8,10.46-9.4,10.4q-79.48-.6-159,0c-7.12,0-9.92-2.29-8.58-9,.84-4.06-3-9.43,3.22-12.07a86,86,0,0,0,25.13,0h4.73C903.8,433.84,918,435.71,932,432.16Z" style="fill:#fafbfc"/><path d="M1050.26,397.15c0,16.55-.19,33.11.09,49.66.1,5.6-1.8,7.56-7.5,7.5-5.36-.06-7.07-2.14-7-7.13q.15-51,0-102.06c0-5.11,1.87-6.92,7.12-7,5.78-.09,7.51,2,7.41,7.5C1050.07,362.82,1050.26,380,1050.26,397.15Z" style="fill:#eef1f8"/><path d="M856.5,361.27v-2.74c0-20.49,0-20.25,20.54-20.37,6,0,8,1.49,7.69,7.56-.51,10.35-.38,20.76,0,31.09.13,5-1.59,6-6.31,6.21C856.5,383.65,856.5,383.81,856.5,361.27Z" style="fill:#fdfefe"/><path d="M860.05,430.65c-4.19-.33-3.54-3.44-3.54-6.11,0-10.72.23-21.44-.12-32.16-.15-4.89,1.47-6.07,6.31-6.18,21.9-.55,21.92-.72,21.88,21.05,0,7.67-.17,15.32-.27,23Z" style="fill:#fdfefe"/><path d="M1020.52,404.48V369.43c2.53-3.39,5.63-3.09,7.11.29,4.93,11.19,5.72,22.67-.09,33.85C1026.07,406.29,1023.2,406.79,1020.52,404.48Z" style="fill:#e8ecf6"/><path d="M994.83,433.24a331.28,331.28,0,0,1-49.21,0l.19-2.65,48.68-.15C994.61,431.39,994.72,432.3,994.83,433.24Z" style="fill:#6987c4"/><path d="M932,432.16c-14.06,3.52-28.26,1.64-42.44,1.08l.32-2.72c11.44,0,22.87-.14,34.31-.16C927,430.33,929.88,429.83,932,432.16Z" style="fill:#6987c4"/><path d="M860.05,430.65l24.26-.45.55,3a86.39,86.39,0,0,1-25.08,0C859.89,432.38,860,431.51,860.05,430.65Z" style="fill:#6987c4"/><path d="M945.81,430.62l-.19,2.65c-3.59-1.34-8.8,3.21-11-3,1.88.05,3.79.06,3.88-2.51.09-3-.26-6.1.22-9.05s-2.27-8,2.5-8.1c4.93-.08,2,5.17,2.71,8C944.89,422.58,942.14,427.09,945.81,430.62Z" style="fill:#104496"/></svg>