<svg id="Capa_1" data-name="Capa 1" xmlns="http://www.w3.org/2000/svg" viewBox="0 0 1080 792"><path d="M695,379c2.18-10.39,4.77-20.7,6.37-31.18.91-6,3.17-8,9.25-7.51a208.47,208.47,0,0,0,23.45.08c3.74-.13,5.31.65,5.88,4.81,1.5,11,3.73,22,5.83,33.86,2.35-4.64,2.58-9,3.62-13,1.9-7.34,3.4-14.78,5.13-22.16.37-1.61.21-3.51,3-3.48,11.8.15,23.6.07,35.82.07l-11,52.85c-4.66,22.28-9.43,44.54-13.88,66.85-.62,3.06-1.71,3.7-4.54,3.67-10.73-.15-21.47-.17-32.19,0-3,0-4-.93-4.49-3.75-2.25-11.52-4.79-22.94-7.21-34.49-.22-1,0-2.25-1.71-2.61-2.67,12.29-5.46,24.55-7.94,36.89-.7,3.59-2.11,4.65-5.68,4.55-9.28-.25-18.57-.32-27.83,0-3.72.14-4.95-1.2-5.56-4.53-4.42-23.82-9-47.61-13.46-71.42-2.73-14.38-5.28-28.79-8.3-43.11-.91-4.31.12-5.18,4.29-5.05,9.27.31,18.58.33,27.82,0,3.78-.14,4.93,1.35,5.56,4.62,2.18,11.34,4.58,22.64,6.89,34Z" style="fill:#010202"/><path d="M912.15,374.56c0-10.45.1-20.89-.07-31.32-.05-3,.61-4.06,3.84-4,11.44.2,22.88.16,34.33,0,2.8,0,3.72.67,3.72,3.59q-.15,59.26,0,118.55c0,2.8-1.09,3.27-3.48,3.2-10.71-.1-21.44-.21-32.16,0-3.28.09-4.81-1.19-6.05-4a365.16,365.16,0,0,0-16.39-33.2v23.9c0,12.45,0,12.45-12.66,12.45-9.28,0-18.57-.1-27.8.06-3,.06-4.44-.31-4.37-4q.42-57.65.43-115.29c0-3.22.63-4.84,4.53-4.74,11.43.3,22.94.22,34.33,0,3.09,0,4.37,1.22,5.57,3.8,4.91,10.44,10.09,20.76,15.16,31.12Z" style="fill:#010202"/><path d="M537.53,401.83c0-19.05.11-38.1-.09-57.15,0-3.75.82-4.93,4.74-4.83,11.08.28,22.19.27,33.26,0,4-.1,4.83,1.22,4.73,4.92-.25,9.6.06,19.22-.15,28.84-.06,3.27.73,4.55,4.19,4.37a121.38,121.38,0,0,1,13.62.32c3.28.24,4-1.09,3.94-4.05-.14-10,.11-20-.14-29.93-.09-3.43,1-4.23,4.26-4.2,11.09.13,22.19,0,33.28-.26,3.28-.09,4.37.76,4.3,4.19q-.19,57.7,0,115.39c0,3-.66,4.07-3.86,4-11.81-.18-23.65-.16-35.46,0-2.89,0-3.68-.84-3.64-3.68.15-11.43-.07-22.86.15-34.28.06-3.53-.79-5-4.51-4.58-5.36.6-12.32-2.27-15.7,1.17-3.12,3.17-.77,10-.87,15.23-.14,7.44-.19,14.88,0,22.31.1,3.18-1,3.88-4,3.83-11.45-.15-22.94-.18-34.36,0-3.28,0-3.82-1-3.81-4C537.6,440.29,537.53,421.05,537.53,401.83Z" style="fill:#020303"/><path d="M1070.38,427.35c0,6.34-.32,12.71.11,19,.33,4.52-1.47,7.5-4.7,10.22-10.45,8.85-22.94,12.27-36.2,12.75-30.91,1.1-59.54-15.54-69-47.8-11.94-40.52,14.67-79.76,56.93-84.72,16.48-1.92,31.69,1.21,45.74,10.08,3.15,2,3.54,3.54,1.09,6.55-6.56,8.4-13,17-19.21,25.69-2.18,3-3.59,3.57-7.28,1.85-18.38-8.56-37.07,3.84-36.2,23.67.43,9.55,9.36,20.42,18.65,22.49,3.28.74,5.74.15,5.62-4.15-.17-5.8.18-11.62-.14-17.4-.19-3.53,1.1-4.24,4.37-4.2,12,.18,24,.24,36.06,0,3.84-.09,4.44,1.35,4.37,4.69C1070.23,413.19,1070.38,420.27,1070.38,427.35Z" style="fill:#020303"/><path d="M392.38,463.37c-8.55,0-17.09-.1-25.63.05-2.84,0-4.22-.4-4.15-3.75.2-11.42.18-22.85,0-34.27-.06-3,1.09-3.63,3.76-3.55,6.18.18,12.36.19,18.58.07,4.83-.11,6-2.19,3.27-6.14-5.91-8.9-11.82-17.8-18.16-26.38-7.27-9.83-10.93-20.21-5.67-31.84s15.84-16.75,28.12-17.19c16.51-.58,33.07-.16,49.61-.29,2.71,0,3.82.56,3.77,3.57-.18,11.24-.16,22.48,0,33.73,0,2.85-.81,3.81-3.69,3.73-6.35-.17-12.71-.06-19.07,0-1.8,0-3.92-.3-4.91,1.51s.83,3,1.69,4.27c6.45,9.83,13,19.67,19.44,29.5,6.56,10,9,20.76,3.35,31.76S427,463.21,415.26,463.56c-7.64.22-15.29,0-22.88,0Z" style="fill:#020303"/><path d="M12.4,403.31q0-73.17-.1-146.39c0-4.37,1-5.75,5.61-5.75q146.69.21,293.4,0c4.37,0,5.8.88,5.79,5.55q-.19,146.64,0,293.26c0,4.43-1,5.72-5.6,5.71q-146.7-.2-293.41,0c-5.14,0-5.79-1.6-5.78-6.11C12.48,500.88,12.4,452.1,12.4,403.31ZM18.63,546c-.72,2.78.64,3.42,3.15,3.4,14.85-.12,29.7-.17,44.54-.23H167c.72.11,1.45.18,2.18.22,46,0,91.93-.07,137.91.14,4.51,0,3.91-2.26,3.91-5q0-140.31-.07-280.6c0-1.64,1-3.65-1.09-4.9a5.6,5.6,0,0,0,.74-.54.69.69,0,0,0,0-.49,16.51,16.51,0,0,0-3.12-.51l-95.75.09H163.47c-2-.07-4-.19-6-.19-44.18,0-88.37.07-132.55-.13-5.05,0-6.56.86-6.56,6.31q.3,137.13.15,274.22C18.48,540.56,18.58,543.32,18.63,546Z" style="fill:#131415"/><path d="M531.79,382.19c-19.45-9-31-7.09-40.29,6.31-6.1,8.81-4.43,22.63,3.68,30.37,10.15,9.68,23.3,9.83,36.05.13,0,14.51-.06,28.75.06,43,0,2.79-1.56,3.09-3.62,3.66-25,6.85-52.75-3.78-69.52-26-26.91-35.74-10.57-92,42.1-102.56a67.83,67.83,0,0,1,28.09,0c2.12.47,3.57,1.1,3.55,3.84C531.72,354.5,531.79,368.09,531.79,382.19Z" style="fill:#020303"/><path d="M842.53,401.8c0,18.86-.09,37.73.09,56.57,0,3.78-.46,5.36-4.87,5.19-10.93-.39-21.85-.24-32.71,0-3.11,0-3.93-.87-3.92-3.94q.15-57.67,0-115.32c0-3.21.61-4.45,4.13-4.37,11.08.21,22.18.24,33.25,0,3.54-.08,4.13,1.09,4.11,4.3C842.46,363.37,842.53,382.59,842.53,401.8Z" style="fill:#020303"/><path d="M211.68,257.57l95.74-.11a17.34,17.34,0,0,1,3.13.52.69.69,0,0,1,0,.49,5.6,5.6,0,0,1-.74.54c-.93,2.18-1.8,4.36-2.82,6.42Q237,407.3,167,549.15H66.3c.88-2,1.67-4,2.65-5.95q69.47-138.61,138.91-277.26C209.23,263.2,210.41,260.37,211.68,257.57Z" style="fill:#078066"/><path d="M18.63,546c0-2.72-.15-5.46-.15-8.16q0-137.11-.14-274.21c0-5.47,1.52-6.35,6.56-6.32,44.18.21,88.37.12,132.55.13,2,0,4,.12,6,.2-.15.33-.26.68-.41,1Q91.87,400.75,20.68,542.85A31.49,31.49,0,0,1,18.63,546Z" style="fill:#fefefe"/><path d="M167,549.15,307,265.43c1-2.1,1.89-4.28,2.82-6.42,2.07,1.25,1.09,3.27,1.09,4.9Q311,404.19,311,544.5c0,2.75.6,5-3.91,5-46-.21-91.94-.13-137.91-.14C168.45,549.33,167.71,549.26,167,549.15Z" style="fill:#fdfefe"/><path d="M18.63,546a31.49,31.49,0,0,0,2.05-3.15Q91.89,400.74,163,258.61c.15-.33.26-.68.41-1h48.23c-1.27,2.78-2.45,5.62-3.82,8.37Q138.42,404.58,69,543.23c-1,1.93-1.77,4-2.64,5.94-14.86.06-29.71.11-44.56.23C19.27,549.42,17.94,548.79,18.63,546Z" style="fill:#91c24f"/></svg>