<svg xmlns="http://www.w3.org/2000/svg" viewBox="0 0 36.94 33.6"><g id="Capa_2" data-name="Capa 2"><g id="HOME"><g id="Carrusel"><path d="M0,31.31a2.3,2.3,0,0,0,.67,1.62,2.35,2.35,0,0,0,1.62.67H34.65a2.29,2.29,0,0,0,2.29-2.29V12.36H0Zm19.25-4.18a1.94,1.94,0,0,1,.07-.35.48.48,0,0,1,.12-.19.25.25,0,0,1,.15-.05.73.73,0,0,1,.34.13l.59.28a6.78,6.78,0,0,0,.89.28,5.89,5.89,0,0,0,1.27.12,4.68,4.68,0,0,0,1.16-.13,2.4,2.4,0,0,0,.88-.42,2,2,0,0,0,.56-.73,2.6,2.6,0,0,0,.2-1.06,2.45,2.45,0,0,0-.17-.93,1.7,1.7,0,0,0-.51-.7,2.46,2.46,0,0,0-.92-.43,5.31,5.31,0,0,0-1.36-.14,10,10,0,0,0-1.15.06,7,7,0,0,1-1,.07.55.55,0,0,1-.45-.16.94.94,0,0,1-.14-.59V16a1,1,0,0,1,.17-.63.67.67,0,0,1,.54-.19h6.73a.28.28,0,0,1,.19.07.46.46,0,0,1,.15.2,1.63,1.63,0,0,1,.09.38c0,.16,0,.35,0,.57a3,3,0,0,1-.11.95c-.08.2-.19.3-.34.3H22.18v3a6.64,6.64,0,0,1,.77-.05l.79,0a7.12,7.12,0,0,1,2.05.27,4.12,4.12,0,0,1,1.5.79,3.3,3.3,0,0,1,.93,1.3,4.73,4.73,0,0,1,.32,1.79,5,5,0,0,1-.4,2.06A4.24,4.24,0,0,1,27,28.38a5.13,5.13,0,0,1-1.76.95,7.38,7.38,0,0,1-2.28.33,10,10,0,0,1-1.25-.08c-.39-.06-.75-.13-1.06-.21a5.88,5.88,0,0,1-.78-.26,1.63,1.63,0,0,1-.39-.2.62.62,0,0,1-.14-.19,1,1,0,0,1-.07-.23,2.62,2.62,0,0,1,0-.35c0-.14,0-.3,0-.49S19.24,27.27,19.25,27.13ZM8.41,17.87a1.14,1.14,0,0,1,.06-.29.67.67,0,0,1,.12-.2,1.41,1.41,0,0,1,.21-.16l3-2,.14-.07.21,0,.35,0h.55l.68,0a2.51,2.51,0,0,1,.39.05c.09,0,.15.06.17.11a.28.28,0,0,1,.05.16V27.18h2.32a.32.32,0,0,1,.18.06.49.49,0,0,1,.14.19,1.28,1.28,0,0,1,.09.34c0,.15,0,.33,0,.54a3.84,3.84,0,0,1,0,.52,1.28,1.28,0,0,1-.09.34.54.54,0,0,1-.14.18.27.27,0,0,1-.17.06H8.87a.27.27,0,0,1-.17-.06.7.7,0,0,1-.14-.18,1.28,1.28,0,0,1-.09-.34,3.84,3.84,0,0,1,0-.52,4.16,4.16,0,0,1,0-.54,1,1,0,0,1,.08-.34.49.49,0,0,1,.14-.19.28.28,0,0,1,.18-.06h2.64V17.93L9.23,19.2a1.41,1.41,0,0,1-.41.14.29.29,0,0,1-.26-.06A.57.57,0,0,1,8.44,19a3.78,3.78,0,0,1,0-.64Z" style="fill:#727176"/><rect y="10.17" width="36.94" height="1.36" style="fill:#727176"/><path d="M3.8,3.65H2.29a2.35,2.35,0,0,0-1.62.67A2.3,2.3,0,0,0,0,5.94V8.61H36.94V5.94a2.29,2.29,0,0,0-2.29-2.29H30.77v3a1,1,0,0,1-1,1H27.62a1,1,0,0,1-1-1v-3H10.34v3a1,1,0,0,1-1,1H7.19a1,1,0,0,1-1-1v-3Z" style="fill:#727176"/><rect y="8.61" width="36.94" height="1.57" style="fill:#727176"/><rect x="7.19" y="1.01" width="2.14" height="5.64" style="fill:#727176"/><path d="M7.19,0a1,1,0,0,0-1,1V6.65a1,1,0,0,0,1,1H9.33a1,1,0,0,0,1-1V1a1,1,0,0,0-1-1ZM9.33,6.65H7.19V1H9.33Z" style="fill:#fff"/><rect x="27.62" y="1.01" width="2.14" height="5.64" style="fill:#727176"/><path d="M27.62,0a1,1,0,0,0-1,1V6.65a1,1,0,0,0,1,1h2.13a1,1,0,0,0,1-1V1a1,1,0,0,0-1-1Zm2.13,6.65H27.62V1h2.13Z" style="fill:#fff"/><path d="M8.87,27.18a.28.28,0,0,0-.18.06.49.49,0,0,0-.14.19,1,1,0,0,0-.08.34,4.16,4.16,0,0,0,0,.54,3.84,3.84,0,0,0,0,.52,1.28,1.28,0,0,0,.09.34.7.7,0,0,0,.14.18.27.27,0,0,0,.17.06h7.84a.27.27,0,0,0,.17-.06.54.54,0,0,0,.14-.18,1.28,1.28,0,0,0,.09-.34,3.84,3.84,0,0,0,0-.52c0-.21,0-.39,0-.54a1.28,1.28,0,0,0-.09-.34.49.49,0,0,0-.14-.19.32.32,0,0,0-.18-.06H14.39V15.44a.28.28,0,0,0-.05-.16s-.08-.08-.17-.11a2.51,2.51,0,0,0-.39-.05l-.68,0h-.55l-.35,0-.21,0-.14.07-3,2a1.41,1.41,0,0,0-.21.16.67.67,0,0,0-.12.2,1.14,1.14,0,0,0-.06.29v.44a3.78,3.78,0,0,0,0,.64.57.57,0,0,0,.12.33.29.29,0,0,0,.26.06,1.41,1.41,0,0,0,.41-.14l2.28-1.27v9.25Z" style="fill:#fff"/><path d="M24.72,26.8a2.4,2.4,0,0,1-.88.42,4.68,4.68,0,0,1-1.16.13,5.89,5.89,0,0,1-1.27-.12,6.78,6.78,0,0,1-.89-.28l-.59-.28a.73.73,0,0,0-.34-.13.25.25,0,0,0-.15.05.48.48,0,0,0-.12.19,1.94,1.94,0,0,0-.07.35c0,.14,0,.31,0,.52s0,.35,0,.49a2.62,2.62,0,0,0,0,.35,1,1,0,0,0,.07.23.62.62,0,0,0,.14.19,1.63,1.63,0,0,0,.39.2,5.88,5.88,0,0,0,.78.26c.31.08.67.15,1.06.21a10,10,0,0,0,1.25.08,7.38,7.38,0,0,0,2.28-.33A5.13,5.13,0,0,0,27,28.38a4.24,4.24,0,0,0,1.13-1.53,5,5,0,0,0,.4-2.06A4.73,4.73,0,0,0,28.22,23a3.3,3.3,0,0,0-.93-1.3,4.12,4.12,0,0,0-1.5-.79,7.12,7.12,0,0,0-2.05-.27l-.79,0a6.64,6.64,0,0,0-.77.05v-3h5.05c.15,0,.26-.1.34-.3a3,3,0,0,0,.11-.95c0-.22,0-.41,0-.57a1.63,1.63,0,0,0-.09-.38.46.46,0,0,0-.15-.2.28.28,0,0,0-.19-.07H20.5a.67.67,0,0,0-.54.19,1,1,0,0,0-.17.63v6.17a.94.94,0,0,0,.14.59.55.55,0,0,0,.45.16,7,7,0,0,0,1-.07,10,10,0,0,1,1.15-.06,5.31,5.31,0,0,1,1.36.14,2.46,2.46,0,0,1,.92.43,1.7,1.7,0,0,1,.51.7,2.45,2.45,0,0,1,.17.93,2.6,2.6,0,0,1-.2,1.06A2,2,0,0,1,24.72,26.8Z" style="fill:#fff"/></g></g></g></svg>