<svg xmlns="http://www.w3.org/2000/svg" viewBox="0 0 37.9 40.91"><g id="Capa_2" data-name="Capa 2"><g id="HOME"><g id="Carrusel"><path d="M24.48,29.35l-.6-15.22a3.3,3.3,0,0,1-.74.6l.25,14.84h-.27L22.38,15a3.29,3.29,0,0,1-.71.08,3.06,3.06,0,0,1-2.52-1.34l-.24,2.16a8.52,8.52,0,0,1,.6,1.42,47.44,47.44,0,0,1,2.38,11,3.79,3.79,0,0,1-.14,1.21H21a2.61,2.61,0,0,0,.19-1.15A44,44,0,0,0,18.88,17.6c-.46-1.4-1.15-2.71-2.54-2.71H6.86A2.65,2.65,0,0,0,4.32,17.6v7.21H3.58a1.43,1.43,0,0,0-1.37,1.45V29.7a1.41,1.41,0,0,0,1.37,1.45H22.05a2.62,2.62,0,0,0,2.43-1.8Zm-10,2.27H8.66v1h5.77v-1ZM37.9,16.91h-.25V4.15h0L36.32,0h-1.1l-1,3.74.88,13.72-.49.71h-6L27.3,16.94h-.85l3.12,4.78h5.24l3.09-4.81Zm-.87,0h-.66L37,10.36v6.55ZM21.67,9.18a2.54,2.54,0,0,1,2.46,2.6,2.46,2.46,0,1,1-4.92,0,2.54,2.54,0,0,1,2.46-2.6Zm1.47-.33A3.3,3.3,0,0,0,22,8.47L34.48.55l-.27,1L23.14,8.85Zm1.64,2.93h0a3.37,3.37,0,0,0-1.53-2.87L33.94,2.62l-.28,1,.06.77-8.94,7.35Zm-.43,21.64h-1v7.49h5.39c-2.46-1.78-3.61-3.58-4.4-7.49ZM15.6,16.12c1.12,0,1.7,1,2,2.19a25.89,25.89,0,0,1,1.42,7.57A2.06,2.06,0,0,1,17,28.06H11A5.27,5.27,0,0,1,5.93,23V18.31A2.14,2.14,0,0,1,8,16.12ZM11.56,35a2.06,2.06,0,1,0,1.91,2,2,2,0,0,0-1.91-2ZM4,35a2.06,2.06,0,0,0,0,4.1A2.05,2.05,0,0,0,4,35Zm15,0a2,2,0,0,0-1.91,2,2,2,0,0,0,1.91,2A2.06,2.06,0,0,0,19,35Zm.38-1.83A3.78,3.78,0,0,1,23.06,37h0a3.78,3.78,0,0,1-3.66,3.88H3.66A3.78,3.78,0,0,1,0,37H0a3.78,3.78,0,0,1,3.66-3.88Zm-.35,1A2.9,2.9,0,0,1,22,37h0a2.93,2.93,0,0,1-2.95,2.87H4A2.91,2.91,0,0,1,1.09,37h0a2.92,2.92,0,0,1,3-2.87Z" style="fill:#727176;fill-rule:evenodd"/></g></g></g></svg>