<svg xmlns="http://www.w3.org/2000/svg" viewBox="0 0 36.8 36.64"><g id="Capa_2" data-name="Capa 2"><g id="HOME"><g id="Carrusel"><g id="Capa_2-2" data-name="Capa 2"><g id="Capa_4" data-name="Capa 4"><path d="M5.3,30A15.41,15.41,0,0,1,17,3l-.17,1.65A13.75,13.75,0,0,0,6.39,28.75Z" style="fill:#727176"/><path d="M27.17,0H17.72a1.27,1.27,0,0,0-1.24,1.15l-.85,17.68H13.41V13.77a.9.9,0,0,0-.88-.91h0a.9.9,0,0,0-.88.91h0v5.06h-1V15.46A.66.66,0,0,0,10,14.8h0a.65.65,0,0,0-.64.66h0v3.37H8.6a1.06,1.06,0,0,0-1,.92l-.71,5a6.12,6.12,0,0,1,3-.79,6.5,6.5,0,0,1,6.39,6.6c0,.15,0,.3,0,.45h3.44a9.74,9.74,0,0,1-.47-3,9.42,9.42,0,0,1,9.21-9.57V1.29A1.27,1.27,0,0,0,27.17,0Zm-.64,16.3a1.26,1.26,0,0,1-1,1.24,9.4,9.4,0,0,0-6.76,5.83.83.83,0,0,1-.77.54H17.6a.86.86,0,0,1-.84-.87s0-.05,0-.08L17.88,2.89a1.27,1.27,0,0,1,1.24-1.15h6.16A1.27,1.27,0,0,1,26.53,3h0ZM10.83,30.61a1,1,0,1,1-.95-1,1,1,0,0,1,.95,1Zm4.87-.95v1.88a.34.34,0,0,1-.35.36h0a.35.35,0,0,0-.33.26,5.49,5.49,0,0,1-.44,1.1.38.38,0,0,0,.06.43h0a.38.38,0,0,1,0,.51l-1.28,1.34a.34.34,0,0,1-.48,0h0a.33.33,0,0,0-.42-.06,5.87,5.87,0,0,1-1.07.44.35.35,0,0,0-.25.35h0a.37.37,0,0,1-.34.37H9a.36.36,0,0,1-.36-.36h0a.36.36,0,0,0-.24-.36,5.19,5.19,0,0,1-1.06-.45.35.35,0,0,0-.42.06h0a.34.34,0,0,1-.48,0h0L5.1,34.2a.38.38,0,0,1,0-.51h0a.36.36,0,0,0,.06-.43,6.16,6.16,0,0,1-.44-1.1.34.34,0,0,0-.33-.26h0A.35.35,0,0,1,4,31.54V29.66a.35.35,0,0,1,.35-.36h0A.34.34,0,0,0,4.72,29a6.16,6.16,0,0,1,.44-1.1.36.36,0,0,0-.06-.43h0a.38.38,0,0,1,0-.51l1.29-1.33a.34.34,0,0,1,.48,0h0a.33.33,0,0,0,.42.06,5.78,5.78,0,0,1,1.06-.44.35.35,0,0,0,.24-.35h0A.37.37,0,0,1,9,24.58h1.82a.36.36,0,0,1,.35.36h0a.37.37,0,0,0,.25.35,5,5,0,0,1,1.06.45.35.35,0,0,0,.42-.06h0a.34.34,0,0,1,.48,0l0,0L14.65,27a.37.37,0,0,1,0,.5h0a.38.38,0,0,0-.06.43A6.06,6.06,0,0,1,15,29.05a.34.34,0,0,0,.33.26h0a.36.36,0,0,1,.34.36Zm-3.11.95a2.72,2.72,0,1,0-2.72,2.81,2.76,2.76,0,0,0,2.72-2.81ZM29.83,28a1.37,1.37,0,1,1-1.36-1.41A1.39,1.39,0,0,1,29.83,28Zm7-1.34v2.68a.52.52,0,0,1-.5.52h0a.49.49,0,0,0-.48.37,7.58,7.58,0,0,1-.63,1.57.53.53,0,0,0,.09.61h0a.53.53,0,0,1,0,.71l-1.84,1.91a.49.49,0,0,1-.69,0l0,0a.49.49,0,0,0-.6-.09,7.73,7.73,0,0,1-1.51.65.5.5,0,0,0-.36.49h0a.52.52,0,0,1-.48.53H27.16a.52.52,0,0,1-.5-.52h0a.5.5,0,0,0-.36-.49A7.48,7.48,0,0,1,24.79,35a.47.47,0,0,0-.6.09.48.48,0,0,1-.67,0l0,0-1.84-1.91a.51.51,0,0,1,0-.71h0a.52.52,0,0,0,.08-.61,8.88,8.88,0,0,1-.63-1.57.48.48,0,0,0-.47-.37h0a.52.52,0,0,1-.5-.51h0V26.69a.51.51,0,0,1,.48-.52h0a.52.52,0,0,0,.48-.37,7.89,7.89,0,0,1,.62-1.57.51.51,0,0,0-.08-.61.54.54,0,0,1,0-.73L23.49,21a.47.47,0,0,1,.67,0l.05,0a.47.47,0,0,0,.59.08,7.69,7.69,0,0,1,1.51-.64.53.53,0,0,0,.37-.5h0a.51.51,0,0,1,.48-.51h2.62a.5.5,0,0,1,.47.52h0a.53.53,0,0,0,.36.49,7.56,7.56,0,0,1,1.52.65.47.47,0,0,0,.59-.09.49.49,0,0,1,.69,0l0,0,1.84,1.91a.51.51,0,0,1,0,.72h0a.55.55,0,0,0-.08.62,8.49,8.49,0,0,1,.63,1.56.48.48,0,0,0,.47.37h0a.51.51,0,0,1,.5.52ZM32.35,28a4,4,0,0,0-3.88-4,4,4,0,1,0,3.88,4.15Z" style="fill:#727176"/></g></g></g></g></g></svg>