<svg xmlns="http://www.w3.org/2000/svg" viewBox="0 0 29.88 29.88"><defs><style>.cls-1{fill:#5c7c26;}</style></defs><g id="Capa_2" data-name="Capa 2"><g id="Capa_8" data-name="Capa 8"><path class="cls-1" d="M6.54,28a4.67,4.67,0,1,0-4.67-4.67A4.67,4.67,0,0,0,6.54,28ZM23.34,11.2a4.67,4.67,0,1,0-4.67-4.66A4.67,4.67,0,0,0,23.34,11.2Zm0,16.81A4.67,4.67,0,1,1,28,23.34,4.67,4.67,0,0,1,23.34,28ZM29.88,6.54A6.54,6.54,0,1,1,23.34,0,6.53,6.53,0,0,1,29.88,6.54ZM13.07,23.34a6.54,6.54,0,1,1-6.53-6.53A6.53,6.53,0,0,1,13.07,23.34Zm10.27,6.54a6.54,6.54,0,1,0-6.53-6.54A6.54,6.54,0,0,0,23.34,29.88ZM6.54,9.34a2.81,2.81,0,1,1,2.8-2.8A2.81,2.81,0,0,1,6.54,9.34Zm0,3.73A6.54,6.54,0,1,0,0,6.54,6.53,6.53,0,0,0,6.54,13.07Z"/></g></g></svg>