<svg xmlns="http://www.w3.org/2000/svg" viewBox="0 0 86.74 62.24"><g id="Capa_2" data-name="Capa 2"><g id="HOME"><g id="marcas"><g id="Capa_69" data-name="Capa 69"><path d="M0,36.21c3.05,0,6.05-.07,9,0a5.78,5.78,0,0,1,3.8,1.29,4.93,4.93,0,0,1,1.68,2.81,8.42,8.42,0,0,1-1,6.46,6.46,6.46,0,0,1-.92,1c-.17.19-.35.37-.58.61A5,5,0,0,1,15.3,53a9.48,9.48,0,0,1-1.24,6.2,5.26,5.26,0,0,1-4.41,2.53c-3.19.15-6.4,0-9.65,0ZM5.83,50.68v6.63c.55,0,1,0,1.55-.08,1.18-.12,1.53-.4,1.76-1.59a10.65,10.65,0,0,0,.12-2c0-2.51-.56-3.08-3.07-3C6.09,50.63,6,50.66,5.83,50.68Zm0-10v5.66H7c1.34,0,1.86-.5,2-1.84,0-.27.08-.55.1-.82.15-2.51-.52-3.18-3.05-3.05Z"/><path d="M37.82,60.08c-.13,1.67-.13,1.67-1.73,1.67H32.51a.5.5,0,0,1-.13,0V36.26h5.37v7.6a5.4,5.4,0,0,0,.67-.64,4.76,4.76,0,0,1,2.93-2,3.53,3.53,0,0,1,4,2.19,9.75,9.75,0,0,1,.46,2.78c.06,3.41.07,6.83,0,10.25a15.55,15.55,0,0,1-.6,3.5c-.48,1.86-2.77,2.59-4.27,2.21a4.5,4.5,0,0,1-2.57-1.64A2.85,2.85,0,0,0,37.82,60.08Zm2.41-8.44v-.53c0-1.52,0-3,0-4.56,0-.52-.15-1-.79-1.14a1,1,0,0,0-1.14.8A5.72,5.72,0,0,0,37.94,48c0,2.18,0,4.36,0,6.54a14.86,14.86,0,0,0,.14,2.11c.14.93.71,1.55,1.29,1.44.86-.17.8-.92.87-1.57,0-.15,0-.3,0-.45Z"/><path d="M30.3,51.89c0,1.37,0,2.74,0,4.1-.06,2.08-.63,4-2.53,5.12a8.63,8.63,0,0,1-3.21,1.06A7.92,7.92,0,0,1,19,61a4.79,4.79,0,0,1-2.13-3.77c-.1-1.37,0-2.75,0-4.12,0-.75-.17-1.51-.11-2.25.16-2.11-.22-4.26.53-6.32a4.74,4.74,0,0,1,3.45-3,9,9,0,0,1,6.69.42,4.83,4.83,0,0,1,2.68,4.14c.15,1.93,0,3.88,0,5.82Zm-8-.35h0c0,1.8,0,3.59,0,5.39,0,.85.49,1.32,1.17,1.32s1.05-.47,1.14-1.28a2.38,2.38,0,0,0,0-.38c0-3.36,0-6.73,0-10.09a2,2,0,0,0-.22-1,1.31,1.31,0,0,0-.85-.59,1.52,1.52,0,0,0-1,.49,1.42,1.42,0,0,0-.24.92C22.33,48.05,22.34,49.8,22.34,51.54Z"/><path d="M68.73,48H63.32c-.26-3.54,1.15-5.76,4.8-6.49a8.87,8.87,0,0,1,5.24.44,4.8,4.8,0,0,1,3.28,4.47c.07,5,0,10,0,15a2.2,2.2,0,0,1,0,.27H71.35V59.53l-.2-.12a8.35,8.35,0,0,0-.81,1c-1.23,2-5,2.14-6.38,0a5.26,5.26,0,0,1-.68-2.48,20.39,20.39,0,0,1,.19-4c.22-1.51,1.41-2.36,2.63-3.07s2.51-1.3,3.76-2a2.58,2.58,0,0,0,1.33-3.16c-.26-.78-.62-1-1.58-.82-.65.09-.82.6-.87,1.13S68.73,47.32,68.73,48Zm2.46,3.51c-1.18.69-2.4,1.29-2.42,2.9,0,.66,0,1.32,0,2,0,.86.35,1.22,1.09,1.25a1.14,1.14,0,0,0,1.31-1.15C71.22,54.88,71.19,53.25,71.19,51.54Z"/><path d="M56.13,53.09c1.61,0,3.21,0,4.8,0a.7.7,0,0,1,.46.5,35.57,35.57,0,0,1-.53,5.06c-.46,2-2.12,3-4.06,3.36a9.67,9.67,0,0,1-5.11-.32,5.06,5.06,0,0,1-3.51-4.26A34.28,34.28,0,0,1,48,53.14c0-.75-.13-1.51-.1-2.26.1-2.2-.28-4.47.71-6.57a5.54,5.54,0,0,1,4.62-3.11,10.78,10.78,0,0,1,4.24.21,4.66,4.66,0,0,1,3.63,4.08c.17,1,.22,2,.32,3,.05.53-.15.69-.71.65-.89-.08-1.8,0-2.7,0H56c0-.73,0-1.49-.08-2.25a6.65,6.65,0,0,0-.19-1.41c-.19-.62-.77-.63-1.24-.52a1.3,1.3,0,0,0-.79.64,2.88,2.88,0,0,0-.22,1.24q0,4.86,0,9.72a5.39,5.39,0,0,0,.17,1.33,1,1,0,0,0,1.24.72,1.14,1.14,0,0,0,1-1.19C56,56,56.06,54.56,56.13,53.09Z"/><path d="M79.76,45.63a2.09,2.09,0,0,1-.77,0c-.2-.09-.47-.32-.47-.49,0-1.11,0-2.23,0-3.39l1.15-.1V37.48H85v4.17h1.49v4H85.09c0,.3,0,.52,0,.74V56.46c0,1.2.1,1.29,1.24,1.51a.75.75,0,0,1,.42.55c0,.93,0,1.87,0,2.81a.74.74,0,0,1-.41.56,8.6,8.6,0,0,1-4.53-.17,3.71,3.71,0,0,1-2.12-3.62c0-1-.09-1.9-.08-2.85s.14-2,.13-3c0-2-.08-4-.11-6A3.33,3.33,0,0,1,79.76,45.63Z"/><path d="M32,20.41c.1-.09.25-.15.29-.26A19.67,19.67,0,0,1,38,12.65a24.39,24.39,0,0,0,3,2.16,5,5,0,0,1,2.5,3.11c1.07,3.14,4.19,3.1,6.22,2a2,2,0,0,0,.65-.78c.4-.68.77-1.39,1.14-2.1a2.86,2.86,0,0,0,.14-.49,19.3,19.3,0,0,1-3.33-.42c-3.17-1-6.42-1.76-9.28-3.56a10.17,10.17,0,0,1-4.22-5.76,21,21,0,0,1-1-6.38A.6.6,0,0,1,33.92,0c.33.6.62,1.22,1,1.8A9.9,9.9,0,0,0,39,5.49c1,.5,2.1.85,3.15,1.28a.9.9,0,0,1,.5.41c.2.63.69.47,1.11.44.82-.07,1.64-.26,2.46-.27a24.66,24.66,0,0,1,9.09,1.87,6.17,6.17,0,0,0,.92.3,1.29,1.29,0,0,0,1.6-.47,5,5,0,0,1,2-1.14A26.05,26.05,0,0,0,68.07,3a17.11,17.11,0,0,1-2.61,5.21c-1.24,1.45-2.63,2.76-4,4.13-.78.8-.77,1.08.08,1.87.4.37.51.75.06,1.19a6.79,6.79,0,0,1-3.94,1.95,7.12,7.12,0,0,1-2.18-.39l-1.14-.24c0,1.11-.05,2.1,0,3.08s.23,1.7.35,2.52c-.13,0-.44-.14-.76-.21-1.17-.28-2.11.43-3.12.79-.12,0-.23.5-.15.63.45.63,1,1.22,1.47,1.83a5.51,5.51,0,0,1-6.77.38,4.26,4.26,0,0,1-1.11-1.45,1.45,1.45,0,0,0-1.65-1c-1.71.2-3.43.33-5.13.6A3,3,0,0,1,34.44,23,23.19,23.19,0,0,0,32,20.87Z"/><path d="M54.43,25.06c.75-1.18,2.57-2,1-3.94.91.08,1.61.17,2.32.2a3.54,3.54,0,0,0,3.62-3.1A6,6,0,0,1,62,16.38c.26,2.3.11,4.62,1.35,6.77-.73,0-1.45,0-2.17,0-.48,0-.68.13-.69.64a2.78,2.78,0,0,1-3.59,2.71A3.85,3.85,0,0,1,54.43,25.06Z"/><path d="M48.61,30.7c1.17,3,2.92,2.61,4.6,1.42A2.62,2.62,0,0,0,53,34.51c.3.72-.78,2.09-1.59,2.14a10.56,10.56,0,0,1-4.67-.47,1,1,0,0,1-.53-.75,16.92,16.92,0,0,1,.19-2.23c0-.47.32-.65.82-.63,1.26,0,.88.16,1.25-1.08C48.49,31.28,48.53,31.07,48.61,30.7Z"/><path d="M43.11,25A22.57,22.57,0,0,0,32.35,27.9l-.1-.17a3.08,3.08,0,0,1,.41-.3,28.57,28.57,0,0,1,7-2.87A13.64,13.64,0,0,1,42,24.24a3.78,3.78,0,0,1,1.18.44Z"/><path d="M34.51,30a24.13,24.13,0,0,1,3.21-2.34,36,36,0,0,1,4.76-1.84,1.71,1.71,0,0,1,1.2.33,16.5,16.5,0,0,0-9,4.1Z"/><path d="M44.44,27.11l-5,3.16a14.26,14.26,0,0,1,4.34-3.35,1.8,1.8,0,0,1,.65,0Z"/><path d="M61.13,25.59c.14-.09.3-.28.46-.28a6.6,6.6,0,0,1,3.78,2.27Z"/><path d="M65.45,25.3l-3.89-.88c0-.46,0-.78.65-.57A10,10,0,0,1,65.45,25.3Z"/><path d="M55.3,26.81c.28.28.72.51.71.73a2.94,2.94,0,0,1-1.39,2.21Z"/><path d="M51,27.19l-.88,2.58C49.38,27.8,49.41,27.71,51,27.19Z"/><path d="M60.19,26.91c.51-.33,1.92.43,2.79,1.57Z"/></g></g></g></g></svg>