<svg xmlns="http://www.w3.org/2000/svg" viewBox="0 0 143.72 143.72"><g id="Capa_2" data-name="Capa 2"><g id="HOME"><g id="Capa_11" data-name="Capa 11"><path d="M71.86,143.72h0A71.86,71.86,0,0,1,0,71.86H0A71.86,71.86,0,0,1,71.86,0h0a71.86,71.86,0,0,1,71.86,71.86h0A71.86,71.86,0,0,1,71.86,143.72Z" style="fill:#f1f2f2"/><path d="M39.83,61.34H63.75a0,0,0,0,1,0,0V98.14a0,0,0,0,1,0,0H39.83a.36.36,0,0,1-.36-.36V61.71A.36.36,0,0,1,39.83,61.34Z" style="fill:#8dc63f"/><path d="M63.75,99.29H41.63A3.32,3.32,0,0,1,38.31,96V63.51a3.32,3.32,0,0,1,3.32-3.31H63.75a1.14,1.14,0,0,1,1.15,1.15V98.14A1.15,1.15,0,0,1,63.75,99.29ZM41.63,62.49a1,1,0,0,0-1,1V96a1,1,0,0,0,1,1h21V62.49Z" style="fill:#231f20"/><rect x="48.74" y="57.64" width="15.02" height="44.06" rx="4.66" style="fill:#f1f2f2"/><path d="M59.1,102.85H53.39A5.81,5.81,0,0,1,47.59,97V62.3a5.81,5.81,0,0,1,5.8-5.81H59.1a5.81,5.81,0,0,1,5.8,5.81V97A5.81,5.81,0,0,1,59.1,102.85ZM53.39,58.79a3.52,3.52,0,0,0-3.51,3.51V97a3.51,3.51,0,0,0,3.51,3.51H59.1A3.51,3.51,0,0,0,62.6,97V62.3a3.51,3.51,0,0,0-3.5-3.51Z" style="fill:#231f20"/><path d="M82.05,64.5s10.79-28.57-2.36-21.29c0,12.2-15.94,21.29-15.94,21.29V95.76H99.61a4.3,4.3,0,0,0,4.22-3.49l4.32-22.67a4.29,4.29,0,0,0-4.22-5.1Z" style="fill:#f1f2f2"/><path d="M99.61,96.91H63.75a1.15,1.15,0,0,1-1.15-1.15V64.49a1.13,1.13,0,0,1,.58-1c.16-.09,15.37-8.91,15.37-20.29a1.14,1.14,0,0,1,.59-1c2.88-1.59,5.09-1.76,6.56-.48,3.93,3.4-.18,16.47-2,21.63h20.24a5.41,5.41,0,0,1,4.19,2,5.47,5.47,0,0,1,1.16,4.5L105,92.48A5.45,5.45,0,0,1,99.61,96.91ZM64.9,94.61H99.61a3.17,3.17,0,0,0,3.1-2.56L107,69.38a3.16,3.16,0,0,0-3.09-3.74H82.05a1.13,1.13,0,0,1-.94-.49A1.15,1.15,0,0,1,81,64.09c2.77-7.33,5.6-18.57,3.23-20.63-.74-.63-2.25-.1-3.37.45-.51,11.15-13,19.45-15.93,21.24Z" style="fill:#231f20"/><path d="M59.59,92.42a3.35,3.35,0,1,1-3.35-3.35A3.35,3.35,0,0,1,59.59,92.42Z" style="fill:#f1f2f2"/><path d="M56.24,96.91a4.5,4.5,0,1,1,4.5-4.49A4.49,4.49,0,0,1,56.24,96.91Zm0-6.69a2.2,2.2,0,1,0,2.2,2.2A2.19,2.19,0,0,0,56.24,90.22Z" style="fill:#231f20"/></g></g></g></svg>