<svg xmlns="http://www.w3.org/2000/svg" viewBox="0 0 143.72 143.72"><g id="Capa_2" data-name="Capa 2"><g id="HOME"><g id="Capa_11" data-name="Capa 11"><path d="M71.86,143.72h0A71.86,71.86,0,0,1,0,71.86H0A71.86,71.86,0,0,1,71.86,0h0a71.86,71.86,0,0,1,71.86,71.86h0A71.86,71.86,0,0,1,71.86,143.72Z" style="fill:#f1f2f2"/><circle cx="71.86" cy="71.86" r="32.24" style="fill:#8dc63f"/><path d="M71.86,105.25a33.39,33.39,0,1,1,33.39-33.39A33.43,33.43,0,0,1,71.86,105.25Zm0-64.48A31.09,31.09,0,1,0,103,71.86,31.13,31.13,0,0,0,71.86,40.77Z" style="fill:#231f20"/><path d="M96.56,71.86a24.7,24.7,0,1,1-24.7-24.7A24.7,24.7,0,0,1,96.56,71.86Z" style="fill:#f1f2f2"/><path d="M71.86,97.71A25.85,25.85,0,1,1,97.71,71.86,25.88,25.88,0,0,1,71.86,97.71Zm0-49.4A23.55,23.55,0,1,0,95.41,71.86,23.57,23.57,0,0,0,71.86,48.31Z" style="fill:#231f20"/><polygon points="88.64 79.43 71.86 71.86 71.86 59.69 88.64 79.43" style="fill:#f1f2f2"/><path d="M88.64,80.57a1.1,1.1,0,0,1-.47-.1L71.39,72.91a1.15,1.15,0,0,1-.68-1V59.69a1.15,1.15,0,0,1,2.3,0V71.12l16.1,7.26a1.15,1.15,0,0,1-.47,2.19Z" style="fill:#231f20"/></g></g></g></svg>