<svg id="Capa_1" data-name="Capa 1" xmlns="http://www.w3.org/2000/svg" viewBox="0 0 922.3 343.94"><path d="M645.35,382.7c25.37,7.42,51.88,6.14,77.73,10.09,74.56,11.41,147.8,27.06,215.53,61.75,25.34,13,49.1,28.27,67,51,26.18,33.2,25.76,68.43-1.93,100.49-30.8,35.65-72.23,54.89-115.35,70.67-87.15,31.9-177.9,44.74-270.21,48.69-113.95,4.88-226.51-3.64-336.76-34.55a514.43,514.43,0,0,1-70.08-25c-45.48-20.24-86.81-45.43-108.73-93v-38c25-50.64,70.37-76.46,120-96.7,58.22-23.72,119.28-36.32,181.3-45.48,24.79-3.66,50.23-2.47,74.47-10Zm-79.62,14.48c-85.69,1.44-168.16,7.49-249,27.26C261.43,438,207.18,454.58,161.19,489.75c-52.11,39.85-52.35,88-1.09,128.8,36.87,29.33,80.33,45.25,125,58,104,29.6,210.58,37.81,318.14,34.46,95.24-3,189.2-15,279.36-47.79,36.07-13.14,70.81-29.1,98.18-56.87,32.88-33.34,32.48-70.56-.22-103.46-25.82-26-58-41.71-91.68-54.41C783.84,408.91,674,399.34,565.73,397.18Z" transform="translate(-102.55 -382.7)" style="fill:#113e6a"/><path d="M563.32,697.52c-101.84-.31-202.37-10-299.74-41.82-33.13-10.83-64.89-24.57-92.48-46.41-42.44-33.58-43.76-71.59-2.84-106.82,29-25,64.06-38.85,100-50.45,80.49-26,163.66-36.4,247.79-39.57,108.14-4.08,215.24,3.91,320,32.67,39.74,10.91,78.31,25,112.28,49,53.6,37.92,54.09,82.58.38,120.56-48.66,34.4-105.24,49.67-162.66,61.69C712.66,691.72,638.32,698.12,563.32,697.52Zm-.5-122.31c-.77-2.38-1.05-3.49-1.48-4.55-3-7.33-.94-19.89-13.63-18.17-14.08,1.92-8.44,12.88-7.81,21.81,1.27,18.13-4.17,34.32-18.61,46.22-7.71,6.36-16.85,11.73-26.75,4.38-9.59-7.12-8-17.61-4.65-26.87,5.59-15.33,17.19-25.51,31.94-32.46,4.22-2,11.18-3,8.2-10.52-2.79-7.06-8.64-6.18-14.65-4.87-25.93,5.66-42.61,22.16-53.52,45.21-3.44,7.28-6.76,14.45-11.22,21.28-4,6.17-19.6,9.12-9.93,19.43,9.21,9.81,13.06-7.42,21.21-7.77,20,28.81,45.86,31.26,72.46,7,11.65-10.63,19.47-24.28,29.47-36.2,8.53-10.17,16.77-20.64,28.41-27.63,3.37-2,7.17-5.08,10.85-1.43,2.81,2.8.84,6.55-.63,9.59a134.76,134.76,0,0,1-6.67,12.06c-11.4,18.46-22.89,36.87-34.54,55.58,18.38,6.34,29.76,1.23,37.81-14.75,5.78-11.48,13.95-21.76,21.68-33.54,11.68,23,17.92,24.52,48.65,13.5.3,4.1.38,8.1.93,12,3.68,26.39,25.55,34.81,50.85,20.13,4-2.3,8.15-13,14.46-1.72,7.81,14,20.07,11.69,31.81,7.11,18.89-7.37,32.49-21.75,45.25-36.77,3.19-3.76,10.94-7.46,3.42-13.88-6.33-5.41-9.11,1.38-12.58,4.47-8.62,7.68-16.7,16-25.54,23.38-4.64,3.88-10.91,9.41-16.68,3.93-5-4.71-.08-10.8,2.92-15.56,16.32-25.81,33-51.37,49.12-77.32,6.81-11,16-20.74,19.91-33.58-18.43-5.72-29.9.17-38.58,16.54-8.27,15.61-19.35,29.76-30.49,46.49-6.43-13.85-17.08-18.15-30.25-17.29-14.7,1-26,8.92-36.79,17.82s-20.9,18.28-32.14,26.33c-7.39,5.29-17,10.92-24.86,1.6-6.84-8.1-2.64-16.6,3.55-25.43,4,9.81,8.19,17.77,19.24,14.37,10.18-3.13,15-10.84,13.84-21.23-1.38-11.89-9.32-16.16-20.82-15.87-11.81.29-19.28,8.84-28,15.19C615.92,535.78,604.91,538,562.82,575.21Zm-127-32.7a314.37,314.37,0,0,1-35.37,44.08c-12.51,12.91-25.48,25.15-44,29.33-13.16,3-24.51.74-31.77-11.21-7.45-12.27-3-23.29,6-32.89,3.12-3.33,7.05-6,10.74-8.71,3.93-2.94,10.84-4.59,7-11.39-3.08-5.46-9.21-3.92-14.22-3-22.78,4.36-41,30.31-39.65,56.09,1.32,24.78,19,42.15,44.67,44.25,24.84,2,45.18-7.29,62.76-24,23.34-22.11,39.7-49.31,56.51-76.21,3.56-5.69,6-13.67,14.39-13.44,15.41.42,31.84-9.61,46.17,4.56,2.94,2.9,12.37,1.39,9.63-2-8.74-10.7,2.73-11.64,5.75-16.45,4.41-7,8.64-14.09,3-22.25-3.75-5.4-9.39-6.54-15.44-4.77-7.87,2.31-13.89,7.89-14.62,15.59-.91,9.57-5.05,12.91-14,12.5-5.4-.25-10.82-.05-17.17-.05,9.23-17.66,24.28-28.62,37.42-41.49,11.41-11.17,22.63-11.64,37-7.12C581,483.59,611.71,492,644.19,490c17.86-1.11,34.09-6.46,48-17.78,4.57-3.73,7.74-9.19,5.22-15.34-3-7.32-8.75-2.89-13.44-2.12a369.76,369.76,0,0,1-67.32,5.12c-44.84-.85-88.23-12.24-132.53-16.73-31.89-3.24-63.78-4.39-93.86,9.39-19,8.72-34.64,21.26-39.25,43.1-4.87,23.09,9.66,41.38,32.08,40.83,21.89-.54,48.79-22.57,53.07-43.63.66-3.21,1.73-7.2-2.41-8.89-3.33-1.36-5.18,1.78-6.92,3.93-7.75,9.61-16.46,18.08-29.12,20.5-14.42,2.76-22.35-6.65-17.46-20.33s15.81-21,28.7-25.62c33.59-12.11,66.61-5.34,103.16,2.75-13.73,8.45-24.13,15.71-32.59,25.08s-16.69,19.11-24.37,29.18c-4.28,5.62-9.41,7.79-16.13,8.54a83.15,83.15,0,0,0-29.67,9c-4.26,2.25-8.64,6-6,10.61,2,3.61,7.2,2,11-.11C420.31,544.22,426.16,540.1,435.82,542.51Z" transform="translate(-102.55 -382.7)" style="fill:#053664"/><path d="M698.12,616.42c.07-15.28,19-42,33.57-46.93,8.23-2.81,15.21-2.23,16.09,8.47,1.49,18.16-15.64,44.13-32.73,50.11C704.48,631.78,698.07,627.36,698.12,616.42Z" transform="translate(-102.55 -382.7)" style="fill:#0d3a67"/></svg>