<svg xmlns="http://www.w3.org/2000/svg" viewBox="0 0 143.72 143.72"><g id="Capa_2" data-name="Capa 2"><g id="HOME"><g id="Capa_11" data-name="Capa 11"><path d="M71.86,143.72h0A71.86,71.86,0,0,1,0,71.86H0A71.86,71.86,0,0,1,71.86,0h0a71.86,71.86,0,0,1,71.86,71.86h0A71.86,71.86,0,0,1,71.86,143.72Z" style="fill:#f1f2f2"/><path d="M51.12,61.23A19.05,19.05,0,1,1,87,70.29l-4.89,7.86-1.62,11H59.9L58,78.15l-4.61-7.87A18.91,18.91,0,0,1,51.12,61.23Z" style="fill:#f1f2f2"/><path d="M80.44,90.27H59.9a1.16,1.16,0,0,1-1.14-1L56.92,78.55l-4.5-7.69a20.18,20.18,0,1,1,35.55,0l-4.81,7.72L81.58,89.29A1.15,1.15,0,0,1,80.44,90.27ZM60.87,88H79.45l1.47-10a1.23,1.23,0,0,1,.16-.44L86,69.68a17.92,17.92,0,1,0-31.56,0L59,77.57a1.07,1.07,0,0,1,.14.39Z" style="fill:#231f20"/><polygon points="63.72 69.04 70.19 89.4 75.66 69.04 63.72 69.04" style="fill:#f1f2f2"/><path d="M70.19,90.55a1.16,1.16,0,0,1-1.1-.8L62.62,69.39a1.15,1.15,0,0,1,1.1-1.49H75.66a1.16,1.16,0,0,1,.91.44,1.2,1.2,0,0,1,.2,1L71.3,89.7a1.15,1.15,0,0,1-1.08.85Zm-4.9-20.36L70.1,85.32l4.06-15.13Z" style="fill:#231f20"/><rect x="59.8" y="89.12" width="20.64" height="12.41" style="fill:#8dc63f"/><path d="M80.44,102.68H59.8a1.14,1.14,0,0,1-1.15-1.15V89.12A1.15,1.15,0,0,1,59.8,88H80.44a1.15,1.15,0,0,1,1.15,1.15v12.41A1.14,1.14,0,0,1,80.44,102.68ZM61,100.39H79.29V90.27H61Z" style="fill:#231f20"/></g></g></g></svg>