<svg xmlns="http://www.w3.org/2000/svg" viewBox="0 0 120.32 46.44"><g id="Capa_2" data-name="Capa 2"><g id="HOME"><g id="marcas"><g id="Capa_69" data-name="Capa 69"><path d="M60.12,46.44H.38c-.29,0-.38,0-.38-.36Q0,23.24,0,.38C0,0,.09,0,.4,0H119.92c.32,0,.4.05.4.38q0,22.83,0,45.66c0,.37-.11.4-.42.4Zm0-6.62h51.45c1.32,0,1.85-.52,1.85-1.84q0-14.77,0-29.54a4.43,4.43,0,0,0,0-.52,1.42,1.42,0,0,0-1.29-1.27c-.32,0-.64,0-1,0H8.49A1.51,1.51,0,0,0,6.86,8.28V38a3.52,3.52,0,0,0,0,.56,1.4,1.4,0,0,0,1.26,1.2,5.08,5.08,0,0,0,.68,0Z" style="fill:#faad26"/><path d="M60.16,39.82H8.84a5.08,5.08,0,0,1-.68,0,1.4,1.4,0,0,1-1.26-1.2,3.52,3.52,0,0,1,0-.56V8.28A1.51,1.51,0,0,1,8.49,6.62H111.18c.32,0,.64,0,1,0a1.42,1.42,0,0,1,1.29,1.27,4.43,4.43,0,0,1,0,.52q0,14.76,0,29.54c0,1.32-.53,1.84-1.85,1.84ZM105.72,22.9l.45-.21a5.06,5.06,0,0,0,3.13-3.83,9.34,9.34,0,0,0,0-3A5.83,5.83,0,0,0,105.72,11a11.33,11.33,0,0,0-4.49-.83c-7.82,0-15.64,0-23.46,0-.33,0-.45.06-.44.43q0,12.57,0,25.14c0,.36.09.46.45.46l24.66,0a13.77,13.77,0,0,0,3.26-.38,5.43,5.43,0,0,0,4.38-4.31,10.6,10.6,0,0,0,0-4.85A4.47,4.47,0,0,0,107,23.26C106.57,23.12,106.16,23,105.72,22.9ZM57.28,36.45c2.18,0,4.36,0,6.54,0a21.31,21.31,0,0,0,4.77-.51,6.2,6.2,0,0,0,5.1-5.14,17.3,17.3,0,0,0,.19-4.31c0-.31-.08-.41-.4-.41-2.28,0-4.55,0-6.82,0-.84,0-.84,0-.89.83a2.65,2.65,0,0,1-2.16,2.7,8.8,8.8,0,0,1-2.22.3c-2.2.09-4.41.05-6.61,0a17.68,17.68,0,0,1-2.72-.19c-2-.31-3.07-1.26-3.29-3.27a32.23,32.23,0,0,1,0-7.08,2.94,2.94,0,0,1,2.72-2.81,8.61,8.61,0,0,1,1.82-.21c2.76,0,5.51,0,8.26,0a9.07,9.07,0,0,1,1.28.09c1.49.23,2.7.86,2.69,2.83,0,.31.18.25.36.25h7.3c.3,0,.36-.11.37-.36a17.8,17.8,0,0,0-.22-3.79,5.78,5.78,0,0,0-4.55-5,23,23,0,0,0-5.6-.56q-6,0-11.95,0a19.42,19.42,0,0,0-5.3.73,6.82,6.82,0,0,0-5,5.05,15.84,15.84,0,0,0-.46,3.88c0,2.51,0,5,0,7.54a16.05,16.05,0,0,0,.2,2.59A7.37,7.37,0,0,0,45,35.41a12.24,12.24,0,0,0,4.74,1C52.23,36.55,54.76,36.45,57.28,36.45ZM36.62,19.89q0-4.65,0-9.3c0-.32-.05-.45-.43-.45-2.36,0-4.73,0-7.09,0-.37,0-.44.1-.44.45q0,7.74,0,15.47c0,.43,0,.86,0,1.28-.12,1.66-.89,2.49-2.48,2.57a51.38,51.38,0,0,1-5.41,0A2.62,2.62,0,0,1,18,27.34a10.29,10.29,0,0,1-.07-2.15c0-.2,0-.32-.26-.32H10.69c-.27,0-.26.13-.26.32,0,1.1,0,2.19,0,3.29a15,15,0,0,0,.24,2.75,5.43,5.43,0,0,0,4,4.55,17,17,0,0,0,4.3.63c2.4.08,4.79.05,7.18,0a24.41,24.41,0,0,0,4.75-.36,6.45,6.45,0,0,0,4.62-3,7.93,7.93,0,0,0,1.07-4C36.63,26,36.62,23,36.62,19.89Zm-15.5-4.41c0-1.63,0-3.26,0-4.88,0-.34-.06-.46-.43-.45h-9.9c-.3,0-.37.09-.37.38,0,3.33,0,6.65,0,10,0,.28.07.35.35.35h10c.29,0,.38-.06.37-.37C21.11,18.82,21.12,17.15,21.12,15.48Z" style="fill:#020101"/><path d="M105.72,22.9c.44.12.85.22,1.25.36A4.47,4.47,0,0,1,110,26.61a10.6,10.6,0,0,1,0,4.85,5.43,5.43,0,0,1-4.38,4.31,13.77,13.77,0,0,1-3.26.38l-24.66,0c-.36,0-.45-.1-.45-.46q0-12.57,0-25.14c0-.37.11-.43.44-.43,7.82,0,15.64,0,23.46,0a11.33,11.33,0,0,1,4.49.83,5.83,5.83,0,0,1,3.59,4.84,9.34,9.34,0,0,1,0,3,5.06,5.06,0,0,1-3.13,3.83ZM92.8,30.24h7.13a1.89,1.89,0,0,0,1.74-.8,2.74,2.74,0,0,0,.18-2.75,2,2,0,0,0-2.09-1.12H85.61c-.29,0-.34.09-.34.36,0,1.31,0,2.62,0,3.93,0,.32.09.39.4.39C88,30.23,90.42,30.24,92.8,30.24Zm-.3-10h6.77a1.78,1.78,0,0,0,1.75-1A2.2,2.2,0,0,0,99,16H85.63c-.28,0-.37.07-.36.36,0,1.19,0,2.37,0,3.56,0,.32.09.37.38.37C87.93,20.25,90.22,20.26,92.5,20.26Z" style="fill:#fdfdfd"/><path d="M57.28,36.45c-2.52,0-5.05.1-7.57,0a12.24,12.24,0,0,1-4.74-1,7.37,7.37,0,0,1-4.22-5.76,16.05,16.05,0,0,1-.2-2.59c0-2.51,0-5,0-7.54A15.84,15.84,0,0,1,41,15.64a6.82,6.82,0,0,1,5-5.05,19.42,19.42,0,0,1,5.3-.73q6,0,11.95,0a23,23,0,0,1,5.6.56,5.78,5.78,0,0,1,4.55,5,17.8,17.8,0,0,1,.22,3.79c0,.25-.07.36-.37.36h-7.3c-.18,0-.37.06-.36-.25,0-2-1.2-2.6-2.69-2.83a9.07,9.07,0,0,0-1.28-.09c-2.75,0-5.5,0-8.26,0a8.61,8.61,0,0,0-1.82.21,2.94,2.94,0,0,0-2.72,2.81,32.23,32.23,0,0,0,0,7.08c.22,2,1.28,3,3.29,3.27a17.68,17.68,0,0,0,2.72.19c2.2,0,4.41.05,6.61,0a8.8,8.8,0,0,0,2.22-.3,2.65,2.65,0,0,0,2.16-2.7c0-.83,0-.83.89-.83,2.27,0,4.54,0,6.82,0,.32,0,.39.1.4.41a17.3,17.3,0,0,1-.19,4.31,6.2,6.2,0,0,1-5.1,5.14,21.31,21.31,0,0,1-4.77.51C61.64,36.47,59.46,36.45,57.28,36.45Z" style="fill:#fdfdfd"/><path d="M36.62,19.89c0,3.06,0,6.13,0,9.19a7.93,7.93,0,0,1-1.07,4,6.45,6.45,0,0,1-4.62,3,24.41,24.41,0,0,1-4.75.36c-2.39,0-4.78,0-7.18,0a17,17,0,0,1-4.3-.63,5.43,5.43,0,0,1-4-4.55,15,15,0,0,1-.24-2.75c0-1.1,0-2.19,0-3.29,0-.19,0-.32.26-.32h6.94c.26,0,.28.12.26.32A10.29,10.29,0,0,0,18,27.34a2.62,2.62,0,0,0,2.79,2.57,51.38,51.38,0,0,0,5.41,0c1.59-.08,2.36-.91,2.48-2.57,0-.42,0-.85,0-1.28q0-7.74,0-15.47c0-.35.07-.45.44-.45,2.36,0,4.73,0,7.09,0,.38,0,.43.13.43.45Q36.61,15.24,36.62,19.89Z" style="fill:#fcfcfc"/><path d="M21.12,15.48c0,1.67,0,3.34,0,5,0,.31-.08.37-.37.37h-10c-.28,0-.35-.07-.35-.35,0-3.33,0-6.65,0-10,0-.29.07-.38.37-.38h9.9c.37,0,.44.11.43.45C21.11,12.22,21.12,13.85,21.12,15.48Zm-8.71-3.3c-.64,0-.81.19-.73.69a3.58,3.58,0,0,0,.09.35q.78,2.49,1.57,5c.2.63.49.78,1.12.58l4.92-1.56c.58-.19.74-.49.55-1.07-.23-.74-.49-1.47-.73-2.2a1.06,1.06,0,0,0-.92-.78c-.9-.14-1.79-.3-2.68-.45Z" style="fill:#faad26"/><path d="M92.8,30.24c-2.38,0-4.76,0-7.13,0-.31,0-.41-.07-.4-.39,0-1.31,0-2.62,0-3.93,0-.27,0-.36.34-.36H99.76a2,2,0,0,1,2.09,1.12,2.74,2.74,0,0,1-.18,2.75,1.89,1.89,0,0,1-1.74.8Z" style="fill:#010101"/><path d="M92.5,20.26c-2.28,0-4.57,0-6.85,0-.29,0-.39-.05-.38-.37,0-1.19,0-2.37,0-3.56,0-.29.08-.36.36-.36H99a2.2,2.2,0,0,1,2,3.31,1.78,1.78,0,0,1-1.75,1Z" style="fill:#040404"/><path d="M12.41,12.18l3.19.52c.89.15,1.78.31,2.68.45a1.06,1.06,0,0,1,.92.78c.24.73.5,1.46.73,2.2.19.58,0,.88-.55,1.07l-4.92,1.56c-.63.2-.92,0-1.12-.58q-.79-2.47-1.57-5a3.58,3.58,0,0,1-.09-.35C11.6,12.37,11.77,12.17,12.41,12.18Zm0,.26c-.37,0-.5.13-.4.5s.3,1,.45,1.45L13.58,18c.15.46.33.6.68.49l5.08-1.58a.47.47,0,0,0,.34-.68c-.25-.73-.5-1.47-.73-2.2a.86.86,0,0,0-.77-.65c-.57-.08-1.14-.18-1.7-.28Z" style="fill:#180e05"/><path d="M12.39,12.44l4.09.67c.56.1,1.13.2,1.7.28A.86.86,0,0,1,19,14c.23.73.48,1.47.73,2.2a.47.47,0,0,1-.34.68L14.26,18.5c-.35.11-.53,0-.68-.49l-1.14-3.62c-.15-.48-.31-1-.45-1.45S12,12.42,12.39,12.44Zm.79.51c.16.72.17.72.64,1a.42.42,0,0,1,.1.2c.25.82.51,1.63.75,2.44,0,.11.16.27-.06.33s-.23-.08-.28-.22-.16-.51-.25-.76-.44-.17-.64-.15-.06.24,0,.34c.09.34.21.66.31,1,.28.92.43,1,1.34.73l.12,0c.46-.16.54-.31.4-.78-.28-.92-.57-1.83-.85-2.75,0-.09-.12-.25,0-.26.35,0,.16-.2.14-.34,0-.43-.28-.6-.69-.62S13.55,13,13.18,13Zm4,2.64c-.35-.05-.43.09-.31.38,0,.09.06.18.09.27s0,.19-.09.22a.16.16,0,0,1-.22-.11c-.2-.68-.41-1.36-.61-2a.12.12,0,0,1,.06-.17.14.14,0,0,1,.18,0,.63.63,0,0,1,.13.24c0,.38.34.42.58.33s0-.32,0-.47c-.1-.39-.21-.8-.69-.89a7.18,7.18,0,0,0-.79-.12c-.33,0-.46.11-.37.43.33,1.11.68,2.21,1,3.32a.45.45,0,0,0,.58.36c.37-.11.86,0,1-.55v0a5.8,5.8,0,0,0-.33-1.15C17.37,15.54,17.25,15.59,17.18,15.59Zm-.14-2c.3.94.57,1.84.88,2.73.08.23,0,.63.36.64a1.67,1.67,0,0,0,.84-.23.4.4,0,0,0,.23-.39,1.68,1.68,0,0,0-.41-1.09.3.3,0,0,1-.1-.32,1.08,1.08,0,0,0-.69-1.2A4.27,4.27,0,0,0,17,13.56Z" style="fill:#eea727"/><path d="M13.18,13c.37.05.7.12,1,.14s.66.19.69.62c0,.14.21.33-.14.34-.15,0,0,.17,0,.26.28.92.57,1.83.85,2.75.14.47.06.62-.4.78l-.12,0c-.91.27-1.06.19-1.34-.73-.1-.33-.22-.65-.31-1,0-.1-.22-.31,0-.34s.51-.23.64.15.17.51.25.76.11.26.28.22.1-.22.06-.33c-.24-.81-.5-1.62-.75-2.44a.42.42,0,0,0-.1-.2C13.35,13.67,13.34,13.67,13.18,13Z" style="fill:#0b0704"/><path d="M17.18,15.59c.07,0,.19-.05.22.07a5.8,5.8,0,0,1,.33,1.15v0c-.16.52-.65.44-1,.55a.45.45,0,0,1-.58-.36c-.33-1.11-.68-2.21-1-3.32-.09-.32,0-.46.37-.43a7.18,7.18,0,0,1,.79.12c.48.09.59.5.69.89,0,.15.26.37,0,.47s-.54.05-.58-.33a.63.63,0,0,0-.13-.24.14.14,0,0,0-.18,0,.12.12,0,0,0-.06.17c.2.67.41,1.35.61,2a.16.16,0,0,0,.22.11c.13,0,.11-.13.09-.22s-.05-.18-.09-.27C16.75,15.68,16.83,15.54,17.18,15.59Z" style="fill:#0b0704"/><path d="M17,13.56a4.27,4.27,0,0,1,1.11.14,1.08,1.08,0,0,1,.69,1.2.3.3,0,0,0,.1.32,1.68,1.68,0,0,1,.41,1.09.4.4,0,0,1-.23.39,1.67,1.67,0,0,1-.84.23c-.35,0-.28-.41-.36-.64C17.61,15.4,17.34,14.5,17,13.56ZM18.5,15.5c-.12,0-.24,0-.2.1s0,.45.27.53a.15.15,0,0,0,.19-.18C18.72,15.78,18.73,15.54,18.5,15.5ZM18,14.27a.09.09,0,0,0-.09.14c.07.15,0,.4.27.42.1,0,.2,0,.16-.16S18.29,14.28,18,14.27Z" style="fill:#0c0704"/><path d="M18.5,15.5c.23,0,.22.28.26.45a.15.15,0,0,1-.19.18c-.24-.08-.2-.34-.27-.53S18.38,15.5,18.5,15.5Z" style="fill:#e1a22b"/><path d="M18,14.27c.29,0,.28.24.34.4s-.06.17-.16.16c-.26,0-.2-.27-.27-.42A.09.09,0,0,1,18,14.27Z" style="fill:#d89e29"/></g></g></g></g></svg>