<svg xmlns="http://www.w3.org/2000/svg" viewBox="0 0 137.21 27.72"><g id="Capa_2" data-name="Capa 2"><g id="HOME"><g id="marcas"><g id="Capa_69" data-name="Capa 69"><path d="M83.16,13.6c0-2,0-3.92,0-5.89,0-.18,0-.25.24-.25,1.9,0,3.81,0,5.71,0a7.56,7.56,0,0,1,3.52.88,5.19,5.19,0,0,1,2.65,3.25,6.69,6.69,0,0,1-.09,4.24,5.57,5.57,0,0,1-3.59,3.44,8.41,8.41,0,0,1-2.82.45H83.39c-.18,0-.23,0-.23-.23C83.17,17.55,83.16,15.57,83.16,13.6Zm2.28,0h0c0,1.29,0,2.58,0,3.86,0,.19,0,.24.23.24h3a6.23,6.23,0,0,0,1.49-.15A3.64,3.64,0,0,0,93,15.31a4.77,4.77,0,0,0,.26-2.21,3.5,3.5,0,0,0-2.34-3.21A5.15,5.15,0,0,0,89,9.52c-1.12,0-2.24,0-3.37,0-.19,0-.23.05-.23.24C85.45,11,85.44,12.32,85.44,13.61Z" style="fill:#010101"/><path d="M127.37,19.74c-.66,0-1.31,0-2,0a1.24,1.24,0,0,1-1.24-.62c-.66-1-1.4-1.88-2.1-2.81a.43.43,0,0,0-.37-.19c-.74,0-1.47,0-2.2,0-.19,0-.23.06-.23.24,0,1.05,0,2.1,0,3.14,0,.17,0,.23-.22.23-.6,0-1.2,0-1.79,0-.21,0-.27-.05-.26-.26V12.21c0-.7,0-1.4,0-2.1,0-.17,0-.2.2-.2,2.16,0,4.31,0,6.47,0a3.19,3.19,0,0,1,2.62,1.16,3.1,3.1,0,0,1-1.5,4.86c-.21.06-.21.1-.09.26.84,1.09,1.68,2.19,2.51,3.29A.47.47,0,0,1,127.37,19.74Zm-5.73-5.62c.6,0,1.31.05,2,0a1.08,1.08,0,0,0,.21-2.13,2.31,2.31,0,0,0-.52-.06H119.5c-.16,0-.22,0-.22.2q0,.9,0,1.8c0,.16,0,.2.21.2Z" style="fill:#010101"/><path d="M76.37,16.52c0-2.17,0-4.25,0-6.34,0-.22,0-.28.27-.27.6,0,1.21,0,1.82,0,.15,0,.2,0,.2.19,0,3.15,0,6.29,0,9.44,0,.16,0,.21-.21.21-.61,0-1.22,0-1.82,0a.53.53,0,0,1-.43-.19q-2.76-3.16-5.54-6.32l-.13-.14a.77.77,0,0,0,0,.33c0,2,0,4,0,6,0,.24-.07.28-.29.28-.59,0-1.18,0-1.77,0-.15,0-.21,0-.21-.2V10.11c0-.17.06-.2.21-.2.58,0,1.17,0,1.75,0a.6.6,0,0,1,.51.23c1.48,1.68,3,3.36,4.47,5Z" style="fill:#010101"/><path d="M49.56,20A6.64,6.64,0,0,1,46,19.06a4.68,4.68,0,0,1-2.2-4,5.33,5.33,0,0,1,.65-2.95,4.66,4.66,0,0,1,3-2.19,7.87,7.87,0,0,1,5.18.31,4.46,4.46,0,0,1,2.72,3.66,5.3,5.3,0,0,1-.51,3.39,4.9,4.9,0,0,1-3.48,2.49A8.69,8.69,0,0,1,49.56,20Zm0-8.27a3.65,3.65,0,0,0-.85.06,2.84,2.84,0,0,0-2.47,1.91,3.55,3.55,0,0,0-.13,1.68,2.65,2.65,0,0,0,1.78,2.31,5.12,5.12,0,0,0,2.6.22A2.91,2.91,0,0,0,52.7,16.5a3.49,3.49,0,0,0,.37-2.27A2.64,2.64,0,0,0,51.35,12,4.28,4.28,0,0,0,49.52,11.71Z" style="fill:#020202"/><path d="M128.19,14.83c0-1.56,0-3.12,0-4.69,0-.19,0-.23.24-.23H137c.19,0,.23.05.23.23,0,.52,0,1,0,1.55,0,.21-.07.23-.25.23h-6.24c-.2,0-.27,0-.26.25,0,.46,0,.92,0,1.37,0,.21,0,.28.26.28,1.58,0,3.16,0,4.74,0,.17,0,.23,0,.23.21,0,.53,0,1.06,0,1.6,0,.18-.06.22-.23.22h-4.77c-.17,0-.24,0-.23.22,0,.48,0,1,0,1.45,0,.18,0,.22.22.22h6.26c.22,0,.28.05.27.27,0,.52,0,1.05,0,1.57,0,.15,0,.2-.19.2q-4.32,0-8.64,0c-.22,0-.19-.11-.19-.25Z" style="fill:#020202"/><path d="M96.46,14.83c0-1.56,0-3.11,0-4.67,0-.18,0-.25.24-.25h8.56c.18,0,.24,0,.23.23,0,.51,0,1,0,1.52,0,.21,0,.27-.25.27H99c-.23,0-.29.06-.28.28,0,.47,0,.93,0,1.4,0,.18.05.21.22.21h4.74c.21,0,.27.06.26.26,0,.52,0,1,0,1.55,0,.2-.06.23-.24.23H99c-.23,0-.27.07-.26.27,0,.47,0,.94,0,1.4,0,.18.05.22.22.22h6.24c.22,0,.3,0,.29.28,0,.5,0,1,0,1.5,0,.2,0,.26-.25.26H97.45a5.43,5.43,0,0,0-.7,0c-.25,0-.29-.07-.29-.3C96.47,17.91,96.46,16.37,96.46,14.83Z" style="fill:#020202"/><path d="M106.74,14.82c0-1.55,0-3.1,0-4.65,0-.19,0-.26.25-.26h8.51c.2,0,.27,0,.26.25q0,.75,0,1.5c0,.2,0,.27-.25.27l-6.17,0c-.25,0-.35.06-.33.33,0,.44,0,.89,0,1.34,0,.19,0,.24.23.23H114c.21,0,.26.06.26.26,0,.51,0,1,0,1.52,0,.22-.06.26-.27.26h-4.71c-.21,0-.26.05-.25.25,0,.47,0,1,0,1.42,0,.18,0,.22.22.22h6.27c.21,0,.27.05.26.26,0,.52,0,1.05,0,1.57,0,.16-.05.21-.21.21q-4.3,0-8.61,0c-.18,0-.2-.07-.2-.22Z" style="fill:#010101"/><path d="M66.77,14.83V19.5c0,.18,0,.25-.24.25-.6,0-1.21,0-1.82,0-.18,0-.22-.05-.22-.22,0-1.16,0-2.31,0-3.47,0-.18,0-.23-.23-.23H58.83c-.17,0-.22,0-.22.22,0,1.15,0,2.31,0,3.47,0,.19,0,.23-.24.23-.61,0-1.21,0-1.82,0-.15,0-.22,0-.22-.2,0-3.15,0-6.31,0-9.46,0-.14,0-.18.17-.18.63,0,1.25,0,1.88,0,.2,0,.22.07.22.24,0,1.15,0,2.3,0,3.44,0,.18,0,.22.22.22h5.46c.19,0,.21-.05.21-.22,0-1.14,0-2.28,0-3.42,0-.19,0-.27.25-.26.6,0,1.2,0,1.8,0,.18,0,.23,0,.23.23C66.76,11.7,66.77,13.27,66.77,14.83Z"/><path d="M34.19,17.4a9.11,9.11,0,0,0,3.31.45,6.66,6.66,0,0,0,1.4-.2,1.94,1.94,0,0,0,1.58-1.87c0-.36.05-.72.05-1.07q0-3.5,0-7c0-.19,0-.25.25-.25.6,0,1.21,0,1.82,0,.15,0,.21,0,.21.2q0,3.8,0,7.57a5.9,5.9,0,0,1-.41,2.31,3.74,3.74,0,0,1-2.8,2.2,12,12,0,0,1-3.53.18,12.16,12.16,0,0,1-1.7-.22c-.08,0-.17,0-.17-.13C34.19,18.86,34.19,18.14,34.19,17.4Z" style="fill:#010101"/><path d="M15.51,27.71a28.45,28.45,0,0,1-3.57-.17,30.28,30.28,0,0,1-7.88-2c-.59-.24-1.16-.5-1.73-.76a.47.47,0,0,1-.25-.27A28.32,28.32,0,0,1,.49,19.11a26.91,26.91,0,0,1-.46-4,28.06,28.06,0,0,1,2.08-12A.28.28,0,0,1,2.27,3,29.2,29.2,0,0,1,8.21.84,28.75,28.75,0,0,1,11.52.23c.85-.1,1.7-.17,2.55-.2s1.54,0,2.3,0A28.85,28.85,0,0,1,20,.36a29.85,29.85,0,0,1,6.61,1.81c.6.24,1.18.5,1.77.78a.26.26,0,0,1,.13.14,27.68,27.68,0,0,1,1.54,5,26.77,26.77,0,0,1,.49,3.35,27.88,27.88,0,0,1,.07,3.77,28.29,28.29,0,0,1-1.29,7.18c-.23.71-.49,1.42-.77,2.12a.46.46,0,0,1-.26.27,30,30,0,0,1-5.68,2,32.07,32.07,0,0,1-3.65.66,27.06,27.06,0,0,1-3.11.2ZM1.23,12.32a10.61,10.61,0,0,0-.05,1.12,16.37,16.37,0,0,0,.05,2v.23a29.92,29.92,0,0,0,.47,3.53A28.1,28.1,0,0,0,3,23.75a.31.31,0,0,0,.19.2c.2.08.39.18.59.27a28.59,28.59,0,0,0,3.9,1.36,27.84,27.84,0,0,0,3.61.74c.66.09,1.33.17,2,.2a3.5,3.5,0,0,0,.65,0l.1,0h1.81a4.78,4.78,0,0,0,.76,0,2.79,2.79,0,0,0,.58,0,22.51,22.51,0,0,0,2.32-.24,27.54,27.54,0,0,0,3-.59,27.5,27.5,0,0,0,4.9-1.75.18.18,0,0,0,.12-.12l.25-.67a27.05,27.05,0,0,0,1.5-6.65,27.44,27.44,0,0,0,.12-3.39A29,29,0,0,0,29,9.17,28.47,28.47,0,0,0,27.57,4a.34.34,0,0,0-.19-.2,28,28,0,0,0-5.33-1.83,27.39,27.39,0,0,0-3.49-.61c-.66-.07-1.33-.13-2-.14l-.11,0-1.53,0a6,6,0,0,0-.85,0,11.46,11.46,0,0,0-1.17.06A29.05,29.05,0,0,0,9,1.83,29.48,29.48,0,0,0,3.19,3.78a.23.23,0,0,0-.13.14,27,27,0,0,0-1,2.88,27.42,27.42,0,0,0-.74,3.8A16.61,16.61,0,0,0,1.23,12.32Z" style="fill:#020202"/><path d="M16.65,26.55a4.78,4.78,0,0,1-.76,0H14.08l-.1,0s-.05,0-.08,0h-.57c-.68,0-1.35-.11-2-.2a27.84,27.84,0,0,1-3.61-.74,28.59,28.59,0,0,1-3.9-1.36c-.2-.09-.39-.19-.59-.27a.31.31,0,0,1-.19-.2A28.1,28.1,0,0,1,1.7,19.18a29.92,29.92,0,0,1-.47-3.53v-.23c0-.53,0-1.05,0-1.58s0-1,0-1.52a16.61,16.61,0,0,1,.14-1.72,27.42,27.42,0,0,1,.74-3.8,27,27,0,0,1,1-2.88.23.23,0,0,1,.13-.14A29.48,29.48,0,0,1,9,1.83a29.05,29.05,0,0,1,3.94-.6,11.46,11.46,0,0,1,1.17-.06h2.49c.67,0,1.34.07,2,.14a27.39,27.39,0,0,1,3.49.61,28,28,0,0,1,5.33,1.83.34.34,0,0,1,.19.2A28.47,28.47,0,0,1,29,9.17a29,29,0,0,1,.39,3.94,27.44,27.44,0,0,1-.12,3.39,27.05,27.05,0,0,1-1.5,6.65l-.25.67a.18.18,0,0,1-.12.12,27.5,27.5,0,0,1-4.9,1.75,27.54,27.54,0,0,1-3,.59,22.51,22.51,0,0,1-2.32.24H16.8C16.75,26.52,16.69,26.49,16.65,26.55Zm-3.91-8.8a3.57,3.57,0,0,1-.56-.07A17.1,17.1,0,0,1,10,17a11.15,11.15,0,0,0-2.35-.55l-.69,0a8.15,8.15,0,0,0,1.16,1.69A3.6,3.6,0,0,0,10,19.33a.7.7,0,0,1,.49.41c.14.32.32.61.49.94l-.13-.05a18.44,18.44,0,0,1-5.14-4,1.2,1.2,0,0,1-.35-.71c0-.12,0-.17.13-.22a11.85,11.85,0,0,1,2.12-.49c.69-.1,1.38-.15,2.07-.21.11,0,.14,0,.15-.15A10.85,10.85,0,0,1,10,13.6a12.16,12.16,0,0,1,1-2.91c.08-.16.05-.23-.13-.26l-1.38-.29c-.15,0-.32,0-.42-.1S9,9.76,9,9.62s0-.14.08-.18a31.31,31.31,0,0,1,3.66-1.08.52.52,0,0,0,.46-.44.53.53,0,0,0,0-.12.59.59,0,0,0-.32-.7A1.36,1.36,0,0,0,12.58,7,4.15,4.15,0,0,0,11,7a11.58,11.58,0,0,0-2.6.68s-.1.06-.13,0,0-.07.08-.1a7.72,7.72,0,0,1,1.3-.78c.11,0,.14-.09.08-.2a1.58,1.58,0,0,0-.29-.39,2.37,2.37,0,0,0-.64-.4s-.07,0-.06-.06,0,0,.08,0l.18,0a2,2,0,0,1,1.25.7c0,.06.08.06.14,0a5.43,5.43,0,0,1,1.2-.24c.08,0,.09,0,.08-.1A2.23,2.23,0,0,0,11,4.83a3.06,3.06,0,0,0-.32-.3s-.05,0,0-.06,0,0,.07,0l.21.09a2.72,2.72,0,0,1,1.52,1.58c0,.08.07.06.12.06a2.57,2.57,0,0,1,.87.15c.07,0,.1,0,.13,0a2.15,2.15,0,0,0,.15-.91,2.75,2.75,0,0,0-.61-1.52s-.08,0,0-.1.07,0,.1,0a2.49,2.49,0,0,1,1.27,1.66,4.23,4.23,0,0,1-.09,2.09c-.05.17-.1.33-.16.51.77-.15,1.52-.29,2.3-.38l-.05.06A5.47,5.47,0,0,1,14.88,9a.23.23,0,0,1-.14,0L14,8.88c-.11,0-.15,0-.17.12-.08.29-.17.58-.24.88a8.8,8.8,0,0,0-.33,2.33A1.29,1.29,0,0,0,14,13.46a2.33,2.33,0,0,0,.73.2c0,.05.11,0,.17,0h1.2s.09,0,.11,0h.07a.19.19,0,0,0,.15,0h.24a1.15,1.15,0,0,0,.37,0h.07s0,0,.08,0h1a12.46,12.46,0,0,1,2.78.42c.11,0,.14,0,.15-.09a3,3,0,0,0,0-.84,4.27,4.27,0,0,0-.9-2s-.09-.07-.05-.12.08,0,.12,0a6.49,6.49,0,0,1,1.6,1.36A3.62,3.62,0,0,1,22.62,14c0,.1,0,.15-.1.18l-.76.31c-.07,0-.09,0,0,.12a5.21,5.21,0,0,1,1.08,1.92c.19.55.31,1.12.5,1.67a1.54,1.54,0,0,0,.57.85c.57.38,1.17.7,1.77,1a.44.44,0,0,1,.18.15c.42.61.81,1.25,1.19,1.9.12.19.23.38.35.59l0-.1c.17-.47.32-.95.46-1.43a26.35,26.35,0,0,0,1-6.47,25.7,25.7,0,0,0-.29-4.88,27.26,27.26,0,0,0-1.35-5.24A.74.74,0,0,0,26.7,4a1.76,1.76,0,0,1-.2-.09,27.75,27.75,0,0,0-5.56-1.72,27.7,27.7,0,0,0-4.05-.52,29.51,29.51,0,0,0-4.1.07,29.17,29.17,0,0,0-3.71.57A27.6,27.6,0,0,0,3.64,4.16a.27.27,0,0,0-.16.17c-.18.47-.35,1-.5,1.43a26.77,26.77,0,0,0-1.14,5.53A28.53,28.53,0,0,0,1.75,15a25.64,25.64,0,0,0,.49,4.1,26.49,26.49,0,0,0,1.23,4.28.36.36,0,0,0,.19.21,28.6,28.6,0,0,0,5.9,1.9,28.63,28.63,0,0,0,4.52.56A29.88,29.88,0,0,0,17.62,26a27.83,27.83,0,0,0,4.17-.65,27.28,27.28,0,0,0,5.12-1.72c.12-.05.14-.09.07-.21a12.74,12.74,0,0,0-1.91-2.53.41.41,0,0,0-.19-.11c-1.12-.35-2.25-.7-3.35-1.11a5.52,5.52,0,0,1-1.71-.91,9.86,9.86,0,0,1-1.17-1.16.2.2,0,0,0-.16-.09,14.81,14.81,0,0,0-3,.12,12.93,12.93,0,0,1-1.38.15Z" style="fill:#efde05"/><path d="M1.23,12.32c0,.51,0,1,0,1.52s0,1.05,0,1.58a16.37,16.37,0,0,1-.05-2A10.61,10.61,0,0,1,1.23,12.32Z" style="fill:#c3bc51"/><path d="M16.56,1.17H14.07a6,6,0,0,1,.85,0l1.53,0Z" style="fill:#c3bc51"/><path d="M13.33,26.52h.57s.07,0,.08,0A3.5,3.5,0,0,1,13.33,26.52Z" style="fill:#c3bc51"/><path d="M16.65,26.55c0-.06.1,0,.15,0h.43A2.79,2.79,0,0,1,16.65,26.55Z" style="fill:#c3bc51"/><path d="M17.1,13.67H17a1.53,1.53,0,0,0-.37,0h-.61a11.8,11.8,0,0,1-1.33,0,2.33,2.33,0,0,1-.73-.2,1.29,1.29,0,0,1-.74-1.25,8.8,8.8,0,0,1,.33-2.33c.07-.3.16-.59.24-.88,0-.1.06-.14.17-.12l.75.09a.23.23,0,0,0,.14,0,5.47,5.47,0,0,0,1.55-1.24l.05-.06c-.78.09-1.53.23-2.3.38.06-.18.11-.34.16-.51a4.23,4.23,0,0,0,.09-2.09,2.49,2.49,0,0,0-1.27-1.66s-.07,0-.1,0,0,.08,0,.1a2.75,2.75,0,0,1,.61,1.52,2.15,2.15,0,0,1-.15.91c0,.08-.06.08-.13,0a2.57,2.57,0,0,0-.87-.15c-.05,0-.1,0-.12-.06a2.72,2.72,0,0,0-1.52-1.58l-.21-.09s0,0-.07,0,0,0,0,.06a3.06,3.06,0,0,1,.32.3,2.23,2.23,0,0,1,.66,1.29c0,.07,0,.1-.08.1a5.43,5.43,0,0,0-1.2.24c-.06,0-.1,0-.14,0A2,2,0,0,0,9,5.72l-.18,0s-.07,0-.08,0,0,0,.06.06a2.37,2.37,0,0,1,.64.4,1.58,1.58,0,0,1,.29.39c.06.11,0,.16-.08.2a7.72,7.72,0,0,0-1.3.78s-.11,0-.08.1.09,0,.13,0A11.58,11.58,0,0,1,11,7a4.15,4.15,0,0,1,1.61,0,1.36,1.36,0,0,1,.28.11.59.59,0,0,1,.32.7.53.53,0,0,1,0,.12.52.52,0,0,1-.46.44A31.31,31.31,0,0,0,9,9.44c-.09,0-.13.08-.08.18S9,10,9.11,10s.27.07.42.1l1.38.29c.18,0,.21.1.13.26a12.16,12.16,0,0,0-1,2.91,10.85,10.85,0,0,0-.21,1.27c0,.1,0,.14-.15.15-.69.06-1.38.11-2.07.21a11.85,11.85,0,0,0-2.12.49c-.12,0-.14.1-.13.22a1.2,1.2,0,0,0,.35.71,18.44,18.44,0,0,0,5.14,4l.13.05c-.17-.33-.35-.62-.49-.94a.7.7,0,0,0-.49-.41,3.6,3.6,0,0,1-1.86-1.19A8.15,8.15,0,0,1,7,16.45l.69,0A11.15,11.15,0,0,1,10,17a17.1,17.1,0,0,0,2.19.64,3.57,3.57,0,0,0,.56.07,5.3,5.3,0,0,0,1.32,0,12.93,12.93,0,0,0,1.38-.15,14.81,14.81,0,0,1,3-.12.2.2,0,0,1,.16.09,9.86,9.86,0,0,0,1.17,1.16,5.52,5.52,0,0,0,1.71.91c1.1.41,2.23.76,3.35,1.11a.41.41,0,0,1,.19.11A12.74,12.74,0,0,1,27,23.39c.07.12.05.16-.07.21a27.28,27.28,0,0,1-5.12,1.72,27.83,27.83,0,0,1-4.17.65,29.88,29.88,0,0,1-3.54.07,28.63,28.63,0,0,1-4.52-.56,28.6,28.6,0,0,1-5.9-1.9.36.36,0,0,1-.19-.21,26.49,26.49,0,0,1-1.23-4.28A25.64,25.64,0,0,1,1.75,15a28.53,28.53,0,0,1,.09-3.7A26.77,26.77,0,0,1,3,5.76c.15-.48.32-1,.5-1.43a.27.27,0,0,1,.16-.17A27.6,27.6,0,0,1,9.08,2.34a29.17,29.17,0,0,1,3.71-.57,29.51,29.51,0,0,1,4.1-.07,27.7,27.7,0,0,1,4.05.52A27.75,27.75,0,0,1,26.5,3.94a1.76,1.76,0,0,0,.2.09.74.74,0,0,1,.53.56,27.26,27.26,0,0,1,1.35,5.24,25.7,25.7,0,0,1,.29,4.88,26.35,26.35,0,0,1-1,6.47c-.14.48-.29,1-.46,1.43l0,.1c-.12-.21-.23-.4-.35-.59-.38-.65-.77-1.29-1.19-1.9a.44.44,0,0,0-.18-.15c-.6-.32-1.2-.64-1.77-1a1.54,1.54,0,0,1-.57-.85c-.19-.55-.31-1.12-.5-1.67a5.21,5.21,0,0,0-1.08-1.92c-.06-.07,0-.09,0-.12l.76-.31c.1,0,.12-.08.1-.18a3.62,3.62,0,0,0-.78-1.52,6.49,6.49,0,0,0-1.6-1.36s-.08-.08-.12,0,0,.08.05.12a4.27,4.27,0,0,1,.9,2,3,3,0,0,1,0,.84c0,.1,0,.13-.15.09a12.46,12.46,0,0,0-2.78-.42A9.1,9.1,0,0,0,17.1,13.67Z" style="fill:#010000"/><path d="M14.72,13.66a11.8,11.8,0,0,0,1.33,0h.15c0,.05-.07,0-.11,0h-1.2C14.83,13.7,14.77,13.71,14.72,13.66Z" style="fill:#c3bc51"/><path d="M14.06,17.75a5.3,5.3,0,0,1-1.32,0Z" style="fill:#c3bc51"/><path d="M17.1,13.67a9.1,9.1,0,0,1,1,0h-1S17.11,13.71,17.1,13.67Z" style="fill:#c3bc51"/><path d="M16.66,13.66a1.53,1.53,0,0,1,.37,0A1.15,1.15,0,0,1,16.66,13.66Z" style="fill:#c3bc51"/><path d="M16.27,13.66h.15A.19.19,0,0,1,16.27,13.66Z" style="fill:#c3bc51"/></g></g></g></g></svg>