<svg id="Capa_1" data-name="Capa 1" xmlns="http://www.w3.org/2000/svg" viewBox="0 0 974.06 164.09"><path d="M53,458H1027V622H53Z" transform="translate(-52.97 -457.96)" style="fill:#ce0e2d"/><path d="M305.9,490.23h23.69l-30.91,48.24,37,52.33H307.49L274.76,543H273.1V590.8H248.9V490.23h24.2v48.2h1.39Zm61.36,20.1V529h36.43v20.17H367.6v21.07h37.7V590.8H343V490.23h62.3v20.1Zm51.76-20h29.63L480.33,554h.47V490.23h23.66V590.8H475.65L442.4,522.58h-.81V590.8H419Zm134.24,62.87h.26l15.78-62.87h19.93l18.25,63h.27l12.82-63h23.71L620.85,590.8H596.93l-17.66-60.12H579L564.08,590.8H541L513.71,490.29h23.84Zm226.67-18.45h14.29c8.56,0,12.77-3.91,12.7-11.77-.08-8.12-4.07-10.81-12.64-10.81H779.93Zm58.43,56.09H810l-29.31-45.06h-.61V590.8H757.5V490.29h39.82c19.94,0,35.2,9.5,35.07,31.05-.08,13.1-6.27,26.51-20.59,29Zm44.74,0h-25V510.33H837.16v-20h65.65v20H883.1Zm87.43-62.11v-38.4h24.79V590.8H970.53V548.9H937.74v41.9H914V490.29h23.71v38.4ZM60,464.81H215.9V615.39H60ZM696.1,570.6c-16.54,0-30-13.87-30-31s13.41-31,30-31,29.95,13.87,29.95,31-13.41,31-29.95,31m.18-85.5a54.53,54.53,0,1,0,54.53,54.53,54.52,54.52,0,0,0-54.53-54.53Z" transform="translate(-52.97 -457.96)" style="fill:#fff"/><path d="M168.66,520.41a30.2,30.2,0,1,1-30.2-30.2,30.2,30.2,0,0,1,30.2,30.2m-30.2,32.66a32.66,32.66,0,1,1,32.66-32.66A32.66,32.66,0,0,1,138.46,553.07ZM163,487.76v-12a69.17,69.17,0,0,0-7.72-2.44v9.89a41.59,41.59,0,0,0-5.9-2.14v-8.95a66.81,66.81,0,0,0-7.73-.79v8.4c-1.05-.08-2.1-.12-3.15-.13s-1.91.05-2.85.11v-8.39a71.44,71.44,0,0,0-7.73.74V481a40.49,40.49,0,0,0-5.95,2.12v-9.85a67.77,67.77,0,0,0-7.73,2.41v11.92a40.81,40.81,0,0,0,0,65.65v51.11a69.23,69.23,0,0,0,7.73,2.39v-49a40.37,40.37,0,0,0,5.95,2.11v48.11a67.89,67.89,0,0,0,7.73.74V561.11c.94.07,1.89.12,2.85.12s2.11-.06,3.15-.14v47.58a66.79,66.79,0,0,0,7.73-.78V559.75a40,40,0,0,0,5.9-2.14v49.07a65.24,65.24,0,0,0,7.72-2.44V553.06a40.84,40.84,0,0,0,0-65.3Z" transform="translate(-52.97 -457.96)" style="fill:#ce0e2d"/><path d="M140.54,497.06h5L139,507.12,146.77,518h-5.89l-6.82-10h-.36v10h-5v-21h5v10.05H134Zm-8,38.39h.05l3.26-13h4.1l3.75,13h.07l2.63-13h4.89l-4.82,20.7h-4.93l-3.65-12.38h-.05l-3.07,12.38H130l-5.62-20.7h4.91Z" transform="translate(-52.97 -457.96)" style="fill:#fff"/></svg>