<svg id="Capa_1" data-name="Capa 1" xmlns="http://www.w3.org/2000/svg" viewBox="0 0 1080 1080"><path d="M1026.78,624c-3.28,4.18-7.54,5.27-12.87,5.26-58.71-.17-117.42-.1-176.14-.12-10.47,0-12.74-2.22-12.75-12.49,0-39.72.06-79.45-.11-119.18,0-5.24.92-9.54,5.43-12.62,63.45,0,126.9.08,190.36-.15,5.18,0,6.26,1,6.23,6.16C1026.67,535.2,1026.78,579.58,1026.78,624ZM838.86,591.59c-.07.8-.15,1.61-.22,2.41-5.84,2.46-2.25,7.47-3,11.26-1.26,6.21,1.35,8.39,8,8.35,49.43-.25,98.86-.32,148.29,0,8,.06,8.94-3.28,8.77-9.7-.16-5.87.34-10.72-8.34-10-9.19.72-18.48.1-27.73.06-.11-.85-.21-1.7-.32-2.56l24.28-24.24c2.5,2.15,5.18,1.68,6.5-.85,5.42-10.43,4.68-21.14.08-31.58-1.38-3.15-4.27-3.43-6.63-.27-14.34-2.42-29.28-6.82-39.85,8-6,8.4-14.31,8.48-23,7.69-6-.55-9.14.83-8.78,7.78.19,3.66,2.74,10.71-2.31,10.72-4.63,0-1.63-7-2.25-10.88-.56-3.52.91-7.72-5.25-7.61-12.16.19-24.32.06-36.47.05-2.44,0-5.32.25-5.19,3.19.57,12.68-2.2,25.49,1.4,38.05l-.3,2.53H862l-.54-2.81c.09-7.15.24-14.29.25-21.44,0-20.31,0-20.15-20.41-19.64-4.51.11-6,1.21-5.88,5.77.32,10,.09,20,.11,30C835.56,588.38,835,591.28,838.86,591.59Zm177.43-31.25c0-16-.17-32,.09-48,.08-5.17-1.52-7.11-6.91-7-4.9.07-6.67,1.76-6.65,6.52q.15,47.61,0,95.21c0,4.69,1.61,6.59,6.57,6.65,5.31.05,7.08-1.77,7-7C1016.12,591.22,1016.29,575.78,1016.29,560.34ZM835.55,526.87c0,21,0,20.87,20.42,20.29,4.43-.13,6-1.17,5.88-5.74-.32-9.67-.44-19.38,0-29,.28-5.66-1.57-7.07-7.17-7.05-19.16.09-19.16-.13-19.16,19Z" style="fill:#01359b"/><path d="M350.74,534.12c0,21.4-.38,42.8.21,64.18.21,7.46-3.29,7.43-8.75,7.41s-9,0-8.89-7.45c.48-28,.08-56.09.33-84.14,0-3.36-2.83-9.48,3.21-9.68,6.23-.2,13.81-3.83,18.75,4.22,12.88,21,26.09,41.85,39.19,62.75,1,1.62,2.15,3.18,4.67,6.88v-23.1c0-14.6.45-29.21-.19-43.78-.33-7.45,3.35-7.48,8.86-7.47s8.93,0,8.8,7.43c-.5,29.19-.33,58.39-.09,87.58.05,5.17-1.3,6.43-6.64,6.9-9.3.84-14.52-2.39-19.21-10.42-12.24-21-25.57-41.35-38.46-62Z" style="fill:#073a9d"/><path d="M618.24,554.7c0-14.58.17-29.17-.1-43.75-.09-4.86.68-7.12,6.48-7,20.25.36,40.52.44,60.77,0,6.86-.16,6.6,3.34,6.6,7.94s.44,8.17-6.49,7.89c-14.16-.58-28.36,0-42.53-.27-5.09-.1-7,1.13-7.08,6.61-.31,20.18-.53,20.18,20.16,20.18,8.11,0,16.24.42,24.3-.14,6.21-.43,7.72,1.63,7.67,7.58,0,5.68-1.7,7.21-7.31,7-12.43-.4-24.89.12-37.32-.24-5.5-.16-7.47,1.16-7.51,7-.17,22.58-.39,22.58,22,22.58,9.84,0,19.7.35,29.52-.11,6.85-.33,5.62,4,5.52,7.81-.1,3.61,1.75,8-5.32,7.92-21.12-.36-42.25-.29-63.37,0-5.12.07-6.22-1.73-6.14-6.37C618.4,584.45,618.24,569.58,618.24,554.7Z" style="fill:#05389c"/><path d="M440.62,554.9c0-14.89.19-29.78-.1-44.66-.1-4.95,1.54-6.32,6.44-6.27,20.28.24,40.57.44,60.83-.08,7.1-.18,6.33,3.61,6.41,8s.47,8.13-6.46,7.83c-14.17-.59-28.39.06-42.57-.29-5.36-.13-6.82,1.44-6.87,6.74-.18,20.07-.39,20.06,20.2,20.06,8.69,0,17.4.37,26.07-.11,6.69-.37,5.62,3.72,5.76,7.71s.13,7.06-5.68,6.88c-13.32-.4-26.66.08-40-.23-5-.11-6.24,1.47-6.36,6.3-.53,23.29-.68,23.29,23,23.29,9.27,0,18.56.34,27.8-.12,6-.3,6.8,2.49,6.36,7.22-.37,4,1.57,8.65-5.87,8.52-21.14-.36-42.3-.27-63.44,0-4.95,0-5.63-2-5.58-6.13C440.73,584.68,440.62,569.79,440.62,554.9Z" style="fill:#05389c"/><path d="M723.89,554.91c-.12,8.43,1.29,16.53,5.54,24,6.44,11.24,16.42,15.57,29.15,14.25,10.15-1.06,17.8-8.37,21.09-20.05,1.34-4.76,13.3-8.69,17.31-5.59,2.38,1.84.71,4.33.33,6.31-3.17,16.27-12.56,27.72-28.73,32.29-18.33,5.19-35.2,1.58-48.64-12.35-19.46-20.16-19.13-57.55.22-77.77,15.77-16.47,45.32-19,63.66-5.32a36.07,36.07,0,0,1,12.8,17.93c1.76,5.21,1.71,8.3-5.63,8.15-6.79-.14-11-1-14.49-8.11-7.86-16.05-33.26-16.37-44.66-1.21C725.72,535.52,723.78,545,723.89,554.91Z" style="fill:#07399d"/><path d="M53.24,555.14c0-14.6.2-29.21-.11-43.8-.11-5.26.83-7.73,7-7.39,15.6.84,31.3-1.09,46.85,1.11,17.1,2.42,26.27,13.38,26.26,30.74,0,16.88-9,27.37-25.81,30.26-9.5,1.63-19.08,1-28.61.8-5.83-.13-8.3,1.18-7.9,7.48.55,8.56-.05,17.17.19,25.76.25,9.13-6.62,4.65-10.48,5.36-4,.74-7.75.82-7.53-5.67C53.58,584.92,53.24,570,53.24,555.14Zm33.89-3.23c4.34,0,8.7.33,13-.07,9.89-.92,15.66-7.7,15.19-17.37s-5.73-14.91-16-15.39c-3.75-.18-7.51-.1-11.27-.1C71,519,71,519,71,535.9,71,552.09,71,552.09,87.13,551.91Z" style="fill:#06389d"/><path d="M273.7,504.15c7.52-2,10.12,2.17,12.43,8.27q16.1,42.5,33,84.7c2.59,6.47,2.37,8.51-5.66,8.79-8.46.28-12-2.64-14.46-10.34C293.66,578.9,293.23,579,275.61,579h-.87c-7.21.18-15.73-1.93-21.27,1.16s-5.48,12.56-8.21,19.09c-2.14,5.12-14.12,9-18.74,6-2.08-1.38-.92-3-.34-4.46C238.12,569.87,250.14,539,262,508,264.46,501.6,269.82,505.1,273.7,504.15Zm-.63,17.3c-5.12,14.3-9.47,26.66-14,38.95-1.4,3.78-.47,5.14,3.65,5q10.39-.3,20.8,0c4.41.14,4.61-1.42,3.27-5.06C282.27,548.07,278.05,535.66,273.07,521.45Z" style="fill:#07399d"/><path d="M151.18,554.42c0-14,.53-28.09-.2-42.08-.43-8.08,3.27-8.56,9.69-8.48,6.06.07,9.32.51,9.12,8.12-.59,22.31.19,44.66-.42,67-.23,8.56,1.51,12.07,11,11.3,11.51-.93,23.18.18,34.74-.37,6.79-.33,6.66,3.27,6.57,7.92-.08,4.4.73,8.23-6.36,8.05-19.11-.51-38.24-.34-57.36-.07-5.23.07-7-1.34-6.92-6.72C151.41,584.2,151.18,569.3,151.18,554.42Z" style="fill:#0e3fa0"/><path d="M533.21,554.55c0-14.86.33-29.73-.13-44.58-.25-8.1,5.21-5.77,9.3-5.87,4.26-.1,9.33-1.86,9.2,6-.39,24,.1,48-.3,72-.11,6.49,1.76,8.28,8.22,8,12.7-.5,25.45.15,38.16-.27,6.7-.22,5.87,3.86,5.7,7.8-.15,3.6,1.79,8.18-5.29,8.07q-29.49-.46-59,0c-5.39.08-6-2.23-6-6.65C533.34,584.28,533.21,569.41,533.21,554.55Z" style="fill:#0e3fa0"/><path d="M988.55,567.18l-24.28,24.24-45.41.14c-3.42-3.29-.9-7.5-1.79-11.16-.65-2.65,2.07-7.54-2.53-7.47-4.45.06-1.89,4.89-2.33,7.56s-.12,5.62-.21,8.44c-.08,2.4-1.86,2.39-3.62,2.34L906,593c-2-2.21-4.74-1.74-7.29-1.73-10.67,0-21.33.1-32,.15-3.6-12.56-.83-25.37-1.4-38.05-.13-2.94,2.75-3.19,5.19-3.19,12.15,0,24.31.14,36.47-.05,6.16-.11,4.69,4.09,5.25,7.61.62,3.85-2.38,10.88,2.25,10.88,5,0,2.5-7.06,2.31-10.72-.36-6.95,2.75-8.33,8.78-7.78,8.74.79,17,.71,23-7.69,10.57-14.8,25.51-10.4,39.85-8Q988.53,550.83,988.55,567.18Z" style="fill:#fcfdfd"/><path d="M906,593l2.34-1.76c2.09,5.78,7,1.51,10.3,2.76a307.23,307.23,0,0,0,45.91,0c9.25,0,18.54.66,27.73-.06,8.68-.68,8.18,4.17,8.34,10,.17,6.42-.74,9.76-8.77,9.7-49.43-.37-98.86-.3-148.29,0-6.64,0-9.25-2.14-8-8.35.78-3.79-2.81-8.8,3-11.26A80.06,80.06,0,0,0,862,594h4.42C879.67,594.56,892.92,596.31,906,593Z" style="fill:#f9fafc"/><path d="M1016.29,560.34c0,15.44-.17,30.88.09,46.32.09,5.23-1.68,7.05-7,7-5-.06-6.59-2-6.57-6.65q.15-47.6,0-95.21c0-4.76,1.75-6.45,6.65-6.52,5.39-.08,7,1.86,6.91,7C1016.12,528.31,1016.29,544.33,1016.29,560.34Z" style="fill:#eef1f8"/><path d="M835.55,526.87v-2.56c0-19.11,0-18.89,19.16-19,5.6,0,7.45,1.39,7.17,7.05-.47,9.66-.35,19.37,0,29C862,546,860.4,547,856,547.16,835.55,547.74,835.55,547.89,835.55,526.87Z" style="fill:#fcfdfd"/><path d="M838.86,591.59c-3.91-.31-3.3-3.21-3.3-5.7,0-10,.21-20-.11-30-.14-4.56,1.37-5.66,5.88-5.77,20.43-.51,20.45-.67,20.41,19.64,0,7.15-.16,14.29-.25,21.44Z" style="fill:#fcfdfd"/><path d="M988.55,567.18q0-16.35,0-32.7c2.36-3.16,5.25-2.88,6.63.27,4.6,10.44,5.34,21.15-.08,31.58C993.73,568.86,991.05,569.33,988.55,567.18Z" style="fill:#e8ecf5"/><path d="M964.59,594a307.23,307.23,0,0,1-45.91,0l.18-2.47,45.41-.14C964.38,592.28,964.48,593.13,964.59,594Z" style="fill:#6987c4"/><path d="M906,593c-13.12,3.28-26.37,1.53-39.59,1l.3-2.53c10.67-.05,21.33-.13,32-.15C901.3,591.29,904,590.82,906,593Z" style="fill:#6987c4"/><path d="M838.86,591.59l22.63-.42L862,594a80.06,80.06,0,0,1-23.39,0C838.71,593.2,838.79,592.39,838.86,591.59Z" style="fill:#6987c4"/><path d="M918.86,591.56l-.18,2.47c-3.35-1.25-8.21,3-10.3-2.76,1.76.05,3.54.06,3.62-2.34.09-2.82-.24-5.69.21-8.44s-2.12-7.5,2.33-7.56c4.6-.07,1.88,4.82,2.53,7.47C918,584.06,915.44,588.27,918.86,591.56Z" style="fill:#0e3fa0"/></svg>