<svg xmlns="http://www.w3.org/2000/svg" viewBox="0 0 142.15 36.56"><g id="Capa_2" data-name="Capa 2"><g id="HOME"><g id="marcas"><g id="Capa_69" data-name="Capa 69"><path d="M82.52,18.88a4.25,4.25,0,0,1,.6-.12c4.6-.27,4.6-.27,5.86,5,.62-3.28.93-6,4.85-5.14,2.64.6.89,2.74,2,3.93,1.72-.7.39-3.35,2.06-3.73,1.52-.35,3.22,0,4.84,0-1,4.88-2.07,9.75-3,14.64a4.1,4.1,0,0,1-1.86,3H93.53a9.63,9.63,0,0,0-1.43-5.49c-.6,2.32-.31,4.43-2.26,5.49h-4.3C85.13,30.57,83.51,24.78,82.52,18.88Z" style="fill:#050505"/><path d="M66.47,36.56c0-5.22.27-10.44.07-15.64-.1-2.77,1.58-2.21,3.12-2.21s3.49-.52,3,2.23a7.16,7.16,0,0,0,.08,2.69c.21.92,1.14.58,1.81.63,1,.07,1.08-.53,1.19-1.32.68-4.75.7-4.75,6.1-4,0,4.89,0,9.77,0,14.65,0,1.18,0,2.27-1.21,2.94H75.7c0-1.49,0-3,.07-4.47,0-1,.14-2-1.45-2s-1.7.85-1.71,2.07c0,1.55.6,3.31-1.22,4.39Z" style="fill:#080707"/><path d="M120.05,22a3.75,3.75,0,0,1,5.5-3.22c.76.33.64.91.66,1.47,0,1.4.06,2.8.09,4.2,0,3.19-.22,6.38-.07,9.56a3.07,3.07,0,0,1-1.33,2.59h-4.31l-2.17-5.21c-.79,2.08.33,4.07-1.52,5.21H112c0-5,0-10,0-15,0-.92-.82-2.69.81-2.67,1.88,0,4.34-1.43,5.67,1.27.31.63.64,1.25,1,1.87-.08.53.19.84.67.67C120.43,22.56,120.39,22.16,120.05,22Z" style="fill:#040404"/><path d="M127.27,24.42c2.83-5,6.62-7,11.16-5.57,1.11.35,3.29.55,2.59,2s-1.38,4-4.16,3.3A3,3,0,0,0,133,25.82a3,3,0,0,0,.69,3.86c.55.46,1.17.95,1.92.7s.46-1,.53-1.56c.44-3.19,2.88-1.1,4.34-1.52,1.72-.49,1.56.93,1.59,2.06.14,5.27.15,5.27-4.3,7.2h-4.3c-.21-.84-1.06-.82-1.64-1.14A9.15,9.15,0,0,1,127.27,24.42Z" style="fill:#070707"/><path d="M54.73,23.2c2-3.18,4.77-5.05,8.61-4.79s1.7,3.18,2,4.9c.42,2.27-1.22.89-2.07.88-2.15,0-3.62.86-3.67,3.12s1.35,3.27,3.53,3.23A10.43,10.43,0,0,0,65.36,30c-.42,2.29,1.13,4.78-1.35,6.57H60.32C58.42,35,56,34,54.8,31.7A10.86,10.86,0,0,1,54.73,23.2Z" style="fill:#070707"/><path d="M103.36,19c6.08-.88,6.08-.88,6.08,5,0,3.31-.09,6.63,0,9.94a3.1,3.1,0,0,1-1.2,2.7h-4.92Z" style="fill:#080707"/><path d="M36.33,35.94v.62H.05l.05-.68.82-.57,0,0,5.23.09c3.85,1.2,7.79.32,11.69.47Z" style="fill:#383637"/><path d="M51.11,36,42,35.8c0-.7.06-1.41,0-2.11-.18-2.43-.25-4.73,4.16-3.28C44.78,28.32,43.85,27,43,25.56c-2.2-3.54-.51-6.72,3.66-6.85.91,0,1.83,0,2.74,0,4.44,0,4.44,0,4.49,4.42-.3,2.51-2.78.67-3.86,1.82,1.12,2.42,3.21,4.25,3.87,6.84A5.29,5.29,0,0,1,51.11,36Z" style="fill:#070707"/><path d="M.92,35.31l-.82.57c0-11.1,0-22.2-.1-33.3C0,.46.75.14,2.63.16,13.07.23,23.51.17,34,.24c.79,0,2.5-1,2.34,1.15l-.54-.08C31.93.27,28,1,24.16.91H18.07c-5,0-10,0-15-.06C1.72.85.72.85.74,2.7.85,13.57.87,24.44.92,35.31Z" style="fill:#383637"/><path d="M35.76,1.31l.54.08c.32,11.52.25,23,0,34.55l-18.45,0a2.37,2.37,0,0,0,0-.46l.6-.15c5.1,0,10.19,0,15.29.09,1.39,0,2-.3,2-1.82-.1-10.65-.11-21.3-.15-31.95A1.05,1.05,0,0,1,35.76,1.31Z" style="fill:#383637"/><path d="M.92,35.31C.87,24.44.85,13.57.74,2.7.72.85,1.72.85,3.05.86c5,.05,10,.05,15,.06a21.08,21.08,0,0,1-.91,2.53Q9.09,19.41,1,35.33Z" style="fill:#f8f8f7"/><path d="M1,35.33Q9.07,19.4,17.16,3.45A21.08,21.08,0,0,0,18.07.92h6.09a8.42,8.42,0,0,1-1.34,3.33Q15,19.77,7.13,35.27l-.94.15Z" style="fill:#8bc542"/><path d="M6.19,35.42l.94-.15,10.76.16a2.37,2.37,0,0,1,0,.46C14,35.74,10,36.62,6.19,35.42Z" style="fill:#383637"/><path d="M17.89,35.43,7.13,35.27Q15,19.76,22.82,4.24A8.42,8.42,0,0,0,24.16.91c3.87.09,7.77-.64,11.6.4a1.05,1.05,0,0,0-.17.29c-5.86,11.15-11.7,22.31-17.1,33.68Z" style="fill:#038264"/><path d="M18.49,35.28c5.4-11.37,11.24-22.53,17.1-33.68,0,10.65,0,21.3.15,31.95,0,1.52-.57,1.84-2,1.82C28.68,35.29,23.59,35.3,18.49,35.28Z" style="fill:#f9fbfb"/></g></g></g></g></svg>