<svg xmlns="http://www.w3.org/2000/svg" viewBox="0 0 143.72 143.72"><g id="Capa_2" data-name="Capa 2"><g id="HOME"><g id="Capa_11" data-name="Capa 11"><path d="M71.86,143.72h0A71.86,71.86,0,0,1,0,71.86H0A71.86,71.86,0,0,1,71.86,0h0a71.86,71.86,0,0,1,71.86,71.86h0A71.86,71.86,0,0,1,71.86,143.72Z" style="fill:#f1f2f2"/><polygon points="85.11 67.17 106.32 67.17 106.32 93.87 97.49 93.87 97.5 96.61 97.51 98.08 97.53 101.65 95.31 100.28 94.4 99.72 92.36 98.45 91.93 98.19 89.52 96.69 89.33 96.58 87.04 95.17 86.29 94.7 84.94 93.87 58.6 93.87 58.6 76.77 85.11 67.17" style="fill:#8dc63f"/><path d="M97.53,102.8a1.21,1.21,0,0,1-.6-.17L84.61,95h-26a1.15,1.15,0,0,1-1.14-1.15V76.77a1.15,1.15,0,0,1,2.29,0v16H84.94a1.16,1.16,0,0,1,.6.17l10.83,6.69,0-5.7a1.1,1.1,0,0,1,.33-.82,1.14,1.14,0,0,1,.81-.34h7.68V68.32H85.11a1.15,1.15,0,0,1,0-2.3h21.21a1.15,1.15,0,0,1,1.15,1.15v26.7A1.16,1.16,0,0,1,106.32,95H98.65l0,6.63a1.13,1.13,0,0,1-.58,1A1.16,1.16,0,0,1,97.53,102.8Z" style="fill:#231f20"/><polygon points="37.4 49.96 37.4 76.66 46.22 76.66 46.18 84.45 58.78 76.66 85.11 76.66 85.11 49.96 37.4 49.96" style="fill:#f1f2f2"/><path d="M46.18,85.6a1.15,1.15,0,0,1-.56-.15,1.16,1.16,0,0,1-.59-1l0-6.63H37.4a1.14,1.14,0,0,1-1.15-1.15V50a1.14,1.14,0,0,1,1.15-1.15H85.11A1.14,1.14,0,0,1,86.26,50v26.7a1.14,1.14,0,0,1-1.15,1.15h-26L46.79,85.42A1.14,1.14,0,0,1,46.18,85.6ZM38.55,75.52h7.67a1.13,1.13,0,0,1,1.15,1.15l0,5.71,10.83-6.69a1.08,1.08,0,0,1,.61-.17H84V51.11H38.55Z" style="fill:#231f20"/></g></g></g></svg>