<svg id="Capa_1" data-name="Capa 1" xmlns="http://www.w3.org/2000/svg" viewBox="0 0 989.72 988.81"><path d="M824,136.46l-51.83,48.82C658.63,115.46,537.8,97.61,410.47,137.89,311.62,169.15,235,230.63,180,318.48c-109.68,175.06-73.89,406.1,83.87,542.93,157.14,136.3,390.62,137.5,551.12,2,159.43-134.57,198.83-368.77,81.78-552.89l51.67-47.73c116.79,159.48,132.7,438.66-62,630.47-191.65,188.8-505,188-693.83-1.42C-2.94,695.79-4.48,385.41,190.8,190.39,381.84-.41,660.83,14.28,824,136.46Z" transform="translate(-45.14 -45.59)"/><path d="M946.41,207l-66.87,68.81-71.6-70,68.44-67.51c-19.55-13.63-37.23-26.28-55.26-38.4-8.34-5.61-17.67-9.77-25.93-15.47-3.64-2.52-5.75-7.24-8.55-11l2.41-2.29h225.24c.2,3.37.57,6.65.57,9.94,0,68.46.1,136.91-.17,205.36,0,3.61-2,9.17-4.61,10.4-5.42,2.53-8.93-1.37-12-6.5C981.73,263.41,964.9,236.75,946.41,207Z" transform="translate(-45.14 -45.59)"/><path d="M161.41,502.8V490.73h96V503H233.5L267,561.31c10.47-19.71,20.07-37.77,30.35-57.14l-16.63-1.92V490.49h65.16v11.08c-1,.54-1.66,1.2-2.17,1.11-15.8-2.75-23.32,5.64-29.46,19.11C305.45,541,294.51,559.23,284.83,578c-2.68,5.2-5.84,7.68-12,7.46-12.49-.47-25-.44-37.49,0-6.06.22-9.41-1.91-12.17-7.25-10.83-20.94-22.62-41.41-32.92-62.6-4.6-9.47-10.2-14-20.68-12.28C167.3,503.76,164.85,503.07,161.41,502.8Z" transform="translate(-45.14 -45.59)"/><path d="M727.47,503.84l-16.35-1.36V490.54h65v10.72c-1,.69-1.59,1.5-2.06,1.41-16.38-3-23.82,6.28-30.09,19.8-8.74,18.87-19.49,36.8-28.94,55.36-2.92,5.74-6.51,8.38-13,7.6a36.57,36.57,0,0,0-11.44,0c-25.24,5-40.49-5-49.32-29.05-5.32-14.53-14.83-27.47-21.46-41.6-4-8.63-9.23-13-19-11.4-2.6.44-5.39-.25-8.71-.46V490.65h95.06v12.8H663.78c11.49,19.95,21.94,38.12,33.3,57.83Z" transform="translate(-45.14 -45.59)"/><path d="M837.41,485.65c18.23.2,35.07,4.83,49.51,16.28,24.11,19.15,24.42,49,.92,68.84-26.93,22.76-75.82,22.68-102.64-.18-22.9-19.53-22.67-49.38.76-68.22C800.92,490.35,818.39,485.52,837.41,485.65ZM862.27,537c-4-10.17-6.32-20.16-11.58-28.22-7.6-11.66-20.83-11.25-30-.68-12.27,14.19-12.13,43.42.26,57.27,9,10,21.69,10.54,29.29-.59C855.69,556.79,858.15,546.83,862.27,537Z" transform="translate(-45.14 -45.59)"/><path d="M405.94,588c-21.23-.92-41-6.24-56.19-22.5C334.27,549,334.19,527,349.22,510,376,479.88,437,479.83,464,509.94c15.3,17.11,15,39.69-1,56.24C447.45,582.16,427.64,587.3,405.94,588Zm25.94-50.32c-3.41-9.37-5.28-18.38-9.73-25.86-7.8-13.1-22.48-13.37-32.08-1.69-11.55,14.08-11.5,40.73.11,54.53,9.7,11.52,23.29,11.6,31.31-1.09C426.29,556,428.39,546.65,431.88,537.68Z" transform="translate(-45.14 -45.59)"/><path d="M569.19,490.64V503l-20.31.91V569c31.34,4.83,47-1.6,52.87-27.4h12.66v43.05h-133V571l22-1.14V504.18l-21.16-1.34v-12.2Z" transform="translate(-45.14 -45.59)"/></svg>