<svg id="Capa_1" data-name="Capa 1" xmlns="http://www.w3.org/2000/svg" viewBox="0 0 971.64 138.27"><g id="yanmmar"><path d="M111.46,626.09q1-8.18,2.42-27.74t1.42-27.63l-46.2-82.3q15.23.21,25.1.21,9.47,0,22.67-.21,4,10.09,10.94,24.05t11.25,24.95Q150.64,517,157.7,505.51t10.09-17.09q12.83.21,24.63.21,6.27,0,22.72-.21l-44.27,65.25q-13.22,19.58-13.22,20.48l-.09,1v1l-.1,1-.71,15.33q-.7,15.22-1.11,33.58-14.22-.21-22-.2Q125.68,625.89,111.46,626.09Z" transform="translate(-69.1 -487.82)" style="fill:#990a1b"/><path d="M197.49,626.09l8.38-14.52L258,513.33l5.55-11q2.42-4.83,6.76-13.92,17.75.21,25.92.21,14.21,0,26.32-.21l14.71,42.06,29.94,80.88,5.84,14.73q-17.46-.21-21.2-.2-8.47,0-24.94.2-4.43-16.65-12.78-39.13H263.39q-8.77,17.74-18.14,39.13-18.78-.21-23-.2Q214.55,625.89,197.49,626.09Zm78.09-68.48h31.33q-11.69-35.54-12.79-39.17-6.64,14.8-11.29,24.27Z" transform="translate(-69.1 -487.82)" style="fill:#990a1b"/><path d="M383.77,626.09l2-21.18,3.93-71.81,1.11-28.94V488.42q15.66.21,27.68.21,8.58,0,24.14-.21l43.05,78.3,5.94,11.5q1.14-17,2.33-47.52t1.19-42.28q12.39.21,19.85.21,3.42,0,19.74-.21l-2.42,30.05L527.79,602l-.6,24.1q-13.12-.21-24.52-.2-9.5,0-26.25.2-5.24-9.89-7.75-14.33L451.75,583q-8.37-14.13-15.41-27-4.63-8.18-9.57-18l-2.17,47.82-1,40.26q-12.48-.21-19-.2Q399,625.89,383.77,626.09Z" transform="translate(-69.1 -487.82)" style="fill:#990a1b"/><path d="M550.89,626.09l2.5-20.38,6.2-70.69,3.1-46.6q18.62.21,29.26.21,8.79,0,26.92-.21c.87,5.79,1.6,10.17,2.21,13.17s2.1,8.84,4.48,17.54,4.29,16.24,5.73,22.59,3.6,17.24,6.49,32.63q4.44-15.83,8.08-27.23T655,521.2q5.46-14.52,6.92-19t4-13.77q15.12.21,29.65.21,9.88,0,27.43-.21-1.92,34-2.52,58.4-1.32,47.8-1.31,65.76,0,3.72.2,13.51-13.3-.21-18.66-.2-7.75,0-19.06.2.82-9.08,2-43.22t1.23-43.62q0-4.12-.2-11.49l-13.24,41-19,57.29q-13.11-.21-18.05-.2-6.25,0-19.16.2L602.8,570.62l-7.27-29.55c-.27-1.15-.58-2.55-.92-4.23s-.87-4.64-1.61-8.89l-2.54,27.94-3.36,57.29-.31,12.91q-13.9-.21-17.74-.2Q563.8,625.89,550.89,626.09Z" transform="translate(-69.1 -487.82)" style="fill:#990a1b"/><path d="M725.37,626.09l8.38-14.52,52.16-98.24,5.55-11q2.43-4.83,6.76-13.92,17.74.21,25.92.21,14.22,0,26.32-.21l14.72,42.06,29.93,80.88L901,626.09q-17.48-.21-21.21-.2-8.47,0-24.93.2Q850.4,609.44,842,587H791.26q-8.76,17.74-18.14,39.13-18.78-.21-23-.2Q742.43,625.89,725.37,626.09Zm78.08-68.48h31.33Q823.1,522.07,822,518.44q-6.66,14.8-11.29,24.27Z" transform="translate(-69.1 -487.82)" style="fill:#990a1b"/><path d="M911.35,626.09q1.92-17.75,3-32t1.93-33q.8-18.75,1.21-39.58t.4-33.14q12.6.31,20.37.3,8.07,0,19.67-.45t22.59-.45q12.9,0,23,1a56.27,56.27,0,0,1,13.77,2.92,39.38,39.38,0,0,1,10.43,5.4,33.06,33.06,0,0,1,7.07,7.11,30.75,30.75,0,0,1,4.38,9.22,39.66,39.66,0,0,1,1.57,11.35,45.25,45.25,0,0,1-1.72,12.66,36.88,36.88,0,0,1-5.39,11.09,36,36,0,0,1-9.29,9,81.74,81.74,0,0,1-15.67,7.71l5.23,12.81q2.22,5.35,4.75,10.9l13.51,29.54c.61,1.28,1.68,3.8,3.23,7.57q-16.64-.21-22.37-.2-7.26,0-23.79.2-1.62-5.24-5.86-19.46-1.71-6-2.92-9.18-2.43-7.16-7.17-20.07l-10.4-28.54a58.75,58.75,0,0,0,10.68,1,38.31,38.31,0,0,0,13.37-2.21,18,18,0,0,0,9.08-6.87,17.38,17.38,0,0,0,3.07-9.78,12.82,12.82,0,0,0-2.32-7.61,13.8,13.8,0,0,0-7.31-4.9c-3.33-1.06-8.46-1.61-15.38-1.61-2.36,0-4.79.06-7.31.15s-5.46.19-8.83.26q-1.29,20.67-2.28,50.42t-1.3,58.4q-16.86-.21-21.91-.2Q926.58,625.89,911.35,626.09Z" transform="translate(-69.1 -487.82)" style="fill:#990a1b"/></g></svg>