<svg xmlns="http://www.w3.org/2000/svg" viewBox="0 0 145.63 20.72"><g id="Capa_2" data-name="Capa 2"><g id="HOME"><g id="marcas"><g id="Capa_69" data-name="Capa 69"><path d="M6.35,20.72c.1-.81.22-2.2.36-4.15s.21-3.34.21-4.15L0,.09l3.76,0,3.4,0c.4,1,.95,2.21,1.64,3.6s1.25,2.65,1.68,3.74q1.74-3.06,2.8-4.78c.7-1.14,1.21-2,1.51-2.56l3.69,0,3.41,0L15.25,9.87a36.24,36.24,0,0,0-2,3.07v.3l0,.15-.1,2.3c-.07,1.52-.13,3.2-.17,5l-3.3,0Z" style="fill:#990a1b"/><path d="M19.24,20.72l1.26-2.17L28.32,3.82l.83-1.64c.24-.49.58-1.18,1-2.09l3.89,0c1.42,0,2.73,0,3.94,0l2.21,6.3,4.48,12.13.88,2.2-3.18,0-3.74,0q-.66-2.49-1.91-5.86H29.12c-.88,1.77-1.78,3.73-2.72,5.86l-3.45,0ZM31,10.46h4.69q-1.76-5.33-1.92-5.87C33.06,6.07,32.5,7.28,32,8.23Z" style="fill:#990a1b"/><path d="M47.16,20.72l.3-3.17.59-10.76.17-4.34V.09l4.15,0L56,.09l6.45,11.74.89,1.72c.11-1.69.23-4.07.35-7.12s.17-5.17.17-6.34l3,0,3,0-.36,4.5-.68,12.52-.09,3.61-3.68,0-3.93,0c-.53-1-.91-1.7-1.17-2.14l-2.53-4.31c-.84-1.41-1.61-2.77-2.31-4.06-.46-.81-.94-1.71-1.44-2.69l-.32,7.17-.16,6-2.85,0Z" style="fill:#990a1b"/><path d="M72.21,20.72l.37-3,.93-10.6.47-7,4.38,0,4,0c.13.87.24,1.53.33,2s.31,1.33.67,2.63.64,2.44.86,3.39.54,2.58,1,4.89c.44-1.58.85-2.94,1.21-4.08S87.26,6.45,87.8,5s.89-2.4,1-2.85.35-1.13.6-2.06l4.44,0L98,.09c-.2,3.4-.32,6.31-.38,8.75-.13,4.78-.2,8.06-.2,9.86,0,.37,0,1.05,0,2l-2.8,0-2.85,0q.12-1.35.3-6.47t.19-6.54c0-.41,0-1,0-1.72l-2,6.15-2.85,8.58-2.71,0-2.87,0L80,12.41,78.9,8c0-.17-.09-.38-.14-.63s-.13-.7-.24-1.33l-.38,4.18-.51,8.59,0,1.93-2.66,0Z" style="fill:#990a1b"/><path d="M98.36,20.72l1.25-2.17,7.82-14.73.83-1.64c.25-.49.58-1.18,1-2.09l3.88,0c1.42,0,2.74,0,4,0l2.2,6.3,4.49,12.13.87,2.2-3.17,0-3.74,0q-.66-2.49-1.92-5.86h-7.61c-.87,1.77-1.78,3.73-2.72,5.86l-3.44,0Zm11.7-10.26h4.7Q113,5.14,112.84,4.59c-.67,1.48-1.23,2.69-1.69,3.64Z" style="fill:#990a1b"/><path d="M126.23,20.72c.19-1.77.35-3.37.46-4.79s.2-3.07.28-4.94.15-3.85.19-5.93.06-3.74.06-5c1.26,0,2.27.05,3.05.05s1.79,0,2.95-.07S135.5,0,136.6,0q1.93,0,3.45.15a8.53,8.53,0,0,1,2.06.44,5.71,5.71,0,0,1,1.56.81,4.84,4.84,0,0,1,1.06,1.06,4.83,4.83,0,0,1,.66,1.39,5.82,5.82,0,0,1,.23,1.7,6.75,6.75,0,0,1-.25,1.89,5.49,5.49,0,0,1-.81,1.67,5.38,5.38,0,0,1-1.39,1.34,11.91,11.91,0,0,1-2.35,1.16l.78,1.92c.23.53.46,1.08.71,1.63l2,4.43c.09.19.25.57.48,1.13l-3.35,0-3.56,0c-.17-.52-.46-1.49-.88-2.91-.17-.6-.32-1.06-.44-1.38-.24-.71-.6-1.72-1.08-3L134,9.15a8.75,8.75,0,0,0,1.6.15,5.56,5.56,0,0,0,2-.34,2.7,2.7,0,0,0,1.36-1,2.63,2.63,0,0,0,.46-1.47A1.88,1.88,0,0,0,139,5.33a2.08,2.08,0,0,0-1.09-.74,8.17,8.17,0,0,0-2.31-.24l-1.09,0-1.33,0C133.09,6.48,133,9,132.87,12s-.16,5.89-.19,8.75l-3.29,0Z" style="fill:#990a1b"/></g></g></g></g></svg>