<svg xmlns="http://www.w3.org/2000/svg" viewBox="0 0 138.38 136.14"><defs><style>.cls-1{fill:#ccc;}</style></defs><g id="Capa_2" data-name="Capa 2"><g id="Capa_7" data-name="Capa 7"><rect class="cls-1" x="55.78" y="130.98" width="74.99" height="5.16"/><path class="cls-1" d="M126.26,0H99.46l29.1,59.2c0,7.15-4.22,13-9.42,13H104V86.23H83V72.15H67.85c-5.2,0-9.42-5.8-9.42-13L87.54,0H60.29A12,12,0,0,0,48.17,11.8V22.05H43.34a5.54,5.54,0,0,0-5.61,5.45v2.35a8.88,8.88,0,0,0-5.3,8v5.68c0,16.84-10.23,31.67-19.27,44.76C6.61,97.83,1,106,.14,113.67A20.52,20.52,0,0,0,5.2,130.06a19.62,19.62,0,0,0,14.61,6.08c11.78,0,19.69-8.89,19.69-22.11V56h8.67v64.73h90.21V11.8A12,12,0,0,0,126.26,0ZM32.43,114c0,7.37-3.31,15.23-12.62,15.23a12.4,12.4,0,0,1-9.36-3.81,12.65,12.65,0,0,1-.8-1c-.13-.18-.25-.36-.37-.55A13.82,13.82,0,0,1,7.07,116c0-.53,0-1.07.1-1.61a19.39,19.39,0,0,1,1.67-5.7l.17-.39c2.15-4.73,5.89-10.14,10-16.12A201.39,201.39,0,0,0,30.91,73.48c.52-1,1-2,1.52-2.94Z"/></g></g></svg>