<svg xmlns="http://www.w3.org/2000/svg" viewBox="0 0 24.44 32.95"><g style="isolation:isolate"><g id="Capa_1" data-name="Capa 1"><g id="Capa_2" data-name="Capa 2"><rect x="4.71" y="31.97" width="14.68" height="2.46" style="fill:#b8b0ab"/><path d="M19.39,34.5H4.71a.07.07,0,0,1-.07-.07V32a.07.07,0,0,1,.07-.07H19.39a.07.07,0,0,1,.07.07v2.46A.07.07,0,0,1,19.39,34.5ZM4.78,34.36H19.32V32H4.78Z" style="fill:#797673"/><rect x="4.71" y="31.97" width="14.68" height="0.95" style="fill:#727176;mix-blend-mode:multiply"/><rect x="2.94" y="4.74" width="18.55" height="27.23" style="fill:#b8b0ab"/><path d="M21.5,32H2.94A.07.07,0,0,1,2.87,32V4.74a.07.07,0,0,1,.07-.07H21.5a.07.07,0,0,1,.07.07V32A.07.07,0,0,1,21.5,32ZM3,31.9h18.4V4.82H3Z" style="fill:#797673"/><rect x="17.96" y="4.74" width="3.54" height="27.23" style="fill:#727176;mix-blend-mode:multiply"/><rect x="2.94" y="4.74" width="2.26" height="27.23" style="fill:#727176;mix-blend-mode:multiply"/><rect x="7.81" y="4.74" width="0.77" height="27.23" style="fill:#b8b0ab;opacity:0.4;mix-blend-mode:screen"/><rect x="11.73" y="-1.49" width="1.37" height="5.69" transform="translate(10.94 13.75) rotate(-89.4)" style="fill:#727176"/><path d="M15.26,2.14h0L9.56,2.08l-.05,0a.14.14,0,0,1,0-.06l0-1.37A.08.08,0,0,1,9.58.56l5.69.06.05,0a.07.07,0,0,1,0,.06V2.07A.07.07,0,0,1,15.26,2.14ZM9.64,1.93,15.18,2l0-1.22L9.65.71Z" style="fill:#727176"/><polygon points="21.5 4.74 15.42 1.37 12.87 1.34 12 1.33 9.45 1.3 2.94 4.74 21.5 4.74" style="fill:#cbc7c0"/><path d="M21.5,4.82H2.94a.09.09,0,0,1-.07-.06.07.07,0,0,1,0-.08L9.42,1.24h0l6,.06h0l6.08,3.38a.07.07,0,0,1,0,.08A.09.09,0,0,1,21.5,4.82ZM3.23,4.67h18L15.4,1.44,9.47,1.38Z" style="fill:#8e8986"/><path d="M18,4.74H21.5L15.42,1.37h-.66C15.34,2,17.5,4.28,18,4.74Z" style="fill:#727176;mix-blend-mode:multiply"/><path d="M9.51,1.74l.63-.43H9.45L2.94,4.74H5.16Z" style="fill:#727176;mix-blend-mode:multiply"/></g></g></g></svg>