<svg xmlns="http://www.w3.org/2000/svg" viewBox="0 0 154.62 154"><defs><style>.cls-1{fill:none;stroke:#f7c90d;stroke-miterlimit:10;stroke-width:7.23px;}.cls-2{fill:#5c7c26;}</style></defs><g id="Capa_2" data-name="Capa 2"><g id="Capa_6" data-name="Capa 6"><path class="cls-1" d="M65.4,138.89a61.89,61.89,0,0,1,0-123.78"/><rect class="cls-2" x="72.01" y="128.15" width="74.99" height="5.16"/><rect class="cls-2" x="64.4" y="133.52" width="90.21" height="20.48"/><path class="cls-2" d="M142.5,0h-66A12,12,0,0,0,64.4,11.8V22.05H59.57A5.53,5.53,0,0,0,54,27.5v2.35a8.88,8.88,0,0,0-5.3,8v5.68c0,16.84-10.24,31.67-19.28,44.76-6.55,9.49-12.21,17.69-13,25.33a20.49,20.49,0,0,0,5.07,16.39A19.58,19.58,0,0,0,36,136.14c11.78,0,19.7-8.89,19.7-22.11V56H64.4v64.73h90.22V11.8A12,12,0,0,0,142.5,0ZM48.67,114c0,7.37-3.32,15.23-12.63,15.23a12.36,12.36,0,0,1-9.35-3.81,13.85,13.85,0,0,1-3.29-11.07c.63-5.95,5.83-13.48,11.86-22.21,4.47-6.46,9.47-13.7,13.41-21.63Zm91.81-69.91a8.21,8.21,0,0,1-8.32,8.09H86.86a8.21,8.21,0,0,1-8.32-8.09V20.76a8.22,8.22,0,0,1,8.32-8.1h45.3a8.22,8.22,0,0,1,8.32,8.1Z"/><path class="cls-2" d="M64.4,22.05H59.57A5.53,5.53,0,0,0,54,27.5v2.35a8.88,8.88,0,0,0-5.3,8v5.68c0,16.84-10.24,31.67-19.28,44.76-6.55,9.49-12.21,17.69-13,25.33a20.49,20.49,0,0,0,5.07,16.39A19.58,19.58,0,0,0,36,136.14c11.78,0,19.7-8.89,19.7-22.11V56H64.4ZM48.67,114c0,7.37-3.32,15.23-12.63,15.23a12.36,12.36,0,0,1-9.35-3.81,13.85,13.85,0,0,1-3.29-11.07c.63-5.95,5.83-13.48,11.86-22.21,4.47-6.46,9.47-13.7,13.41-21.63Z"/></g></g></svg>