<svg xmlns="http://www.w3.org/2000/svg" viewBox="0 0 154.42 154"><defs><style>.cls-1{fill:none;stroke:#f7c90d;stroke-miterlimit:10;stroke-width:6.84px;}.cls-2{fill:#5c7c26;}</style></defs><g id="Capa_2" data-name="Capa 2"><g id="Capa_6" data-name="Capa 6"><path class="cls-1" d="M34.63,132.74C16.16,122.73,3.42,101.53,3.42,77c0-34.18,24.73-61.89,55.24-61.89"/><path class="cls-2" d="M154.42,20.17,153,18.73A5,5,0,0,1,154.42,20.17Z"/><path class="cls-2" d="M137.84,72.09l-.33-.4-.08-.07L93.19,24.3,92,22.85a5,5,0,0,0-3.27-1.16H73.36V9.59H49.53v12.1H36.75a5,5,0,0,0-5.11,5V149a5,5,0,0,0,5.11,5h97.08a5,5,0,0,0,5.11-5V75.13A4.68,4.68,0,0,0,137.84,72.09Zm-20.65,65.84H51.4V85.4h65.79ZM94.47,71.12l-.67-30.9,28.54,29.94,1.58,1.93Z"/><rect class="cls-2" x="47.51" width="27.89" height="10.68"/><path class="cls-2" d="M90.53,111.47l-.16-.3-8-18-8.44,19a14.46,14.46,0,0,0-1.2,5.9c0,6.73,4.32,12.16,9.64,12.16S92,124.77,92,118A14.81,14.81,0,0,0,90.53,111.47ZM80.46,126.54c-.66,1.15-2,.13-2.76-.42-.94-.65-2.77-2.54-2.61-4.18.27-2.31,2.1-.75,3.14.35C79.6,123.88,80.76,126.07,80.46,126.54Z"/></g></g></svg>