<svg id="Capa_1" data-name="Capa 1" xmlns="http://www.w3.org/2000/svg" viewBox="0 0 308 154"><g id="Capa_7" data-name="Capa 7"><rect x="4.96" y="4.54" width="298.09" height="144.92" rx="19.72" style="fill:#5c7c26"/><path d="M179.06,66.36H193.8a.41.41,0,0,1,.41.41V86.21a.41.41,0,0,1-.41.41H179.06a.4.4,0,0,1-.4-.4V66.76A.4.4,0,0,1,179.06,66.36Z" style="fill:#fcfcfc"/><path d="M179.38,78.27V74.46a.09.09,0,0,1,.08-.08H180a.24.24,0,0,1,.24.24v3.49a.24.24,0,0,1-.24.24h-.49A.09.09,0,0,1,179.38,78.27Z" style="fill:#fff"/><path d="M179.46,78.27V74.46H180a.16.16,0,0,1,.16.16v3.49a.16.16,0,0,1-.16.16Z" style="fill:#fff"/><path d="M193.48,78.27V74.46a.09.09,0,0,0-.08-.08h-.49a.24.24,0,0,0-.24.24v3.49a.24.24,0,0,0,.24.24h.49A.09.09,0,0,0,193.48,78.27Z" style="fill:#fff"/><path d="M193.4,78.27V74.46h-.49a.16.16,0,0,0-.16.16v3.49a.16.16,0,0,0,.16.16Z" style="fill:#fff"/><path d="M180.27,74.62v1.54a.17.17,0,0,0,.17.16h12a.16.16,0,0,0,.16-.16V74.62a.32.32,0,0,1,.32-.32h.33a.16.16,0,0,0,.16-.16V67.41a.25.25,0,0,0-.25-.24H179.71a.25.25,0,0,0-.25.24v6.73a.17.17,0,0,0,.17.16H180A.32.32,0,0,1,180.27,74.62Z" style="fill:#515151"/><path d="M180.27,78.19V76.65a.17.17,0,0,1,.17-.16h12a.16.16,0,0,1,.16.16v1.54a.32.32,0,0,0,.32.32h.33a.16.16,0,0,1,.16.16V85.4a.25.25,0,0,1-.25.24H179.71a.25.25,0,0,1-.25-.24V78.67a.17.17,0,0,1,.17-.16H180A.32.32,0,0,0,180.27,78.19Z" style="fill:#515151"/><path d="M190.05,81.8a1.14,1.14,0,0,1,0,.28.69.69,0,0,1-.07.19.32.32,0,0,1-.1.1.27.27,0,0,1-.12,0h-6a.27.27,0,0,1-.12,0,.4.4,0,0,1-.17-.29,1.32,1.32,0,0,1,0-.56.71.71,0,0,1,.06-.19.27.27,0,0,1,.1-.11.2.2,0,0,1,.13,0h2.39V72.46l-2.22,1.32a.83.83,0,0,1-.27.1.16.16,0,0,1-.16,0,.28.28,0,0,1-.08-.19,1.55,1.55,0,0,1,0-.33,1.84,1.84,0,0,1,0-.26.8.8,0,0,1,0-.18.47.47,0,0,1,.07-.12l.13-.11L186.27,71l.09,0,.13,0,.19,0H187l.35,0a.9.9,0,0,1,.22,0,.24.24,0,0,1,.11.08.18.18,0,0,1,0,.1V81.18h2.08a.22.22,0,0,1,.13,0,.22.22,0,0,1,.1.11.47.47,0,0,1,.06.19A1.14,1.14,0,0,1,190.05,81.8Z" style="fill:#fff"/><path d="M196.69,66.36h14.74a.41.41,0,0,1,.41.41V86.21a.4.4,0,0,1-.4.4H196.69a.41.41,0,0,1-.41-.41V66.76A.4.4,0,0,1,196.69,66.36Z" style="fill:#fff"/><path d="M197,78.27V74.46a.09.09,0,0,1,.08-.08h.49a.24.24,0,0,1,.24.24v3.49a.24.24,0,0,1-.24.24h-.49A.09.09,0,0,1,197,78.27Z" style="fill:#fff"/><path d="M197.09,78.27V74.46h.49a.16.16,0,0,1,.16.16v3.49a.16.16,0,0,1-.16.16Z" style="fill:#fff"/><path d="M211.11,78.27V74.46a.09.09,0,0,0-.08-.08h-.49a.24.24,0,0,0-.24.24v3.49a.24.24,0,0,0,.24.24H211A.09.09,0,0,0,211.11,78.27Z" style="fill:#fff"/><path d="M211,78.27V74.46h-.49a.16.16,0,0,0-.16.16v3.49a.16.16,0,0,0,.16.16Z" style="fill:#fff"/><path d="M197.9,74.62v1.54a.16.16,0,0,0,.16.16h12a.17.17,0,0,0,.17-.16V74.62a.32.32,0,0,1,.32-.32h.32a.17.17,0,0,0,.17-.16V67.41a.25.25,0,0,0-.25-.24H197.34a.25.25,0,0,0-.25.24v6.73a.16.16,0,0,0,.16.16h.33A.32.32,0,0,1,197.9,74.62Z" style="fill:#515151"/><path d="M197.9,78.51V77a.16.16,0,0,1,.16-.16h12a.17.17,0,0,1,.17.16v1.54a.32.32,0,0,0,.32.33h.32A.17.17,0,0,1,211,79v6.72a.25.25,0,0,1-.25.24H197.34a.25.25,0,0,1-.25-.24V79a.16.16,0,0,1,.16-.16h.33A.32.32,0,0,0,197.9,78.51Z" style="fill:#515151"/><path d="M207.65,81.74a2.48,2.48,0,0,1,0,.29.77.77,0,0,1-.07.2.27.27,0,0,1-.1.13.28.28,0,0,1-.15,0H201a.69.69,0,0,1-.22,0,.44.44,0,0,1-.16-.1.41.41,0,0,1-.1-.21,1.55,1.55,0,0,1,0-.33c0-.11,0-.22,0-.31a.86.86,0,0,1,.06-.23.82.82,0,0,1,.12-.2,1.09,1.09,0,0,1,.18-.22l2.29-2.36A14.38,14.38,0,0,0,204.4,77a7.17,7.17,0,0,0,.74-1.18,3.85,3.85,0,0,0,.34-1,4.11,4.11,0,0,0,.09-.82,2.18,2.18,0,0,0-.13-.72,1.84,1.84,0,0,0-.37-.6,1.77,1.77,0,0,0-.61-.41,2.21,2.21,0,0,0-.84-.15,3.09,3.09,0,0,0-1,.15,4.81,4.81,0,0,0-.78.33c-.22.12-.41.23-.56.33a.73.73,0,0,1-.33.15.19.19,0,0,1-.12,0,.24.24,0,0,1-.08-.11,1,1,0,0,1-.05-.22,2.54,2.54,0,0,1,0-.31c0-.09,0-.17,0-.23s0-.13,0-.17l.06-.14a.6.6,0,0,1,.14-.15,2.82,2.82,0,0,1,.37-.25,4.08,4.08,0,0,1,.66-.32,6.23,6.23,0,0,1,.86-.26,4.64,4.64,0,0,1,1-.11,4.06,4.06,0,0,1,1.46.24,3,3,0,0,1,1,.64,2.58,2.58,0,0,1,.61,1,3.13,3.13,0,0,1,.2,1.15,6.8,6.8,0,0,1-.09,1.1,5,5,0,0,1-.41,1.17,8.68,8.68,0,0,1-.91,1.41,19.72,19.72,0,0,1-1.58,1.79l-1.82,1.89h5a.27.27,0,0,1,.14.05.29.29,0,0,1,.11.11.6.6,0,0,1,.08.2A2.3,2.3,0,0,1,207.65,81.74Z" style="fill:#fff"/><path d="M214.31,66.36h14.74a.41.41,0,0,1,.41.41V86.21a.4.4,0,0,1-.4.4H214.31a.4.4,0,0,1-.4-.4V66.76A.4.4,0,0,1,214.31,66.36Z" style="fill:#fff"/><path d="M214.64,78.27V74.46a.09.09,0,0,1,.08-.08h.49a.24.24,0,0,1,.24.24v3.49a.24.24,0,0,1-.24.24h-.49A.09.09,0,0,1,214.64,78.27Z" style="fill:#fff"/><path d="M214.72,78.27V74.46h.49a.16.16,0,0,1,.16.16v3.49a.16.16,0,0,1-.16.16Z" style="fill:#fff"/><path d="M228.73,78.27V74.46a.08.08,0,0,0-.08-.08h-.48a.25.25,0,0,0-.25.24v3.49a.25.25,0,0,0,.25.24h.48A.08.08,0,0,0,228.73,78.27Z" style="fill:#fff"/><path d="M228.65,78.27V74.46h-.48a.16.16,0,0,0-.16.16v3.49a.16.16,0,0,0,.16.16Z" style="fill:#fff"/><path d="M215.53,74.62v1.54a.16.16,0,0,0,.16.16h12a.16.16,0,0,0,.16-.16V74.62a.32.32,0,0,1,.33-.32h.32a.16.16,0,0,0,.16-.16V67.41a.24.24,0,0,0-.24-.24H215a.24.24,0,0,0-.24.24v6.73a.16.16,0,0,0,.16.16h.33A.32.32,0,0,1,215.53,74.62Z" style="fill:#515151"/><path d="M215.53,78.35V76.81a.16.16,0,0,1,.16-.16h12a.16.16,0,0,1,.16.16v1.54a.32.32,0,0,0,.33.32h.32a.17.17,0,0,1,.16.17v6.72a.24.24,0,0,1-.24.24H215a.24.24,0,0,1-.24-.24V78.84a.17.17,0,0,1,.16-.17h.33A.32.32,0,0,0,215.53,78.35Z" style="fill:#515151"/><path d="M225.19,79.12a3.4,3.4,0,0,1-.28,1.42,2.94,2.94,0,0,1-.79,1.09,3.48,3.48,0,0,1-1.26.69,5.33,5.33,0,0,1-1.7.25,5.22,5.22,0,0,1-1.08-.1,5.79,5.79,0,0,1-.89-.22,3.81,3.81,0,0,1-.65-.26,1.66,1.66,0,0,1-.32-.2.38.38,0,0,1-.1-.13.52.52,0,0,1-.07-.15c0-.06,0-.13,0-.22s0-.19,0-.31a1.11,1.11,0,0,1,.06-.44.23.23,0,0,1,.19-.13.87.87,0,0,1,.32.15c.16.09.37.19.62.3a7.35,7.35,0,0,0,.88.31,4.29,4.29,0,0,0,1.12.14,3.43,3.43,0,0,0,1.06-.15,2.09,2.09,0,0,0,.76-.43,1.65,1.65,0,0,0,.46-.65,2,2,0,0,0,.16-.82,2,2,0,0,0-.2-.88,1.84,1.84,0,0,0-.58-.67,2.67,2.67,0,0,0-.93-.43,4.84,4.84,0,0,0-1.26-.15h-1.12a.4.4,0,0,1-.15,0,.29.29,0,0,1-.11-.11.44.44,0,0,1-.09-.18,1.26,1.26,0,0,1,0-.3,1,1,0,0,1,0-.28.52.52,0,0,1,.07-.18.5.5,0,0,1,.11-.1.37.37,0,0,1,.15,0h1a3.41,3.41,0,0,0,1-.15,2.23,2.23,0,0,0,.79-.43,1.94,1.94,0,0,0,.49-.68,2.09,2.09,0,0,0,.17-.88,1.94,1.94,0,0,0-.11-.68,1.48,1.48,0,0,0-.35-.56,1.54,1.54,0,0,0-.59-.38,2.27,2.27,0,0,0-.82-.14,2.63,2.63,0,0,0-1,.16,5.42,5.42,0,0,0-.76.33,6,6,0,0,0-.56.33.67.67,0,0,1-.31.16.2.2,0,0,1-.11,0s-.06,0-.08-.08a.74.74,0,0,1,0-.19,2.73,2.73,0,0,1,0-.31,1.77,1.77,0,0,1,0-.24.84.84,0,0,1,0-.18.54.54,0,0,1,.07-.13.64.64,0,0,1,.12-.15,1.51,1.51,0,0,1,.34-.24,4.57,4.57,0,0,1,.63-.32,5.31,5.31,0,0,1,.87-.26,5.07,5.07,0,0,1,1.06-.11,4.25,4.25,0,0,1,1.4.21,2.79,2.79,0,0,1,1,.57,2.48,2.48,0,0,1,.61.89,3.44,3.44,0,0,1,0,2.16,2.53,2.53,0,0,1-.41.82,2.66,2.66,0,0,1-.68.61,2.42,2.42,0,0,1-.92.35v0a3.2,3.2,0,0,1,1.09.3,2.7,2.7,0,0,1,.84.59,2.53,2.53,0,0,1,.56.83A2.6,2.6,0,0,1,225.19,79.12Z" style="fill:#fff"/><path d="M231.94,66.36h14.75a.4.4,0,0,1,.4.4V86.21a.4.4,0,0,1-.4.4H231.94a.41.41,0,0,1-.41-.41V66.76A.4.4,0,0,1,231.94,66.36Z" style="fill:#fff"/><path d="M232.27,78.27V74.46a.08.08,0,0,1,.08-.08h.48a.25.25,0,0,1,.25.24v3.49a.25.25,0,0,1-.25.24h-.48A.08.08,0,0,1,232.27,78.27Z" style="fill:#fff"/><path d="M232.35,78.27V74.46h.48a.17.17,0,0,1,.17.16v3.49a.17.17,0,0,1-.17.16Z" style="fill:#fff"/><path d="M246.36,78.27V74.46a.08.08,0,0,0-.08-.08h-.48a.25.25,0,0,0-.25.24v3.49a.25.25,0,0,0,.25.24h.48A.08.08,0,0,0,246.36,78.27Z" style="fill:#fff"/><path d="M246.28,78.27V74.46h-.48a.17.17,0,0,0-.17.16v3.49a.17.17,0,0,0,.17.16Z" style="fill:#fff"/><path d="M233.16,74.62v1.54a.16.16,0,0,0,.16.16h12a.16.16,0,0,0,.16-.16V74.62a.32.32,0,0,1,.33-.32h.32a.16.16,0,0,0,.16-.16V67.41a.24.24,0,0,0-.24-.24H232.59a.24.24,0,0,0-.24.24v6.73a.16.16,0,0,0,.16.16h.32A.32.32,0,0,1,233.16,74.62Z" style="fill:#595959"/><path d="M233.16,78.51V77a.16.16,0,0,1,.16-.16h12a.16.16,0,0,1,.16.16v1.54a.33.33,0,0,0,.33.33h.32a.16.16,0,0,1,.16.16v6.72A.24.24,0,0,1,246,86H232.59a.24.24,0,0,1-.24-.24V79a.16.16,0,0,1,.16-.16h.32A.33.33,0,0,0,233.16,78.51Z" style="fill:#595959"/><path d="M243.39,79.14a1,1,0,0,1-.09.46.28.28,0,0,1-.25.17h-1.29v2.41a.19.19,0,0,1,0,.12.23.23,0,0,1-.12.08,1.25,1.25,0,0,1-.24.05l-.38,0-.36,0a.89.89,0,0,1-.23-.05.23.23,0,0,1-.12-.08.27.27,0,0,1,0-.12V79.77h-4.69a.48.48,0,0,1-.18,0,.31.31,0,0,1-.13-.1.42.42,0,0,1-.08-.2,3.16,3.16,0,0,1,0-.35,2.81,2.81,0,0,1,0-.3,1.5,1.5,0,0,1,0-.24.65.65,0,0,1,.07-.21,1.38,1.38,0,0,1,.1-.22l4.09-7a.51.51,0,0,1,.13-.12l.22-.09.33,0h.47l.52,0,.36.06a.51.51,0,0,1,.21.09.17.17,0,0,1,.07.14v7.32h1.29a.29.29,0,0,1,.25.15A1,1,0,0,1,243.39,79.14Zm-3.15-6.92h0l-3.69,6.29h3.71Z" style="fill:#fff"/><path d="M249.57,66.36h14.75a.41.41,0,0,1,.41.41V86.21a.4.4,0,0,1-.4.4H249.57a.41.41,0,0,1-.41-.41V66.76A.4.4,0,0,1,249.57,66.36Z" style="fill:#fff"/><path d="M249.89,78.27V74.46a.09.09,0,0,1,.09-.08h.48a.24.24,0,0,1,.24.24v3.49a.24.24,0,0,1-.24.24H250A.09.09,0,0,1,249.89,78.27Z" style="fill:#fff"/><path d="M250,78.27V74.46h.48a.16.16,0,0,1,.16.16v3.49a.16.16,0,0,1-.16.16Z" style="fill:#fff"/><path d="M264,78.27V74.46a.09.09,0,0,0-.08-.08h-.49a.24.24,0,0,0-.24.24v3.49a.24.24,0,0,0,.24.24h.49A.09.09,0,0,0,264,78.27Z" style="fill:#fff"/><path d="M263.91,78.27V74.46h-.49a.16.16,0,0,0-.16.16v3.49a.16.16,0,0,0,.16.16Z" style="fill:#fff"/><path d="M250.79,74.62v1.54a.16.16,0,0,0,.16.16h12a.16.16,0,0,0,.16-.16V74.62a.32.32,0,0,1,.32-.32h.33a.16.16,0,0,0,.16-.16V67.41a.24.24,0,0,0-.24-.24H250.22a.24.24,0,0,0-.24.24v6.73a.16.16,0,0,0,.16.16h.32A.32.32,0,0,1,250.79,74.62Z" style="fill:#595959"/><path d="M250.79,78.51V77a.16.16,0,0,1,.16-.16h12a.16.16,0,0,1,.16.16v1.54a.32.32,0,0,0,.32.33h.33a.16.16,0,0,1,.16.16v6.72a.24.24,0,0,1-.24.24H250.22a.24.24,0,0,1-.24-.24V79a.16.16,0,0,1,.16-.16h.32A.33.33,0,0,0,250.79,78.51Z" style="fill:#515151"/><path d="M260.48,78.71a4.21,4.21,0,0,1-.31,1.64,3.35,3.35,0,0,1-.88,1.21,3.86,3.86,0,0,1-1.35.75,5.58,5.58,0,0,1-1.74.26,6.46,6.46,0,0,1-1-.08,7.37,7.37,0,0,1-.85-.18c-.25-.08-.45-.15-.61-.22a1.49,1.49,0,0,1-.31-.17l-.09-.11a.5.5,0,0,1-.05-.13.54.54,0,0,1,0-.19,2.35,2.35,0,0,1,0-.28,2.26,2.26,0,0,1,0-.27.74.74,0,0,1,.05-.19.2.2,0,0,1,.09-.11.14.14,0,0,1,.11,0,.7.7,0,0,1,.27.11,4.83,4.83,0,0,0,.5.24,4.55,4.55,0,0,0,.78.24,4.46,4.46,0,0,0,1.1.12,4.11,4.11,0,0,0,1.09-.14,2.43,2.43,0,0,0,.86-.45,2,2,0,0,0,.56-.75,2.7,2.7,0,0,0,.21-1.12,2.47,2.47,0,0,0-.18-1,1.66,1.66,0,0,0-.53-.7,2.47,2.47,0,0,0-.91-.41,5.47,5.47,0,0,0-1.31-.14,8.14,8.14,0,0,0-.93.05,4.78,4.78,0,0,1-.73.06.45.45,0,0,1-.35-.12.67.67,0,0,1-.11-.44V71.51a.63.63,0,0,1,.14-.44.54.54,0,0,1,.4-.14h5.07a.33.33,0,0,1,.14,0,.43.43,0,0,1,.11.12.86.86,0,0,1,.07.21,2.33,2.33,0,0,1,0,.29,1.07,1.07,0,0,1-.09.49.25.25,0,0,1-.23.18h-4.1v3.22a4.07,4.07,0,0,1,.61,0h.72a5.24,5.24,0,0,1,1.66.23,3.31,3.31,0,0,1,1.18.67,2.72,2.72,0,0,1,.71,1A3.45,3.45,0,0,1,260.48,78.71Z" style="fill:#fff"/><path d="M267.2,66.36h14.75a.41.41,0,0,1,.41.41V86.21a.4.4,0,0,1-.4.4H267.2a.41.41,0,0,1-.41-.41V66.76A.4.4,0,0,1,267.2,66.36Z" style="fill:#f9f9f9"/><path d="M267.52,78.27V74.46a.09.09,0,0,1,.08-.08h.49a.24.24,0,0,1,.24.24v3.49a.24.24,0,0,1-.24.24h-.49A.09.09,0,0,1,267.52,78.27Z" style="fill:#fff"/><path d="M267.6,78.27V74.46h.49a.16.16,0,0,1,.16.16v3.49a.16.16,0,0,1-.16.16Z" style="fill:#fff"/><path d="M281.62,78.27V74.46a.09.09,0,0,0-.08-.08h-.49a.24.24,0,0,0-.24.24v3.49a.24.24,0,0,0,.24.24h.49A.09.09,0,0,0,281.62,78.27Z" style="fill:#fefffd"/><path d="M281.54,78.27V74.46h-.49a.16.16,0,0,0-.16.16v3.49a.16.16,0,0,0,.16.16Z" style="fill:#fefffd"/><path d="M268.41,74.62v1.54a.17.17,0,0,0,.17.16h12a.16.16,0,0,0,.16-.16V74.62a.32.32,0,0,1,.32-.32h.33a.16.16,0,0,0,.16-.16V67.41a.25.25,0,0,0-.25-.24H267.85a.25.25,0,0,0-.25.24v6.73a.17.17,0,0,0,.17.16h.32A.32.32,0,0,1,268.41,74.62Z" style="fill:#f7c90d"/><path d="M268.41,78.51V77a.17.17,0,0,1,.17-.16h12a.16.16,0,0,1,.16.16v1.54a.32.32,0,0,0,.32.33h.33a.16.16,0,0,1,.16.16v6.72a.25.25,0,0,1-.25.24H267.85a.25.25,0,0,1-.25-.24V79a.17.17,0,0,1,.17-.16h.32A.32.32,0,0,0,268.41,78.51Z" style="fill:#f7c90d"/><path d="M278.45,78.69a4.73,4.73,0,0,1-.23,1.45,3.32,3.32,0,0,1-.71,1.24,3.37,3.37,0,0,1-1.21.86,4.22,4.22,0,0,1-1.74.33,4.1,4.1,0,0,1-1.27-.18,3,3,0,0,1-1-.51,2.65,2.65,0,0,1-.68-.8,4.68,4.68,0,0,1-.43-1.09,8.66,8.66,0,0,1-.24-1.34,15.17,15.17,0,0,1-.07-1.56c0-.49,0-1,.08-1.49a8.65,8.65,0,0,1,.28-1.45,6,6,0,0,1,.56-1.32,4.09,4.09,0,0,1,.87-1.07A4.24,4.24,0,0,1,274,71a5,5,0,0,1,1.71-.27c.22,0,.44,0,.66,0s.43.07.62.11a2.27,2.27,0,0,1,.48.15,1.32,1.32,0,0,1,.26.12.44.44,0,0,1,.09.11.61.61,0,0,1,.05.12l0,.16v.48a.32.32,0,0,1,0,.18.19.19,0,0,1-.08.11.21.21,0,0,1-.12,0,.67.67,0,0,1-.27-.07l-.41-.13a4.32,4.32,0,0,0-1.37-.2,2.69,2.69,0,0,0-2.39,1.24,4.09,4.09,0,0,0-.56,1.31,7.93,7.93,0,0,0-.21,1.57l.52-.27a5.87,5.87,0,0,1,.63-.24,5.4,5.4,0,0,1,.72-.17,4.32,4.32,0,0,1,.82-.07,4.26,4.26,0,0,1,1.57.26,2.55,2.55,0,0,1,1,.7,2.6,2.6,0,0,1,.56,1.05A4.63,4.63,0,0,1,278.45,78.69Zm-1.54.14a3.87,3.87,0,0,0-.1-.94,1.74,1.74,0,0,0-.34-.71,1.58,1.58,0,0,0-.64-.45,2.63,2.63,0,0,0-1-.16,3.66,3.66,0,0,0-.65.06,3.23,3.23,0,0,0-.63.16A3.8,3.8,0,0,0,273,77a4.9,4.9,0,0,0-.51.3,10.19,10.19,0,0,0,.15,1.91,3.74,3.74,0,0,0,.42,1.24,1.72,1.72,0,0,0,.7.67,2.27,2.27,0,0,0,1,.2,2.19,2.19,0,0,0,1-.22,2.11,2.11,0,0,0,.69-.57,2.36,2.36,0,0,0,.4-.81A3.08,3.08,0,0,0,276.91,78.83Z" style="fill:#fff"/><path d="M230.53,21.27a55.53,55.53,0,0,1,31.13,9.51,56.4,56.4,0,0,1,8.24,6.8,55.81,55.81,0,0,1,6.79,8.24,55.67,55.67,0,0,1-6.79,70.48,55.88,55.88,0,0,1-17.7,11.94,55.91,55.91,0,0,1-43.34,0,56,56,0,0,1-17.69-11.94,55.65,55.65,0,0,1,39.36-95m0-6a61.4,61.4,0,0,0-34.48,10.54,61.87,61.87,0,0,0-22.34,27.13,61.67,61.67,0,0,0,13.22,67.61,61.89,61.89,0,0,0,9.12,7.52,61.58,61.58,0,0,0,69,0A61.58,61.58,0,0,0,292.2,76.94a61.54,61.54,0,0,0-10.53-34.48,61.87,61.87,0,0,0-27.13-22.34,61.25,61.25,0,0,0-24-4.85Z" style="fill:#fff"/><text transform="translate(211.84 104.7)" style="font-size:12px;fill:#fff;font-family:DINNextLTPro-Bold, DIN Next LT Pro;font-weight:700">HOURS</text><path d="M119.49,59.3A47.53,47.53,0,1,0,42.1,111.4l2,2,8.46-8.46-4-3.94-4.44,4.45A41.7,41.7,0,0,1,33.85,80.58h6.29V75H33.85A41.7,41.7,0,0,1,44.14,50.17l4.45,4.45,3.94-3.94-4.45-4.45A41.7,41.7,0,0,1,72.92,35.94v6.29h5.57V35.94a41.7,41.7,0,0,1,24.84,10.29l-4.45,4.45,3.94,3.94,4.45-4.45A41.7,41.7,0,0,1,117.56,75h-6.29v5.57h6.29a41.7,41.7,0,0,1-10.29,24.84L102.82,101l-3.94,3.94,8.46,8.46,2-2a47.55,47.55,0,0,0,10.18-52.1Z" style="fill:#595959;stroke:#fff;stroke-linecap:round;stroke-linejoin:round;stroke-width:2px"/><path d="M80.87,77.8a5.18,5.18,0,0,0-3.59-4.93L76.07,50.12a.37.37,0,0,0-.73,0L74.13,72.87a5.17,5.17,0,0,0-1.21,9.28l-.46,8.75a1.45,1.45,0,0,0,1.45,1.54h3.58A1.46,1.46,0,0,0,79,90.9l-.47-8.75A5.15,5.15,0,0,0,80.87,77.8Z" style="fill:#595959;stroke:#fff;stroke-linecap:round;stroke-linejoin:round;stroke-width:2px"/><rect x="61.7" y="108.7" width="28.02" height="11.45" style="fill:#595959;stroke:#fff;stroke-linecap:round;stroke-linejoin:round;stroke-width:2px"/><path d="M75.7,20.66A55.53,55.53,0,0,1,115.07,37,55.63,55.63,0,0,1,127,54.66,55.89,55.89,0,0,1,127,98a55.77,55.77,0,0,1-29.63,29.63,55.89,55.89,0,0,1-43.33,0,55.9,55.9,0,0,1-24.5-20.17A55.65,55.65,0,0,1,75.7,20.66m0-6A61.31,61.31,0,0,0,41.22,25.19,62.21,62.21,0,0,0,24.57,41.84a61.58,61.58,0,0,0,0,69,62.21,62.21,0,0,0,16.65,16.65,61.66,61.66,0,0,0,69,0,62.21,62.21,0,0,0,16.65-16.65,61.66,61.66,0,0,0,0-69A61.87,61.87,0,0,0,99.71,19.5a61.42,61.42,0,0,0-24-4.84Z" style="fill:#fff"/></g></svg>