<svg xmlns="http://www.w3.org/2000/svg" viewBox="0 0 30.23 40"><defs><style>.cls-1{fill:#727176;}</style></defs><g id="Capa_2" data-name="Capa 2"><g id="Capa_6" data-name="Capa 6"><path class="cls-1" d="M23.42,9.93V8.43a8.31,8.31,0,1,0-16.61,0v1.5c-.35.14-.56.29-.56.45,0,.32.83.62,2.18.85,0-.2,0-.39,0-.59,0-5.22,3-9.45,6.61-9.45s6.61,4.23,6.61,9.45c0,.21,0,.41,0,.62C23.08,11,24,10.72,24,10.38,24,10.22,23.78,10.07,23.42,9.93Z"/><path class="cls-1" d="M29.57,29.36c-1.06-1.74-4.45-3.69-10-5.77L19.17,20A11.49,11.49,0,0,0,23,12.43a14.16,14.16,0,0,1-1.48.3A9.79,9.79,0,0,1,18,19.05a.71.71,0,0,0-.3.66l.41,4.05c-.1.06-.18.12-.28.17l-.23.11a5.18,5.18,0,0,1-.65.26l-.13.05a6,6,0,0,1-3.46,0l-.16-.06a4.73,4.73,0,0,1-.62-.25,1.92,1.92,0,0,1-.25-.12l-.26-.16.4-4.05a.73.73,0,0,0-.29-.66,9.76,9.76,0,0,1-3.52-6.32,14.72,14.72,0,0,1-1.48-.3A11.49,11.49,0,0,0,11.06,20l-.36,3.63c-5.59,2.09-9,4-10,5.77-1.35,2.19-.23,9.25-.1,10l.1.59H14.25l-.05-9.38s-4.51-5.13-3-5.71l0,0a7.66,7.66,0,0,0,.85.46h0a7.23,7.23,0,0,0,5.95,0l0,0a7.71,7.71,0,0,0,.85-.45l0,0c1.54.58-2.17,5.71-2.17,5.71l0,9.38H29.57l.1-.59C29.8,38.61,30.92,31.55,29.57,29.36ZM6.25,38.57H1.85c-.42-2.86-.75-7.23,0-8.45a8.42,8.42,0,0,1,3-2.36l1.41,4Zm22.13,0H24v-6.8l1.41-4a8.42,8.42,0,0,1,3,2.36C29.13,31.34,28.8,35.71,28.38,38.57Z"/></g></g></svg>