<svg xmlns="http://www.w3.org/2000/svg" xmlns:xlink="http://www.w3.org/1999/xlink" viewBox="0 0 24.44 32.95"><defs><filter id="luminosity-noclip" x="8.49" y="-8208" width="6.53" height="32766" filterUnits="userSpaceOnUse" color-interpolation-filters="sRGB"><feFlood flood-color="#fff" result="bg"/><feBlend in="SourceGraphic" in2="bg"/></filter><mask id="mask" x="8.49" y="-8208" width="6.53" height="32766" maskUnits="userSpaceOnUse"><g style="filter:url(#luminosity-noclip)"/></mask><linearGradient id="linear-gradient" x1="11.76" y1="0.76" x2="11.76" y2="1.78" gradientUnits="userSpaceOnUse"><stop offset="0" stop-color="#fff"/><stop offset="0.09" stop-color="#f8f8f8"/><stop offset="0.22" stop-color="#e5e5e5"/><stop offset="0.37" stop-color="#c6c6c6"/><stop offset="0.54" stop-color="#9b9b9b"/><stop offset="0.72" stop-color="#636363"/><stop offset="0.91" stop-color="#202020"/><stop offset="1"/></linearGradient><filter id="luminosity-noclip-2" x="8.49" y="0.81" width="6.53" height="0.24" filterUnits="userSpaceOnUse" color-interpolation-filters="sRGB"><feFlood flood-color="#fff" result="bg"/><feBlend in="SourceGraphic" in2="bg"/></filter><mask id="mask-2" x="8.49" y="0.81" width="6.53" height="0.24" maskUnits="userSpaceOnUse"><g style="mask:url(#mask);filter:url(#luminosity-noclip-2)"><path d="M15,1.05a.24.24,0,0,0-.24-.24h-6a.24.24,0,0,0-.24.24Z" style="mix-blend-mode:multiply;fill:url(#linear-gradient)"/></g></mask><clipPath id="clip-path"><path id="SVGID" d="M15,3.1v-2a.24.24,0,0,0-.24-.24h-6a.24.24,0,0,0-.24.24V3.1a.24.24,0,0,0,.24.24h6A.24.24,0,0,0,15,3.1Z" style="fill:#727176"/></clipPath><clipPath id="clip-path-2"><path id="SVGID-2" data-name="SVGID" d="M20,29V25.85a.65.65,0,0,1,.19-.45h0a.6.6,0,0,0,.18-.44v-.82L20,24V20.87a.64.64,0,0,1,.19-.45h0a.63.63,0,0,0,.18-.45v-.81L20,18.94V15.89a.64.64,0,0,1,.19-.45h0a.63.63,0,0,0,.18-.45V14.7c0-5-2.71-11.4-6.05-11.4H8.73l-3.1,6A11,11,0,0,0,4.39,14.3V31.24a1.3,1.3,0,0,0,1.3,1.3H19.32a1,1,0,0,0,1-1h0a3.73,3.73,0,0,0-.17-1.15h0A5.09,5.09,0,0,1,20,29Z" style="fill:none"/></clipPath><linearGradient id="linear-gradient-2" x1="12.48" y1="10.44" x2="12.48" y2="12.07" gradientUnits="userSpaceOnUse"><stop offset="0" stop-color="#1d1d1d"/><stop offset="0.13" stop-color="#1f2021"/><stop offset="0.26" stop-color="#25292d"/><stop offset="0.4" stop-color="#2f3942"/><stop offset="0.53" stop-color="#3e4e5f"/><stop offset="0.67" stop-color="#506a84"/><stop offset="0.81" stop-color="#678cb2"/><stop offset="0.94" stop-color="#81b4e6"/><stop offset="1" stop-color="#8dc6ff"/></linearGradient></defs><g style="isolation:isolate"><g id="Capa_1" data-name="Capa 1"><g id="Capa_7" data-name="Capa 7"><g id="_15" data-name="15"><path id="SVGID-4" data-name="SVGID" d="M20,29V25.85a.65.65,0,0,1,.19-.45h0a.6.6,0,0,0,.18-.44v-.82L20,24V20.87a.64.64,0,0,1,.19-.45h0a.63.63,0,0,0,.18-.45v-.81L20,18.94V15.89a.64.64,0,0,1,.19-.45h0a.63.63,0,0,0,.18-.45V14.7c0-5-2.71-11.4-6.05-11.4H8.73l-3.1,6A11,11,0,0,0,4.39,14.3V31.24a1.3,1.3,0,0,0,1.3,1.3H19.32a1,1,0,0,0,1-1h0a3.73,3.73,0,0,0-.17-1.15h0A5.09,5.09,0,0,1,20,29Z" style="fill:#727176"/><path d="M9.42,5.23,6.73,10.29a1.15,1.15,0,0,0,1,1.68h10a.66.66,0,0,0,.6-.92L16.58,7.4a6,6,0,0,0-.68-1.11,4.23,4.23,0,0,0-3.22-1.64H10.4A1,1,0,0,0,9.42,5.23Z" style="fill:#727176"/><path d="M15,3.1v-2a.24.24,0,0,0-.24-.24h-6a.24.24,0,0,0-.24.24V3.1a.24.24,0,0,0,.24.24h6A.24.24,0,0,0,15,3.1Z" style="fill:#727176"/><g style="mask:url(#mask-2)"><path d="M15,1.05a.24.24,0,0,0-.24-.24h-6a.24.24,0,0,0-.24.24Z" style="fill:#727176;opacity:0.7000000000000001;mix-blend-mode:screen"/></g><path id="SVGID-5" data-name="SVGID" d="M15,3.1v-2a.24.24,0,0,0-.24-.24h-6a.24.24,0,0,0-.24.24V3.1a.24.24,0,0,0,.24.24h6A.24.24,0,0,0,15,3.1Z" style="fill:#727176"/><g style="clip-path:url(#clip-path)"><g style="opacity:0.6000000000000001;mix-blend-mode:multiply"><rect x="8.4" y="1.12" width="0.2" height="2.09" rx="0.09" style="fill:#727176"/><path d="M8.85,1.12h0a.1.1,0,0,1,.1.1v1.9a.09.09,0,0,1-.09.09h0a.09.09,0,0,1-.09-.09V1.21A.09.09,0,0,1,8.85,1.12Z" style="fill:#727176"/><path d="M9.22,1.12h0a.09.09,0,0,1,.09.09v1.9a.09.09,0,0,1-.09.09h0a.1.1,0,0,1-.1-.1V1.21A.1.1,0,0,1,9.22,1.12Z" style="fill:#727176"/><rect x="9.48" y="1.12" width="0.2" height="2.09" rx="0.1" style="fill:#727176"/><path d="M9.94,1.12h0a.1.1,0,0,1,.1.1v1.9a.09.09,0,0,1-.09.09h0a.09.09,0,0,1-.09-.09V1.21a.09.09,0,0,1,.09-.09Z" style="fill:#727176"/><path d="M10.3,1.12h0a.1.1,0,0,1,.1.1v1.9a.09.09,0,0,1-.09.09h0a.09.09,0,0,1-.09-.09V1.21a.09.09,0,0,1,.09-.09Z" style="fill:#727176"/><path d="M10.66,1.12h0a.09.09,0,0,1,.09.09v1.9a.09.09,0,0,1-.09.09h0a.1.1,0,0,1-.1-.1V1.21a.1.1,0,0,1,.1-.1Z" style="fill:#727176"/><rect x="10.93" y="1.12" width="0.2" height="2.09" rx="0.1" style="fill:#727176"/><path d="M11.38,1.12h0a.1.1,0,0,1,.1.1v1.9a.09.09,0,0,1-.09.09h0a.09.09,0,0,1-.09-.09V1.21a.09.09,0,0,1,.09-.09Z" style="fill:#727176"/><path d="M11.75,1.12h0a.1.1,0,0,1,.1.1v1.9a.09.09,0,0,1-.09.09h0a.09.09,0,0,1-.09-.09V1.21A.09.09,0,0,1,11.75,1.12Z" style="fill:#727176"/><path d="M12.11,1.12h0a.09.09,0,0,1,.09.09v1.9a.09.09,0,0,1-.09.09h0a.1.1,0,0,1-.1-.1V1.21a.1.1,0,0,1,.1-.1Z" style="fill:#727176"/><rect x="12.37" y="1.12" width="0.2" height="2.09" rx="0.1" style="fill:#727176"/><path d="M12.83,1.12h0a.1.1,0,0,1,.1.1v1.9a.09.09,0,0,1-.09.09h0a.09.09,0,0,1-.09-.09V1.21a.09.09,0,0,1,.09-.09Z" style="fill:#727176"/><path d="M13.19,1.12h0a.09.09,0,0,1,.09.09v1.9a.09.09,0,0,1-.09.09h0a.1.1,0,0,1-.1-.1V1.21a.1.1,0,0,1,.1-.1Z" style="fill:#727176"/><rect x="13.46" y="1.12" width="0.2" height="2.09" rx="0.1" style="fill:#727176"/><rect x="13.82" y="1.12" width="0.2" height="2.09" rx="0.09" style="fill:#727176"/><path d="M14.28,1.12h0a.1.1,0,0,1,.1.1v1.9a.09.09,0,0,1-.09.09h0a.09.09,0,0,1-.09-.09V1.21a.09.09,0,0,1,.09-.09Z" style="fill:#727176"/><path d="M14.64,1.12h0a.09.09,0,0,1,.09.09v1.9a.09.09,0,0,1-.09.09h0a.1.1,0,0,1-.1-.1V1.21a.1.1,0,0,1,.1-.1Z" style="fill:#727176"/><rect x="14.91" y="1.12" width="0.2" height="2.09" rx="0.1" style="fill:#727176"/></g></g><path d="M8.49,3V3.1a.24.24,0,0,0,.24.24h6A.24.24,0,0,0,15,3.1V3Z" style="fill:#727176"/><path d="M15,2.13V1.05a.24.24,0,0,0-.24-.24h-6a.24.24,0,0,0-.24.24V2.13C8.49,1.81,15,1.81,15,2.13Z" style="fill:#727176;opacity:0.4;mix-blend-mode:screen"/><g style="clip-path:url(#clip-path-2)"><path d="M20.55,20a13.29,13.29,0,0,0-2.38,2.42,4.33,4.33,0,0,0-.8,3.23.38.38,0,0,0,0,.1,21.94,21.94,0,0,0,3-2.08Z" style="fill:#3a3a3a"/><path d="M20.55,15a13,13,0,0,0-2.38,2.42,4.33,4.33,0,0,0-.8,3.23.38.38,0,0,0,0,.1,23.78,23.78,0,0,0,2.94-2.09Z" style="fill:#3a3a3a"/><path d="M20.55,25a13,13,0,0,0-2.38,2.43,4.62,4.62,0,0,0-.8,3.22c.06.44,0,1.38,3.25.15Z" style="fill:#3a3a3a"/></g><g style="clip-path:url(#clip-path-2)"><g style="opacity:0.9;mix-blend-mode:screen"><path d="M17.27,21.05a23.9,23.9,0,0,1,3.4-2.61l2.5-1.7c.64-.43,1-.7,1-.69s-1.38,1.37-3.32,2.7A26.55,26.55,0,0,1,17.27,21.05Z" style="fill:#8dc6ff;mix-blend-mode:screen"/></g><g style="opacity:0.6000000000000001;mix-blend-mode:screen"><path d="M17.27,26.13a23.44,23.44,0,0,1,3.4-2.6l2.5-1.71c.64-.43,1-.7,1-.69s-1.38,1.37-3.32,2.71A25.84,25.84,0,0,1,17.27,26.13Z" style="fill:#8dc6ff;mix-blend-mode:screen"/></g></g><path d="M6.73,10.78l2.6-5.09a1.14,1.14,0,0,1,1-.63l2.51,0a4,4,0,0,1,3.6,2.34l1.85,4.12v0a.65.65,0,0,0,0-.51L16.47,6.93a4,4,0,0,0-3.6-2.34l-2.51,0a1.14,1.14,0,0,0-1,.63l-2.6,5.09a1.13,1.13,0,0,0-.1.76A1.48,1.48,0,0,1,6.73,10.78Z" style="fill:#3a3a3a"/><path d="M18.36,11.18a.63.63,0,0,0,0-.13s0,0,0,.13a.62.62,0,0,1,0,.39.64.64,0,0,1-.46.37c-.24,0-.52,0-.83,0l-4.81,0H8.4a3.52,3.52,0,0,1-1,0,1.16,1.16,0,0,1-.8-1.09,1.07,1.07,0,0,1,.07-.38,1.11,1.11,0,0,1,.05-.13l-.06.12a1.41,1.41,0,0,0-.09.39,1.19,1.19,0,0,0,.13.63,1.21,1.21,0,0,0,.66.59,1.48,1.48,0,0,0,.51.09l.52,0c.36,0,7.39,0,8.62-.06a7.12,7.12,0,0,0,.85-.07.7.7,0,0,0,.47-.43A.62.62,0,0,0,18.36,11.18Z" style="mix-blend-mode:screen;fill:url(#linear-gradient-2)"/></g></g></g></g></svg>