<svg xmlns="http://www.w3.org/2000/svg" viewBox="0 0 68.69 48.88"><defs><style>.cls-1{fill:#727176;}</style></defs><g id="Capa_2" data-name="Capa 2"><g id="Capa_7" data-name="Capa 7"><path class="cls-1" d="M65.18,6.55c-2.34-2.33-5.39-4.35-8.32-4.78a81.77,81.77,0,0,0-8.62-.46V31.7a9.23,9.23,0,0,1,1.4-.11A10.06,10.06,0,0,1,59.71,41.65h5.47a3.47,3.47,0,0,0,2.48-1,3.5,3.5,0,0,0,1-2.47V15A12,12,0,0,0,65.18,6.55Zm1,19.24A1.24,1.24,0,0,1,64.73,27L52.21,24.52a1.24,1.24,0,0,1-1-1.23V4.73a58.37,58.37,0,0,1,6.33.34,11.91,11.91,0,0,1,6.11,3.51,8.77,8.77,0,0,1,2.58,6.22Z"/><path class="cls-1" d="M49.64,34.43a7.15,7.15,0,0,0-1.4.14,6.68,6.68,0,0,0-1.67.55,7.3,7.3,0,0,0-2.92,2.5,7.22,7.22,0,1,0,6-3.19Zm0,11a3.74,3.74,0,0,1-3.07-5.87,3.77,3.77,0,0,1,3.07-1.62,3.75,3.75,0,0,1,0,7.49Z"/><path class="cls-1" d="M25,38.42a6.37,6.37,0,0,0-.46-.8,5.2,5.2,0,0,0-.35-.47,7.22,7.22,0,0,0-11.29,0c-.12.15-.24.31-.35.47a6.37,6.37,0,0,0-.46.8,7.22,7.22,0,1,0,13.68,3.24A7,7,0,0,0,25,38.42Zm-6.45,7a3.75,3.75,0,0,1-3.74-3.74,3.71,3.71,0,0,1,1.88-3.24,3.65,3.65,0,0,1,3.72,0,3.74,3.74,0,0,1-1.86,7Z"/><path class="cls-1" d="M8.71,41.65a9.87,9.87,0,0,1,.55-3.23H0v1.92a1.23,1.23,0,0,0,.43.93,1.55,1.55,0,0,0,1,.39H8.71Z"/><path class="cls-1" d="M44.7,32.89V0H0V35.35H11a9.79,9.79,0,0,1,15,0H41.8A9.8,9.8,0,0,1,44.7,32.89Z"/><path class="cls-1" d="M39.58,41.66h0a10.13,10.13,0,0,1,.53-3.23H27.77a9.61,9.61,0,0,1,.55,3.23H39.58Z"/></g></g></svg>