<svg xmlns="http://www.w3.org/2000/svg" viewBox="0 0 24.44 32.95"><g style="isolation:isolate"><g id="Capa_1" data-name="Capa 1"><g id="Capa_2" data-name="Capa 2"><path d="M22.6,13.62c-1.31,2.86-4.63,5.81-10.35,5.81S2.26,16.8,1.9,13.62C1.39,9.18,6,7.28,10.43,7.9c4.67.65,3.15-5.71,1.82-6.85C20.9,3,23.74,11.15,22.6,13.62Z" style="fill:#727176;stroke:#727176;stroke-miterlimit:10"/><path d="M11.33,10.24c-2.86.48-8.68,3.19.92,9.19-5.72,0-10-2.63-10.35-5.81C1.39,9.18,6,7.28,10.43,7.9c4.67.65,3.15-5.71,1.82-6.85C19.19,3,15.36,9.56,11.33,10.24Z" style="fill:#4b4b4c;stroke:#727176;stroke-miterlimit:10"/><path d="M21.27,32.46H3.54A2.59,2.59,0,0,1,.7,29.72V16.21h23V29.82C23.74,31.14,23.19,32.46,21.27,32.46Z" style="fill:#727176;stroke:#727176;stroke-miterlimit:10"/><path d="M22.1,27.07H10.37a1.72,1.72,0,0,1-1.88-1.83v-9H23.74V25.3A1.55,1.55,0,0,1,22.1,27.07Z" style="fill:#727176;stroke:#727176;stroke-miterlimit:10"/><path d="M8.53,29.68a2.59,2.59,0,0,1-2.84-2.75V16.21H.7V29.72a2.59,2.59,0,0,0,2.84,2.74H21.27c1.92,0,2.47-1.32,2.47-2.64v-.14Z" style="fill:#eae2e7;mix-blend-mode:multiply"/><rect x="1.39" y="13.43" width="21.66" height="2.78" style="fill:#4b4b4c;stroke:#727176;stroke-miterlimit:10"/><rect x="0.7" y="13.43" width="23.03" height="1.39" style="fill:#727176;stroke:#727176;stroke-miterlimit:10"/></g></g></g></svg>