<svg xmlns="http://www.w3.org/2000/svg" viewBox="0 0 154.62 154"><defs><style>.cls-1{fill:none;stroke:#f7c90d;stroke-miterlimit:10;stroke-width:7.25px;}.cls-2{fill:#5c7c26;}</style></defs><g id="Capa_2" data-name="Capa 2"><g id="Capa_6" data-name="Capa 6"><path class="cls-1" d="M55.12,138.57C25.91,133.71,3.62,108,3.62,77a62.64,62.64,0,0,1,18-44.06"/><path class="cls-2" d="M51.59,44.16a2.19,2.19,0,0,1-.67-.84L40.6,21.24a2.2,2.2,0,0,0-.48-.68L24.81,5.64a2.34,2.34,0,0,0-2.65-.41A2.42,2.42,0,0,0,21.07,8.5l2.8,5.36A2.33,2.33,0,0,0,25.15,15l4.21,1.45a2.28,2.28,0,0,1,1.33,1.2L34.63,26a2.42,2.42,0,0,1-.8,3l-.82.59c-.95.67.45,5.64.93,6.68l1.45,3.08c.12-.07.2-.19.33-.25A4,4,0,0,1,41.16,41a4.22,4.22,0,0,1-2,5.54c-.13.06-.27,0-.4.1l3.75,8c0,.05.07.07.09.12a2.94,2.94,0,0,1,.79-3.23l8.27-7.31Z"/><path class="cls-2" d="M96.63,61,81.81,139.48a5.08,5.08,0,0,0,4,5.94L92,146.6a5,5,0,0,0,5.91-4L112.74,64.1l-8-1.54Z"/><path class="cls-2" d="M120.14,24.8a5.09,5.09,0,0,0-4.1-5.4l-6.17-1.18a5,5,0,0,0-5.78,3.51l8,1.53Z"/><path class="cls-2" d="M120.17,24.8h0a.77.77,0,0,0,0,.15Z"/><path class="cls-2" d="M104.06,21.72v.16a.83.83,0,0,1,0-.15Z"/><path class="cls-2" d="M82.68,15.73c5.31-2.68,13.37-5.92,19-4.48a.74.74,0,0,1,.53.86l-.88,4.63A4.5,4.5,0,0,0,104.92,22l16.89,3.23a3.72,3.72,0,0,0,3.85-1.7,1.15,1.15,0,0,1,.14-.17c1.37-1.19,3.9-2.33,8.37-1.48a15.67,15.67,0,0,1,5.13,1.7c1.56.92,1.87,1.6,2,3.4.29,3,4.88,2.92,7.07,3.34A2.89,2.89,0,0,0,151.8,28l2.76-14.61a3.66,3.66,0,0,0-2.89-4.28l-4.06-.77c-2.56-.49-2.69,2-4,3.44-1.68,1.82-5.52,1-7.64.63s-4.39-1-5.91-2.6c-1.79-1.85-1.17-5.05-4.27-5.64l-18-3.89C105.45-.2,93.48-1.79,81,13.58A1.4,1.4,0,0,0,82.68,15.73Z"/><path class="cls-2" d="M112.11,23.26l-8-1.53a.83.83,0,0,0,0,.15c-.1,1.66-1.15,17.9-4.78,31.25l13.9,2.65c1.49-13.75,6.43-29.25,7-30.83a.77.77,0,0,1,0-.15Z"/><path class="cls-2" d="M104.09,21.73a21.36,21.36,0,0,1,16,3.07S109.93,30,104.09,21.73Z"/><path class="cls-2" d="M56.86,48l2.22,1.53a2.82,2.82,0,0,0,2.86.2l.37-.19a2.81,2.81,0,0,1,4.08,2.52l0,6.25a2.85,2.85,0,0,0,.67,1.84C71,64.71,90.59,88.25,97,107.23c7.12,21.1,5.34,32.91-.59,35.84s-8.26-19.63-18.36-39.27c-9.2-17.9-26.38-33.4-29.34-36a2.82,2.82,0,0,1-.69-.92L44.34,59a3,3,0,0,1,.73-3.44l8.28-7.32A2.85,2.85,0,0,1,56.86,48Z"/><path class="cls-2" d="M28.15,62.17l-.22,2.73a3,3,0,0,1-1.65,2.42l-.37.18a2.92,2.92,0,0,0-.63,4.84L30,76.27A2.8,2.8,0,0,1,31,78c1,5.94,6.64,36.38,17.05,53.38,11.58,18.91,21.67,24.88,27.61,22S65.89,134.4,57.28,114c-7.85-18.57-8.88-42-9-46A2.88,2.88,0,0,0,48,66.89L44.34,59a2.79,2.79,0,0,0-3.07-1.57l-10.74,2A3,3,0,0,0,28.15,62.17Z"/><path class="cls-2" d="M38.78,46.63a4,4,0,0,1-5-2,4.18,4.18,0,0,1,1.65-5.28l-1.45-3.08c-.48-1-3.38-5.27-4.49-4.93l-1,.29a2.29,2.29,0,0,1-2.76-1.22L21.79,22a2.32,2.32,0,0,1-.08-1.81l1.53-4.28a2.43,2.43,0,0,0,0-1.72L20.88,8.6a2.3,2.3,0,0,0-3.17-1.17A2.43,2.43,0,0,0,16.36,9.8l1.77,21.59a2.31,2.31,0,0,0,.21.81L28.66,54.28a2.27,2.27,0,0,1,.22,1.06v.12l10.73-2.05a2.79,2.79,0,0,1,3,1.39s0-.1,0-.15Z"/><path class="cls-2" d="M99.73,142.23l-19.47-3.75c-1.29-.25-2.18-1.17-2-2L95.49,58.39c.19-.83,1.33-1.3,2.56-1.06L113,60.19c1.23.24,2.12,1.1,2,2l-12.63,78.93C102.18,142,101,142.47,99.73,142.23Z"/></g></g></svg>