<svg xmlns="http://www.w3.org/2000/svg" viewBox="0 0 24.44 32.95"><defs><style>.cls-1{fill:none;stroke:#727176;stroke-miterlimit:10;}.cls-2{fill:#727176;}</style></defs><g id="Capa_2" data-name="Capa 2"><g id="Capa_6" data-name="Capa 6"><rect class="cls-1" x="0.5" y="0.5" width="23.44" height="31.95" rx="3.55"/><path class="cls-2" d="M11.1,16.4,6.13,25A1.28,1.28,0,0,0,7.24,27h10A1.29,1.29,0,0,0,18.32,25l-5-8.62A1.29,1.29,0,0,0,11.1,16.4Z"/><path class="cls-2" d="M13.09,17l5.47-9.47A1,1,0,0,0,17.69,6H6.75a1,1,0,0,0-.87,1.51L11.35,17A1,1,0,0,0,13.09,17Z"/></g></g></svg>