<svg xmlns="http://www.w3.org/2000/svg" viewBox="0 0 181.57 85.59"><defs><style>.cls-1,.cls-2,.cls-5{fill:#a8a8a8;}.cls-2,.cls-3{stroke:#fff;stroke-width:1.76px;}.cls-2,.cls-3,.cls-5{stroke-miterlimit:10;}.cls-3,.cls-4{fill:#fff;}.cls-5{stroke:#a8a8a8;stroke-width:1.1px;}</style></defs><g id="Capa_2" data-name="Capa 2"><g id="Capa_6" data-name="Capa 6"><rect class="cls-1" width="181.57" height="85.59"/><rect class="cls-2" x="9.38" y="18.46" width="26.95" height="29.1"/><rect class="cls-2" x="36.33" y="18.46" width="26.95" height="29.1"/><rect class="cls-2" x="63.28" y="18.46" width="26.95" height="29.1"/><rect class="cls-2" x="90.23" y="18.46" width="26.95" height="29.1"/><rect class="cls-3" x="117.17" y="18.46" width="26.95" height="29.1"/><rect class="cls-3" x="143.83" y="18.46" width="26.95" height="29.1"/><path class="cls-4" d="M26.2,33.83c0,5.18-1.92,8-5.29,8-3,0-5-2.79-5-7.83s2.2-7.92,5.29-7.92S26.2,29,26.2,33.83Zm-8.27.23c0,4,1.22,6.22,3.09,6.22,2.11,0,3.12-2.47,3.12-6.36s-1-6.21-3.09-6.21C19.24,27.71,17.93,29.92,17.93,34.06Z"/><path class="cls-4" d="M54.45,33.83c0,5.18-1.93,8-5.3,8-3,0-5-2.79-5-7.83s2.2-7.92,5.3-7.92S54.45,29,54.45,33.83Zm-8.28.23c0,4,1.22,6.22,3.1,6.22,2.1,0,3.11-2.47,3.11-6.36s-1-6.21-3.09-6.21C47.48,27.71,46.17,29.92,46.17,34.06Z"/><path class="cls-4" d="M81.8,33.83c0,5.18-1.92,8-5.3,8-3,0-5-2.79-5-7.83s2.21-7.92,5.3-7.92S81.8,29,81.8,33.83Zm-8.27.23c0,4,1.22,6.22,3.09,6.22,2.11,0,3.12-2.47,3.12-6.36s-1-6.21-3.1-6.21C74.84,27.71,73.53,29.92,73.53,34.06Z"/><path class="cls-4" d="M107.79,33.83c0,5.18-1.92,8-5.3,8-3,0-5-2.79-5-7.83s2.21-7.92,5.3-7.92S107.79,29,107.79,33.83Zm-8.28.23c0,4,1.22,6.22,3.1,6.22,2.11,0,3.12-2.47,3.12-6.36s-1-6.21-3.1-6.21C100.83,27.71,99.51,29.92,99.51,34.06Z"/><path class="cls-1" d="M125,41.61V40.35l1.62-1.57c3.89-3.71,5.64-5.68,5.67-8a2.72,2.72,0,0,0-3-3,5.15,5.15,0,0,0-3.23,1.29l-.66-1.45a6.72,6.72,0,0,1,4.32-1.55,4.28,4.28,0,0,1,4.66,4.43c0,2.81-2,5.08-5.25,8.18l-1.22,1.12v0h6.85v1.71Z"/><path class="cls-4" d="M28.48,59.53v4h4.61v-4h1.24v9.54H33.09V64.6H28.48v4.47H27.25V59.53Z"/><path class="cls-4" d="M44.62,64.2c0,3.28-2,5-4.43,5s-4.29-2-4.29-4.83c0-3,1.88-5,4.43-5S44.62,61.37,44.62,64.2Zm-7.4.16c0,2,1.1,3.86,3,3.86s3.05-1.8,3.05-4c0-1.9-1-3.88-3-3.88S37.22,62.26,37.22,64.36Z"/><path class="cls-4" d="M47.44,59.53v5.65c0,2.13,1,3,2.22,3,1.42,0,2.32-.93,2.32-3V59.53h1.25v5.56c0,2.93-1.54,4.13-3.61,4.13s-3.42-1.11-3.42-4.07V59.53Z"/><path class="cls-4" d="M55.36,59.66a12.52,12.52,0,0,1,2.36-.2,3.88,3.88,0,0,1,2.76.78,2.39,2.39,0,0,1,.75,1.81,2.5,2.5,0,0,1-1.8,2.43v0a2.34,2.34,0,0,1,1.4,1.92,15.84,15.84,0,0,0,.74,2.62H60.3a12,12,0,0,1-.64-2.28c-.28-1.32-.79-1.81-1.91-1.85H56.59v4.13H55.36ZM56.59,64h1.26c1.32,0,2.15-.72,2.15-1.81s-.89-1.77-2.19-1.78a5.51,5.51,0,0,0-1.22.11Z"/><path class="cls-4" d="M62.8,67.57a4.36,4.36,0,0,0,2.21.62c1.26,0,2-.66,2-1.63s-.51-1.4-1.8-1.89c-1.55-.55-2.51-1.36-2.51-2.7s1.23-2.59,3.08-2.59a4.36,4.36,0,0,1,2.11.46l-.34,1a3.8,3.8,0,0,0-1.81-.45c-1.3,0-1.8.77-1.8,1.43,0,.89.58,1.33,1.9,1.83,1.61.63,2.43,1.4,2.43,2.81s-1.09,2.74-3.34,2.74a4.91,4.91,0,0,1-2.43-.61Z"/><path class="cls-4" d="M152.8,64h0l-1.2.64-.17-.71,1.49-.8h.79V70h-.89Z"/><path class="cls-4" d="M155.71,70.39l2.94-7.65h.72l-3,7.65Z"/><path class="cls-4" d="M161.83,64h0l-1.2.64-.17-.71,1.49-.8h.79V70h-.89Z"/><path class="cls-4" d="M169.78,66.46c0,2.34-.86,3.62-2.38,3.62-1.34,0-2.25-1.25-2.27-3.52s1-3.56,2.38-3.56S169.78,64.28,169.78,66.46Zm-3.72.11c0,1.78.55,2.79,1.39,2.79s1.4-1.1,1.4-2.85-.43-2.8-1.39-2.8S166.06,64.7,166.06,66.57Z"/><path class="cls-1" d="M161.47,28.11h-5.81L155.07,32a7.63,7.63,0,0,1,1.24-.1,6.44,6.44,0,0,1,3.28.82,4.33,4.33,0,0,1,2.18,3.92c0,3-2.36,5.2-5.67,5.2a7.48,7.48,0,0,1-3.8-.94l.52-1.57a6.73,6.73,0,0,0,3.26.85,3.37,3.37,0,0,0,3.61-3.31c0-2-1.34-3.37-4.39-3.37a16.12,16.12,0,0,0-2.11.16l1-7.31h7.29Z"/><rect class="cls-5" x="9.4" y="56.94" width="11.49" height="15.66"/><path class="cls-4" d="M14.44,64.72,11.3,70.16A.82.82,0,0,0,12,71.38h6.27A.82.82,0,0,0,19,70.16l-3.14-5.44A.82.82,0,0,0,14.44,64.72Z"/><path class="cls-4" d="M15.69,65.09l3.45-6a.63.63,0,0,0-.55-.95H11.7a.63.63,0,0,0-.55.95l3.45,6A.63.63,0,0,0,15.69,65.09Z"/></g></g></svg>