<svg id="Capa_1" data-name="Capa 1" xmlns="http://www.w3.org/2000/svg" viewBox="0 0 181.6 85.6"><defs><style>.cls-1,.cls-2,.cls-6{fill:#a8a8a8;}.cls-2,.cls-3{stroke:#fff;stroke-width:1.76px;}.cls-2,.cls-3,.cls-6{stroke-miterlimit:10;}.cls-3,.cls-4,.cls-7{fill:#fff;}.cls-5{fill:none;}.cls-6{stroke:#a8a8a8;stroke-width:1.1px;}.cls-7{isolation:isolate;font-size:14px;font-family:ArialMT, Arial;}</style></defs><g id="Capa_2" data-name="Capa 2"><g id="Capa_6" data-name="Capa 6"><rect class="cls-1" width="181.6" height="85.6"/><rect class="cls-2" x="9.4" y="18.5" width="27" height="29.1"/><rect class="cls-2" x="36.3" y="18.5" width="27" height="29.1"/><rect class="cls-2" x="63.3" y="18.5" width="26.9" height="29.1"/><rect class="cls-2" x="90.2" y="18.5" width="27" height="29.1"/><rect class="cls-3" x="117.2" y="18.5" width="26.9" height="29.1"/><rect class="cls-3" x="143.8" y="18.5" width="26.9" height="29.1"/><path class="cls-4" d="M26.2,33.8c0,5.2-1.9,8-5.3,8-3,0-5-2.8-5-7.8s2.2-7.9,5.3-7.9S26.2,29,26.2,33.8Zm-8.3.3c0,4,1.2,6.2,3.1,6.2,2.1,0,3.1-2.5,3.1-6.4s-1-6.2-3.1-6.2C19.2,27.7,17.9,29.9,17.9,34.1Z"/><path class="cls-4" d="M54.5,33.8c0,5.2-1.9,8-5.3,8-3,0-5-2.8-5-7.8s2.2-7.9,5.3-7.9S54.5,29,54.5,33.8Zm-8.3.3c0,4,1.2,6.2,3.1,6.2,2.1,0,3.1-2.5,3.1-6.4s-1-6.2-3.1-6.2C47.5,27.7,46.2,29.9,46.2,34.1Z"/><path class="cls-4" d="M81.8,33.8c0,5.2-1.9,8-5.3,8-3,0-5-2.8-5-7.8s2.2-7.9,5.3-7.9S81.8,29,81.8,33.8Zm-8.3.3c0,4,1.2,6.2,3.1,6.2,2.1,0,3.1-2.5,3.1-6.4s-1-6.2-3.1-6.2C74.8,27.7,73.5,29.9,73.5,34.1Z"/><path class="cls-4" d="M107.8,33.8c0,5.2-1.9,8-5.3,8-3,0-5-2.8-5-7.8s2.2-7.9,5.3-7.9S107.8,29,107.8,33.8Zm-8.3.3c0,4,1.2,6.2,3.1,6.2,2.1,0,3.1-2.5,3.1-6.4s-1-6.2-3.1-6.2C100.8,27.7,99.5,29.9,99.5,34.1Z"/><path class="cls-1" d="M125,41.6V40.3l1.6-1.6c3.9-3.7,5.6-5.7,5.7-8a2.7,2.7,0,0,0-2.4-3h-.6a4.82,4.82,0,0,0-3.2,1.3l-.7-1.5a6.13,6.13,0,0,1,4.3-1.5,4.2,4.2,0,0,1,4.6,3.9v.6c0,2.8-2,5.1-5.2,8.2l-1.2,1.1h6.9v1.7Z"/><path class="cls-5" d="M28.5,59.5v4h4.6v-4h1.2V69H33.1V64.5H28.5V69H27.3V59.5Z"/><path class="cls-4" d="M152.8,64h0l-1.2.6-.2-.7,1.5-.8h.8V70h-.9Z"/><path class="cls-4" d="M155.7,70.4l2.9-7.7h.7l-3,7.7Z"/><path class="cls-4" d="M161.8,64h0l-1.2.6-.2-.7,1.5-.8h.8V70h-.9Z"/><path class="cls-4" d="M169.8,66.5c0,2.3-.9,3.6-2.4,3.6-1.3,0-2.2-1.2-2.3-3.5s1-3.6,2.4-3.6S169.8,64.3,169.8,66.5Zm-3.7.1c0,1.8.6,2.8,1.4,2.8s1.4-1.1,1.4-2.8-.4-2.8-1.4-2.8S166.1,64.7,166.1,66.6Z"/><path class="cls-1" d="M161.5,28.1h-5.8l-.6,3.9a4.87,4.87,0,0,1,1.2-.1,7.64,7.64,0,0,1,3.3.8,4.45,4.45,0,0,1,2.2,3.9c0,3-2.4,5.2-5.7,5.2a8.49,8.49,0,0,1-3.8-.9l.5-1.6a6.22,6.22,0,0,0,3.3.8,3.37,3.37,0,0,0,3.6-3.1v-.2c0-2-1.3-3.4-4.4-3.4a14.92,14.92,0,0,0-2.1.2l1-7.3h7.3Z"/><rect class="cls-6" x="9.4" y="56.9" width="11.5" height="15.7"/><path class="cls-4" d="M14.4,64.7l-3.1,5.4a.8.8,0,0,0,.3,1.1c.1.1.2.1.4.1h6.3a.79.79,0,0,0,.8-.8.6.6,0,0,0-.1-.4l-3.1-5.4a.8.8,0,0,0-1.1-.3A1.38,1.38,0,0,0,14.4,64.7Z"/><path class="cls-4" d="M15.7,65.1l3.4-6a.65.65,0,0,0-.2-.9.37.37,0,0,0-.3-.1H11.7a.65.65,0,0,0-.6.6.37.37,0,0,0,.1.3l3.4,6a.65.65,0,0,0,.9.2C15.6,65.3,15.6,65.2,15.7,65.1Z"/></g><text class="cls-7" transform="translate(27.1 69.3)">HORAS</text></g></svg>