<svg xmlns="http://www.w3.org/2000/svg" viewBox="0 0 24.44 32.95"><defs><style>.cls-1{fill:none;}.cls-1,.cls-2{stroke:#727176;stroke-miterlimit:10;}.cls-2{fill:#727176;}</style></defs><g id="Capa_2" data-name="Capa 2"><g id="Capa_6" data-name="Capa 6"><rect class="cls-1" x="0.5" y="0.5" width="23.44" height="31.95" rx="3.55"/><path class="cls-2" d="M3.35,11.66H4.59v4.65h0c.25-.38.51-.72.76-1l2.94-3.61H9.89L6.4,15.75l3.76,5.55H8.69L5.51,16.56l-.92,1.06V21.3H3.35Z"/><path class="cls-2" d="M11.21,16.25c0-.72,0-1.3-.06-1.88h1.1l.06,1.12h0a2.38,2.38,0,0,1,2.17-1.27,2,2,0,0,1,2,1.38h0a3,3,0,0,1,.78-.9,2.37,2.37,0,0,1,1.53-.48c.91,0,2.27.6,2.27,3V21.3H19.86V17.38c0-1.33-.48-2.13-1.5-2.13a1.64,1.64,0,0,0-1.49,1.14,2,2,0,0,0-.1.63V21.3H15.54V17.15c0-1.1-.49-1.9-1.44-1.9a1.72,1.72,0,0,0-1.56,1.26,1.54,1.54,0,0,0-.1.61V21.3H11.21Z"/></g></g></svg>