<svg xmlns="http://www.w3.org/2000/svg" xmlns:xlink="http://www.w3.org/1999/xlink" viewBox="0 0 183.47 86.69"><defs><style>.cls-1{fill:#a8a8a8;}.cls-2{clip-path:url(#clip-path);}.cls-3,.cls-5,.cls-6{fill:none;stroke-miterlimit:10;}.cls-3,.cls-5{stroke:#fff;}.cls-3{stroke-width:5px;}.cls-4{fill:#fff;}.cls-5{stroke-width:1.76px;}.cls-6{stroke:#a8a8a8;stroke-width:0.75px;}</style><clipPath id="clip-path" transform="translate(1.11 0.35)"><polygon class="cls-1" points="181.99 85.97 0.38 85.97 0.38 36.86 0.38 35.75 0.38 0.38 181.99 0.38 181.99 85.97"/></clipPath></defs><g id="Capa_2" data-name="Capa 2"><g id="Capa_6" data-name="Capa 6"><polygon class="cls-1" points="183.1 86.32 1.48 86.32 1.48 37.21 1.48 36.1 1.48 0.73 183.1 0.73 183.1 86.32"/><g class="cls-2"><path class="cls-3" d="M.77,36.79C1.5,36,2.24,35.14,3,34.34A101.32,101.32,0,0,1,77.19,2.15a101.48,101.48,0,0,1,99.94,83.22" transform="translate(1.11 0.35)"/><path class="cls-4" d="M20.93,46.1h0l-1.49.8L19.2,46l1.87-1h1v8.54H20.93Z" transform="translate(1.11 0.35)"/><path class="cls-4" d="M30.84,49.2c0,2.9-1.07,4.5-3,4.5-1.67,0-2.8-1.56-2.82-4.38s1.23-4.45,3-4.45S30.84,46.48,30.84,49.2Zm-4.64.13c0,2.22.69,3.48,1.74,3.48s1.75-1.38,1.75-3.56-.54-3.48-1.74-3.48C26.94,45.77,26.2,47,26.2,49.33Z" transform="translate(1.11 0.35)"/><path class="cls-4" d="M37.59,49.2c0,2.9-1.08,4.5-3,4.5-1.67,0-2.8-1.56-2.83-4.38s1.24-4.45,3-4.45S37.59,46.48,37.59,49.2ZM33,49.33c0,2.22.68,3.48,1.73,3.48s1.75-1.38,1.75-3.56-.54-3.48-1.74-3.48C33.68,45.77,33,47,33,49.33Z" transform="translate(1.11 0.35)"/><path class="cls-4" d="M38.49,29h0L37,29.78l-.22-.9,1.9-1h1v8.69H38.49Z" transform="translate(1.11 0.35)"/><path class="cls-4" d="M42.81,36.56v-.72l.92-.89C46,32.83,47,31.71,47,30.4a1.55,1.55,0,0,0-1.73-1.7,3,3,0,0,0-1.84.73L43,28.6a3.8,3.8,0,0,1,2.46-.88,2.45,2.45,0,0,1,2.67,2.53c0,1.61-1.17,2.9-3,4.67l-.7.64v0h3.91v1Z" transform="translate(1.11 0.35)"/><path class="cls-4" d="M55.46,32.12c0,3-1.1,4.59-3,4.59-1.7,0-2.85-1.59-2.88-4.47s1.26-4.52,3-4.52S55.46,29.35,55.46,32.12Zm-4.73.14c0,2.26.7,3.54,1.77,3.54s1.78-1.4,1.78-3.62-.55-3.55-1.77-3.55C51.48,28.63,50.73,29.89,50.73,32.26Z" transform="translate(1.11 0.35)"/><path class="cls-4" d="M66.63,20.9h0l-1.51.82-.23-.9,1.9-1h1V28.5H66.63Z" transform="translate(1.11 0.35)"/><path class="cls-4" d="M74.58,28.5V26.14h-4v-.78l3.88-5.55h1.27v5.4h1.22v.93H75.69V28.5Zm0-3.29v-2.9c0-.46,0-.91,0-1.37h0c-.27.51-.48.89-.72,1.29l-2.13,3v0Z" transform="translate(1.11 0.35)"/><path class="cls-4" d="M83.59,24.06c0,3-1.1,4.59-3,4.59-1.7,0-2.85-1.59-2.88-4.47s1.26-4.52,3-4.52S83.59,21.29,83.59,24.06Zm-4.72.13c0,2.27.69,3.55,1.76,3.55s1.78-1.4,1.78-3.63-.55-3.54-1.76-3.54C79.62,20.57,78.87,21.83,78.87,24.19Z" transform="translate(1.11 0.35)"/><path class="cls-4" d="M98.64,29h0l-1.51.81-.23-.9,1.9-1h1v8.7H98.64Z" transform="translate(1.11 0.35)"/><path class="cls-4" d="M107.92,28.7a4.1,4.1,0,0,0-.89.05,3.54,3.54,0,0,0-3,3.09h0a2.65,2.65,0,0,1,4.72,1.81,2.9,2.9,0,0,1-2.89,3.06c-1.86,0-3.07-1.44-3.07-3.7a5.43,5.43,0,0,1,1.47-3.92,4.69,4.69,0,0,1,2.78-1.29,6.24,6.24,0,0,1,.86-.07Zm-.34,5a1.77,1.77,0,0,0-1.79-2,1.94,1.94,0,0,0-1.69,1.07,1,1,0,0,0-.13.52c0,1.44.68,2.49,1.91,2.49C106.9,35.8,107.58,35,107.58,33.72Z" transform="translate(1.11 0.35)"/><path class="cls-4" d="M115.6,32.12c0,3-1.09,4.59-3,4.59-1.7,0-2.85-1.59-2.88-4.47s1.26-4.52,3-4.52S115.6,29.35,115.6,32.12Zm-4.72.14c0,2.26.69,3.54,1.76,3.54s1.79-1.4,1.79-3.62-.55-3.55-1.77-3.55C111.63,28.63,110.88,29.89,110.88,32.26Z" transform="translate(1.11 0.35)"/><path class="cls-4" d="M120,46h0l-1.51.82-.23-.9,1.9-1h1v8.69H120Z" transform="translate(1.11 0.35)"/><path class="cls-4" d="M124.18,51.43a2.48,2.48,0,0,1,1.73-2.33v0a2.16,2.16,0,0,1-1.38-2,2.43,2.43,0,0,1,2.69-2.31,2.25,2.25,0,0,1,2.53,2.14,2.21,2.21,0,0,1-1.43,2v0a2.41,2.41,0,0,1,1.75,2.25,2.68,2.68,0,0,1-3,2.53C125.28,53.78,124.18,52.7,124.18,51.43Zm4.69-.06c0-1.06-.74-1.56-1.92-1.9a1.9,1.9,0,0,0-1.56,1.8,1.6,1.6,0,0,0,1.74,1.65A1.57,1.57,0,0,0,128.87,51.37ZM125.63,47c0,.87.65,1.34,1.66,1.61a1.71,1.71,0,0,0,1.32-1.58,1.35,1.35,0,0,0-1.47-1.42A1.38,1.38,0,0,0,125.63,47Z" transform="translate(1.11 0.35)"/><path class="cls-4" d="M136.94,49.19c0,3-1.1,4.59-3,4.59-1.7,0-2.85-1.59-2.88-4.47s1.26-4.52,3-4.52S136.94,46.42,136.94,49.19Zm-4.72.13c0,2.27.69,3.55,1.76,3.55s1.78-1.4,1.78-3.63-.54-3.54-1.76-3.54C133,45.7,132.22,47,132.22,49.32Z" transform="translate(1.11 0.35)"/><path class="cls-4" d="M135,78.64v-.72l.93-.9c2.22-2.11,3.22-3.23,3.24-4.55a1.56,1.56,0,0,0-1.73-1.7,3,3,0,0,0-1.85.74l-.37-.83a3.8,3.8,0,0,1,2.46-.88,2.45,2.45,0,0,1,2.67,2.53c0,1.6-1.17,2.9-3,4.67l-.7.64v0h3.91v1Z" transform="translate(1.11 0.35)"/><path class="cls-4" d="M147.64,74.2c0,3-1.1,4.59-3,4.59-1.7,0-2.85-1.59-2.88-4.47s1.26-4.52,3-4.52S147.64,71.43,147.64,74.2Zm-4.73.13c0,2.27.7,3.55,1.77,3.55s1.78-1.4,1.78-3.63-.55-3.54-1.77-3.54C143.66,70.71,142.91,72,142.91,74.33Z" transform="translate(1.11 0.35)"/><path class="cls-4" d="M154.5,74.2c0,3-1.09,4.59-3,4.59-1.7,0-2.85-1.59-2.88-4.47s1.26-4.52,3-4.52S154.5,71.43,154.5,74.2Zm-4.72.13c0,2.27.7,3.55,1.77,3.55s1.78-1.4,1.78-3.63-.55-3.54-1.77-3.54C150.53,70.71,149.78,72,149.78,74.33Z" transform="translate(1.11 0.35)"/><line class="cls-5" x1="125.58" y1="34.03" x2="136.11" y2="18.44"/><line class="cls-3" x1="109.16" y1="25.59" x2="116.04" y2="7.88"/><line class="cls-3" x1="45.75" y1="25.59" x2="38.55" y2="8.76"/><line class="cls-5" x1="148.77" y1="57.72" x2="164.59" y2="47.32"/><line class="cls-5" x1="62.49" y1="20.92" x2="58.99" y2="2.43"/><line class="cls-5" x1="31.68" y1="33.09" x2="21.61" y2="17.52"/><line class="cls-5" x1="93.34" y1="20.81" x2="96.66" y2="2.43"/><line class="cls-3" x1="137.93" y1="44.45" x2="151.33" y2="31.06"/><line class="cls-3" x1="18.39" y1="44.18" x2="5.06" y2="31.05"/><line class="cls-3" x1="78.36" y1="19.07" x2="78.26" y2="0.58"/><line class="cls-3" x1="156.95" y1="71.93" x2="173.7" y2="65.09"/><path class="cls-4" d="M73.67,48.63h1.15V52.9h0c.23-.34.47-.65.69-.94l2.71-3.33h1.42l-3.21,3.76,3.46,5.1H78.57l-2.91-4.35-.84,1v3.38H73.67Z" transform="translate(1.11 0.35)"/><path class="cls-4" d="M80.89,52.85c0-.66,0-1.19,0-1.72h1l.05,1h0a2.21,2.21,0,0,1,2-1.16,1.89,1.89,0,0,1,1.8,1.27h0a2.68,2.68,0,0,1,.71-.83A2.2,2.2,0,0,1,87.88,51c.84,0,2.09.55,2.09,2.75v3.75H88.84v-3.6c0-1.22-.45-2-1.38-2a1.51,1.51,0,0,0-1.37,1,2,2,0,0,0-.09.58v3.93H84.87V53.68c0-1-.45-1.75-1.33-1.75a1.59,1.59,0,0,0-1.43,1.16,1.73,1.73,0,0,0-.09.56v3.84H80.89Z" transform="translate(1.11 0.35)"/><rect class="cls-4" x="36.02" y="61.39" width="92.03" height="12.58"/><path class="cls-1" d="M47.76,64.42h0l-1.2.65-.18-.71,1.5-.81h.8v6.9h-.9Z" transform="translate(1.11 0.35)"/><path class="cls-1" d="M56.71,70.45V68.57h-3.2V68l3.07-4.41h1v4.29h1v.73h-1v1.88Zm0-2.61v-2.3q0-.54,0-1.08h0c-.21.4-.38.7-.57,1l-1.69,2.35v0Z" transform="translate(1.11 0.35)"/><path class="cls-1" d="M64,64.42h0l-1.19.65-.19-.71,1.51-.81h.8v6.9H64Z" transform="translate(1.11 0.35)"/><path class="cls-1" d="M74,64.21a3.56,3.56,0,0,0-.7,0,2.81,2.81,0,0,0-2.4,2.45h0a2.11,2.11,0,0,1,3.75,1.44,2.3,2.3,0,0,1-2.29,2.42c-1.48,0-2.44-1.14-2.44-2.93a4.33,4.33,0,0,1,1.16-3.11,3.82,3.82,0,0,1,2.21-1,4.8,4.8,0,0,1,.68,0Zm-.27,4a1.4,1.4,0,0,0-1.42-1.58,1.52,1.52,0,0,0-1.33.85.71.71,0,0,0-.11.41c0,1.14.54,2,1.52,2C73.14,69.84,73.68,69.18,73.68,68.19Z" transform="translate(1.11 0.35)"/><path class="cls-1" d="M87.48,63.55v.62l-3,6.28h-1l3-6.1v0H83.13v-.78Z" transform="translate(1.11 0.35)"/><path class="cls-1" d="M96.22,69.38a3.14,3.14,0,0,0,1.53.43c1.2,0,1.57-.76,1.56-1.33,0-1-.88-1.38-1.78-1.38H97v-.7h.52c.68,0,1.54-.35,1.54-1.17,0-.55-.35-1-1.21-1a2.57,2.57,0,0,0-1.38.46L96.24,64a3.23,3.23,0,0,1,1.8-.53c1.36,0,2,.8,2,1.64a1.7,1.7,0,0,1-1.27,1.62v0a1.79,1.79,0,0,1,1.54,1.77c0,1.1-.86,2.06-2.52,2.06A3.54,3.54,0,0,1,96,70.1Z" transform="translate(1.11 0.35)"/><path class="cls-1" d="M111.88,70.45V68.57h-3.2V68l3.07-4.41h1v4.29h1v.73h-1v1.88Zm0-2.61v-2.3q0-.54,0-1.08h0c-.21.4-.38.7-.57,1l-1.69,2.35v0Z" transform="translate(1.11 0.35)"/></g><rect class="cls-6" x="1.48" y="0.73" width="181.62" height="85.59"/></g></g></svg>