<svg xmlns="http://www.w3.org/2000/svg" viewBox="0 0 31.98 35.58"><defs><style>.cls-1{fill:#727176;}</style></defs><g id="Capa_2" data-name="Capa 2"><g id="Capa_6" data-name="Capa 6"><rect class="cls-1" x="12.89" y="29.61" width="17.33" height="1.19"/><rect class="cls-1" x="11.13" y="30.85" width="20.85" height="4.73"/><path class="cls-1" d="M29.18,0H13.93a2.76,2.76,0,0,0-2.8,2.73V5.1H10A1.27,1.27,0,0,0,8.72,6.36V6.9A2.06,2.06,0,0,0,7.49,8.76v1.31C7.49,14,5.13,17.39,3,20.41,1.53,22.61.22,24.5,0,26.27A4.73,4.73,0,0,0,1.2,30.05a4.52,4.52,0,0,0,3.38,1.41c2.72,0,4.55-2.06,4.55-5.11V13h2v15H32V2.73A2.77,2.77,0,0,0,29.18,0ZM7.49,26.35c0,1.7-.76,3.52-2.91,3.52A2.87,2.87,0,0,1,2.42,29a3.18,3.18,0,0,1-.76-2.56C1.8,25.06,3,23.32,4.4,21.3a41.81,41.81,0,0,0,3.09-5ZM28.71,10.19a1.89,1.89,0,0,1-1.92,1.87H16.32a1.89,1.89,0,0,1-1.92-1.87V4.8a1.89,1.89,0,0,1,1.92-1.87H26.79A1.89,1.89,0,0,1,28.71,4.8Z"/><path class="cls-1" d="M11.13,5.1H10A1.27,1.27,0,0,0,8.72,6.36V6.9A2.06,2.06,0,0,0,7.49,8.76v1.31C7.49,14,5.13,17.39,3,20.41,1.53,22.61.22,24.5,0,26.27A4.73,4.73,0,0,0,1.2,30.05a4.52,4.52,0,0,0,3.38,1.41c2.72,0,4.55-2.06,4.55-5.11V13h2ZM7.49,26.35c0,1.7-.76,3.52-2.91,3.52A2.87,2.87,0,0,1,2.42,29a3.18,3.18,0,0,1-.76-2.56C1.8,25.06,3,23.32,4.4,21.3a41.81,41.81,0,0,0,3.09-5Z"/></g></g></svg>