<svg xmlns="http://www.w3.org/2000/svg" viewBox="0 0 24.44 32.95"><g style="isolation:isolate"><g id="Capa_1" data-name="Capa 1"><g id="Capa_5" data-name="Capa 5"><rect x="8.58" y="3.36" width="4.94" height="1.32" style="fill:#727176"/><path d="M12.75,5.36A3.74,3.74,0,0,0,11,6.55l-.18.22s0,0,0,0a2.35,2.35,0,0,0-.19.25l-.19.26-.18.28a13.65,13.65,0,0,0-.68,1.27l-.19.43v0a3.25,3.25,0,0,0-.18.43c-.16.4-.32.84-.47,1.29-.09.28-.18.57-.26.87h0c-.12.42-.23.85-.34,1.29s-.14.58-.2.88-.19.85-.27,1.29L7.54,16a1.38,1.38,0,0,0,0,.2q-.09.45-.15.9l-.06.4-.06.43-.06.44c-.07.47-.12.95-.17,1.44a73.33,73.33,0,0,0-.42,9c0,.83,0,1.61,0,2.35,0,.09,0,.18,0,.27a1.73,1.73,0,0,0,.56,1.29H5.7a1.5,1.5,0,0,1-1.32-1.59c0-.81,0-1.68,0-2.61a74.2,74.2,0,0,1,.54-10.1L5,18,5,17.51c.06-.44.13-.88.2-1.3h0l0-.19.12-.68c.08-.44.17-.87.26-1.29l.06-.26c0-.21.09-.42.14-.62h0c.1-.43.21-.84.32-1.24a.43.43,0,0,1,0,0c.08-.3.17-.59.26-.87q.21-.67.45-1.29c.11-.31.23-.6.35-.88a14.09,14.09,0,0,1,.65-1.29,7.57,7.57,0,0,1,.67-1C9.71,5.06,11.11,4.53,12.75,5.36Z" style="fill:#898988"/><path d="M14,6.15V4.65a.25.25,0,0,0-.25-.24H8.41a.25.25,0,0,0-.25.24V6.31a.25.25,0,0,0,.25.24H11l-.19.22s0,0,0,0L10.63,7l-.19.26-.18.28-.57,0H9.55v0l-.09,0H7.62a.24.24,0,0,0-.22.12c-.14.26-.29.53-.42.82a.24.24,0,0,0,.22.35H9.59c-.07.14-.13.28-.2.43v0c-.07.14-.12.28-.18.43H6.64a.24.24,0,0,0-.23.15c-.1.27-.2.54-.29.82a.25.25,0,0,0,.24.32H8.75q-.15.42-.27.87H6a.26.26,0,0,0-.24.18q-.11.39-.21.81a.25.25,0,0,0,.24.3H8.13c-.07.29-.14.58-.2.88H5.43a.24.24,0,0,0-.24.19c-.05.27-.11.53-.16.81a.25.25,0,0,0,.24.29H7.66L7.54,16a1.38,1.38,0,0,0,0,.2H5a.25.25,0,0,0-.24.21c0,.26-.08.53-.13.8a.26.26,0,0,0,.25.29H7.3l-.06.43-.06.44H4.72a.25.25,0,0,0-.24.21l-.09.81v0a74.71,74.71,0,0,0-.43,9c0,.93,0,1.8,0,2.61a1.89,1.89,0,0,0,.45,1.18l.15.15a1.12,1.12,0,0,0,.72.26h15a1.33,1.33,0,0,0,1.22-1.05,11,11,0,0,0,.32-3.15v-.25C21.88,22.74,19.19,10.28,14,6.15Zm0,2.64a.5.5,0,0,1,.89-.32h0c.21.28.12.79.32,1.11s.67.45.86.77,0,.81.19,1.14.63.52.78.86,0,.8.11,1.15.59.55.72.9-.08.81,0,1.16.56.59.67.94-.13.8,0,1.16l.05.12a.51.51,0,0,1-.43.76H14.45a.51.51,0,0,1-.51-.5Z" style="fill:#727176"/><path d="M13.76.78V3.66H8.35V.78A.48.48,0,0,1,8.83.3h4.44a.38.38,0,0,1,.26.08.31.31,0,0,1,.15.15A.44.44,0,0,1,13.76.78Z" style="fill:#727176"/><path d="M13.9,2.8v.86H8.21V2.8h.14V1.19a.34.34,0,1,1,.68,0V2.8h.26V1.19A.35.35,0,0,1,9.64.85a.34.34,0,0,1,.34.33V2.8h.26V1.19a.34.34,0,1,1,.68,0V2.8h.26V1.19a.35.35,0,0,1,.69,0V2.8h.26V1.19a.34.34,0,1,1,.68,0V2.8h.27V1.19a.34.34,0,0,1,.34-.34.34.34,0,0,1,.34.34V2.8Z" style="fill:#727176"/><path d="M7,19.82A1.31,1.31,0,0,0,5.73,21c-.16,2.08-.23,4.23-.21,6.36,0,.83,0,1.6,0,2.32s.5,1.42,1.09,1.42H19a1.13,1.13,0,0,0,1-.94,9.81,9.81,0,0,0,.27-2.8,32.92,32.92,0,0,0-.67-6.51,1.29,1.29,0,0,0-1.27-1.05Z" style="fill:#fff"/><path d="M16.47,25.63l1-.35-.08-.66-1-.11L16.12,24l.69-.76-.38-.54-.95.37-.45-.4.26-1-.59-.31L14,22.1,13.45,22l-.24-1h-.65l-.24,1-.58.14-.67-.78-.59.31.26,1-.45.4-.95-.37L9,23.19l.69.76-.21.56-1,.11-.08.66,1,.35.08.6-.86.57.24.61,1-.13.35.49-.49.9.49.44.84-.59.53.28v1l.64.16.46-.91h.61l.46.91.64-.16v-1l.53-.28.84.59.49-.44-.49-.9.35-.49,1,.13.23-.61-.85-.57Zm-3.59,1.45a1.61,1.61,0,0,1-.4-3.16v-.39h.81v.39a1.61,1.61,0,0,1-.41,3.16Z" style="fill:#727176"/><path d="M12.89,28.19a2.73,2.73,0,1,1,2.72-2.72A2.72,2.72,0,0,1,12.89,28.19Zm0-5.27a2.55,2.55,0,1,0,2.55,2.55A2.56,2.56,0,0,0,12.89,22.92Z" style="fill:#fff"/><path d="M21.81,28.23v.25a11,11,0,0,1-.32,3.15,1.33,1.33,0,0,1-1.22,1.05h-15a1.12,1.12,0,0,1-.72-.26l-.15-.15A1.89,1.89,0,0,1,4,31.09c0-.81,0-1.68,0-2.61a74.71,74.71,0,0,1,.43-9v0l.09-.81a.25.25,0,0,1,.24-.21h.2c0-.14,0-.27,0-.4L5,17.51H4.91a.26.26,0,0,1-.25-.29c0-.27.09-.54.13-.8A.25.25,0,0,1,5,16.21h.2l0-.19.12-.68H5.27A.25.25,0,0,1,5,15.05c0-.28.11-.54.16-.81a.24.24,0,0,1,.24-.19h.21l.06-.26c0-.21.09-.42.14-.62h-.1a.25.25,0,0,1-.24-.3q.11-.42.21-.81A.26.26,0,0,1,6,11.88h.2a.11.11,0,0,0,0,0c0,.42.11.83.19,1.24s.1.59.17.88.18.87.3,1.29.16.59.25.87.18.61.29.9a24.43,24.43,0,0,0,1.13,2.71,20,20,0,0,0,1.92,3.1c.17.23.34.45.52.66l.11.13c.21.24.42.48.64.7a13.94,13.94,0,0,0,2.46,2.06c.27.18.53.34.81.49l.15.09c.26.14.52.26.79.38a10.52,10.52,0,0,0,4.32.93h0A9.07,9.07,0,0,0,21.81,28.23Z" style="fill:#0a0a07;opacity:0.15;mix-blend-mode:multiply"/></g></g></g></svg>