<svg xmlns="http://www.w3.org/2000/svg" xmlns:xlink="http://www.w3.org/1999/xlink" viewBox="0 0 24.44 32.95"><defs><linearGradient id="linear-gradient" x1="14.8" y1="16.2" x2="19.74" y2="7.45" gradientUnits="userSpaceOnUse"><stop offset="0" stop-color="#fff" stop-opacity="0"/><stop offset="1" stop-color="#addbd5"/></linearGradient><linearGradient id="linear-gradient-2" x1="7.77" y1="34.53" x2="22.94" y2="10.18" gradientUnits="userSpaceOnUse"><stop offset="0" stop-color="#fff" stop-opacity="0"/><stop offset="1" stop-color="#3d4b5c"/></linearGradient><linearGradient id="linear-gradient-3" x1="8.94" y1="35.26" x2="24.11" y2="10.91" xlink:href="#linear-gradient-2"/></defs><g style="isolation:isolate"><g id="Capa_1" data-name="Capa 1"><g id="Capa_5" data-name="Capa 5"><rect x="0.4" y="3.82" width="20.62" height="26.57" transform="translate(-1.22 0.83) rotate(-4.2)" style="fill:#9c9ca0"/><rect x="4.13" y="3.82" width="20.62" height="26.57" transform="translate(0.7 -0.56) rotate(2.29)" style="fill:#727176"/><rect x="8.8" y="11.36" width="3.04" height="3.74" transform="translate(0.54 -0.4) rotate(2.29)" style="fill:#b4b4b5"/><rect x="13.12" y="8.96" width="3.04" height="6.32" transform="translate(0.5 -0.58) rotate(2.29)" style="fill:#b4b4b5"/><rect x="17.43" y="6.9" width="3.04" height="8.55" transform="translate(0.46 -0.75) rotate(2.29)" style="fill:#b4b4b5"/><rect x="14.22" y="11.67" width="0.46" height="11.86" transform="translate(-3.72 31.34) rotate(-87.71)" style="fill:#b4b4b5"/><rect x="14.14" y="13.6" width="0.46" height="11.86" transform="translate(-5.72 33.11) rotate(-87.71)" style="fill:#b4b4b5"/><rect x="14.06" y="15.53" width="0.46" height="11.86" transform="translate(-7.72 34.88) rotate(-87.71)" style="fill:#b4b4b5"/><rect x="13.99" y="17.46" width="0.46" height="11.86" transform="translate(-9.72 36.66) rotate(-87.71)" style="fill:#b4b4b5"/><rect x="13.91" y="19.39" width="0.46" height="11.86" transform="translate(-11.72 38.43) rotate(-87.71)" style="fill:#b4b4b5"/><rect x="13.83" y="21.31" width="0.46" height="11.86" transform="translate(-13.72 40.2) rotate(-87.71)" style="fill:#b4b4b5"/><path d="M18.83,5.74a6.67,6.67,0,0,1,2.81,6.94,6.48,6.48,0,0,1-1,2.36,6.7,6.7,0,1,1-1.81-9.3Z" style="fill:#addbd5;opacity:0.68;mix-blend-mode:multiply"/><path d="M18.83,5.74a6.8,6.8,0,0,0-2.74-1.07h0L13.14,17.72A6.72,6.72,0,0,0,20.64,15a6.48,6.48,0,0,0,1-2.36A6.67,6.67,0,0,0,18.83,5.74Z" style="opacity:0.68;mix-blend-mode:multiply;fill:url(#linear-gradient)"/><path d="M12.05,8.36a1.79,1.79,0,0,1,.49,2.47A1.78,1.78,0,0,1,9.32,9.47a1.94,1.94,0,0,1,.27-.63,1.77,1.77,0,0,1,2.46-.48Z" style="fill:#fff;mix-blend-mode:soft-light"/><path d="M10.75,12.61a.76.76,0,0,1,.32.8.81.81,0,0,1-.11.27.77.77,0,0,1-1.4-.59.66.66,0,0,1,.12-.27.77.77,0,0,1,.49-.33A.79.79,0,0,1,10.75,12.61Z" style="fill:#fff;mix-blend-mode:soft-light"/><path d="M18.83,5.74A6.7,6.7,0,0,0,9.52,7.56a6.58,6.58,0,0,0-.75,1.5,6.29,6.29,0,0,1,.64-1.2A6.7,6.7,0,0,1,21.53,13a6.09,6.09,0,0,1-.25.86,5.78,5.78,0,0,0,.36-1.16A6.67,6.67,0,0,0,18.83,5.74Z" style="fill:#addbd5;opacity:0.68;mix-blend-mode:multiply"/><path d="M19.37,4.94A7.66,7.66,0,0,0,8.72,7a7.49,7.49,0,0,0-1.14,2.7A7.67,7.67,0,1,0,19.37,4.94Zm2.27,7.74a6.48,6.48,0,0,1-1,2.36,6.7,6.7,0,1,1,1-2.36Z"/><rect x="17.89" y="17.9" width="1.07" height="1.78" transform="translate(-6.06 9.13) rotate(-24.03)" style="fill:#90a4ae"/><path d="M23.72,30.67h0a.94.94,0,0,1-1.22-.47L17.82,19.7,19.5,19l4.68,10.5A.93.93,0,0,1,23.72,30.67Z" style="fill:#070707"/><g style="opacity:0.5;mix-blend-mode:multiply"><path d="M24.08,30.37a.88.88,0,0,1-.36.3h0a.94.94,0,0,1-1.22-.47L17.82,19.7l.35-.16-.46-1A7.67,7.67,0,0,1,7.43,11.89a7.67,7.67,0,0,0,10.28,7.76l.46,1-.35.15L22.5,31.35a.92.92,0,0,0,1.22.46h0a.91.91,0,0,0,.46-1.21Z" style="fill:url(#linear-gradient-2)"/><path d="M21.45,15.58a7.71,7.71,0,0,1-2.76,2.49l.41.91a7.62,7.62,0,0,0,2.35-2.25A7.75,7.75,0,0,0,22.59,14a8,8,0,0,0,.15-2.17,9,9,0,0,1-.15,1A7.59,7.59,0,0,1,21.45,15.58Z" style="fill:url(#linear-gradient-3)"/></g></g></g></g></svg>