<svg xmlns="http://www.w3.org/2000/svg" viewBox="0 0 24.44 32.95"><g style="isolation:isolate"><g id="Capa_1" data-name="Capa 1"><g id="Capa_4" data-name="Capa 4"><polygon points="7.13 5.16 4.36 7.61 3.25 6.25 2.19 4.97 2 4.74 1.9 4.61 4.66 2.17 4.77 2.3 4.96 2.53 5.98 3.77 7.13 5.16" style="fill:#727176;fill-rule:evenodd"/><polygon points="7.39 4.93 7.13 5.16 4.36 7.61 4.1 7.84 2.99 6.48 1.93 5.21 2.19 4.97 4.96 2.53 5.22 2.3 6.25 3.54 7.39 4.93" style="fill:#69696b;fill-rule:evenodd"/><path d="M4.94,2.15l-.17.15L2,4.74l-.17.15a.36.36,0,0,1-.54,0L.52,3.93.09,3.4a.4.4,0,0,1,.05-.56L3.25.1a.36.36,0,0,1,.54,0L4,.35,5,1.59A.42.42,0,0,1,4.94,2.15Z" style="fill:#727176"/><path d="M2.85.69l.85,1a.38.38,0,0,0,.55.05.42.42,0,0,0,0-.57l-.85-1Z" style="fill:#727176"/><path d="M2,1.48l.85,1a.38.38,0,0,0,.55,0A.41.41,0,0,0,3.4,2L2.55,1Z" style="fill:#727176"/><path d="M1.06,2.27l.85,1a.38.38,0,0,0,.55,0,.42.42,0,0,0,0-.57l-.85-1Z" style="fill:#727176"/><path d="M.17,3.06l.85,1a.38.38,0,0,0,.55,0,.42.42,0,0,0,0-.57l-.85-1Z" style="fill:#727176"/><path d="M21.32.51A1.68,1.68,0,0,0,20.1,1l-.05.06a1.52,1.52,0,0,1-.78.41,1.06,1.06,0,0,1-.25,0H11.17a1.43,1.43,0,0,0-1,.38l-.88.81h0a1.44,1.44,0,0,1-1,.37H7.81a1.71,1.71,0,0,0-1.08.4l.85-.76L9.64.87a1.44,1.44,0,0,1,.95-.36Z" style="fill:#727176;fill-rule:evenodd"/><path d="M24.44,1.91V31.17A1.75,1.75,0,0,1,22.71,33H3.35a1.67,1.67,0,0,1-1-.37l-.12-.1a.52.52,0,0,1-.1-.11s-.1-.12-.15-.18L1.82,32l-.08-.18c0-.08-.05-.17-.08-.26a2.34,2.34,0,0,1,0-.38V8.53A1.68,1.68,0,0,1,1.7,8a1.79,1.79,0,0,1,.52-.85L2.43,7,3,6.48l.26-.23,1.06-1L6,3.77l.27-.23.42-.39.06,0a1.69,1.69,0,0,1,.85-.38.9.9,0,0,1,.23,0h9.58a1.72,1.72,0,0,0,1.22-.52l1-1L20.1.64l.15-.13A1.68,1.68,0,0,1,21.32.12h1.39a1.65,1.65,0,0,1,1.08.4L24,.77a1.52,1.52,0,0,1,.24.38A1.88,1.88,0,0,1,24.44,1.91Z" style="fill:#727176;fill-rule:evenodd"/><path d="M5.48,7.41a.51.51,0,0,0-.72-.12A.54.54,0,0,0,4.64,8l6.48,9.2a.5.5,0,0,0,.72.11.55.55,0,0,0,.12-.74Z" style="fill:#484949;fill-rule:evenodd"/><path d="M14.94,17.24,21.42,8a.55.55,0,0,0-.11-.75.51.51,0,0,0-.72.12l-6.48,9.2a.54.54,0,0,0,.11.74A.5.5,0,0,0,14.94,17.24Z" style="fill:#484949;fill-rule:evenodd"/><path d="M11.12,19.76,4.64,29a.53.53,0,0,0,.12.74.51.51,0,0,0,.72-.12L12,20.39a.55.55,0,0,0-.12-.74A.5.5,0,0,0,11.12,19.76Z" style="fill:#484949;fill-rule:evenodd"/><path d="M14.94,19.76a.5.5,0,0,0-.72-.11.54.54,0,0,0-.11.74l6.48,9.2a.51.51,0,0,0,.72.12.54.54,0,0,0,.11-.74Z" style="fill:#484949;fill-rule:evenodd"/><g style="opacity:0.15;mix-blend-mode:multiply"><path d="M24.44,28v3.17A1.75,1.75,0,0,1,22.71,33H3.35a1.67,1.67,0,0,1-1-.37l-.12-.1a.52.52,0,0,1-.1-.11s-.1-.12-.15-.18L1.82,32l-.08-.18c0-.08-.05-.17-.08-.26a2.34,2.34,0,0,1,0-.38V8.53A1.68,1.68,0,0,1,1.7,8a1.82,1.82,0,0,1,.2-.45,36.33,36.33,0,0,0,8,13.89l.75.74a21,21,0,0,0,8.26,5c.52.16,1,.3,1.57.41A16.87,16.87,0,0,0,24,28Z" style="fill-rule:evenodd"/></g></g></g></g></svg>