<svg xmlns="http://www.w3.org/2000/svg" viewBox="0 0 27.42 37.12"><defs><style>.cls-1{fill:#727176;}</style></defs><g id="Capa_2" data-name="Capa 2"><g id="Capa_6" data-name="Capa 6"><path id="Trazado_1903" data-name="Trazado 1903" class="cls-1" d="M6.86,0H24c1.9,0,3.43,2.22,3.43,5V32.17c0,2.74-1.53,4.95-3.43,4.95H3.43C1.53,37.12,0,34.91,0,32.17V5C0,2.22,1.53,0,3.43,0H6.86ZM3.43,2.47c-1,0-1.72,1.11-1.72,2.48V32.17c0,1.37.77,2.48,1.72,2.48H24c1,0,1.72-1.11,1.72-2.48V5c0-1.37-.77-2.47-1.72-2.47Z"/><path class="cls-1" d="M19.84,25.66a7.47,7.47,0,0,1-4.35,1.95v2.8h-3v-2.7a15.86,15.86,0,0,1-3.58-.64,10.42,10.42,0,0,1-2.8-1.27l1.64-3.68a10.71,10.71,0,0,0,2.75,1.26,10.45,10.45,0,0,0,3.08.48c1.91,0,2.87-.48,2.87-1.44a1.17,1.17,0,0,0-.82-1.12A14.37,14.37,0,0,0,13,20.53a27,27,0,0,1-3.33-.92A5.59,5.59,0,0,1,7.35,18a4.25,4.25,0,0,1-1-2.92A5,5,0,0,1,8,11.39a7.45,7.45,0,0,1,4.51-1.9V6.71h3V9.43a15.31,15.31,0,0,1,2.76.51,10.32,10.32,0,0,1,2.36,1l-1.54,3.71a10.24,10.24,0,0,0-4.89-1.36,4,4,0,0,0-2.17.44,1.32,1.32,0,0,0-.68,1.15,1.12,1.12,0,0,0,.81,1.05,14.48,14.48,0,0,0,2.59.74,23,23,0,0,1,3.34.92,5.68,5.68,0,0,1,2.3,1.56,4.19,4.19,0,0,1,1,2.91A5,5,0,0,1,19.84,25.66Z"/></g></g></svg>