<svg id="Capa_1" data-name="Capa 1" xmlns="http://www.w3.org/2000/svg" viewBox="0 0 24.44 32.95"><g id="Capa_4" data-name="Capa 4"><polygon points="0 0 24.44 0 24.44 0 24.44 0 24.44 32.95 24.44 32.95 24.44 32.95 0 32.95 0 32.95 0 32.95 0 0 0 0 0 0" style="fill:#727270;fill-rule:evenodd"/><polygon points="5.83 6.24 6.48 5.85 7.85 8.2 7.2 8.59 5.83 6.24" style="fill:#fff;fill-rule:evenodd"/><polygon points="1.59 10.74 1.99 10.09 4.33 11.46 3.94 12.11 1.59 10.74" style="fill:#fff;fill-rule:evenodd"/><polygon points="1.99 22.86 1.59 22.15 3.94 20.78 4.33 21.5 1.99 22.86" style="fill:#fff;fill-rule:evenodd"/><polygon points="6.48 27.1 5.83 26.65 7.2 24.3 7.85 24.69 6.48 27.1" style="fill:#fff;fill-rule:evenodd"/><polygon points="18.61 26.65 17.96 27.1 16.59 24.69 17.24 24.3 18.61 26.65" style="fill:#fff;fill-rule:evenodd"/><polygon points="22.85 22.15 22.45 22.86 20.11 21.5 20.5 20.78 22.85 22.15" style="fill:#fff;fill-rule:evenodd"/><polygon points="20.5 12.11 20.11 11.46 22.45 10.09 22.85 10.8 20.5 12.11" style="fill:#fff;fill-rule:evenodd"/><polygon points="16.59 8.2 17.96 5.85 18.61 6.24 17.24 8.59 16.59 8.2" style="fill:#fff;fill-rule:evenodd"/><rect x="11.24" y="4.41" width="1.96" height="3.59" style="fill:#fff"/><rect x="0.16" y="15.5" width="3.59" height="1.96" style="fill:#fff"/><rect x="11.24" y="24.89" width="1.96" height="3.59" style="fill:#fff"/><rect x="20.7" y="15.5" width="3.59" height="1.96" style="fill:#fff"/><path d="M17,23.32a1.07,1.07,0,0,1-.59.2,1,1,0,0,1-.84-.46L12,18h-.2a2.15,2.15,0,0,1-2.08-2.15,2.12,2.12,0,0,1,2-2.08L13,11.19a1,1,0,0,1,1.83.92l-1.24,2.54a2.51,2.51,0,0,1,.33,1.17,2.11,2.11,0,0,1-.2.92l3.52,5.15A1,1,0,0,1,17,23.32Z" style="fill:#fff;fill-rule:evenodd"/></g></svg>