<svg id="Capa_2" data-name="Capa 2" xmlns="http://www.w3.org/2000/svg" viewBox="0 0 154.5 154"><rect x="33.31" y="17" width="35.4" height="8.49" style="fill:#727176"/><path d="M65.29,14.05a1.76,1.76,0,0,1-1.58,1.89H38.3a1.76,1.76,0,0,1-1.58-1.89V7.21A1.75,1.75,0,0,1,38.3,5.32H63.71a1.75,1.75,0,0,1,1.58,1.89Z" style="fill:#727176"/><path d="M74,36.36,86.22,24A1.22,1.22,0,0,1,88,24l32.57,32.16a1.24,1.24,0,0,1,0,1.75l-9.09,9.2q2.7,2.15,5.41,4.26l12.65-12.81a1.59,1.59,0,0,0,0-2.24L87.7,15a1.59,1.59,0,0,0-2.25,0L68.79,31.89C70.54,33.37,72.26,34.87,74,36.36Z" style="fill:#727176"/><path d="M118.27,66.4,82.39,31.63a25.08,25.08,0,0,0-17-6.14H33.31A8.5,8.5,0,0,0,24.82,34V140.18a8.49,8.49,0,0,0,8.49,8.5h81.17a8.49,8.49,0,0,0,8.5-8.5v-64A11.22,11.22,0,0,0,118.27,66.4ZM72.92,126.32a21.92,21.92,0,1,1,21.91-21.91A21.9,21.9,0,0,1,72.92,126.32Z" style="fill:#727176"/><path d="M61.83,107.29c0,7.92,5,11.91,11.08,11.91S84,115.21,84,107.29,72.91,87.61,72.91,87.61,61.83,99.37,61.83,107.29Z" style="fill:#727176"/><text transform="translate(35.29 73.05)" style="font-size:17.902889251708984px;fill:#fff;font-family:MyriadPro-Bold, Myriad Pro;font-weight:700">TEORI<tspan x="47.93" y="0" style="letter-spacing:0.009982240016534789em">C</tspan><tspan x="58.76" y="0">A</tspan></text></svg>