<svg xmlns="http://www.w3.org/2000/svg" viewBox="0 0 154.5 154"><g style="isolation:isolate"><g id="Capa_1" data-name="Capa 1"><g id="Capa_5" data-name="Capa 5"><path d="M58.7,143.5a58.4,58.4,0,0,1-45-95.4l5.4,4.4a51.41,51.41,0,0,0,53.4,82.2l1.9,6.7A60,60,0,0,1,58.7,143.5Z" style="fill:#f7c90d"/><path d="M40.5,17A13.7,13.7,0,1,1,26.8,30.7,13.66,13.66,0,0,1,40.5,17Z" style="fill:#5c7c26"/><path d="M40.7,7.5A31.6,31.6,0,0,1,71,48.4l9.4,4.5a40.33,40.33,0,1,1,6.9,52l-5.8,4.8a24.29,24.29,0,1,1-10.7-9.5,22,22,0,0,1,5.1,3.2l5.7-4.7A40,40,0,0,1,73.9,75a38.55,38.55,0,0,1,2.4-13.6L66.9,57A31.69,31.69,0,1,1,40.7,7.5Z" style="fill:#5c7c26"/><path d="M60.4,106.2A10.3,10.3,0,1,1,50,116.4,10.35,10.35,0,0,1,60.4,106.2Z" style="fill:#5c7c26"/><polygon points="115.62 78.79 115.2 84.36 115.2 84.38 113.18 111 107.94 111 105.92 84.38 105.5 78.79 115.62 78.79" style="fill:#fff"/><path d="M139.62,50.91V71.42a2.92,2.92,0,0,1-2.91,2.91H122.06l1.08-1.87h13.57a1,1,0,0,0,1-1V50.91a1,1,0,0,0-1-1H129A2.93,2.93,0,0,1,131.71,48h5a2.91,2.91,0,0,1,2.06.86l.19.2A3,3,0,0,1,139.62,50.91Z" style="fill:#fff"/><polygon points="132.07 56.99 132.05 57.02 123.14 72.46 122.06 74.33 119.02 79.59 116.26 84.38 104.86 84.38 92.61 63.17 89.07 57.02 89.05 56.99 132.07 56.99" style="fill:#fff"/><rect x="89.05" y="49.86" width="43.02" height="7.16" style="fill:#fff"/><rect x="127.31" y="49.86" width="3.53" height="7.16" style="fill:#fff;opacity:0.46;mix-blend-mode:overlay"/><polygon points="115.19 84.38 115.19 84.38 127.3 56.99 130.84 56.99 115.19 84.38" style="fill:#fff;opacity:0.46;mix-blend-mode:overlay"/><path d="M119,79.59l-2.76,4.79h-1.07l-2,26.62h-5.24l-2-26.62h-1.07L92.62,63.16,89.07,57h0V49.86h3.33a48.17,48.17,0,0,0,2.09,5.89c.18.42.36.83.56,1.24a0,0,0,0,0,0,0c.39.85.8,1.67,1.24,2.48,5.07,9.5,12.86,16.4,21.26,19.57l.56.21Z" style="fill:#1f1f1d;opacity:0.15;mix-blend-mode:multiply"/><path d="M58.55,19.71V54.29a.17.17,0,0,1,0,.07,1.09,1.09,0,0,1,0,.18,1.94,1.94,0,0,1-.07.33l-.08.21-.09.18c0,.06-.07.12-.11.17l-.46.57a6,6,0,0,1-1.11.85l-.35.22c-.24.14-.5.26-.77.39l-.47.21-.61.24-.65.24h0l-.06,0-.63.2-.72.2-.23.06L51,58.92l-.1,0-.5.12-.1,0-.62.11-.82.15-.84.13-.88.12-.16,0L46,59.7q-.45.06-.93.09H45c-.24,0-.48,0-.74.05l-1,.07-1,0-.66,0H39.32l-.66,0h-.08c-.66,0-1.32-.05-1.95-.11h0l-.68-.05h-.16c-.62,0-1.24-.11-1.84-.18l-1-.14-1.11-.17-1.18-.22-.6-.14c-.51-.11-1-.23-1.47-.36s-1-.27-1.41-.42l-.68-.25-.61-.24a11.74,11.74,0,0,1-1.59-.82l-.15-.09a2.53,2.53,0,0,1-.36-.25,5.32,5.32,0,0,1-.6-.51L23,55.88a3.46,3.46,0,0,1-.34-.44,1.91,1.91,0,0,1-.16-.27,1.46,1.46,0,0,1-.12-.33,1,1,0,0,1-.06-.23,1.66,1.66,0,0,1,0-.32V19.71H24.6a.7.7,0,0,0-.13.39c0,1.73,7.23,3.13,16.14,3.13s16.13-1.4,16.13-3.13a.7.7,0,0,0-.13-.39Z" style="fill:#fff;stroke:#969393;stroke-miterlimit:10"/><path d="M40.43,17.4c-7.9,0-13.12,1.31-15.08,2.31,2,1,7.18,2.31,15.08,2.31s13.12-1.32,15.08-2.31C53.55,18.71,48.34,17.4,40.43,17.4Z" style="fill:#fff"/><path d="M36.62,26.74V59.86c.67,0,1.35.08,2,.1V26.83Z" style="fill:#fff;stroke:#969393;stroke-miterlimit:10"/><path d="M33.93,26.54V59.61c.6.07,1.21.13,1.85.18V26.69Z" style="fill:#fff;stroke:#969393;stroke-miterlimit:10"/><path d="M31.23,26.23v33c.54.1,1.09.19,1.66.27v-33Z" style="fill:#fff;stroke:#969393;stroke-miterlimit:10"/><path d="M28.53,25.76V58.58c.47.13,1,.25,1.48.37V26Z" style="fill:#fff;stroke:#969393;stroke-miterlimit:10"/><path d="M25.84,25.07v32.6c.4.17.83.33,1.29.49V25.44Z" style="fill:#fff;stroke:#969393;stroke-miterlimit:10"/><path d="M24.25,24.49q-.59-.24-1.11-.51V56a6.08,6.08,0,0,0,1.11.85Z" style="fill:#fff;stroke:#969393;stroke-miterlimit:10"/><path d="M40.43,26.85H39.32V60h2.22V26.84Z" style="fill:#fff;stroke:#969393;stroke-miterlimit:10"/><path d="M42.2,26.83V60c.69,0,1.37-.06,2-.1V26.74Z" style="fill:#fff;stroke:#969393;stroke-miterlimit:10"/><path d="M45.09,26.69v33.1c.63,0,1.24-.11,1.84-.18V26.54Z" style="fill:#fff;stroke:#969393;stroke-miterlimit:10"/><path d="M48,26.44v33c.57-.08,1.12-.17,1.66-.27v-33Z" style="fill:#fff;stroke:#969393;stroke-miterlimit:10"/><path d="M50.85,26V59c.51-.12,1-.24,1.48-.37V25.76Z" style="fill:#fff;stroke:#969393;stroke-miterlimit:10"/><path d="M53.73,25.44V58.16c.46-.16.89-.32,1.3-.49V25.07C54.61,25.2,54.18,25.32,53.73,25.44Z" style="fill:#fff;stroke:#969393;stroke-miterlimit:10"/><path d="M56.62,56.85a6.35,6.35,0,0,0,1.1-.85V24c-.35.18-.72.35-1.1.51Z" style="fill:#fff;stroke:#969393;stroke-miterlimit:10"/><path d="M60,17.2l0,0a4.17,4.17,0,0,0-.63-.63s0,0,0,0c-4.33-3.73-16.14-4-18.93-4-3.43,0-20.54.35-20.54,7.15a4.52,4.52,0,0,0,2.42,3.78,8.25,8.25,0,0,0,.83.49q.52.27,1.11.51a14.14,14.14,0,0,0,1.59.57c.42.14.84.26,1.29.37s.93.22,1.41.33,1,.19,1.47.27l1.22.2,1.67.21,1,.11,1.84.15.86,0,2,.09h.66l1.11,0,1.11,0h.66l2-.09.86,0,1.84-.15,1-.11,1.66-.21,1.22-.2c.49-.08,1-.17,1.48-.27s1-.2,1.41-.33.87-.23,1.28-.37a14.14,14.14,0,0,0,1.59-.57q.59-.24,1.11-.51a7.27,7.27,0,0,0,.83-.49A4.5,4.5,0,0,0,61,19.71,3.82,3.82,0,0,0,60,17.2Zm-19.61.2c7.91,0,13.12,1.31,15.08,2.31-2,1-7.17,2.3-15.08,2.3s-13.12-1.31-15.08-2.3C27.31,18.71,32.53,17.4,40.43,17.4Z" style="fill:#dadada"/><path d="M61,57.4c0,6.8-17.11,7.15-20.54,7.15-2.65,0-13.42-.21-18.21-3.42a5.59,5.59,0,0,1-1.8-1.79,3.76,3.76,0,0,1-.53-1.94,4.54,4.54,0,0,1,2.42-3.78v.67a1.66,1.66,0,0,0,0,.32,1,1,0,0,0,.06.23,1.46,1.46,0,0,0,.12.33,2.71,2.71,0,0,0,.16.27,3.46,3.46,0,0,0,.34.44l.12.12a5.32,5.32,0,0,0,.6.51c.11.08.23.17.36.25l.15.09a11.74,11.74,0,0,0,1.59.82l.61.24.68.25c.45.15.91.29,1.41.42s1,.25,1.47.36l.6.14.62.11.56.11,1.11.17,1,.14c.64.07,1.32.14,2,.19l.68.05c.65,0,1.3.09,2,.11h.08l.66,0h2.22l.66,0,1,0q.89,0,1.74-.12h.12q.48,0,.93-.09l.91-.09.16,0c.59-.07,1.17-.16,1.72-.25s1-.17,1.44-.26l.1,0,.6-.14,1.15-.28.95-.26.63-.2.06,0h0l.65-.24.61-.24.47-.21c.27-.13.53-.25.77-.39l.35-.22A6,6,0,0,0,57.72,56l.46-.57a1.2,1.2,0,0,0,.11-.17l.09-.18.08-.21a1.76,1.76,0,0,0,.07-.33.55.55,0,0,0,0-.18.17.17,0,0,0,0-.07v-.67A4.54,4.54,0,0,1,61,57.4Z" style="fill:#dadada"/><path d="M54.41,16.24c-3.13-1.46-6-2-6.06-2.26s3-.33,6.63,1,5.83,3.64,5.37,3.92S57.53,17.65,54.41,16.24Z" style="fill:#fff"/><path d="M61,57.4c0,6.8-17.11,7.15-20.54,7.15-2.65,0-13.42-.21-18.21-3.42a5.59,5.59,0,0,1-1.8-1.79,3.76,3.76,0,0,1-.53-1.94,4.54,4.54,0,0,1,2.42-3.78V30c.26.63.54,1.26.83,1.87s.72,1.49,1.11,2.21c.5.93,1,1.84,1.59,2.7.41.65.84,1.27,1.29,1.87s.92,1.24,1.41,1.83,1,1.14,1.47,1.67.8.83,1.22,1.22a21.19,21.19,0,0,0,1.67,1.49,11.57,11.57,0,0,0,1,.82c.6.47,1.22.9,1.84,1.31.28.19.57.36.86.53a21,21,0,0,0,2,1.1l.66.31a18.29,18.29,0,0,0,2.22.88c.22.08.44.16.66.22a17.85,17.85,0,0,0,2,.54c.29.07.57.13.86.18.61.11,1.22.2,1.84.26.34,0,.69.07,1,.08s.93.05,1.4.05h.26c.41,0,.81,0,1.22,0s1-.08,1.48-.15.94-.12,1.41-.21.86-.17,1.28-.27,1.07-.28,1.59-.45.74-.24,1.11-.38.56-.2.83-.32v4.32A4.54,4.54,0,0,1,61,57.4Z" style="fill:#1d1d1b;opacity:0.15;mix-blend-mode:multiply"/></g><rect x="55.88" y="105.62" width="5.84" height="1.56" style="fill:#878786"/><path d="M60.81,108a4.45,4.45,0,0,0-2.06,1.41l-.21.26h0a3.15,3.15,0,0,0-.22.29,3.46,3.46,0,0,0-.22.31,4,4,0,0,0-.22.34,13.1,13.1,0,0,0-.8,1.5c-.08.16-.15.33-.23.5,0,0,0,0,0,0-.07.17-.14.33-.21.51-.19.48-.37,1-.55,1.52-.11.34-.21.68-.31,1h0c-.14.49-.27,1-.4,1.52-.08.34-.17.69-.24,1s-.22,1-.32,1.53c0,.26-.1.53-.14.79,0,.08,0,.16,0,.23-.06.36-.12.71-.17,1.07,0,.15,0,.31-.07.47s0,.34-.07.51,0,.35-.08.52c-.07.56-.14,1.12-.2,1.7a90.12,90.12,0,0,0-.49,10.59c0,1,0,1.9,0,2.77,0,.11,0,.21,0,.32a2.07,2.07,0,0,0,.67,1.53H52.47a1.76,1.76,0,0,1-1.55-1.88c0-1,0-2,0-3.09a89.65,89.65,0,0,1,.64-11.94c0-.16.05-.31.07-.47s0-.38.08-.56c.07-.52.15-1,.23-1.54h0a1.43,1.43,0,0,0,0-.22c0-.27.09-.54.14-.8.09-.52.2-1,.3-1.53,0-.1.05-.21.07-.31s.11-.49.17-.73h0c.12-.5.24-1,.38-1.47a.43.43,0,0,1,0,0c.1-.36.2-.7.31-1,.16-.53.34-1,.53-1.52s.27-.71.41-1a15.56,15.56,0,0,1,.77-1.53,10.51,10.51,0,0,1,.79-1.18C57.22,107.64,58.87,107,60.81,108Z" style="fill:#939393"/><path d="M62.23,108.92v-1.77a.28.28,0,0,0-.29-.28H55.68a.29.29,0,0,0-.3.28v1.95a.31.31,0,0,0,.3.3h3.08l-.22.26h0l-.22.29a3.46,3.46,0,0,0-.22.31,4,4,0,0,0-.22.34c-.21,0-.44,0-.68,0H57a0,0,0,0,0,0,0l-.11,0H54.74a.29.29,0,0,0-.25.14c-.17.3-.34.63-.5,1a.3.3,0,0,0,.26.42h2.82c-.08.16-.15.33-.23.5,0,0,0,0,0,0l-.2.51H53.58a.28.28,0,0,0-.27.18c-.11.31-.23.63-.33,1a.29.29,0,0,0,.27.38h2.83c-.11.34-.22.68-.32,1h-3a.29.29,0,0,0-.28.21c-.09.31-.17.63-.25,1a.29.29,0,0,0,.29.35h2.82c-.08.34-.17.69-.24,1h-3a.29.29,0,0,0-.29.23c-.06.31-.12.63-.19,1a.3.3,0,0,0,.29.35h2.82c0,.26-.09.52-.14.79,0,.08,0,.16,0,.23H51.69a.29.29,0,0,0-.29.25l-.15,1a.3.3,0,0,0,.29.34h2.83c0,.16,0,.34-.07.51s0,.35-.08.52h-2.9a.27.27,0,0,0-.28.25c0,.32-.08.63-.11,1v.06a87.34,87.34,0,0,0-.51,10.68c0,1.1,0,2.13,0,3.09A2.17,2.17,0,0,0,51,139.8l.18.18a1.39,1.39,0,0,0,.85.31H69.7A1.57,1.57,0,0,0,71.14,139a12.56,12.56,0,0,0,.38-3.72,2.81,2.81,0,0,0,0-.29C71.6,128.54,68.43,113.8,62.23,108.92Zm0,3.12a.59.59,0,0,1,1.05-.38,0,0,0,0,1,0,0c.24.34.13.94.37,1.31s.8.54,1,.92,0,1,.23,1.35.75.61.92,1,0,.95.13,1.36.7.66.85,1.07-.09,1,0,1.37.67.69.79,1.11-.15,1,0,1.37l.06.14a.6.6,0,0,1-.51.9H62.82a.6.6,0,0,1-.6-.59Z" style="fill:#fff"/><path d="M62,102.57V106H55.61v-3.4a.57.57,0,0,1,.57-.57h5.25a.56.56,0,0,1,.31.09.58.58,0,0,1,.17.18A.53.53,0,0,1,62,102.57Z" style="fill:#fcfcfc"/><path d="M62.17,105v1H55.44v-1h.17v-1.9a.4.4,0,0,1,.4-.41.4.4,0,0,1,.4.41V105h.31v-1.9a.41.41,0,0,1,.41-.41.4.4,0,0,1,.4.39V105h.31v-1.9a.41.41,0,0,1,.41-.41.4.4,0,0,1,.4.41V105H59v-1.9a.41.41,0,1,1,.81,0V105h.31v-1.9a.4.4,0,0,1,.4-.41.4.4,0,0,1,.4.41V105h.32v-1.9a.4.4,0,0,1,.4-.41.4.4,0,0,1,.4.41V105Z" style="fill:#939393"/><path d="M54,125.08a1.53,1.53,0,0,0-1.52,1.42c-.19,2.46-.28,5-.26,7.52,0,1,0,1.89,0,2.75s.59,1.67,1.28,1.67H68.17a1.32,1.32,0,0,0,1.19-1.11,12.1,12.1,0,0,0,.32-3.31,40,40,0,0,0-.79-7.69,1.54,1.54,0,0,0-1.51-1.25Z" style="fill:#afafaf"/><path d="M65.2,132l1.14-.42-.09-.77L65,130.63l-.25-.67.82-.89-.45-.65-1.12.45-.54-.47.31-1.18-.69-.36-.79.92-.7-.17-.27-1.18h-.78l-.27,1.18-.7.17-.79-.92-.69.36.31,1.18-.54.47-1.12-.45-.45.65.82.89-.25.67-1.21.13-.09.77,1.14.42.08.71-1,.67.27.73,1.2-.16.41.58-.58,1.07.59.52,1-.71.63.34v1.21l.75.18.55-1.08h.72l.55,1.08.75-.18V135.7l.63-.34,1,.71.58-.52-.58-1.07.41-.58,1.2.16.27-.73-1-.67ZM61,133.66a1.9,1.9,0,0,1-.48-3.73v-.46h1v.46a1.9,1.9,0,0,1-.48,3.73Z" style="fill:#fff"/><path d="M61,135a3.22,3.22,0,1,1,3.22-3.22A3.22,3.22,0,0,1,61,135Zm0-6.23a3,3,0,1,0,3,3A3,3,0,0,0,61,128.75Z" style="fill:#9e9e9e"/><path d="M71.53,135a2.81,2.81,0,0,1,0,.29,12.56,12.56,0,0,1-.38,3.72,1.57,1.57,0,0,1-1.44,1.25H52a1.39,1.39,0,0,1-.85-.31L51,139.8a2.17,2.17,0,0,1-.52-1.39c0-1,0-2,0-3.09a87.34,87.34,0,0,1,.51-10.68v-.06c0-.32.07-.63.11-1a.27.27,0,0,1,.28-.25h.23l.06-.47c0-.19,0-.38.08-.56h-.15a.3.3,0,0,1-.29-.34l.15-1a.29.29,0,0,1,.29-.25h.23c0-.07,0-.14,0-.22,0-.27.09-.54.14-.8H52a.3.3,0,0,1-.29-.35c.07-.32.13-.64.19-1a.29.29,0,0,1,.29-.23h.24c0-.1.05-.21.07-.31s.11-.49.17-.73h-.11a.29.29,0,0,1-.29-.35c.08-.33.16-.65.25-1a.29.29,0,0,1,.28-.21H53a.11.11,0,0,0,0,0c.06.5.13,1,.22,1.47s.12.69.2,1c.1.51.22,1,.36,1.53.09.35.19.69.29,1s.22.72.35,1.07a26.22,26.22,0,0,0,1.34,3.2A23.1,23.1,0,0,0,58,128.75c.21.27.41.53.62.77,0,.06.09.11.13.16.24.29.5.57.75.83A17,17,0,0,0,62.45,133c.32.21.63.4,1,.58l.18.1c.3.16.62.31.93.45a12.46,12.46,0,0,0,5.12,1.1h0A11.69,11.69,0,0,0,71.53,135Z" style="fill:#0a0a07;opacity:0.15;mix-blend-mode:multiply"/></g></g></svg>