<svg id="Capa_5" data-name="Capa 5" xmlns="http://www.w3.org/2000/svg" viewBox="0 0 154.5 154"><g id="Capa_7" data-name="Capa 7"><path d="M46.3,136.73a5.61,5.61,0,0,1,.23-5,58.37,58.37,0,0,1-.4-110.07,5.52,5.52,0,0,1,.77-3.78,4.66,4.66,0,0,1,2.27-3.2A4.46,4.46,0,0,1,52.78,12l.12-.1A66,66,0,0,0,2.33,59h0a66,66,0,0,0,44.83,81A5.41,5.41,0,0,1,46.3,136.73Z" style="fill:#f7c90d"/></g><path d="M93.26,46c-5.48,0-11,0-16.45,0-.72,0-1-.17-1-.94q0-16.48,0-33c0-.73.25-.88.92-.88q16.5,0,33,0c.68,0,.91.16.91.89q0,16.49,0,33c0,.77-.23.93-1,.93C104.23,46,98.75,46,93.26,46Z" style="fill:#5c7c26"/><path d="M75.87,107.25c0-5.45,0-10.91,0-16.36,0-.81.15-1.1,1.05-1.1q16.36,0,32.71,0c.89,0,1.06.26,1.06,1.09q0,16.35,0,32.71c0,.84-.25,1-1,1q-16.35,0-32.71,0c-.88,0-1.07-.25-1.06-1.09C75.89,118.1,75.87,112.67,75.87,107.25Z" style="fill:#5c7c26"/><path d="M93.21,85.28c-5.49,0-11,0-16.45,0-.7,0-.91-.18-.91-.9q0-16.49,0-33c0-.68.16-.91.88-.91q16.53,0,33.07,0c.67,0,.86.19.85.85q0,16.55,0,33.07c0,.75-.27.87-.93.86C104.23,85.27,98.72,85.28,93.21,85.28Z" style="fill:#5c7c26"/><path d="M53.92,85.28c-5.49,0-11,0-16.45,0-.71,0-.89-.21-.89-.9q0-16.49,0-33c0-.68.16-.91.89-.91q16.52,0,33.05,0c.68,0,.86.19.86.86q0,16.53,0,33.06c0,.76-.28.87-.93.86C64.94,85.27,59.43,85.28,53.92,85.28Z" style="fill:#5c7c26"/><path d="M149.93,68c0,5.46,0,10.91,0,16.37,0,.72-.15,1-.93,1q-16.44,0-32.89,0c-.78,0-1-.2-1-1q0-16.4,0-32.8c0-.77.18-1,1-1q16.44,0,32.89,0c.76,0,.94.2.94.94C149.92,57,149.93,62.47,149.93,68Z" style="fill:#5c7c26"/><path d="M115.16,107.25c0-5.51,0-11,0-16.53,0-.68.14-.92.87-.92q16.53,0,33.06,0c.64,0,.87.14.87.84,0,6,0,11.92,0,17.88a15.78,15.78,0,0,1-13.3,15.84,14.32,14.32,0,0,1-2.53.21c-6,0-12,0-18,0-.79,0-1-.23-1-1C115.18,118.15,115.16,112.7,115.16,107.25Z" style="fill:#5c7c26"/><path d="M54,89.81c5.48,0,11,0,16.44,0,.75,0,.95.18.95.94q0,16.49,0,33c0,.71-.22.89-.91.89-6,0-12,0-18,0a15.81,15.81,0,0,1-15.8-15.48c-.1-6.18,0-12.37,0-18.56,0-.73.36-.73.88-.73Z" style="fill:#5c7c26"/><path d="M71.36,28.64c0,5.48,0,11,0,16.44,0,.76-.21.94-.95.94Q54,46,37.63,46c-.88,0-1.06-.25-1.06-1.09,0-6,0-11.92,0-17.88A15.76,15.76,0,0,1,50,11.45a17.44,17.44,0,0,1,2.7-.21c5.91,0,11.81,0,17.72,0,.76,0,1,.18,1,1C71.35,17.68,71.36,23.16,71.36,28.64Z" style="fill:#5c7c26"/><path d="M115.16,28.57c0-5.48,0-11,0-16.44,0-.69.16-.92.88-.91,6,0,12,0,18,0A15.79,15.79,0,0,1,149.91,27c.07,6.08,0,12.15,0,18.22,0,.6-.19.76-.77.76q-16.6,0-33.22,0c-.66,0-.8-.22-.8-.83C115.17,39.65,115.16,34.11,115.16,28.57Z" style="fill:#5c7c26"/><path d="M93.35,126.83h55.44c1.14,0,1.14,0,1.14,1.12v4.58c0,1.11,0,1.11-1.07,1.11h-111c-1.39,0-1.21.16-1.22-1.21s0-2.94,0-4.41-.15-1.19,1.16-1.19h55.6Z" style="fill:#5c7c26"/><path d="M93.23,151.76q-27.81,0-55.62,0c-.8,0-1.07-.18-1-1,.07-1.69,0-3.39,0-5.08,0-.54.15-.8.72-.73.22,0,.45,0,.67,0H148.71c1.39,0,1.21-.16,1.22,1.21,0,1.64,0,3.28,0,4.92,0,.49-.12.75-.66.68a5.8,5.8,0,0,0-.59,0Z" style="fill:#5c7c26"/><path d="M93.27,9c-3.84,0-7.68,0-11.52,0-.64,0-.89-.14-.87-.84,0-1.75,0-3.5,0-5.25,0-.51.08-.75.69-.75q11.69,0,23.37,0c.59,0,.71.21.7.74q0,2.67,0,5.34c0,.6-.19.76-.77.75C101,9,97.13,9,93.27,9Z" style="fill:#5c7c26"/><path d="M96.94,138.6c0,1.48,0,3,0,4.45,0,.61-.17.79-.68.79-2,0-4,0-6,0-.51,0-.69-.18-.69-.79,0-3,0-6.07,0-9.1,0-.57.18-.74.65-.74,2,0,4.06,0,6.09,0,.56,0,.65.28.64.84C96.93,135.56,96.94,137.08,96.94,138.6Z" style="fill:#5c7c26"/><path d="M47.32,138.52c0,1.52,0,3,0,4.56,0,.54-.13.76-.62.76-2,0-4.07,0-6.1,0-.49,0-.62-.22-.62-.76q0-4.56,0-9.11c0-.55.13-.77.62-.76,2,0,4.07,0,6.1,0,.49,0,.63.21.62.75C47.31,135.48,47.32,137,47.32,138.52Z" style="fill:#5c7c26"/><path d="M139.2,138.53c0-1.49,0-3,0-4.45,0-.62.12-.88.7-.87,2,0,4,0,5.93,0,.56,0,.72.22.72.85,0,3,0,5.94,0,8.91,0,.61-.12.88-.7.87-2,0-4,0-5.92,0-.57,0-.73-.23-.72-.86C139.22,141.5,139.2,140,139.2,138.53Z" style="fill:#5c7c26"/></svg>