<svg id="Capa_1" data-name="Capa 1" xmlns="http://www.w3.org/2000/svg" viewBox="0 0 154.5 154"><g id="Capa_2" data-name="Capa 2"><path d="M51.62,138.54c-14.83-5.61-23-15.84-26.88-20.77a67.94,67.94,0,0,1-14-49.62,68.94,68.94,0,0,1,9.19-27.5A57.46,57.46,0,0,1,33,25.22,56.08,56.08,0,0,1,48.53,16.4a57.87,57.87,0,0,1,23.4-3.56L62.09,20.2C57,21.41,39.44,26.24,27.87,43a57.73,57.73,0,0,0-9.5,26.2,59.61,59.61,0,0,0,12.47,43.63,56.57,56.57,0,0,0,18.94,16.05c4.72,2.43,11.88,6.07,21.74,6a40.66,40.66,0,0,0,15.55-3.33l4.46,7.54C86.1,140.85,69.81,145.43,51.62,138.54Z" style="fill:#f7c90d"/><path d="M111.52,47.35c0-.31-.08-.63-.14-.93s-.11-.45-.17-.67L111,45c0-.2-.09-.4-.15-.6s-.19-.57-.3-.86l-.24-.68c0-.13-.09-.27-.14-.39-.16-.4-.35-.79-.54-1.17l-.2-.44c0-.08-.07-.16-.11-.23-.24-.47-.52-.92-.79-1.37L108.4,39c-.37-.59-.72-1.06-1.07-1.52l-.13-.19c-.38-.48-.8-1-1.25-1.44l-.12-.14a19.81,19.81,0,0,0-14.2-6.18l-.23,0c-11.19,0-20.33,9.49-20.33,21.16S80.19,71.8,91.4,71.81h.25a19.87,19.87,0,0,0,14.24-6.26c.51-.55.93-1,1.29-1.5l.16-.21c.34-.45.69-.91,1-1.4.11-.2.17-.29.22-.37.27-.45.55-.9.79-1.37a1.47,1.47,0,0,0,.1-.22c0-.11.1-.22.16-.33l.09-.18c.17-.37.35-.73.5-1.1,0-.13.09-.25.13-.38l.25-.7c.11-.28.21-.56.3-.86s.1-.4.15-.6l.19-.76c0-.21.11-.43.16-.65s.1-.62.14-.93l.1-.74c0-.14,0-.28.07-.43.06-.71.1-1.43.1-2.15s0-1.45-.1-2.16c0-.15,0-.29-.07-.43Z" style="fill:#5c7c26"/><path d="M127,78.35c.2-.35.42-.72.71-1.18a.78.78,0,0,0,.11-.18c.54-1,1.37-2.58,1.41-2.66a48.54,48.54,0,0,0,5-21.61c0-.82,0-1.62,0-2.42l-.06-1-.05-.68c0-.23,0-.45,0-.65s-.06-.57-.09-.85l-.06-.61c0-.29-.06-.59-.1-.88s-.06-.46-.1-.69l-.09-.59c-.05-.33-.09-.67-.15-1s-.1-.53-.15-.79l-.14-.7c-.05-.25-.09-.49-.14-.73s-.17-.69-.25-1l-.15-.59c0-.18-.09-.36-.14-.55-.1-.38-.21-.74-.32-1.11l-.14-.46c0-.19-.1-.37-.16-.53-.11-.37-.24-.73-.37-1.09l-.16-.47-.18-.5c-.15-.4-.31-.79-.47-1.19l-.18-.44-.15-.36q-.34-.8-.72-1.56l-.17-.37c-.25-.51-.51-1-.84-1.62l-.13-.24c-.29-.53-.6-1-1-1.64l-.09-.16c-.33-.52-.67-1-1-1.57a.78.78,0,0,0-.1-.15c-.37-.54-.75-1.06-1.13-1.54l-.09-.12c-.41-.53-.83-1-1.3-1.58s-.89-1-1.36-1.51h0C114.63,12.63,104,8.36,91.53,8.36c-25.14,0-42.7,18.24-42.7,44.36a49.13,49.13,0,0,0,5.74,23.07L55.21,77l.08.14,1.07,1.71.3.47L84,127h0l6.33,11.06a1.89,1.89,0,0,0,1.63,1h0a1.86,1.86,0,0,0,1.62-1l6.18-11h0l26.64-47.64C126.59,79,126.79,78.7,127,78.35ZM115.45,53.22c0,.23-.06.46-.1.69l-.08.6q-.08.6-.18,1.2c-.06.3-.14.6-.22.9l-.16.64c-.06.29-.13.57-.21.85s-.25.73-.38,1.1l-.21.58c-.07.21-.14.41-.22.61-.18.46-.4.9-.61,1.34l-.19.4a4.54,4.54,0,0,1-.21.45c-.29.55-.61,1.09-.94,1.62-.12.21-.18.32-.25.43-.38.58-.78,1.13-1.2,1.67a2.25,2.25,0,0,1-.17.24c-.45.57-.94,1.14-1.47,1.7a23.62,23.62,0,0,1-17,7.5h-.24c-13.31,0-24.14-11.25-24.14-25.08S78.12,25.58,91.43,25.58h.25A23.61,23.61,0,0,1,108.58,33l.1.12c.54.57,1,1.12,1.44,1.65l.15.22c.44.57.84,1.12,1.22,1.7.06.1.13.21.19.33.39.64.71,1.17,1,1.73.08.15.15.3.22.45l.09.2c.28.58.51,1.05.7,1.53.08.2.16.41.23.63l.2.57c.13.36.26.72.38,1.1s.15.56.21.85l.16.62c.08.31.16.61.22.92s.13.79.18,1.2l.09.59c0,.23.07.46.09.69.08.84.12,1.71.12,2.56S115.53,52.37,115.45,53.22Z" style="fill:#5c7c26"/></g></svg>