<svg id="Capa_1" data-name="Capa 1" xmlns="http://www.w3.org/2000/svg" viewBox="0 0 24.44 32.95"><g id="Capa_8" data-name="Capa 8"><rect x="0.5" y="0.5" width="23.44" height="31.95" rx="3.55" style="fill:none;stroke:#727176;stroke-miterlimit:10"/><path d="M18,6.61a5.66,5.66,0,1,0-9.22,6.2l.24.24,1-1-.48-.47L9,12.1a5,5,0,0,1-1.22-3h.75V8.48H7.77A4.91,4.91,0,0,1,9,5.52l.53.53L10,5.58l-.53-.53a5,5,0,0,1,3-1.23v.75h.67V3.82a5,5,0,0,1,3,1.23l-.53.53.47.47.53-.53a5,5,0,0,1,1.22,3H17v.66h.75a5,5,0,0,1-1.22,3L16,11.57l-.47.47,1,1,.24-.24A5.64,5.64,0,0,0,18,6.61Z" style="fill:#727176"/><path d="M16.52,13.17a.09.09,0,0,1-.08,0l-1-1a.14.14,0,0,1,0-.17l.47-.47a.12.12,0,0,1,.17,0l.44.43a4.92,4.92,0,0,0,1.1-2.66H17a.12.12,0,0,1-.12-.12V8.48A.12.12,0,0,1,17,8.36h.62a5,5,0,0,0-1.1-2.67l-.44.44a.12.12,0,0,1-.17,0l-.47-.47a.11.11,0,0,1,0-.08.16.16,0,0,1,0-.09l.44-.43A4.86,4.86,0,0,0,13.21,4v.62a.12.12,0,0,1-.12.12h-.67a.12.12,0,0,1-.12-.12V4A4.86,4.86,0,0,0,9.64,5.06l.44.43a.16.16,0,0,1,0,.09.11.11,0,0,1,0,.08l-.47.47a.12.12,0,0,1-.17,0L9,5.69A5,5,0,0,0,7.9,8.36h.62a.12.12,0,0,1,.12.12v.66a.12.12,0,0,1-.12.12H7.9A4.88,4.88,0,0,0,9,11.93l.44-.44a.11.11,0,0,1,.17,0l.47.47a.12.12,0,0,1,0,.08.18.18,0,0,1,0,.09l-1,1a.1.1,0,0,1-.16,0l-.24-.23a5.78,5.78,0,1,1,9.4-6.37,0,0,0,0,1,0,0,5.77,5.77,0,0,1-1.23,6.34l-.24.23A.12.12,0,0,1,16.52,13.17ZM12.75,3.26a5.44,5.44,0,0,0-2.15.44,5.55,5.55,0,0,0-3,3,5.55,5.55,0,0,0,1.22,6l.15.15L9.83,12l-.31-.3-.44.45s-.06,0-.09,0a.12.12,0,0,1-.09,0,5.16,5.16,0,0,1-1.25-3,.14.14,0,0,1,0-.09.18.18,0,0,1,.09,0H8.4V8.6H7.77a.18.18,0,0,1-.09,0,.16.16,0,0,1,0-.09,5.08,5.08,0,0,1,1.26-3A.09.09,0,0,1,9,5.4a.1.1,0,0,1,.09,0l.45.45.3-.3-.45-.45a.09.09,0,0,1,0-.09.09.09,0,0,1,0-.08,5.14,5.14,0,0,1,3-1.26.12.12,0,0,1,.09,0,.11.11,0,0,1,0,.08v.63H13V3.82a.14.14,0,0,1,.12-.12,5.12,5.12,0,0,1,3,1.26.14.14,0,0,1,.05.08.13.13,0,0,1,0,.09l-.45.45.31.3.44-.45a.14.14,0,0,1,.09,0,.09.09,0,0,1,.08,0,5.08,5.08,0,0,1,1.26,3,.16.16,0,0,1,0,.09.15.15,0,0,1-.09,0h-.63V9h.63a.11.11,0,0,1,.09,0,.12.12,0,0,1,0,.09,5.1,5.1,0,0,1-1.26,3,.12.12,0,0,1-.08,0,.11.11,0,0,1-.09,0L16,11.74l-.31.3.84.84.16-.15a5.53,5.53,0,0,0,1.19-6.05v0A5.56,5.56,0,0,0,12.75,3.26Z" style="fill:#727176"/><path d="M13.37,8.81a.61.61,0,0,0-.43-.59L12.8,5.51s0,0-.05,0,0,0,0,0l-.14,2.71a.62.62,0,0,0-.15,1.11l-.05,1a.16.16,0,0,0,.16.18H13a.18.18,0,0,0,.18-.16v0l-.06-1A.62.62,0,0,0,13.37,8.81Z" style="fill:#727176"/><path d="M13,10.67h-.45a.28.28,0,0,1-.2-.1.3.3,0,0,1-.07-.21l.05-1A.74.74,0,0,1,12.06,9a.73.73,0,0,1,0-.56.75.75,0,0,1,.35-.33l.14-2.63v0a.17.17,0,0,1,.14-.13.16.16,0,0,1,.19.13v0l.14,2.63a.74.74,0,0,1,.43.67.72.72,0,0,1-.28.58l.06,1v0A.3.3,0,0,1,13,10.67Zm-.21-3.73-.07,1.29a.14.14,0,0,1-.09.11.49.49,0,0,0-.29.24.5.5,0,0,0,0,.38.51.51,0,0,0,.21.27.12.12,0,0,1,0,.1l0,1.05s0,0,0,0H13a.06.06,0,0,0,.06,0L13,9.33a.11.11,0,0,1,.06-.1.5.5,0,0,0,.22-.42h0a.49.49,0,0,0-.34-.47.14.14,0,0,1-.09-.11Zm.73,1.87Z" style="fill:#727176"/><rect x="11.09" y="12.49" width="3.34" height="1.36" style="fill:#727176"/><path d="M14.42,14H11.09a.12.12,0,0,1-.12-.12V12.49a.12.12,0,0,1,.12-.12h3.33a.12.12,0,0,1,.12.12v1.36A.12.12,0,0,1,14.42,14Zm-3.21-.23h3.1V12.61h-3.1Z" style="fill:#727176"/><path d="M12.75,2a6.61,6.61,0,0,1,4.69,2,6.58,6.58,0,0,1,1.43,7.27A6.62,6.62,0,0,1,7.26,12.34,6.63,6.63,0,0,1,12.75,2m0-.71a7.3,7.3,0,0,0-4.1,1.25,7.36,7.36,0,0,0-2,10.21,7.5,7.5,0,0,0,2,2,7.33,7.33,0,0,0,8.22,0,7.46,7.46,0,0,0,2-2A7.34,7.34,0,0,0,12.76,1.29Z" style="fill:#727176"/><path d="M6.46,22.79H8.27a.05.05,0,0,1,.05.05h0v2.38a.05.05,0,0,1-.05.05H6.46a0,0,0,0,1,0-.05V22.84A0,0,0,0,1,6.46,22.79Z" style="fill:#fcfcfc"/><path d="M6.5,24.25v-.47a0,0,0,0,1,0,0h.06a0,0,0,0,1,0,0h0v.43a0,0,0,0,1,0,0H6.51a0,0,0,0,1,0,0Z" style="fill:#fff"/><path d="M6.51,24.25v-.47h.06a0,0,0,0,1,0,0h0v.43l0,0H6.51Z" style="fill:#fff"/><path d="M8.23,24.25v-.47H8.16a0,0,0,0,0,0,0h0v.43a0,0,0,0,0,0,0h.07Z" style="fill:#fff"/><path d="M8.22,24.25v-.47H8.16a0,0,0,0,0,0,0h0v.43l0,0h.06Z" style="fill:#fff"/><path d="M6.61,23.8V24a0,0,0,0,0,0,0H8.1a0,0,0,0,0,0,0h0V23.8a0,0,0,0,1,0,0h0a0,0,0,0,0,0,0h0v-.82a0,0,0,0,0,0,0H6.54a0,0,0,0,0,0,0v.82a0,0,0,0,0,0,0h0A0,0,0,0,1,6.61,23.8Z" style="fill:#515151"/><path d="M6.61,24.24v-.19a0,0,0,0,1,0,0H8.1a0,0,0,0,1,0,0h0v.19a0,0,0,0,0,0,0h0a0,0,0,0,1,0,0h0v.82a0,0,0,0,1,0,0H6.54a0,0,0,0,1,0,0V24.3a0,0,0,0,1,0,0h0S6.61,24.26,6.61,24.24Z" style="fill:#515151"/><path d="M7.81,24.68v0s0,0,0,0H7s0,0,0,0a.08.08,0,0,1,0-.07,0,0,0,0,1,0,0,0,0,0,0,1,0,0h.31V23.53l-.28.17H7a0,0,0,0,0,0,0v-.1H7l0,0,.32-.2H7.5s0,0,0,0,0,0,0,0v1.23h.28a0,0,0,0,1,0,0v.06Z" style="fill:#fff"/><path d="M8.62,22.79h1.81a0,0,0,0,1,.05.05h0v2.38a0,0,0,0,1-.05.05H8.62a0,0,0,0,1,0-.05h0V22.84a0,0,0,0,1,0-.05Z" style="fill:#fff"/><path d="M8.66,24.25v-.47a0,0,0,0,1,0,0h.06a0,0,0,0,1,0,0h0v.43a0,0,0,0,1,0,0H8.67A0,0,0,0,1,8.66,24.25Z" style="fill:#fff"/><path d="M8.67,24.25v-.47h.06a0,0,0,0,1,0,0h0v.43l0,0H8.67Z" style="fill:#fff"/><path d="M10.39,24.25v-.47a0,0,0,0,0,0,0h-.06a0,0,0,0,0,0,0h0v.43a0,0,0,0,0,0,0h.06a0,0,0,0,0,0,0Z" style="fill:#fff"/><path d="M10.38,24.25v-.47h-.06a0,0,0,0,0,0,0h0v.43l0,0h.06Z" style="fill:#fff"/><path d="M8.77,23.8V24a0,0,0,0,0,0,0h1.47a0,0,0,0,0,0,0V23.8a0,0,0,0,1,0,0h0a0,0,0,0,0,0,0v-.82a0,0,0,0,0,0,0H8.7a0,0,0,0,0,0,0v.82a0,0,0,0,0,0,0h0A0,0,0,0,1,8.77,23.8Z" style="fill:#515151"/><path d="M8.77,24.28v-.19a0,0,0,0,1,0,0h1.47a0,0,0,0,1,0,0v.19a0,0,0,0,0,0,0h0a0,0,0,0,1,0,0v.82a0,0,0,0,1,0,0H8.7a0,0,0,0,1,0,0v-.82a0,0,0,0,1,0,0h0a0,0,0,0,0,0,0Z" style="fill:#515151"/><path d="M10,24.67v0a0,0,0,0,0,0,0v0H9.1v-.11s0,0,0,0,0,0,0,0l0,0,.28-.29.15-.17L9.66,24a.5.5,0,0,0,0-.13.31.31,0,0,0,0-.1.11.11,0,0,0,0-.08.2.2,0,0,0,0-.08l-.08,0-.1,0-.12,0-.1,0-.07,0,0,0h0s0,0,0,0v-.09h0l0,0,0,0,.08,0a.23.23,0,0,1,.11,0l.12,0a.57.57,0,0,1,.18,0,.36.36,0,0,1,.12.08.42.42,0,0,1,.08.12.36.36,0,0,1,0,.14.66.66,0,0,1,0,.14.58.58,0,0,1-.05.14,1.74,1.74,0,0,1-.11.18c-.06.07-.12.15-.19.22l-.23.23h.63l0,0v0Z" style="fill:#fff"/><path d="M10.78,22.79h1.81a0,0,0,0,1,.05.05h0v2.38a0,0,0,0,1-.05.05H10.78a.05.05,0,0,1,0-.05V22.84A.05.05,0,0,1,10.78,22.79Z" style="fill:#fff"/><path d="M10.82,24.25v-.47h.07a0,0,0,0,1,0,0h0v.43a0,0,0,0,1,0,0h-.07Z" style="fill:#fff"/><path d="M10.83,24.25v-.47h.06a0,0,0,0,1,0,0h0v.43l0,0h-.06Z" style="fill:#fff"/><path d="M12.55,24.25v-.47a0,0,0,0,0,0,0h-.06a0,0,0,0,0,0,0v.43a0,0,0,0,0,0,0h.06A0,0,0,0,0,12.55,24.25Z" style="fill:#fff"/><path d="M12.54,24.25v-.47h-.06s0,0,0,0h0v.43s0,0,0,0h.06Z" style="fill:#fff"/><path d="M10.93,23.8V24a0,0,0,0,0,0,0h1.48a0,0,0,0,0,0,0h0V23.8s0,0,0,0h0s0,0,0,0h0v-.82s0,0,0,0H10.87a0,0,0,0,0,0,0h0v.82a0,0,0,0,0,0,0h0S10.93,23.78,10.93,23.8Z" style="fill:#515151"/><path d="M10.93,24.26v-.19a0,0,0,0,1,0,0h1.48a0,0,0,0,1,0,0h0v.19s0,0,0,0h0s0,0,0,0v.82s0,0,0,0H10.87a0,0,0,0,1,0,0h0v-.82a0,0,0,0,1,0,0h0S10.93,24.28,10.93,24.26Z" style="fill:#515151"/><path d="M12.12,24.35a.39.39,0,0,1,0,.18.38.38,0,0,1-.09.13.51.51,0,0,1-.16.09.66.66,0,0,1-.21,0l-.13,0-.11,0-.08,0,0,0a0,0,0,0,1,0,0h0v-.07a.07.07,0,0,1,0,0,0,0,0,0,1,0,0l0,0,.08,0,.11,0a.3.3,0,0,0,.13,0,.27.27,0,0,0,.13,0l.1-.05a.22.22,0,0,0,.05-.08.18.18,0,0,0,0-.1.22.22,0,0,0,0-.11.27.27,0,0,0-.07-.08.31.31,0,0,0-.12-.05.39.39,0,0,0-.15,0h-.16s0,0,0,0,0,0,0,0V24s0,0,0,0h.15l.12,0a.31.31,0,0,0,.1-.05.24.24,0,0,0,.06-.09.2.2,0,0,0,0-.11.21.21,0,0,0,0-.15l-.08,0a.16.16,0,0,0-.1,0,.25.25,0,0,0-.12,0l-.09,0-.07,0,0,0h0v-.15l0,0,.08,0,.11,0h.13a.52.52,0,0,1,.17,0,.47.47,0,0,1,.12.07.44.44,0,0,1,.08.11.61.61,0,0,1,0,.27.47.47,0,0,1,0,.1l-.09.07-.11.05h0a.28.28,0,0,1,.13,0,.28.28,0,0,1,.11.08.17.17,0,0,1,.06.1A.36.36,0,0,1,12.12,24.35Z" style="fill:#fff"/><path d="M13,22.79h1.81a0,0,0,0,1,.05.05v2.38a0,0,0,0,1-.05.05H13a0,0,0,0,1,0-.05h0V22.84a0,0,0,0,1,0-.05Z" style="fill:#fff"/><path d="M13,24.25v-.47a0,0,0,0,1,0,0h.06a0,0,0,0,1,0,0v.43a0,0,0,0,1,0,0H13A0,0,0,0,1,13,24.25Z" style="fill:#fff"/><path d="M13,24.25v-.47h.06a0,0,0,0,1,0,0v.43l0,0Z" style="fill:#fff"/><path d="M14.72,24.25v-.47h-.07a0,0,0,0,0,0,0v.43a0,0,0,0,0,0,0h.07Z" style="fill:#fff"/><path d="M14.71,24.25v-.47h-.06a0,0,0,0,0,0,0v.43l0,0Z" style="fill:#fff"/><path d="M13.1,23.8V24a0,0,0,0,0,0,0h1.47a0,0,0,0,0,0,0h0V23.8a0,0,0,0,1,0,0h0a0,0,0,0,0,0,0h0v-.82a0,0,0,0,0,0,0H13a0,0,0,0,0,0,0h0v.82a0,0,0,0,0,0,0h0a0,0,0,0,1,0,0Z" style="fill:#595959"/><path d="M13.1,24.28v-.19a0,0,0,0,1,0,0h1.47a0,0,0,0,1,0,0h0v.19a0,0,0,0,0,0,0h0a0,0,0,0,1,0,0h0v.83a0,0,0,0,1,0,0H13a0,0,0,0,1,0,0h0v-.83a0,0,0,0,1,0,0h0A0,0,0,0,0,13.1,24.28Z" style="fill:#595959"/><path d="M14.35,24.35a.13.13,0,0,1,0,.06s0,0,0,0h-.16v.3h0a0,0,0,0,1,0,0H14v-.3h-.61a0,0,0,0,0,0,0v-.14s0,0,0,0l.5-.86h.29v.9h.16l0,0ZM14,23.51h0l-.46.77H14Z" style="fill:#fff"/><path d="M15.11,22.79h1.81a0,0,0,0,1,0,.05h0v2.38a0,0,0,0,1,0,.05H15.11a0,0,0,0,1,0-.05h0V22.84a0,0,0,0,1,0-.05Z" style="fill:#fff"/><path d="M15.15,24.25v-.47a0,0,0,0,1,0,0h.06a0,0,0,0,1,0,0h0v.43a0,0,0,0,1,0,0h-.06a0,0,0,0,1,0,0Z" style="fill:#fff"/><path d="M15.16,24.25v-.47h.06a0,0,0,0,1,0,0h0v.43l0,0h-.06Z" style="fill:#fff"/><path d="M16.88,24.25v-.47a0,0,0,0,0,0,0h-.06a0,0,0,0,0,0,0v.43l0,0h.06A0,0,0,0,0,16.88,24.25Z" style="fill:#fff"/><path d="M16.87,24.25v-.47h-.06a0,0,0,0,0,0,0h0v.43l0,0h.06Z" style="fill:#fff"/><path d="M15.26,23.8V24a0,0,0,0,0,0,0h1.47a0,0,0,0,0,0,0h0V23.8a0,0,0,0,1,0,0h0a0,0,0,0,0,0,0h0v-.82a0,0,0,0,0,0,0H15.19a0,0,0,0,0,0,0h0v.82a0,0,0,0,0,0,0h0a0,0,0,0,1,0,0Z" style="fill:#595959"/><path d="M15.26,24.28v-.19a0,0,0,0,1,0,0h1.47a0,0,0,0,1,0,0h0v.19a0,0,0,0,0,0,0h0a0,0,0,0,1,0,0h0v.83a0,0,0,0,1,0,0H15.19a0,0,0,0,1,0,0h0v-.83a0,0,0,0,1,0,0h0A0,0,0,0,0,15.26,24.28Z" style="fill:#515151"/><path d="M16.45,24.3a.45.45,0,0,1,0,.2.33.33,0,0,1-.11.15.42.42,0,0,1-.16.09.52.52,0,0,1-.21,0H15.8l-.1,0-.08,0,0,0,0,0h0v-.12h.06l.06,0,.1,0,.13,0,.14,0a.21.21,0,0,0,.1-.06.16.16,0,0,0,.07-.09.32.32,0,0,0,0-.14.5.5,0,0,0,0-.12.27.27,0,0,0-.07-.08.16.16,0,0,0-.11-.05.44.44,0,0,0-.16,0h-.25a.13.13,0,0,1,0-.06v-.57a.07.07,0,0,1,0-.06h.7a0,0,0,0,0,0,0v0a.14.14,0,0,1,0,.06s0,0,0,0h-.51v.39H16a.69.69,0,0,1,.2,0,.55.55,0,0,1,.15.08.5.5,0,0,1,.08.12A.51.51,0,0,1,16.45,24.3Z" style="fill:#fff"/><path d="M17.28,22.79h1.81a.05.05,0,0,1,.05.05h0v2.38a.05.05,0,0,1-.05.05H17.28a0,0,0,0,1-.05-.05h0V22.84a0,0,0,0,1,0-.05Z" style="fill:#f9f9f9"/><path d="M17.31,24.25v-.47a0,0,0,0,0,0,0h.06a0,0,0,0,1,0,0v.43a0,0,0,0,1,0,0h-.06A0,0,0,0,0,17.31,24.25Z" style="fill:#fff"/><path d="M17.32,24.25v-.47h.06s0,0,0,0h0v.43s0,0,0,0h-.06Z" style="fill:#fff"/><path d="M19.05,24.25v-.47a0,0,0,0,1,0,0H19a0,0,0,0,0,0,0v.43a0,0,0,0,0,0,0H19A0,0,0,0,1,19.05,24.25Z" style="fill:#fefffd"/><path d="M19,24.25v-.47H19s0,0,0,0h0v.43s0,0,0,0H19Z" style="fill:#fefffd"/><path d="M17.42,23.8V24a0,0,0,0,0,0,0h1.48a0,0,0,0,0,0,0h0V23.8a0,0,0,0,1,0,0h0a0,0,0,0,0,0,0h0v-.82a0,0,0,0,0,0,0H17.36s0,0,0,0v.82s0,0,0,0h0A0,0,0,0,1,17.42,23.8Z"/><path d="M17.42,24.28v-.19a0,0,0,0,1,0,0h1.48a0,0,0,0,1,0,0h0v.19a0,0,0,0,0,0,0h0a0,0,0,0,1,0,0h0v.83l0,0H17.36s0,0,0,0v-.83s0,0,0,0h0a0,0,0,0,0,0,0Z"/><path d="M18.66,24.3a.57.57,0,0,1,0,.18.46.46,0,0,1-.09.15.42.42,0,0,1-.15.11.78.78,0,0,1-.21,0,.45.45,0,0,1-.16,0l-.12-.06a.39.39,0,0,1-.08-.1.52.52,0,0,1-.06-.13l0-.17V24.1a1.09,1.09,0,0,1,0-.18.57.57,0,0,1,0-.18,1.11,1.11,0,0,1,.07-.16.45.45,0,0,1,.11-.13.42.42,0,0,1,.16-.09.52.52,0,0,1,.21,0h.08l.08,0h.06l0,0h0v.12a0,0,0,0,0,0,0h-.1a.51.51,0,0,0-.17,0,.35.35,0,0,0-.29.15.36.36,0,0,0-.07.17.58.58,0,0,0,0,.19l.06,0,.08,0,.09,0h.1a.4.4,0,0,1,.19,0,.57.57,0,0,1,.13.08.83.83,0,0,1,.07.13A1.1,1.1,0,0,1,18.66,24.3Zm-.19,0a.5.5,0,0,0,0-.12.18.18,0,0,0,0-.09.16.16,0,0,0-.08-.05.23.23,0,0,0-.12,0h-.08l-.08,0-.06,0-.07,0a1.64,1.64,0,0,0,0,.23.75.75,0,0,0,0,.16.24.24,0,0,0,.09.08.25.25,0,0,0,.12,0l.13,0,.08-.07.05-.1A.45.45,0,0,0,18.47,24.32Z" style="fill:#fff"/><path d="M12.77,17.25a6.86,6.86,0,0,1,3.83,1.17,6.65,6.65,0,0,1,1,.83,6.27,6.27,0,0,1,.83,1,6.83,6.83,0,0,1-8.33,10.11,6.91,6.91,0,0,1-2.17-1.46,6.83,6.83,0,0,1,4.83-11.66m0-.74A7.57,7.57,0,0,0,7.42,29.44a8.17,8.17,0,0,0,1.12.92,7.57,7.57,0,0,0,11.8-6.28,7.45,7.45,0,0,0-1.29-4.23,7.62,7.62,0,0,0-3.33-2.74,7.42,7.42,0,0,0-2.94-.59Z" style="fill:#727176"/><text transform="translate(10.48 27.49)" style="isolation:isolate;font-size:1.4729156494140625px;fill:#5b5b5b;font-family:DINNextLTPro-Bold, DIN Next LT Pro;font-weight:700">HOURS</text></g></svg>