<svg xmlns="http://www.w3.org/2000/svg" viewBox="0 0 50 60"><defs><style>.cls-1{fill:#fff;}</style></defs><g id="Capa_2" data-name="Capa 2"><g id="Capa_3" data-name="Capa 3"><path class="cls-1" d="M22.68,44.61v2c0,3.32,4.85,3.24,4.26,7.33-.23,1.6-2.94,2-4.15.58-.91-1.11-.62-2.55-1.61-3.55s-3.13-1.14-3.11-.64.51.32,1.16,1.42c.48.8-.49,3.49,1.07,5.89,2.17,3.32,8,2.87,9.78.13a7,7,0,0,0,.08-7.87c-1.6-2.55-4.41-2.78-4.41-4.51v-.8Z"/><path class="cls-1" d="M26.05,41.49a1.94,1.94,0,1,1-1.94-2A2,2,0,0,1,26.05,41.49Z"/><path class="cls-1" d="M34.88,25.64a9.82,9.82,0,0,0-.62-3.18V0H32.48V19.43a9.85,9.85,0,0,0-15,0V0H15.66V22.46a10.09,10.09,0,0,0-.57,2.41L0,31,11.58,53l2.24-1.21L3.58,32.35l11.58-4.73a9.91,9.91,0,0,0,19.47.66l11.64,4.11-11,19.31L37.45,53,50,31ZM25,31a5,5,0,1,1,4.95-5A5,5,0,0,1,25,31Z"/></g></g></svg>