<svg xmlns="http://www.w3.org/2000/svg" viewBox="0 0 157.66 160.15"><defs><style>.cls-1{fill:none;stroke:#f7c90d;stroke-width:7.17px;}.cls-1,.cls-2{stroke-miterlimit:10;}.cls-2{fill:#fff;stroke:#5c7c26;stroke-width:6.15px;}.cls-3{fill:#5c7c26;}</style></defs><g id="Capa_2" data-name="Capa 2"><g id="Capa_4" data-name="Capa 4"><path class="cls-1" d="M48.68,144.15c-26-7.34-45.09-32.54-45.09-62.5,0-29.58,18.65-54.52,44.11-62.22"/><rect class="cls-2" x="49.98" y="3.07" width="104.61" height="154" rx="8.96"/><path class="cls-3" d="M59.56,148.35a1.34,1.34,0,0,1-1.24,1.39l-17.71,0a1.31,1.31,0,0,1-1.23-1.39v-2.89A1.31,1.31,0,0,1,40.62,144l17.71,0a1.31,1.31,0,0,1,1.23,1.4Z"/><path class="cls-3" d="M59.6,131.61A1.34,1.34,0,0,1,58.35,133l-17.7,0a1.31,1.31,0,0,1-1.23-1.39v-2.89a1.33,1.33,0,0,1,1.24-1.4l17.71,0a1.31,1.31,0,0,1,1.23,1.4Z"/><path class="cls-3" d="M59.64,114.87a1.34,1.34,0,0,1-1.25,1.39l-17.7,0a1.31,1.31,0,0,1-1.23-1.39V112a1.33,1.33,0,0,1,1.24-1.4l17.71,0a1.32,1.32,0,0,1,1.23,1.4Z"/><path class="cls-3" d="M59.68,98.13a1.34,1.34,0,0,1-1.24,1.39l-17.71,0A1.32,1.32,0,0,1,39.5,98.1V95.21a1.33,1.33,0,0,1,1.24-1.4l17.71,0a1.32,1.32,0,0,1,1.23,1.4Z"/><path class="cls-3" d="M59.72,81.39a1.34,1.34,0,0,1-1.25,1.39l-17.7,0a1.31,1.31,0,0,1-1.23-1.39V78.47a1.33,1.33,0,0,1,1.24-1.4l17.71,0a1.32,1.32,0,0,1,1.23,1.39Z"/><path class="cls-3" d="M59.76,64.65A1.34,1.34,0,0,1,58.51,66l-17.7,0a1.31,1.31,0,0,1-1.23-1.39V61.73a1.33,1.33,0,0,1,1.24-1.4l17.71,0a1.31,1.31,0,0,1,1.23,1.4Z"/><path class="cls-3" d="M59.8,47.91a1.35,1.35,0,0,1-1.25,1.4l-17.7,0a1.32,1.32,0,0,1-1.23-1.4V45a1.33,1.33,0,0,1,1.24-1.4l17.71,0A1.32,1.32,0,0,1,59.8,45Z"/><path class="cls-3" d="M59.84,31.17a1.34,1.34,0,0,1-1.25,1.39l-17.7,0a1.31,1.31,0,0,1-1.23-1.39V28.25a1.33,1.33,0,0,1,1.24-1.4l17.71,0a1.32,1.32,0,0,1,1.23,1.4Z"/><path class="cls-3" d="M59.88,14.45a1.34,1.34,0,0,1-1.25,1.4l-17.7,0a1.33,1.33,0,0,1-1.24-1.4V11.54a1.33,1.33,0,0,1,1.24-1.4l17.71,0a1.32,1.32,0,0,1,1.23,1.4Z"/><rect class="cls-3" x="83.72" y="2.45" width="45.34" height="70.63" transform="translate(68.46 144.1) rotate(-89.91)"/></g></g></svg>