<svg xmlns="http://www.w3.org/2000/svg" viewBox="0 0 136.98 152"><defs><style>.cls-1{fill:none;stroke:#bfbfbf;stroke-miterlimit:10;stroke-width:6.84px;}.cls-2{fill:#727176;}</style></defs><g id="Capa_2" data-name="Capa 2"><g id="Capa_6" data-name="Capa 6"><path class="cls-1" d="M34.63,131.49c-18.47-10-31.21-31.21-31.21-55.74,0-34.18,24.73-61.88,55.24-61.88"/><g id="Grupo_1521" data-name="Grupo 1521"><path id="Trazado_1903" data-name="Trazado 1903" class="cls-2" d="M54.31,0a4.26,4.26,0,0,1,3.31,4.75V9.5h52.91V4.75A4.25,4.25,0,0,1,113.83,0a4.25,4.25,0,0,1,3.31,4.75V9.5h6.61C131.06,9.5,137,18,137,28.5V133c0,10.5-5.92,19-13.23,19H44.39c-7.31,0-13.23-8.5-13.23-19V28.5c0-10.49,5.92-19,13.23-19H51V4.75A4.27,4.27,0,0,1,54.31,0ZM44.39,19c-3.66,0-6.61,4.25-6.61,9.5V133c0,5.25,3,9.5,6.61,9.5h79.37c3.65,0,6.61-4.25,6.61-9.5V28.5c0-5.24-3-9.5-6.61-9.5Z"/><path id="Trazado_1904" data-name="Trazado 1904" class="cls-2" d="M35,39.4c0-1.39,2-2.52,4.46-2.52h89.19c2.46,0,4.46,1.13,4.46,2.52v5c0,1.38-2,2.51-4.46,2.51H39.48C37,46.94,35,45.81,35,44.43Z"/><path id="Trazado_1908" data-name="Trazado 1908" class="cls-2" d="M49.71,89c0-3,1.4-5.35,3.13-5.35h62.47c1.73,0,3.12,2.39,3.12,5.35V99.68c0,2.95-1.4,5.35-3.12,5.35H52.84c-1.74,0-3.13-2.4-3.13-5.35Z"/></g></g></g></svg>