<svg id="Capa_1" data-name="Capa 1" xmlns="http://www.w3.org/2000/svg" viewBox="0 0 154.5 154"><g id="CALENDARIO"><path d="M26.09,43.79a55.23,55.23,0,0,1,105.31-.44" style="fill:none;stroke:#f7c90d;stroke-miterlimit:10;stroke-width:6.989999771118164px"/><path d="M25.69,33.87A12.27,12.27,0,0,0,13.42,46.14v94.93a12.27,12.27,0,0,0,12.27,12.27H131.25a12.28,12.28,0,0,0,12.28-12.27V46.14a12.27,12.27,0,0,0-12.28-12.27H127v7.77a9.41,9.41,0,0,1-18.82,0V33.87H48.81v7.77a9.41,9.41,0,1,1-18.82,0V33.87Zm7.78,34.37h90a4.7,4.7,0,0,1,4.91,4.44v61.49a4.7,4.7,0,0,1-4.91,4.44h-90a4.7,4.7,0,0,1-4.91-4.44V72.68A4.7,4.7,0,0,1,33.47,68.24Z" style="fill:#5c7c26"/><path d="M35.27,26.89V43.77a4,4,0,0,0,8.07,0V26.89a4,4,0,1,0-8.07,0Z" style="fill:#5c7c26"/><path d="M113.6,27.92V44.8a4,4,0,0,0,8.08,0V27.92a4,4,0,0,0-8.08,0Z" style="fill:#5c7c26"/><rect x="37.16" y="75.91" width="23.81" height="24.37" style="fill:#5c7c26"/><rect x="67.14" y="75.91" width="23.81" height="24.37" style="fill:#5c7c26"/><rect x="37.16" y="105.86" width="23.81" height="24.37" style="fill:#5c7c26"/><rect x="67.14" y="105.86" width="23.81" height="24.37" style="fill:#5c7c26"/><rect x="98.23" y="75.91" width="23.81" height="24.37" style="fill:#5c7c26"/><rect x="98.23" y="105.86" width="23.81" height="24.37" style="fill:#5c7c26"/></g></svg>