<svg xmlns="http://www.w3.org/2000/svg" viewBox="0 0 154.5 154"><defs><style>.cls-1{fill:none;stroke:#f7c90d;stroke-miterlimit:10;stroke-width:6.99px;}.cls-2{fill:#5c7c26;}</style></defs><g id="Capa_2" data-name="Capa 2"><g id="Capa_4" data-name="Capa 4"><path class="cls-1" d="M24.4,123.49A61.3,61.3,0,0,1,70.87,16.24"/><path class="cls-2" d="M114.05,0H74.34a5.33,5.33,0,0,0-5.23,4.83L65.55,79.14H56.21V57.88a3.75,3.75,0,0,0-3.7-3.81h0a3.75,3.75,0,0,0-3.69,3.81V79.14H44.6V65a2.73,2.73,0,0,0-2.68-2.77h0A2.73,2.73,0,0,0,39.21,65V79.14H36A4.47,4.47,0,0,0,31.66,83l-3,21.2a26,26,0,0,1,12.69-3.3c14.82,0,26.83,12.41,26.83,27.73,0,.63-.05,1.25-.09,1.88H82.57a41.42,41.42,0,0,1-2-12.73c0-22.15,17.33-40.11,38.74-40.21V5.43A5.35,5.35,0,0,0,114.05,0Zm-2.69,68.5a5.29,5.29,0,0,1-4.1,5.22A39.58,39.58,0,0,0,78.84,98.24a3.52,3.52,0,0,1-3.26,2.27H73.82a3.59,3.59,0,0,1-3.49-4L75,12.13a5.31,5.31,0,0,1,5.22-4.82H106.1a5.34,5.34,0,0,1,5.26,5.43Zm-66,60.17a4,4,0,1,1-4-4.17A4.1,4.1,0,0,1,45.35,128.67Zm20.49-4v7.91a1.49,1.49,0,0,1-1.47,1.51h0a1.47,1.47,0,0,0-1.4,1.09,23.93,23.93,0,0,1-1.85,4.63,1.54,1.54,0,0,0,.24,1.79h0a1.55,1.55,0,0,1,0,2.14L56,149.38a1.43,1.43,0,0,1-2.07,0,1.43,1.43,0,0,0-1.74-.26A21.91,21.91,0,0,1,47.67,151a1.49,1.49,0,0,0-1.06,1.45h0A1.49,1.49,0,0,1,45.15,154H37.5A1.49,1.49,0,0,1,36,152.49h0A1.49,1.49,0,0,0,35,151a22.24,22.24,0,0,1-4.48-1.92,1.43,1.43,0,0,0-1.74.26h0a1.43,1.43,0,0,1-2.07,0l-5.41-5.6a1.55,1.55,0,0,1,0-2.14h0a1.54,1.54,0,0,0,.25-1.79,24,24,0,0,1-1.86-4.63,1.47,1.47,0,0,0-1.4-1.09h0a1.49,1.49,0,0,1-1.46-1.51v-7.91a1.49,1.49,0,0,1,1.46-1.51h0a1.47,1.47,0,0,0,1.4-1.09,24,24,0,0,1,1.86-4.63,1.54,1.54,0,0,0-.25-1.79h0a1.55,1.55,0,0,1,0-2.14l5.41-5.6a1.43,1.43,0,0,1,2.07,0,1.43,1.43,0,0,0,1.74.26A22.24,22.24,0,0,1,35,106.29,1.49,1.49,0,0,0,36,104.85h0a1.49,1.49,0,0,1,1.47-1.51h7.65a1.49,1.49,0,0,1,1.46,1.51h0a1.49,1.49,0,0,0,1.06,1.44,21.91,21.91,0,0,1,4.47,1.92,1.43,1.43,0,0,0,1.74-.26h0A1.43,1.43,0,0,1,56,108l5.41,5.6a1.55,1.55,0,0,1,0,2.14h0a1.54,1.54,0,0,0-.24,1.79A23.93,23.93,0,0,1,63,122.11a1.47,1.47,0,0,0,1.4,1.09h0A1.49,1.49,0,0,1,65.84,124.71Zm-13.08,4a11.45,11.45,0,1,0-11.44,11.82A11.64,11.64,0,0,0,52.76,128.67Zm72.48-10.85a5.75,5.75,0,1,1-5.75-5.94A5.85,5.85,0,0,1,125.24,117.82Zm29.26-5.65v11.3a2.13,2.13,0,0,1-2.09,2.16h0a2.1,2.1,0,0,0-2,1.57,33.76,33.76,0,0,1-2.64,6.58,2.23,2.23,0,0,0,.35,2.58h0a2.22,2.22,0,0,1,0,3l-7.73,8a2.05,2.05,0,0,1-3,0,2,2,0,0,0-2.49-.36,31.25,31.25,0,0,1-6.37,2.72,2.17,2.17,0,0,0-1.52,2.08h0A2.12,2.12,0,0,1,125,154H114a2.13,2.13,0,0,1-2.09-2.16h0a2.15,2.15,0,0,0-1.52-2.08,31.16,31.16,0,0,1-6.36-2.72,2,2,0,0,0-2.5.36,2,2,0,0,1-3,0l-7.73-8a2.2,2.2,0,0,1,0-3h0a2.22,2.22,0,0,0,.34-2.58,33.73,33.73,0,0,1-2.63-6.58,2.11,2.11,0,0,0-2-1.57h0a2.12,2.12,0,0,1-2.09-2.16v-11.3A2.12,2.12,0,0,1,86.57,110h0a2.11,2.11,0,0,0,2-1.57,33.64,33.64,0,0,1,2.63-6.57,2.22,2.22,0,0,0-.34-2.58,2.21,2.21,0,0,1,0-3.06l7.73-8a2,2,0,0,1,3,0,2,2,0,0,0,2.5.36,31.16,31.16,0,0,1,6.36-2.72,2.15,2.15,0,0,0,1.52-2.08h0A2.13,2.13,0,0,1,114,81.64H125A2.12,2.12,0,0,1,127,83.8h0a2.17,2.17,0,0,0,1.52,2.08,31.25,31.25,0,0,1,6.37,2.72,2,2,0,0,0,2.49-.36,2.05,2.05,0,0,1,3,0l7.73,8a2.23,2.23,0,0,1,0,3.06h0a2.22,2.22,0,0,0-.35,2.58,33.67,33.67,0,0,1,2.64,6.57,2.1,2.1,0,0,0,2,1.57h0A2.13,2.13,0,0,1,154.5,112.17Zm-18.68,5.65c0-9.32-7.31-16.88-16.33-16.88a16.89,16.89,0,1,0,16.33,16.88Z"/></g></g></svg>