<svg xmlns="http://www.w3.org/2000/svg" viewBox="0 0 157.9 160.62"><defs><style>.cls-1{fill:none;stroke:#f7c90d;stroke-width:7.17px;}.cls-1,.cls-2,.cls-3{stroke-miterlimit:10;}.cls-2,.cls-3{fill:#fff;stroke:#5c7c26;}.cls-2{stroke-width:6.62px;}.cls-3{stroke-width:3.93px;}.cls-4{fill:#5c7c26;}</style></defs><g id="Capa_2" data-name="Capa 2"><g id="Capa_4" data-name="Capa 4"><path class="cls-1" d="M41.88,140.7C19.44,131.19,3.59,108,3.59,80.93S19.57,30.47,42.16,21"/><path class="cls-2" d="M147.39,3.31,50,3.5A7.37,7.37,0,0,0,42.79,11l0,138.81A7.33,7.33,0,0,0,50,157.31l97.41-.19a7.37,7.37,0,0,0,7.19-7.51l0-138.81A7.34,7.34,0,0,0,147.39,3.31Z"/><path class="cls-3" d="M104.09,27.3a6.28,6.28,0,0,0-12.54,0l-15.32,0a2.38,2.38,0,0,0-2.44,2.32v2.07a4,4,0,0,0,4.1,3.9l39.85-.08a4,4,0,0,0,4.1-3.91V29.58a2.37,2.37,0,0,0-2.43-2.31Z"/><line class="cls-3" x1="81.22" y1="54.42" x2="137.61" y2="54.31"/><line class="cls-3" x1="81.22" y1="64.05" x2="128.44" y2="63.96"/><line class="cls-3" x1="81.22" y1="73.67" x2="137.6" y2="73.56"/><line class="cls-3" x1="81.22" y1="85.91" x2="115.4" y2="85.84"/><line class="cls-3" x1="81.21" y1="95.53" x2="137.6" y2="95.42"/><path class="cls-4" d="M56.55,86V101.4l16.21,0V85.93Z"/><path class="cls-4" d="M56.54,118.18v15.44l16.21,0V118.15Z"/><line class="cls-3" x1="81.21" y1="118.86" x2="130.9" y2="118.77"/><line class="cls-3" x1="81.2" y1="128.49" x2="124.9" y2="128.4"/><path class="cls-4" d="M56.55,53.73V69.17l16.21,0V53.7Z"/></g></g></svg>