<svg xmlns="http://www.w3.org/2000/svg" viewBox="0 0 50 60"><defs><style>.cls-1{fill:#fff;}</style></defs><g id="Capa_2" data-name="Capa 2"><g id="Capa_3" data-name="Capa 3"><path class="cls-1" d="M12.23,25.35H27.51V58.83h2.73l-.34-.34,4.27-4.23,4.27,4.23-.34.34h2.73V25.35h8.29c.49,0,.88-.55.88-1.22V12.68c0-.68-.39-1.23-.88-1.23H40.83V1.22C40.83.55,40.44,0,40,0H28.39c-.49,0-.88.55-.88,1.22V11.45H10.05a.77.77,0,0,0-.59.32L.29,23.22a1.57,1.57,0,0,0-.23,1.35.93.93,0,0,0,.82.78H7.05v7.73H6.52v4.41l1.54,3.13h1v1.26C7.9,42.17,7,43.63,7,45.38c0,2,1.14,3.56,2.54,3.56a2.42,2.42,0,0,0,2.05-1.44.81.81,0,0,0-.09-.86.36.36,0,0,0-.61.13,1.57,1.57,0,0,1-1.35.94c-.92,0-1.67-1-1.67-2.33s.75-2.33,1.67-2.33c.25,0,.44-.28.44-.61V40.62h1.26l1.54-3.13V33.08h-.54Zm36-2.44h-6l6-7.5Zm-7.42-9h6l-6,7.5ZM29.9,47l4.27-4.23L38.44,47l-4.27,4.23ZM37.21,13.9l-3,3-3-3Zm-6.08-2.45,3-3,3,3Zm6.08,11.46H31.13l3-3Zm0,2.44-3,3-3-3Zm1.23,10.23-4.27,4.23L29.9,35.58l4.27-4.22Zm.64,20.55-3.4-3.36,3.4-3.37Zm0-11.46-3.4-3.36L39.08,38Zm0-11.45-3.4-3.36,3.4-3.36Zm0-11.45-3.4-3.37L39.08,15Zm0-11.46L35.68,7l3.4-3.36ZM37.21,2.44l-3,3-3-3ZM29.26,3.59,32.66,7l-3.4,3.36Zm0,11.45,3.4,3.36-3.4,3.37Zm0,11.46,3.4,3.36-3.4,3.36Zm0,11.45,3.4,3.36-3.4,3.36Zm0,11.45,3.4,3.37-3.4,3.36ZM27.51,22.91h-6l6-7.5Zm-7.42-9h6l-6,7.5Zm-1.75,9h-6l6-7.5Zm-7.42-9h6l-6,7.5Zm-7.75,9,6-7.5v7.5Zm8.19,10H7.93V25.35h3.43Z"/><rect class="cls-1" x="26.08" y="56.87" width="16.27" height="3.13"/></g></g></svg>