<svg xmlns="http://www.w3.org/2000/svg" viewBox="0 0 157.8 160.45"><defs><style>.cls-1,.cls-4{fill:none;}.cls-1{stroke:#f7c90d;stroke-width:7.16px;}.cls-1,.cls-2,.cls-4,.cls-5{stroke-miterlimit:10;}.cls-2,.cls-5{fill:#fff;}.cls-2,.cls-4,.cls-5{stroke:#5c7c26;}.cls-2{stroke-width:6.44px;}.cls-3{fill:#5c7c26;}.cls-4,.cls-5{stroke-width:3.68px;}</style></defs><g id="Capa_2" data-name="Capa 2"><g id="Capa_4" data-name="Capa 4"><path class="cls-1" d="M43.07,140.51C20,131.37,3.58,108,3.58,80.59c0-27.14,16.09-50.34,38.82-59.65"/><polygon class="cls-2" points="154.58 156.99 42.6 157.23 42.33 3.47 154.3 3.23 154.58 156.99 154.58 156.99"/><polygon class="cls-3" points="65.68 118.1 78.66 118.07 78.61 88.19 65.63 88.22 65.68 118.1 65.68 118.1"/><polygon class="cls-3" points="85.88 118.06 98.86 118.03 98.82 96.12 85.84 96.14 85.88 118.06 85.88 118.06"/><polygon class="cls-3" points="106.08 118.02 119.06 117.99 119 84.11 106.02 84.14 106.08 118.02 106.08 118.02"/><polygon class="cls-3" points="126.27 117.97 139.25 117.94 139.17 72.11 126.19 72.14 126.27 117.97 126.27 117.97"/><polyline class="cls-4" points="56.93 34.05 57.06 127.35 137.05 127.23"/><polyline class="cls-5" points="65.7 75.23 92.89 57.1 103.09 71.5 121.13 52.08"/><polygon class="cls-3" points="115.65 44.27 127.81 57.47 133.31 38.41 115.65 44.27"/></g></g></svg>