<svg id="Capa_1" data-name="Capa 1" xmlns="http://www.w3.org/2000/svg" viewBox="0 0 154.5 154"><g id="Capa_2" data-name="Capa 2"><path d="M45.62,140.54c-14.51-5.07-22.75-15.47-26.88-20.77a67.94,67.94,0,0,1-14-49.62,68.8,68.8,0,0,1,9.19-27.49A57.12,57.12,0,0,1,27,27.22,56.08,56.08,0,0,1,42.53,18.4a57.87,57.87,0,0,1,23.4-3.56L56.09,22.2C51,23.41,33.44,28.24,21.87,45a57.73,57.73,0,0,0-9.5,26.2,59.61,59.61,0,0,0,12.47,43.63c2.22,2.81,9.11,11.67,18.94,16.05,2.21,1,6.63,2.67,11.25,4.13,2,.65,3.71,1.13,4.82,1.43L55,142.85A49.63,49.63,0,0,1,45.62,140.54Z" style="fill:#f7c90d"/><path d="M54,24a11.1,11.1,0,1,1,11.1,11.1A11.1,11.1,0,0,1,54,24Zm25.41,40.9V75.51h29.28v68.6h12.58V75.51h29.44V64.93ZM93.94,82.21H64.09L67,62H94.81a7,7,0,0,0,0-13.9H69l1.38-9.48a1.59,1.59,0,0,0-1.6-1.6H56.69a1.6,1.6,0,0,0-1.59,1.6l-19,57.34a1.6,1.6,0,0,0,1.58,1.61H80.22l0,39a7.7,7.7,0,0,0,15.39,0l0-52.72A1.6,1.6,0,0,0,93.94,82.21ZM39.73,107H55.14v36.08h6.63V107H77.26v-5.58H39.73ZM140.32,50.73H105.94V61h34.38Zm-27.4-2h34.36V38.48H112.92Zm-.58-12.2h34.37V26.29H112.34Zm29.45-22.28H107.42V24.54h34.37Z" style="fill:#5c7c26"/></g></svg>