<svg id="Capa_1" data-name="Capa 1" xmlns="http://www.w3.org/2000/svg" viewBox="0 0 154.5 154"><g id="Capa_8" data-name="Capa 8"><path d="M27.11,130.2a60.49,60.49,0,0,1-13-12.41,63.15,63.15,0,0,1-8.91-15.51C-2.93,81.72,3,62.66,4,59.86A61.6,61.6,0,0,1,19.4,35,62.93,62.93,0,0,1,40.33,21.68a52.76,52.76,0,0,1,31.59-3.21l-2.54,7.91a54.83,54.83,0,0,0-25.69,2.33A53.35,53.35,0,0,0,25.28,39.48a53.74,53.74,0,0,0-14.7,22.76c-6.69,20.29,1.17,37.62,2.88,41.16a54.11,54.11,0,0,0,11.67,15.93,52.59,52.59,0,0,0,19.54,11.54,51.69,51.69,0,0,0,24.49,1.72l4.94,7a67.94,67.94,0,0,1-25.94-.65A57.73,57.73,0,0,1,27.11,130.2Z" style="fill:#f7c90d"/></g><path d="M152.65,90.52s-3.71-1.75-7.48-3.25c-2.35-1-4.69-1.81-6.14-2.3,0,0,.31-6.53.31-7,0-1.36-.43-3.2-.22-4.49.36-2.08,4.16-2.56,6-3.35,3.77-1.47,7.48-3.25,7.48-3.25,1.17-.21,2.08-1.26,1.8-2.25,0,0-.39-1.54-.78-3.05-.21-.78-.39-1.54-.54-2.11s-.3-.94-.3-.94a2.07,2.07,0,0,0-2.72-1s-4.06.3-8.07.88c-2,.27-4,.64-5.45.87-.36.09-.69.18-1,.24.13-.06-6.11-10.6-6.32-10.85,1-1.16,2.65-3.06,4.22-5.11,1.26-1.57,2.5-3.22,3.37-4.46s1.45-2,1.45-2a2,2,0,0,0,.39-2.83l-2.14-2.32c-1.15-1.05-2.32-2.14-2.32-2.14a2,2,0,0,0-2.8.39s-.85.57-2.08,1.48-2.86,2-4.49,3.31c-2,1.59-3.92,3.23-5.09,4.22-.63-.45-1.23-.91-1.78-1.32a52.7,52.7,0,0,0-8.83-4.89l-.21-.09c.07-.3.12-.63.19-1,.27-1.48.6-3.47.9-5.46.57-4,.87-8.1.87-8.1a2,2,0,0,0-1-2.68,6.47,6.47,0,0,0-.94-.26c-.57-.18-1.32-.37-2.1-.58l-3-.78a2,2,0,0,0-2.27,1.77s-1.77,3.74-3.25,7.48c-1,2.35-1.81,4.73-2.29,6.17,0-.06-3.11-.11-6.26-.11V32.7c1.85,0,3.4,0,4.45,0l3.72.14c.24-.72,2.44-5.68,3.54-8.35,1.14-2.9,2.47-5.8,3-6.87l3.09.81c-.09,1.13-.37,4.34-.81,7.44-.29,1.93-.62,3.88-.89,5.33-.05.35-.11.64-.17.91l-.54,2.64L107.61,36l.2.07.54.27A46.37,46.37,0,0,1,116,40.55c.51.39,1.15.88,1.82,1.35L120,43.45l2-1.72c1.15-1,3.05-2.58,5-4.16,1.56-1.21,3.13-2.38,4.27-3.16.75-.54,1.34-1,1.7-1.2l1.17,1.07,1.08,1.17c-.27.38-.69,1-1.19,1.69-.91,1.29-2.11,2.89-3.21,4.25-1.2,1.57-2.57,3.23-4.13,5l-2,2.24,1.79,2.07c.82,1.32,5.46,9.16,5.94,10.14l3.79,2c.26,0,.54-.12.84-.2l.18,0,1.22-.2c1.21-.21,2.59-.44,4-.63,3.16-.46,6.38-.73,7.48-.83,0,0,.27,1.08.4,1.56l.39,1.53c-1,.49-3.94,1.83-6.84,3a13.32,13.32,0,0,1-1.43.47c-2.28.68-6.1,1.83-6.74,5.46a12.7,12.7,0,0,0,.06,3.5,10.56,10.56,0,0,1,.1,1.42c0,.42-.07,1.75-.13,3.16-.24,5.27-.24,5.27.77,6.34l.59.61.8.27c.71.24,3.24,1.1,5.93,2.2,2.93,1.18,5.84,2.51,6.9,3l-.42,1.6c-.09.37-.21.82-.32,1.24a2,2,0,0,0,0,.24c-1.1-.09-4.32-.37-7.46-.82-1.43-.2-2.82-.43-4-.64l-1.21-.2-.82-.18L133.34,94l-.93,2.72a57.74,57.74,0,0,1-5.86,10l-1.67,2.21L126.7,111c.65.74,2.34,2.71,4.09,5,1.29,1.64,2.48,3.2,3.28,4.34l1.15,1.66-1.07,1.18L133,124.22c-.35-.24-.94-.64-1.65-1.15-1.3-.91-2.89-2.1-4.37-3.25s-3.18-2.6-4.33-3.58L120,114l-2.16,1.53c-.67.49-1.32,1-1.9,1.43a35.9,35.9,0,0,1-8,4.39l-.5.22-2.32,1.18.53,2.55c.05.27.11.56.16.89.27,1.49.6,3.41.89,5.39.44,3.08.72,6.29.81,7.41l-.2.05-1.36.36-1.53.39c-.5-1.07-1.83-4-3-6.82s-2-5.28-2.22-6l-1-2.82-2.92.55a8.44,8.44,0,0,1-1.57.18l-.88,0-3.18-.14v3.42c2,.07,3.7.16,4.06.17A12.86,12.86,0,0,0,96,128c.48,1.44,1.33,3.82,2.29,6.17,1.48,3.74,3.25,7.47,3.25,7.47a2,2,0,0,0,2.27,1.78l3-.79,2.1-.54a7.71,7.71,0,0,0,.94-.3,2,2,0,0,0,1-2.68s-.3-4.1-.87-8.08c-.3-2-.63-4-.9-5.48-.07-.36-.12-.69-.19-1l.21-.09a39.41,39.41,0,0,0,8.83-4.88c.55-.43,1.15-.87,1.78-1.33,1.17,1,3.1,2.66,5.09,4.22,1.63,1.27,3.25,2.47,4.49,3.34s2.08,1.45,2.08,1.45a1.93,1.93,0,0,0,2.8.39s1.17-1.08,2.32-2.11l2.14-2.35a2,2,0,0,0-.39-2.8s-.61-.84-1.45-2.08-2.11-2.86-3.37-4.46c-1.57-2-3.2-3.94-4.22-5.11a61.91,61.91,0,0,0,6.24-10.61c0-.06.05-.12.08-.21.31.06.64.12,1,.21,1.47.24,3.46.6,5.45.87,4,.58,8.07.88,8.07.88a2.08,2.08,0,0,0,2.72-1s.14-.36.3-1,.33-1.33.54-2.08l.78-3.08C154.73,91.79,153.82,90.76,152.65,90.52Z" style="fill:#5c7c26"/><path d="M84.85,124.55c-1.46,0-3.66,0-4.56,2.23-.37,1-.69,1.84-1,2.74-.42,1.14-.83,2.28-1.29,3.42-1.15,2.85-2.48,5.75-3,6.82l-1.59-.4L72,139l-.11,0c.1-1.12.38-4.32.85-7.39.25-1.86.55-3.73.87-5.32.08-.43.13-.72.18-1l.58-2.89-2.82-1-.47-.22c-.42-.21-.82-.41-1.22-.58a55.34,55.34,0,0,1-8.22-5l-2.2-1.63-2.07,1.79c-.86.75-2.89,2.5-5,4.1-1.39,1.1-3,2.28-4.33,3.25l-1.66,1.16-1.18-1.08L44.2,122c.24-.35.64-.93,1.16-1.65,1-1.4,2.16-3,3.23-4.32.21-.26.52-.57.84-.91,1.78-1.85,4.76-5,3.16-8.56a32.66,32.66,0,0,0-2.94-5.13,25.25,25.25,0,0,1-2.55-4.48L47,96.76,46.15,94l-3.22.65c-.24,0-.5.09-.78.16L41.09,95c-1.23.21-2.69.46-4.16.65-3.17.46-6.4.74-7.48.83-.12-.46-.25-1-.37-1.44l-.42-1.65c1.07-.51,4-1.82,6.83-3,2.44-1,4.8-1.82,6-2.22l2.75-.92-.47-2.87c-.1-1.08,0-10.69,0-11.77l-2.33-3.44c-.7-.23-3.21-1.08-6-2.21-2.9-1.15-5.78-2.47-6.86-3l.4-1.57c.14-.59.27-1.09.39-1.53,1.09.09,4.31.37,7.46.82,1.48.2,2.93.45,4.16.67l1.07.18.15,0a11,11,0,0,0,1.19.22l2.59.27,1-2.42a37,37,0,0,1,4.54-8.28l1.31-1.73,1.62-2.18-2.3-2.71c-1-1.14-2.31-2.7-3.56-4.34-1.05-1.3-2.12-2.74-3.27-4.36L44.2,35.45l1.07-1.15,1.19-1.1c.34.24.91.64,1.6,1.15,1.31.9,2.86,2,4.35,3.23,2.4,1.89,4.42,3.63,5,4.12l2,1.79,2.2-1.61a58.53,58.53,0,0,1,8.25-5c.42-.18.84-.38,1.28-.6l.45-.22,2.88-.94-.69-2.93c0-.27-.1-.57-.16-.91-.31-1.53-.63-3.44-.89-5.34-.47-3.12-.75-6.31-.84-7.45.21-.07,1.57-.43,1.57-.43L75,17.66c.5,1.07,1.84,4,3,6.84.9,2.28,1.74,4.63,2.24,6l1,2.69L84,32.76c.18,0,1.66-.06,5.25-.06h.46V29.29c-2.87,0-5.75,0-6.27.11-.51-1.44-1.36-3.82-2.29-6.17-1.51-3.74-3.28-7.48-3.28-7.48A2,2,0,0,0,75.65,14l-3.07.78c-.76.21-1.51.4-2.08.58a7.91,7.91,0,0,0-1,.26,2.06,2.06,0,0,0-1,2.68s.3,4.1.9,8.1c.27,2,.61,4,.91,5.46q.09.54.18,1l-.24.09c-.64.31-1.21.61-1.78.85a62.94,62.94,0,0,0-8.83,5.36c-1.14-1-3.06-2.63-5.09-4.22-1.6-1.26-3.22-2.47-4.45-3.31S48,30.12,48,30.12a2,2,0,0,0-2.83-.39S44,30.82,42.88,31.87s-2.14,2.32-2.14,2.32A2,2,0,0,0,41.13,37l1.45,2c.87,1.24,2.07,2.89,3.34,4.46,1.57,2,3.22,3.95,4.22,5.11-.46.61-.91,1.22-1.33,1.76a40.6,40.6,0,0,0-5,9.06,8.86,8.86,0,0,1-1-.21c-1.45-.23-3.44-.6-5.43-.87-4-.58-8.07-.88-8.07-.88a2.06,2.06,0,0,0-2.71,1,8.55,8.55,0,0,0-.3.94c-.16.57-.36,1.33-.54,2.11-.4,1.51-.79,3.05-.79,3.05a2,2,0,0,0,1.78,2.25s3.7,1.75,7.47,3.25c2.35,1,4.73,1.81,6.17,2.3,0,0-.18,11.44,0,12.52-1.44.49-3.82,1.32-6.17,2.3-3.77,1.5-7.47,3.25-7.47,3.25-1.15.24-2.05,1.27-1.78,2.25,0,0,.39,1.54.79,3.08.18.75.38,1.54.54,2.08a7.43,7.43,0,0,0,.3,1,2.06,2.06,0,0,0,2.71,1s4.06-.3,8.07-.88c2-.27,4-.63,5.43-.87l1-.21a1.46,1.46,0,0,0,.09.21c1.39,3.55,4.07,6.3,5.55,9.76.87,2-2.42,4.52-3.56,6-1.27,1.6-2.47,3.23-3.34,4.46s-1.45,2.08-1.45,2.08a2,2,0,0,0-.39,2.8s1,1.18,2.14,2.35,2.29,2.11,2.29,2.11A2,2,0,0,0,48,127.3s.84-.57,2.08-1.45,2.85-2.07,4.45-3.34c2-1.56,3.95-3.23,5.09-4.22a58.75,58.75,0,0,0,8.83,5.37c.57.24,1.14.54,1.78.84l.24.09q-.09.45-.18,1c-.3,1.51-.64,3.47-.91,5.48-.6,4-.9,8.08-.9,8.08a2,2,0,0,0,1,2.68,9.86,9.86,0,0,0,1,.3c.57.15,1.32.33,2.08.54l3.07.79a2,2,0,0,0,2.23-1.78s1.77-3.73,3.28-7.47c.81-2,1.51-4.1,2.29-6.15a42.78,42.78,0,0,1,6.27,0v-3.42C88,124.61,86.11,124.55,84.85,124.55Z" style="fill:#5c7c26"/><path d="M84,32.76l-2.82.47-1-2.69c-.5-1.41-1.34-3.76-2.24-6-1.15-2.87-2.49-5.77-3-6.84L73.49,18s-1.36.36-1.57.43c.09,1.14.37,4.33.84,7.45.26,1.9.58,3.81.89,5.34.06.34.11.64.16.91l.69,2.93L71.62,36l-.45.22c-.44.22-.86.42-1.28.6a58.53,58.53,0,0,0-8.25,5l-2.2,1.61-2-1.79c-.56-.49-2.58-2.23-5-4.12-1.49-1.18-3-2.33-4.35-3.23-.69-.51-1.26-.91-1.6-1.15l-1.19,1.1L44.2,35.45l1.16,1.65c1.15,1.62,2.22,3.06,3.27,4.36,1.25,1.64,2.59,3.2,3.56,4.34l2.3,2.71-1.62,2.18-1.31,1.73A37,37,0,0,0,47,60.7l-1,2.42-2.59-.27a11,11,0,0,1-1.19-.22l-.15,0-1.07-.18c-1.23-.22-2.68-.47-4.16-.67-3.15-.45-6.37-.73-7.46-.82-.12.44-.25.94-.39,1.53L28.66,64c1.08.5,4,1.82,6.86,3,2.75,1.13,5.26,2,6,2.21l2.33,3.44c-.05,1.08-.14,10.69,0,11.77l.47,2.87-2.75.92c-1.2.4-3.56,1.22-6,2.22-2.87,1.15-5.76,2.46-6.83,3l.42,1.65c.12.48.25,1,.37,1.44,1.08-.09,4.31-.37,7.48-.83,1.47-.19,2.93-.44,4.16-.65l1.06-.18c.28-.07.54-.12.78-.16L46.15,94,47,96.76l.06.17a25.25,25.25,0,0,0,2.55,4.48,32.66,32.66,0,0,1,2.94,5.13c1.6,3.6-1.38,6.71-3.16,8.56-.32.34-.63.65-.84.91-1.07,1.36-2.25,2.92-3.23,4.32-.52.72-.92,1.3-1.16,1.65l1.07,1.17,1.18,1.08,1.66-1.16c1.37-1,2.94-2.15,4.33-3.25,2.06-1.6,4.09-3.35,5-4.1l2.07-1.79,2.2,1.63a55.34,55.34,0,0,0,8.22,5c.4.17.8.37,1.22.58l.47.22,2.82,1-.58,2.89c0,.28-.1.57-.18,1-.32,1.59-.62,3.46-.87,5.32-.47,3.07-.75,6.27-.85,7.39l.11,0,1.4.37,1.59.4c.5-1.07,1.83-4,3-6.82.46-1.14.87-2.28,1.29-3.42.32-.9.64-1.79,1-2.74.9-2.23,3.1-2.23,4.56-2.23,1.26,0,3.14.06,4.87.12V103.61a24.9,24.9,0,0,1,0-49.8V32.7h-.46C85.67,32.7,84.19,32.75,84,32.76Z" style="fill:#5c7c26"/><path d="M114.62,78.71a24.93,24.93,0,0,1-24.9,24.9v21.06l3.18.14.88,0a8.44,8.44,0,0,0,1.57-.18l2.92-.55,1,2.82c.24.73,1.11,3.29,2.22,6s2.46,5.75,3,6.82l1.53-.39,1.36-.36.2-.05c-.09-1.12-.37-4.33-.81-7.41-.29-2-.62-3.9-.89-5.39-.05-.33-.11-.62-.16-.89l-.53-2.55,2.32-1.18.5-.22a35.9,35.9,0,0,0,8-4.39c.58-.46,1.23-.94,1.9-1.43L120,114l2.67,2.26c1.15,1,2.73,2.32,4.33,3.58s3.07,2.34,4.37,3.25c.71.51,1.3.91,1.65,1.15l1.17-1.06,1.07-1.18-1.15-1.66c-.8-1.14-2-2.7-3.28-4.34-1.75-2.25-3.44-4.22-4.09-5l-1.82-2.09,1.67-2.21a57.74,57.74,0,0,0,5.86-10l.93-2.72,3.12.63.82.18,1.21.2c1.22.21,2.61.44,4,.64,3.14.45,6.36.73,7.46.82a2,2,0,0,1,0-.24c.11-.42.23-.87.32-1.24l.42-1.6c-1.06-.49-4-1.82-6.9-3-2.69-1.1-5.22-2-5.93-2.2l-.8-.27-.59-.61c-1-1.07-1-1.07-.77-6.34.06-1.41.12-2.74.13-3.16a10.56,10.56,0,0,0-.1-1.42,12.7,12.7,0,0,1-.06-3.5c.64-3.63,4.46-4.78,6.74-5.46a13.32,13.32,0,0,0,1.43-.47c2.9-1.13,5.81-2.47,6.84-3l-.39-1.53c-.13-.48-.4-1.56-.4-1.56-1.1.1-4.32.37-7.48.83-1.4.19-2.78.42-4,.63l-1.22.2-.18,0c-.3.08-.58.15-.84.2l-3.79-2c-.48-1-5.12-8.82-5.94-10.14l-1.79-2.07,2-2.24c1.56-1.78,2.93-3.44,4.13-5,1.1-1.36,2.3-3,3.21-4.25.5-.73.92-1.31,1.19-1.69l-1.08-1.17L133,33.21c-.36.24-.95.66-1.7,1.2-1.14.78-2.71,2-4.27,3.16-2,1.58-3.87,3.18-5,4.16l-2,1.72L117.8,41.9c-.67-.47-1.31-1-1.82-1.35a46.37,46.37,0,0,0-7.63-4.24l-.54-.27-.2-.07-2.53-1.19.54-2.64c.06-.27.12-.56.17-.91.27-1.45.6-3.4.89-5.33.44-3.1.72-6.31.81-7.44l-3.09-.81c-.5,1.07-1.83,4-3,6.87-1.1,2.67-3.3,7.63-3.54,8.35l-3.72-.14c-1,0-2.6,0-4.45,0V53.81A24.93,24.93,0,0,1,114.62,78.71Z" style="fill:#5c7c26"/><path d="M114.62,78.71a24.93,24.93,0,0,1-24.9,24.9v3.8a28.7,28.7,0,0,0,0-57.39v3.79A24.93,24.93,0,0,1,114.62,78.71Z" style="fill:#5c7c26"/><path d="M64.82,78.71a24.93,24.93,0,0,1,24.9-24.9V50a28.7,28.7,0,0,0,0,57.39v-3.8A24.93,24.93,0,0,1,64.82,78.71Z" style="fill:#5c7c26"/><path d="M71.1,78.08,68.47,78a21.13,21.13,0,0,1,41.42-5.15l-2.52.73A18.51,18.51,0,0,0,71.1,78.08Z" style="fill:#5c7c26"/><polygon points="105.14 72.88 109.39 77.87 111.59 71.69 105.14 72.88" style="fill:#5c7c26"/><path d="M89.59,99.84A21.19,21.19,0,0,1,69.22,84.37l2.54-.7a18.5,18.5,0,0,0,36.32-4.36l2.63.08A21,21,0,0,1,89.59,99.84Z" style="fill:#5c7c26"/><polygon points="73.98 84.39 69.78 79.35 67.52 85.5 73.98 84.39" style="fill:#5c7c26"/><path d="M93.61,84a.87.87,0,0,1,0-1.23l-9-9-1.39,1.39,2.64,2.09,7.36,7.91a1.31,1.31,0,0,0,1.85,0l.46-.47-.7-.7A.87.87,0,0,1,93.61,84Z" style="fill:#5c7c26"/><path d="M86,72.35l-1.39,1.39,9,9a.87.87,0,0,1,1.23,0,.89.89,0,0,1,0,1.23l.7.7L96,84.2a1.31,1.31,0,0,0,0-1.85l-8-7.4Z" style="fill:#5c7c26"/><path d="M93.61,84a.87.87,0,0,1,0-1.23l-.18-.18A1.12,1.12,0,1,0,95,84.14L94.84,84A.87.87,0,0,1,93.61,84Z" style="fill:#5c7c26"/><path d="M94.84,82.73a.89.89,0,0,1,0,1.23l.18.18a1.12,1.12,0,0,0-1.59-1.59l.18.18A.87.87,0,0,1,94.84,82.73Z" style="fill:#5c7c26"/><path d="M87.67,75.3,86,73.13l-1.95,2,2.22,1.76L93,84.09a2.77,2.77,0,0,0,.66-.12h0a.87.87,0,1,1,1.23-1.23l.08.1c.15-.18,0-.7.08-.7Z" style="fill:#5c7c26"/><path d="M95,82.54a1.11,1.11,0,0,0-1.57,0,1.12,1.12,0,0,0-.08,1.5.83.83,0,0,0,.28-.08h0a.87.87,0,1,1,1.23-1.23l.08.1A.43.43,0,0,0,95,82.54Z" style="fill:#5c7c26"/><path d="M84,75.08l1.15.91a5,5,0,0,0,1-.77,4.39,4.39,0,0,0,.7-.92L86,73.13Z" style="fill:#5c7c26"/><path d="M81.53,66.31,85,70.55l-1,2.42-2.42,1-4.24-3.43a5.11,5.11,0,1,0,4.26-4.26Z" style="fill:#5c7c26"/><path d="M85.37,74.36h0l-.28.1-.13,0a3.54,3.54,0,0,1-.64.25.61.61,0,0,1-.13,0A2.83,2.83,0,0,1,82,75.4l.12-.1a25.43,25.43,0,0,1,2.13-1.62l.26-.15L83.94,73l-2.42,1-4.24-3.43a.22.22,0,0,0,0,.08l0,0A5.1,5.1,0,0,0,85.88,75s0,0,0,0A3.92,3.92,0,0,1,85.37,74.36Z" style="fill:#5c7c26"/><path d="M85.74,74.78a4.83,4.83,0,0,1-6.82-.11,4.91,4.91,0,0,1-1.45-3.15l3.93,3.21,3-1.25,1.25-3-3.3-3.82A5.17,5.17,0,0,1,85.63,68,4.84,4.84,0,0,1,85.74,74.78Z" style="fill:#5c7c26"/><path d="M88.66,80.22,92,83.38,94.13,86l1.39-1.39-5.29-5.29A4.13,4.13,0,0,1,88.66,80.22Z" style="fill:#5c7c26"/><path d="M91.27,77.93a4.28,4.28,0,0,1-.86,1.26l-.18.16,5.29,5.29,1.39-1.39-2.6-2Z" style="fill:#5c7c26"/><path d="M91,78.42c-.17.28-.47.43-.7.66a4.2,4.2,0,0,1-1.12,1l3.23,3,1.76,2.21,1.94-1.94L94,81.58Z" style="fill:#5c7c26"/><path d="M94.18,85.24l-.91-1.14a4.67,4.67,0,0,1,.76-1,5.14,5.14,0,0,1,.92-.71l1.17.93Z" style="fill:#5c7c26"/><path d="M103,87.73,98.7,84.29l-2.42,1-1,2.43L98.69,92A5.11,5.11,0,1,1,103,87.73Z" style="fill:#5c7c26"/><path d="M94.3,83.33l0,0A5.11,5.11,0,0,0,98.65,92l0,0h.09l-3.44-4.24,1-2.43-.57-.57-.14.25A22.53,22.53,0,0,1,94,87.12l-.11.13a2.93,2.93,0,0,1,.63-2.17l0-.12a3.67,3.67,0,0,1,.26-.65.5.5,0,0,1,0-.12l.09-.28v0A4.45,4.45,0,0,1,94.3,83.33Z" style="fill:#5c7c26"/><path d="M94.48,83.52a4.83,4.83,0,0,0,.11,6.82,4.91,4.91,0,0,0,3.14,1.45l-3.2-3.93,1.25-3,3-1.25,3.82,3.31a5.15,5.15,0,0,0-1.34-3.25A4.83,4.83,0,0,0,94.48,83.52Z" style="fill:#5c7c26"/></svg>