<svg xmlns="http://www.w3.org/2000/svg" viewBox="0 0 50 60"><defs><style>.cls-1{fill:#fff;}</style></defs><g id="Capa_2" data-name="Capa 2"><g id="Capa_3" data-name="Capa 3"><path class="cls-1" d="M13.77,41.52c1.51-3.78,3.77-6.31,4.93-9.17a.17.17,0,0,0-.09-.21,2.56,2.56,0,0,1-1.35-3.54.58.58,0,0,1,.08-.18,4.44,4.44,0,0,1,3.28-2,4,4,0,0,1,1.77.24,3.12,3.12,0,0,1,1.87,1.75A2.57,2.57,0,0,1,24,30.82a4.08,4.08,0,0,1-3.05,1.74,4.23,4.23,0,0,1-1.42-.1h-.09a.23.23,0,0,0-.19.13c-1.17,2.88-3.38,5.27-4.85,9A43.28,43.28,0,0,0,20,41.27c2.31-4.4,7-8.79,8.72-12l1-2C31.84,23.43,34,19.4,36,15.41l.24-.47c1.8-3.51,3.84-7.49,2-11.13a6.68,6.68,0,0,0-7-3.77,12.72,12.72,0,0,0-9,5.49,41.35,41.35,0,0,0-4,9.52c-.31.92-.61,1.83-.93,2.73l-.85,2.42c-3.63,10.3-4.19,10.3-6.95,20.94A41.55,41.55,0,0,0,13.77,41.52ZM26.51,6.22A.64.64,0,0,1,26.59,6a5.14,5.14,0,0,1,3.81-2.3,4.43,4.43,0,0,1,2,.28,3.57,3.57,0,0,1,2.17,2,3,3,0,0,1-.37,2.79,4.77,4.77,0,0,1-3.55,2,4.92,4.92,0,0,1-2.15-.28C26.47,9.8,25.65,8.06,26.51,6.22Z"/><path class="cls-1" d="M10.48,32.09a.3.3,0,0,1-.13,0,23.5,23.5,0,0,0-2.41-.84c-.4-.13-.81-.25-1.21-.39-1.59-.54-2.35-1.25-2.26-2.11A5.65,5.65,0,0,1,5,27.2c.1-.22.2-.44.28-.65A124.11,124.11,0,0,1,12.5,10.62C13.55,9,16,8.63,18.22,8.27l.56-.09a.31.31,0,0,1,.19.06.15.15,0,0,1,0,.18c-.54,1.28-1,2.57-1.43,3.83l-.2.59c-.74,2.12-1.49,4.23-2.24,6.35-1.48,4.18-3,8.5-4.46,12.76a.22.22,0,0,1-.12.13Z"/><path class="cls-1" d="M8.91,28.85c-.77-.19-1.56-.3-2.33-.42l-.35-.05H6.11l-.07,0a.2.2,0,0,0-.11.13c-1.1,4.07-2.36,8.19-3.57,12.17l-.75,2.48a6,6,0,0,1,3.56-1.13c1.27-4.33,2.58-8.67,3.9-13A.2.2,0,0,0,8.91,28.85Z"/><path class="cls-1" d="M20.85,31.26a2.82,2.82,0,0,1-1.12-.12,1.68,1.68,0,0,1-1.06-.81A1.47,1.47,0,0,1,18.78,29a2.44,2.44,0,0,1,1.86-1.14,2.13,2.13,0,0,1,1.8.64,1.53,1.53,0,0,1,.07,1.85A2.07,2.07,0,0,1,20.85,31.26Z"/><path class="cls-1" d="M41.62,54.92C36.5,61,26.1,61.16,19.4,57.77,13.85,55,10.94,49.59,9.49,45.6a.16.16,0,0,1,0-.16h0a.24.24,0,0,1,.2-.07c10,.83,19.06-.82,27-4.9A34.62,34.62,0,0,0,47.41,32c.2-.23.39-.46.57-.7.49-.62,1.06-1.37,1.56-2.14l0,0a.25.25,0,0,1,.24-.07.19.19,0,0,1,.16.17c-.47,9.33-4,17.95-7,23.55A11.51,11.51,0,0,1,41.62,54.92Z"/><path class="cls-1" d="M46.67,32.15A35.1,35.1,0,0,1,35.76,40.4c-7.47,3.85-16.35,5.35-26.39,4.46a.23.23,0,0,1-.19-.13c-.21-.63-.4-1.28-.57-1.92a.15.15,0,0,1,0-.14s0,0,0,0a.28.28,0,0,1,.2,0,43.93,43.93,0,0,0,24.49-3.44A34.57,34.57,0,0,0,44.1,31.63c.2-.2.38-.4.55-.6,1.93-2.31,2-4.67,2.09-7.4,0-.41,0-.83,0-1.25a.18.18,0,0,1,0-.1A.28.28,0,0,1,47,22.2c.51-.07,1-.12,1.55-.17l.86-.09a.22.22,0,0,1,.24.15A36.53,36.53,0,0,1,50,26.88,15.51,15.51,0,0,1,47.61,31l-.09.11C47.25,31.43,47,31.79,46.67,32.15Z"/><path class="cls-1" d="M7.46,48.8a5.76,5.76,0,0,1-3.81.83,4.66,4.66,0,0,1-3.06-2A2.8,2.8,0,0,1,0,45.55a3.47,3.47,0,0,1,1.14-2,6,6,0,0,1,4.26-1.48.21.21,0,0,1,.2.15,26.5,26.5,0,0,0,1.91,6.37.17.17,0,0,1,0,.19Z"/></g></g></svg>