<svg xmlns="http://www.w3.org/2000/svg" viewBox="0 0 50 60"><defs><style>.cls-1{fill:#fff;}</style></defs><g id="Capa_2" data-name="Capa 2"><g id="Capa_3" data-name="Capa 3"><path class="cls-1" d="M12.93,41.4A6.65,6.65,0,0,1,19.76,35H38.22a19.66,19.66,0,0,0-18.5-12.07C8.85,22.91,0,31.23,0,41.45S8.85,60,19.72,60A19.83,19.83,0,0,0,37.28,49.92a18.75,18.75,0,0,0,1-2.09H19.76A6.65,6.65,0,0,1,12.93,41.4Z"/><polygon class="cls-1" points="32.16 46.66 36.84 46.66 32.63 36.15 27.95 36.15 32.16 46.66"/><path class="cls-1" d="M23.26,36.15h-3.5a5.26,5.26,0,1,0,0,10.5h7.71Zm-3.53,8a2.67,2.67,0,1,1,2.83-2.67A2.75,2.75,0,0,1,19.73,44.12Z"/><path class="cls-1" d="M39.19,1.84A2.45,2.45,0,0,0,37,4.59l.2,1.17L38.72,35h6.37c1.59,0,3.24.46,3.9,2.07a22.78,22.78,0,0,1,1,4.6V0Z"/><path class="cls-1" d="M48.35,38.67a3.28,3.28,0,0,0-3.26-2.52H37.35l4.22,10.5H50Z"/></g></g></svg>