<?xml version="1.0" encoding="utf-8"?>
<!-- Generator: Adobe Illustrator 25.2.3, SVG Export Plug-In . SVG Version: 6.00 Build 0)  -->
<svg version="1.1" id="Capa_1" xmlns="http://www.w3.org/2000/svg" xmlns:xlink="http://www.w3.org/1999/xlink" x="0px" y="0px"
	 viewBox="0 0 154.5 154" style="enable-background:new 0 0 154.5 154;" xml:space="preserve">
<style type="text/css">
	.st0{display:none;}
	.st1{display:inline;}
	.st2{fill:none;stroke:#F7C90D;stroke-width:6.99;stroke-miterlimit:10;}
	.st3{display:none;fill:#5C7C26;}
	.st4{display:inline;fill:none;stroke:#F7C90D;stroke-width:6.99;stroke-miterlimit:10;}
	.st5{fill:#5C7C26;}
	.st6{fill:none;stroke:#FFFFFF;stroke-linecap:round;stroke-linejoin:round;stroke-miterlimit:10;}
	.st7{fill:#5C7C26;stroke:#FFFFFF;stroke-linecap:round;stroke-linejoin:round;stroke-miterlimit:10;}
	.st8{fill:#F7C90D;}
	.st9{fill:#FFFFFF;}
	.st10{display:inline;fill:#FFFFFF;}
	.st11{display:inline;fill-rule:evenodd;clip-rule:evenodd;fill:#5C7C26;}
	.st12{display:inline;fill:#5C7C26;}
	.st13{fill:#4C4C4C;}
	.st14{fill:#D1D3D4;}
	.st15{fill:#FFFFFF;stroke:#5C7C26;stroke-miterlimit:10;}
	.st16{opacity:0.17;fill:#FFFFFF;enable-background:new    ;}
	.st17{display:inline;fill:#F5F5F5;}
	.st18{fill:#FBDE17;}
</style>
<g id="Capa_2_1_" class="st0">
	<g id="Capa_4" class="st1">
		<path class="st2" d="M42,124.8c-31.3-13.1-46-49-33-80.2c7.7-18.4,23.9-31.9,43.3-36.2"/>
		<path class="st3" d="M114.1,0H74.3c-2.7,0-5,2.1-5.2,4.8l-3.6,74.3h-9.3V57.9c0-2.1-1.6-3.8-3.7-3.8l0,0l0,0
			c-2.1,0-3.7,1.7-3.7,3.8l0,0v21.3h-4.2V65c0-1.5-1.2-2.7-2.7-2.8l0,0c-1.5,0-2.7,1.2-2.7,2.7l0,0V79H36c-2.2,0-4,1.7-4.3,3.9
			l-3,21.2c3.9-2.2,8.2-3.3,12.7-3.3c14.8,0,26.8,12.4,26.8,27.7c0,0.6-0.1,1.2-0.1,1.9h14.5c-1.3-4.1-2-8.4-2-12.7
			c0-22.2,17.3-40.1,38.7-40.2V5.4C119.4,2.5,117,0,114.1,0z M111.4,68.5c0,2.5-1.7,4.7-4.1,5.2c-13,2.9-23.7,12.1-28.4,24.5
			c-0.5,1.4-1.8,2.3-3.3,2.3h-1.8c-2,0-3.6-1.7-3.5-3.7c0-0.1,0-0.2,0-0.3L75,12.1c0.3-2.7,2.5-4.8,5.2-4.8h25.9
			c2.9,0,5.3,2.5,5.3,5.4l0,0V68.5z M45.4,128.7c-0.1,2.2-2,3.9-4.2,3.8s-3.9-2-3.8-4.2c0.1-2.1,1.9-3.8,4-3.8
			C43.6,124.6,45.4,126.4,45.4,128.7L45.4,128.7z M65.8,124.7v7.9c0,0.8-0.6,1.5-1.5,1.5l0,0l0,0c-0.7,0-1.2,0.5-1.4,1.1
			c-0.5,1.6-1.1,3.2-1.8,4.6c-0.3,0.6-0.2,1.3,0.2,1.8l0,0c0.6,0.6,0.6,1.5,0,2.1l-5.4,5.6c-0.5,0.6-1.5,0.6-2,0l0,0
			c-0.5-0.5-1.2-0.6-1.7-0.3c-1.4,0.8-2.9,1.4-4.5,1.9c-0.6,0.2-1.1,0.8-1.1,1.4l0,0c0,0.8-0.6,1.5-1.4,1.5l0,0h-7.7
			c-0.8,0-1.5-0.7-1.5-1.5l0,0l0,0c0-0.7-0.4-1.3-1-1.5c-1.6-0.5-3.1-1.1-4.5-1.9c-0.6-0.3-1.3-0.2-1.7,0.3l0,0
			c-0.5,0.6-1.5,0.6-2,0l0,0l-5.4-5.6c-0.6-0.6-0.6-1.5,0-2.1l0,0c0.5-0.5,0.6-1.2,0.2-1.8c-0.8-1.5-1.4-3-1.9-4.6
			c-0.2-0.6-0.7-1.1-1.4-1.1l0,0c-0.8,0-1.5-0.7-1.5-1.5v-7.9c0-0.8,0.6-1.5,1.5-1.5l0,0c0.7,0,1.2-0.5,1.4-1.1
			c0.5-1.6,1.1-3.2,1.9-4.6c0.3-0.6,0.2-1.3-0.2-1.8l0,0c-0.6-0.6-0.6-1.5,0-2.1l5.4-5.6c0.5-0.6,1.5-0.6,2,0l0,0
			c0.5,0.5,1.2,0.6,1.7,0.3c1.4-0.8,2.9-1.4,4.5-1.9c0.6-0.2,1-0.8,1-1.4l0,0c0-0.8,0.6-1.5,1.5-1.5l0,0h7.7c0.8,0,1.5,0.7,1.5,1.5
			l0,0c0,0.7,0.4,1.2,1.1,1.4c1.6,0.5,3.1,1.1,4.5,1.9c0.6,0.3,1.3,0.2,1.7-0.3l0,0c0.5-0.6,1.4-0.6,2-0.1l0.1,0.1l5.4,5.6
			c0.6,0.6,0.6,1.5,0,2.1l0,0c-0.5,0.5-0.6,1.2-0.2,1.8c0.8,1.5,1.4,3,1.8,4.6c0.2,0.6,0.7,1.1,1.4,1.1l0,0
			C65.2,123.2,65.9,123.9,65.8,124.7L65.8,124.7z M52.8,128.7c-0.2-6.3-5.5-11.3-11.8-11.1c-6.3,0.2-11.3,5.5-11.1,11.8
			c0.2,6.2,5.3,11.1,11.4,11.1C47.7,140.4,52.9,135.1,52.8,128.7L52.8,128.7z M125.2,117.8c-0.1,3.2-2.8,5.7-5.9,5.6
			c-3.2-0.1-5.7-2.8-5.6-5.9s2.6-5.6,5.7-5.6C122.7,111.9,125.3,114.6,125.2,117.8L125.2,117.8z M154.5,112.2v11.3
			c0,1.2-0.9,2.1-2.1,2.2l0,0c-0.9,0-1.8,0.7-2,1.6c-0.6,2.3-1.5,4.5-2.6,6.6c-0.4,0.8-0.3,1.9,0.4,2.6l0,0c0.8,0.8,0.8,2.2,0,3
			l-7.7,8c-0.8,0.8-2.1,0.9-2.9,0.1l-0.1-0.1c-0.6-0.7-1.7-0.8-2.5-0.4c-2,1.1-4.2,2.1-6.4,2.7c-0.9,0.3-1.5,1.1-1.5,2.1l0,0
			c0,1.2-0.9,2.1-2,2.2h-11c-1.2,0-2.1-1-2.1-2.2l0,0c0-1-0.6-1.8-1.5-2.1c-2.2-0.7-4.3-1.6-6.4-2.7c-0.8-0.5-1.9-0.3-2.5,0.4
			c-0.7,0.8-2,0.9-2.8,0.2c-0.1-0.1-0.1-0.1-0.2-0.2l-7.7-8c-0.8-0.8-0.8-2.2,0-3l0,0c0.7-0.7,0.8-1.7,0.3-2.6
			c-1.1-2.1-2-4.3-2.6-6.6c-0.2-0.9-1.1-1.6-2-1.6l0,0c-1.2,0-2.1-1-2.1-2.1l0,0v-11.3c0-1.2,0.9-2.2,2-2.2h0.1l0,0
			c0.9,0,1.8-0.7,2-1.6c0.6-2.3,1.5-4.5,2.6-6.6c0.5-0.8,0.3-1.9-0.3-2.6c-0.8-0.9-0.8-2.2,0-3.1l7.7-8c0.7-0.8,2-0.9,2.8-0.2
			c0.1,0.1,0.1,0.1,0.2,0.2c0.6,0.7,1.7,0.8,2.5,0.4c2-1.1,4.1-2.1,6.4-2.7c0.9-0.3,1.5-1.1,1.5-2.1l0,0c0-1.1,0.9-2.1,2-2.1h11
			c1.1,0.1,2,1,2,2.2l0,0c0,1,0.6,1.8,1.5,2.1c2.2,0.7,4.4,1.6,6.4,2.7c0.8,0.5,1.8,0.3,2.5-0.4c0.8-0.8,2.1-0.9,2.9-0.1l0.1,0.1
			l7.7,8c0.8,0.9,0.8,2.2,0,3.1l0,0c-0.7,0.7-0.8,1.7-0.4,2.6c1.1,2.1,2,4.3,2.6,6.6c0.2,0.9,1.1,1.6,2,1.6l0,0
			C153.6,110,154.5,111,154.5,112.2L154.5,112.2z M135.8,117.8c0-9.3-7.3-16.9-16.3-16.9c-9.3-0.3-17.1,7-17.4,16.3
			s7,17.1,16.3,17.4s17.1-7,17.4-16.3C135.8,118.2,135.8,118,135.8,117.8z"/>
	</g>
</g>
<g id="CALENDARIO" class="st0">
	<path class="st4" d="M26.1,43.8c9.1-29.1,40-45.4,69.2-36.3c17.2,5.4,30.6,18.7,36.1,35.8"/>
	<g class="st1">
		<g>
			<path class="st5" d="M25.7,33.9c-6.8,0-12.3,5.5-12.3,12.3v94.9c0,6.8,5.5,12.3,12.3,12.3h105.6c6.8,0,12.3-5.5,12.3-12.3v-95
				c0-6.8-5.5-12.3-12.3-12.3H127v7.8c0,5.2-4.2,9.4-9.4,9.4c-5.2,0-9.4-4.2-9.4-9.4v-7.8H48.8v7.8c0,5.2-4.2,9.4-9.4,9.4
				S30,46.8,30,41.6v-7.8h-4.3V33.9z M33.5,68.2h90c2.7,0,4.9,2,4.9,4.4v61.5c0,2.5-2.2,4.4-4.9,4.4h-90c-2.7,0-4.9-2-4.9-4.4V72.7
				C28.6,70.2,30.8,68.2,33.5,68.2z"/>
			<path class="st5" d="M35.3,26.9v9.9v7c0,2.2,1.8,4,4,4s4-1.8,4-4v-7v-9.9c0-2.2-1.8-4-4-4S35.3,24.7,35.3,26.9z"/>
			<path class="st5" d="M113.6,27.9v9.9v7c0,2.2,1.8,4,4,4s4-1.8,4-4v-7v-9.9c0-2.2-1.8-4-4-4S113.6,25.7,113.6,27.9z"/>
		</g>
		<rect x="37.2" y="75.9" class="st5" width="23.8" height="24.4"/>
		<rect x="67.1" y="75.9" class="st5" width="23.8" height="24.4"/>
		<rect x="37.2" y="105.9" class="st5" width="23.8" height="24.4"/>
		<rect x="67.1" y="105.9" class="st5" width="23.8" height="24.4"/>
		<rect x="98.2" y="75.9" class="st5" width="23.8" height="24.4"/>
		<rect x="98.2" y="105.9" class="st5" width="23.8" height="24.4"/>
	</g>
</g>
<g id="Uniforme" class="st0">
	<path class="st4" d="M35.7,128.5C8,114.9-3.3,81.3,10.4,53.7c8-16.3,23.5-27.7,41.5-30.5"/>
	<g class="st1">
		<path class="st5" d="M147.6,17.4L114.9,1.9c-13.7,5.9-27.4,5.9-41.1,0L40.9,17.4c7,22.8,12.4,62.5-6.3,61.1l0,0v73.9h119.3V78.5
			l0,0C135.2,79.9,140.7,40.2,147.6,17.4z"/>
		<path class="st6" d="M73.7,1.9L40.9,17.4c7,22.8,12.4,62.5-6.3,61.1l0,0v73.9h58.6V63.2C93.3,45.2,73.7,23.9,73.7,1.9z"/>
		<line class="st6" x1="41.6" y1="19.6" x2="73.8" y2="4.4"/>
		<rect x="52.7" y="58.2" class="st6" width="25.9" height="18.9"/>
		<path class="st6" d="M45.4,124.2c-0.9,0-1.8-0.3-2.5-0.9v20.5h41.5v-20.5c-0.7,0.5-1.5,0.9-2.5,0.9
			C81.9,124.2,45.4,124.2,45.4,124.2z"/>
		<path class="st6" d="M41.4,112.4v7.8c0,1.3,0.6,2.4,1.5,3.1c0.7,0.5,1.5,0.9,2.5,0.9h36.5c0.9,0,1.8-0.3,2.5-0.9
			c0.9-0.7,1.5-1.9,1.5-3.1v-7.8H41.4z"/>
		<path class="st6" d="M114.9,1.9l32.8,15.5c-7,22.8-12.4,62.5,6.3,61.1l0,0v73.9H95.3V63.2C95.3,45.2,114.9,23.9,114.9,1.9z"/>
		<line class="st6" x1="147" y1="19.6" x2="114.8" y2="4.4"/>
		<rect x="110.1" y="59.6" class="st6" width="9.2" height="17.5"/>
		<path class="st6" d="M143.2,124.2c0.9,0,1.8-0.3,2.5-0.9v20.5h-41.5v-20.5c0.7,0.5,1.5,0.9,2.5,0.9
			C106.7,124.2,143.2,124.2,143.2,124.2z"/>
		<path class="st6" d="M147.2,112.4v7.8c0,1.3-0.6,2.4-1.5,3.1c-0.7,0.5-1.5,0.9-2.5,0.9h-36.5c-0.9,0-1.8-0.3-2.5-0.9
			c-0.9-0.7-1.5-1.9-1.5-3.1v-7.8H147.2z"/>
		<path class="st6" d="M135,65.2c0.4,0,0.7-0.2,1-0.5v12.5h-16.7V64.6c0.3,0.3,0.6,0.5,1,0.5L135,65.2L135,65.2z"/>
		<path class="st7" d="M136.6,57.9v4.8c0,0.8-0.2,1.5-0.6,1.9c-0.3,0.3-0.6,0.5-1,0.5h-14.7c-0.4,0-0.7-0.2-1-0.5
			c-0.4-0.4-0.6-1.1-0.6-1.9v-4.8C118.7,57.9,136.6,57.9,136.6,57.9z"/>
	</g>
</g>
<g id="Capa_4_1_" class="st0">
	<g class="st1">
		<path class="st8" d="M60.8,135.9C27.3,135.9,0,108.6,0,75c0-33.5,27.3-60.8,60.8-60.8s60.8,27.3,60.8,60.8
			C121.6,108.6,94.4,135.9,60.8,135.9z M60.8,21.2C31.3,21.2,7,45.5,7,75s24.3,53.8,53.8,53.8s53.8-24.3,53.8-53.8
			S90.4,21.2,60.8,21.2z"/>
	</g>
	<g class="st1">
		<g>
			<g>
				<rect x="87.3" y="10.9" class="st5" width="10.9" height="25.6"/>
			</g>
		</g>
		<g>
			<path class="st5" d="M98.2,36.2V10.9h-5.4v24.8C94.6,35.6,96.4,35.8,98.2,36.2z"/>
		</g>
		<g>
			<path class="st5" d="M115.8,153.8h-47c-4.4,0-8-3.6-8-8.1V58.4c0-17.5,14.1-31.8,31.5-31.8l0,0c17.4,0,31.5,14.2,31.5,31.8v87.3
				C123.8,150.2,120.2,153.8,115.8,153.8z"/>
		</g>
		<g>
			<path class="st5" d="M118.3,65.1c0-14.4-10.4-26.4-24.1-29l0,0h-5.4v117.7h22c4.2,0,7.5-3.4,7.5-7.5V65.1z"/>
		</g>
		<g>
			<g>
				<path class="st5" d="M141.6,22.4l-40.1-12l1.6-5.2l35.1,10.5c2.8,0.8,4.3,3.7,3.5,6.5L141.6,22.4z"/>
			</g>
		</g>
		<g>
			<g>
				<rect x="85.7" y="30.7" class="st5" width="14" height="5.4"/>
			</g>
		</g>
		<g>
			<path class="st5" d="M79.3,5.4L79.3,5.4c0,3,2.4,5.4,5.4,5.4h1v5.4h14v-5.4h0.7c3,0,5.9-0.7,8.5-2.2l0,0c2.6-1.4,5.5-2.2,8.5-2.2
				h21.3c3.6,0,6.5-2.9,6.5-6.5l0,0H84.8C81.8,0,79.3,2.4,79.3,5.4z"/>
		</g>
		<g>
			<g>
				<path class="st5" d="M49.8,77h-5.4v-9.7c0-25.5,20.6-46.1,46.1-46.1h5.3v5.4h-6.5c-21.8,0-39.4,17.7-39.4,39.4v11
					C49.9,77,49.8,77,49.8,77z"/>
			</g>
		</g>
		<g>
			<polygon class="st5" points="60.4,106.9 33.2,106.9 41.9,77 51.7,77 			"/>
		</g>
		<g>
			<rect x="59.2" y="68.2" class="st9" width="59" height="2.8"/>
		</g>
		<g>
			<rect x="59.2" y="77.9" class="st9" width="59" height="2.8"/>
		</g>
		<g>
			<polygon class="st5" points="51.7,77 46.8,77 46.8,106.9 60.4,106.9 			"/>
		</g>
	</g>
	<rect x="86.7" class="st10" width="67.8" height="154"/>
</g>
<g id="Capa_5" class="st0">
	<g class="st1">
		<path class="st8" d="M58.7,143.5c-9.9,0-19.7-2.6-28.6-7.6c-13.6-7.7-23.4-20.2-27.5-35.2c-5.1-18.3-0.9-38,11.1-52.6l5.4,4.4
			C8.4,65.4,4.8,82.8,9.3,98.9c3.7,13.2,12.3,24.2,24.2,31c12,6.7,25.8,8.4,39,4.8l1.9,6.7C69.2,142.8,64,143.5,58.7,143.5z"/>
	</g>
	<g class="st1">
		<path class="st5" d="M40.5,17c7.6,0,13.7,6.1,13.7,13.7s-6.1,13.7-13.7,13.7s-13.7-6.1-13.7-13.7S32.9,17,40.5,17z"/>
		<path class="st5" d="M40.7,7.5c17.5,0,31.7,14.2,31.7,31.6c0,3.2-0.5,6.4-1.4,9.3l9.4,4.5c7.2-11,19.6-18.3,33.8-18.3
			c22.2,0,40.3,18.1,40.3,40.3s-18.1,40.3-40.3,40.3c-10.3,0-19.8-3.9-26.9-10.3l-5.8,4.8c4,6.6,4.7,15,1.2,22.6
			c-5.6,12.1-20,17.5-32.1,11.9s-17.5-20-11.9-32.1s20-17.5,32.1-11.9c1.9,0.9,3.6,1.9,5.1,3.2l5.7-4.7C76.7,92,73.9,83.8,73.9,75
			c0-4.8,0.8-9.3,2.4-13.6L66.9,57c-5.7,8.4-15.3,13.9-26.2,13.9C23.2,70.9,9,56.7,9,39.2C9.1,21.7,23.3,7.5,40.7,7.5z"/>
		<path class="st5" d="M60.4,106.2c5.7,0.1,10.2,4.7,10.2,10.4c-0.1,5.7-4.7,10.2-10.4,10.2c-5.7-0.1-10.2-4.7-10.2-10.4
			C50,110.7,54.7,106.2,60.4,106.2z"/>
	</g>
</g>
<g id="Capa_6" class="st0">
	<g class="st1">
		<path class="st8" d="M14.3,108.7c-6.3-8.8-10.2-19-11.4-30C1,61.8,5.9,45.3,16.5,32.1C29.4,16,49.4,7.2,69.9,8.5l-0.5,7.6
			c-18.1-1.2-35.7,6.6-47.1,20.7C13,48.4,8.8,63,10.4,77.8s8.9,28.1,20.5,37.5l-4.8,5.9C21.6,117.5,17.6,113.3,14.3,108.7z"/>
	</g>
	<path class="st11" d="M89.7,83.5c-0.1,0-0.2,0-0.3,0c-3.4,0-5.1,0-7-0.8c-1.8-0.8-2.7-2.5-5.2-4.9c-2.1-2-5.9-4.1-6.8-6.3
		c-1.1-2.7-0.9-5.6-1.3-9.5c-2,1.1-4-4.5-4.5-6.4c-0.6-2.7-2.6-7.3-3.2-10.4c-0.1-0.5-0.1-0.9-0.2-1.4c8.2,4.1,23,4.3,28,4.3
		s19.7-0.3,27.9-4.3c0,0.4-0.1,0.9-0.2,1.4c-0.6,3.1-2.6,7.7-3.2,10.4c-0.4,1.8-2.5,7.3-4.4,6.4c-0.4,3.8-0.2,6.7-1.3,9.3
		c-0.9,2.2-4.7,4.3-6.8,6.4c-2.5,2.4-3.3,4.2-5.1,5C94.5,83.4,92.8,83.5,89.7,83.5L89.7,83.5z M109,91.2c18.4,12.5,42.9,7,45.2,31.9
		c0,0.5,0.1,23.4,0.1,30.9H94.9L109,91.2L109,91.2z M62.8,33.5c-2.1,0-3.9,0.8-3.9,3.2c0,11,60.7,10.9,60.7,0c0-2.4-1.7-3.2-3.9-3.2
		H62.8L62.8,33.5z M89.3,0c15.5,0,28.1,15.1,28.7,30.6c-0.7-0.2-1.5-0.3-2.2-0.3h-53c-0.8,0-1.5,0.1-2.2,0.3
		C61.1,15.1,73.8,0,89.3,0L89.3,0z M97.7,3.4c-5.5-1.3-11.4-1.3-16.9,0l6.3,18.9h4.2L97.7,3.4L97.7,3.4z M89.7,94.1h-1l-5.1,7.6
		l0.1,1.9l4.2,4.3l-4.8,7.7L85,154h8.6l1.6-38.4l-4.8-7.7l4.2-4.3l0.1-1.9L89.7,94.1L89.7,94.1z M69.5,91.2l14,62.8H24.2
		c0-7.5,0.1-30.4,0.1-30.9C26.6,98.1,51.1,103.7,69.5,91.2z"/>
</g>
<g id="Capa_7" class="st0">
	<g class="st1">
		<path class="st8" d="M18.1,123.6c-7.4-7.8-12.8-17.4-15.5-28.1c-4.2-16.4-1.7-33.5,7-48c10.4-17.8,29-29.3,49.5-30.9l0.6,7.6
			C41.6,25.6,25.3,35.7,16,51.3C8.4,64.1,6.2,79.1,9.9,93.6c3.7,14.4,12.7,26.6,25.6,34.2l-3.9,6.5C26.5,131.3,22,127.7,18.1,123.6z
			"/>
	</g>
	<g class="st1">
		<path class="st8" d="M60.9,137.8c-33.5,0-60.8-27.3-60.8-60.8s27.3-60.8,60.8-60.8s60.8,27.3,60.8,60.8S94.4,137.8,60.9,137.8z
			 M60.9,23.2C31.4,23.2,7.1,47.5,7.1,77s24.3,53.8,53.8,53.8s53.8-24.3,53.8-53.8S90.4,23.2,60.9,23.2z"/>
	</g>
	<rect x="67.2" y="20.2" class="st10" width="76.5" height="111.4"/>
	<rect x="41.2" y="65.6" class="st10" width="76.5" height="60.8"/>
	<path class="st12" d="M79.4,32.8c0,2,1.6,3.7,3.6,3.7h43c2,0,3.6-1.6,3.6-3.7c0-2-1.6-3.7-3.6-3.7H83C81,29.1,79.4,30.8,79.4,32.8z
		 M83,44h43c2,0,3.6,1.6,3.6,3.7c0,2-1.6,3.7-3.6,3.7H83c-2,0-3.6-1.6-3.6-3.7C79.4,45.7,81,44,83,44z M25.1,65.8l14.4,66
		c0.7,3.4,3.7,5.7,7,5.7h14.4h72h14.4c4,0,7.2-3.3,7.2-7.3v-88c0-4-3.2-7.3-7.2-7.3h-3.6V20.2c0-2-1.6-3.7-3.6-3.7h-72
		c-2,0-3.6,1.6-3.6,3.7v14.7h-3.6c-4,0-7.2,3.3-7.2,7.3v7.3h-7.2c-4,0-7.2,3.3-7.2,7.3h-7.2c-2.2,0-4.2,1-5.6,2.7
		C25.1,61.3,24.6,63.6,25.1,65.8z M143.7,42.2h3.6v88h-3.6V42.2z M64.5,49.5h-3.6v-7.3h3.6V49.5z M118.5,56.8H75.3
		c0-4-3.2-7.3-7.2-7.3V20.2h72v110l0,0c0-0.5-14.6-67.6-14.6-67.6C124.8,59.2,121.9,56.8,118.5,56.8z M55.3,117.6l11.4-9.4
		c1-0.8,2.2-1.1,3.4-0.9l1.3-1.1c-2.7-4.2-4-9.2-3.5-14.3c0.6-5.8,3.4-11.1,7.8-14.8c3.8-3.2,8.7-5,13.7-5c6.5,0,12.6,2.9,16.7,8.1
		c7.5,9.4,6.2,23.3-3.1,30.9c-3.8,3.2-8.7,5-13.7,5c-5.3,0-10.3-2-14.2-5.5l-1.5,1.2c-0.1,1.2-0.6,2.4-1.6,3.2l-11.4,9.4
		c-0.8,0.7-1.8,1-2.7,1c-1.3,0-2.5-0.6-3.3-1.6C53.2,121.9,53.5,119.1,55.3,117.6z M80.3,82.7c2.7-2.2,5.9-3.3,9.1-3.3
		c4.2,0,8.3,1.8,11.2,5.4c5,6.3,4.1,15.5-2,20.6c-2.7,2.2-5.9,3.3-9.1,3.3c-4.2,0-8.3-1.8-11.2-5.4C73.2,97,74.1,87.8,80.3,82.7z"/>
</g>
<g id="Capa_2_2_" class="st0">
	<g class="st1">
		<path class="st8" d="M26.9,128.1c-8.7-6.2-15.8-14.5-20.5-24.5c-7.3-15.2-8.4-32.5-3-48.4c6.4-19.5,21.9-34.4,41.2-40l2.1,7.3
			c-17.1,4.9-30.6,18.1-36.4,35.2c-4.7,14-3.8,29.2,2.7,42.6s17.5,23.5,31.4,28.4L42,136C36.5,134,31.5,131.4,26.9,128.1z"/>
	</g>
	<g class="st1">
		<path class="st5" d="M114,50.5l-7.7,7.7L94.9,69.7l-8,8l-10,10l-8,8l-1.7,1.7l1.8,1.8l67.9-67.9l0,0l-1.8-1.8l-7.2,7.2V16.8
			c0-0.7-0.3-1.4-0.8-1.9s-1.2-0.8-1.9-0.8h-89c-0.7,0-1.4,0.3-1.9,0.8s-0.8,1.2-0.8,1.9v118.9c0,0.7,0.3,1.4,0.8,1.9
			s1.2,0.8,1.9,0.8H109c0.7,0,1.4-0.3,1.9-0.8l8.2-8.1l0,0l8-8.1c0.5-0.5,0.8-1.2,0.8-1.9V58.3l-5.3,5.3v50.6h-16.9
			c-0.7,0-1.4,0.3-1.9,0.8s-0.8,1.2-0.8,1.9V133H38.9V19.5h83.7V42L114,50.5z M108.4,119.5h14.1l-14.1,13.6V119.5z"/>
		<rect x="50.7" y="33.1" class="st5" width="64.3" height="7.7"/>
		<polygon class="st5" points="43.5,58.2 106.3,58.2 114,50.5 43.5,50.5 		"/>
		<polygon class="st5" points="43.7,77.6 86.9,77.6 94.9,69.7 43.7,69.7 		"/>
		<polygon class="st5" points="117.7,77.6 117.7,69.7 116.5,69.7 108.6,77.6 		"/>
		<polygon class="st5" points="117.7,95.6 117.7,87.7 98.5,87.7 90.6,95.6 		"/>
		<polygon class="st5" points="43.7,95.6 68.9,95.6 76.9,87.7 43.7,87.7 		"/>
		<polygon class="st5" points="58.6,113.6 58.8,113.1 62.5,105.7 43.7,105.7 43.7,113.6 		"/>
		<path class="st5" d="M75.9,109.9l-7.6,3.7h31.1v-7.9H80.5l-2.5,2.5l0,0l0,0l-1.8-1.8l-0.7-0.7h-2l2.6,2.6c0.2,0.2,0.3,0.5,0.3,0.9
			C76.4,109.5,76.2,109.7,75.9,109.9z"/>
		<polygon class="st9" points="122.5,119.5 108.4,119.5 108.4,133.1 		"/>
		<path class="st9" d="M114,50.5l8.6-8.6V19.5H38.9V133h64.2v-16.2c0-0.7,0.3-1.4,0.8-1.9s1.2-0.8,1.9-0.8h16.9V63.6l5.3-5.3l18-18
			l-33.3,33.3l3.9-3.9h1.2v8h-9.2L78,108.2l0,0l2.5-2.5h18.8v7.9h-31l-6,2.9l-4.2,2.1c-0.4,0.2-0.8,0.1-1.1-0.2
			c-0.3-0.3-0.4-0.8-0.2-1.1l1.8-3.7H43.7v-7.9h18.8l3-6.2c0.1-0.3,0.4-0.5,0.7-0.5c0.3-0.1,0.6,0,0.9,0.3l6.4,6.4h2l0.7,0.7
			l67.9-67.9l-7.2-7.2L69,99.2l-1.8-1.8l1.7-1.7H43.7v-8h33.2l10-10H43.7v-8h51.2l11.4-11.5H43.5v-7.7C43.5,50.5,114,50.5,114,50.5z
			 M50.7,33.1H115v7.7H50.7V33.1z M90.6,95.6l8-8h19.2v8H90.6z M137.9,32.7l4.8,4.8l-67.9,67.9l-4.8-4.8L137.9,32.7z"/>
		<polygon class="st9" points="108.6,77.6 108.6,77.6 112.6,73.6 		"/>
		
			<rect x="58.4" y="65.6" transform="matrix(0.7071 -0.7071 0.7071 0.7071 -17.6212 95.4247)" class="st5" width="96" height="6.8"/>
		<polygon class="st5" points="78,108.2 78,108.2 145.9,40.3 144.1,38.5 76.2,106.4 		"/>
		<path class="st5" d="M67.1,99.3c-0.2-0.2-0.5-0.3-0.9-0.3c-0.3,0.1-0.6,0.3-0.7,0.5l-3,6.2l-3.6,7.4l3.5,3.5l6-2.9L76,110
			c0.3-0.1,0.5-0.4,0.5-0.7c0-0.3-0.1-0.6-0.3-0.9l-2.6-2.6L67.1,99.3z"/>
		<path class="st13" d="M56.8,117.3c-0.2,0.4-0.1,0.8,0.2,1.1c0.3,0.3,0.8,0.4,1.1,0.2l4.2-2.1l-3.5-3.5l-0.3,0.5L56.8,117.3z"/>
		<path class="st5" d="M141.7,22.9l-1.2,1.2l-2.1,2.1l-2.3,2.3l10.8,10.8l2.3-2.3l2.1-2.1l1.3-1.3c3-3,3-7.8,0-10.8
			C149.5,19.9,144.6,19.9,141.7,22.9z"/>
	</g>
</g>
<g id="Capa_3" class="st0">
	<g class="st1">
		<path class="st8" d="M28.3,135.7c-8.8-5.9-16.2-14.1-21.2-23.9c-7.7-15-9.3-32.2-4.3-48.3c5.8-19.7,20.9-35,40.1-41.1l2.3,7.3
			C28.2,35,15,48.5,9.7,65.8c-4.3,14.2-3,29.3,3.9,42.5c6.8,13.2,18.2,23.1,32.2,27.6l-2.2,7.2C38,141.3,32.9,138.8,28.3,135.7z"/>
	</g>
	<g class="st1">
		<rect x="42.6" y="15" class="st5" width="108" height="135.2"/>
		<rect x="52.9" y="28.4" class="st9" width="87.5" height="9.1"/>
		<g>
			<rect x="82.2" y="54.6" class="st14" width="58.2" height="2.9"/>
			<rect x="82.2" y="62.3" class="st14" width="58.2" height="2.9"/>
			<rect x="82.2" y="70" class="st14" width="58.2" height="2.9"/>
			<g>
				<rect x="52.9" y="53.1" class="st9" width="19.3" height="19.3"/>
				<g>
					<polygon class="st5" points="68.8,49.8 61.4,63.6 58.2,56.9 50.5,60.9 61.2,69.9 77.3,52.5 					"/>
				</g>
			</g>
		</g>
		<g>
			<rect x="82.2" y="84.3" class="st14" width="58.2" height="2.9"/>
			<rect x="82.2" y="92" class="st14" width="58.2" height="2.9"/>
			<rect x="82.2" y="99.7" class="st14" width="58.2" height="2.9"/>
			<g>
				<rect x="52.9" y="83.9" class="st9" width="19.3" height="19.3"/>
				<g>
					<polygon class="st5" points="68.8,80.7 61.4,94.5 58.2,87.7 50.5,91.8 61.2,100.8 77.3,83.4 					"/>
				</g>
			</g>
		</g>
		<g>
			<rect x="82.2" y="113.9" class="st14" width="58.2" height="2.9"/>
			<rect x="82.2" y="121.6" class="st14" width="58.2" height="2.9"/>
			<rect x="82.2" y="129.3" class="st14" width="58.2" height="2.9"/>
			<g>
				<rect x="52.9" y="113.6" class="st9" width="19.3" height="19.3"/>
				<g>
					<polygon class="st5" points="68.8,110.4 61.4,124.1 58.2,117.4 50.5,121.4 61.2,130.5 77.3,113 					"/>
				</g>
			</g>
		</g>
		<ellipse class="st15" cx="98.7" cy="11.5" rx="14.8" ry="8.9"/>
		<path class="st9" d="M102.6,9.9h-7.8c-0.4,0-0.8-0.3-0.8-0.8V7.3c0-0.4,0.3-0.8,0.8-0.8h7.8c0.4,0,0.8,0.3,0.8,0.8v1.8
			C103.3,9.6,103,9.9,102.6,9.9z"/>
		<path class="st15" d="M123,21.3H74.4c-0.9,0-1.7-0.8-1.7-1.7v-6.9c0-0.9,0.8-1.7,1.7-1.7H123c0.9,0,1.7,0.8,1.7,1.7v6.9
			C124.6,20.6,123.9,21.3,123,21.3z"/>
		<path class="st16" d="M121.6,15.1H76.1c-0.8,0-1.4-0.6-1.4-1.4l0,0c0-0.8,0.6-1.4,1.4-1.4h45.5c0.8,0,1.4,0.6,1.4,1.4l0,0
			C123,14.5,122.4,15.1,121.6,15.1z"/>
	</g>
</g>
<g id="Capa_2" class="st0">
	<g class="st1">
		<path class="st9" d="M87.2,73.6c5.3-2.4,8.7-8.6,7.9-15.3L93.6,44l4.8-0.7l6.8,36.7h-18V73.6z M114.4,98.1c0,3-2.2,5.4-4.8,5.4
			L92,101.7c-2.7,0-4.8-2.4-4.8-5.4v-3.6h27.2V98.1z M114.4,89.1H87.2v-5.4h27.2V89.1z M114.4,80.1h-5.5l-6.9-37.3l4.4-0.6l8,19.8
			V80.1z M122.5,42.2l4.4,0.6L120,80.1h-3.5V61.6l-0.9-2.3L122.5,42.2z M141.7,96.3c0,3-2.1,5.4-4.8,5.4l-17.6,1.8
			c-1.5,0-2.7-0.7-3.6-1.9c0.5-1.1,0.8-2.3,0.8-3.5v-5.4h25.2V96.3z M141.7,89.1h-25.2v-5.4h25.2V89.1z M141.7,80.1h-18l6.8-36.7
			l4.8,0.7l-1.5,14.3c-0.8,6.7,2.6,12.9,7.9,15.3V80.1z"/>
	</g>
	<path class="st17" d="M55.3,104.7h14.3l0,1.7H58.9v3.1h-3.4l-0.1-1c0-0.5-0.1-1.4-0.1-1.9V104.7z M48.4,136.2h-2.2
		c-0.5,0-1.1-0.1-1.2-0.2c-0.1-0.1-0.2-0.6-0.2-1c0-0.4,0.1-0.7,0.2-0.7c0.1,0,0.1-0.2,0-0.5c-0.1-0.3-0.2-0.9-0.2-1.4
		c0-0.5,0.2-1.2,0.5-1.4c0.3-0.3,0.9-0.6,1.4-0.8l1.1-0.4c0.5-0.2,1.3-0.4,1.8-0.5l3.8-0.6c0.5-0.1,1.2-0.5,1.6-0.8l1.5-1.5
		c0.4-0.4,0.6-1.1,0.6-1.6l-0.7-5.7c-0.1-0.5-0.2-1.4-0.2-1.9l-0.6-6.2h3.3c0,0.2,0,0.4,0,0.6l0.1,1.1l0.7,7.5
		c0,0.5,0.1,1.4,0.2,1.9l0.7,5.8c0,0.2-0.1,0.5-0.2,0.6l-1.5,1.5c-0.2,0.2-0.7,0.5-1,0.5l-3.9,0.6c-0.6,0.1-1.5,0.3-2,0.5l-1.1,0.4
		c-0.6,0.2-1.4,0.6-1.9,1.1c-0.6,0.6-0.8,1.6-0.8,2.3C48.4,135.6,48.4,135.9,48.4,136.2z M73.5,120c0,0.5-0.2,1.4-0.2,1.9l-0.6,3.8
		c-0.1,0.5-0.2,1.4-0.2,1.9c0,0.5,0.1,1.4,0.3,1.9l0.4,1.1c0.2,0.5,0.3,1.3,0.3,1.9v1.9c0,0.5,0,1.2,0,1.4c0,0.3-0.1,0.7-0.2,1
		c-0.1,0.3-0.1,0.5,0,0.5c0.1,0,0.2,0.3,0.2,0.7c0,0.4-0.1,0.8-0.1,1c-0.1,0.1-0.6,0.2-1.1,0.2h-4.5c-0.5,0-1-0.2-1-0.5
		c0-0.3-0.4-0.5-1-0.5h-1c-0.5,0-1.2,0.2-1.4,0.5c-0.3,0.3-0.9,0.5-1.4,0.5H51c-0.5,0-1.1-0.1-1.2-0.2c-0.1-0.1-0.2-0.6-0.2-1
		c0-0.4,0.1-0.7,0.2-0.7s0.1-0.2,0-0.5c-0.1-0.3-0.2-0.9-0.2-1.4c0-0.5,0.2-1.2,0.5-1.4c0.3-0.3,0.9-0.6,1.4-0.8l1.1-0.4
		c0.5-0.2,1.3-0.4,1.8-0.5l3.8-0.6c0.5-0.1,1.2-0.5,1.6-0.8l1.5-1.5c0.4-0.4,0.6-1.1,0.6-1.6l-0.7-5.8c-0.1-0.5-0.2-1.4-0.2-1.9
		l-0.6-6.2h13.7L73.5,120z M74.4,109.5c0,0.5,0,1.4-0.1,1.9l-0.1,1h-14l-0.1-1c0-0.5-0.1-1.4-0.1-1.9l0-1.9h14.3V109.5z"/>
	<path class="st17" d="M26.8,45l-9.5-5.5c-1.3-0.7-1.7-2.4-1-3.7c0.7-1.3,2.4-1.7,3.7-1l3.8,2.2l-4-10.6c-0.5-1.2,0.2-2.5,1.4-3
		c1.2-0.4,2.5,0.2,3,1.3l-0.8-2.2c0,0,0,0,0,0c-0.4-1.2,0.2-2.5,1.4-3c1.2-0.5,2.5,0.2,3,1.3v0l0.4,1.1c-0.4-1.2,0.2-2.5,1.4-3
		c1.2-0.4,2.5,0.2,3,1.4l0,0l1.2,3.2c-0.4-1.2,0.2-2.5,1.4-3c1.2-0.5,2.5,0.2,3,1.4l0.9,2.4c-0.9,0.3-1.6,0.9-2.1,1.8
		c-0.6,1-0.7,2.1-0.4,3.2l2.6,10l-4.9,8.6c-1,0.1-1.8,0.7-2.2,1.6c-0.1,0.3-0.2,0.6-0.2,1l-3.1,1.1L26.8,45z M30.6,58.3
		c-0.6,0.2-1.3-0.1-1.5-0.7c-0.2-0.6,0.1-1.3,0.7-1.5l0.1,0l-0.7-2.6l3.1-1.2c0.3,0.3,0.6,0.6,1,0.8l5,2.3L30.6,58.3z M53.9,58.3
		c0.6,0.3,0.8,1,0.6,1.5c-0.3,0.6-0.9,0.8-1.5,0.6l-19-8.6c-0.6-0.3-0.8-0.9-0.6-1.5c0.3-0.6,1-0.8,1.5-0.6l0.1,0l1.3-2.4l18.3,8.3
		L53.9,58.3L53.9,58.3z M57.6,47.2L57.6,47.2l-2.3,6.7l-18-8.2l3.4-6.1l-2.8-10.6c-0.4-1.4,0.5-2.9,1.9-3.3c1.4-0.4,2.9,0.5,3.3,1.9
		l1.1,4.3l4.7-10.3c0.5-1.2,1.9-1.7,3.1-1.2c1.2,0.5,1.7,1.9,1.2,3.1l0.9-2.1c0,0,0,0,0,0c0.5-1.2,1.9-1.7,3.1-1.2
		c1.2,0.5,1.7,1.9,1.2,3.1l0,0l-0.5,1c0.5-1.2,1.9-1.7,3.1-1.1c1.2,0.5,1.7,1.9,1.2,3.1h0l-1.4,3.2c0.5-1.2,1.9-1.7,3.1-1.2
		c1.2,0.5,1.7,1.9,1.2,3.1L57.6,47.2z"/>
</g>
<g id="Capa_3_1_">
	<g>
		<path class="st8" d="M28.6,128.2c-8.8-5.9-16.2-14.1-21.2-23.9c-7.7-15-9.3-32.2-4.3-48.3C8.9,36.3,24,21,43.2,14.9l2.3,7.3
			C28.5,27.5,15.3,41,10,58.3c-4.3,14.2-3,29.3,3.9,42.5c6.8,13.2,18.2,23.1,32.2,27.6l-2.2,7.2C38.3,133.8,33.2,131.3,28.6,128.2z"
			/>
	</g>
	<path class="st5" d="M140.7,135.6H45.1c-4.3,0-7.8-3.5-7.8-7.8v-105c0-4.3,3.5-7.8,7.8-7.8h95.6c4.3,0,7.8,3.5,7.8,7.8v105
		C148.6,132.1,145.1,135.6,140.7,135.6z"/>
	<g>
		<path class="st18" d="M92.4,122c-1.5,0-3.3,0-5-0.1c-2.3-0.1-4.6-0.3-6.9-0.6c-4.7-0.5-9.4-1.4-14-2.6c-5.2-1.3-10.3-3-15.2-5.2
			c-0.9-0.4-1.7-0.8-2.6-1.1c-0.3-0.1-0.4-0.3-0.6-0.6c-1.8-4.7-3.3-9.5-4.4-14.4c-0.6-2.6-1.1-5.3-1.4-8c-0.3-1.9-0.5-3.8-0.6-5.6
			c-0.1-1.7-0.2-3.4-0.3-5c-0.1-1.6-0.1-3.3,0-4.9c0.1-2.2,0.2-4.4,0.4-6.6c0.2-1.8,0.4-3.6,0.6-5.5c0.4-2.7,0.9-5.3,1.5-8
			c0.9-4,2.2-8,3.6-11.9c0.2-0.6,0.5-1.2,0.7-1.8c0.1-0.2,0.2-0.4,0.4-0.5c4.3-2,8.8-3.7,13.3-5.1c3.5-1.1,7-1.9,10.6-2.6
			c2.6-0.5,5.1-0.9,7.7-1.2c2-0.2,4.1-0.4,6.1-0.5c3.4-0.2,6.9-0.2,10.3-0.1c2.1,0.1,4.2,0.2,6.4,0.4c2.7,0.3,5.4,0.6,8.1,1.1
			c5.4,0.9,10.7,2.3,15.9,4.1c3.3,1.1,6.5,2.4,9.7,3.9c0.3,0.1,0.5,0.3,0.6,0.7c1.7,4.2,3,8.5,4.1,12.9c0.5,2.2,1,4.3,1.3,6.5
			c0.3,1.8,0.6,3.7,0.8,5.5c0.2,1.8,0.3,3.6,0.4,5.4c0.2,2.6,0.2,5.3,0.1,7.9c0,1.7-0.1,3.4-0.3,5.1c-0.2,1.8-0.3,3.6-0.6,5.4
			c-0.4,2.7-0.8,5.4-1.4,8.1c-1,4.4-2.3,8.8-3.8,13c-0.2,0.6-0.5,1.2-0.7,1.8c-0.1,0.2-0.2,0.3-0.4,0.4c-4,1.9-8.1,3.5-12.4,4.8
			c-3.3,1-6.6,1.9-9.9,2.6c-2.3,0.5-4.5,0.9-6.8,1.2c-1.6,0.2-3.2,0.4-4.8,0.6c-1.4,0.1-2.8,0.2-4.3,0.3C96.6,122,94.6,122,92.4,122
			z M140.2,86.6c0-0.2,0-0.4,0.1-0.7c0,0,0.1-0.1,0-0.1c0-0.3,0-0.5,0.1-0.8c0,0,0.1-0.1,0-0.1c0-0.3,0-0.6,0.1-0.9
			c0,0,0.1-0.1,0-0.1c0-0.3,0.1-0.6,0-0.9c0,0,0.1-0.1,0-0.1c0-0.4,0-0.8,0.1-1.2c0,0,0-0.1,0-0.1c0-0.5,0.1-1.1,0.1-1.6
			c0.1-0.1,0.1-0.1,0-0.2c0.1-0.4,0-0.8,0-1.1c0-1.4,0-2.8,0-4.2c0-0.6,0-1.1,0-1.7c-0.1-2-0.2-4-0.4-6c-0.1-1.2-0.2-2.3-0.4-3.5
			c-0.4-2.8-0.9-5.6-1.5-8.3c-1-4.3-2.3-8.4-3.8-12.5c-0.1-0.3-0.2-0.4-0.5-0.5c-2.9-1.3-5.9-2.5-8.9-3.4c-1.9-0.6-3.9-1.3-5.9-1.7
			c-1.1-0.2-2.2-0.6-3.3-0.8c-0.5-0.1-0.9-0.3-1.4-0.3c-0.3-0.2-0.7-0.2-1.1-0.3c-0.5-0.1-1-0.2-1.5-0.3c-0.9-0.3-1.7-0.3-2.6-0.5
			c-0.3-0.1-0.6-0.1-0.8-0.1c-0.8-0.2-1.6-0.3-2.4-0.4c-1.8-0.2-3.5-0.4-5.3-0.6c-1.9-0.2-3.8-0.3-5.7-0.3c-3.2-0.1-6.3,0-9.4,0.2
			c-0.8,0.1-1.6,0.1-2.5,0.2c-1.3,0.1-2.5,0.3-3.8,0.4c-0.8,0.1-1.6,0.2-2.4,0.4c-1.1,0.1-2.3,0.3-3.4,0.6
			c-3.4,0.6-6.8,1.4-10.2,2.4c-0.8,0.2-1.7,0.5-2.5,0.8c-0.1,0-0.2,0-0.3,0.1c-1.8,0.6-3.6,1.2-5.3,1.9c-1.5,0.6-3,1.2-4.4,1.8
			c-0.2,0.1-0.4,0.2-0.5,0.5c-0.3,0.9-0.6,1.8-1,2.6c-1.4,3.9-2.5,7.9-3.3,12c-0.4,2-0.8,4-1,6c-0.1,1.1-0.3,2.2-0.4,3.3
			c-0.1,0.9-0.2,1.9-0.2,2.8c-0.1,0.3-0.1,0.5-0.1,0.8c0,0.2,0,0.4,0,0.5c-0.1,0.3-0.1,0.7-0.1,1.1c0,0.2-0.1,0.5,0,0.7
			c-0.1,1-0.1,1.9-0.1,2.9c0,0.6,0,1.2,0,1.8c0,1.1,0,2.2,0.1,3.2c0,0.9,0.1,1.7,0.2,2.6c0,0,0,0.1,0,0.1c0,0.1,0,0.3,0,0.4
			c0.2,2.1,0.4,4.2,0.7,6.2c0.4,2.7,0.9,5.3,1.5,7.9c1,4.1,2.2,8.1,3.7,12.1c0.1,0.3,0.3,0.5,0.6,0.6c2.6,1.1,5.2,2.2,7.9,3.1
			c3.9,1.4,7.9,2.5,11.9,3.3c0.7,0.1,1.3,0.3,2,0.4c0,0,0.1,0.1,0.1,0c0.3,0,0.6,0.1,0.9,0.1c0,0,0.1,0.1,0.1,0c0.1,0,0.2,0,0.3,0
			c0,0,0.1,0.1,0.1,0c0.1,0,0.3,0,0.4,0.1c0,0,0.1,0.1,0.1,0c0.1,0,0.3,0,0.4,0.1c0,0,0.1,0.1,0.1,0c0.1,0,0.3,0,0.4,0.1
			c0,0,0.1,0.1,0.1,0c0.1,0,0.3,0,0.4,0.1c0,0,0.1,0,0.1,0c0.2,0,0.3,0,0.5,0.1c0,0,0.1,0.1,0.1,0c0.1,0,0.3,0,0.4,0
			c0,0,0.1,0.1,0.1,0c0.2,0,0.3,0,0.5,0.1c0,0,0.1,0.1,0.1,0c0.4,0.1,0.8,0.1,1.2,0.1c0,0,0.1,0.1,0.1,0c0.2,0,0.4,0,0.6,0.1
			c0,0,0.1,0.1,0.1,0c0.4,0,0.7,0.1,1.1,0.1c0,0,0.1,0,0.1,0c0.1,0,0.2,0,0.2,0c0.1,0.1,0.1,0.1,0.2,0c0.3,0,0.5,0.1,0.8,0.1
			c0,0,0.1,0.1,0.1,0c0.3,0,0.6,0.1,0.8,0c0,0,0.1,0.1,0.1,0c0.3,0.1,0.6,0.1,0.9,0.1c0.1,0.1,0.1,0.1,0.2,0
			c0.4,0.1,0.7,0.1,1.1,0.1c0,0,0.1,0.1,0.1,0c0.4,0.1,0.9,0.1,1.4,0.1c0,0,0.1,0,0.1,0c0.7,0.1,1.4,0.1,2.1,0.1c0,0,0.1,0,0.1,0
			c0.1,0,0.1,0,0.2,0c1.9,0,3.8,0,5.8,0c2.1-0.1,4.2-0.2,6.2-0.4c1.9-0.2,3.7-0.4,5.5-0.7c0,0,0.1,0,0.1,0c0.1,0,0.3,0,0.4,0
			c0,0,0.1,0,0.1,0c0.2,0,0.3,0,0.5,0c0,0,0.1,0,0.1,0c0.1,0,0.3,0,0.4,0c0,0,0.1,0,0.1,0c0.1,0,0.3,0,0.4,0c0,0,0.1,0,0.1,0
			c0.1,0,0.3,0,0.4,0c0,0,0.1,0,0.1,0c0.1,0,0.3,0,0.4-0.1c0,0,0.1,0,0.1,0c0.1,0,0.2,0,0.3,0c0,0,0.1,0,0.1,0c0.1,0,0.3,0,0.4-0.1
			c0,0,0.1,0,0.1,0c0.3,0,0.5-0.1,0.8-0.1c0,0,0.1,0,0.1,0c0.1,0,0.1,0,0.2,0c2.5-0.5,4.9-1.1,7.3-1.8c4.8-1.3,9.4-3,13.9-5
			c0.1,0,0.2-0.1,0.3-0.2c-0.1-0.1-0.1-0.2-0.2-0.3c-0.8-1.3-1.7-2.5-2.6-3.7c-0.6-0.7-1.1-1.4-1.7-2.1c0-0.1-0.1-0.2-0.2-0.3
			c0-0.1-0.1-0.1-0.2-0.2c-0.5-0.7-1.1-1.2-1.7-1.7c0,0-0.1-0.1-0.1-0.1c-0.5-0.2-0.9-0.4-1.4-0.4c-0.1,0-0.1-0.1-0.2-0.1
			c-1.9-0.6-3.8-1.2-5.8-1.8c-0.9-0.3-1.9-0.6-2.8-0.9c-0.1,0-0.2-0.1-0.3-0.1c-1.2-0.4-2.4-0.9-3.6-1.3c-2.2-0.8-4.2-2.1-5.9-3.8
			c-1-1-2-2-2.9-3.1c-0.1-0.2-0.3-0.3-0.5-0.3c-1.4-0.1-2.7-0.2-4.1-0.2c-1.2,0-2.4,0.1-3.6,0.1c-1.3,0.1-2.5,0.3-3.8,0.4
			c-1,0.1-2.1,0.3-3.1,0.4c-0.9,0.1-1.8,0.2-2.7,0.2c-2.2,0.1-4.3,0-6.4-0.4c-2.1-0.4-4-1.1-6-1.7c-2.1-0.7-4.2-1.4-6.4-1.9
			c-1.9-0.4-3.7-0.7-5.7-0.7c-0.2,0-0.4-0.1-0.5,0.1c-0.1,0.2,0.1,0.3,0.2,0.5c1.6,2.7,3.6,5.2,6,7.1c1.4,1.1,2.8,2,4.6,2.4
			c0.5,0.1,0.9,0.3,1.4,0.5c0.2,0.1,0.3,0.2,0.4,0.4c0.6,1.3,1.2,2.5,1.8,3.8c0.2,0.3,0.4,0.7,0.5,1c-0.2,0-0.4-0.2-0.5-0.2
			c-1.5-0.7-2.9-1.4-4.3-2.3c-4.1-2.4-7.8-5.2-11.3-8.4c-1.6-1.5-3.1-3.1-4.5-4.7c-0.1-0.2-0.2-0.4-0.3-0.6c0-0.6-0.1-1.2-0.2-1.7
			c0-0.4-0.1-0.4,0.3-0.5c0.6-0.2,1.3-0.4,1.9-0.6c0.1,0,0.1,0,0.2,0c2.5-0.6,5-1,7.6-1.4c0.5-0.1,1.1-0.1,1.6-0.2
			c0.2,0,0.3,0,0.5,0c0.1,0,0.2,0,0.3,0c0.7,0,1.5-0.2,2.2-0.2c0.6,0,1.2-0.1,1.7-0.2c0.2,0,0.3-0.1,0.3-0.4c0.1-1,0.3-2.1,0.4-3.1
			c0.5-2.8,1.3-5.5,2.4-8.1c0.5-1.2,1-2.3,1.6-3.4c0.3-0.5,0.1-0.8-0.5-0.9c-1.4-0.2-2.7-0.5-4.1-0.7c-0.9-0.2-1.8-0.3-2.7-0.5
			c-0.2,0-0.3-0.1-0.4-0.3c-0.2-0.6-0.4-1.2-0.6-1.8c-0.1-0.3-0.1-0.3,0.2-0.5c0.6-0.2,1.2-0.5,1.9-0.7c4.2-1.4,8.5-2.7,12.8-3.7
			c0.1,0,0.2-0.1,0.3-0.2c0.3-0.5,0.5-0.9,0.6-1.4c0.2-0.9,0-1.5-0.8-2c-0.1-0.1-0.3-0.1-0.4-0.2c-0.7-0.3-1.5-0.5-2.3-0.5
			c-1.6-0.1-3.2,0-4.7,0.2c-1.7,0.2-3.3,0.6-4.9,1c-0.8,0.2-1.6,0.4-2.3,0.7c-0.1,0-0.1,0-0.2,0c-1.1,0.3-2.2,0.7-3.3,1.1
			c-0.2,0.1-0.4,0.2-0.7,0.2l0,0c0-0.1,0.1-0.2,0.2-0.2c1.3-1,2.7-1.8,4.2-2.7c0.8-0.4,1.6-0.9,2.4-1.2c0.2-0.1,0.3-0.2,0.2-0.4
			c-0.1-0.2-0.2-0.5-0.4-0.7C70.8,49,70,48.5,69.2,48c-0.7-0.4-1.4-0.7-2.1-1c-0.1,0-0.2-0.1-0.2-0.2c0-0.1,0.2-0.1,0.2-0.1
			c0.7-0.1,1.3,0,2,0.1c0.7,0.1,1.4,0.3,2,0.5c0,0,0.1,0.1,0.1,0.1c1.2,0.5,2.3,1.2,3.1,2.2c0.1,0.2,0.3,0.2,0.4,0.1
			c1.3-0.4,2.6-0.7,4-0.9c0.3,0,0.3-0.1,0.2-0.4c-0.2-0.9-0.6-1.8-1.1-2.6c-0.6-0.9-1.3-1.8-2.2-2.4c-0.6-0.4-1.2-0.9-1.8-1.3
			c0.5-0.1,0.9,0,1.2,0.1c0.6,0.1,1.2,0.4,1.9,0.6c0.5,0.3,1.1,0.6,1.6,1c1.7,1.2,3.1,2.7,3.8,4.7c0.1,0.2,0.2,0.3,0.4,0.3
			c0.9,0,1.9,0.1,2.8,0.3c0.2,0,0.3,0,0.4-0.2c0.4-1.1,0.5-2.3,0.3-3.4c-0.2-1.3-0.7-2.5-1.4-3.7c-0.4-0.6-0.8-1.2-1.3-1.7
			c-0.1-0.2-0.4-0.3-0.4-0.5c0.2-0.1,0.3,0.1,0.5,0.1c0.1,0,0.1,0.1,0.2,0.1c0.7,0.3,1.4,0.7,2.1,1.1c1.9,1.3,3.1,3.1,3.6,5.4
			c0.2,1,0.3,2,0.3,3.1c-0.1,2.1-0.6,4.2-1.2,6.3c2.7-0.3,5.4-0.7,8.2-1c-0.3,0.4-0.5,0.7-0.8,1c-1.4,1.4-3,2.5-4.7,3.5
			c-0.2,0.1-0.4,0.1-0.6,0.1c-0.9-0.1-1.9-0.2-2.8-0.4c-0.4,0-0.4,0-0.5,0.3c-1.1,3.5-1.9,7.1-2.1,10.7c0,0.8,0,1.6,0.1,2.4
			c0.3,1.4,1,2.4,2.2,3.2c1.1,0.7,2.4,0.9,3.7,1c1.4,0.1,2.9,0,4.3,0c2.1-0.1,4.3,0,6.4,0.1c1.4,0.1,2.8,0.2,4.2,0.3
			c1.4,0.1,2.8,0.3,4.2,0.6c0.9,0.2,1.8,0.4,2.6,0.6c0.3,0.1,0.3,0.1,0.5-0.2c0.1-0.2,0.2-0.5,0.3-0.7c0.2-1.2,0.1-2.4-0.1-3.6
			c-0.5-2.1-1.5-3.9-2.7-5.6c-0.2-0.3-0.4-0.5-0.6-0.8c0.2,0,0.3,0.1,0.4,0.1c1.8,1.1,3.5,2.4,4.9,4c0.1,0.1,0.2,0.2,0.3,0.2
			c0,0.1,0.1,0.2,0.1,0.2c0.6,0.7,1.2,1.4,1.7,2.2c0.7,1.2,1.3,2.4,1.5,3.8c0,0.2,0,0.3-0.2,0.4c-0.5,0.2-1.1,0.4-1.6,0.7
			c-0.5,0.2-1.1,0.4-1.6,0.7c0.1,0.3,0.4,0.5,0.5,0.7c1.5,1.7,2.5,3.6,3.3,5.7c0.3,0.7,0.5,1.4,0.7,2.1c0,0.1,0.1,0.2,0.1,0.3
			c0.4,1.4,0.7,2.8,1.3,4.2c0.4,0.9,0.8,1.7,1.5,2.4c0.1,0.1,0.2,0.2,0.3,0.2c0.1,0.2,0.3,0.3,0.4,0.4c1.3,0.9,2.7,1.6,4.1,2.3
			c0.6,0.3,1.1,0.6,1.7,0.8c0.3,0.2,0.6,0.3,0.9,0.5c0.4,0.2,0.6,0.4,0.9,0.8c1.5,2.2,2.9,4.4,4.2,6.6c0.1,0.1,0.1,0.2,0.2,0.2
			c0.2-0.7,0.4-1.3,0.6-2c0.5-1.6,0.9-3.2,1.3-4.9c0.2-0.7,0.3-1.3,0.5-2c0.1-0.5,0.2-0.9,0.3-1.4c0,0,0.1-0.1,0-0.1
			c0-0.3,0.1-0.5,0.1-0.8c0.1-0.4,0.2-0.8,0.3-1.2c0,0,0.1-0.1,0-0.1c0-0.3,0.1-0.5,0.1-0.8c0.1-0.3,0-0.6,0.1-0.9
			c0.1-0.4,0.2-0.9,0.2-1.3c0,0,0.1-0.1,0-0.1c0-0.3,0.1-0.7,0.1-1c0,0,0.1-0.1,0-0.1c0-0.2,0-0.4,0.1-0.6c0,0,0.1-0.1,0-0.1
			c0-0.2,0-0.3,0-0.5c0,0,0.1-0.1,0-0.1c0-0.2,0-0.4,0.1-0.6c0,0,0.1-0.1,0-0.1c0-0.2,0-0.4,0.1-0.7
			C140.2,86.7,140.2,86.7,140.2,86.6z"/>
	</g>
</g>
</svg>
