<svg id="Capa_1" data-name="Capa 1" xmlns="http://www.w3.org/2000/svg" viewBox="0 0 154.5 154"><g id="Capa_7" data-name="Capa 7"><path d="M77.2,15c1.23,2.79,0,6.76-3.66,7.21a58.7,58.7,0,0,1,45,30.68,5.06,5.06,0,0,1,2.93-4.23A6,6,0,0,1,123,45.31,65.83,65.83,0,0,0,77.2,15Z" style="fill:#f7c90d"/><path d="M90.42,140.39a5,5,0,0,1-5.21-4.57,59.27,59.27,0,0,1-18.15,2.94,58.45,58.45,0,0,1-.81-116.9c-3.12-1.06-3.91-5-2.37-7.55A66.06,66.06,0,1,0,94.77,140.17a7.25,7.25,0,0,1-1.74-.43A5.21,5.21,0,0,1,90.42,140.39Z" style="fill:#f7c90d"/></g><rect x="53.17" y="14.77" width="98.77" height="131.59" style="fill:#5c7c26"/><path d="M67.08,21.1a3.88,3.88,0,1,1-3.88-3.87A3.88,3.88,0,0,1,67.08,21.1Z" style="fill:#fff"/><path d="M65.83,20.93a2.63,2.63,0,0,1-2.63,2.63h0a2.63,2.63,0,0,1-2.63-2.63V8.6A2.62,2.62,0,0,1,63.2,6h0A2.62,2.62,0,0,1,65.83,8.6Z" style="fill:#5c7c26"/><path d="M82.71,21.1a3.88,3.88,0,1,1-3.87-3.87A3.87,3.87,0,0,1,82.71,21.1Z" style="fill:#fff"/><path d="M81.46,20.93a2.62,2.62,0,0,1-2.62,2.63h0a2.63,2.63,0,0,1-2.63-2.63V8.6A2.62,2.62,0,0,1,78.84,6h0A2.62,2.62,0,0,1,81.46,8.6Z" style="fill:#5c7c26"/><path d="M98.35,21.1a3.88,3.88,0,1,1-3.88-3.87A3.88,3.88,0,0,1,98.35,21.1Z" style="fill:#fff"/><path d="M97.1,20.93a2.63,2.63,0,0,1-2.63,2.63h0a2.63,2.63,0,0,1-2.63-2.63V8.6A2.62,2.62,0,0,1,94.47,6h0A2.62,2.62,0,0,1,97.1,8.6Z" style="fill:#5c7c26"/><path d="M114,21.1a3.88,3.88,0,1,1-3.87-3.87A3.87,3.87,0,0,1,114,21.1Z" style="fill:#fff"/><path d="M112.73,20.93a2.62,2.62,0,0,1-2.62,2.63h0a2.63,2.63,0,0,1-2.63-2.63V8.6A2.62,2.62,0,0,1,110.11,6h0a2.62,2.62,0,0,1,2.62,2.62Z" style="fill:#5c7c26"/><circle cx="125.74" cy="21.1" r="3.88" transform="translate(76.31 138.63) rotate(-76.72)" style="fill:#fff"/><path d="M128.37,20.93a2.63,2.63,0,0,1-2.63,2.63h0a2.63,2.63,0,0,1-2.63-2.63V8.6A2.62,2.62,0,0,1,125.74,6h0a2.62,2.62,0,0,1,2.63,2.62Z" style="fill:#5c7c26"/><circle cx="141.38" cy="21.1" r="3.88" transform="translate(88.36 153.85) rotate(-76.72)" style="fill:#fff"/><path d="M144,20.93a2.62,2.62,0,0,1-2.62,2.63h0a2.63,2.63,0,0,1-2.63-2.63V8.6A2.62,2.62,0,0,1,141.38,6h0A2.62,2.62,0,0,1,144,8.6Z" style="fill:#5c7c26"/><rect x="59.32" y="35.24" width="19.51" height="19.51" style="fill:#fff"/><rect x="64.2" y="40.11" width="9.76" height="9.76" style="fill:#fff"/><polygon points="77.42 26.65 68.83 41.99 64.2 36.28 58.2 41.99 68.87 48.79 85.51 31.23 77.42 26.65" style="fill:#5c7c26"/><polygon points="78.08 28.65 70.87 40.58 79.92 29.53 78.08 28.65" style="fill:#fff"/><rect x="82.71" y="36.37" width="41.36" height="1.83" style="fill:#e6e7e8"/><rect x="82.71" y="40.58" width="64.04" height="1.83" style="fill:#e6e7e8"/><rect x="82.71" y="44.99" width="64.04" height="1.83" style="fill:#e6e7e8"/><rect x="82.71" y="49.41" width="54.41" height="1.83" style="fill:#e6e7e8"/><rect x="59.32" y="66.71" width="19.51" height="19.51" style="fill:#fff"/><rect x="64.2" y="71.59" width="9.76" height="9.76" style="fill:#fff"/><polygon points="77.42 58.13 68.83 73.47 64.2 67.76 58.2 73.47 68.87 80.26 85.51 62.71 77.42 58.13" style="fill:#5c7c26"/><polygon points="78.08 60.13 70.87 72.05 79.92 61 78.08 60.13" style="fill:#fff"/><rect x="82.71" y="67.84" width="26.14" height="1.83" style="fill:#e6e7e8"/><rect x="82.71" y="72.05" width="64.04" height="1.83" style="fill:#e6e7e8"/><rect x="82.71" y="76.47" width="64.04" height="1.83" style="fill:#e6e7e8"/><rect x="82.71" y="80.89" width="32.02" height="1.83" style="fill:#e6e7e8"/><rect x="59.32" y="98.19" width="19.51" height="19.51" style="fill:#fff"/><rect x="64.2" y="103.07" width="9.76" height="9.76" style="fill:#fff"/><polygon points="77.42 89.61 68.83 104.94 64.2 99.23 58.2 104.94 68.87 111.74 85.51 94.19 77.42 89.61" style="fill:#5c7c26"/><polygon points="78.08 91.6 70.87 103.53 79.92 92.48 78.08 91.6" style="fill:#fff"/><rect x="82.71" y="99.32" width="41.36" height="1.83" style="fill:#e6e7e8"/><rect x="82.71" y="103.53" width="64.04" height="1.83" style="fill:#e6e7e8"/><rect x="82.71" y="107.95" width="53.29" height="1.83" style="fill:#e6e7e8"/><path d="M142.3,132.51a5.86,5.86,0,0,0-1.53.27,5.72,5.72,0,0,0-1.38.68l-3.83,1.25,1.66,5.08a5.56,5.56,0,0,0,10.56-3.46l-1.66-5.07Z" style="fill:#a3a3a3"/><rect x="123.59" y="59.61" width="11.11" height="75.28" transform="translate(-23.85 45.01) rotate(-18.13)" style="fill:#d4d5d6"/><rect x="123.59" y="59.61" width="11.11" height="75.28" transform="translate(-23.85 45.01) rotate(-18.13)" style="fill:#fff;opacity:0.25"/><polygon points="140.85 133.02 143 132.31 119.58 60.77 115.28 62.18 138.7 133.72 140.85 133.02" style="fill:#fff"/><polygon points="114.17 51.52 112.14 63.21 113.11 66.15 113.74 63.6 115.75 65.29 116.38 62.74 118.39 64.42 119.02 61.88 121.03 63.56 121.66 61.01 123.68 62.69 122.71 59.75 122.72 59.75 114.17 51.52" style="fill:#d6d6d6"/><polygon points="114.17 51.52 113.49 55.43 117.03 54.27 114.17 51.52" style="fill:#a0a0a0"/><rect x="136.05" y="132.65" width="11.11" height="5.34" transform="translate(-35.07 50.77) rotate(-18.13)" style="fill:#fff"/><path d="M135.49,134.51l1.66,5.07,7.78-2.54h0s-4.65,1.08-1.78-1.8c0,0-8.91,1.76-4.26-1.84Z" style="fill:#bcbcbc"/><path d="M118.23,60.25c-.62,2.27-2.17-1.13-2.17-1.13a5.25,5.25,0,0,1-1.12,2.16c-.63.65-1.22-3.85-1.44-5.87l-1.36,7.8,1,2.94.63-2.55,2,1.69.63-2.55,2,1.68.63-2.54,2,1.68.63-2.55C120.67,63.07,118.23,60.25,118.23,60.25Z" style="fill:#bcbcbc"/></svg>