<svg id="Capa_1" data-name="Capa 1" xmlns="http://www.w3.org/2000/svg" viewBox="0 0 154.5 154"><g id="Capa_5" data-name="Capa 5"><path d="M58.7,143.5A58.41,58.41,0,0,1,13.63,48.09L19,52.52A51.39,51.39,0,0,0,72.57,134.6l1.87,6.73A58.58,58.58,0,0,1,58.7,143.5Z" style="fill:#f7c90d"/><path d="M40.46,17a13.7,13.7,0,1,1-13.7,13.69A13.7,13.7,0,0,1,40.46,17Z" style="fill:#5c7c26"/><path d="M40.2,6.52a31.67,31.67,0,0,1,30.25,41L79.9,52a40.31,40.31,0,1,1,6.82,52l-5.81,4.82a24.2,24.2,0,1,1-5.51-6.35l5.68-4.72A40.21,40.21,0,0,1,75.7,60.45L66.37,56A31.65,31.65,0,1,1,40.2,6.52ZM67.91,104.4a18.56,18.56,0,0,0-20.69,30.17c1.45-6.93,4.6-9.46,5.5-10l.27.24a3,3,0,0,0,.28.24c.2.16.4.32.61.46l4.21,8.9.91-5.09-1.25-2.06.47.1c.4.07.81.13,1.22.16l.69,0a11,11,0,0,0,2.57-.28l-1.32,2.08.75,5.2L67,125.17c.22-.17.43-.35.64-.54l.09.07a18.59,18.59,0,0,1,5.44,9.8,18.56,18.56,0,0,0-5.27-30.1Zm34.18-18.49c.26.33,5.47,3.73,5.47,3.73L105,93.12l8.1,6.37v0l0,0,0,0,0,0,8.11-6.37-2.56-3.48s5.2-3.4,5.47-3.73c.46-.58-2.33-3.25-2.33-3.25l-8.7,16.81-8.7-16.81S101.62,85.33,102.09,85.91ZM92.44,96.48a33.54,33.54,0,0,1,4.28-11.3c-1.23-5.65-2.23-12.86-1.51-17.9.11-.77.22-1.51.34-2.22a16.06,16.06,0,0,1,.21-1.77,25.13,25.13,0,0,1,1.92-6.2,14.67,14.67,0,0,1,5.71-7.36,15.2,15.2,0,0,1,9.45-3.22,16.61,16.61,0,0,1,5.2.83,12.55,12.55,0,0,1,8.16,5.38,16.66,16.66,0,0,1,1.94,3.74A16.79,16.79,0,0,1,129.26,60c.75,2.85,1.3,6,1.86,9.31.92,5.37,1.87,10.91,3.79,15.57a.43.43,0,0,1-.06.44.45.45,0,0,1-.42.16,8.68,8.68,0,0,1-4.84-2.18c1,2.58,4.67,4.49,4.72,4.51a.48.48,0,0,1,.23.37.41.41,0,0,1-.19.38,15.91,15.91,0,0,1-1.86,1.06,38.44,38.44,0,0,1,2.33,6.9,30.91,30.91,0,1,0-42.38,0Zm-69.2-41c1.79-9.65,6.08-13.18,7.29-14l.36.32.38.32.82.61,5.75,11.81L39,47.76,37.28,45l.62.13a15,15,0,0,0,1.64.19c.3,0,.61,0,.92,0a15,15,0,0,0,3.43-.4l-1.73,2.79,1.08,6.92L49.6,42.17c.3-.23.58-.47.86-.73l.11.1C54.88,45.27,57,50.4,58,54.65a24.27,24.27,0,1,0-34.76.86Z" style="fill:#5c7c26"/><path d="M60.35,106.22A10.27,10.27,0,1,1,50,116.38,10.28,10.28,0,0,1,60.35,106.22Z" style="fill:#5c7c26"/><polygon points="113.12 99.49 113.11 99.5 113.1 99.49 113.11 99.47 113.12 99.49" style="fill:#5c7c26"/></g></svg>