<svg xmlns="http://www.w3.org/2000/svg" viewBox="0 0 154.6 154"><defs><style>.cls-1{fill:none;stroke:#f7c90d;stroke-miterlimit:10;stroke-width:7.21px;}.cls-2{fill:#5c7c26;}</style></defs><g id="Capa_2" data-name="Capa 2"><g id="Capa_4" data-name="Capa 4"><path class="cls-1" d="M79.12,134.68a53.75,53.75,0,0,1-16,2.44C30.24,137.12,3.6,107.29,3.6,70.5S30.24,3.87,63.09,3.87A53.59,53.59,0,0,1,78.38,6.09"/><path class="cls-2" d="M110.28,0a18.55,18.55,0,0,1-8.21,5.24V23.6h3.44a3.16,3.16,0,0,1,3.18,3.15V38.51h15.49a3.16,3.16,0,0,1,3.18,3.15V62.54A41.65,41.65,0,0,1,120,85.71a51.87,51.87,0,0,1-21.89,18.13,3.21,3.21,0,0,1-1.32.29h-.11a3.21,3.21,0,0,1-1.32-.29,52,52,0,0,1-21.9-18.13,41.73,41.73,0,0,1-7.33-23.17V41.66a3.17,3.17,0,0,1,3.19-3.15H84.84V26.75A3.16,3.16,0,0,1,88,23.6h3.44V5.38A18.5,18.5,0,0,1,82.86.09C57.63,6.2,38.92,28.54,38.92,55.18,38.92,86.53,82.09,154,93,154c12.67,0,61.6-67.47,61.6-98.82C154.6,28.41,135.7,6,110.28,0Z"/><path class="cls-2" d="M91.79,54.1c0,7.52,3.4,11.6,5.46,13.38,2.09-1.87,5.56-6.08,5.56-13.38v-23h-11Z"/></g></g></svg>