<svg xmlns="http://www.w3.org/2000/svg" viewBox="0 0 154.48 154"><defs><style>.cls-1{fill:none;stroke:#f7c90d;stroke-miterlimit:10;stroke-width:6.97px;}.cls-2{fill:#5c7c26;}</style></defs><g id="Capa_2" data-name="Capa 2"><g id="Capa_4" data-name="Capa 4"><path class="cls-1" d="M40.19,134.6A61.83,61.83,0,0,1,3.48,77.87c0-34.12,27.24-61.77,60.83-61.77a59.88,59.88,0,0,1,11.19,1"/><path class="cls-2" d="M152,113.05c-4.11-6.73-17.14-14.2-38.67-22.23l-1.39-13.95c7.86-6.26,13.19-16.78,14.83-29A56,56,0,0,1,121,49c-1.82,10.47-6.73,19.49-13.54,24.34a2.8,2.8,0,0,0-1.14,2.53l1.56,15.62c-.35.21-.69.44-1,.63s-.58.3-.88.44a20.82,20.82,0,0,1-2.51,1l-.5.17a23.15,23.15,0,0,1-13.32,0c-.21-.06-.41-.14-.61-.21a21.74,21.74,0,0,1-2.42-1l-.93-.47c-.36-.19-.69-.41-1-.61l1.57-15.62a2.78,2.78,0,0,0-1.15-2.53C78.28,68.49,73.37,59.48,71.55,49a56.82,56.82,0,0,1-5.7-1.13c1.65,12.23,7,22.74,14.83,29l-1.4,14c-21.52,8-34.55,15.51-38.66,22.22-5.18,8.44-.88,35.6-.37,38.67l.38,2.29H152l.38-2.29C152.84,148.64,157.13,121.48,152,113.05ZM70.89,117.9l-5.43-15.44c4.63-2.15,9.93-4.34,15.83-6.54l.18.1a28.59,28.59,0,0,0,3.27,1.75l.11,0a27.63,27.63,0,0,0,22.88,0l.12,0A29.32,29.32,0,0,0,111.11,96l.18-.1c5.9,2.2,11.2,4.39,15.83,6.54l-5.44,15.44Zm-25.68-2c1.63-2.65,5.61-5.75,11.52-9.07l5.42,15.42v26.2H45.22C43.59,137.5,42.33,120.65,45.21,116ZM147.35,148.5H130.42V122.3l5.43-15.42c5.91,3.32,9.89,6.42,11.51,9.07C150.25,120.65,149,137.49,147.35,148.5Z"/><path class="cls-2" d="M96.29,44.93c18.85,0,34.13-2.23,34.13-5,0-.61-.79-1.19-2.17-1.73V32.46c0-17.93-14.31-32.46-32-32.46s-32,14.53-32,32.46v5.75c-1.38.55-2.18,1.13-2.18,1.74C62.15,42.7,77.44,44.93,96.29,44.93Z"/></g></g></svg>