<svg id="Capa_1" data-name="Capa 1" xmlns="http://www.w3.org/2000/svg" viewBox="0 0 154.5 154"><g id="Capa_5" data-name="Capa 5"><path d="M21.07,134.1a75.07,75.07,0,0,1,.07-89.28A71.3,71.3,0,0,1,81.21,15.26l-.31,8.92A63.13,63.13,0,0,0,27.83,50,65.39,65.39,0,0,0,15.58,98.26a64.32,64.32,0,0,0,24.65,42.87L35,148.19A70.14,70.14,0,0,1,21.07,134.1Z" style="fill:#f7c90d"/></g><polygon points="109.97 41.82 87.39 3 64.37 42.06 76.42 41.99 76.42 68.67 97.31 68.67 97.31 41.89 109.97 41.82" style="fill:#5c7c26"/><rect x="35.54" y="58.67" width="104.46" height="90.84" style="fill:#5c7c26"/><rect x="35.54" y="58.67" width="51.78" height="90.84" style="fill:#5c7c26"/><polygon points="145.32 90.47 29.32 90.47 34.95 58.67 141.94 58.67 145.32 90.47" style="fill:#5c7c26"/><path d="M61.11,132.65c0-.11,0-.22,0-.34a.13.13,0,0,1,0-.06,6.82,6.82,0,0,0-.1-.79,5.29,5.29,0,0,0-.73-2A5.43,5.43,0,0,0,56.88,127a5.38,5.38,0,0,0-4,.67l-1.13.92a5.38,5.38,0,0,0-1.32,2.49v.1a5.37,5.37,0,0,0-.14,1.45v0Z" style="fill:#f7c90d"/><path d="M56.07,129.76l.12,7.09c0,1.13-1.88,1.57-1.88.06" style="fill:#f7c90d"/><rect x="47.19" y="124.03" width="17" height="17" rx="0.42" style="fill:none;stroke:#ffc61f;stroke-miterlimit:10"/></svg>