<svg id="Capa_1" data-name="Capa 1" xmlns="http://www.w3.org/2000/svg" viewBox="0 0 154.5 154"><g id="Capa_5" data-name="Capa 5"><path d="M50.71,130.13A61.27,61.27,0,0,1,49.35,13.29" style="fill:none;stroke:#f7c90d;stroke-miterlimit:10;stroke-width:6.989999771118164px"/><path d="M148.25,11.9a7.61,7.61,0,0,0-5.43-2.27H50.71A7.72,7.72,0,0,0,43,17.38V44.51H51a3.88,3.88,0,0,1,0,7.76H43V60H51a3.88,3.88,0,0,1,0,7.75H43v7.76H51a3.88,3.88,0,0,1,0,7.75H43V91H51a3.88,3.88,0,0,1,0,7.76H43v7.75H51a3.88,3.88,0,0,1,0,7.75H43v11.64a7.72,7.72,0,0,0,6,7.56L118.13,149a7.81,7.81,0,0,0,1.66.18,7.68,7.68,0,0,0,4.81-1.7,7.8,7.8,0,0,0,2.87-6v-7.75a7.72,7.72,0,0,0,7.68-7.76v-7.75h7.67a7.72,7.72,0,0,0,7.68-7.75v-93A7.77,7.77,0,0,0,148.25,11.9Zm-20.6,104.61a4.58,4.58,0,0,1-6.43,1l-12.61-9.35a4.63,4.63,0,0,1-1.84-3.29l-1.66-1.23a22.78,22.78,0,0,1-29.66,2.08,23.43,23.43,0,0,1-4.93-32.51,22.89,22.89,0,0,1,32.2-5,23.42,23.42,0,0,1,6.21,30.55l1.47,1.09a4.55,4.55,0,0,1,3.66.79l12.6,9.34A4.68,4.68,0,0,1,127.65,116.51Zm15.17-6.09h-7.67v-7.75a7.72,7.72,0,0,0-7.68-7.76V48.39a7.74,7.74,0,0,0-6-7.57L52.37,25.32a7.23,7.23,0,0,0-1.66-.19V17.38h92.11ZM101.45,96.16A15.26,15.26,0,0,1,80,99.48,15.61,15.61,0,0,1,76.71,77.8a15.25,15.25,0,0,1,21.46-3.32A15.59,15.59,0,0,1,101.45,96.16Z" style="fill:#5c7c26"/></g></svg>