<svg id="Capa_1" data-name="Capa 1" xmlns="http://www.w3.org/2000/svg" viewBox="0 0 154.5 154"><g id="Capa_7" data-name="Capa 7"><path d="M60.9,137.82A60.82,60.82,0,1,1,121.72,77,60.89,60.89,0,0,1,60.9,137.82Zm0-114.65A53.83,53.83,0,1,0,114.73,77,54.09,54.09,0,0,0,60.9,23.17Z" style="fill:#f7c90d"/><rect x="67.17" y="20.19" width="76.53" height="111.42" style="fill:#fff"/><rect x="41.18" y="65.57" width="76.53" height="60.75" style="fill:#fff"/><path d="M79.38,32.77A3.63,3.63,0,0,0,83,36.44h43a3.67,3.67,0,0,0,0-7.33H83A3.63,3.63,0,0,0,79.38,32.77ZM83,44h43a3.67,3.67,0,0,1,0,7.34H83A3.67,3.67,0,0,1,83,44ZM25.08,65.76l14.4,66a7.23,7.23,0,0,0,7,5.74H147.3a7.27,7.27,0,0,0,7.2-7.33v-88a7.26,7.26,0,0,0-7.2-7.33h-3.6V20.19a3.64,3.64,0,0,0-3.6-3.67h-72a3.65,3.65,0,0,0-3.6,3.67V34.85H60.9a7.27,7.27,0,0,0-7.2,7.33v7.33H46.5a7.27,7.27,0,0,0-7.2,7.33H32.1a7.16,7.16,0,0,0-5.61,2.74A7.41,7.41,0,0,0,25.08,65.76ZM143.7,42.18h3.6v88h-3.6ZM64.5,49.51H60.9V42.18h3.6Zm54,7.33H75.3a7.26,7.26,0,0,0-7.2-7.33V20.19h72v110h0c0-.53-14.56-67.57-14.56-67.57A7.23,7.23,0,0,0,118.5,56.84ZM55.3,117.6l11.36-9.45a4.22,4.22,0,0,1,3.39-.92l1.33-1.1A22.29,22.29,0,0,1,75.74,77a21.34,21.34,0,0,1,30.4,3.12,22.31,22.31,0,0,1-3.07,31,21.24,21.24,0,0,1-27.88-.52l-1.5,1.24a4.4,4.4,0,0,1-1.56,3.2l-11.36,9.44a4.28,4.28,0,0,1-6.08-.62A4.46,4.46,0,0,1,55.3,117.6Zm25-34.94a14.21,14.21,0,0,1,20.26,2.08,14.85,14.85,0,0,1-2,20.63,14.21,14.21,0,0,1-20.26-2.08A14.85,14.85,0,0,1,80.3,82.66Z" style="fill:#5c7c26"/></g></svg>