<svg xmlns="http://www.w3.org/2000/svg" viewBox="0 0 59 16.58"><g id="Capa_2" data-name="Capa 2"><g id="HOME"><g id="Carrusel"><polygon points="22.39 0 13.67 0 13.65 0.02 22.39 8.29 13.65 16.56 13.67 16.58 22.39 16.58 31.16 8.29 22.39 0" style="fill:#5c7c26"/><polygon points="8.74 0 0.02 0 0 0.02 8.74 8.29 0 16.56 0.02 16.58 8.74 16.58 17.51 8.29 8.74 0" style="fill:#5c7c26"/><polygon points="36.31 0 27.59 0 27.57 0.02 36.31 8.29 27.57 16.56 27.59 16.58 36.31 16.58 45.08 8.29 36.31 0" style="fill:#5c7c26"/><polygon points="50.24 0 41.52 0 41.5 0.02 50.24 8.29 41.5 16.56 41.52 16.58 50.24 16.58 59.01 8.29 50.24 0" style="fill:#5c7c26"/></g></g></g></svg>