<svg xmlns="http://www.w3.org/2000/svg" viewBox="0 0 59 16.58"><g id="Capa_2" data-name="Capa 2"><g id="HOME"><g id="Carrusel"><polygon points="36.61 16.58 45.33 16.58 45.36 16.56 36.61 8.29 45.36 0.02 45.33 0 36.61 0 27.85 8.29 36.61 16.58" style="fill:#5c7c26"/><polygon points="50.26 16.58 58.98 16.58 59.01 16.56 50.26 8.29 59.01 0.02 58.98 0 50.26 0 41.5 8.29 50.26 16.58" style="fill:#5c7c26"/><polygon points="22.69 16.58 31.41 16.58 31.43 16.56 22.69 8.29 31.43 0.02 31.41 0 22.69 0 13.92 8.29 22.69 16.58" style="fill:#5c7c26"/><polygon points="8.77 16.58 17.49 16.58 17.51 16.56 8.77 8.29 17.51 0.02 17.49 0 8.77 0 0 8.29 8.77 16.58" style="fill:#5c7c26"/></g></g></g></svg>