<svg xmlns="http://www.w3.org/2000/svg" viewBox="0 0 22.2 22.2"><g id="Capa_2" data-name="Capa 2"><g id="HOME"><g id="Capa_15" data-name="Capa 15"><g id="Capa_16" data-name="Capa 16"><circle cx="11.1" cy="11.1" r="11.1" style="fill:#5c7c26"/><path d="M14.54,6.9a.76.76,0,0,0-.76.76.77.77,0,0,0,.76.77.78.78,0,0,0,.77-.77A.77.77,0,0,0,14.54,6.9Z" style="fill:#fff"/><path d="M11.15,7.88a3.21,3.21,0,1,0,3.21,3.2A3.2,3.2,0,0,0,11.15,7.88Zm0,5.25a2.05,2.05,0,1,1,2-2.05A2.05,2.05,0,0,1,11.15,13.13Z" style="fill:#fff"/><path d="M13.69,17.59H8.5a3.92,3.92,0,0,1-3.91-3.91V8.48A3.91,3.91,0,0,1,8.5,4.58h5.19a3.91,3.91,0,0,1,3.91,3.9v5.2A3.92,3.92,0,0,1,13.69,17.59ZM8.5,5.8A2.68,2.68,0,0,0,5.82,8.48v5.2A2.68,2.68,0,0,0,8.5,16.36h5.19a2.68,2.68,0,0,0,2.69-2.68V8.48A2.68,2.68,0,0,0,13.69,5.8Z" style="fill:#fff"/></g></g></g></g></svg>