<svg xmlns="http://www.w3.org/2000/svg" viewBox="0 0 22.2 22.2"><g id="Capa_2" data-name="Capa 2"><g id="HOME"><g id="Capa_15" data-name="Capa 15"><g id="Capa_16" data-name="Capa 16"><path d="M22.2,11.1a11.1,11.1,0,1,0-12.84,11V14.31H6.55V11.1H9.36V8.65c0-2.78,1.66-4.31,4.2-4.31A17.58,17.58,0,0,1,16,4.55V7.28h-1.4A1.61,1.61,0,0,0,12.83,9V11.1h3.08l-.49,3.21H12.83v7.75A11.1,11.1,0,0,0,22.2,11.1Z" style="fill:#5c7c26"/><path d="M15.42,14.31l.49-3.21H12.83V9a1.61,1.61,0,0,1,1.81-1.74H16V4.55a17.58,17.58,0,0,0-2.48-.21c-2.54,0-4.2,1.53-4.2,4.31V11.1H6.55v3.21H9.36v7.75a11.14,11.14,0,0,0,1.74.14,10.92,10.92,0,0,0,1.73-.14V14.31Z" style="fill:#fff"/></g></g></g></g></svg>