<svg xmlns="http://www.w3.org/2000/svg" viewBox="0 0 25.36 22.6"><g id="Capa_2" data-name="Capa 2"><g id="HOME"><g id="Menu"><path d="M8.78,0a8.84,8.84,0,0,1,6.29,2.59,9.13,9.13,0,0,1,2.6,6.29,8.51,8.51,0,0,1-1.79,5.28l9.27,7.47a.62.62,0,0,1,.11.8.78.78,0,0,1-.8.11l-9.28-7.49-.11.11a8.81,8.81,0,0,1-12.48,0A8.44,8.44,0,0,1,0,8.88,8.7,8.7,0,0,1,2.59,2.59,8.8,8.8,0,0,1,8.78,0ZM7.68,2.69h0c.21,0,.31.2.31.49a.31.31,0,0,1-.31.3A3.8,3.8,0,0,0,4.59,4.69,4.06,4.06,0,0,0,3.2,7.78c-.11.09-.3.3-.4.3a.46.46,0,0,1-.41-.3,6.13,6.13,0,0,1,1.7-3.69,5,5,0,0,1,3.59-1.4Zm6.59.79h0A7.75,7.75,0,0,0,8.78,1.19,8.12,8.12,0,0,0,3.29,3.48,7.54,7.54,0,0,0,1.1,8.88a8,8,0,0,0,2.19,5.58,8.47,8.47,0,0,0,5.49,2.2,8.07,8.07,0,0,0,5.49-2.2,8.1,8.1,0,0,0,2.31-5.58,7.65,7.65,0,0,0-2.31-5.4Z" style="fill:#727176;fill-rule:evenodd"/></g></g></g></svg>