<svg xmlns="http://www.w3.org/2000/svg" viewBox="0 0 12.65 16.51"><g id="Capa_2" data-name="Capa 2"><g id="HOME"><g id="Contacto_header" data-name="Contacto header"><path d="M6.33,0A6.34,6.34,0,0,0,0,6.33c0,3.28,5.18,9,5.77,9.58l.56.6.55-.6c.59-.63,5.77-6.3,5.77-9.58A6.33,6.33,0,0,0,6.33,0Zm0,14.27c-1.73-2-4.81-5.91-4.81-7.94a4.81,4.81,0,0,1,9.62,0C11.14,8.36,8.05,12.3,6.33,14.27Z" style="fill:#fff"/><path d="M6.33,3.1a3,3,0,1,0,3,3A3,3,0,0,0,6.33,3.1Zm0,4.41A1.45,1.45,0,1,1,7.78,6.06,1.45,1.45,0,0,1,6.33,7.51Z" style="fill:#fff"/></g></g></g></svg>