<svg xmlns="http://www.w3.org/2000/svg" viewBox="0 0 100.83 75.59"><g id="Capa_2" data-name="Capa 2"><g id="HOME"><g id="Menu"><g id="Logo"><path d="M39.92,41.29s-4.39,5.62.1,10.11l8.32,7.36A22.76,22.76,0,0,0,58.8,48l-8.57-7.48S45.23,36.19,39.92,41.29Zm31.16,17.4A38.67,38.67,0,0,1,60.23,69.28l4.59,4.07s5.31,4,10.11-.61c0,0,5.11-5-.51-11.13ZM38.77,61C26.49,61,16.54,50.69,16.54,38s10-23,22.23-23S61,25.26,61,38a23.55,23.55,0,0,1-2.2,10L71.08,58.69A37,37,0,0,0,77.54,37.8C77.54,16.92,60.18,0,38.77,0S0,16.92,0,37.8,17.36,75.59,38.77,75.59a39.32,39.32,0,0,0,21.46-6.31L48.34,58.76A21.59,21.59,0,0,1,38.77,61Z" style="fill:#8eb322"/><path d="M71.08,58.69,58.8,48a22.76,22.76,0,0,1-10.46,10.8L60.23,69.28A38.67,38.67,0,0,0,71.08,58.69Z" style="fill:#5c7c26"/><path d="M98.53,41.08a1.85,1.85,0,0,1-1.48.74A1.81,1.81,0,0,1,95.24,40a1.92,1.92,0,0,1,.36-1.13,7.52,7.52,0,0,0,1.6-4.56c0-1.6-.63-2.57-1.68-2.57h0c-1,0-1.5.61-2.27,3.59-.91,3.6-1.91,5.91-5.45,5.91h0c-3.24,0-5.38-2.59-5.38-6.24a10.33,10.33,0,0,1,1.58-5.65,1.82,1.82,0,0,1,3.37,1,1.88,1.88,0,0,1-.28,1A7.36,7.36,0,0,0,85.79,35c0,1.51.69,2.3,1.55,2.3h0c1.18,0,1.56-.77,2.35-3.85.94-3.62,2.24-5.66,5.35-5.66h0c3.54,0,5.53,2.7,5.53,6.55A11.5,11.5,0,0,1,98.53,41.08Z" style="fill:#5c7c26"/><path d="M98.65,56.4H84.34a2,2,0,0,1-2-2V44.21a1.81,1.81,0,0,1,1.81-1.8,1.79,1.79,0,0,1,1.79,1.8v8.18h3.72v-7a1.8,1.8,0,1,1,3.59,0v7h3.85V44.08a1.81,1.81,0,0,1,1.81-1.8,1.79,1.79,0,0,1,1.78,1.8v10.3A2,2,0,0,1,98.65,56.4Z" style="fill:#5c7c26"/><path d="M91.63,74.51h0a9.1,9.1,0,0,1-9.26-9.33,9.45,9.45,0,0,1,1.82-6,2,2,0,0,1,1.56-.77,1.92,1.92,0,0,1,1.91,1.94,2.06,2.06,0,0,1-.38,1.18A5.88,5.88,0,0,0,86,65.2a5.31,5.31,0,0,0,5.58,5.19h0A5.31,5.31,0,0,0,97.2,65.2a5.74,5.74,0,0,0-1.4-3.88A1.82,1.82,0,1,1,98.58,59a9.43,9.43,0,0,1-7,15.54Z" style="fill:#5c7c26"/><path d="M99.52,11.56c0,2.72-2.43,4.25-3.13,4.83l-3.83,3H97.1a2.79,2.79,0,0,1,2.79,2.79h0A2.79,2.79,0,0,1,97.1,25H84.76c-1,0-3.18-.65-3.18-2.43a2.8,2.8,0,0,1,1.06-2.46h0l9-6.69c.3-.25,1.73-1.17,1.73-2.29,0-.5-.57-1.66-3.24-1.47C88.33,9.76,87,12.05,87,12.05a3.33,3.33,0,0,1-2.68,1.45A2.47,2.47,0,0,1,81.82,11h0c0-7.1,9.91-6.75,9.91-6.75C96.12,4.29,99.52,8.12,99.52,11.56Z" style="fill:#727176"/></g></g></g></g></svg>