<svg xmlns="http://www.w3.org/2000/svg" viewBox="0 0 46.63 33.02"><g id="Capa_2" data-name="Capa 2"><g id="HOME"><g id="Contacto_header" data-name="Contacto header"><rect width="46.63" height="33.02" rx="11.01" style="fill:#fff"/><path d="M36.12,29.06h0a3,3,0,0,1-3-3,3.1,3.1,0,0,1,.6-2,.64.64,0,0,1,.5-.25.63.63,0,0,1,.63.64.66.66,0,0,1-.13.38A2,2,0,0,0,34.27,26a1.73,1.73,0,0,0,1.82,1.7h0A1.74,1.74,0,0,0,37.94,26a1.9,1.9,0,0,0-.46-1.27.61.61,0,0,1-.14-.38.59.59,0,0,1,1-.38,2.91,2.91,0,0,1,.73,2.07A3,3,0,0,1,36.12,29.06Z" style="fill:#f7c90d"/><path d="M38.38,23.32H33.83a.65.65,0,0,1-.65-.64V19.44a.58.58,0,0,1,.58-.58.57.57,0,0,1,.57.58V22h1.18V19.81a.58.58,0,0,1,.58-.57.57.57,0,0,1,.56.57V22h1.23V19.4a.58.58,0,0,1,.58-.58.57.57,0,0,1,.56.58v3.28A.64.64,0,0,1,38.38,23.32Z" style="fill:#f7c90d"/><path d="M33.79,18.4a.63.63,0,0,1-.64-.64v-.14a.67.67,0,0,1,.33-.59L36,15.48l-2.54-1.56a.62.62,0,0,1-.32-.57V13.2a.64.64,0,0,1,.64-.64h4.64a.64.64,0,1,1,0,1.28H35.52L37.25,15a.59.59,0,0,1,0,1.06l-1.71,1.11h2.91a.63.63,0,0,1,.62.64.61.61,0,0,1-.62.62Z" style="fill:#f7c90d"/><path d="M38.17,9.57h-2l.65-.41C38.18,8.31,39,7.71,39,6.52v0c0-1.3-1.15-2.18-2.87-2.18a3.57,3.57,0,0,0-2.66,1,.83.83,0,0,0-.27.59.92.92,0,0,0,1,.84,1,1,0,0,0,.71-.25A1.55,1.55,0,0,1,36,6c.25,0,.83.06.83.62,0,.4-.28.7-1.25,1.35L33.39,9.45a1.06,1.06,0,0,0-.54.88c0,.52.46.87,1.13.87h4.19a.87.87,0,0,0,.95-.81A.89.89,0,0,0,38.17,9.57Z" style="fill:#727176"/><path d="M18.24,17.21s-1.58,2,0,3.62l3,2.64A8.19,8.19,0,0,0,25,19.6l-3.07-2.68A2.7,2.7,0,0,0,18.24,17.21Zm11.15,6.23a13.74,13.74,0,0,1-3.88,3.79l1.64,1.46a2.81,2.81,0,0,0,3.62-.22,2.76,2.76,0,0,0-.18-4Zm-11.56.83a8.1,8.1,0,0,1-8-8.24,8.1,8.1,0,0,1,8-8.24,8.1,8.1,0,0,1,8,8.24A8.48,8.48,0,0,1,25,19.6l4.39,3.84A13.22,13.22,0,0,0,31.7,16,13.7,13.7,0,0,0,17.83,2.43,13.71,13.71,0,0,0,4,16,13.7,13.7,0,0,0,17.83,29.49a14,14,0,0,0,7.68-2.26l-4.26-3.76A7.75,7.75,0,0,1,17.83,24.27Z" style="fill:#8eb322"/><path d="M29.39,23.44,25,19.6a8.19,8.19,0,0,1-3.75,3.87l4.26,3.76A13.74,13.74,0,0,0,29.39,23.44Z" style="fill:#5c7c26"/></g></g></g></svg>