<svg id="Capa_1" data-name="Capa 1" xmlns="http://www.w3.org/2000/svg" viewBox="0 0 16.89 16.87"><g id="Capa_2" data-name="Capa 2"><g id="HOME"><g id="Contacto_header" data-name="Contacto header"><path d="M8.5,0a8.46,8.46,0,0,0-6,2.5,8.34,8.34,0,0,0,0,11.87,8.23,8.23,0,0,0,6,2.52,8.23,8.23,0,0,0,6-2.52,8.35,8.35,0,0,0,0-11.87A8.47,8.47,0,0,0,8.5,0Zm0,16.14A7.75,7.75,0,0,1,2.92,2.92,8.11,8.11,0,0,1,8.5.59,8,8,0,0,1,14,2.92a7.74,7.74,0,0,1,0,11l0,0A7.67,7.67,0,0,1,8.5,16.14ZM7.64,3.78a.29.29,0,0,0-.26.27V8.64a.87.87,0,0,0-.47.79.94.94,0,0,0,.86,1h.07a1,1,0,0,0,.81-.4H13a.34.34,0,0,0,0-.66H8.77A.92.92,0,0,0,8,8.5V4.05A.33.33,0,0,0,7.64,3.78Z" style="fill:#5c7c2b"/></g></g></g></svg>