<svg xmlns="http://www.w3.org/2000/svg" viewBox="0 0 1078.97 21.37"><g id="Capa_2" data-name="Capa 2"><g id="HOME"><g id="Capa_15" data-name="Capa 15"><polygon points="28.59 0 17.46 0 17.43 0.03 28.59 10.59 17.43 21.15 17.46 21.17 28.59 21.17 39.78 10.59 28.59 0" style="fill:#5c7c26"/><polygon points="11.16 0 0.03 0 0 0.03 11.16 10.59 0 21.15 0.03 21.17 11.16 21.17 22.36 10.59 11.16 0" style="fill:#5c7c26"/><polygon points="46.37 0 35.23 0 35.21 0.03 46.37 10.59 35.21 21.15 35.23 21.17 46.37 21.17 57.56 10.59 46.37 0" style="fill:#5c7c26"/><polygon points="64.15 0 53.01 0 52.99 0.03 64.15 10.59 52.99 21.15 53.01 21.17 64.15 21.17 75.34 10.59 64.15 0" style="fill:#5c7c26"/><polygon points="81.93 0 70.8 0 70.77 0.03 81.93 10.59 70.77 21.15 70.8 21.17 81.93 21.17 93.12 10.59 81.93 0" style="fill:#5c7c26"/><polygon points="99.71 0 88.58 0 88.54 0.03 99.71 10.59 88.54 21.15 88.58 21.17 99.71 21.17 110.9 10.59 99.71 0" style="fill:#5c7c26"/><polygon points="133.89 0 122.76 0 122.73 0.03 133.89 10.59 122.73 21.15 122.76 21.17 133.89 21.17 145.09 10.59 133.89 0" style="fill:#5c7c26"/><polygon points="116.47 0 105.33 0 105.3 0.03 116.47 10.59 105.3 21.15 105.33 21.17 116.47 21.17 127.66 10.59 116.47 0" style="fill:#5c7c26"/><polygon points="151.67 0 140.54 0 140.51 0.03 151.67 10.59 140.51 21.15 140.54 21.17 151.67 21.17 162.87 10.59 151.67 0" style="fill:#5c7c26"/><polygon points="169.45 0 158.32 0 158.29 0.03 169.45 10.59 158.29 21.15 158.32 21.17 169.45 21.17 180.65 10.59 169.45 0" style="fill:#5c7c26"/><polygon points="203.6 0.2 192.47 0.2 192.44 0.22 203.6 10.78 192.44 21.34 192.47 21.37 203.6 21.37 214.79 10.78 203.6 0.2" style="fill:#5c7c26"/><polygon points="186.17 0.2 175.04 0.2 175.01 0.22 186.17 10.78 175.01 21.34 175.04 21.37 186.17 21.37 197.37 10.78 186.17 0.2" style="fill:#5c7c26"/><polygon points="221.38 0.2 210.25 0.2 210.22 0.22 221.38 10.78 210.22 21.34 210.25 21.37 221.38 21.37 232.57 10.78 221.38 0.2" style="fill:#5c7c26"/><polygon points="239.16 0.2 228.02 0.2 228 0.22 239.16 10.78 228 21.34 228.02 21.37 239.16 21.37 250.35 10.78 239.16 0.2" style="fill:#5c7c26"/><polygon points="276.28 0 265.15 0 265.12 0.03 276.28 10.59 265.12 21.15 265.15 21.17 276.28 21.17 287.48 10.59 276.28 0" style="fill:#5c7c26"/><polygon points="258.86 0 247.72 0 247.69 0.03 258.86 10.59 247.69 21.15 247.72 21.17 258.86 21.17 270.05 10.59 258.86 0" style="fill:#5c7c26"/><polygon points="294.06 0 282.93 0 282.9 0.03 294.06 10.59 282.9 21.15 282.93 21.17 294.06 21.17 305.26 10.59 294.06 0" style="fill:#5c7c26"/><polygon points="311.84 0 300.71 0 300.68 0.03 311.84 10.59 300.68 21.15 300.71 21.17 311.84 21.17 323.04 10.59 311.84 0" style="fill:#5c7c26"/><polygon points="329.62 0 318.49 0 318.46 0.03 329.62 10.59 318.46 21.15 318.49 21.17 329.62 21.17 340.81 10.59 329.62 0" style="fill:#5c7c26"/><polygon points="347.4 0 336.27 0 336.24 0.03 347.4 10.59 336.24 21.15 336.27 21.17 347.4 21.17 358.59 10.59 347.4 0" style="fill:#5c7c26"/><polygon points="381.59 0 370.45 0 370.42 0.03 381.59 10.59 370.42 21.15 370.45 21.17 381.59 21.17 392.78 10.59 381.59 0" style="fill:#5c7c26"/><polygon points="364.16 0 353.03 0 353 0.03 364.16 10.59 353 21.15 353.03 21.17 364.16 21.17 375.35 10.59 364.16 0" style="fill:#5c7c26"/><polygon points="399.37 0 388.23 0 388.2 0.03 399.37 10.59 388.2 21.15 388.23 21.17 399.37 21.17 410.56 10.59 399.37 0" style="fill:#5c7c26"/><polygon points="417.15 0 406.01 0 405.98 0.03 417.15 10.59 405.98 21.15 406.01 21.17 417.15 21.17 428.34 10.59 417.15 0" style="fill:#5c7c26"/><polygon points="451.29 0.2 440.16 0.2 440.13 0.22 451.29 10.78 440.13 21.34 440.16 21.37 451.29 21.37 462.49 10.78 451.29 0.2" style="fill:#5c7c26"/><polygon points="433.87 0.2 422.73 0.2 422.7 0.22 433.87 10.78 422.7 21.34 422.73 21.37 433.87 21.37 445.06 10.78 433.87 0.2" style="fill:#5c7c26"/><polygon points="469.07 0.2 457.94 0.2 457.91 0.22 469.07 10.78 457.91 21.34 457.94 21.37 469.07 21.37 480.27 10.78 469.07 0.2" style="fill:#5c7c26"/><polygon points="486.85 0.2 475.72 0.2 475.69 0.22 486.85 10.78 475.69 21.34 475.72 21.37 486.85 21.37 498.05 10.78 486.85 0.2" style="fill:#5c7c26"/><polygon points="522.63 0 511.5 0 511.47 0.03 522.63 10.59 511.47 21.15 511.5 21.17 522.63 21.17 533.83 10.59 522.63 0" style="fill:#5c7c26"/><polygon points="505.21 0 494.07 0 494.05 0.03 505.21 10.59 494.05 21.15 494.07 21.17 505.21 21.17 516.4 10.59 505.21 0" style="fill:#5c7c26"/><polygon points="540.41 0 529.28 0 529.25 0.03 540.41 10.59 529.25 21.15 529.28 21.17 540.41 21.17 551.61 10.59 540.41 0" style="fill:#5c7c26"/><polygon points="558.2 0 547.06 0 547.03 0.03 558.2 10.59 547.03 21.15 547.06 21.17 558.2 21.17 569.39 10.59 558.2 0" style="fill:#5c7c26"/><polygon points="575.98 0 564.84 0 564.81 0.03 575.98 10.59 564.81 21.15 564.84 21.17 575.98 21.17 587.17 10.59 575.98 0" style="fill:#5c7c26"/><polygon points="593.75 0 582.62 0 582.59 0.03 593.75 10.59 582.59 21.15 582.62 21.17 593.75 21.17 604.95 10.59 593.75 0" style="fill:#5c7c26"/><polygon points="627.94 0 616.8 0 616.78 0.03 627.94 10.59 616.78 21.15 616.8 21.17 627.94 21.17 639.13 10.59 627.94 0" style="fill:#5c7c26"/><polygon points="610.51 0 599.38 0 599.35 0.03 610.51 10.59 599.35 21.15 599.38 21.17 610.51 21.17 621.7 10.59 610.51 0" style="fill:#5c7c26"/><polygon points="645.72 0 634.58 0 634.55 0.03 645.72 10.59 634.55 21.15 634.58 21.17 645.72 21.17 656.91 10.59 645.72 0" style="fill:#5c7c26"/><polygon points="663.5 0 652.36 0 652.34 0.03 663.5 10.59 652.34 21.15 652.36 21.17 663.5 21.17 674.69 10.59 663.5 0" style="fill:#5c7c26"/><polygon points="697.65 0.2 686.51 0.2 686.48 0.22 697.65 10.78 686.48 21.34 686.51 21.37 697.65 21.37 708.84 10.78 697.65 0.2" style="fill:#5c7c26"/><polygon points="680.22 0.2 669.09 0.2 669.06 0.22 680.22 10.78 669.06 21.34 669.09 21.37 680.22 21.37 691.41 10.78 680.22 0.2" style="fill:#5c7c26"/><polygon points="715.42 0.2 704.29 0.2 704.26 0.22 715.42 10.78 704.26 21.34 704.29 21.37 715.42 21.37 726.62 10.78 715.42 0.2" style="fill:#5c7c26"/><polygon points="733.21 0.2 722.07 0.2 722.04 0.22 733.21 10.78 722.04 21.34 722.07 21.37 733.21 21.37 744.4 10.78 733.21 0.2" style="fill:#5c7c26"/><polygon points="770.33 0 759.2 0 759.17 0.03 770.33 10.59 759.17 21.15 759.2 21.17 770.33 21.17 781.52 10.59 770.33 0" style="fill:#5c7c26"/><polygon points="752.9 0 741.77 0 741.74 0.03 752.9 10.59 741.74 21.15 741.77 21.17 752.9 21.17 764.09 10.59 752.9 0" style="fill:#5c7c26"/><polygon points="788.11 0 776.97 0 776.95 0.03 788.11 10.59 776.95 21.15 776.97 21.17 788.11 21.17 799.3 10.59 788.11 0" style="fill:#5c7c26"/><polygon points="805.89 0 794.75 0 794.73 0.03 805.89 10.59 794.73 21.15 794.75 21.17 805.89 21.17 817.08 10.59 805.89 0" style="fill:#5c7c26"/><polygon points="823.67 0 812.53 0 812.5 0.03 823.67 10.59 812.5 21.15 812.53 21.17 823.67 21.17 834.86 10.59 823.67 0" style="fill:#5c7c26"/><polygon points="841.45 0 830.31 0 830.28 0.03 841.45 10.59 830.28 21.15 830.31 21.17 841.45 21.17 852.64 10.59 841.45 0" style="fill:#5c7c26"/><polygon points="875.63 0 864.5 0 864.47 0.03 875.63 10.59 864.47 21.15 864.5 21.17 875.63 21.17 886.82 10.59 875.63 0" style="fill:#5c7c26"/><polygon points="858.21 0 847.07 0 847.04 0.03 858.21 10.59 847.04 21.15 847.07 21.17 858.21 21.17 869.4 10.59 858.21 0" style="fill:#5c7c26"/><polygon points="893.41 0 882.28 0 882.25 0.03 893.41 10.59 882.25 21.15 882.28 21.17 893.41 21.17 904.61 10.59 893.41 0" style="fill:#5c7c26"/><polygon points="911.19 0 900.06 0 900.03 0.03 911.19 10.59 900.03 21.15 900.06 21.17 911.19 21.17 922.38 10.59 911.19 0" style="fill:#5c7c26"/><polygon points="945.34 0.2 934.21 0.2 934.18 0.22 945.34 10.78 934.18 21.34 934.21 21.37 945.34 21.37 956.53 10.78 945.34 0.2" style="fill:#5c7c26"/><polygon points="927.91 0.2 916.78 0.2 916.75 0.22 927.91 10.78 916.75 21.34 916.78 21.37 927.91 21.37 939.1 10.78 927.91 0.2" style="fill:#5c7c26"/><polygon points="963.12 0.2 951.98 0.2 951.96 0.22 963.12 10.78 951.96 21.34 951.98 21.37 963.12 21.37 974.31 10.78 963.12 0.2" style="fill:#5c7c26"/><polygon points="980.9 0.2 969.76 0.2 969.74 0.22 980.9 10.78 969.74 21.34 969.76 21.37 980.9 21.37 992.09 10.78 980.9 0.2" style="fill:#5c7c26"/><polygon points="1015.02 0.2 1003.89 0.2 1003.86 0.22 1015.02 10.78 1003.86 21.34 1003.89 21.37 1015.02 21.37 1026.21 10.78 1015.02 0.2" style="fill:#5c7c26"/><polygon points="997.59 0.2 986.46 0.2 986.43 0.22 997.59 10.78 986.43 21.34 986.46 21.37 997.59 21.37 1008.78 10.78 997.59 0.2" style="fill:#5c7c26"/><polygon points="1032.8 0.2 1021.66 0.2 1021.64 0.22 1032.8 10.78 1021.64 21.34 1021.66 21.37 1032.8 21.37 1043.99 10.78 1032.8 0.2" style="fill:#5c7c26"/><polygon points="1050.58 0.2 1039.44 0.2 1039.41 0.22 1050.58 10.78 1039.41 21.34 1039.44 21.37 1050.58 21.37 1061.77 10.78 1050.58 0.2" style="fill:#5c7c26"/><polygon points="1067.78 0.2 1056.64 0.2 1056.61 0.22 1067.78 10.78 1056.61 21.34 1056.64 21.37 1067.78 21.37 1078.97 10.78 1067.78 0.2" style="fill:#5c7c26"/></g></g></g></svg>