<svg xmlns="http://www.w3.org/2000/svg" viewBox="0 0 14.39 14.39"><g id="Capa_2" data-name="Capa 2"><g id="HOME"><g id="Contacto_header" data-name="Contacto header"><path d="M14.11,10.76l-4-4L7.47,9.35,5,6.93,7.65,4.31l-4-4A1,1,0,0,0,2.93,0a1,1,0,0,0-.68.3A8.38,8.38,0,0,0,14.09,12.14a1,1,0,0,0,.3-.68A1,1,0,0,0,14.11,10.76ZM3.43,11A7,7,0,0,1,3,1.56L5.72,4.31,4.06,6a1.38,1.38,0,0,0-.39,1,1.34,1.34,0,0,0,.39,1l2.45,2.45a1.36,1.36,0,0,0,1.91,0l1.66-1.66,2.75,2.75A7,7,0,0,1,3.43,11Z" style="fill:#fff"/></g></g></g></svg>