<svg xmlns="http://www.w3.org/2000/svg" viewBox="0 0 24.66 24.66"><g id="Capa_2" data-name="Capa 2"><g id="HOME"><g id="Capa_15" data-name="Capa 15"><g id="Capa_16" data-name="Capa 16"><path d="M24.18,18.44l-6.9-6.9L12.79,16,8.62,11.88l4.5-4.5L6.22.48A1.61,1.61,0,0,0,5,0,1.67,1.67,0,0,0,3.86.52,14.35,14.35,0,0,0,24.14,20.8a1.64,1.64,0,0,0,0-2.36Zm-18.3.34A12,12,0,0,1,5.09,2.67L9.8,7.38,7,10.22a2.33,2.33,0,0,0,0,3.29l4.19,4.19a2.33,2.33,0,0,0,3.29,0l2.84-2.84L22,19.57A12,12,0,0,1,5.88,18.78Z" style="fill:#5c7c26"/></g></g></g></g></svg>