<svg xmlns="http://www.w3.org/2000/svg" viewBox="0 0 22.2 22.2"><g id="Capa_2" data-name="Capa 2"><g id="HOME"><g id="Capa_15" data-name="Capa 15"><g id="Capa_16" data-name="Capa 16"><circle cx="11.1" cy="11.1" r="11.1" transform="translate(-3.42 5.15) rotate(-22.71)" style="fill:#5c7c26"/><path d="M5.1,17.38,6,13.93a6.32,6.32,0,0,1-.8-3.08,6.38,6.38,0,1,1,3.34,5.6Zm3.64-2.23.22.13a5.16,5.16,0,1,0-2.53-4.43,5.13,5.13,0,0,0,.76,2.68l.13.22-.51,1.92Z" style="fill:#fff"/><path d="M14,11.73a1.07,1.07,0,0,0-.91-.2c-.24.09-.39.46-.54.65a.23.23,0,0,1-.3.07,4.15,4.15,0,0,1-2.06-1.77.25.25,0,0,1,0-.34,1.46,1.46,0,0,0,.38-.61,1.3,1.3,0,0,0-.17-.72A1.72,1.72,0,0,0,9.87,8a.74.74,0,0,0-.79.12A1.61,1.61,0,0,0,8.52,9.4a1.83,1.83,0,0,0,.05.4,3.21,3.21,0,0,0,.39.89c.12.21.26.42.4.62a6.36,6.36,0,0,0,1.76,1.63,5.45,5.45,0,0,0,1.09.52,2.42,2.42,0,0,0,1.27.2,1.53,1.53,0,0,0,1.16-.86.74.74,0,0,0,0-.44C14.63,12.06,14.22,11.88,14,11.73Z" style="fill:#fff;fill-rule:evenodd"/></g></g></g></g></svg>