<svg id="Capa_1" data-name="Capa 1" xmlns="http://www.w3.org/2000/svg" viewBox="0 0 30 30"><g id="_1923_Group_Leader_Leadership_People_Person" data-name="1923, Group, Leader, Leadership, People, Person"><path d="M17.17,11.22a3.63,3.63,0,1,0-4.39,0,5.43,5.43,0,0,0-3.25,5V21a.63.63,0,0,0,.62.61H12v7.23a.62.62,0,0,0,.62.61.63.63,0,0,0,.62-.61V19.16a.63.63,0,0,0-.62-.62.62.62,0,0,0-.62.62v1.22h-1.2V16.13a4.25,4.25,0,0,1,8.5,0v4.25H18.08V19.2a.62.62,0,0,0-1.24,0v9.64a.62.62,0,0,0,1.24,0V21.56H19.9a.63.63,0,0,0,.62-.61V16.13A5.46,5.46,0,0,0,17.17,11.22ZM12.54,8.34A2.44,2.44,0,1,1,15,10.75,2.44,2.44,0,0,1,12.54,8.34Z" style="fill:#5c7c26"/><path d="M15,23.36a.62.62,0,0,0-.62.61v4.82a.62.62,0,0,0,.62.61.63.63,0,0,0,.62-.61V24A.63.63,0,0,0,15,23.36Z" style="fill:#5c7c26"/><path d="M8.29,7.73a3.61,3.61,0,0,0,3.63-3.59,3.63,3.63,0,0,0-7.26,0A3.58,3.58,0,0,0,8.29,7.73Zm0-6a2.41,2.41,0,1,1,0,4.82A2.44,2.44,0,0,1,5.85,4.14,2.44,2.44,0,0,1,8.29,1.73Z" style="fill:#5c7c26"/><path d="M21.66,7.73a3.59,3.59,0,1,0,0-7.18A3.61,3.61,0,0,0,18,4.14,3.61,3.61,0,0,0,21.66,7.73Zm0-6A2.44,2.44,0,0,1,24.1,4.14a2.44,2.44,0,0,1-4.87,0A2.43,2.43,0,0,1,21.66,1.73Z" style="fill:#5c7c26"/><path d="M7.38,19.77a.63.63,0,0,0-.62.61v8.41a.63.63,0,0,0,.62.61A.62.62,0,0,0,8,28.79V20.38A.66.66,0,0,0,7.38,19.77Z" style="fill:#5c7c26"/><path d="M5.23,24a.63.63,0,0,0-.62.62v4.2a.63.63,0,0,0,.62.61.62.62,0,0,0,.62-.61v-4.2A.62.62,0,0,0,5.23,24Z" style="fill:#5c7c26"/><path d="M5.23,7.63A3.25,3.25,0,0,0,2,10.89a3.3,3.3,0,0,0,1.2,2.5A4.84,4.84,0,0,0,.41,17.74v4.2a.62.62,0,0,0,.62.61H2.56v6.24a.62.62,0,0,0,.62.61.63.63,0,0,0,.62-.61V20.38a.63.63,0,0,0-.62-.61.62.62,0,0,0-.62.61v.95H1.65V17.74a3.61,3.61,0,0,1,3.63-3.59,3.28,3.28,0,0,0,3.3-3.21A3.37,3.37,0,0,0,5.23,7.63Zm0,5.29a2,2,0,1,1,0-4.06,2,2,0,1,1,0,4.06Z" style="fill:#5c7c26"/><path d="M26.77,13.39a3.3,3.3,0,0,0,1.2-2.5,3.25,3.25,0,1,0-3.25,3.21,3.61,3.61,0,0,1,3.63,3.59v3.64h-.91v-.95a.62.62,0,0,0-.62-.61.63.63,0,0,0-.62.61v8.41a.63.63,0,0,0,.62.61.62.62,0,0,0,.62-.61V22.55H29a.62.62,0,0,0,.62-.61v-4.2A4.75,4.75,0,0,0,26.77,13.39Zm-4.1-2.5a2.05,2.05,0,1,1,2,2A2,2,0,0,1,22.67,10.89Z" style="fill:#5c7c26"/><path d="M22.57,19.77a.63.63,0,0,0-.62.61v8.41a.63.63,0,0,0,.62.61.62.62,0,0,0,.62-.61V20.38A.62.62,0,0,0,22.57,19.77Z" style="fill:#5c7c26"/><path d="M24.72,24a.63.63,0,0,0-.62.62v4.2a.62.62,0,0,0,1.24,0v-4.2A.63.63,0,0,0,24.72,24Z" style="fill:#5c7c26"/></g></svg>