<svg xmlns="http://www.w3.org/2000/svg" viewBox="0 0 30 30"><defs><style>.cls-1{fill:#727176;fill-rule:evenodd;}</style></defs><g id="Capa_2" data-name="Capa 2"><g id="Capa_8" data-name="Capa 8"><path id="Trazado_2136" data-name="Trazado 2136" class="cls-1" d="M.53,7.29A1.34,1.34,0,0,1,.28,5.41a1.18,1.18,0,0,1,.25-.25A1.83,1.83,0,0,1,3,5.16l4,3.34a1.35,1.35,0,0,1,.23,1.9,1.25,1.25,0,0,1-.23.23,1.68,1.68,0,0,1-1.39.61,1.58,1.58,0,0,1-1.21-.61Z"/><path id="Trazado_2137" data-name="Trazado 2137" class="cls-1" d="M23.24,10.93a1.49,1.49,0,0,1-.15-2.12.75.75,0,0,1,.15-.16l3.82-3.34a1.83,1.83,0,0,1,2.42,0,1.51,1.51,0,0,1,.15,2.13l-.15.15-3.81,3.34a2,2,0,0,1-1.22.46A1.64,1.64,0,0,1,23.24,10.93Z"/><path id="Trazado_2138" data-name="Trazado 2138" class="cls-1" d="M13.36,6.23V1.52a1.75,1.75,0,0,1,3.46,0V6.23a1.73,1.73,0,0,1-3.46,0Z"/><path id="Trazado_2139" data-name="Trazado 2139" class="cls-1" d="M4.16,30H26V20.35H22a6.15,6.15,0,0,0,.87-3V16.7c0-3.8-3.64-6.83-7.8-6.83-4.34,0-8,3-8,6.83v.61a6.26,6.26,0,0,0,.87,3H4.16Z"/></g></g></svg>