<svg xmlns="http://www.w3.org/2000/svg" viewBox="0 0 30 30"><defs><style>.cls-1{fill:#5c7c26;fill-rule:evenodd;}</style></defs><g id="Capa_2" data-name="Capa 2"><g id="Capa_8" data-name="Capa 8"><g id="Grupo_1868" data-name="Grupo 1868"><path id="Trazado_2131" data-name="Trazado 2131" class="cls-1" d="M30,17.06a2.87,2.87,0,0,0-.44-1.54c0-.13,0-.26-.1-.39l-3.11-6v0c-1-2.52-2.62-4.83-6.55-4.83H16.05a5.16,5.16,0,0,1,.1,1.88H19.8c2.07,0,3.16.9,4.25,3.51l2.24,3.59a7.23,7.23,0,0,0-2.4-.34h-11l0,5.17h4.29c.49,0,.92.3.92.65s-.43.68-.92.68H12.89v3.64h9.68v2.73a1.74,1.74,0,0,0,1.9,1.55h3.67A1.74,1.74,0,0,0,30,25.78V20.27a.87.87,0,0,0-.17-.52,2,2,0,0,0,.17-.81Zm-4.2,2.56h-4c-.82,0-1.42-.47-1.42-1.07s.61-1,1.42-1h4a1.08,1.08,0,1,1,.54,2.09,1,1,0,0,1-.54,0Z"/><path id="Trazado_2132" data-name="Trazado 2132" class="cls-1" d="M14.56,4.72h0c0-2-1.46-3.77-3.66-4.72V4.36L7.31,5.9,3.65,4.36V0C1.46,1,0,2.72,0,4.72s1.64,4,4,4.81V27.46a2.34,2.34,0,0,0,1,1.81A4.28,4.28,0,0,0,7.43,30c1.89,0,3.41-1.13,3.47-2.54l-.06-18c2.26-.91,3.72-2.72,3.72-4.72Z"/></g></g></g></svg>