<svg xmlns="http://www.w3.org/2000/svg" viewBox="0 0 30 30"><defs><style>.cls-1{fill:#fff;}</style></defs><g id="Capa_2" data-name="Capa 2"><g id="Capa_8" data-name="Capa 8"><g id="Capa_2-2" data-name="Capa 2"><g id="Capa_8-2" data-name="Capa 8"><path class="cls-1" d="M6.57,28.1a4.69,4.69,0,1,0-4.68-4.68h0A4.67,4.67,0,0,0,6.57,28.1ZM23.43,11.25a4.69,4.69,0,1,0-4.69-4.69h0A4.69,4.69,0,0,0,23.43,11.25Zm0,16.86a4.69,4.69,0,1,1,4.67-4.69h0a4.67,4.67,0,0,1-4.67,4.67ZM30,6.57A6.56,6.56,0,1,1,23.43,0h0A6.55,6.55,0,0,1,30,6.55ZM13.12,23.43a6.56,6.56,0,1,1-6.57-6.55h0a6.55,6.55,0,0,1,6.55,6.55ZM23.43,30a6.56,6.56,0,1,0-6.55-6.57h0A6.56,6.56,0,0,0,23.43,30ZM6.57,9.38A2.82,2.82,0,1,1,9.38,6.55v0A2.81,2.81,0,0,1,6.57,9.38Zm0,3.74A6.56,6.56,0,1,0,0,6.56H0a6.55,6.55,0,0,0,6.55,6.55Z"/></g></g></g></g></svg>