<svg xmlns="http://www.w3.org/2000/svg" viewBox="0 0 30 29.99"><defs><style>.cls-1{fill:#727176;}</style></defs><g id="Capa_2" data-name="Capa 2"><g id="Capa_8" data-name="Capa 8"><path id="Trazado_2166" data-name="Trazado 2166" class="cls-1" d="M30,17.76V12.24H25.37a10.75,10.75,0,0,0-1.09-2.62l3.28-3.28-3.9-3.9L20.38,5.72a10.75,10.75,0,0,0-2.62-1.09V0H12.24V4.63A10.75,10.75,0,0,0,9.62,5.72L6.34,2.44l-3.9,3.9L5.72,9.62a10.75,10.75,0,0,0-1.09,2.62H0v5.52H4.63a10.85,10.85,0,0,0,1.09,2.61L2.44,23.65l3.9,3.91,3.28-3.28a10.72,10.72,0,0,0,2.62,1.08V30h5.52V25.37a10.72,10.72,0,0,0,2.62-1.08l3.28,3.27,3.9-3.9-3.28-3.28a10.85,10.85,0,0,0,1.09-2.61ZM15,21.41A6.41,6.41,0,1,1,21.41,15h0A6.41,6.41,0,0,1,15,21.41Z"/></g></g></svg>