<svg xmlns="http://www.w3.org/2000/svg" viewBox="0 0 1280 826"><defs><style>.cls-1{fill:#fff;}.cls-2{opacity:0.4;}.cls-3{fill:#84cdda;}.cls-4{fill:#008ea6;}</style></defs><g id="Capa_2" data-name="Capa 2"><g id="Capa_1-2" data-name="Capa 1"><rect class="cls-1" width="1280" height="826"/><g class="cls-2"><path class="cls-3" d="M141.36,0A63.75,63.75,0,0,1,123,16L4.17,84.6C3.3,85.1,1.81,86,0,87.08v87.57a13.48,13.48,0,0,0,2.38-1c.6-.32,1.2-.65,1.79-1L199.22,60.05A63.87,63.87,0,0,0,231.16,4.73V0Z"/></g><g class="cls-2"><path class="cls-4" d="M1130.32,826a63.9,63.9,0,0,1,26.17-28.8l118.79-68.58c1-.55,2.67-1.55,4.72-2.82V638.42a13.32,13.32,0,0,0-2.94,1.14c-.59.32-1.19.65-1.78,1L1080.22,753.17a63.89,63.89,0,0,0-31.94,55.33V826Z"/></g></g></g></svg>