<svg id="Capa_1" data-name="Capa 1" xmlns="http://www.w3.org/2000/svg" viewBox="0 0 154.5 154"><g id="CALENDARIO"><path d="M29.44,44.86,25,37.36a58.09,58.09,0,0,1,4.8-9.1A59.62,59.62,0,0,1,53.12,7.5C56.8,5.71,75-2.65,96.34,4.18a61.25,61.25,0,0,1,25.32,16.43,62.33,62.33,0,0,1,11.21,17l-4.8,6.79A51.84,51.84,0,0,0,94.25,10.85C74.33,4.67,57.53,13.06,55,14.36,36.36,24.05,30.48,41.54,29.44,44.86Z" style="fill:#f7c90d"/><path d="M103.2,38.81v2.8a14.4,14.4,0,0,0,28.8,0V38.85a7.3,7.3,0,0,1,6.6,7.26v95a7.3,7.3,0,0,1-7.3,7.3H25.7a7.3,7.3,0,0,1-7.3-7.3V46.21A7.3,7.3,0,0,1,25,39v2.66a14.4,14.4,0,1,0,28.8,0v-2.8h49.4M33.5,143.51h90c5.55,0,9.9-4.13,9.9-9.4V72.61a9.67,9.67,0,0,0-9.9-9.4h-90a9.72,9.72,0,0,0-9.9,9.5v61.4a9.67,9.67,0,0,0,9.9,9.4m97.8-109.7H127v7.8a9.4,9.4,0,0,1-18.8,0v-7.8H48.8v7.8a9.4,9.4,0,1,1-18.8,0v-7.8H25.7v.1a12.29,12.29,0,0,0-12.3,12.3v94.9a12.29,12.29,0,0,0,12.3,12.3H131.3a12.29,12.29,0,0,0,12.3-12.3v-95a12.29,12.29,0,0,0-12.3-12.3ZM33.5,138.51a4.69,4.69,0,0,1-4.9-4.4V72.71a4.71,4.71,0,0,1,4.9-4.5h90a4.69,4.69,0,0,1,4.9,4.4v61.5a4.63,4.63,0,0,1-4.9,4.4Z" style="fill:#5c7c26"/><path d="M39.3,22.91a4,4,0,0,0-4,4v16.9a4,4,0,0,0,8,0V26.91a4,4,0,0,0-4-4Z" style="fill:#5c7c26"/><path d="M117.6,23.91a4,4,0,0,0-4,4v16.9a4,4,0,0,0,8,0V27.91a4,4,0,0,0-4-4Z" style="fill:#5c7c26"/><path d="M56,80.91v14.4H42.2V80.91H56m5-5H37.2v24.4H61V75.91Z" style="fill:#5c7c26"/><path d="M85.9,80.91v14.4H72.1V80.91H85.9m5-5H67.1v24.4H90.9V75.91Z" style="fill:#5c7c26"/><path d="M56,110.91v14.4H42.2v-14.4H56m5-5H37.2v24.4H61v-24.4Z" style="fill:#5c7c26"/><path d="M85.9,110.91v14.4H72.1v-14.4H85.9m5-5H67.1v24.4H90.9v-24.4Z" style="fill:#5c7c26"/><path d="M117,80.91v14.4H103.2V80.91H117m5-5H98.2v24.4H122V75.91Z" style="fill:#5c7c26"/><path d="M117,110.91v14.4H103.2v-14.4H117m5-5H98.2v24.4H122v-24.4Z" style="fill:#5c7c26"/></g><g id="Capa_2" data-name="Capa 2"><path d="M55.75,45a1.71,1.71,0,0,1,1.72-1.72h.38a1.78,1.78,0,0,1,1.56.89l4.11,6.73,4.15-6.73a1.66,1.66,0,0,1,1.53-.86h.38A1.71,1.71,0,0,1,71.3,45V57.38a1.71,1.71,0,1,1-3.41,0V49.6l-3,4.62a1.7,1.7,0,0,1-1.43.86,1.62,1.62,0,0,1-1.4-.86l-3-4.56v7.72A1.68,1.68,0,0,1,57.4,59a1.65,1.65,0,0,1-1.65-1.66Z" style="fill:#727176"/><path d="M77.49,46.54H74.2a1.56,1.56,0,0,1,0-3.12h10a1.56,1.56,0,0,1,0,3.12H80.9V57.35a1.73,1.73,0,0,1-3.45,0V46.54Z" style="fill:#727176"/><path d="M94.25,51.83a1.69,1.69,0,0,0,0,2.17l1.78,1.56a4.9,4.9,0,0,0,2.23-2.29l-1.82-1.6A1.65,1.65,0,0,0,94.25,51.83Zm6.67,3.73a8.36,8.36,0,0,1-2.33,2.26l1,.86a1.63,1.63,0,0,0,2.07-2.51ZM94,56a4.88,4.88,0,1,1,4.27-2.77l2.61,2.29a7.92,7.92,0,0,0,1.37-4.46A8.29,8.29,0,1,0,94,59.16a8.6,8.6,0,0,0,4.59-1.34L96,55.59A4.53,4.53,0,0,1,94,56Z" style="fill:#8eb322"/><path d="M100.92,55.56,98.3,53.27a4.86,4.86,0,0,1-2.23,2.29l2.55,2.23A8.14,8.14,0,0,0,100.92,55.56Z" style="fill:#5c7c26"/></g></svg>