<svg id="Capa_1" data-name="Capa 1" xmlns="http://www.w3.org/2000/svg" viewBox="0 0 154.5 154"><g id="Capa_5" data-name="Capa 5"><path d="M58.7,143.5a58.4,58.4,0,0,1-45-95.4l5.4,4.4a51.41,51.41,0,0,0,53.4,82.2l1.9,6.7A60,60,0,0,1,58.7,143.5Z" style="fill:#f7c90d"/><path d="M40.5,17A13.7,13.7,0,1,1,26.8,30.7,13.66,13.66,0,0,1,40.5,17Z" style="fill:#5c7c26"/><path d="M40.7,7.5A31.6,31.6,0,0,1,71,48.4l9.4,4.5a40.33,40.33,0,1,1,6.9,52l-5.8,4.8a24.29,24.29,0,1,1-10.7-9.5,22,22,0,0,1,5.1,3.2l5.7-4.7A40,40,0,0,1,73.9,75a38.55,38.55,0,0,1,2.4-13.6L66.9,57A31.69,31.69,0,1,1,40.7,7.5Z" style="fill:#5c7c26"/><path d="M60.4,106.2A10.3,10.3,0,1,1,50,116.4,10.35,10.35,0,0,1,60.4,106.2Z" style="fill:#5c7c26"/><path d="M60.13,34.1c-2.57-.21-10.31-.43-10.31-.43-8.58-4.45-11.11-4.49-14.53-4.45-2.17,0-7.11.19-7.11.19C19.91,29.41,12,34.92,12,34.92s-.12.09-.18.13,0,0,0,.05l-.1.1,0,0a.44.44,0,0,1-.08.11l0,.06a1.09,1.09,0,0,0-.08.15l0,0-.06.14s0,.05,0,.08l0,.1a.36.36,0,0,0,0,.1s0,.06,0,.1,0,.06,0,.1a.28.28,0,0,0,0,.09,1.61,1.61,0,0,0,0,.22v.08a.57.57,0,0,0,0,.13v.08s0,.09,0,.14V37a3.65,3.65,0,0,0,.13.55v0h0a10.82,10.82,0,0,0,1.05,2.32h-.52c-.23,0-.43.08-.43.32l.43,2.56a.41.41,0,0,0,.44.4h2.3a2.45,2.45,0,0,0,2,.81h2.48a5.37,5.37,0,0,0,9.57.16H52.84a5.37,5.37,0,0,0,9.52-.06h2c2,0,4.64-2.47,4.64-5.94C69,35.78,63.18,34.35,60.13,34.1Z" style="fill:#fff;fill-rule:evenodd"/><path d="M114.45,39.18a35.63,35.63,0,1,1-36,35.28C78.47,54.74,94.73,39.18,114.45,39.18Z" style="fill:#fff"/><path d="M80.84,123.59a3.79,3.79,0,0,1-.44-1.54s-.08-.44-.25-1.11h0c.64-.52-.86-4-1.3-4h0a8,8,0,0,0-1.4-2.28c-.26-.49,1.16-.57.89-.93,0,0-13.4-2.16-21.62,0a19.74,19.74,0,0,0-8,4.52l-.23,0c-3.46.78-7.23,1.39-8.37,5.2l0,2.25-.48,0,.23,2.54.44.13a7.24,7.24,0,0,0,1.43.28v-.12H43A3.29,3.29,0,0,0,48.45,130a3.35,3.35,0,0,0,.85-1.46h23a3.4,3.4,0,0,0,.83,1.44,3.3,3.3,0,0,0,4.66,0,3.37,3.37,0,0,0,.86-1.46h.85c0,.13,0,.21,0,.21l1-.25s.23-1.43.44-2.79a2.78,2.78,0,0,0-.39-.07C80.67,124.82,80.79,124,80.84,123.59Z" style="fill:#fff;fill-rule:evenodd"/><path d="M82,66.24a2.42,2.42,0,0,1,2.42-2.43h.54a2.51,2.51,0,0,1,2.2,1.26l5.79,9.47,5.83-9.47a2.32,2.32,0,0,1,2.15-1.21h.54a2.4,2.4,0,0,1,2.42,2.42V83.64a2.4,2.4,0,1,1-4.8,0V72.7l-4.21,6.5a2.4,2.4,0,0,1-2,1.21,2.28,2.28,0,0,1-2-1.21l-4.17-6.41V83.64A2.36,2.36,0,0,1,84.29,86,2.32,2.32,0,0,1,82,83.64Z" style="fill:#727176"/><path d="M112.56,68.39h-4.62a2.2,2.2,0,0,1,0-4.4h14a2.2,2.2,0,1,1,0,4.4h-4.62V83.6a2.43,2.43,0,0,1-4.85,0V68.39Z" style="fill:#727176"/><path d="M136.16,75.84s-1.3,1.7,0,3l2.52,2.2a6.93,6.93,0,0,0,3.14-3.23l-2.56-2.25A2.32,2.32,0,0,0,136.16,75.84Zm9.38,5.25a11.83,11.83,0,0,1-3.28,3.18l1.39,1.21a2.29,2.29,0,0,0,2.92-3.54Zm-9.74.67a6.91,6.91,0,1,1,6.68-6.91,6.71,6.71,0,0,1-.67,3l3.68,3.23a11.21,11.21,0,0,0,1.93-6.28,11.67,11.67,0,1,0-11.67,11.35,12.12,12.12,0,0,0,6.47-1.89l-3.59-3.14A6.33,6.33,0,0,1,135.8,81.76Z" style="fill:#8eb322"/><path d="M145.54,81.09l-3.68-3.23a7,7,0,0,1-3.14,3.23l3.59,3.14A11.63,11.63,0,0,0,145.54,81.09Z" style="fill:#5c7c26"/></g></svg>