<svg id="Capa_1" data-name="Capa 1" xmlns="http://www.w3.org/2000/svg" viewBox="0 0 154.5 154"><g id="Capa_5" data-name="Capa 5"><path d="M33.51,131.59a64.93,64.93,0,0,1-23.08-25.8,69.21,69.21,0,0,1-4.9-52.32c1.54-5,5.76-18.28,17.89-29.58C38.1,10.22,55.28,7.88,61.29,7.34l-4,8.56A57.29,57.29,0,0,0,27.4,31.43,58.87,58.87,0,0,0,13,55.93a60.81,60.81,0,0,0,4.43,46,59.94,59.94,0,0,0,15.47,19.15c14.51,11.48,31.24,11.73,36.93,11.57L80.24,140C74.52,141.07,53.55,144.2,33.51,131.59Z" style="fill:#f7c90d"/><path d="M112.69,62.8,105.78,56a2.07,2.07,0,0,0-1.11-.55,2,2,0,0,0-1.1.55l-7.19,7.11L89.19,56a2.07,2.07,0,0,0-1.11-.55A1.44,1.44,0,0,0,87,56L80.06,62.8a2,2,0,0,0,0,2.46l7.19,7.11-7.19,6.84a2,2,0,0,0,0,2.46L87,88.5a2.08,2.08,0,0,0,2.49,0l7.19-7.11,7.19,7.11a2.15,2.15,0,0,0,1.11.55,1.44,1.44,0,0,0,1.1-.55L113,81.67a2,2,0,0,0,.55-1.1,2,2,0,0,0-.55-1.09l-7.19-7.11L113,65.26A1.72,1.72,0,0,0,112.69,62.8ZM102.18,71a2,2,0,0,0,0,2.46l7.19,7.11-4.7,4.1-7.19-7.11a2.1,2.1,0,0,0-1.1-.54,2.13,2.13,0,0,0-1.11.54l-7.19,7.11L83.65,80.3l7.2-7.11a2,2,0,0,0,0-2.46l-7.2-7.11,4.43-4.37,7.19,7.11a2.13,2.13,0,0,0,1.11.54,2.1,2.1,0,0,0,1.1-.54l7.19-7.11,4.43,4.37Z" style="fill:#5c7c26;stroke:#5c7c26;stroke-miterlimit:10"/><path d="M147.7,67.63,145.88,33a1.85,1.85,0,0,0-1.57-1.83c-7.3,0-14.33-8.57-14.85-18.37A1.85,1.85,0,0,0,127.89,11H63.25a1.85,1.85,0,0,0-1.56,1.83c-.52,9.8-7.3,18.37-14.86,18.37A1.85,1.85,0,0,0,45.27,33L43.45,67.63a72,72,0,0,0,4.43,30.91A60.89,60.89,0,0,0,64.82,123l29.71,25.4a1.13,1.13,0,0,0,1.83,0l30-25.4C141.45,110.17,149.53,89.05,147.7,67.63ZM124.5,120,95.57,144.45,66.64,120C52.57,108,45,88.14,46.57,67.94c0,0,0,1.22,1.57-33.06,8.08-.92,15.11-9.49,16.42-20.2h61.77c1.3,10.41,8.34,19,16.42,20.2l1.82,33.06h0C146.14,88.14,138.58,108,124.5,120Z" style="fill:none;stroke:#5c7c26;stroke-linecap:round;stroke-linejoin:round;stroke-width:9px"/><path d="M96.38,37.92A34.18,34.18,0,1,0,130.94,72.1,34.38,34.38,0,0,0,96.38,37.92Zm0,65.07A30.89,30.89,0,1,1,127.63,72.1,31,31,0,0,1,96.38,103Z" style="fill:#5c7c26;stroke:#5c7c26;stroke-miterlimit:10"/></g></svg>