<svg id="Capa_1" data-name="Capa 1" xmlns="http://www.w3.org/2000/svg" viewBox="0 0 154.5 154"><g id="Capa_4" data-name="Capa 4"><path d="M24.29,129a64.39,64.39,0,0,1-10.9-75.79A61.16,61.16,0,0,1,60.74,20.74l.83,7.61A54.17,54.17,0,0,0,19.7,56.82a56.1,56.1,0,0,0-4.47,42.44,55.16,55.16,0,0,0,26.18,33.36l-3.56,6.63A59.81,59.81,0,0,1,24.29,129Z" style="fill:#f7c90d"/><path d="M112,76.52H71.14C52.81,76.52,38,98.62,38,125.88v24H145.19v-24C145.19,98.62,130.34,76.52,112,76.52Zm-7.29,64.83H78.42L70.81,81.92a18.62,18.62,0,0,1,2.25-.17h37a18.46,18.46,0,0,1,2.25.17Z" style="fill:#5c7c26"/><polygon points="83.32 136.8 99.82 136.8 99.82 136.8 95.73 96.84 95.58 96.84 99.6 85.87 83.54 85.87 87.56 96.84 87.41 96.84 83.32 136.8" style="fill:#5c7c26"/><path d="M126.88,37.89a35.31,35.31,0,1,0-35.31,35.3A35.31,35.31,0,0,0,126.88,37.89Z" style="fill:#5c7c26"/></g></svg>