<svg id="Capa_1" data-name="Capa 1" xmlns="http://www.w3.org/2000/svg" viewBox="0 0 154.5 154"><g id="Capa_6" data-name="Capa 6"><path d="M26.65,130.56A64.39,64.39,0,0,1,4.48,57.27,64.84,64.84,0,0,1,21,32a61.58,61.58,0,0,1,23.77-13.5L45,26.44A54.25,54.25,0,0,0,11.27,59.88a56.09,56.09,0,0,0,2,42.64,57.57,57.57,0,0,0,27.62,27.93l2.26,8.32A59,59,0,0,1,26.65,130.56Z" style="fill:#f7c90d"/><g id="_96_Friends_People_Social_Media_Team" data-name="96, Friends, People, Social Media, Team"><path d="M152.05,123.39a20.68,20.68,0,0,0-37.64-11.62,20.73,20.73,0,0,0-40.93,0,20.68,20.68,0,0,0-37.64,11.62A19.62,19.62,0,0,0,39.61,135a.23.23,0,0,0,.23.23A20.65,20.65,0,0,0,77,126.42a20.65,20.65,0,0,0,33.87,0,20.5,20.5,0,0,0,20.47,17.44,20.88,20.88,0,0,0,16.7-8.61l.24-.23A19.68,19.68,0,0,0,152.05,123.39Zm-57.87-26a17.68,17.68,0,0,1,17.65,17.44,17.07,17.07,0,0,1-2.12,8.37,18.55,18.55,0,0,0-9.65-6,8.57,8.57,0,0,0,3.06-6.51,8.94,8.94,0,0,0-17.88,0,8.25,8.25,0,0,0,3.06,6.51,22,22,0,0,0-9.64,6,17,17,0,0,1-2.12-8.37A17.52,17.52,0,0,1,94.18,97.35Zm-5.88,13a5.88,5.88,0,1,1,5.88,5.82A5.79,5.79,0,0,1,88.3,110.37ZM43.13,134.32A17.62,17.62,0,0,1,57,127.81a17.94,17.94,0,0,1,13.88,6.51C63.37,142.93,50.19,142.93,43.13,134.32ZM50.9,119a5.88,5.88,0,1,1,5.88,5.82A5.79,5.79,0,0,1,50.9,119Zm21.41,12.79a18.51,18.51,0,0,0-9.65-6,8.62,8.62,0,0,0,3.06-6.51,8.88,8.88,0,0,0-8.94-8.84,8.68,8.68,0,0,0-8.7,8.84,8.24,8.24,0,0,0,3.05,6.51,22,22,0,0,0-9.64,6,17,17,0,0,1-2.12-8.37,17.65,17.65,0,0,1,35.29,0A20.29,20.29,0,0,1,72.31,131.76Zm8-6.27A17.59,17.59,0,0,1,94.18,119a17.93,17.93,0,0,1,13.88,6.52A17.86,17.86,0,0,1,80.3,125.49ZM131.59,106a17.67,17.67,0,0,1,17.64,17.44,17,17,0,0,1-2.12,8.37,18.48,18.48,0,0,0-9.64-6,8.61,8.61,0,0,0,3.05-6.51,8.94,8.94,0,0,0-17.87,0,8.24,8.24,0,0,0,3,6.51,22,22,0,0,0-9.64,6,17,17,0,0,1-2.12-8.37A17.53,17.53,0,0,1,131.59,106Zm-5.89,13a5.89,5.89,0,1,1,5.89,5.82A5.79,5.79,0,0,1,125.7,119Zm-8,15.35a17.59,17.59,0,0,1,13.88-6.51,17.92,17.92,0,0,1,13.87,6.51A18.13,18.13,0,0,1,117.71,134.32Z" style="fill:#5c7c26"/><path d="M138.4,49.56H84.06A11,11,0,0,0,73,60.49a10.47,10.47,0,0,0,3.53,7.91H45.72A12.47,12.47,0,0,0,33.25,80.72v21.16a1.49,1.49,0,0,0,2.35,1.17l15-10h77.4a12.48,12.48,0,0,0,12.47-12.33,12.34,12.34,0,0,0-4.47-9.53h11.76a1.51,1.51,0,0,0,1.41-1.4V60.26C149.46,54.45,144.52,49.56,138.4,49.56ZM137.7,81a9.64,9.64,0,0,1-9.65,9.53H50.18a.87.87,0,0,0-.7.23L36.31,99.33V81A9.63,9.63,0,0,1,46,71.42h82.34A9.44,9.44,0,0,1,137.7,81Zm8.7-12.33H83.82a7.91,7.91,0,1,1,0-15.81H138.4a7.89,7.89,0,0,1,8,7.91Z" style="fill:#5c7c26"/><path d="M52.38,5.66h51.69a10.71,10.71,0,0,1,10.51,10.93,10.69,10.69,0,0,1-3.35,7.9h29.31A12.18,12.18,0,0,1,152.4,36.82V58a1.41,1.41,0,0,1-2.24,1.16l-14.32-10H62.22A12.18,12.18,0,0,1,50.36,36.82a12.6,12.6,0,0,1,4.26-9.54H43.43a1.46,1.46,0,0,1-1.34-1.39V16.35A10.32,10.32,0,0,1,52.38,5.66Zm.67,31.39a9.41,9.41,0,0,0,9.17,9.54h74.07a.81.81,0,0,1,.67.23l12.53,8.6V37.05a9.4,9.4,0,0,0-9.17-9.53H62A9.21,9.21,0,0,0,53.05,37.05ZM44.77,24.73h59.52a7.7,7.7,0,0,0,7.61-7.91,7.7,7.7,0,0,0-7.61-7.91H52.38a7.7,7.7,0,0,0-7.61,7.91Z" style="fill:#5c7c26"/></g></g></svg>