<svg id="Capa_2" data-name="Capa 2" xmlns="http://www.w3.org/2000/svg" viewBox="0 0 154.5 154"><g id="Capa_3" data-name="Capa 3"><path d="M103.35,113.21A53.83,53.83,0,0,1,7.58,79.47c0-20.35,12.39-38.1,27.15-46.75a49.6,49.6,0,0,1,10.38-4.56,5,5,0,0,1,.28-1l-2,0a20,20,0,0,0,2.16-.51,4.45,4.45,0,0,1,2.55-2.27c-.08-.22-.21-.48-.35-.93a12.77,12.77,0,0,1-.58-3.11,56.59,56.59,0,0,0-15.73,6.19C14.72,36.25.37,56.38.59,79.47c.34,36.05,36,60.85,60.82,60.82a60.79,60.79,0,0,0,46.92-22.15A48.31,48.31,0,0,1,103.35,113.21Z" style="fill:#f7c90d"/><path d="M145.3,64.44h-1.15l-9-14.49a8.79,8.79,0,0,0-7.51-4.17h-6.47A5.14,5.14,0,0,0,116,50.91V93h-6.4l-4.85-9.78a9.46,9.46,0,0,0,4.94-3.8,9.57,9.57,0,0,0,1.36-7.22L103.91,38.1a9.74,9.74,0,0,0-11.37-7.41l-2.41.51a12.74,12.74,0,0,0-12.44-5.81A13.93,13.93,0,0,0,75,26c-2.67-3.13-7.37-4.82-12.54-4.24a17.19,17.19,0,0,0-3.36.73,11.56,11.56,0,0,0-16.37,1.29,10.58,10.58,0,0,0-2.5,7.14,12.07,12.07,0,0,0-4.93,2.38,6.76,6.76,0,0,0-2.66,5.91,6.05,6.05,0,0,0,1.94,3.69l-1.85.39A9.59,9.59,0,0,0,26,56.78L38.12,82.29l-.14.14a41.79,41.79,0,0,0-3.28,4.09c-9.59,13.43-8.56,26.9-5.64,35.36a3,3,0,0,0,3,2.15,2.87,2.87,0,0,0,2.73-3.1c-.63-5.71-1.41-13.34,5.63-22.31v8.8a10,10,0,0,0,10,10h7.08a16,16,0,0,0,32.05,0h16.6a16,16,0,0,0,32.05,0h7.09a10,10,0,0,0,10-10v-33A10,10,0,0,0,145.3,64.44Zm3.24,10V93H122.8V71.2h22.5A3.24,3.24,0,0,1,148.54,74.44ZM122.8,52.54h4.85a2,2,0,0,1,1.76,1l6.78,10.92H122.8ZM99.58,93H58.9l36.84-7.76Zm1.63-34.87,3.26,15.47a2.81,2.81,0,0,1-.4,2.13,2.85,2.85,0,0,1-1.79,1.23L50.62,87.82a2.88,2.88,0,0,1-3.14-1.56L40.23,71Zm-63-21.36c1-.86,4.75-1.67,4.75-1.67a2.23,2.23,0,0,0,1.71-.94A2.25,2.25,0,0,0,45,32.22a5.49,5.49,0,0,1-.22-.93,6.12,6.12,0,0,1,1.43-4.64,6.92,6.92,0,0,1,4.57-2.43,6.84,6.84,0,0,1,6,2.34,2.27,2.27,0,0,0,2.62.62A12.35,12.35,0,0,1,63,26.23c4.1-.48,7.85,1.05,9.24,3.61a2.24,2.24,0,0,0,3,.94,9.17,9.17,0,0,1,3-.91,8.6,8.6,0,0,1,7,2.36s-30.8,6.5-43.33,9.13c-.34.07-4,.64-4.68-2A2.19,2.19,0,0,1,38.2,36.75ZM32.15,53.89a2.83,2.83,0,0,1,2-4l59.8-12.6a3,3,0,0,1,.59-.06,2.84,2.84,0,0,1,2.77,2.26l1.17,5.56-64.1,13.5Zm4.2,8.86,63-13.28.89,4.23-62,13.06ZM73.54,123.8a7.08,7.08,0,1,1,7.07-7.08A7.08,7.08,0,0,1,73.54,123.8Zm48.64,0a7.08,7.08,0,1,1,7.09-7.08A7.08,7.08,0,0,1,122.18,123.8Zm26.36-16.38a3.24,3.24,0,0,1-3.24,3.24h-8.22a16.07,16.07,0,0,0-29.78,0H88.42a16.06,16.06,0,0,0-29.77,0H50.43a3.24,3.24,0,0,1-3.24-3.24V99.74H148.54Z" style="fill:#5c7c26"/></g></svg>