<svg id="Capa_1" data-name="Capa 1" xmlns="http://www.w3.org/2000/svg" viewBox="0 0 154.5 154"><g id="Capa_3" data-name="Capa 3"><path d="M105.6,46.11h0M96,45.25a.33.33,0,0,0-.35.32L94.45,67.33A4.94,4.94,0,0,0,93.3,76.2l-.45,8.37A1.4,1.4,0,0,0,94.24,86h3.43a1.4,1.4,0,0,0,1.39-1.47l-.45-8.37a4.94,4.94,0,0,0-1.15-8.87L96.3,45.57a.33.33,0,0,0-.34-.32Z" style="fill:#5c7c26"/><polygon points="125.42 54.76 114 54.76 114 65.64 125.42 65.64 125.42 54.76 125.42 54.76" style="fill:#5c7c26"/><polygon points="78.54 54.76 67.12 54.76 67.12 65.64 78.54 65.64 78.54 54.76 78.54 54.76" style="fill:#5c7c26"/><polygon points="101.67 36.83 90.25 36.83 90.25 47.71 101.67 47.71 101.67 36.83 101.67 36.83" style="fill:#5c7c26"/><path d="M97.9,25.19H94v4.87a41.66,41.66,0,0,0-13,2.67l-1.28-3.1-2.5,1,1.28,3.09a42.06,42.06,0,0,0-11.06,7.3L64,37.61l-2.74,2.75,3.44,3.44a42.27,42.27,0,0,0-7.3,11.07l-3.09-1.28-1,2.49,3.09,1.29a42,42,0,0,0-2.67,13H48.85v3.88h4.87a42,42,0,0,0,2.67,13L53.3,88.5l1,2.49,3.1-1.28a41.83,41.83,0,0,0,7.29,11.07l-3.44,3.44L64,107l6.16-6.16-1.37-1.37a38.42,38.42,0,1,1,54.29,0l-1.37,1.37,6.16,6.16,2.74-2.75-3.44-3.44a42.11,42.11,0,0,0,7.3-11.07L137.58,91l1-2.49-3.09-1.28a42,42,0,0,0,2.67-13h4.87V70.35h-4.87a42.07,42.07,0,0,0-2.67-13l3.09-1.28-1-2.49-3.09,1.28a42.27,42.27,0,0,0-7.3-11.07l3.44-3.44-2.74-2.75-3.44,3.45a42.27,42.27,0,0,0-11.07-7.3l1.28-3.09-2.5-1-1.28,3.1a41.66,41.66,0,0,0-13-2.67V25.19Z" style="fill:#5c7c26"/><path d="M28.53,128.76A64.38,64.38,0,0,1,3,56.56a61.16,61.16,0,0,1,40.1-41.1l2.3,7.3a54.14,54.14,0,0,0-35.5,36.1,56.1,56.1,0,0,0,3.9,42.5A55.21,55.21,0,0,0,46,129l-2.2,7.2A60.25,60.25,0,0,1,28.53,128.76Z" style="fill:#f7c90d"/><path d="M141.2,21.14a3.3,3.3,0,0,1,3.3,3.3V127.18a3.3,3.3,0,0,1-3.3,3.3H49.86a3.3,3.3,0,0,1-3.3-3.3V24.44a3.3,3.3,0,0,1,3.3-3.3H141.2m0-10H49.86a13.29,13.29,0,0,0-13.3,13.3V127.18a13.29,13.29,0,0,0,13.3,13.3H141.2a13.29,13.29,0,0,0,13.3-13.3V24.44a13.29,13.29,0,0,0-13.3-13.3Z" style="fill:#5c7c26"/><path d="M69.19,108.17a2.08,2.08,0,0,1,2.09-2.09h.47a2.15,2.15,0,0,1,1.89,1.08l5,8.17,5-8.17a2,2,0,0,1,1.85-1H86a2.08,2.08,0,0,1,2.09,2.09v15a2.07,2.07,0,1,1-4.14,0v-9.44l-3.64,5.61a2.1,2.1,0,0,1-1.74,1.05,2,2,0,0,1-1.71-1.05l-3.6-5.53v9.36a2,2,0,0,1-2,2,2,2,0,0,1-2-2Z" style="fill:#727176"/><path d="M95.58,110h-4a1.9,1.9,0,1,1,0-3.79h12.11a1.9,1.9,0,1,1,0,3.79h-4v13.12a2.09,2.09,0,0,1-4.18,0V110Z" style="fill:#727176"/><path d="M115.94,116.45a2.05,2.05,0,0,0,0,2.63l2.17,1.9a5.92,5.92,0,0,0,2.71-2.79l-2.21-1.93A2,2,0,0,0,115.94,116.45ZM124,121a10,10,0,0,1-2.83,2.74l1.2,1a2.06,2.06,0,0,0,2.64-.16,2,2,0,0,0-.12-2.9Zm-8.4.58a5.93,5.93,0,1,1,5.19-3.37L124,121a9.62,9.62,0,0,0,1.66-5.42,10.06,10.06,0,1,0-10.06,9.79,10.46,10.46,0,0,0,5.58-1.63l-3.1-2.7A5.64,5.64,0,0,1,115.63,121.56Z" style="fill:#8eb322"/><path d="M124,121l-3.17-2.79a5.92,5.92,0,0,1-2.71,2.79l3.09,2.71A9.86,9.86,0,0,0,124,121Z" style="fill:#5c7c26"/></g></svg>