<svg id="Capa_1" data-name="Capa 1" xmlns="http://www.w3.org/2000/svg" viewBox="0 0 154.5 154"><g id="Capa_5" data-name="Capa 5"><path d="M58.7,143.5a58.4,58.4,0,0,1-45-95.4l5.4,4.4a51.41,51.41,0,0,0,53.4,82.2l1.9,6.7A60,60,0,0,1,58.7,143.5Z" style="fill:#f7c90d"/><path d="M40.5,17A13.7,13.7,0,1,1,26.8,30.7,13.66,13.66,0,0,1,40.5,17Z" style="fill:#5c7c26"/><path d="M40.7,7.5A31.6,31.6,0,0,1,71,48.4l9.4,4.5a40.33,40.33,0,1,1,6.9,52l-5.8,4.8a24.29,24.29,0,1,1-10.7-9.5,22,22,0,0,1,5.1,3.2l5.7-4.7A40,40,0,0,1,73.9,75a38.55,38.55,0,0,1,2.4-13.6L66.9,57A31.69,31.69,0,1,1,40.7,7.5Z" style="fill:#5c7c26"/><path d="M60.4,106.2A10.3,10.3,0,1,1,50,116.4,10.35,10.35,0,0,1,60.4,106.2Z" style="fill:#5c7c26"/><path d="M47.75,38.47H33.25c-6.5,0-11.78,7-11.78,15.57v7.55H59.53V54C59.53,45.44,54.26,38.47,47.75,38.47ZM45.17,58.92H35.84l-2.7-18.75c.26,0,.52-.05.79-.05H47.07c.27,0,.53,0,.8.05Z" style="fill:#fff"/><polygon points="37.58 53.94 43.43 53.94 43.43 53.94 41.98 44.41 41.92 44.41 43.35 41.79 37.65 41.79 39.08 44.41 39.03 44.41 37.58 53.94" style="fill:#fff"/><path d="M53,24.76A12.53,12.53,0,1,0,40.5,37.29,12.53,12.53,0,0,0,53,24.76Z" style="fill:#fff"/><path d="M66.15,123.68H54.45a9.51,9.51,0,0,0-9.51,9.51v4.61H75.66v-4.61A9.51,9.51,0,0,0,66.15,123.68Zm-2.08,12.49H56.54l-2.18-11.45c.21,0,.42,0,.64,0H65.6c.22,0,.43,0,.65,0Z" style="fill:#fff"/><polygon points="57.94 136.17 62.66 136.17 62.66 136.17 61.49 128.47 61.45 128.47 62.6 126.36 58 126.36 59.15 128.47 59.11 128.47 57.94 136.17" style="fill:#fff"/><path d="M70.41,112.62A10.11,10.11,0,1,0,60.3,122.73,10.11,10.11,0,0,0,70.41,112.62Z" style="fill:#fff"/><path d="M97.68,67.52a7.87,7.87,0,0,1-4.45,7.4.22.22,0,0,0,.09.42h21c.32,0,.64,0,1,0A17.56,17.56,0,1,0,97.68,57.8v.34h0Z" style="fill:#fff"/><path d="M125.41,77H105.08a16.51,16.51,0,0,0-16.51,16.5v8h53.35v-8A16.51,16.51,0,0,0,125.41,77Zm-5.81,7.25-4.33,12.86h-.13L110.9,84.35Zm.07,3.14L123,90.67l-7.79,8.44-7.8-8.44,3.37-3.25s-5-4.53-5.22-4.92c-.4-.71,3.08-3,3.08-3l6.57,19.65,6.57-19.65s3.47,2.33,3.08,3C124.67,82.89,119.67,87.42,119.67,87.42Z" style="fill:#fff"/><polygon points="119.6 84.28 110.9 84.35 115.14 97.14 115.27 97.14 119.6 84.28" style="fill:#5c7c26"/><path d="M124.9,82.5c.39-.71-3.08-3-3.08-3l-6.57,19.65L123,90.67l-3.37-3.25S124.67,82.89,124.9,82.5Z" style="fill:#5c7c26"/><path d="M115.25,99.11l-6.57-19.65s-3.48,2.33-3.08,3c.23.39,5.22,4.92,5.22,4.92l-3.37,3.25Z" style="fill:#5c7c26"/></g></svg>