<svg xmlns="http://www.w3.org/2000/svg" viewBox="0 0 53.18 39.87"><g id="Capa_2" data-name="Capa 2"><g id="MAQUINARIA"><g id="logo"><path d="M21.05,21.78s-2.31,3,.06,5.33L25.49,31A12,12,0,0,0,31,25.3l-4.52-3.95A4,4,0,0,0,21.05,21.78ZM37.49,31a20.34,20.34,0,0,1-5.73,5.59l2.43,2.14a4.15,4.15,0,0,0,5.33-.32s2.69-2.64-.27-5.87Zm-17,1.22A11.94,11.94,0,0,1,8.72,20,11.94,11.94,0,0,1,20.45,7.89,11.93,11.93,0,0,1,32.17,20,12.51,12.51,0,0,1,31,25.3L37.49,31a19.47,19.47,0,0,0,3.4-11A20.19,20.19,0,0,0,20.45,0,20.19,20.19,0,0,0,0,19.93,20.2,20.2,0,0,0,20.45,39.87a20.74,20.74,0,0,0,11.31-3.33L25.49,31A11.29,11.29,0,0,1,20.45,32.17Z" style="fill:#8eb322"/><path d="M37.49,31,31,25.3A12,12,0,0,1,25.49,31l6.27,5.55A20.34,20.34,0,0,0,37.49,31Z" style="fill:#5c7c26"/><path d="M52,21.67a1,1,0,0,1-.78.39,1,1,0,0,1-1-1,.94.94,0,0,1,.19-.59,4,4,0,0,0,.84-2.41c0-.85-.33-1.36-.88-1.36h0c-.52,0-.79.33-1.2,1.9-.48,1.89-1,3.12-2.87,3.12h0c-1.7,0-2.83-1.37-2.83-3.3a5.44,5.44,0,0,1,.83-3A1,1,0,0,1,46,16a1.08,1.08,0,0,1-.14.53,3.85,3.85,0,0,0-.64,2c0,.79.37,1.21.82,1.21h0c.62,0,.82-.4,1.24-2,.49-1.91,1.18-3,2.82-3h0c1.86,0,2.91,1.42,2.91,3.45A6,6,0,0,1,52,21.67Z" style="fill:#8eb322"/><path d="M52,29.75H44.48a1.06,1.06,0,0,1-1.06-1.07V23.32a1,1,0,0,1,.95-1,.94.94,0,0,1,.94,1v4.31h2V23.94a1,1,0,0,1,1-1,1,1,0,0,1,.94,1v3.69h2V23.25a1,1,0,0,1,.95-.95.93.93,0,0,1,.94.95v5.43A1.06,1.06,0,0,1,52,29.75Z" style="fill:#8eb322"/><path d="M48.32,39.3h0a4.8,4.8,0,0,1-4.88-4.92,5,5,0,0,1,.95-3.16,1,1,0,0,1,.83-.4,1,1,0,0,1,1,1,1.14,1.14,0,0,1-.2.62,3.07,3.07,0,0,0-.68,1.93,2.8,2.8,0,0,0,2.94,2.74h0a2.8,2.8,0,0,0,3-2.74,3,3,0,0,0-.74-2,1,1,0,0,1-.23-.62A1,1,0,0,1,52,31.1a5,5,0,0,1-3.67,8.2Z" style="fill:#8eb322"/><path d="M52.48,6.1a3.37,3.37,0,0,1-1.64,2.54l-2,1.58h2.4a1.47,1.47,0,0,1,1.47,1.48h0a1.47,1.47,0,0,1-1.47,1.47H44.7c-.5,0-1.68-.34-1.68-1.28a1.5,1.5,0,0,1,.56-1.3h0l4.73-3.53c.16-.13.91-.62.91-1.21,0-.26-.3-.87-1.7-.77-.93.07-1.65,1.28-1.65,1.28a1.76,1.76,0,0,1-1.41.76,1.31,1.31,0,0,1-1.31-1.3h0c0-3.74,5.23-3.56,5.23-3.56A4.15,4.15,0,0,1,52.48,6.1Z" style="fill:#727176"/></g></g></g></svg>