<svg xmlns="http://www.w3.org/2000/svg" viewBox="0 0 51.82 39.87"><g id="Capa_2" data-name="Capa 2"><g id="MAQUINARIA"><g id="logo"><path d="M47.4,39.23h0a4.38,4.38,0,0,1-4.45-4.49,4.64,4.64,0,0,1,.87-2.88,1,1,0,0,1,.75-.36A.93.93,0,0,1,45.28,33a2.87,2.87,0,0,0-.61,1.76,2.55,2.55,0,0,0,2.68,2.5h0a2.56,2.56,0,0,0,2.71-2.5,2.78,2.78,0,0,0-.68-1.87.87.87,0,0,1-.21-.56.89.89,0,0,1,.87-.89.9.9,0,0,1,.68.32,4.54,4.54,0,0,1-3.34,7.48Z" style="fill:#f7c90d"/><path d="M50.73,30.77H44a.94.94,0,0,1-1-.95V25.05a.85.85,0,0,1,.85-.84.84.84,0,0,1,.83.84v3.84H46.5V25.61a.85.85,0,0,1,.85-.85.84.84,0,0,1,.83.85v3.28H50V25a.85.85,0,0,1,.85-.85.83.83,0,0,1,.83.85v4.83A.93.93,0,0,1,50.73,30.77Z" style="fill:#f7c90d"/><path d="M44,23.53a.94.94,0,0,1-.95-1v-.21a1,1,0,0,1,.49-.86l3.73-2.28-3.74-2.3a.93.93,0,0,1-.48-.85v-.21a.94.94,0,0,1,.95-.95H50.8a.94.94,0,1,1,0,1.88H46.51l2.56,1.66a1,1,0,0,1,.48.79.94.94,0,0,1-.48.79l-2.52,1.63h4.28a.93.93,0,0,1,.92.94.92.92,0,0,1-.92.92Z" style="fill:#f7c90d"/><path d="M50.42,10.52h-2.9l1-.61c2-1.24,3.13-2.13,3.13-3.89V6c0-1.92-1.7-3.2-4.23-3.2a5.27,5.27,0,0,0-3.92,1.46,1.27,1.27,0,0,0-.39.87,1.35,1.35,0,0,0,1.45,1.25,1.54,1.54,0,0,0,1-.38,2.32,2.32,0,0,1,1.65-.74c.37,0,1.22.09,1.22.91,0,.6-.41,1-1.83,2l-3.24,2.18a1.54,1.54,0,0,0-.79,1.29c0,.77.67,1.29,1.66,1.29h6.18a1.29,1.29,0,0,0,1.4-1.19A1.32,1.32,0,0,0,50.42,10.52Z" style="fill:#727176"/><path d="M21.05,21.78s-2.31,3,.06,5.33L25.49,31A12,12,0,0,0,31,25.3l-4.52-3.95A4,4,0,0,0,21.05,21.78ZM37.49,31a20.34,20.34,0,0,1-5.73,5.59l2.43,2.14a4.15,4.15,0,0,0,5.33-.32s2.69-2.64-.27-5.87Zm-17,1.22A11.94,11.94,0,0,1,8.72,20,11.94,11.94,0,0,1,20.45,7.89,11.93,11.93,0,0,1,32.17,20,12.51,12.51,0,0,1,31,25.3L37.49,31a19.47,19.47,0,0,0,3.4-11A20.19,20.19,0,0,0,20.45,0,20.19,20.19,0,0,0,0,19.93,20.2,20.2,0,0,0,20.45,39.87a20.74,20.74,0,0,0,11.31-3.33L25.49,31A11.29,11.29,0,0,1,20.45,32.17Z" style="fill:#8eb322"/><path d="M37.49,31,31,25.3A12,12,0,0,1,25.49,31l6.27,5.55A20.34,20.34,0,0,0,37.49,31Z" style="fill:#5c7c26"/></g></g></g></svg>