<svg xmlns="http://www.w3.org/2000/svg" viewBox="0 0 58.53 46.13"><g id="Capa_2" data-name="Capa 2"><g id="Capa_1-2" data-name="Capa 1"><g id="Capa_2-2" data-name="Capa 2"><g id="Capa_3" data-name="Capa 3"><path d="M23.44,7.74a11.74,11.74,0,0,0-7,2.31,11.89,11.89,0,0,0-4.48,9.7c.06,6.84,5.06,12,11.5,12a12.21,12.21,0,0,0,5-1l-3.87-3.39A4.09,4.09,0,0,1,23,24.17a4,4,0,0,1,3.93-4,3.86,3.86,0,0,1,2.78,1.15L33.94,25a13.71,13.71,0,0,0,1-5.27C34.93,12.94,29.89,7.71,23.44,7.74Z" style="fill:none"/><path d="M50.51,39.49h0a4.74,4.74,0,0,1-4.82-4.86,4.92,4.92,0,0,1,1-3.12,1,1,0,0,1,.81-.4,1,1,0,0,1,1,1,1.1,1.1,0,0,1-.2.61,3,3,0,0,0-.67,1.9,2.77,2.77,0,0,0,2.91,2.71h0a2.77,2.77,0,0,0,2.93-2.71,3,3,0,0,0-.73-2,1,1,0,1,1,1.45-1.23,4.91,4.91,0,0,1-3.62,8.1Z" style="fill:#f7c90d"/><path d="M54.12,30.33H46.85a1,1,0,0,1-1-1V24.13a.92.92,0,0,1,.92-.92.91.91,0,0,1,.9.92v4.16h1.9V24.73a.92.92,0,0,1,.92-.92.91.91,0,0,1,.9.92v3.56h2V24.06a.92.92,0,0,1,1.83,0V29.3A1,1,0,0,1,54.12,30.33Z" style="fill:#f7c90d"/><path d="M46.79,22.48a1,1,0,0,1-1-1v-.22a1.06,1.06,0,0,1,.53-.94l4-2.47-4.05-2.49a1,1,0,0,1-.52-.92v-.23a1,1,0,0,1,1-1H54.2a1,1,0,1,1,0,2H49.55L52.32,17a1,1,0,0,1,.52.85,1,1,0,0,1-.52.86l-2.73,1.77h4.64a1,1,0,0,1,0,2Z" style="fill:#f7c90d"/><path d="M23.44,31.75c-6.44,0-11.44-5.16-11.5-12a11.89,11.89,0,0,1,4.48-9.7,11.74,11.74,0,0,1,7-2.31c6.45,0,11.49,5.2,11.51,12a13.71,13.71,0,0,1-1,5.27l6.45,5.65a19.15,19.15,0,0,0,3.35-10.92C43.71,8.55,34.82,0,23.45,0a21.11,21.11,0,0,0-12.2,3.83,19.13,19.13,0,0,0-8.1,15.92c.1,11.24,8.93,19.79,20.3,19.74A20.56,20.56,0,0,0,34.7,36.23l-6.29-5.51A12.21,12.21,0,0,1,23.44,31.75Z" style="fill:#8eb322"/><path d="M26.94,20.18a4,4,0,0,0-3.93,4,4.09,4.09,0,0,0,1.53,3.16l3.87,3.39a10.44,10.44,0,0,0,3.4-2.38A10.8,10.8,0,0,0,33.94,25l-4.22-3.69A3.86,3.86,0,0,0,26.94,20.18Z" style="fill:#8eb322"/><path d="M42,32.08l-1.61-1.41a20.39,20.39,0,0,1-5.69,5.56l2.11,1.85a3.93,3.93,0,0,0,6.71-2.84A4.12,4.12,0,0,0,42,32.08Z" style="fill:#8eb322"/><path d="M53.79,8.38H50.64l1-.66c2.11-1.35,3.4-2.31,3.4-4.22v0C55.08,1.4,53.23,0,50.49,0a5.7,5.7,0,0,0-4.25,1.59,1.38,1.38,0,0,0-.42.94,1.45,1.45,0,0,0,1.57,1.35,1.68,1.68,0,0,0,1.14-.4,2.45,2.45,0,0,1,1.79-.81c.39,0,1.32.1,1.32,1,0,.64-.45,1.13-2,2.16l-3.5,2.37a1.66,1.66,0,0,0-.86,1.4c0,.83.73,1.39,1.8,1.39h6.7a1.41,1.41,0,0,0,1.52-1.29A1.43,1.43,0,0,0,53.79,8.38Z" style="fill:#727176"/><path d="M40.39,30.67,33.94,25a10.8,10.8,0,0,1-2.13,3.32,10.44,10.44,0,0,1-3.4,2.38l6.29,5.51a20.39,20.39,0,0,0,5.69-5.56Z" style="fill:#5c7c26"/><path d="M.12,44.39h0a1.11,1.11,0,0,1,1.11-1.14,1.15,1.15,0,0,1,.81.31.09.09,0,0,1,0,.07A.09.09,0,0,1,2,43.7l-.06,0a1,1,0,0,0-.7-.29.94.94,0,0,0-.93,1h0a1,1,0,0,0,.93,1A1,1,0,0,0,2,45.07l.06,0a.09.09,0,0,1,.08.08.09.09,0,0,1,0,0,1.14,1.14,0,0,1-.84.35A1.1,1.1,0,0,1,.12,44.39Z" style="fill:#727176"/><path d="M1.22,45.65A1.23,1.23,0,0,1,0,44.39H0a1.23,1.23,0,0,1,1.23-1.26,1.29,1.29,0,0,1,.89.33.23.23,0,0,1,.08.17.21.21,0,0,1-.21.2.2.2,0,0,1-.15-.06.85.85,0,0,0-.61-.25.87.87,0,0,0,0,1.74A.81.81,0,0,0,1.86,45,.2.2,0,0,1,2,44.92a.21.21,0,0,1,.2.21.18.18,0,0,1-.06.14A1.25,1.25,0,0,1,1.22,45.65ZM2,45.16Zm0-1.58H2Z" style="fill:#727176"/><path d="M2.38,44.69h0a.83.83,0,0,1,.83-.84.82.82,0,0,1,.82.84H4a.83.83,0,1,1-1.65,0Zm1.49,0h0A.67.67,0,0,0,3.2,44a.66.66,0,0,0-.65.69h0a.68.68,0,0,0,.66.7A.67.67,0,0,0,3.87,44.69Z" style="fill:#727176"/><path d="M3.2,45.65a1,1,0,0,1-1-1h0a1,1,0,1,1,1,1Zm0-1.54a.54.54,0,0,0-.53.57.55.55,0,0,0,.54.58.54.54,0,0,0,.53-.57h0A.55.55,0,0,0,3.2,44.11Z" style="fill:#727176"/><path d="M4.51,43.94a.07.07,0,0,1,.08-.07.08.08,0,0,1,.08.07v.24a.61.61,0,0,1,.58-.34.61.61,0,0,1,.64.66v.92a.07.07,0,0,1-.07.08.07.07,0,0,1-.08-.08v-.89A.5.5,0,0,0,5.22,44a.55.55,0,0,0-.55.58v.86a.08.08,0,0,1-.16,0Z" style="fill:#727176"/><path d="M5.82,45.63a.21.21,0,0,1-.21-.21v-.89a.37.37,0,0,0-.39-.42.43.43,0,0,0-.43.45v.86a.2.2,0,1,1-.4,0V43.94a.19.19,0,0,1,.2-.2.2.2,0,0,1,.18.12.83.83,0,0,1,.48-.14A.73.73,0,0,1,6,44.5v.92A.2.2,0,0,1,5.82,45.63Z" style="fill:#727176"/><path d="M6.34,45.31a.09.09,0,0,1,0-.06.08.08,0,0,1,.08-.07h.05a.93.93,0,0,0,.54.19c.22,0,.39-.12.39-.31h0c0-.19-.21-.26-.43-.32s-.55-.15-.55-.44h0a.47.47,0,0,1,.53-.44,1.1,1.1,0,0,1,.52.14.08.08,0,0,1,0,.07.08.08,0,0,1-.08.08l0,0A.9.9,0,0,0,6.91,44c-.22,0-.36.12-.36.28h0c0,.18.21.25.44.31s.53.17.53.45h0a.49.49,0,0,1-.55.47A1.08,1.08,0,0,1,6.34,45.31Z" style="fill:#727176"/><path d="M7,45.65a1.18,1.18,0,0,1-.7-.24h0a.21.21,0,0,1-.08-.16.2.2,0,0,1,.2-.2.28.28,0,0,1,.13,0,.74.74,0,0,0,.46.16c.12,0,.26-.06.26-.18s-.08-.14-.33-.21-.65-.18-.65-.56a.6.6,0,0,1,.66-.58,1.24,1.24,0,0,1,.58.16.22.22,0,0,1,.11.18.22.22,0,0,1-.32.17c-.27-.16-.62-.13-.62,0s.16.15.36.2.62.18.62.57A.62.62,0,0,1,7,45.65Z" style="fill:#727176"/><path d="M8.07,45.08V44H7.9a.07.07,0,1,1,0-.14h.17v-.45a.08.08,0,0,1,.08-.08.09.09,0,0,1,.08.08v.45h.5a.07.07,0,1,1,0,.14h-.5v1c0,.23.13.31.32.31a.65.65,0,0,0,.18,0,.07.07,0,0,1,.07.07s0,.05-.05.07a.73.73,0,0,1-.23,0A.41.41,0,0,1,8.07,45.08Z" style="fill:#727176"/><path d="M8.52,45.64A.53.53,0,0,1,8,45.08v-.93h0a.2.2,0,0,1,0-.4H8v-.32a.19.19,0,0,1,.2-.2.2.2,0,0,1,.2.2v.32h.38a.2.2,0,1,1,0,.4H8.35v.91c0,.12,0,.19.2.19l.11,0h.07a.2.2,0,0,1,.2.19.19.19,0,0,1-.13.18A.7.7,0,0,1,8.52,45.64Z" style="fill:#727176"/><path d="M9.25,43.94a.07.07,0,0,1,.08-.07.07.07,0,0,1,.07.07v.4a.76.76,0,0,1,.65-.49.08.08,0,0,1,.08.09.08.08,0,0,1-.08.08.74.74,0,0,0-.65.81v.59a.07.07,0,0,1-.07.08.07.07,0,0,1-.08-.08Z" style="fill:#727176"/><path d="M9.33,45.63a.21.21,0,0,1-.21-.21V43.94a.2.2,0,0,1,.21-.2.2.2,0,0,1,.2.2h0a.78.78,0,0,1,.52-.22.21.21,0,0,1,.21.21.22.22,0,0,1-.2.21c-.33,0-.53.28-.53.68v.59A.2.2,0,0,1,9.33,45.63ZM10,43.9Z" style="fill:#727176"/><path d="M11.86,45.42a.07.07,0,0,1-.07.08.07.07,0,0,1-.08-.08v-.23a.64.64,0,0,1-.58.34.62.62,0,0,1-.65-.67v-.92a.07.07,0,0,1,.08-.07.08.08,0,0,1,.08.07v.9a.49.49,0,0,0,.51.55.56.56,0,0,0,.56-.58v-.87a.07.07,0,0,1,.07-.07.07.07,0,0,1,.08.07Z" style="fill:#727176"/><path d="M11.13,45.65a.74.74,0,0,1-.77-.79v-.92a.19.19,0,0,1,.2-.2.2.2,0,0,1,.2.2v.9a.37.37,0,0,0,.39.42.43.43,0,0,0,.43-.45v-.87a.2.2,0,0,1,.2-.2.2.2,0,0,1,.21.2v1.48a.2.2,0,0,1-.2.21.2.2,0,0,1-.19-.13A.75.75,0,0,1,11.13,45.65Z" style="fill:#727176"/><path d="M12.34,44.69h0a.83.83,0,0,1,.82-.84.85.85,0,0,1,.61.26.08.08,0,0,1,0,0,.07.07,0,0,1-.08.08s0,0-.05,0a.71.71,0,0,0-.5-.22.66.66,0,0,0-.65.69h0a.68.68,0,0,0,.66.7.72.72,0,0,0,.51-.23.06.06,0,0,1,.05,0,.08.08,0,0,1,.07.07s0,0,0,0a.83.83,0,0,1-.62.28A.83.83,0,0,1,12.34,44.69Z" style="fill:#727176"/><path d="M13.16,45.65a1,1,0,0,1-.95-1h0a1,1,0,0,1,.95-1,1,1,0,0,1,.69.28.23.23,0,0,1,.07.15.21.21,0,0,1-.21.21.18.18,0,0,1-.14-.06.58.58,0,0,0-.41-.19.54.54,0,0,0-.53.57.55.55,0,0,0,.54.58.59.59,0,0,0,.42-.2.21.21,0,0,1,.34.14.2.2,0,0,1-.06.14A1,1,0,0,1,13.16,45.65Zm.53-.49Zm.05-1Z" style="fill:#727176"/><path d="M14.34,45.08V44h-.17a.07.07,0,1,1,0-.14h.17v-.45a.08.08,0,0,1,.08-.08.08.08,0,0,1,.07.08v.45H15A.07.07,0,1,1,15,44h-.51v1c0,.23.14.31.33.31a.65.65,0,0,0,.18,0,.08.08,0,0,1,.07.07s0,.05-.05.07a.73.73,0,0,1-.23,0A.41.41,0,0,1,14.34,45.08Z" style="fill:#727176"/><path d="M14.79,45.64a.54.54,0,0,1-.58-.56v-.93h0a.2.2,0,0,1,0-.4h0v-.32a.2.2,0,0,1,.21-.2.2.2,0,0,1,.2.2v.32H15a.2.2,0,0,1,0,.4h-.38v.91c0,.12,0,.19.2.19l.11,0H15a.19.19,0,0,1,.19.19.18.18,0,0,1-.13.18A.62.62,0,0,1,14.79,45.64Z" style="fill:#727176"/><path d="M15.52,43.33a.09.09,0,0,1,.1-.1.09.09,0,0,1,.09.1v.05a.09.09,0,0,1-.09.09.09.09,0,0,1-.1-.09Zm0,.61a.07.07,0,0,1,.08-.07.08.08,0,0,1,.08.07v1.48a.08.08,0,0,1-.08.08.07.07,0,0,1-.08-.08Z" style="fill:#727176"/><path d="M15.62,45.63a.2.2,0,0,1-.2-.21V43.94a.19.19,0,0,1,.2-.2.2.2,0,0,1,.2.2v1.48A.2.2,0,0,1,15.62,45.63Zm0-2a.22.22,0,0,1-.22-.22v-.05a.21.21,0,0,1,.22-.22.22.22,0,0,1,.22.22v.05A.22.22,0,0,1,15.62,43.6Zm0-.25h0Z" style="fill:#727176"/><path d="M16.19,44.69h0a.84.84,0,0,1,.84-.84.83.83,0,0,1,.82.84h0a.83.83,0,1,1-1.66,0Zm1.49,0h0a.66.66,0,1,0-1.32,0h0a.68.68,0,0,0,.67.7A.66.66,0,0,0,17.68,44.69Z" style="fill:#727176"/><path d="M17,45.65a1,1,0,0,1-.95-1h0a1,1,0,1,1,.95,1Zm0-1.54a.54.54,0,0,0-.53.57.54.54,0,1,0,1.07,0h0A.55.55,0,0,0,17,44.11Z" style="fill:#727176"/><path d="M18.33,43.94a.07.07,0,0,1,.07-.07.07.07,0,0,1,.08.07v.24a.64.64,0,0,1,.58-.34.62.62,0,0,1,.65.66v.92a.07.07,0,0,1-.08.08.08.08,0,0,1-.08-.08v-.89A.49.49,0,0,0,19,44a.56.56,0,0,0-.56.58v.86a.07.07,0,0,1-.07.08.07.07,0,0,1-.08-.08Z" style="fill:#727176"/><path d="M19.63,45.63a.2.2,0,0,1-.2-.21v-.89a.37.37,0,0,0-.39-.42.43.43,0,0,0-.43.45v.86a.2.2,0,0,1-.2.21.21.21,0,0,1-.21-.21V43.94a.2.2,0,0,1,.39-.08.82.82,0,0,1,.47-.14.73.73,0,0,1,.77.78v.92A.2.2,0,0,1,19.63,45.63Z" style="fill:#727176"/><path d="M21.25,45.41v-2a.08.08,0,0,1,.08-.08h1.43a.07.07,0,0,1,.07.07.08.08,0,0,1-.07.08H21.41v.87h1.2a.07.07,0,0,1,.08.07.07.07,0,0,1-.08.08h-1.2v.89h1.36a.08.08,0,0,1,.08.07.08.08,0,0,1-.08.08H21.33A.08.08,0,0,1,21.25,45.41Z" style="fill:#727176"/><path d="M22.77,45.61H21.33a.21.21,0,0,1-.21-.2v-2a.21.21,0,0,1,.21-.21h1.43a.2.2,0,0,1,0,.4H21.54v.62h1.07a.2.2,0,0,1,.21.2.21.21,0,0,1-.21.21H21.54v.63h1.23a.2.2,0,1,1,0,.4Z" style="fill:#727176"/><path d="M24.83,45.93a.08.08,0,1,1-.16,0v-.8a.78.78,0,0,1-.66.4.8.8,0,0,1-.79-.84h0a.81.81,0,0,1,.79-.84.76.76,0,0,1,.66.39v-.29a.07.07,0,0,1,.08-.07.08.08,0,0,1,.08.07Zm-1.44-1.25h0a.65.65,0,0,0,.63.7.67.67,0,0,0,.66-.69h0A.67.67,0,0,0,24,44,.63.63,0,0,0,23.39,44.68Z" style="fill:#727176"/><path d="M24.75,46.13a.2.2,0,0,1-.2-.2v-.47a.83.83,0,0,1-.54.19,1,1,0,0,1,0-1.93.83.83,0,0,1,.54.19.2.2,0,0,1,.2-.17.2.2,0,0,1,.2.2v2A.19.19,0,0,1,24.75,46.13Zm-.73-2a.51.51,0,0,0-.5.57h0a.51.51,0,0,0,.5.57.55.55,0,0,0,.54-.56A.56.56,0,0,0,24,44.11Z" style="fill:#727176"/><path d="M26.76,45.42a.07.07,0,0,1-.07.08.07.07,0,0,1-.08-.08v-.23a.64.64,0,0,1-.58.34.62.62,0,0,1-.65-.67v-.92a.07.07,0,0,1,.08-.07.08.08,0,0,1,.08.07v.9a.49.49,0,0,0,.51.55.55.55,0,0,0,.56-.58v-.87a.07.07,0,0,1,.07-.07.07.07,0,0,1,.08.07Z" style="fill:#727176"/><path d="M26,45.65a.74.74,0,0,1-.77-.79v-.92a.19.19,0,0,1,.2-.2.2.2,0,0,1,.2.2v.9a.37.37,0,0,0,.39.42.43.43,0,0,0,.43-.45v-.87a.2.2,0,0,1,.2-.2.2.2,0,0,1,.21.2v1.48a.2.2,0,0,1-.2.21.2.2,0,0,1-.19-.13A.75.75,0,0,1,26,45.65Z" style="fill:#727176"/><path d="M27.35,43.33a.09.09,0,0,1,.1-.1.1.1,0,0,1,.1.1v.05a.1.1,0,0,1-.1.09.09.09,0,0,1-.1-.09Zm0,.61a.07.07,0,0,1,.08-.07.08.08,0,0,1,.08.07v1.48a.07.07,0,0,1-.08.08.08.08,0,0,1-.08-.08Z" style="fill:#727176"/><path d="M27.45,45.63a.2.2,0,0,1-.2-.21V43.94a.2.2,0,0,1,.4,0v1.48A.2.2,0,0,1,27.45,45.63Zm0-2a.22.22,0,0,1-.22-.22v-.05a.22.22,0,0,1,.44,0v.05A.22.22,0,0,1,27.45,43.6Zm0-.25h0Z" style="fill:#727176"/><path d="M28.14,43.94a.07.07,0,0,1,.07-.07.07.07,0,0,1,.08.07v.3a.77.77,0,0,1,1.45.44h0a.81.81,0,0,1-.78.85.79.79,0,0,1-.67-.39v.79a.07.07,0,0,1-.07.08.07.07,0,0,1-.08-.08Zm1.43.75h0a.64.64,0,0,0-.63-.69.68.68,0,0,0-.66.69h0a.68.68,0,0,0,.66.69A.63.63,0,0,0,29.57,44.69Z" style="fill:#727176"/><path d="M28.22,46.13a.2.2,0,0,1-.21-.2v-2a.2.2,0,0,1,.2-.2.19.19,0,0,1,.2.17.84.84,0,0,1,.55-.19,1,1,0,0,1,0,1.93.84.84,0,0,1-.54-.18v.46A.19.19,0,0,1,28.22,46.13Zm.72-2a.55.55,0,0,0-.53.57.54.54,0,0,0,.53.57.51.51,0,0,0,.51-.56h0A.53.53,0,0,0,28.94,44.11Z" style="fill:#727176"/><path d="M30.22,43.94a.07.07,0,0,1,.08-.07.08.08,0,0,1,.08.07v.23a.59.59,0,0,1,.54-.33.57.57,0,0,1,.54.35.64.64,0,0,1,.58-.35.61.61,0,0,1,.62.67v.91a.07.07,0,0,1-.08.08.08.08,0,0,1-.08-.08v-.89c0-.35-.18-.55-.47-.55a.52.52,0,0,0-.51.57v.87a.07.07,0,0,1-.08.08.08.08,0,0,1-.08-.08v-.9c0-.33-.18-.54-.47-.54a.55.55,0,0,0-.51.58v.86a.07.07,0,0,1-.08.08.08.08,0,0,1-.08-.08Z" style="fill:#727176"/><path d="M32.58,45.63a.2.2,0,0,1-.2-.21v-.89c0-.19-.06-.42-.35-.42a.39.39,0,0,0-.39.44v.87a.2.2,0,0,1-.2.21.2.2,0,0,1-.2-.21v-.9c0-.26-.13-.41-.35-.41a.42.42,0,0,0-.39.45v.86a.2.2,0,0,1-.2.21.2.2,0,0,1-.2-.21V43.94a.2.2,0,0,1,.2-.2.2.2,0,0,1,.18.12.72.72,0,0,1,.44-.14.68.68,0,0,1,.54.25.74.74,0,0,1,.58-.25.72.72,0,0,1,.74.79v.91A.2.2,0,0,1,32.58,45.63Z" style="fill:#727176"/><path d="M33.91,45.53a.8.8,0,0,1-.79-.84h0a.79.79,0,0,1,.76-.84.76.76,0,0,1,.74.83.09.09,0,0,1-.07.08H33.28a.64.64,0,0,0,.63.63.68.68,0,0,0,.52-.22l.06,0a.07.07,0,0,1,.07.07.07.07,0,0,1,0,.06A.85.85,0,0,1,33.91,45.53Zm.54-.92a.59.59,0,0,0-.57-.63.64.64,0,0,0-.6.63Z" style="fill:#727176"/><path d="M33.91,45.65a1,1,0,0,1,0-1.93.89.89,0,0,1,.87,1,.21.21,0,0,1-.2.2H33.43a.5.5,0,0,0,.48.39.59.59,0,0,0,.44-.19.17.17,0,0,1,.14-.06.2.2,0,0,1,.2.2.17.17,0,0,1-.07.14A.91.91,0,0,1,33.91,45.65Zm.61-.4Zm-1.09-.77h.88a.43.43,0,0,0-.43-.37A.48.48,0,0,0,33.43,44.48Z" style="fill:#727176"/><path d="M35.07,43.94a.07.07,0,0,1,.08-.07.08.08,0,0,1,.08.07v.24a.64.64,0,0,1,.58-.34.61.61,0,0,1,.64.66v.92a.07.07,0,0,1-.07.08.07.07,0,0,1-.08-.08v-.89a.49.49,0,0,0-.51-.55.55.55,0,0,0-.56.58v.86a.07.07,0,0,1-.08.08.08.08,0,0,1-.08-.08Z" style="fill:#727176"/><path d="M36.38,45.63a.21.21,0,0,1-.21-.21v-.89c0-.27-.14-.42-.38-.42a.43.43,0,0,0-.44.45v.86a.2.2,0,0,1-.2.21.2.2,0,0,1-.2-.21V43.94a.2.2,0,0,1,.2-.2.21.21,0,0,1,.19.12.82.82,0,0,1,.47-.14.73.73,0,0,1,.77.78v.92A.2.2,0,0,1,36.38,45.63Z" style="fill:#727176"/><path d="M37.1,45.08V44h-.18a.07.07,0,0,1,0-.14h.18v-.45a.08.08,0,0,1,.07-.08.08.08,0,0,1,.08.08v.45h.51a.07.07,0,1,1,0,.14h-.51v1a.28.28,0,0,0,.32.31.9.9,0,0,0,.19,0,.07.07,0,0,1,.06.07s0,.05,0,.07a.67.67,0,0,1-.22,0A.41.41,0,0,1,37.1,45.08Z" style="fill:#727176"/><path d="M37.55,45.64a.54.54,0,0,1-.58-.56v-.93h0a.2.2,0,0,1,0-.4h0v-.32a.2.2,0,0,1,.2-.2.21.21,0,0,1,.21.2v.32h.38a.2.2,0,0,1,0,.4h-.38v.91c0,.12,0,.19.19.19a.33.33,0,0,0,.12,0h.07a.2.2,0,0,1,.19.19.19.19,0,0,1-.13.18A.68.68,0,0,1,37.55,45.64Z" style="fill:#727176"/><path d="M39.26,43.35a.08.08,0,0,1,.08-.08h0s.06,0,.09,0l.86,1.27.86-1.27a.1.1,0,0,1,.08,0h0a.09.09,0,0,1,.08.08v2.07a.08.08,0,0,1-.16,0V43.57l-.81,1.18a.09.09,0,0,1-.07,0,.08.08,0,0,1-.07,0l-.82-1.18v1.85a.07.07,0,0,1-.07.08.07.07,0,0,1-.08-.08Z" style="fill:#727176"/><path d="M41.26,45.63a.22.22,0,0,1-.21-.21V44l-.58.85a.21.21,0,0,1-.17.1.22.22,0,0,1-.18-.1L39.54,44v1.45a.2.2,0,0,1-.2.21.21.21,0,0,1-.21-.21V43.35a.22.22,0,0,1,.21-.21.25.25,0,0,1,.2.1l.76,1.12.76-1.11a.21.21,0,0,1,.18-.11.22.22,0,0,1,.23.21v2.07A.22.22,0,0,1,41.26,45.63Z" style="fill:#727176"/><path d="M41.83,45h0c0-.34.29-.53.71-.53a1.94,1.94,0,0,1,.53.07v-.07a.46.46,0,0,0-.53-.49,1,1,0,0,0-.46.11h0A.09.09,0,0,1,42,44,.08.08,0,0,1,42,44a1.25,1.25,0,0,1,.53-.12.69.69,0,0,1,.51.18.61.61,0,0,1,.16.45v.94a.07.07,0,0,1-.07.08.07.07,0,0,1-.08-.08v-.2a.72.72,0,0,1-.62.31A.56.56,0,0,1,41.83,45Zm1.24-.13V44.7a2.29,2.29,0,0,0-.54-.07c-.34,0-.53.15-.53.38h0c0,.24.22.37.46.37A.55.55,0,0,0,43.07,44.89Z" style="fill:#727176"/><path d="M42.45,45.65a.68.68,0,0,1-.74-.63h0c0-.4.32-.65.83-.65a2.25,2.25,0,0,1,.4,0c0-.19-.16-.28-.4-.28a.88.88,0,0,0-.41.1l-.08,0a.2.2,0,0,1-.2-.2.19.19,0,0,1,.12-.18,1.39,1.39,0,0,1,.58-.13.83.83,0,0,1,.6.21.75.75,0,0,1,.2.54v.94a.2.2,0,0,1-.2.21A.2.2,0,0,1,43,45.5.84.84,0,0,1,42.45,45.65Zm.08-.89c-.13,0-.41,0-.41.25s.17.25.34.25.49-.13.49-.37V44.8A2.39,2.39,0,0,0,42.53,44.76Zm-.46-.67Z" style="fill:#727176"/><path d="M43.78,43.33a.09.09,0,0,1,.1-.1.09.09,0,0,1,.09.1v.05a.09.09,0,0,1-.09.09.09.09,0,0,1-.1-.09Zm0,.61a.07.07,0,0,1,.08-.07.08.08,0,0,1,.08.07v1.48a.08.08,0,0,1-.08.08.07.07,0,0,1-.08-.08Z" style="fill:#727176"/><path d="M43.88,45.63a.2.2,0,0,1-.2-.21V43.94a.19.19,0,0,1,.2-.2.2.2,0,0,1,.2.2v1.48A.2.2,0,0,1,43.88,45.63Zm0-2a.22.22,0,0,1-.22-.22v-.05a.21.21,0,0,1,.22-.22.22.22,0,0,1,.22.22v.05A.22.22,0,0,1,43.88,43.6Zm0-.25h0Z" style="fill:#727176"/><path d="M44.56,43.94a.08.08,0,0,1,.16,0v.24a.64.64,0,0,1,.58-.34.62.62,0,0,1,.65.66v.92a.08.08,0,0,1-.16,0v-.89a.49.49,0,0,0-.51-.55.55.55,0,0,0-.56.58v.86a.07.07,0,0,1-.08.08.08.08,0,0,1-.08-.08Z" style="fill:#727176"/><path d="M45.87,45.63a.2.2,0,0,1-.2-.21v-.89a.37.37,0,0,0-.39-.42.43.43,0,0,0-.44.45v.86a.2.2,0,0,1-.2.21.2.2,0,0,1-.2-.21V43.94a.2.2,0,0,1,.39-.08.82.82,0,0,1,.47-.14.73.73,0,0,1,.77.78v.92A.2.2,0,0,1,45.87,45.63Z" style="fill:#727176"/><path d="M46.59,45.08V44h-.18a.07.07,0,1,1,0-.14h.18v-.45a.08.08,0,0,1,.07-.08.08.08,0,0,1,.08.08v.45h.51a.07.07,0,0,1,0,.14h-.51v1a.28.28,0,0,0,.32.31.9.9,0,0,0,.19,0,.08.08,0,0,1,.07.07s0,.05,0,.07a.79.79,0,0,1-.23,0A.41.41,0,0,1,46.59,45.08Z" style="fill:#727176"/><path d="M47,45.64a.54.54,0,0,1-.58-.56v-.93h-.05a.2.2,0,0,1,0-.4h.05v-.32a.2.2,0,0,1,.2-.2.21.21,0,0,1,.21.2v.32h.38a.2.2,0,0,1,0,.4h-.38v.91c0,.12,0,.19.19.19l.12,0h.07a.2.2,0,0,1,.19.19.19.19,0,0,1-.13.18A.68.68,0,0,1,47,45.64Z" style="fill:#727176"/><path d="M48.4,45.53a.8.8,0,0,1-.79-.84h0a.79.79,0,0,1,.76-.84.76.76,0,0,1,.74.83.09.09,0,0,1-.07.08H47.77a.64.64,0,0,0,.63.63.72.72,0,0,0,.53-.22.06.06,0,0,1,0,0,.07.07,0,0,1,.07.07.07.07,0,0,1,0,.06A.85.85,0,0,1,48.4,45.53Zm.54-.92a.59.59,0,0,0-.57-.63.64.64,0,0,0-.6.63Z" style="fill:#727176"/><path d="M48.4,45.65a1,1,0,0,1,0-1.93.89.89,0,0,1,.87,1,.21.21,0,0,1-.2.2H47.92a.5.5,0,0,0,.48.39.59.59,0,0,0,.44-.19A.19.19,0,0,1,49,45a.2.2,0,0,1,.2.2.17.17,0,0,1-.07.14A.91.91,0,0,1,48.4,45.65Zm-.48-1.17h.88a.43.43,0,0,0-.43-.37A.48.48,0,0,0,47.92,44.48Z" style="fill:#727176"/><path d="M49.56,43.94a.07.07,0,0,1,.08-.07.08.08,0,0,1,.08.07v.24a.64.64,0,0,1,.58-.34.61.61,0,0,1,.64.66v.92a.07.07,0,0,1-.07.08.07.07,0,0,1-.08-.08v-.89a.49.49,0,0,0-.51-.55.55.55,0,0,0-.56.58v.86a.07.07,0,0,1-.08.08.08.08,0,0,1-.08-.08Z" style="fill:#727176"/><path d="M50.87,45.63a.21.21,0,0,1-.21-.21v-.89c0-.27-.14-.42-.38-.42a.43.43,0,0,0-.44.45v.86a.2.2,0,0,1-.2.21.2.2,0,0,1-.2-.21V43.94a.2.2,0,0,1,.2-.2.21.21,0,0,1,.19.12.82.82,0,0,1,.47-.14.73.73,0,0,1,.77.78v.92A.2.2,0,0,1,50.87,45.63Z" style="fill:#727176"/><path d="M51.37,45h0c0-.34.29-.53.7-.53a2,2,0,0,1,.54.07v-.07a.46.46,0,0,0-.53-.49,1,1,0,0,0-.46.11h0a.08.08,0,0,1-.07-.08.09.09,0,0,1,0-.07,1.33,1.33,0,0,1,.53-.12.67.67,0,0,1,.51.18.61.61,0,0,1,.17.45v.94a.07.07,0,0,1-.08.08.07.07,0,0,1-.07-.08v-.2a.72.72,0,0,1-.62.31A.56.56,0,0,1,51.37,45Zm1.24-.13V44.7a2.47,2.47,0,0,0-.55-.07c-.34,0-.53.15-.53.38h0c0,.24.22.37.47.37A.55.55,0,0,0,52.61,44.89Z" style="fill:#727176"/><path d="M52,45.65a.69.69,0,0,1-.75-.63h0c0-.4.33-.65.83-.65a2.25,2.25,0,0,1,.4,0c0-.19-.16-.28-.39-.28a.88.88,0,0,0-.41.1l-.09,0a.2.2,0,0,1-.07-.38,1.35,1.35,0,0,1,.57-.13.83.83,0,0,1,.6.21.77.77,0,0,1,.2.54v.94a.2.2,0,0,1-.2.21.18.18,0,0,1-.18-.13A.84.84,0,0,1,52,45.65Zm.07-.89c-.12,0-.4,0-.4.25s.17.25.34.25.48-.13.48-.37V44.8A2.3,2.3,0,0,0,52.06,44.76Zm-.45-.67h0Z" style="fill:#727176"/><path d="M53.31,43.94a.08.08,0,0,1,.16,0v.24a.64.64,0,0,1,.58-.34.61.61,0,0,1,.64.66v.92a.07.07,0,0,1-.07.08.07.07,0,0,1-.08-.08v-.89A.49.49,0,0,0,54,44a.55.55,0,0,0-.56.58v.86a.07.07,0,0,1-.08.08.08.08,0,0,1-.08-.08Z" style="fill:#727176"/><path d="M54.62,45.63a.21.21,0,0,1-.21-.21v-.89a.37.37,0,0,0-.38-.42.43.43,0,0,0-.44.45v.86a.2.2,0,0,1-.2.21.2.2,0,0,1-.2-.21V43.94a.2.2,0,0,1,.39-.08.82.82,0,0,1,.47-.14.73.73,0,0,1,.77.78v.92A.2.2,0,0,1,54.62,45.63Z" style="fill:#727176"/><path d="M55.14,44.69h0a.83.83,0,0,1,.82-.84.85.85,0,0,1,.61.26.08.08,0,0,1,0,0,.07.07,0,0,1-.08.08s0,0,0,0A.71.71,0,0,0,56,44a.66.66,0,0,0-.65.69h0a.68.68,0,0,0,.66.7.72.72,0,0,0,.51-.23.06.06,0,0,1,.05,0,.08.08,0,0,1,.07.07s0,0,0,0a.83.83,0,0,1-.62.28A.83.83,0,0,1,55.14,44.69Z" style="fill:#727176"/><path d="M56,45.65a1,1,0,0,1-1-1h0a1,1,0,0,1,1-1,1,1,0,0,1,.69.28.22.22,0,0,1,.06.15.2.2,0,0,1-.2.21.18.18,0,0,1-.14-.06.57.57,0,0,0-.41-.19.54.54,0,0,0-.53.57.55.55,0,0,0,.54.58.59.59,0,0,0,.42-.2.2.2,0,0,1,.34.14.2.2,0,0,1-.06.14A1,1,0,0,1,56,45.65Zm.53-.49Zm0-1Z" style="fill:#727176"/><path d="M57.69,45.53a.8.8,0,0,1-.79-.84h0a.79.79,0,0,1,.76-.84.76.76,0,0,1,.74.83.09.09,0,0,1-.08.08H57.06a.64.64,0,0,0,.63.63.7.7,0,0,0,.52-.22l0,0a.07.07,0,0,1,.08.07.14.14,0,0,1,0,.06A.85.85,0,0,1,57.69,45.53Zm.54-.92a.6.6,0,0,0-.58-.63.63.63,0,0,0-.59.63Z" style="fill:#727176"/><path d="M57.69,45.65a1,1,0,0,1,0-1.93.89.89,0,0,1,.87,1,.21.21,0,0,1-.21.2H57.21a.5.5,0,0,0,.48.39.61.61,0,0,0,.44-.19.18.18,0,0,1,.13-.06.2.2,0,0,1,.21.2.21.21,0,0,1-.07.14A.91.91,0,0,1,57.69,45.65Zm-.48-1.17h.88a.44.44,0,0,0-.44-.37A.47.47,0,0,0,57.21,44.48Z" style="fill:#727176"/></g></g></g></g></svg>