<?xml version="1.0" encoding="utf-8"?>
<!-- Generator: Adobe Illustrator 25.2.3, SVG Export Plug-In . SVG Version: 6.00 Build 0)  -->
<svg version="1.1" id="Capa_1" xmlns="http://www.w3.org/2000/svg" xmlns:xlink="http://www.w3.org/1999/xlink" x="0px" y="0px"
	 viewBox="0 0 199.3 38.8" style="enable-background:new 0 0 199.3 38.8;" xml:space="preserve">
<style type="text/css">
	.st0{fill:#F7C90D;}
	.st1{enable-background:new    ;}
	.st2{fill:#727176;}
</style>
<g id="Capa_2_1_">
	<g id="MAQUINARIA">
		<g id="titulo">
			
				<image style="overflow:visible;opacity:0.62;enable-background:new    ;" width="1058" height="206" xlink:href="C1AA867.png"  transform="matrix(0.19 0 0 0.19 0 0)">
			</image>
			<path class="st0" d="M177.9,31.6H41.2V2.4h136.7c7.8,0,14.1,6.3,14.1,14.1v1C192,25.3,185.7,31.6,177.9,31.6z"/>
			<path class="st0" d="M16.5,31.6c-7.8,0-14.1-6.3-14.1-14.1l0,0v-1c0-7.8,6.3-14.1,14.1-14.1h16.7v29.2H16.5z"/>
			<g class="st1">
				<path class="st2" d="M53.3,24.5c-0.3,0-0.6-0.1-0.8-0.3c-0.2-0.2-0.3-0.5-0.3-0.8V7.6c0-0.4,0.1-0.6,0.3-0.8
					c0.2-0.2,0.5-0.3,0.8-0.3c0.3,0,0.5,0.1,0.7,0.2c0.2,0.1,0.3,0.3,0.5,0.6l6.7,12.7h-0.8l6.7-12.7c0.2-0.3,0.3-0.5,0.5-0.6
					c0.2-0.1,0.4-0.2,0.7-0.2c0.3,0,0.6,0.1,0.8,0.3c0.2,0.2,0.3,0.5,0.3,0.8v15.9c0,0.3-0.1,0.6-0.3,0.8s-0.4,0.3-0.8,0.3
					s-0.6-0.1-0.8-0.3s-0.3-0.5-0.3-0.8V9.9H68l-6,11.3c-0.1,0.2-0.3,0.4-0.4,0.5s-0.3,0.2-0.6,0.2c-0.2,0-0.4-0.1-0.6-0.2
					c-0.2-0.1-0.3-0.3-0.4-0.5L53.8,9.8h0.6v13.6c0,0.3-0.1,0.6-0.3,0.8S53.7,24.5,53.3,24.5z"/>
				<path class="st2" d="M77.4,24.6c-0.8,0-1.6-0.2-2.3-0.5c-0.7-0.3-1.2-0.8-1.6-1.4c-0.4-0.6-0.6-1.2-0.6-1.9
					c0-0.9,0.2-1.6,0.7-2.1s1.2-0.9,2.3-1.1c1.1-0.2,2.5-0.3,4.3-0.3h1.2v1.5h-1.1c-1.3,0-2.3,0.1-3.1,0.2c-0.7,0.1-1.3,0.3-1.6,0.6
					c-0.3,0.3-0.5,0.7-0.5,1.2c0,0.7,0.2,1.2,0.7,1.6c0.5,0.4,1.1,0.6,1.9,0.6c0.6,0,1.2-0.2,1.7-0.5c0.5-0.3,0.9-0.7,1.2-1.3
					c0.3-0.5,0.4-1.1,0.4-1.8v-2.9c0-1-0.2-1.7-0.6-2.2s-1.1-0.7-2-0.7c-0.6,0-1.1,0.1-1.7,0.2c-0.6,0.2-1.2,0.4-1.8,0.7
					c-0.3,0.1-0.5,0.2-0.7,0.1c-0.2,0-0.3-0.1-0.4-0.3c-0.1-0.2-0.2-0.3-0.2-0.5c0-0.2,0-0.4,0.1-0.6s0.3-0.3,0.5-0.4
					c0.7-0.4,1.5-0.6,2.2-0.8c0.7-0.2,1.4-0.2,2.1-0.2c1.1,0,2,0.2,2.7,0.5c0.7,0.3,1.2,0.9,1.6,1.6c0.4,0.7,0.5,1.6,0.5,2.7v6.6
					c0,0.4-0.1,0.7-0.3,0.9c-0.2,0.2-0.5,0.3-0.8,0.3c-0.3,0-0.6-0.1-0.8-0.3c-0.2-0.2-0.3-0.5-0.3-0.9v-1.8h0.2
					c-0.1,0.6-0.4,1.2-0.8,1.6s-0.8,0.8-1.4,1S78.1,24.6,77.4,24.6z"/>
				<path class="st2" d="M96.9,29.1c-0.4,0-0.7-0.1-0.8-0.3c-0.2-0.2-0.3-0.5-0.3-0.9v-6.3H96c-0.3,0.9-0.8,1.6-1.6,2.2
					c-0.8,0.6-1.7,0.8-2.8,0.8c-1.1,0-2-0.3-2.9-0.8c-0.8-0.5-1.4-1.2-1.9-2.2c-0.4-1-0.7-2.1-0.7-3.4c0-1.3,0.2-2.4,0.7-3.4
					c0.5-0.9,1.1-1.7,1.9-2.2c0.8-0.5,1.8-0.8,2.8-0.8c1.1,0,2,0.3,2.8,0.8c0.8,0.6,1.3,1.3,1.6,2.2l-0.3,0.5v-2.3
					c0-0.4,0.1-0.7,0.3-0.9c0.2-0.2,0.5-0.3,0.8-0.3c0.4,0,0.7,0.1,0.9,0.3c0.2,0.2,0.3,0.5,0.3,0.9v14.8c0,0.4-0.1,0.7-0.3,0.9
					C97.6,29,97.3,29.1,96.9,29.1z M92.2,22.8c0.7,0,1.4-0.2,1.9-0.5c0.5-0.4,1-0.9,1.3-1.5c0.3-0.7,0.4-1.5,0.4-2.5
					c0-1.5-0.3-2.6-1-3.4c-0.7-0.8-1.5-1.2-2.6-1.2c-0.7,0-1.4,0.2-1.9,0.5s-1,0.9-1.3,1.5c-0.3,0.7-0.5,1.5-0.5,2.5
					c0,1.5,0.3,2.6,1,3.4C90.2,22.4,91.1,22.8,92.2,22.8z"/>
				<path class="st2" d="M106.1,24.6c-1,0-1.8-0.2-2.5-0.6s-1.2-0.9-1.5-1.6c-0.3-0.7-0.5-1.6-0.5-2.7v-6.6c0-0.4,0.1-0.7,0.3-0.9
					c0.2-0.2,0.5-0.3,0.8-0.3s0.7,0.1,0.9,0.3c0.2,0.2,0.3,0.5,0.3,0.9v6.6c0,1,0.2,1.8,0.6,2.3c0.4,0.5,1.1,0.7,2,0.7
					c1,0,1.8-0.3,2.5-1c0.6-0.7,0.9-1.6,0.9-2.7v-6c0-0.4,0.1-0.7,0.3-0.9c0.2-0.2,0.5-0.3,0.8-0.3c0.4,0,0.7,0.1,0.9,0.3
					c0.2,0.2,0.3,0.5,0.3,0.9v10.3c0,0.8-0.4,1.2-1.1,1.2c-0.4,0-0.7-0.1-0.8-0.3c-0.2-0.2-0.3-0.5-0.3-0.9v-2.2l0.3,0.4
					c-0.3,1-0.9,1.7-1.6,2.2S107.1,24.6,106.1,24.6z"/>
				<path class="st2" d="M117.1,9.3c-0.5,0-0.8-0.1-1.1-0.4c-0.3-0.2-0.4-0.6-0.4-1c0-0.4,0.1-0.8,0.4-1c0.3-0.2,0.6-0.3,1.1-0.3
					c0.5,0,0.9,0.1,1.1,0.3c0.2,0.2,0.4,0.6,0.4,1c0,0.4-0.1,0.7-0.4,1C117.9,9.1,117.6,9.3,117.1,9.3z M117.1,24.5
					c-0.4,0-0.6-0.1-0.8-0.3c-0.2-0.2-0.3-0.5-0.3-0.9v-10c0-0.4,0.1-0.7,0.3-0.9c0.2-0.2,0.5-0.3,0.8-0.3c0.4,0,0.7,0.1,0.9,0.3
					s0.3,0.5,0.3,0.9v10c0,0.4-0.1,0.7-0.3,0.9C117.8,24.4,117.5,24.5,117.1,24.5z"/>
				<path class="st2" d="M123.1,24.5c-0.4,0-0.6-0.1-0.8-0.3s-0.3-0.5-0.3-0.9V13.1c0-0.4,0.1-0.7,0.3-0.9c0.2-0.2,0.5-0.3,0.8-0.3
					s0.6,0.1,0.8,0.3c0.2,0.2,0.3,0.5,0.3,0.9v2.1l-0.3-0.4c0.4-1,0.9-1.7,1.7-2.2c0.8-0.5,1.7-0.7,2.7-0.7c1,0,1.8,0.2,2.4,0.5
					c0.6,0.4,1.1,0.9,1.4,1.6c0.3,0.7,0.5,1.6,0.5,2.7v6.6c0,0.4-0.1,0.7-0.3,0.9c-0.2,0.2-0.5,0.3-0.8,0.3s-0.7-0.1-0.9-0.3
					s-0.3-0.5-0.3-0.9v-6.5c0-1.1-0.2-1.9-0.6-2.4c-0.4-0.5-1.1-0.8-2-0.8c-1.1,0-1.9,0.3-2.6,1s-1,1.6-1,2.7v5.9
					C124.2,24.2,123.8,24.5,123.1,24.5z"/>
				<path class="st2" d="M140.2,24.6c-0.8,0-1.6-0.2-2.3-0.5c-0.7-0.3-1.2-0.8-1.6-1.4c-0.4-0.6-0.6-1.2-0.6-1.9
					c0-0.9,0.2-1.6,0.7-2.1s1.2-0.9,2.3-1.1c1.1-0.2,2.5-0.3,4.3-0.3h1.2v1.5h-1.1c-1.3,0-2.3,0.1-3.1,0.2c-0.7,0.1-1.3,0.3-1.6,0.6
					c-0.3,0.3-0.5,0.7-0.5,1.2c0,0.7,0.2,1.2,0.7,1.6c0.5,0.4,1.1,0.6,1.9,0.6c0.6,0,1.2-0.2,1.7-0.5c0.5-0.3,0.9-0.7,1.2-1.3
					c0.3-0.5,0.4-1.1,0.4-1.8v-2.9c0-1-0.2-1.7-0.6-2.2c-0.4-0.4-1.1-0.7-2-0.7c-0.6,0-1.1,0.1-1.7,0.2c-0.6,0.2-1.2,0.4-1.8,0.7
					c-0.3,0.1-0.5,0.2-0.7,0.1c-0.2,0-0.3-0.1-0.4-0.3c-0.1-0.2-0.2-0.3-0.2-0.5c0-0.2,0-0.4,0.1-0.6c0.1-0.2,0.3-0.3,0.5-0.4
					c0.7-0.4,1.5-0.6,2.2-0.8c0.7-0.2,1.4-0.2,2.1-0.2c1.1,0,2,0.2,2.7,0.5c0.7,0.3,1.2,0.9,1.6,1.6c0.4,0.7,0.5,1.6,0.5,2.7v6.6
					c0,0.4-0.1,0.7-0.3,0.9s-0.5,0.3-0.8,0.3c-0.3,0-0.6-0.1-0.8-0.3s-0.3-0.5-0.3-0.9v-1.8h0.2c-0.1,0.6-0.4,1.2-0.8,1.6
					s-0.8,0.8-1.4,1C141.5,24.5,140.9,24.6,140.2,24.6z"/>
				<path class="st2" d="M150.9,24.5c-0.4,0-0.7-0.1-0.9-0.3c-0.2-0.2-0.3-0.5-0.3-0.9V13.1c0-0.4,0.1-0.7,0.3-0.9
					c0.2-0.2,0.5-0.3,0.8-0.3s0.6,0.1,0.8,0.3c0.2,0.2,0.3,0.5,0.3,0.9V15h-0.3c0.3-1,0.8-1.8,1.5-2.3c0.7-0.5,1.7-0.8,2.8-0.9
					c0.3,0,0.5,0,0.7,0.2s0.3,0.4,0.3,0.7c0,0.3-0.1,0.6-0.2,0.8s-0.4,0.3-0.8,0.3l-0.5,0c-1.1,0.1-2,0.5-2.6,1.1s-0.9,1.4-0.9,2.5
					v5.9c0,0.4-0.1,0.7-0.3,0.9C151.6,24.4,151.3,24.5,150.9,24.5z"/>
				<path class="st2" d="M160.1,9.3c-0.5,0-0.8-0.1-1.1-0.4c-0.3-0.2-0.4-0.6-0.4-1c0-0.4,0.1-0.8,0.4-1c0.3-0.2,0.6-0.3,1.1-0.3
					c0.5,0,0.9,0.1,1.1,0.3s0.4,0.6,0.4,1c0,0.4-0.1,0.7-0.4,1C160.9,9.1,160.6,9.3,160.1,9.3z M160.1,24.5c-0.4,0-0.6-0.1-0.8-0.3
					s-0.3-0.5-0.3-0.9v-10c0-0.4,0.1-0.7,0.3-0.9s0.5-0.3,0.8-0.3c0.4,0,0.7,0.1,0.9,0.3c0.2,0.2,0.3,0.5,0.3,0.9v10
					c0,0.4-0.1,0.7-0.3,0.9S160.5,24.5,160.1,24.5z"/>
				<path class="st2" d="M168.8,24.6c-0.8,0-1.6-0.2-2.3-0.5c-0.7-0.3-1.2-0.8-1.6-1.4c-0.4-0.6-0.6-1.2-0.6-1.9
					c0-0.9,0.2-1.6,0.7-2.1s1.2-0.9,2.3-1.1c1.1-0.2,2.5-0.3,4.3-0.3h1.2v1.5h-1.1c-1.3,0-2.3,0.1-3.1,0.2c-0.7,0.1-1.3,0.3-1.6,0.6
					c-0.3,0.3-0.5,0.7-0.5,1.2c0,0.7,0.2,1.2,0.7,1.6c0.5,0.4,1.1,0.6,1.9,0.6c0.6,0,1.2-0.2,1.7-0.5c0.5-0.3,0.9-0.7,1.2-1.3
					c0.3-0.5,0.4-1.1,0.4-1.8v-2.9c0-1-0.2-1.7-0.6-2.2c-0.4-0.4-1.1-0.7-2-0.7c-0.6,0-1.1,0.1-1.7,0.2c-0.6,0.2-1.2,0.4-1.8,0.7
					c-0.3,0.1-0.5,0.2-0.7,0.1c-0.2,0-0.3-0.1-0.4-0.3c-0.1-0.2-0.2-0.3-0.2-0.5c0-0.2,0-0.4,0.1-0.6c0.1-0.2,0.3-0.3,0.5-0.4
					c0.7-0.4,1.5-0.6,2.2-0.8c0.7-0.2,1.4-0.2,2.1-0.2c1.1,0,2,0.2,2.7,0.5c0.7,0.3,1.2,0.9,1.6,1.6c0.4,0.7,0.5,1.6,0.5,2.7v6.6
					c0,0.4-0.1,0.7-0.3,0.9s-0.5,0.3-0.8,0.3c-0.3,0-0.6-0.1-0.8-0.3s-0.3-0.5-0.3-0.9v-1.8h0.2c-0.1,0.6-0.4,1.2-0.8,1.6
					s-0.8,0.8-1.4,1C170.1,24.5,169.5,24.6,168.8,24.6z"/>
			</g>
			<g id="Capa_2-2">
				<g id="Capa_4">
					<path class="st2" d="M10.7,24.9c-4.3-3.8-4.8-10.3-1-14.7c2.2-2.5,5.5-3.9,8.9-3.5l-0.1,1.1C13.3,7.3,8.8,11,8.3,16.1
						C8,19.1,9.1,22,11.4,24L10.7,24.9z"/>
					<path class="st2" d="M25.4,4.6H19c-0.4,0-0.8,0.3-0.8,0.8l-0.6,11.9h-1.5v-3.4c0-0.3-0.3-0.6-0.6-0.6c0,0,0,0,0,0l0,0
						c-0.3,0-0.6,0.3-0.6,0.6c0,0,0,0,0,0l0,0v3.4h-0.7v-2.3c0-0.2-0.2-0.4-0.4-0.4l0,0c-0.2,0-0.4,0.2-0.4,0.4l0,0v2.3h-0.5
						c-0.4,0-0.6,0.3-0.7,0.6l-0.5,3.4c0.6-0.3,1.3-0.5,2-0.5c2.4,0,4.3,2,4.3,4.5c0,0.1,0,0.2,0,0.3h2.3c-0.2-0.6-0.3-1.3-0.3-2
						c-0.1-3.5,2.7-6.4,6.2-6.5V5.5C26.2,5.1,25.9,4.7,25.4,4.6z M25,15.6c0,0.4-0.3,0.7-0.7,0.8c-2.1,0.5-3.8,1.9-4.6,3.9
						c-0.1,0.2-0.3,0.4-0.5,0.4H19c-0.3,0-0.6-0.3-0.6-0.6c0,0,0,0,0,0l0.8-13.5c0-0.4,0.4-0.8,0.8-0.8h4.1c0.5,0,0.9,0.4,0.9,0.8
						c0,0,0,0,0,0l0,0L25,15.6z M14.4,25.3c0,0.4-0.3,0.6-0.7,0.6s-0.6-0.3-0.6-0.7c0-0.3,0.3-0.6,0.6-0.6
						C14.1,24.6,14.4,24.9,14.4,25.3C14.4,25.3,14.4,25.3,14.4,25.3z M17.7,24.6v1.3c0,0.1-0.1,0.2-0.2,0.2l0,0
						c-0.1,0-0.2,0.1-0.2,0.2c-0.1,0.3-0.2,0.5-0.3,0.7c-0.1,0.1-0.1,0.2,0,0.3l0,0c0.1,0.1,0.1,0.2,0,0.3l-0.9,0.9
						c-0.1,0.1-0.2,0.1-0.3,0l0,0c-0.1-0.1-0.2-0.1-0.3,0c-0.2,0.1-0.5,0.2-0.7,0.3c-0.1,0-0.2,0.1-0.2,0.2l0,0
						c0,0.1-0.1,0.2-0.2,0.2c0,0,0,0,0,0h-1.2c-0.1,0-0.2-0.1-0.2-0.2l0,0c0-0.1-0.1-0.2-0.2-0.2c-0.2-0.1-0.5-0.2-0.7-0.3
						c-0.1-0.1-0.2-0.1-0.3,0l0,0c-0.1,0.1-0.2,0.1-0.3,0c0,0,0,0,0,0l0,0l-0.9-0.9c-0.1-0.1-0.1-0.2,0-0.3l0,0
						c0.1-0.1,0.1-0.2,0-0.3c-0.1-0.2-0.2-0.5-0.3-0.7c0-0.1-0.1-0.2-0.2-0.2l0,0c-0.1,0-0.2-0.1-0.2-0.2v-1.2
						c0-0.1,0.1-0.2,0.2-0.2l0,0c0.1,0,0.2-0.1,0.2-0.2c0.1-0.3,0.2-0.5,0.3-0.8c0.1-0.1,0.1-0.2,0-0.3l0,0c-0.1-0.1-0.1-0.3,0-0.4
						l0.9-0.9c0.1-0.1,0.2-0.1,0.3,0c0,0,0,0,0,0l0,0C11.8,22,11.9,22,12,22c0.2-0.1,0.5-0.2,0.7-0.3c0.1,0,0.2-0.1,0.2-0.2l0,0
						c0-0.1,0.1-0.2,0.2-0.2h1.2c0.1,0,0.2,0.1,0.2,0.2l0,0c0,0.1,0.1,0.2,0.2,0.2c0.2,0.1,0.5,0.2,0.7,0.3c0.1,0.1,0.2,0.1,0.3,0
						l0,0c0.1-0.1,0.2-0.1,0.3,0l0,0l0.9,0.9c0.1,0.1,0.1,0.2,0,0.3l0,0c-0.1,0.1-0.1,0.2,0,0.3c0.1,0.2,0.2,0.5,0.3,0.7
						c0,0.1,0.1,0.2,0.2,0.2l0,0C17.6,24.4,17.7,24.5,17.7,24.6L17.7,24.6z M15.6,25.3c0-1-0.9-1.8-1.9-1.8c-1,0-1.8,0.9-1.8,1.9
						c0,1,0.8,1.8,1.8,1.8C14.8,27.1,15.6,26.3,15.6,25.3z M27.2,23.5c0,0.5-0.4,1-0.9,1c-0.5,0-1-0.4-1-0.9c0-0.1,0-0.1,0-0.2
						c0-0.5,0.4-0.9,1-0.9C26.8,22.6,27.2,23,27.2,23.5L27.2,23.5z M31.9,22.6v1.8c0,0.2-0.2,0.3-0.3,0.4l0,0
						c-0.2,0-0.3,0.1-0.3,0.2c-0.1,0.4-0.2,0.7-0.4,1c-0.1,0.1,0,0.3,0.1,0.4l0,0c0.1,0.1,0.1,0.3,0,0.5l-1.2,1.3
						c-0.1,0.1-0.3,0.1-0.5,0c0,0,0,0,0,0l0,0c-0.1-0.1-0.3-0.1-0.4-0.1c-0.3,0.2-0.7,0.3-1,0.4c-0.1,0-0.2,0.2-0.2,0.3l0,0
						c0,0.2-0.1,0.3-0.3,0.4c0,0,0,0,0,0h-1.8c-0.2,0-0.3-0.2-0.3-0.3c0,0,0,0,0,0l0,0c0-0.2-0.1-0.3-0.2-0.3
						c-0.3-0.1-0.7-0.3-1-0.4c-0.1-0.1-0.3-0.1-0.4,0.1c-0.1,0.1-0.3,0.1-0.5,0l0,0L21.7,27c-0.1-0.1-0.1-0.4,0-0.5l0,0
						c0.1-0.1,0.1-0.3,0-0.4c-0.2-0.3-0.3-0.7-0.4-1c0-0.1-0.2-0.3-0.3-0.3l0,0c-0.2,0-0.3-0.1-0.3-0.3c0,0,0,0,0,0l0,0v-1.8
						c0-0.2,0.1-0.3,0.3-0.3c0,0,0,0,0,0l0,0c0.2,0,0.3-0.1,0.3-0.2c0.1-0.4,0.3-0.7,0.4-1c0.1-0.1,0.1-0.3,0-0.4
						c-0.1-0.1-0.1-0.4,0-0.5l1.2-1.3c0.1-0.1,0.3-0.1,0.4,0c0,0,0,0,0,0l0,0c0.1,0.1,0.3,0.1,0.4,0c0.3-0.2,0.7-0.3,1-0.4
						c0.1,0,0.3-0.2,0.2-0.3l0,0c0-0.2,0.1-0.3,0.3-0.3c0,0,0,0,0,0h1.8c0.2,0,0.3,0.2,0.3,0.4l0,0c0,0.2,0.1,0.3,0.2,0.3
						c0.3,0.1,0.7,0.3,1,0.4c0.1,0.1,0.3,0,0.4-0.1c0.1-0.1,0.3-0.1,0.5,0l0,0l1.2,1.3c0.1,0.1,0.1,0.4,0,0.5l0,0
						c-0.1,0.1-0.1,0.3,0,0.4c0.2,0.3,0.3,0.6,0.5,1c0,0.1,0.2,0.2,0.3,0.2l0,0C31.7,22.3,31.9,22.4,31.9,22.6L31.9,22.6z
						 M28.9,23.5c0-1.5-1.2-2.7-2.6-2.7c0,0,0,0,0,0c-1.5,0-2.7,1.1-2.8,2.6c0,1.5,1.1,2.7,2.6,2.8S28.9,25.1,28.9,23.5
						C28.9,23.6,28.9,23.6,28.9,23.5L28.9,23.5z"/>
				</g>
			</g>
		</g>
	</g>
</g>
</svg>
