<svg xmlns="http://www.w3.org/2000/svg" viewBox="0 0 588 21.37"><g id="Capa_2" data-name="Capa 2"><g id="MAQUINARIA"><g id="dirrección"><rect width="588" height="21.22" style="fill:#727176"/><text transform="translate(2.12 7.82)" style="font-size:8px;fill:#fff;font-family:Montserrat-Medium, Montserrat;font-weight:500">José Ma<tspan x="32.66" y="0" style="letter-spacing:-0.0069580078125em">r</tspan><tspan x="35.89" y="0">ía He</tspan><tspan x="56.45" y="0" style="letter-spacing:-0.011962890625em">r</tspan><tspan x="59.63" y="0">edia #2387 </tspan><tspan x="106.03" y="0" style="letter-spacing:-0.02197265625em">C</tspan><tspan x="111.64" y="0">ol. </tspan><tspan x="122.92" y="0" style="letter-spacing:-0.0069580078125em">L</tspan><tspan x="127.61" y="0">omas</tspan><tspan x="0" y="10">de Gu</tspan><tspan x="24.1" y="10" style="letter-spacing:-0.010009765625em">e</tspan><tspan x="28.91" y="10" style="letter-spacing:-0.0169677734375em">v</tspan><tspan x="33.25" y="10">a</tspan><tspan x="38.03" y="10" style="letter-spacing:-0.00799560546875em">r</tspan><tspan x="41.25" y="10" style="letter-spacing:0.00006103515625em">a </tspan><tspan x="48.18" y="10" style="letter-spacing:0.01300048828125em">C</tspan><tspan x="54.07" y="10">.</tspan><tspan x="55.89" y="10" style="letter-spacing:-0.02801513671875em">P</tspan><tspan x="61.44" y="10">. 446</tspan><tspan x="81.05" y="10" style="letter-spacing:-0.01300048828125em">5</tspan><tspan x="85.53" y="10" style="letter-spacing:0.00006103515625em">7 Gu</tspan><tspan x="104.06" y="10" style="letter-spacing:0.0030517578125em">a</tspan><tspan x="108.87" y="10" style="letter-spacing:-0.00006103515625em">dalaja</tspan><tspan x="133.18" y="10" style="letter-spacing:-0.00799560546875em">r</tspan><tspan x="136.4" y="10" style="letter-spacing:0.00006103515625em">a, Jalis</tspan><tspan x="162.51" y="10" style="letter-spacing:-0.00799560546875em">c</tspan><tspan x="167.01" y="10" style="letter-spacing:-0.011962890625em">o</tspan><tspan x="172" y="10">.</tspan></text><text transform="translate(460.41 18.89)" style="font-size:8px;fill:#fff;font-family:Montserrat-Medium, Montserrat;font-weight:500"><tspan style="letter-spacing:-0.0050048828125em">3</tspan><tspan x="4.54" y="0" style="letter-spacing:-0.00006103515625em">3</tspan><tspan x="9.11" y="0" style="letter-spacing:-0.012939453125em">-</tspan><tspan x="12.07" y="0">2183</tspan><tspan x="29.35" y="0" style="letter-spacing:0.00701904296875em">-</tspan><tspan x="32.47" y="0">6</tspan><tspan x="37.41" y="0" style="letter-spacing:-0.0469970703125em">4</tspan><tspan x="42.38" y="0">72</tspan></text><text transform="translate(510.94 8.16)" style="font-size:8px;fill:#fff;font-family:Montserrat-Medium, Montserrat;font-weight:500">Sígue<tspan x="23.03" y="0" style="letter-spacing:0.00299072265625em">n</tspan><tspan x="28.5" y="0">os</tspan></text><path d="M455.46,11.7a3.58,3.58,0,0,0-3.59,3.58,3.65,3.65,0,0,0,.51,1.86l-.64,1.92,2-.63a3.65,3.65,0,0,0,1.74.44,3.59,3.59,0,1,0,0-7.17Zm0,6.57a3,3,0,0,1-1.65-.49l-1.14.37L453,17a3,3,0,1,1,2.42,1.23Zm1.68-2.17c-.09-.05-.53-.29-.61-.32s-.15,0-.21,0a3.6,3.6,0,0,1-.31.34c-.05.06-.11.07-.2,0a2.66,2.66,0,0,1-.71-.48,2.46,2.46,0,0,1-.49-.66c-.05-.09,0-.14.05-.18l.14-.16a.78.78,0,0,0,.1-.15.18.18,0,0,0,0-.16s-.19-.5-.26-.69-.15-.16-.2-.16h-.18a.39.39,0,0,0-.25.1,1.06,1.06,0,0,0-.34.76,1.82,1.82,0,0,0,.33,1,3.84,3.84,0,0,0,1.52,1.44c.91.4.92.28,1.09.27a.91.91,0,0,0,.63-.41.75.75,0,0,0,.07-.44S457.23,16.15,457.14,16.1Z" style="fill:#fff;fill-rule:evenodd"/><text transform="translate(519.41 18.03)" style="font-size:8px;fill:#fff;font-family:Montserrat-Medium, Montserrat;font-weight:500"><tspan style="letter-spacing:-0.00799560546875em">ww</tspan><tspan x="14.26" y="0" style="letter-spacing:-0.032958984375em">w</tspan><tspan x="21.18" y="0" style="letter-spacing:-0.01202392578125em">.</tspan><tspan x="22.9" y="0">q</tspan><tspan x="28.36" y="0" style="letter-spacing:-0.010009765625em">2</tspan><tspan x="32.87" y="0" style="letter-spacing:-0.00799560546875em">c</tspan><tspan x="37.38" y="0" style="letter-spacing:0.00006103515625em">es</tspan><tspan x="46.28" y="0" style="letter-spacing:-0.01202392578125em">.</tspan><tspan x="48" y="0" style="letter-spacing:-0.00799560546875em">c</tspan><tspan x="52.5" y="0">om</tspan></text><path d="M505.1,9.52a3.52,3.52,0,0,1,0-7,4.17,4.17,0,0,1,.71.07l.38.1a.12.12,0,0,1-.08.23l-.35-.1a3.6,3.6,0,0,0-.66-.06A3.28,3.28,0,1,0,508.38,6,3.32,3.32,0,0,0,508,4.46a.13.13,0,0,1,0-.16.12.12,0,0,1,.16,0,3.51,3.51,0,0,1-3.1,5.17Z" style="fill:#fff"/><path d="M507.48,3.7a.11.11,0,0,1-.08,0l-.26-.24-.22-.16a.12.12,0,0,1,0-.16.13.13,0,0,1,.17,0l.23.17a3.47,3.47,0,0,1,.29.25.14.14,0,0,1,0,.17A.16.16,0,0,1,507.48,3.7Z" style="fill:#fff"/><path d="M505.82,4.22h-1.44a1.06,1.06,0,0,0-1.06,1.06V6.73a1.06,1.06,0,0,0,1.06,1.06h1.44a1.07,1.07,0,0,0,1.07-1.06V5.28A1.07,1.07,0,0,0,505.82,4.22Zm-.72,2.71a.93.93,0,0,1,0-1.85.93.93,0,1,1,0,1.85ZM506,5.31a.22.22,0,1,1,.22-.22A.22.22,0,0,1,506,5.31Z" style="fill:#fff"/><path d="M496.75,5.27V5a.16.16,0,0,1,.16-.18h.42V4.18h-.57a.71.71,0,0,0-.77.77v.33h-.37V6H496V7.84h.73V6h.55l0-.29,0-.45Z" style="fill:#fff;fill-rule:evenodd"/><path d="M496.48,9.52a3.52,3.52,0,1,1,0-7,3.42,3.42,0,0,1,.71.07l.37.1a.12.12,0,1,1-.07.23l-.35-.1a3.68,3.68,0,0,0-.66-.06A3.28,3.28,0,1,0,499.76,6a3.33,3.33,0,0,0-.39-1.55.12.12,0,0,1,.05-.16.12.12,0,0,1,.16,0,3.52,3.52,0,0,1-3.1,5.17Z" style="fill:#fff"/><path d="M498.86,3.7a.11.11,0,0,1-.08,0l-.27-.24-.22-.16a.11.11,0,0,1,0-.16.11.11,0,0,1,.16,0l.24.17.28.25a.11.11,0,0,1,0,.17A.11.11,0,0,1,498.86,3.7Z" style="fill:#fff"/><polygon points="214.31 0 203.18 0 203.15 0.03 214.31 10.59 203.15 21.15 203.18 21.17 214.31 21.17 225.51 10.59 214.31 0" style="fill:#8eb322"/><polygon points="196.89 0 185.75 0 185.72 0.03 196.89 10.59 185.72 21.15 185.75 21.17 196.89 21.17 208.08 10.59 196.89 0" style="fill:#8eb322"/><polygon points="232.09 0 220.96 0 220.93 0.03 232.09 10.59 220.93 21.15 220.96 21.17 232.09 21.17 243.29 10.59 232.09 0" style="fill:#8eb322"/><polygon points="249.88 0 238.74 0 238.71 0.03 249.88 10.59 238.71 21.15 238.74 21.17 249.88 21.17 261.07 10.59 249.88 0" style="fill:#8eb322"/><polygon points="267.65 0 256.52 0 256.49 0.03 267.65 10.59 256.49 21.15 256.52 21.17 267.65 21.17 278.85 10.59 267.65 0" style="fill:#8eb322"/><polygon points="285.43 0 274.3 0 274.27 0.03 285.43 10.59 274.27 21.15 274.3 21.17 285.43 21.17 296.63 10.59 285.43 0" style="fill:#8eb322"/><polygon points="319.62 0 308.49 0 308.45 0.03 319.62 10.59 308.45 21.15 308.49 21.17 319.62 21.17 330.81 10.59 319.62 0" style="fill:#8eb322"/><polygon points="302.19 0 291.06 0 291.03 0.03 302.19 10.59 291.03 21.15 291.06 21.17 302.19 21.17 313.38 10.59 302.19 0" style="fill:#8eb322"/><polygon points="337.4 0 326.26 0 326.24 0.03 337.4 10.59 326.24 21.15 326.26 21.17 337.4 21.17 348.59 10.59 337.4 0" style="fill:#8eb322"/><polygon points="355.18 0 344.04 0 344.01 0.03 355.18 10.59 344.01 21.15 344.04 21.17 355.18 21.17 366.37 10.59 355.18 0" style="fill:#8eb322"/><polygon points="389.32 0.2 378.19 0.2 378.16 0.22 389.32 10.78 378.16 21.34 378.19 21.37 389.32 21.37 400.52 10.78 389.32 0.2" style="fill:#8eb322"/><polygon points="371.9 0.2 360.76 0.2 360.74 0.22 371.9 10.78 360.74 21.34 360.76 21.37 371.9 21.37 383.09 10.78 371.9 0.2" style="fill:#8eb322"/><polygon points="407.1 0.2 395.97 0.2 395.94 0.22 407.1 10.78 395.94 21.34 395.97 21.37 407.1 21.37 418.3 10.78 407.1 0.2" style="fill:#8eb322"/><polygon points="424.88 0.2 413.75 0.2 413.72 0.22 424.88 10.78 413.72 21.34 413.75 21.37 424.88 21.37 436.08 10.78 424.88 0.2" style="fill:#8eb322"/></g></g></g></svg>