<svg xmlns="http://www.w3.org/2000/svg" viewBox="0 0 413.75 402.47"><g id="Capa_2" data-name="Capa 2"><g id="MAQUINARIA"><g id="fondo"><g style="opacity:0.12"><path d="M206.88,323.6c-65.67.28-116.68-52.67-117.24-122.37-.34-41.08,16.82-76.77,45.65-98.79C154.76,87.56,180.1,79,206.88,78.87c65.71-.33,117.06,53,117.24,122.36A139.05,139.05,0,0,1,313.86,255l65.7,57.53a195.21,195.21,0,0,0,34.19-111.31C413.43,87.1,322.83-.53,206.88,0c-47.26.22-90,14.5-124.33,39C31.69,75.19-.58,133.68,0,201.23c1,114.62,91,201.7,206.87,201.23,43.45-.17,82.34-12.28,114.7-33.26l-64.09-56.11A126.23,126.23,0,0,1,206.88,323.6Z" style="fill:#8eb322"/><path d="M242.47,205.66c-22.24,0-40,18.35-40,40.6,0,13.9,6.67,24.47,15.57,32.25l39.49,34.58a107.2,107.2,0,0,0,34.67-24.24A111.5,111.5,0,0,0,313.86,255l-43-37.67C261.93,209.55,254.15,205.66,242.47,205.66Z" style="fill:#8eb322"/><path d="M396,326.9l-16.4-14.36a205.49,205.49,0,0,1-58,56.66l21.55,18.87a40.25,40.25,0,0,0,28.36,11.68c22.24,0,40-18.35,40-40.6C411.53,345.25,404.86,334.68,396,326.9Z" style="fill:#8eb322"/><path d="M379.56,312.54,313.86,255a111.5,111.5,0,0,1-21.7,33.84,107.2,107.2,0,0,1-34.67,24.24l64.09,56.11a205.49,205.49,0,0,0,58-56.66Z" style="fill:#5c7c26"/></g></g></g></g></svg>