<svg xmlns="http://www.w3.org/2000/svg" viewBox="0 0 36 40"><defs><style>.cls-1{fill:#727176;}</style></defs><g id="Capa_2" data-name="Capa 2"><g id="Capa_5" data-name="Capa 5"><path class="cls-1" d="M24.42,17.86a1.35,1.35,0,0,1,0,1.77h0l-6.75,7.5a1.06,1.06,0,0,1-1.59,0h0L12.7,23.39a1.37,1.37,0,0,1,0-1.78,1.07,1.07,0,0,1,1.6,0l2.58,2.87,5.95-6.62a1.06,1.06,0,0,1,1.59,0Z"/><path class="cls-1" d="M7.88,0A1.19,1.19,0,0,1,9,1.25V2.5H27V1.25a1.13,1.13,0,1,1,2.25,0V2.5H31.5a4.77,4.77,0,0,1,4.5,5V35a4.77,4.77,0,0,1-4.5,5H4.5A4.77,4.77,0,0,1,0,35V7.5a4.77,4.77,0,0,1,4.5-5H6.75V1.25A1.19,1.19,0,0,1,7.88,0ZM2.25,10V35A2.39,2.39,0,0,0,4.5,37.5h27A2.39,2.39,0,0,0,33.75,35V10Z"/></g></g></svg>