<?xml version="1.0" encoding="utf-8"?>
<!-- Generator: Adobe Illustrator 25.3.1, SVG Export Plug-In . SVG Version: 6.00 Build 0)  -->
<svg version="1.1" id="Capa_1" xmlns="http://www.w3.org/2000/svg" xmlns:xlink="http://www.w3.org/1999/xlink" x="0px" y="0px"
	 viewBox="0 0 30 30" style="enable-background:new 0 0 30 30;" xml:space="preserve">
<style type="text/css">
	.st0{fill:#727176;}
</style>
<path class="st0" d="M15,28.6c2.1,0,3.8-1.5,3.8-3.4h-7.6C11.2,27.1,12.9,28.6,15,28.6z M15,4.6l-1.5,0.3c-3.6,0.6-6.1,3.4-6.1,6.7
	c0,1.1-0.3,3.7-0.9,6.4c-0.3,1.3-0.7,2.7-1.3,3.8h19.6c-0.5-1.2-1-2.5-1.3-3.8c-0.6-2.6-0.9-5.3-0.9-6.4c0-3.2-2.6-6-6.1-6.7L15,4.6
	L15,4.6z M26.9,21.8c0.4,0.8,0.9,1.4,1.5,1.7H1.6c0.6-0.3,1.1-0.9,1.5-1.7c1.7-3.1,2.3-8.7,2.3-10.2c0-4.1,3.3-7.6,7.6-8.3
	c-0.1-0.9,0.7-1.8,1.7-1.9s2,0.6,2.1,1.5c0,0.1,0,0.2,0,0.3c4.5,0.8,7.6,4.3,7.6,8.3C24.6,13.1,25.2,18.7,26.9,21.8z"/>
</svg>
