<svg xmlns="http://www.w3.org/2000/svg" viewBox="0 0 36.88 41.75"><defs><style>.cls-1{fill:none;stroke:#727176;stroke-miterlimit:10;stroke-width:1.75px;}.cls-2{fill:#727176;}</style></defs><g id="Capa_2" data-name="Capa 2"><g id="Capa_5" data-name="Capa 5"><rect class="cls-1" x="3.31" y="0.88" width="32.69" height="40" rx="2.55"/><path class="cls-2" d="M6.31,38.61a.38.38,0,0,1-.39.36H.39A.37.37,0,0,1,0,38.6v-.75a.38.38,0,0,1,.39-.36H5.92a.38.38,0,0,1,.39.36Z"/><path class="cls-2" d="M6.32,34.26a.38.38,0,0,1-.39.36H.4A.38.38,0,0,1,0,34.25V33.5a.39.39,0,0,1,.39-.36H5.93a.37.37,0,0,1,.39.36Z"/><path class="cls-2" d="M6.33,29.91a.38.38,0,0,1-.39.37H.41A.39.39,0,0,1,0,29.91v-.76a.37.37,0,0,1,.38-.36H6a.37.37,0,0,1,.38.36Z"/><path class="cls-2" d="M6.34,25.56a.38.38,0,0,1-.38.37H.42A.37.37,0,0,1,0,25.56v-.75a.38.38,0,0,1,.39-.37H6a.38.38,0,0,1,.39.36Z"/><path class="cls-2" d="M6.36,21.22a.39.39,0,0,1-.39.36H.44a.37.37,0,0,1-.39-.36v-.75a.38.38,0,0,1,.39-.36H6a.39.39,0,0,1,.39.37Z"/><path class="cls-2" d="M6.37,16.87a.38.38,0,0,1-.39.36H.45a.38.38,0,0,1-.39-.36v-.75a.39.39,0,0,1,.39-.36H6a.38.38,0,0,1,.39.37Z"/><path class="cls-2" d="M6.38,12.52a.38.38,0,0,1-.39.36H.46a.39.39,0,0,1-.39-.37v-.75a.37.37,0,0,1,.38-.36H6a.37.37,0,0,1,.38.36Z"/><path class="cls-2" d="M6.39,8.17A.37.37,0,0,1,6,8.53H.47a.37.37,0,0,1-.38-.37V7.41a.37.37,0,0,1,.39-.36H6a.38.38,0,0,1,.39.36Z"/><path class="cls-2" d="M6.41,3.83A.39.39,0,0,1,6,4.19H.49A.38.38,0,0,1,.1,3.82V3.07a.38.38,0,0,1,.39-.36H6a.38.38,0,0,1,.39.36Z"/><polygon class="cls-2" points="31.96 15.79 9.89 15.76 9.92 3.98 31.99 4.01 31.96 15.79"/></g></g></svg>