<?xml version="1.0" encoding="utf-8"?>
<!-- Generator: Adobe Illustrator 25.3.1, SVG Export Plug-In . SVG Version: 6.00 Build 0)  -->
<svg version="1.1" id="Capa_1" xmlns="http://www.w3.org/2000/svg" xmlns:xlink="http://www.w3.org/1999/xlink" x="0px" y="0px"
	 viewBox="0 0 36.9 41.8" style="enable-background:new 0 0 36.9 41.8;" xml:space="preserve">
<style type="text/css">
	.st0{fill:none;stroke:#FFFFFF;stroke-width:1.75;stroke-miterlimit:10;}
	.st1{fill:#FFFFFF;}
</style>
<g id="Capa_2_1_">
	<g id="Capa_5">
		<path class="st0" d="M5.9,0.9h27.6C34.9,0.9,36,2,36,3.4v34.9c0,1.4-1.1,2.5-2.5,2.5H5.9c-1.4,0-2.5-1.1-2.5-2.5V3.4
			C3.3,2,4.5,0.9,5.9,0.9z"/>
		<path class="st1" d="M6.3,38.6c0,0.2-0.2,0.4-0.4,0.4H0.4C0.2,39,0,38.8,0,38.6c0,0,0,0,0,0v-0.8c0-0.2,0.2-0.4,0.4-0.4h5.5
			c0.2,0,0.4,0.2,0.4,0.4V38.6z"/>
		<path class="st1" d="M6.3,34.3c0,0.2-0.2,0.4-0.4,0.4H0.4c-0.2,0-0.4-0.1-0.4-0.4c0,0,0,0,0,0v-0.8c0-0.2,0.2-0.4,0.4-0.4h5.5
			c0.2,0,0.4,0.1,0.4,0.3c0,0,0,0,0,0L6.3,34.3z"/>
		<path class="st1" d="M6.3,29.9c0,0.2-0.2,0.4-0.4,0.4c0,0,0,0,0,0H0.4c-0.2,0-0.4-0.2-0.4-0.4c0,0,0,0,0,0v-0.8
			c0-0.2,0.2-0.4,0.4-0.4c0,0,0,0,0,0H6c0.2,0,0.4,0.2,0.4,0.4c0,0,0,0,0,0L6.3,29.9z"/>
		<path class="st1" d="M6.3,25.6c0,0.2-0.2,0.4-0.4,0.4H0.4C0.2,26,0,25.8,0,25.6c0,0,0,0,0-0.1v-0.8c0-0.2,0.2-0.4,0.4-0.4
			c0,0,0,0,0,0H6c0.2,0,0.4,0.2,0.4,0.4L6.3,25.6z"/>
		<path class="st1" d="M6.4,21.2c0,0.2-0.2,0.4-0.4,0.4H0.4c-0.2,0-0.4-0.1-0.4-0.3c0,0,0,0,0,0v-0.8c0-0.2,0.2-0.4,0.4-0.4H6
			c0.2,0,0.4,0.2,0.4,0.4L6.4,21.2z"/>
		<path class="st1" d="M6.4,16.9c0,0.2-0.2,0.4-0.4,0.4H0.4c-0.2,0-0.4-0.2-0.4-0.4v-0.8c0-0.2,0.2-0.4,0.4-0.4H6
			c0.2,0,0.4,0.2,0.4,0.4c0,0,0,0,0,0L6.4,16.9z"/>
		<path class="st1" d="M6.4,12.5c0,0.2-0.2,0.4-0.4,0.4H0.5c-0.2,0-0.4-0.2-0.4-0.4v-0.8c0-0.2,0.2-0.4,0.4-0.4c0,0,0,0,0,0H6
			c0.2,0,0.4,0.2,0.4,0.4c0,0,0,0,0,0V12.5z"/>
		<path class="st1" d="M6.4,8.2c0,0.2-0.2,0.4-0.4,0.4c0,0,0,0,0,0H0.5c-0.2,0-0.4-0.2-0.4-0.4c0,0,0,0,0,0V7.4C0.1,7.2,0.3,7,0.5,7
			c0,0,0,0,0,0H6c0.2,0,0.4,0.2,0.4,0.4V8.2z"/>
		<path class="st1" d="M6.4,3.8C6.4,4,6.2,4.2,6,4.2H0.5C0.3,4.2,0.1,4,0.1,3.8c0,0,0,0,0,0V3.1c0-0.2,0.2-0.4,0.4-0.4H6
			c0.2,0,0.4,0.2,0.4,0.4L6.4,3.8z"/>
		<polygon class="st1" points="32,15.8 9.9,15.8 9.9,4 32,4 		"/>
	</g>
</g>
</svg>
