<svg xmlns="http://www.w3.org/2000/svg" viewBox="0 0 36.5 40.5"><defs><style>.cls-1,.cls-2{fill:#727176;}.cls-2{stroke:#727176;stroke-miterlimit:10;stroke-width:0.5px;}</style></defs><g id="Capa_2" data-name="Capa 2"><g id="Capa_5" data-name="Capa 5"><path class="cls-1" d="M19.22,34.45h1.36a.48.48,0,0,1,.53.5.48.48,0,0,1-.54.54H17.86c-.32,0-.56-.15-.55-.52s.23-.52.56-.52Z"/><path class="cls-2" d="M7.62,40.25a8.77,8.77,0,0,1-1-.44,3.94,3.94,0,0,1-1.83-3.56c0-3.8,0-4.42,0-8.23v-.63h-2A1.48,1.48,0,0,1,1.3,25.84a2.3,2.3,0,0,1,.33-1.2c.88-1.29,1.8-2.54,2.72-3.78a2.2,2.2,0,0,1,1.92-.93H21c4.15,0,6,0,10.16,0a2.56,2.56,0,0,1,2.22,1.21c.8,1.14,1.62,2.26,2.44,3.39a1.89,1.89,0,0,1,.28,1.9,1.41,1.41,0,0,1-1.43,1H32.72v8.54c0,2.33-.88,3.68-2.8,4.27,0,0,0,0-.07,0Zm15.23-1.12V22.08c-.12.16-.2.25-.27.36-.81,1.11-1.63,2.22-2.42,3.35a3.42,3.42,0,0,1-3,1.61c-4.74,0-6.24,0-11,0H5.7V36c0,2,1,3.11,2.67,3.11H22.85Zm1-17.07V39.13h5.32c1.59,0,2.59-1.17,2.59-3V27.87c0-.15,0-.3,0-.48H29.33A3.16,3.16,0,0,1,26.68,26c-.32-.43-.62-.86-.93-1.29Zm-1.53-1h-.54c-6.12,0-9,0-15.13,0a2.13,2.13,0,0,0-2,1.07C4,23.18,3.17,24.19,2.43,25.25a1,1,0,0,0-.11.7c.05.16.33.24.51.32a.86.86,0,0,0,.32,0c5.68,0,8.13,0,13.81,0a2.9,2.9,0,0,0,2.62-1.42C20.44,23.6,21.37,22.38,22.33,21.05Zm2.06,0,3,4.12a2.39,2.39,0,0,0,2.05,1.11h5.1c.28,0,.6,0,.66-.35a1.2,1.2,0,0,0-.21-.77C34.2,24,33.39,23,32.61,21.85A1.69,1.69,0,0,0,31.13,21c-2.84,0-3.41,0-6.26,0Z"/><path class="cls-2" d="M18.25.25c5.29,0,9.58,4.63,9.57,10.34S23.53,20.89,18.3,20.9,8.68,16.28,8.68,10.55,13,.25,18.25.25ZM9.64,10.55c0,5.08,3.84,9.29,8.52,9.31s8.68-4.1,8.7-9.29S23,1.3,18.32,1.28,9.66,5.4,9.64,10.55Z"/><path class="cls-2" d="M1.05,7.37.84,7.15a1.37,1.37,0,0,1,.4-2.24c1-.41,2.1-.79,3.16-1.16A1.19,1.19,0,0,1,6,4.72C6.2,5.86,6.42,7,6.6,8.17S6,10.05,4.8,9.7a3.36,3.36,0,0,0-.15,2.08,3.73,3.73,0,0,0,.95,1.81,1.65,1.65,0,0,1,0,2.51c-.28.29-.54.59-.82.88a1.37,1.37,0,0,1-2.08,0A8.53,8.53,0,0,1,.89,7.76C.94,7.63,1,7.5,1.05,7.37Zm.15,3.5a7.45,7.45,0,0,0,2,5.28c.39.38.58.38,1,0,.23-.24.45-.48.67-.73.46-.49.46-.65,0-1.16A4.92,4.92,0,0,1,4,9.12c.25-.65.5-.94,1.16-.46a.47.47,0,0,0,.43.05c.08,0,.12-.27.1-.41-.18-1.08-.38-2.16-.58-3.24-.05-.28-.2-.4-.46-.31-1,.37-2,.73-3,1.11-.09,0-.22.16-.22.25a.65.65,0,0,0,.17.34c0,.07.13.1.2.14.48.31.53.49.26,1A7.39,7.39,0,0,0,1.2,10.87Z"/><path class="cls-2" d="M35.45,13.78l.2.19a1.38,1.38,0,0,1-.39,2.27c-1,.41-2.1.79-3.17,1.16a1.19,1.19,0,0,1-1.55-1c-.24-1.15-.46-2.3-.64-3.45s.61-1.86,1.81-1.53a3.44,3.44,0,0,0,.14-2.08,3.73,3.73,0,0,0-1-1.81,1.65,1.65,0,0,1,0-2.48l.84-.91a1.36,1.36,0,0,1,2.05,0,8.53,8.53,0,0,1,1.84,9.23ZM35.31,10a7.26,7.26,0,0,0-2.06-5c-.37-.38-.56-.37-.92,0l-.68.73c-.47.52-.47.66,0,1.19a4.94,4.94,0,0,1,.81,5.29c-.27.59-.46.64-1,.34a1.62,1.62,0,0,0-.54-.11,2.18,2.18,0,0,0-.06.56c.17,1,.36,2,.55,3,.08.45.18.51.61.35.88-.31,1.76-.63,2.63-1a1.83,1.83,0,0,0,.45-.35,2,2,0,0,0-.37-.44c-.5-.35-.55-.5-.27-1.05A7.65,7.65,0,0,0,35.31,10Z"/><path class="cls-2" d="M10.64,36.89h-2c-.68,0-1.06-.45-1.07-1.24,0-.54,0-1.09,0-1.63,0-.77.38-1.23,1-1.23h4c.66,0,1,.45,1,1.21q0,.84,0,1.68c0,.76-.39,1.2-1,1.21Zm2.07-3H8.6v1.81h4.11Z"/><path class="cls-2" d="M19.17,33.72H17.85a.49.49,0,0,1-.54-.57.49.49,0,0,1,.53-.55h2.74a.49.49,0,0,1,.53.55.5.5,0,0,1-.55.57Z"/><path class="cls-2" d="M25.27,10.61a7.31,7.31,0,0,1-7.06,7.53c-3.82,0-7-3.41-7-7.54s3.15-7.6,7-7.6A7.32,7.32,0,0,1,25.27,10.61Zm-7,6.5a6.3,6.3,0,0,0,6.09-6.5A6.31,6.31,0,0,0,18.24,4a6.32,6.32,0,0,0-6,6.5A6.33,6.33,0,0,0,18.22,17.11Z"/><path class="cls-2" d="M17.75,7.36c.08-.41-.14-1,.48-1.06s.45.62.52,1a1.54,1.54,0,0,1,1.46,1.35c.08.39-.06.69-.34.76s-.51-.11-.59-.52-.24-.54-.57-.53a6.43,6.43,0,0,0-.76,0,.78.78,0,0,0-.71.78.85.85,0,0,0,.69.86,3.85,3.85,0,0,0,.48,0,1.77,1.77,0,0,1,1.8,1.63,1.89,1.89,0,0,1-1.3,2.05l-.15,0c-.1.41.15,1-.5,1.08-.33,0-.43-.18-.52-1a1.57,1.57,0,0,1-1.46-1.47c-.05-.3,0-.58.34-.63s.37.13.54.24.05.18.07.28c.06.32.23.51.54.51s.54,0,.8,0a.79.79,0,0,0,.69-.8.82.82,0,0,0-.67-.84,4.47,4.47,0,0,0-.52,0,1.79,1.79,0,0,1-1.78-1.66,1.87,1.87,0,0,1,1.28-2A1.27,1.27,0,0,1,17.75,7.36Z"/></g></g></svg>