<svg xmlns="http://www.w3.org/2000/svg" viewBox="0 0 36 40"><defs><style>.cls-1{fill:#727176;}</style></defs><g id="Capa_2" data-name="Capa 2"><g id="Capa_5" data-name="Capa 5"><path class="cls-1" d="M8,4V2.2a2,2,0,1,1,4,0V4H24c0-.67,0-1.35,0-2A1.88,1.88,0,0,1,25.07.25a1.88,1.88,0,0,1,2,.08A2,2,0,0,1,28,2.11V4h.65c.86.06,1.73,0,2.57.19A5.65,5.65,0,0,1,35.9,9.3c.07.88.09,1.78.1,2.67q0,10.47,0,20.94a13.9,13.9,0,0,1-.18,2.33A5.67,5.67,0,0,1,30.7,39.9c-.94.07-1.88.09-2.81.1H7.17a14.59,14.59,0,0,1-2.38-.18,5.68,5.68,0,0,1-4.7-5.17C0,33.92,0,33.2,0,32.49Q0,21.8,0,11.12A13.9,13.9,0,0,1,.19,8.79,5.68,5.68,0,0,1,5.33,4.1C6.2,4,7.07,4,8,4ZM4,16c0,.13,0,.22,0,.31,0,5.67,0,11.34,0,17C4,35.45,4.55,36,6.68,36q9,0,18.09,0c1.71,0,3.41,0,5.11,0A1.87,1.87,0,0,0,32,33.9c0-.22,0-.43,0-.65q0-8.44,0-16.87c0-.12,0-.24,0-.36Zm28-4c0-.84,0-1.63-.13-2.42a1.63,1.63,0,0,0-1.44-1.44A11.86,11.86,0,0,0,28.87,8Q18.45,8,8,8c-.84,0-1.68,0-2.52.11A1.39,1.39,0,0,0,4.21,9.21,23,23,0,0,0,4,12Z"/><path class="cls-1" d="M20,22a2,2,0,1,1-2-2A2,2,0,0,1,20,22Z"/><path class="cls-1" d="M24,30a2,2,0,0,1,2-2,2,2,0,1,1-2,2Z"/><path class="cls-1" d="M12,30a2,2,0,1,1-2-2A2,2,0,0,1,12,30Z"/><path class="cls-1" d="M12,22a2,2,0,1,1-2-2A2,2,0,0,1,12,22Z"/><path class="cls-1" d="M26,24a2,2,0,1,1,2-2A2,2,0,0,1,26,24Z"/><path class="cls-1" d="M20,30a2,2,0,1,1-2-2A2,2,0,0,1,20,30Z"/></g></g></svg>