<svg xmlns="http://www.w3.org/2000/svg" viewBox="0 0 36 40"><defs><style>.cls-1{fill:#fff;}</style></defs><g id="Capa_2" data-name="Capa 2"><g id="Capa_5" data-name="Capa 5"><path class="cls-1" d="M30.24,12.88l-2,3.67a17.94,17.94,0,0,1,.49,4.19C28.68,29.05,22.63,37,15.81,37S3,29.05,3,20.74,9,4.56,15.81,4.56a10.67,10.67,0,0,1,6,1.92l2.26-2.12a13.71,13.71,0,0,0-8.3-2.87C7.09,1.49,0,10.13,0,20.74S7.09,40,15.81,40s15.81-8.64,15.81-19.26A22.61,22.61,0,0,0,30.24,12.88Z"/><polygon class="cls-1" points="17.55 27.49 9.75 17.98 12.15 16.26 17.15 22.1 33.61 0 36 1.99 17.55 27.49"/></g></g></svg>