<?xml version="1.0" encoding="utf-8"?>
<!-- Generator: Adobe Illustrator 25.3.1, SVG Export Plug-In . SVG Version: 6.00 Build 0)  -->
<svg version="1.1" id="Capa_1" xmlns="http://www.w3.org/2000/svg" xmlns:xlink="http://www.w3.org/1999/xlink" x="0px" y="0px"
	 viewBox="0 0 36 40" style="enable-background:new 0 0 36 40;" xml:space="preserve">
<style type="text/css">
	.st0{fill:#FFFFFF;}
</style>
<g id="Capa_2_1_">
	<g id="Capa_5">
		<path class="st0" d="M25.4,0H15c-0.7,0-1.3,0.5-1.4,1.2l-0.9,19.3h-2.4V15c0-0.6-0.4-1-1-1l0,0c-0.6,0-1,0.4-1,1v5.5h-1v-3.6
			c0-0.4-0.3-0.7-0.7-0.7c0,0,0,0,0,0l0,0c-0.4,0-0.7,0.3-0.7,0.7c0,0,0,0,0,0v3.7H5c-0.6,0-1.1,0.4-1.2,1l-0.8,5.5
			c1-0.6,2.2-0.8,3.3-0.9c3.9,0.1,7.1,3.3,7,7.2c0,0.2,0,0.3,0,0.5h3.8c-0.3-1.1-0.5-2.2-0.5-3.3c-0.1-5.7,4.5-10.3,10.1-10.4V1.4
			C26.8,0.6,26.2,0,25.4,0C25.4,0,25.4,0,25.4,0z M24.7,17.8c0,0.6-0.4,1.2-1.1,1.4c-3.4,0.7-6.2,3.1-7.4,6.4
			c-0.1,0.4-0.5,0.6-0.9,0.6h-0.5c-0.5,0-0.9-0.4-0.9-1c0,0,0-0.1,0-0.1l1.2-21.9c0.1-0.7,0.7-1.2,1.4-1.3h6.8
			c0.8,0,1.4,0.6,1.4,1.4c0,0,0,0,0,0V17.8z M7.5,33.4c0,0.6-0.5,1-1.1,1c-0.6,0-1-0.5-1-1.1s0.5-1,1.1-1c0,0,0,0,0,0
			C7,32.4,7.5,32.8,7.5,33.4z M12.8,32.4v2.1c0,0.2-0.2,0.4-0.4,0.4l0,0c-0.2,0-0.3,0.1-0.4,0.3c-0.1,0.4-0.3,0.8-0.5,1.2
			c-0.1,0.2-0.1,0.3,0.1,0.5l0,0c0.2,0.2,0.2,0.4,0,0.6l-1.4,1.4c-0.1,0.1-0.4,0.2-0.5,0c0,0,0,0,0,0c-0.1-0.1-0.3-0.1-0.4-0.1
			c-0.4,0.2-0.8,0.4-1.2,0.5c-0.2,0.1-0.3,0.2-0.3,0.4l0,0c0,0.2-0.2,0.4-0.4,0.4h-2C5.2,40,5,39.8,5,39.6c0,0,0,0,0,0l0,0
			c0-0.2-0.1-0.3-0.3-0.4c-0.4-0.1-0.8-0.3-1.2-0.5c-0.1-0.1-0.3-0.1-0.5,0.1l0,0c-0.2,0.2-0.4,0.2-0.5,0l-1.4-1.5
			c-0.2-0.2-0.2-0.4,0-0.6l0,0c0.1-0.1,0.1-0.3,0.1-0.5c-0.2-0.4-0.4-0.8-0.5-1.2c-0.1-0.2-0.2-0.3-0.4-0.3l0,0
			c-0.2,0-0.4-0.2-0.4-0.4v-2.1C0,32.2,0.2,32,0.4,32l0,0c0.2,0,0.3-0.1,0.4-0.3c0.1-0.4,0.3-0.8,0.5-1.2c0.1-0.2,0.1-0.3-0.1-0.5
			l0,0c-0.2-0.2-0.2-0.4,0-0.6L2.6,28c0.2-0.2,0.4-0.2,0.5,0c0.1,0.1,0.3,0.1,0.5,0.1c0.4-0.2,0.8-0.4,1.2-0.5
			C4.9,27.5,5,27.4,5,27.2l0,0c0-0.2,0.2-0.4,0.4-0.4c0,0,0,0,0,0h2c0.2,0,0.4,0.2,0.4,0.4c0,0,0,0,0,0l0,0c0,0.2,0.1,0.3,0.3,0.4
			c0.4,0.1,0.8,0.3,1.2,0.5c0.2,0.1,0.4,0,0.5-0.1l0,0c0.1-0.1,0.4-0.2,0.5,0c0,0,0,0,0,0l1.4,1.5c0.2,0.2,0.2,0.4,0,0.6l0,0
			c-0.1,0.1-0.1,0.3-0.1,0.5c0.2,0.4,0.4,0.8,0.5,1.2c0.1,0.2,0.2,0.3,0.4,0.3l0,0C12.7,32,12.8,32.1,12.8,32.4
			C12.8,32.4,12.8,32.4,12.8,32.4L12.8,32.4z M9.4,33.4c0-1.7-1.3-3-2.9-3.1c0,0,0,0-0.1,0c-1.7,0-3.1,1.4-3.1,3.1
			c0,1.7,1.4,3.1,3.1,3.1C8.1,36.5,9.4,35.1,9.4,33.4C9.4,33.5,9.4,33.4,9.4,33.4z M28.4,30.6c0,0.8-0.7,1.5-1.5,1.5
			c-0.8,0-1.5-0.7-1.5-1.5c0-0.8,0.7-1.5,1.5-1.5C27.7,29.1,28.4,29.8,28.4,30.6L28.4,30.6z M36,29.1v2.9c0,0.3-0.2,0.6-0.5,0.6
			c0,0,0,0,0,0l0,0c-0.2,0-0.5,0.2-0.5,0.4c-0.2,0.6-0.4,1.2-0.7,1.7c-0.1,0.2-0.1,0.5,0.1,0.7l0,0c0.2,0.2,0.2,0.6,0,0.8l-2,2.1
			c-0.2,0.2-0.6,0.2-0.8,0c-0.2-0.2-0.4-0.2-0.7-0.1c-0.5,0.3-1.1,0.5-1.7,0.7c-0.2,0.1-0.4,0.3-0.4,0.5l0,0c0,0.3-0.2,0.6-0.5,0.6
			c0,0,0,0,0,0h-2.9c-0.3,0-0.6-0.3-0.5-0.6l0,0c0-0.2-0.2-0.5-0.4-0.5c-0.6-0.2-1.1-0.4-1.7-0.7c-0.2-0.1-0.5-0.1-0.6,0.1
			c-0.2,0.2-0.6,0.2-0.8,0l-2-2.1c-0.2-0.2-0.2-0.6,0-0.8l0,0c0.2-0.2,0.2-0.5,0.1-0.7c-0.3-0.6-0.5-1.1-0.7-1.8
			c-0.1-0.2-0.3-0.4-0.5-0.4l0,0c-0.3,0-0.6-0.3-0.5-0.6v-2.9c0-0.3,0.2-0.6,0.5-0.6l0,0c0.2,0,0.5-0.2,0.5-0.4
			c0.2-0.6,0.4-1.2,0.7-1.7c0.1-0.2,0.1-0.5-0.1-0.7c-0.2-0.2-0.2-0.6,0-0.8l2-2.1c0.2-0.2,0.5-0.2,0.8,0c0,0,0,0,0,0
			c0.2,0.2,0.4,0.2,0.6,0.1c0.5-0.3,1.1-0.5,1.7-0.7c0.2-0.1,0.4-0.3,0.4-0.5l0,0c0-0.3,0.2-0.6,0.5-0.6h2.9c0.3,0,0.5,0.3,0.5,0.6
			c0,0,0,0,0,0l0,0c0,0.2,0.2,0.5,0.4,0.5c0.6,0.2,1.1,0.4,1.7,0.7c0.2,0.1,0.5,0.1,0.7-0.1c0.2-0.2,0.5-0.2,0.7,0c0,0,0,0,0,0
			l2,2.1c0.2,0.2,0.2,0.6,0,0.8l0,0c-0.2,0.2-0.2,0.5-0.1,0.7c0.3,0.5,0.5,1.1,0.7,1.7c0.1,0.2,0.3,0.4,0.5,0.4l0,0
			C35.7,28.6,36,28.8,36,29.1C36,29.1,36,29.1,36,29.1z M31.1,30.6c-0.1-2.4-2-4.2-4.4-4.1c-2.4,0.1-4.2,2-4.1,4.4
			c0.1,2.3,2,4.1,4.3,4.1C29.2,35,31.1,33,31.1,30.6C31.1,30.6,31.1,30.6,31.1,30.6z"/>
	</g>
</g>
</svg>
