<svg xmlns="http://www.w3.org/2000/svg" viewBox="0 0 36 40"><defs><style>.cls-1{fill:#727176;}</style></defs><g id="Capa_2" data-name="Capa 2"><g id="Capa_5" data-name="Capa 5"><path class="cls-1" d="M25.43,0H15a1.38,1.38,0,0,0-1.36,1.25l-.93,19.31H10.3V15a1,1,0,0,0-1-1h0a1,1,0,0,0-1,1v5.53H7.27V16.89a.71.71,0,0,0-.7-.72h0a.71.71,0,0,0-.7.72v3.67H5a1.17,1.17,0,0,0-1.15,1l-.79,5.5a6.91,6.91,0,0,1,3.32-.85,7.11,7.11,0,0,1,7,7.2c0,.16,0,.33,0,.49h3.79a10.92,10.92,0,0,1-.52-3.31A10.31,10.31,0,0,1,26.8,20.16V1.41A1.39,1.39,0,0,0,25.43,0Zm-.71,17.79a1.37,1.37,0,0,1-1.07,1.36,10.31,10.31,0,0,0-7.43,6.37.93.93,0,0,1-.85.59h-.46A.94.94,0,0,1,14,25.06L15.22,3.15A1.39,1.39,0,0,1,16.58,1.9h6.77a1.39,1.39,0,0,1,1.37,1.41ZM7.46,33.42a1.05,1.05,0,1,1-1-1.08A1.06,1.06,0,0,1,7.46,33.42Zm5.36-1v2.06a.39.39,0,0,1-.38.39h0a.4.4,0,0,0-.37.28,6,6,0,0,1-.48,1.2.39.39,0,0,0,.06.47h0a.4.4,0,0,1,0,.56L10.23,38.8a.38.38,0,0,1-.54,0,.38.38,0,0,0-.45-.07,5.5,5.5,0,0,1-1.17.5.4.4,0,0,0-.28.38h0a.39.39,0,0,1-.38.39h-2A.39.39,0,0,1,5,39.61H5a.4.4,0,0,0-.28-.38,5.5,5.5,0,0,1-1.17-.5.38.38,0,0,0-.45.07h0a.39.39,0,0,1-.55,0L1.17,37.35a.4.4,0,0,1,0-.56h0a.39.39,0,0,0,.06-.47,6,6,0,0,1-.48-1.2.4.4,0,0,0-.37-.28h0A.39.39,0,0,1,0,34.45V32.39A.39.39,0,0,1,.38,32h0a.4.4,0,0,0,.37-.28,6,6,0,0,1,.48-1.2.39.39,0,0,0-.06-.47h0a.4.4,0,0,1,0-.56L2.58,28a.39.39,0,0,1,.55,0,.38.38,0,0,0,.45.07,5.5,5.5,0,0,1,1.17-.5A.4.4,0,0,0,5,27.23H5a.38.38,0,0,1,.38-.39h2a.38.38,0,0,1,.38.39h0a.4.4,0,0,0,.28.38,5.5,5.5,0,0,1,1.17.5A.38.38,0,0,0,9.69,28h0a.38.38,0,0,1,.54,0l1.42,1.45a.4.4,0,0,1,0,.56h0a.39.39,0,0,0-.06.47,6,6,0,0,1,.48,1.2.4.4,0,0,0,.37.28h0A.39.39,0,0,1,12.82,32.39Zm-3.42,1a3,3,0,0,0-3-3.07,3.07,3.07,0,0,0,0,6.14A3,3,0,0,0,9.4,33.42Zm19-2.82a1.51,1.51,0,1,1-1.5-1.54A1.52,1.52,0,0,1,28.35,30.6ZM36,29.14v2.93a.55.55,0,0,1-.55.56h0a.55.55,0,0,0-.52.41,8.5,8.5,0,0,1-.69,1.71.58.58,0,0,0,.09.67h0a.57.57,0,0,1,0,.79l-2,2.08a.55.55,0,0,1-.77,0,.55.55,0,0,0-.66-.1,8.14,8.14,0,0,1-1.66.71.56.56,0,0,0-.4.54h0a.55.55,0,0,1-.54.56H25.42a.56.56,0,0,1-.55-.56h0a.56.56,0,0,0-.4-.54,8.14,8.14,0,0,1-1.66-.71.53.53,0,0,0-.65.1.56.56,0,0,1-.78,0l-2-2.08a.57.57,0,0,1,0-.79h0a.56.56,0,0,0,.09-.67A9.1,9.1,0,0,1,18.77,33a.56.56,0,0,0-.53-.41h0a.56.56,0,0,1-.55-.56V29.14a.56.56,0,0,1,.55-.56h0a.56.56,0,0,0,.53-.41,9.1,9.1,0,0,1,.68-1.71.56.56,0,0,0-.09-.67.57.57,0,0,1,0-.79l2-2.08a.54.54,0,0,1,.78,0,.53.53,0,0,0,.65.09,8.11,8.11,0,0,1,1.66-.7.56.56,0,0,0,.4-.54h0a.56.56,0,0,1,.55-.56h2.86a.55.55,0,0,1,.54.56h0a.56.56,0,0,0,.4.54,8.11,8.11,0,0,1,1.66.7.55.55,0,0,0,.66-.09.53.53,0,0,1,.77,0l2,2.08a.57.57,0,0,1,0,.79h0a.58.58,0,0,0-.09.67,8.5,8.5,0,0,1,.69,1.71.55.55,0,0,0,.52.41h0A.55.55,0,0,1,36,29.14ZM31.12,30.6A4.27,4.27,0,1,0,26.85,35,4.32,4.32,0,0,0,31.12,30.6Z"/></g></g></svg>