<?xml version="1.0" encoding="utf-8"?>
<!-- Generator: Adobe Illustrator 25.3.1, SVG Export Plug-In . SVG Version: 6.00 Build 0)  -->
<svg version="1.1" id="Capa_1" xmlns="http://www.w3.org/2000/svg" xmlns:xlink="http://www.w3.org/1999/xlink" x="0px" y="0px"
	 viewBox="0 0 37.9 41.9" style="enable-background:new 0 0 37.9 41.9;" xml:space="preserve">
<style type="text/css">
	.st0{fill:none;stroke:#FFFFFF;stroke-width:1.92;stroke-miterlimit:10;}
	.st1{fill:none;stroke:#FFFFFF;stroke-width:1.14;stroke-miterlimit:10;}
	.st2{fill:#FFFFFF;}
</style>
<g id="Capa_2_1_">
	<g id="Capa_5">
		<path class="st0" d="M34.6,1H3.3C2.1,0.9,1.1,1.8,1,3v36c0.1,1.2,1.1,2.1,2.3,2c0,0,0,0,0,0l31.4,0c1.2,0.1,2.2-0.8,2.3-2V2.9
			C36.9,1.7,35.8,0.9,34.6,1z"/>
		<path class="st1" d="M20.7,7.2c-0.1-1-1-1.7-2-1.5c-1-0.1-1.9,0.6-2,1.6h-5c-0.4,0-0.7,0.2-0.8,0.6v0.5c0.1,0.6,0.7,1.1,1.3,1
			h12.8c0.6,0.1,1.2-0.4,1.3-1V7.8c0-0.3-0.4-0.6-0.8-0.6L20.7,7.2z"/>
		<line class="st1" x1="13.3" y1="14.2" x2="31.5" y2="14.2"/>
		<line class="st1" x1="13.3" y1="16.7" x2="28.5" y2="16.7"/>
		<line class="st1" x1="13.3" y1="19.2" x2="31.5" y2="19.2"/>
		<line class="st1" x1="13.3" y1="22.4" x2="24.3" y2="22.4"/>
		<line class="st1" x1="13.3" y1="24.9" x2="31.5" y2="24.9"/>
		<path class="st2" d="M5.4,22.4v4h5.2v-4H5.4z"/>
		<path class="st2" d="M5.4,30.8v4h5.2v-4H5.4z"/>
		<line class="st1" x1="13.3" y1="31" x2="29.3" y2="31"/>
		<line class="st1" x1="13.3" y1="33.5" x2="27.4" y2="33.5"/>
		<path class="st2" d="M5.4,14.1v4h5.2v-4L5.4,14.1z"/>
	</g>
</g>
</svg>
