<svg xmlns="http://www.w3.org/2000/svg" viewBox="0 0 37.92 41.92"><defs><style>.cls-1,.cls-2{fill:none;}.cls-1,.cls-2,.cls-3{stroke:#727176;stroke-miterlimit:10;}.cls-1{stroke-width:1.92px;}.cls-2,.cls-3{stroke-width:1.14px;}.cls-3{fill:#fff;}.cls-4{fill:#727176;}</style></defs><g id="Capa_2" data-name="Capa 2"><g id="Capa_5" data-name="Capa 5"><path class="cls-1" d="M34.64,1,3.28,1A2.16,2.16,0,0,0,1,3V39a2.15,2.15,0,0,0,2.31,2l31.36-.05A2.16,2.16,0,0,0,37,39V2.9A2.16,2.16,0,0,0,34.64,1Z"/><path class="cls-2" d="M20.7,7.19a1.83,1.83,0,0,0-2-1.55,1.84,1.84,0,0,0-2,1.55H11.73a.71.71,0,0,0-.78.6v.54a1.19,1.19,0,0,0,1.32,1l12.82,0a1.2,1.2,0,0,0,1.33-1V7.78c0-.33-.36-.6-.79-.6Z"/><line class="cls-3" x1="13.34" y1="14.23" x2="31.49" y2="14.21"/><line class="cls-3" x1="13.34" y1="16.73" x2="28.54" y2="16.71"/><line class="cls-3" x1="13.34" y1="19.23" x2="31.49" y2="19.2"/><line class="cls-3" x1="13.34" y1="22.41" x2="24.34" y2="22.39"/><line class="cls-3" x1="13.34" y1="24.91" x2="31.49" y2="24.88"/><path class="cls-4" d="M5.39,22.42v4h5.22v-4Z"/><path class="cls-4" d="M5.39,30.79v4h5.22v-4Z"/><line class="cls-3" x1="13.33" y1="30.97" x2="29.33" y2="30.95"/><line class="cls-3" x1="13.33" y1="33.47" x2="27.4" y2="33.45"/><path class="cls-4" d="M5.4,14.05v4h5.21v-4Z"/></g></g></svg>