<svg xmlns="http://www.w3.org/2000/svg" viewBox="0 0 36 40"><defs><style>.cls-1{fill:#727176;}</style></defs><g id="Capa_2" data-name="Capa 2"><g id="Capa_5" data-name="Capa 5"><path class="cls-1" d="M18.44,0a3.66,3.66,0,0,1,1.79.94A3.75,3.75,0,0,1,21,5.06a3.23,3.23,0,0,1-3.35,2,3.42,3.42,0,0,1-2.87-2.93,3.57,3.57,0,0,1,2.54-4L17.56,0Z"/><path class="cls-1" d="M26,9A17.15,17.15,0,0,1,33.37,24.7l-2.09-.18a15.36,15.36,0,0,0-1.4-7.77,14,14,0,0,0-5-5.81Z"/><path class="cls-1" d="M10,9l1.09,1.95C6.58,14.13,4.46,18.66,4.7,24.52l-1,.09-1.07.1A17.56,17.56,0,0,1,4,16.35,16.35,16.35,0,0,1,10,9Z"/><path class="cls-1" d="M6.56,35.29a3.41,3.41,0,0,1-3.3,3.54,3.56,3.56,0,0,1,0-7.1A3.42,3.42,0,0,1,6.56,35.29Z"/><path class="cls-1" d="M36,35.29a3.29,3.29,0,1,1-3.28-3.56A3.41,3.41,0,0,1,36,35.29Z"/><path class="cls-1" d="M12,38.7l.83-2.12a12.59,12.59,0,0,0,10.37,0L24,38.7A14.59,14.59,0,0,1,12,38.7Z"/><path class="cls-1" d="M18,16.12a6.68,6.68,0,0,1,6.38,6.82A6.65,6.65,0,0,1,18,29.78,6.64,6.64,0,0,1,11.64,23,6.69,6.69,0,0,1,18,16.12Z"/></g></g></svg>