<?xml version="1.0" encoding="utf-8"?>
<!-- Generator: Adobe Illustrator 25.3.1, SVG Export Plug-In . SVG Version: 6.00 Build 0)  -->
<svg version="1.1" id="Capa_1" xmlns="http://www.w3.org/2000/svg" xmlns:xlink="http://www.w3.org/1999/xlink" x="0px" y="0px"
	 viewBox="0 0 30 30" style="enable-background:new 0 0 30 30;" xml:space="preserve">
<style type="text/css">
	.st0{fill:#FFFFFF;}
</style>
<path class="st0" d="M15.8,0.5c-0.4-0.4-1.2-0.4-1.6,0l0,0L0.6,13.2c-0.2,0.2-0.3,0.5-0.3,0.7v14.8c0,0.6,0.5,1.1,1.1,1.1h10.2
	c0.6,0,1.1-0.5,1.1-1.1v-8.4h4.5v8.4c0,0.6,0.5,1.1,1.1,1.1h10.2c0.6,0,1.1-0.5,1.1-1.1V13.9c0-0.3-0.1-0.5-0.3-0.7l-3.1-2.9v-7
	c0-0.6-0.5-1.1-1.1-1.1h-2.3c-0.6,0-1.1,0.5-1.1,1.1V6L15.8,0.5z M2.6,27.7V14.4L15,2.8l12.4,11.6v13.3h-7.9v-8.4
	c0-0.6-0.5-1.1-1.1-1.1h-6.8c-0.6,0-1.1,0.5-1.1,1.1v8.4H2.6z"/>
</svg>
