<svg xmlns="http://www.w3.org/2000/svg" viewBox="0 0 37.86 41.86"><defs><style>.cls-1,.cls-3{fill:none;}.cls-1,.cls-3,.cls-4{stroke:#727176;stroke-miterlimit:10;}.cls-1{stroke-width:1.86px;}.cls-2{fill:#727176;}.cls-3,.cls-4{stroke-width:1.06px;}.cls-4{fill:#fff;}</style></defs><g id="Capa_2" data-name="Capa 2"><g id="Capa_5" data-name="Capa 5"><polygon class="cls-1" points="36.93 40.87 1.02 40.93 0.93 0.99 36.84 0.93 36.93 40.87 36.93 40.87"/><polygon class="cls-2" points="8.42 30.77 12.58 30.76 12.57 23 8.4 23.01 8.42 30.77 8.42 30.77"/><polygon class="cls-2" points="14.9 30.76 19.06 30.75 19.05 25.06 14.89 25.07 14.9 30.76 14.9 30.76"/><polygon class="cls-2" points="21.38 30.75 25.54 30.74 25.52 21.94 21.36 21.95 21.38 30.75 21.38 30.75"/><polygon class="cls-2" points="27.85 30.73 32.02 30.73 31.99 18.82 27.83 18.83 27.85 30.73 27.85 30.73"/><polyline class="cls-3" points="5.62 8.94 5.66 33.17 31.31 33.14"/><polyline class="cls-4" points="8.43 19.63 17.15 14.93 20.42 18.66 26.2 13.62"/><polygon class="cls-2" points="24.45 11.59 28.35 15.02 30.11 10.07 24.45 11.59"/></g></g></svg>