<?xml version="1.0" encoding="utf-8"?>
<!-- Generator: Adobe Illustrator 25.3.1, SVG Export Plug-In . SVG Version: 6.00 Build 0)  -->
<svg version="1.1" id="Capa_1" xmlns="http://www.w3.org/2000/svg" xmlns:xlink="http://www.w3.org/1999/xlink" x="0px" y="0px"
	 viewBox="0 0 37.9 41.9" style="enable-background:new 0 0 37.9 41.9;" xml:space="preserve">
<style type="text/css">
	.st0{fill:#FFFFFF;}
</style>
<g id="Capa_2_1_">
	<g id="Capa_5">
		<g>
			<path class="st0" d="M0.1,41.9L0,0.1L37.8,0l0.1,41.8L0.1,41.9z M1.9,1.9V40L36,39.9l-0.1-38H1.9z"/>
		</g>
		<g>
			<polygon class="st0" points="8.4,30.8 12.6,30.8 12.6,23 8.4,23 			"/>
		</g>
		<g>
			<polygon class="st0" points="14.9,30.8 19.1,30.8 19,25.1 14.9,25.1 			"/>
		</g>
		<g>
			<polygon class="st0" points="21.4,30.8 25.5,30.7 25.5,21.9 21.4,22 			"/>
		</g>
		<g>
			<polygon class="st0" points="27.9,30.7 32,30.7 32,18.8 27.8,18.8 			"/>
		</g>
		<g>
			<polygon class="st0" points="5.1,33.7 5.1,8.9 6.1,8.9 6.2,32.6 31.3,32.6 31.3,33.7 			"/>
		</g>
		<g>
			<polygon class="st0" points="8.7,20.1 8.2,19.2 17.3,14.3 20.5,17.9 25.9,13.2 26.5,14 20.4,19.4 17,15.6 			"/>
		</g>
		<g>
			<polygon class="st0" points="24.5,11.6 28.4,15 30.1,10.1 			"/>
		</g>
	</g>
</g>
</svg>
