<svg xmlns="http://www.w3.org/2000/svg" viewBox="0 0 36 40"><defs><style>.cls-1{fill:#fff;fill-rule:evenodd;}</style></defs><g id="Capa_2" data-name="Capa 2"><g id="Capa_5" data-name="Capa 5"><g id="Grupo_1868" data-name="Grupo 1868"><path id="Trazado_2131" data-name="Trazado 2131" class="cls-1" d="M36,22.74a4.28,4.28,0,0,0-.52-2c-.07-.17-.07-.34-.13-.51l-3.73-8v0c-1.25-3.37-3.15-6.45-7.86-6.45h-4.5a7.29,7.29,0,0,1,.11,2.51h4.39c2.48,0,3.8,1.2,5.1,4.68l2.69,4.79a7.7,7.7,0,0,0-2.88-.46H15.44l0,6.9h5.15a1,1,0,0,1,1.11.86,1,1,0,0,1-1.11.91H15.47v4.85H27.09v3.65a2.13,2.13,0,0,0,2.28,2h4.4a2.17,2.17,0,0,0,2.23-2V27a1.35,1.35,0,0,0-.2-.68,3.1,3.1,0,0,0,.2-1.09Zm-5,3.42H26.11a1.54,1.54,0,0,1-1.7-1.42,1.55,1.55,0,0,1,1.7-1.37H31a1.29,1.29,0,0,1,1.58,1,1.46,1.46,0,0,1-.93,1.76,1,1,0,0,1-.65,0Z"/><path id="Trazado_2132" data-name="Trazado 2132" class="cls-1" d="M17.47,6.29h0A7.17,7.17,0,0,0,13.08,0V5.81L8.77,7.87,4.38,5.81V0A7.18,7.18,0,0,0,0,6.29a7.12,7.12,0,0,0,4.82,6.42v23.9A3.29,3.29,0,0,0,6,39a4.86,4.86,0,0,0,2.93,1c2.26,0,4.09-1.51,4.16-3.39l-.07-24a7.08,7.08,0,0,0,4.46-6.3Z"/></g></g></g></svg>