<svg xmlns="http://www.w3.org/2000/svg" viewBox="0 0 36 40"><defs><style>.cls-1{fill:#727176;}</style></defs><g id="Capa_2" data-name="Capa 2"><g id="Capa_5" data-name="Capa 5"><path class="cls-1" d="M22.21,0a6,6,0,0,1-2.56,1.36V6.13h1.07a.92.92,0,0,1,1,.82V10h4.82a.92.92,0,0,1,1,.82v5.42a9.65,9.65,0,0,1-2.28,6A15.81,15.81,0,0,1,18.43,27a1.15,1.15,0,0,1-.41.08h0a1.15,1.15,0,0,1-.41-.08,15.81,15.81,0,0,1-6.81-4.71,9.65,9.65,0,0,1-2.28-6V10.82a.92.92,0,0,1,1-.82h4.82V7a.92.92,0,0,1,1-.82h1.07V1.4A6.07,6.07,0,0,1,13.67,0C5.82,1.61,0,7.41,0,14.33,0,22.48,13.44,40,16.83,40,20.77,40,36,22.48,36,14.33,36,7.38,30.12,1.55,22.21,0Z"/><path class="cls-1" d="M16.45,14.05a4.16,4.16,0,0,0,1.7,3.48,4.26,4.26,0,0,0,1.73-3.48v-6H16.45Z"/></g></g></svg>