<?xml version="1.0" encoding="utf-8"?>
<!-- Generator: Adobe Illustrator 25.3.1, SVG Export Plug-In . SVG Version: 6.00 Build 0)  -->
<svg version="1.1" id="Capa_1" xmlns="http://www.w3.org/2000/svg" xmlns:xlink="http://www.w3.org/1999/xlink" x="0px" y="0px"
	 viewBox="0 0 36 40" style="enable-background:new 0 0 36 40;" xml:space="preserve">
<style type="text/css">
	.st0{fill:#FFFFFF;}
</style>
<g id="Capa_2_1_">
	<g id="Capa_5">
		<path class="st0" d="M22.2,0c-0.7,0.7-1.6,1.1-2.6,1.4v4.8h1.1c0.5,0,0.9,0.3,1,0.8v3h4.8c0.5,0,0.9,0.3,1,0.8v5.4
			c-0.1,2.2-0.9,4.3-2.3,6c-1.8,2.2-4.2,3.8-6.8,4.8c-0.1,0.1-0.3,0.1-0.4,0.1l0,0c-0.1,0-0.3,0-0.4-0.1c-2.6-0.9-5-2.6-6.8-4.7
			c-1.4-1.7-2.2-3.8-2.3-6v-5.5C8.6,10.3,9,10,9.5,10h4.8V7c0.1-0.5,0.5-0.9,1-0.8h1.1V1.4c-1-0.2-2-0.7-2.7-1.4
			C5.8,1.6,0,7.4,0,14.3C0,22.5,13.4,40,16.8,40C20.8,40,36,22.5,36,14.3C36,7.4,30.1,1.5,22.2,0z"/>
		<path class="st0" d="M16.5,14.1c0,1.4,0.6,2.7,1.7,3.5c1.1-0.8,1.7-2.1,1.7-3.5v-6h-3.4V14.1z"/>
	</g>
</g>
</svg>
