<svg xmlns="http://www.w3.org/2000/svg" viewBox="0 0 36 40"><defs><style>.cls-1{fill:#727176;}</style></defs><g id="Capa_2" data-name="Capa 2"><g id="Capa_5" data-name="Capa 5"><path class="cls-1" d="M35.22,29.36c-1.27-1.74-5.3-3.69-12-5.77L22.83,20a11,11,0,0,0,4.58-7.54c-.49.11-1.07.21-1.76.3a9.54,9.54,0,0,1-4.18,6.32.69.69,0,0,0-.36.66l.49,4.05-.33.17L21,24a6.48,6.48,0,0,1-.78.26l-.15.05a8.45,8.45,0,0,1-4.12,0l-.19-.06A6.59,6.59,0,0,1,15,24c-.1,0-.19-.08-.29-.12l-.32-.16.49-4.05a.69.69,0,0,0-.36-.66,9.54,9.54,0,0,1-4.18-6.32c-.69-.09-1.27-.19-1.76-.3A11.05,11.05,0,0,0,13.17,20l-.43,3.63c-6.66,2.09-10.69,4-12,5.77-1.6,2.19-.27,9.25-.11,10L.78,40H35.22l.11-.59C35.49,38.61,36.82,31.55,35.22,29.36ZM10.15,30.62l-1.69-4c1.44-.56,3.08-1.12,4.9-1.7l.06,0a10.34,10.34,0,0,0,1,.46h0a10.11,10.11,0,0,0,7.08,0l0,0a9,9,0,0,0,1-.45l.06,0c1.83.58,3.46,1.14,4.9,1.7l-1.69,4Zm-7.95-.5a10.11,10.11,0,0,1,3.56-2.36l1.68,4v6.8H2.21C1.7,35.71,1.31,31.34,2.2,30.12Zm31.59,8.45H28.56v-6.8l1.68-4a9.92,9.92,0,0,1,3.56,2.36C34.69,31.34,34.3,35.71,33.79,38.57Z"/><path class="cls-1" d="M18,11.67c5.83,0,10.56-.58,10.56-1.29,0-.16-.25-.31-.67-.45V8.43C27.89,3.77,23.46,0,18,0S8.11,3.77,8.11,8.43v1.5c-.42.14-.67.29-.67.45C7.44,11.09,12.17,11.67,18,11.67Z"/></g></g></svg>