<?xml version="1.0" encoding="utf-8"?>
<!-- Generator: Adobe Illustrator 25.3.1, SVG Export Plug-In . SVG Version: 6.00 Build 0)  -->
<svg version="1.1" id="Capa_1" xmlns="http://www.w3.org/2000/svg" xmlns:xlink="http://www.w3.org/1999/xlink" x="0px" y="0px"
	 viewBox="0 0 36 40" style="enable-background:new 0 0 36 40;" xml:space="preserve">
<style type="text/css">
	.st0{fill:#FFFFFF;}
</style>
<g id="Capa_2_1_">
	<g id="Capa_5">
		<path class="st0" d="M35.2,29.4c-1.3-1.7-5.3-3.7-12-5.8L22.8,20c2.5-1.8,4.2-4.5,4.6-7.5c-0.5,0.1-1.1,0.2-1.8,0.3
			c-0.5,2.6-2,4.9-4.2,6.3c-0.2,0.1-0.4,0.4-0.4,0.7l0.5,4.1L21.3,24L21,24c-0.3,0.1-0.5,0.2-0.8,0.3l-0.1,0c-1.4,0.3-2.8,0.3-4.1,0
			l-0.2-0.1c-0.3-0.1-0.5-0.2-0.8-0.2c-0.1,0-0.2-0.1-0.3-0.1l-0.3-0.2l0.5-4.1c0-0.3-0.1-0.5-0.4-0.7c-2.2-1.4-3.7-3.7-4.2-6.3
			c-0.7-0.1-1.3-0.2-1.8-0.3c0.4,3.1,2.1,5.8,4.6,7.6l-0.4,3.6c-6.7,2.1-10.7,4-12,5.8c-1.6,2.2-0.3,9.2-0.1,10L0.8,40h34.4l0.1-0.6
			C35.5,38.6,36.8,31.5,35.2,29.4z M10.1,30.6l-1.7-4c1.4-0.6,3.1-1.1,4.9-1.7h0.1c0.3,0.2,0.7,0.3,1,0.5l0,0c2.3,0.9,4.8,0.9,7.1,0
			l0,0c0.3-0.1,0.7-0.3,1-0.5h0.1c1.8,0.6,3.5,1.1,4.9,1.7l-1.7,4L10.1,30.6z M2.2,30.1c1-1,2.2-1.8,3.6-2.4l1.7,4v6.8H2.2
			C1.7,35.7,1.3,31.3,2.2,30.1z M33.8,38.6h-5.2v-6.8l1.7-4c1.3,0.5,2.6,1.3,3.6,2.4C34.7,31.3,34.3,35.7,33.8,38.6z"/>
		<path class="st0" d="M18,11.7c5.8,0,10.6-0.6,10.6-1.3c0-0.2-0.2-0.3-0.7-0.4V8.4C27.9,3.8,23.5,0,18,0S8.1,3.8,8.1,8.4v1.5
			c-0.4,0.1-0.7,0.3-0.7,0.4C7.4,11.1,12.2,11.7,18,11.7z"/>
	</g>
</g>
</svg>
