<svg xmlns="http://www.w3.org/2000/svg" viewBox="0 0 36 40"><defs><style>.cls-1{fill:#fff;}</style></defs><g id="Capa_2" data-name="Capa 2"><g id="Capa_5" data-name="Capa 5"><path class="cls-1" d="M11.33,40a1.14,1.14,0,0,1-.62-.75c-.26-.76-.56-1.51-.82-2.27a.48.48,0,0,0-.54-.4c-1.68,0-3.36,0-5,0-.86,0-1.1-.25-1.1-1.12q0-8.25,0-16.49a2.34,2.34,0,0,0-.15-.83c-1-2.7-1.95-5.4-2.92-8.1C-.15,9.29,0,8.94.76,8.67l2.18-.8a.34.34,0,0,0,.27-.39c0-1,0-2,0-3.05,0-.76.27-1,1-1,1.47,0,2.94,0,4.41,0a.94.94,0,0,0,.6-.26c.9-.87,1.78-1.78,2.67-2.67A2.43,2.43,0,0,1,12.21.2.71.71,0,0,1,13.1.15a.69.69,0,0,1,.32.84.39.39,0,0,0,.13.47c.18.16.35.35.53.52A2.42,2.42,0,0,1,15,3.41l.43-.13L23.81.18,24.1.07a.8.8,0,0,1,1.14.54c.31.81.61,1.63.89,2.46a.4.4,0,0,0,.46.33c.82,0,1.63,0,2.45,0s1,.27,1,1v9a2.22,2.22,0,0,0,.14.76Q33,22,35.87,29.93c.28.76.12,1.11-.62,1.38-1.64.61-3.27,1.22-4.91,1.8a.41.41,0,0,0-.33.47c0,.67,0,1.33,0,2s-.27,1-1,1c-2.56,0-5.12,0-7.68,0a2.68,2.68,0,0,0-.79.14l-8.61,3.18-.21.09Zm17.11-5V5H15.78c.53.38.92.82.76,1.39a7.4,7.4,0,0,1-.78,1.49c.24.23.57.53.89.85a.77.77,0,0,1,.21.89.76.76,0,0,1-1.28.22c-.34-.31-.64-.67-1-1.08a2.79,2.79,0,0,1-.29.39A1.37,1.37,0,0,1,11.9,9L11,7.84a1.47,1.47,0,0,1-2-.5c-.2-.22-.43-.42-.63-.64a.36.36,0,0,0-.46-.12.7.7,0,0,1-.82-.3.71.71,0,0,1,0-.87c.09-.13.2-.26.32-.41H4.78V35Zm5.81-5L30.09,18.53l-.05,0v13ZM12.33,2.35,9.22,5.47a6.66,6.66,0,0,1,.51.44c.16.16.29.35.42.5a1.44,1.44,0,0,1,2,.47c.31.4.62.78.9,1.13l1.75-1.75s0,0,0,0l-1.24-1a1.32,1.32,0,0,1-.45-1.69.37.37,0,0,0,0-.31C12.87,2.93,12.59,2.64,12.33,2.35Zm7.5,1,0,.06h4.74L24,1.77Zm-8.42,33.3L12,38.22l4.19-1.55,0-.06ZM3.12,13.75l0,0V9.45L1.75,10Z"/><path class="cls-1" d="M6.36,26.29a4.17,4.17,0,0,1,4.2-4.19,4.22,4.22,0,1,1-4.2,4.19Zm1.55,0a2.63,2.63,0,1,0,2.61-2.64A2.62,2.62,0,0,0,7.91,26.3Z"/><path class="cls-1" d="M10.54,20.1a4.21,4.21,0,1,1,4.18-4.2A4.18,4.18,0,0,1,10.54,20.1Zm0-1.57a2.65,2.65,0,1,0-2.64-2.61A2.64,2.64,0,0,0,10.55,18.53Z"/><path class="cls-1" d="M21.55,28.69H17.17c-.54,0-.84-.23-.9-.66a.74.74,0,0,1,.53-.84,2.42,2.42,0,0,1,.54-.06h8.45a3,3,0,0,1,.42,0,.75.75,0,0,1,.66.78.77.77,0,0,1-.75.75H21.55Z"/><path class="cls-1" d="M21.54,18.27c-1.42,0-2.84,0-4.26,0a2.07,2.07,0,0,1-.5-.05.77.77,0,0,1,0-1.45,1.7,1.7,0,0,1,.46-.06h8.68c.51,0,.82.19.93.55a.78.78,0,0,1-.84,1C24.51,18.28,23,18.27,21.54,18.27Z"/><path class="cls-1" d="M20.17,25.47h-3.1a.76.76,0,0,1-.75-.46.68.68,0,0,1,.15-.83,1.2,1.2,0,0,1,.66-.26c2,0,4,0,6,0a.8.8,0,0,1,.89.82c0,.46-.35.74-.91.74C22.16,25.48,21.16,25.47,20.17,25.47Z"/><path class="cls-1" d="M20.19,13.5h2.94c.58,0,.92.29.93.77s-.34.79-.91.79h-6a.79.79,0,0,1-.89-.77c0-.47.35-.78.91-.79Z"/><path class="cls-1" d="M25.35,24.68a.74.74,0,0,1,.77-.75.76.76,0,0,1,.76.77.78.78,0,0,1-.8.77A.75.75,0,0,1,25.35,24.68Z"/><path class="cls-1" d="M25.35,14.27a.75.75,0,0,1,.76-.76.77.77,0,0,1,.77.76.79.79,0,0,1-.75.79A.77.77,0,0,1,25.35,14.27Z"/><path class="cls-1" d="M10.28,27.81a13.58,13.58,0,0,1-1.44-.7.64.64,0,0,1-.15-.88.71.71,0,0,1,.8-.41h0c.56.35.91,0,1.25-.38a2.84,2.84,0,0,1,.55-.49.72.72,0,0,1,.92.14.68.68,0,0,1,.08.92c-.5.56-1,1.08-1.58,1.61C10.66,27.72,10.5,27.73,10.28,27.81Z"/><path class="cls-1" d="M8.61,16.12a.72.72,0,0,1,1-.67.74.74,0,0,0,1-.28,3.2,3.2,0,0,1,.52-.52.77.77,0,0,1,1.08,1.09c-.44.48-.91.92-1.36,1.38l0,0c-.67.47-1.19-.09-1.76-.27A.71.71,0,0,1,8.61,16.12Z"/></g></g></svg>