<svg xmlns="http://www.w3.org/2000/svg" viewBox="0 0 36 40"><defs><style>.cls-1{fill:#727176;}</style></defs><g id="Capa_2" data-name="Capa 2"><g id="Capa_5" data-name="Capa 5"><path class="cls-1" d="M32.59,6.67l3.16-4.54A1.41,1.41,0,0,0,35.87.74,1.24,1.24,0,0,0,34.76,0H21.1a1.29,1.29,0,0,0-1.24,1.33v12H13.62a7,7,0,0,0,1.28-4A6.45,6.45,0,0,0,8.69,2.67,6.45,6.45,0,0,0,2.48,9.33a6.92,6.92,0,0,0,1.58,4.41C1.54,16,.4,18.83,0,24c0,2.24,0,4.76,2.69,5.25L3.76,35c.71,3,2.64,5,4.93,5s4.22-2,4.94-5.07l1.22-6.56a23.62,23.62,0,0,0,1.23-5.93l3.78-.81v17a1.24,1.24,0,1,0,2.48,0V21.33a1.38,1.38,0,0,0,0-.2,3.88,3.88,0,0,0,2.52-3.8,3.89,3.89,0,0,0-2.49-3.78v-.22H34.76a1.23,1.23,0,0,0,1.11-.73,1.43,1.43,0,0,0-.12-1.4Zm-10.25,4v-8h9.94L30,5.87a1.42,1.42,0,0,0,0,1.6l2.24,3.2ZM8.69,5.33a3.88,3.88,0,0,1,3.72,4,3.87,3.87,0,0,1-3.72,4A3.87,3.87,0,0,1,5,9.33,3.88,3.88,0,0,1,8.69,5.33ZM21.1,18.67l-.24,0L14.78,20a1.27,1.27,0,0,0-.28.06,1.32,1.32,0,0,0-.85,1.23,21,21,0,0,1-1.15,6.24.83.83,0,0,0-.06.21l-1.23,6.6c-.42,1.82-1.41,3-2.52,3s-2.1-1.17-2.51-2.93L4.94,27.74a1.26,1.26,0,0,0-1.22-1.07c-1.24,0-1.24,0-1.24-2.56.39-5,1.49-6.88,3.26-8.4A1.26,1.26,0,0,0,6,15.47l.09-.13a5.69,5.69,0,0,0,.77.32l1,1.67L6.21,21.78l2.48,3.55,2.48-3.55L9.52,17.33l1-1.67a5.69,5.69,0,0,0,.77-.32l.09.13a1,1,0,0,0,.22.23c.38.34.38.34,9.47.3a1.22,1.22,0,0,1,1.23,1.33A1.23,1.23,0,0,1,21.1,18.67Z"/></g></g></svg>