<svg id="Capa_1" data-name="Capa 1" xmlns="http://www.w3.org/2000/svg" viewBox="0 0 650.72 169.38"><defs><style>.cls-1{fill:#231f20;stroke:#231f20;stroke-miterlimit:10;stroke-width:0.72px;}.cls-2{fill:#f6f6f6;}</style></defs><rect class="cls-1" x="0.36" y="0.36" width="650" height="168.66"/><path class="cls-2" d="M156.34,57.7H165V37.8h-8.63V29.88h27.29V37.8H175V57.7h8.63v7.92H156.34Z" transform="translate(0.13 0.13)"/><path class="cls-2" d="M191,29.88h10.15l6.35,16,3.09,8h.24c-.47-3.84-1.4-9.23-1.4-13.63V29.88H219V65.62H208.82l-6.36-16-3.09-8h-.23c.46,4.07,1.4,9.23,1.4,13.63V65.62H191Z" transform="translate(0.13 0.13)"/><path class="cls-2" d="M227.94,29.88h25.95V37.8H238v6.82h13.64v7.92H238V65.62h-10Z" transform="translate(0.13 0.13)"/><path class="cls-2" d="M259.43,47.59c0-12.1,6.29-18.37,15.51-18.37s15.5,6.27,15.5,18.37c0,12.42-6.29,18.69-15.5,18.69S259.43,60,259.43,47.59Zm20.75,0c0-6.82-2-10.23-5.24-10.23s-5.25,3.41-5.25,10.23c0,7.14,2,10.55,5.25,10.55S280.18,54.73,280.18,47.59Z" transform="translate(0.13 0.13)"/><path class="cls-2" d="M295.81,29.88h14.11c8.16,0,15.16,2.64,15.16,11.55,0,8.63-7,12.2-15.16,12.2h-4.08v12h-10Zm13.41,16.28c4,0,6.06-1.65,6.06-4.73s-2.1-4.07-6.06-4.07h-3.38v8.8Zm5.65-1.27,12.31,20.73H316l-7.87-14.46Z" transform="translate(0.13 0.13)"/><path class="cls-2" d="M330.44,29.88h10.21l3.09,11.66,1.05,4.62H345l1.05-4.62,3.09-11.66h10.2V65.62h-8.28V57.21c0-4.24.82-14,1.29-18.15h-.18L349,49.67l-2,6.49h-4.43l-2.1-6.49-2.91-10.61h-.24c.47,4.18,1.29,13.91,1.29,18.15v8.41h-8.17Z" transform="translate(0.13 0.13)"/><path class="cls-2" d="M373.82,29.88H386l11.43,35.74H386.77l-4.26-17.37c-.82-3.41-1.93-7.7-2.74-11.33h-.23c-.82,3.63-1.81,7.92-2.63,11.33l-4.25,17.37H362.39Zm-3.2,20.84H389V58H370.62Z" transform="translate(0.13 0.13)"/><path class="cls-2" d="M400.29,48c0-12,8.28-18.81,18.54-18.81a17.59,17.59,0,0,1,11.66,4.62L425,39.67a9.22,9.22,0,0,0-6.18-2.31c-4.66,0-8.28,3.85-8.28,10.34,0,6.7,3.62,10.44,8.75,10.44a8.74,8.74,0,0,0,6.18-2.86L431,61a16.49,16.49,0,0,1-12.71,5.28C408.81,66.28,400.29,60.23,400.29,48Z" transform="translate(0.13 0.13)"/><path class="cls-2" d="M436.21,57.7h8.63V37.8h-8.63V29.88H463.5V37.8h-8.63V57.7h8.63v7.92H436.21Z" transform="translate(0.13 0.13)"/><path class="cls-2" d="M469.33,47.59c0-12.1,6.29-18.37,15.51-18.37s15.5,6.27,15.5,18.37c0,12.42-6.29,18.69-15.5,18.69S469.33,60,469.33,47.59Zm8.74-23.76,10.61-7.92L493.93,22l-11.43,6.6Zm12,23.76c0-6.82-2-10.23-5.24-10.23s-5.25,3.41-5.25,10.23c0,7.14,2,10.55,5.25,10.55S490.08,54.73,490.08,47.59Z" transform="translate(0.13 0.13)"/><path class="cls-2" d="M505.83,29.88H516l6.36,16,3.09,8h.23c-.47-3.84-1.4-9.23-1.4-13.63V29.88h9.56V65.62H523.67l-6.36-16-3.09-8H514c.47,4.07,1.4,9.23,1.4,13.63V65.62h-9.56Z" transform="translate(0.13 0.13)"/><path class="cls-2" d="M76.86,95.88h25.78v7.92H86.89v5.61H100.3v7.92H86.89v6.37h16.33v7.92H76.86Z" transform="translate(0.13 0.13)"/><path class="cls-2" d="M108.93,113.59c0-12.1,6.3-18.37,15.51-18.37S140,101.49,140,113.59c0,12.42-6.3,18.69-15.51,18.69S108.93,126,108.93,113.59Zm20.76,0c0-6.82-2-10.23-5.25-10.23s-5.25,3.41-5.25,10.23c0,7.8,2,11,5.25,11S129.69,121.39,129.69,113.59Zm-10,17.7,10.15-1c1.05,3.19,4.31,4,6.88,4a7.6,7.6,0,0,0,3.14-.77l1.75,6.93a12.15,12.15,0,0,1-6.06,1.32C127.65,141.74,122.11,137.45,119.66,131.29Z" transform="translate(0.13 0.13)"/><path class="cls-2" d="M145.32,117.76V95.88h10v23c0,3.08,1,5.28,4.2,5.28s4.32-2.2,4.32-5.28v-23h9.68v21.88c0,8.91-4.09,14.52-14,14.52S145.32,126.67,145.32,117.76Z" transform="translate(0.13 0.13)"/><path class="cls-2" d="M180.77,123.7h8.63V103.8h-8.63V95.88h27.28v7.92h-8.63v19.9h8.63v7.92H180.77Z" transform="translate(0.13 0.13)"/><path class="cls-2" d="M215.63,95.88h14.23c8.16,0,15.16,2.86,15.16,11.88,0,8.74-7.23,12.54-15.16,12.54h-4.2v11.32h-10Zm13.76,16.94c4,0,5.83-1.87,5.83-5.06s-2.1-4.4-5.83-4.4h-3.73v9.46Z" transform="translate(0.13 0.13)"/><path class="cls-2" d="M248.87,113.59c0-12.1,6.3-18.37,15.51-18.37s15.51,6.27,15.51,18.37c0,12.42-6.3,18.69-15.51,18.69S248.87,126,248.87,113.59Zm20.75,0c0-6.82-2-10.23-5.24-10.23s-5.25,3.41-5.25,10.23c0,7.14,2,10.55,5.25,10.55S269.62,120.73,269.62,113.59Z" transform="translate(0.13 0.13)"/><path class="cls-2" d="M320.58,95.88h10.91c10.84,0,18.48,5.06,18.48,17.71s-7.64,18-17.9,18H320.58ZM331,124c4.84,0,8.75-2.09,8.75-10.44s-3.91-10.12-8.75-10.12h-.35V124Z" transform="translate(0.13 0.13)"/><path class="cls-2" d="M356.74,95.88h25.77v7.92H366.76v5.61h13.41v7.92H366.76v6.37h16.33v7.92H356.74Z" transform="translate(0.13 0.13)"/><path class="cls-2" d="M389.39,127.17l5.71-6.49a17.11,17.11,0,0,0,9.68,3.46c3,0,4.2-.93,4.2-2.09,0-2.08-2-2.53-5.48-3.9l-4.73-1.87c-4.37-1.54-8-4.78-8-10,0-6.11,5.83-11.11,14.46-11.11A19.72,19.72,0,0,1,418.19,100l-5,5.94a14.35,14.35,0,0,0-8.51-2.58c-2.21,0-3.73.77-3.73,2.42s2.16,2.25,5.95,3.57l4.37,1.71c5.07,1.76,8,4.84,8,9.78,0,6-5.37,11.44-15.16,11.44A23.68,23.68,0,0,1,389.39,127.17Z" transform="translate(0.13 0.13)"/><path class="cls-2" d="M425.54,95.88h14.22c8.16,0,15.16,2.86,15.16,11.88,0,8.74-7.23,12.54-15.16,12.54h-4.2v11.32h-10Zm13.76,16.94c4,0,5.83-1.87,5.83-5.06s-2.1-4.4-5.83-4.4h-3.74v9.46Z" transform="translate(0.13 0.13)"/><path class="cls-2" d="M468.22,95.88h12.12l11.43,35.74H481.16l-4.26-17.37c-.81-3.41-1.92-7.7-2.74-11.33h-.23c-.82,3.63-1.81,7.92-2.62,11.33l-4.26,17.37H456.79ZM465,116.72h18.42V124H465Z" transform="translate(0.13 0.13)"/><path class="cls-2" d="M494.69,114c0-12,8.28-18.81,18.54-18.81a17.59,17.59,0,0,1,11.66,4.62l-5.48,5.83a9.24,9.24,0,0,0-6.18-2.31c-4.67,0-8.28,3.85-8.28,10.34,0,6.7,3.61,10.44,8.74,10.44a8.78,8.78,0,0,0,6.19-2.86l5.48,5.72a16.49,16.49,0,0,1-12.71,5.28C503.2,132.28,494.69,126.23,494.69,114Z" transform="translate(0.13 0.13)"/><path class="cls-2" d="M530.14,95.88h10v13.31h8.16V95.88h10v35.74h-10V117.43h-8.16v14.19h-10Z" transform="translate(0.13 0.13)"/><path class="cls-2" d="M563.72,113.59c0-12.1,6.3-18.37,15.51-18.37s15.51,6.27,15.51,18.37c0,12.42-6.3,18.69-15.51,18.69S563.72,126,563.72,113.59Zm20.76,0c0-6.82-2-10.23-5.25-10.23S574,106.77,574,113.59c0,7.14,2,10.55,5.25,10.55S584.48,120.73,584.48,113.59Z" transform="translate(0.13 0.13)"/></svg>