<svg id="Capa_1" data-name="Capa 1" xmlns="http://www.w3.org/2000/svg" viewBox="0 0 650.46 69.46"><defs><style>.cls-1{fill:#231f20;stroke:#231f20;stroke-miterlimit:10;stroke-width:0.46px;}.cls-2{fill:#f6f6f6;}</style></defs><rect class="cls-1" x="0.23" y="0.23" width="650" height="69"/><path class="cls-2" d="M100,35.08c0-8.28,5.39-13,12.08-13a11.15,11.15,0,0,1,7.6,3.19l-3.57,4a5.82,5.82,0,0,0-4-1.6c-3,0-5.4,2.66-5.4,7.14,0,4.64,2.36,7.22,5.7,7.22a5.55,5.55,0,0,0,4-2l3.57,3.95a10.46,10.46,0,0,1-8.28,3.65C105.5,47.7,100,43.52,100,35.08Z" transform="translate(0 0)"/><path class="cls-2" d="M128.3,22.54h7.91l7.44,24.7h-6.91l-2.78-12c-.53-2.35-1.25-5.31-1.78-7.82H132c-.53,2.51-1.18,5.47-1.71,7.82l-2.78,12h-6.68Zm-2.09,14.4h12V42h-12Z" transform="translate(0 0)"/><path class="cls-2" d="M145.86,22.54h9.19c5.32,0,9.88,1.83,9.88,8,0,6-4.56,8.44-9.88,8.44h-2.66v8.28h-6.53Zm8.74,11.25c2.58,0,4-1.14,4-3.27s-1.37-2.81-4-2.81h-2.21v6.08Zm3.68-.87,8,14.32H159l-5.13-10Z" transform="translate(0 0)"/><path class="cls-2" d="M168,35.08c0-8.36,5.2-13,11.62-13A10.05,10.05,0,0,1,187,25.28l-3.57,4a4.89,4.89,0,0,0-3.8-1.6c-2.7,0-4.9,2.66-4.9,7.14,0,4.64,1.71,7.22,5.24,7.22a2.94,2.94,0,0,0,1.68-.45V38.2h-3.08V32.88h8.89V44.66a12.44,12.44,0,0,1-7.87,3C173.22,47.7,168,43.52,168,35.08Z" transform="translate(0 0)"/><path class="cls-2" d="M196.7,22.54h7.9l7.45,24.7h-6.91l-2.78-12c-.53-2.35-1.25-5.31-1.78-7.82h-.15c-.54,2.51-1.18,5.47-1.71,7.82l-2.78,12h-6.68Zm-2.09,14.4h12V42h-12Z" transform="translate(0 0)"/><path class="cls-2" d="M237.29,22.54h7.1c7.07,0,12.05,3.5,12.05,12.24s-5,12.46-11.67,12.46h-7.48ZM244.05,42c3.15,0,5.7-1.45,5.7-7.22s-2.55-7-5.7-7h-.23V42Z" transform="translate(0 0)"/><path class="cls-2" d="M260.85,22.54h16.79V28H267.38v3.87h8.74v5.47h-8.74v4.41H278v5.47H260.85Z" transform="translate(0 0)"/><path class="cls-2" d="M305.15,35.08c0-8.28,5.4-13,12.09-13a11.11,11.11,0,0,1,7.59,3.19l-3.57,4a5.8,5.8,0,0,0-4-1.6c-3,0-5.4,2.66-5.4,7.14,0,4.64,2.36,7.22,5.7,7.22a5.57,5.57,0,0,0,4-2l3.57,3.95a10.46,10.46,0,0,1-8.28,3.65C310.7,47.7,305.15,43.52,305.15,35.08Z" transform="translate(0 0)"/><path class="cls-2" d="M327.34,34.78c0-8.36,4.11-12.69,10.11-12.69s10.11,4.33,10.11,12.69c0,8.59-4.11,12.92-10.11,12.92S327.34,43.37,327.34,34.78Zm13.53,0c0-4.71-1.29-7.07-3.42-7.07S334,30.07,334,34.78c0,4.94,1.29,7.29,3.42,7.29S340.87,39.72,340.87,34.78Z" transform="translate(0 0)"/><path class="cls-2" d="M350.83,22.54h6.65l2,8.06.68,3.19h.16L361,30.6l2-8.06h6.65v24.7h-5.39V41.43c0-2.93.53-9.65.83-12.54H365l-2.09,7.33-1.29,4.49h-2.89l-1.37-4.49-1.9-7.33h-.15c.31,2.89.84,9.61.84,12.54v5.81h-5.32Z" transform="translate(0 0)"/><path class="cls-2" d="M374.08,22.54h8.82c5.17,0,9.27,1.3,9.27,6.16A5.45,5.45,0,0,1,388,34v.15c3.5.68,5.24,2.51,5.24,5.78,0,5.09-4.25,7.29-9.57,7.29h-9.58Zm8.67,9.73c2.12,0,3-1.06,3-2.58s-.92-2.13-3-2.13h-2.13v4.71Zm.45,10c2.59,0,3.65-1,3.65-2.82s-1.06-2.58-3.65-2.58h-2.58v5.4Z" transform="translate(0 0)"/><path class="cls-2" d="M396.66,37.67V22.54h6.53V38.43c0,2.12.65,3.64,2.74,3.64s2.81-1.52,2.81-3.64V22.54H415V37.67c0,6.15-2.65,10-9.11,10S396.66,43.82,396.66,37.67Z" transform="translate(0 0)"/><path class="cls-2" d="M418.92,44.16l3.73-4.48a10.68,10.68,0,0,0,6.3,2.39c2,0,2.74-.64,2.74-1.44,0-1.44-1.29-1.75-3.57-2.7L425,36.64c-2.85-1.06-5.2-3.3-5.2-6.88,0-4.21,3.79-7.67,9.42-7.67a12.41,12.41,0,0,1,8.43,3.3l-3.26,4.11a9,9,0,0,0-5.55-1.79c-1.45,0-2.43.53-2.43,1.67s1.4,1.56,3.87,2.47L433.17,33c3.31,1.22,5.21,3.34,5.21,6.76,0,4.18-3.5,7.91-9.88,7.91A14.88,14.88,0,0,1,418.92,44.16Z" transform="translate(0 0)"/><path class="cls-2" d="M448.18,28h-7.1V22.54h20.74V28h-7.1V47.24h-6.54Z" transform="translate(0 0)"/><path class="cls-2" d="M465.36,41.77H471V28h-5.62V22.54h17.78V28h-5.62V41.77h5.62v5.47H465.36Z" transform="translate(0 0)"/><path class="cls-2" d="M488.08,22.54h8.82c5.16,0,9.27,1.3,9.27,6.16A5.45,5.45,0,0,1,502,34v.15c3.49.68,5.24,2.51,5.24,5.78,0,5.09-4.25,7.29-9.57,7.29h-9.58Zm8.67,9.73c2.12,0,3-1.06,3-2.58s-.91-2.13-3-2.13h-2.13v4.71Zm.45,10c2.58,0,3.65-1,3.65-2.82s-1.07-2.58-3.65-2.58h-2.58v5.4Z" transform="translate(0 0)"/><path class="cls-2" d="M512.1,22.54h6.53V41.77h10.53v5.47H512.1Z" transform="translate(0 0)"/><path class="cls-2" d="M534.44,22.54h16.8V28H541v3.87h8.73v5.47H541v4.41h10.64v5.47H534.44Z" transform="translate(0 0)"/></svg>