<svg id="Capa_1" data-name="Capa 1" xmlns="http://www.w3.org/2000/svg" viewBox="0 0 650.46 69.46"><defs><style>.cls-1{fill:#231f20;stroke:#231f20;stroke-miterlimit:10;stroke-width:0.46px;}.cls-2{fill:#f6f6f6;}</style></defs><rect class="cls-1" x="0.23" y="0.23" width="650" height="69"/><path class="cls-2" d="M19.54,40.83h5.63V27.08H19.54V21.61H37.32v5.47H31.7V40.83h5.62v5.48H19.54Z" transform="translate(0 0)"/><path class="cls-2" d="M42.11,21.61h6.61l4.15,11,2,5.54H55a89.07,89.07,0,0,1-.91-9.42V21.61h6.23v24.7H53.74L49.6,35.25l-2-5.51h-.15a90.32,90.32,0,0,1,.91,9.42v7.15H42.11Z" transform="translate(0 0)"/><path class="cls-2" d="M66.2,21.61H83.11v5.47H72.74v4.71h8.89v5.47H72.74v9.05H66.2Z" transform="translate(0 0)"/><path class="cls-2" d="M86.73,33.84c0-8.36,4.1-12.69,10.1-12.69s10.11,4.33,10.11,12.69c0,8.59-4.11,12.92-10.11,12.92S86.73,42.43,86.73,33.84Zm13.52,0c0-4.71-1.29-7.06-3.42-7.06s-3.42,2.35-3.42,7.06c0,4.94,1.29,7.3,3.42,7.3S100.25,38.78,100.25,33.84Z" transform="translate(0 0)"/><path class="cls-2" d="M110.44,21.61h9.19c5.32,0,9.88,1.82,9.88,8,0,6-4.56,8.43-9.88,8.43H117v8.29h-6.53Zm8.74,11.25c2.58,0,3.95-1.14,3.95-3.27s-1.37-2.81-3.95-2.81H117v6.08Zm3.68-.88,8,14.33h-7.3l-5.13-10Z" transform="translate(0 0)"/><path class="cls-2" d="M133,21.61h6.65l2,8.05.68,3.2h.16l.68-3.2,2-8h6.65v24.7h-5.39V40.49c0-2.92.53-9.65.83-12.54h-.11l-2.09,7.34-1.29,4.48h-2.89l-1.37-4.48L137.64,28h-.15c.31,2.89.84,9.62.84,12.54v5.82H133Z" transform="translate(0 0)"/><path class="cls-2" d="M161.28,21.61h7.9l7.45,24.7h-6.92l-2.77-12c-.53-2.36-1.25-5.32-1.79-7.83H165c-.53,2.51-1.18,5.47-1.71,7.83l-2.77,12h-6.69ZM159.19,36h12v5.05h-12Z" transform="translate(0 0)"/><path class="cls-2" d="M178.53,34.15c0-8.29,5.4-13,12.08-13a11.13,11.13,0,0,1,7.6,3.19l-3.57,4a5.8,5.8,0,0,0-4-1.59c-3,0-5.39,2.66-5.39,7.14s2.35,7.22,5.7,7.22a5.6,5.6,0,0,0,4-2l3.57,4a10.45,10.45,0,0,1-8.29,3.65C184.08,46.76,178.53,42.58,178.53,34.15Z" transform="translate(0 0)"/><path class="cls-2" d="M201.94,40.83h5.62V27.08h-5.62V21.61h17.78v5.47H214.1V40.83h5.62v5.48H201.94Z" transform="translate(0 0)"/><path class="cls-2" d="M223.52,33.84c0-8.36,4.11-12.69,10.11-12.69s10.11,4.33,10.11,12.69c0,8.59-4.11,12.92-10.11,12.92S223.52,42.43,223.52,33.84Zm5.7-16.41L236.14,12l3.42,4.18-7.45,4.56Zm7.83,16.41c0-4.71-1.29-7.06-3.42-7.06s-3.42,2.35-3.42,7.06c0,4.94,1.29,7.3,3.42,7.3S237.05,38.78,237.05,33.84Z" transform="translate(0 0)"/><path class="cls-2" d="M247.31,21.61h6.61l4.14,11,2,5.54h.15a86.51,86.51,0,0,1-.91-9.42V21.61h6.23v24.7h-6.61l-4.15-11.06-2-5.51h-.15a93.12,93.12,0,0,1,.91,9.42v7.15h-6.23Z" transform="translate(0 0)"/><path class="cls-2" d="M293.82,21.61h16.8v5.47H300.36V31h8.73v5.47h-8.73v4.4H311v5.48H293.82Z" transform="translate(0 0)"/><path class="cls-2" d="M314.72,33.84c0-8.36,4.11-12.69,10.11-12.69s10.1,4.33,10.1,12.69c0,8.59-4.1,12.92-10.1,12.92S314.72,42.43,314.72,33.84Zm13.53,0c0-4.71-1.29-7.06-3.42-7.06s-3.42,2.35-3.42,7.06c0,5.4,1.29,7.6,3.42,7.6S328.25,39.24,328.25,33.84Zm-6.54,12.24,6.61-.69c.69,2.21,2.81,2.74,4.49,2.74a4.88,4.88,0,0,0,2.05-.53L336,52.38a7.51,7.51,0,0,1-3.95.92A10.66,10.66,0,0,1,321.71,46.08Z" transform="translate(0 0)"/><path class="cls-2" d="M338.43,36.73V21.61H345V37.49c0,2.13.64,3.65,2.73,3.65s2.82-1.52,2.82-3.65V21.61h6.3V36.73c0,6.16-2.66,10-9.12,10S338.43,42.89,338.43,36.73Z" transform="translate(0 0)"/><path class="cls-2" d="M361.54,40.83h5.62V27.08h-5.62V21.61h17.78v5.47H373.7V40.83h5.62v5.48H361.54Z" transform="translate(0 0)"/><path class="cls-2" d="M384.26,21.61h9.27c5.32,0,9.88,2,9.88,8.21,0,6-4.71,8.66-9.88,8.66H390.8v7.83h-6.54Zm9,11.7c2.58,0,3.8-1.29,3.8-3.49s-1.37-3-3.8-3H390.8v6.53Z" transform="translate(0 0)"/><path class="cls-2" d="M405.92,33.84c0-8.36,4.1-12.69,10.11-12.69s10.1,4.33,10.1,12.69c0,8.59-4.1,12.92-10.1,12.92S405.92,42.43,405.92,33.84Zm13.53,0c0-4.71-1.3-7.06-3.42-7.06s-3.42,2.35-3.42,7.06c0,4.94,1.29,7.3,3.42,7.3S419.45,38.78,419.45,33.84Z" transform="translate(0 0)"/><path class="cls-2" d="M452.66,21.61h7.1c7.07,0,12.05,3.49,12.05,12.23s-5,12.47-11.67,12.47h-7.48Zm6.76,19.45c3.16,0,5.7-1.44,5.7-7.22s-2.54-7-5.7-7h-.23V41.06Z" transform="translate(0 0)"/><path class="cls-2" d="M476.22,21.61H493v5.47H482.75V31h8.74v5.47h-8.74v4.4h10.64v5.48H476.22Z" transform="translate(0 0)"/><path class="cls-2" d="M497.5,43.23l3.72-4.49a10.73,10.73,0,0,0,6.31,2.4c2,0,2.73-.65,2.73-1.45,0-1.44-1.29-1.74-3.57-2.69l-3.07-1.3c-2.85-1.06-5.21-3.3-5.21-6.87,0-4.22,3.8-7.68,9.42-7.68a12.44,12.44,0,0,1,8.44,3.31L513,28.56a9,9,0,0,0-5.55-1.78c-1.44,0-2.43.53-2.43,1.67s1.41,1.56,3.88,2.47l2.85,1.18c3.3,1.21,5.2,3.34,5.2,6.76,0,4.18-3.49,7.9-9.88,7.9A14.88,14.88,0,0,1,497.5,43.23Z" transform="translate(0 0)"/><path class="cls-2" d="M521.06,21.61h9.27c5.32,0,9.88,2,9.88,8.21,0,6-4.71,8.66-9.88,8.66h-2.74v7.83h-6.53Zm9,11.7c2.58,0,3.8-1.29,3.8-3.49s-1.37-3-3.8-3h-2.44v6.53Z" transform="translate(0 0)"/><path class="cls-2" d="M548.87,21.61h7.91l7.44,24.7h-6.91l-2.78-12c-.53-2.36-1.25-5.32-1.78-7.83h-.15c-.54,2.51-1.18,5.47-1.71,7.83l-2.78,12h-6.68ZM546.78,36h12v5.05h-12Z" transform="translate(0 0)"/><path class="cls-2" d="M566.12,34.15c0-8.29,5.4-13,12.09-13a11.15,11.15,0,0,1,7.6,3.19l-3.57,4a5.83,5.83,0,0,0-4-1.59c-3,0-5.4,2.66-5.4,7.14s2.36,7.22,5.7,7.22a5.58,5.58,0,0,0,4-2l3.57,4a10.43,10.43,0,0,1-8.28,3.65C571.67,46.76,566.12,42.58,566.12,34.15Z" transform="translate(0 0)"/><path class="cls-2" d="M589.23,21.61h6.53V30.8h5.32V21.61h6.54v24.7h-6.54V36.5h-5.32v9.81h-6.53Z" transform="translate(0 0)"/><path class="cls-2" d="M611.12,33.84c0-8.36,4.1-12.69,10.1-12.69s10.11,4.33,10.11,12.69c0,8.59-4.1,12.92-10.11,12.92S611.12,42.43,611.12,33.84Zm13.52,0c0-4.71-1.29-7.06-3.42-7.06s-3.42,2.35-3.42,7.06c0,4.94,1.3,7.3,3.42,7.3S624.64,38.78,624.64,33.84Z" transform="translate(0 0)"/></svg>