<svg id="Capa_1" data-name="Capa 1" xmlns="http://www.w3.org/2000/svg" viewBox="0 0 650.72 169.38"><defs><style>.cls-1{fill:#231f20;stroke:#231f20;stroke-miterlimit:10;stroke-width:0.72px;}.cls-2{fill:#f6f6f6;}</style></defs><rect class="cls-1" x="0.36" y="0.36" width="650" height="168.66"/><path class="cls-2" d="M141.35,34.54c0-15.69,10.23-24.62,22.9-24.62A21.09,21.09,0,0,1,178.65,16l-6.77,7.63a11,11,0,0,0-7.63-3c-5.76,0-10.22,5.05-10.22,13.54,0,8.79,4.46,13.68,10.8,13.68a10.56,10.56,0,0,0,7.63-3.74l6.77,7.49c-3.89,4.61-9.36,6.91-15.7,6.91C151.87,58.45,141.35,50.53,141.35,34.54Z" transform="translate(0.13 0.13)"/><path class="cls-2" d="M195.07,10.78h15l14.12,46.81H211.05l-5.26-22.76c-1-4.46-2.37-10.08-3.38-14.83h-.29c-1,4.75-2.23,10.37-3.24,14.83l-5.25,22.76H181Zm-4,27.29h22.75v9.58H191.11Z" transform="translate(0.13 0.13)"/><path class="cls-2" d="M228.33,10.78h17.42c10.08,0,18.73,3.46,18.73,15.12,0,11.31-8.65,16-18.73,16h-5v15.7H228.33ZM244.89,32.1c4.9,0,7.49-2.16,7.49-6.2s-2.59-5.33-7.49-5.33h-4.18V32.1Zm7-1.66,15.2,27.15H253.24l-9.72-18.94Z" transform="translate(0.13 0.13)"/><path class="cls-2" d="M270.23,34.54c0-15.84,9.87-24.62,22-24.62a19.05,19.05,0,0,1,14,6.05l-6.76,7.63a9.33,9.33,0,0,0-7.2-3c-5.12,0-9.29,5.05-9.29,13.54,0,8.79,3.24,13.68,9.93,13.68a5.43,5.43,0,0,0,3.17-.86V40.45h-5.83V30.37H307.1V52.69a23.6,23.6,0,0,1-14.91,5.76C280.17,58.45,270.23,50.53,270.23,34.54Z" transform="translate(0.13 0.13)"/><path class="cls-2" d="M324.66,10.78h15l14.11,46.81h-13.1l-5.26-22.76C334.38,30.37,333,24.75,332,20h-.29c-1,4.75-2.23,10.37-3.24,14.83l-5.26,22.76H310.55Zm-4,27.29h22.76v9.58H320.7Z" transform="translate(0.13 0.13)"/><path class="cls-2" d="M401.56,10.78H415c13.4,0,22.83,6.63,22.83,23.19s-9.43,23.62-22.11,23.62H401.56Zm12.82,36.87c6,0,10.8-2.74,10.8-13.68s-4.83-13.25-10.8-13.25h-.44V47.65Z" transform="translate(0.13 0.13)"/><path class="cls-2" d="M446.2,10.78H478V21.15H458.58V28.5h16.56V38.86H458.58v8.36h20.16V57.59H446.2Z" transform="translate(0.13 0.13)"/><path class="cls-2" d="M98.15,120.94c0-15.69,10.23-24.62,22.9-24.62a21.09,21.09,0,0,1,14.4,6.05L128.68,110a11,11,0,0,0-7.63-3c-5.76,0-10.22,5-10.22,13.53,0,8.79,4.46,13.68,10.8,13.68a10.56,10.56,0,0,0,7.63-3.74l6.77,7.49c-3.89,4.61-9.36,6.91-15.7,6.91C108.67,144.85,98.15,136.93,98.15,120.94Z" transform="translate(0.13 0.13)"/><path class="cls-2" d="M140.2,120.37c0-15.84,7.78-24.05,19.15-24.05s19.16,8.21,19.16,24.05c0,16.27-7.78,24.48-19.16,24.48S140.2,136.64,140.2,120.37Zm25.64,0c0-8.93-2.45-13.39-6.49-13.39s-6.48,4.46-6.48,13.39c0,9.36,2.45,13.82,6.48,13.82S165.84,129.73,165.84,120.37Z" transform="translate(0.13 0.13)"/><path class="cls-2" d="M184.7,97.18h12.6l3.81,15.27,1.3,6h.29l1.29-6,3.82-15.27h12.6V144H210.19V133c0-5.55,1-18.29,1.58-23.76h-.21l-4,13.89-2.44,8.5h-5.48l-2.59-8.5-3.6-13.89h-.29c.58,5.47,1.59,18.21,1.59,23.76v11H184.7Z" transform="translate(0.13 0.13)"/><path class="cls-2" d="M228.76,97.18h16.71c9.79,0,17.57,2.45,17.57,11.67a10.34,10.34,0,0,1-7.93,10.08v.29c6.63,1.29,9.94,4.75,9.94,10.94,0,9.65-8.06,13.83-18.14,13.83H228.76Zm16.42,18.44c4,0,5.76-2,5.76-4.9s-1.73-4-5.76-4h-4v8.93Zm.86,18.86c4.9,0,6.91-1.87,6.91-5.33s-2-4.89-6.91-4.89h-4.89v10.22Z" transform="translate(0.13 0.13)"/><path class="cls-2" d="M271.53,125.84V97.18h12.38v30.1c0,4,1.23,6.91,5.19,6.91s5.33-2.88,5.33-6.91V97.18h11.95v28.66c0,11.67-5,19-17.28,19S271.53,137.51,271.53,125.84Z" transform="translate(0.13 0.13)"/><path class="cls-2" d="M313.72,138.15l7.06-8.49c3.52,2.66,7.7,4.53,12,4.53,3.74,0,5.18-1.22,5.18-2.73,0-2.74-2.45-3.32-6.77-5.12l-5.83-2.44c-5.4-2-9.86-6.27-9.86-13,0-8,7.2-14.54,17.85-14.54a23.52,23.52,0,0,1,16,6.26l-6.19,7.78c-3.39-2.23-6.05-3.38-10.52-3.38-2.73,0-4.6,1-4.6,3.16s2.66,3,7.34,4.68l5.4,2.24c6.27,2.3,9.87,6.33,9.87,12.81,0,7.92-6.63,15-18.73,15A28.19,28.19,0,0,1,313.72,138.15Z" transform="translate(0.13 0.13)"/><path class="cls-2" d="M369.16,107.55H355.69V97.18H395v10.37H381.54V144H369.16Z" transform="translate(0.13 0.13)"/><path class="cls-2" d="M401.7,133.62h10.66V107.55H401.7V97.18h33.7v10.37H424.74v26.07H435.4V144H401.7Z" transform="translate(0.13 0.13)"/><path class="cls-2" d="M444.76,97.18h16.7c9.79,0,17.57,2.45,17.57,11.67a10.34,10.34,0,0,1-7.92,10.08v.29c6.63,1.29,9.94,4.75,9.94,10.94,0,9.65-8.07,13.83-18.15,13.83H444.76Zm16.41,18.44c4,0,5.76-2,5.76-4.9s-1.72-4-5.76-4h-4v8.93Zm.87,18.86c4.89,0,6.91-1.87,6.91-5.33s-2-4.89-6.91-4.89h-4.9v10.22Z" transform="translate(0.13 0.13)"/><path class="cls-2" d="M490.26,97.18h12.39v36.44h19.94V144H490.26Z" transform="translate(0.13 0.13)"/><path class="cls-2" d="M532.6,97.18h31.82v10.37H545v7.35h16.56v10.36H545v8.36h20.16V144H532.6Z" transform="translate(0.13 0.13)"/></svg>