<svg id="Capa_1" data-name="Capa 1" xmlns="http://www.w3.org/2000/svg" viewBox="0 0 650.72 169.38"><defs><style>.cls-1{fill:#231f20;stroke:#231f20;stroke-miterlimit:10;stroke-width:0.72px;}.cls-2{fill:#f6f6f6;}</style></defs><rect class="cls-1" x="0.36" y="0.36" width="650" height="168.66"/><path class="cls-2" d="M91,44.12c0-14.64,10.11-23,22.65-23a21.46,21.46,0,0,1,14.24,5.64l-6.69,7.12a11.32,11.32,0,0,0-7.55-2.82c-5.7,0-10.12,4.7-10.12,12.63,0,8.2,4.42,12.77,10.69,12.77A10.69,10.69,0,0,0,121.8,53l6.69,7c-3.84,4.3-9.26,6.45-15.52,6.45C101.43,66.43,91,59,91,44.12Z" transform="translate(0.13 0.13)"/><path class="cls-2" d="M132.62,43.59c0-14.78,7.69-22.44,18.95-22.44s19,7.66,19,22.44c0,15.18-7.7,22.84-19,22.84S132.62,58.77,132.62,43.59Zm25.36,0c0-8.33-2.42-12.5-6.41-12.5s-6.41,4.17-6.41,12.5c0,8.73,2.42,12.9,6.41,12.9S158,52.32,158,43.59Z" transform="translate(0.13 0.13)"/><path class="cls-2" d="M177.21,22H189.6l7.77,19.49,3.77,9.81h.29c-.57-4.71-1.71-11.29-1.71-16.67V22H211.4V65.62H199l-7.76-19.55-3.78-9.74h-.28c.57,5,1.71,11.29,1.71,16.66V65.62H177.21Z" transform="translate(0.13 0.13)"/><path class="cls-2" d="M230.91,31.63H217.59V22h38.89v9.68H243.16v34H230.91Z" transform="translate(0.13 0.13)"/><path class="cls-2" d="M262.53,22h17.24c10,0,18.52,3.23,18.52,14.11,0,10.55-8.55,14.92-18.52,14.92h-5V65.62H262.53Zm16.38,19.89c4.85,0,7.41-2,7.41-5.78s-2.56-5-7.41-5h-4.13V41.84Zm6.91-1.54,15,25.32H287.18L277.56,48Z" transform="translate(0.13 0.13)"/><path class="cls-2" d="M303.56,43.59c0-14.78,7.69-22.44,18.94-22.44s18.95,7.66,18.95,22.44c0,15.18-7.69,22.84-18.95,22.84S303.56,58.77,303.56,43.59Zm25.35,0c0-8.33-2.42-12.5-6.41-12.5s-6.41,4.17-6.41,12.5c0,8.73,2.42,12.9,6.41,12.9S328.91,52.32,328.91,43.59Z" transform="translate(0.13 0.13)"/><path class="cls-2" d="M350.71,22H363V56h19.73v9.67h-32Z" transform="translate(0.13 0.13)"/><path class="cls-2" d="M433.89,22h13.32c13.25,0,22.58,6.18,22.58,21.64s-9.33,22-21.86,22h-14Zm12.68,34.4c5.91,0,10.69-2.55,10.69-12.76s-4.78-12.37-10.69-12.37h-.43V56.35Z" transform="translate(0.13 0.13)"/><path class="cls-2" d="M478.05,22h31.48v9.68H490.3v6.85h16.39v9.68H490.3V56h19.95v9.67h-32.2Z" transform="translate(0.13 0.13)"/><path class="cls-2" d="M90.6,140.8l7-7.93a20.83,20.83,0,0,0,11.83,4.24c3.7,0,5.12-1.14,5.12-2.56,0-2.55-2.42-3.09-6.69-4.77l-5.77-2.28c-5.34-1.88-9.76-5.85-9.76-12.16,0-7.46,7.12-13.57,17.66-13.57a24.09,24.09,0,0,1,15.82,5.84l-6.13,7.26a17.53,17.53,0,0,0-10.4-3.16c-2.7,0-4.56.94-4.56,3s2.64,2.75,7.27,4.36l5.34,2.09c6.2,2.15,9.76,5.91,9.76,12,0,7.39-6.55,14-18.52,14A28.9,28.9,0,0,1,90.6,140.8Z" transform="translate(0.13 0.13)"/><path class="cls-2" d="M136.18,102.57h31.49v9.68H148.44v6.85h16.38v9.68H148.44v7.79h19.94v9.67h-32.2Z" transform="translate(0.13 0.13)"/><path class="cls-2" d="M177.07,102.57H194.3c10,0,18.52,3.23,18.52,14.11,0,10.55-8.55,14.92-18.52,14.92h-5v14.64H177.07Zm16.38,19.89c4.84,0,7.41-2,7.41-5.78s-2.57-5-7.41-5h-4.13v10.75Zm6.91-1.54,15,25.32H201.71l-9.62-17.67Z" transform="translate(0.13 0.13)"/><path class="cls-2" d="M216,102.57h13l4.84,19.08c1.28,4.64,2.14,9.14,3.42,13.85h.28c1.29-4.71,2.21-9.21,3.42-13.85l4.7-19.08h12.54l-13.68,43.67H229.63Z" transform="translate(0.13 0.13)"/><path class="cls-2" d="M263.1,136.57h10.54V112.25H263.1v-9.68h33.34v9.68H285.9v24.32h10.54v9.67H263.1Z" transform="translate(0.13 0.13)"/><path class="cls-2" d="M304.7,124.75c0-14.65,10.11-23,22.65-23a21.51,21.51,0,0,1,14.24,5.64l-6.69,7.12a11.32,11.32,0,0,0-7.55-2.82c-5.7,0-10.12,4.7-10.12,12.63,0,8.2,4.42,12.77,10.69,12.77a10.69,10.69,0,0,0,7.55-3.5l6.69,7c-3.84,4.3-9.26,6.45-15.53,6.45C315.1,147.05,304.7,139.66,304.7,124.75Z" transform="translate(0.13 0.13)"/><path class="cls-2" d="M348.57,136.57h10.54V112.25H348.57v-9.68H381.9v9.68H371.36v24.32H381.9v9.67H348.57Z" transform="translate(0.13 0.13)"/><path class="cls-2" d="M389,124.21c0-14.78,7.7-22.44,19-22.44s18.95,7.66,18.95,22.44c0,15.18-7.7,22.84-18.95,22.84S389,139.39,389,124.21Zm25.36,0c0-8.33-2.42-12.5-6.41-12.5s-6.41,4.17-6.41,12.5c0,8.73,2.42,12.9,6.41,12.9S414.38,132.94,414.38,124.21Z" transform="translate(0.13 0.13)"/><path class="cls-2" d="M432.47,140.8l7-7.93a20.83,20.83,0,0,0,11.82,4.24c3.71,0,5.13-1.14,5.13-2.56,0-2.55-2.42-3.09-6.69-4.77l-5.77-2.28c-5.35-1.88-9.76-5.85-9.76-12.16,0-7.46,7.12-13.57,17.66-13.57a24.09,24.09,0,0,1,15.82,5.84l-6.13,7.26a17.53,17.53,0,0,0-10.4-3.16c-2.71,0-4.56.94-4.56,3s2.64,2.75,7.27,4.36l5.34,2.09c6.2,2.15,9.76,5.91,9.76,12,0,7.39-6.56,14-18.52,14A28.88,28.88,0,0,1,432.47,140.8Z" transform="translate(0.13 0.13)"/></svg>