<svg id="Capa_1" data-name="Capa 1" xmlns="http://www.w3.org/2000/svg" viewBox="0 0 650.72 169.38"><defs><style>.cls-1{fill:#231f20;stroke:#231f20;stroke-miterlimit:10;stroke-width:0.72px;}.cls-2{fill:#f6f6f6;}</style></defs><rect class="cls-1" x="0.36" y="0.36" width="650" height="168.66"/><path class="cls-2" d="M55,34.54C55,18.85,65.18,9.92,77.85,9.92A21.09,21.09,0,0,1,92.25,16L85.49,23.6a11.06,11.06,0,0,0-7.64-3c-5.76,0-10.22,5.05-10.22,13.54,0,8.79,4.46,13.68,10.8,13.68a10.54,10.54,0,0,0,7.63-3.74l6.77,7.49c-3.89,4.61-9.36,6.91-15.7,6.91C65.47,58.45,55,50.53,55,34.54Z" transform="translate(0.13 0.13)"/><path class="cls-2" d="M97,34c0-15.84,7.78-24,19.16-24s19.15,8.21,19.15,24c0,16.27-7.78,24.48-19.15,24.48S97,50.24,97,34Zm25.64,0c0-8.93-2.45-13.4-6.48-13.4S109.67,25,109.67,34c0,9.36,2.45,13.82,6.49,13.82S122.64,43.33,122.64,34Z" transform="translate(0.13 0.13)"/><path class="cls-2" d="M142.36,10.78h17.57c10.08,0,18.72,3.75,18.72,15.56,0,11.44-8.93,16.41-18.72,16.41h-5.18V57.59H142.36Zm17,22.18c4.9,0,7.21-2.45,7.21-6.62s-2.6-5.77-7.21-5.77h-4.6V33Z" transform="translate(0.13 0.13)"/><path class="cls-2" d="M185.71,47.22h10.65V21.15H185.71V10.78H219.4V21.15H208.75V47.22H219.4V57.59H185.71Z" transform="translate(0.13 0.13)"/><path class="cls-2" d="M238.27,10.78h15l14.12,46.81H254.25L249,34.83c-1-4.46-2.37-10.08-3.38-14.83h-.29c-1,4.75-2.23,10.37-3.24,14.83l-5.25,22.76H224.15Zm-4,27.29h22.76v9.58H234.3Z" transform="translate(0.13 0.13)"/><path class="cls-2" d="M314.15,34.54c0-15.69,10.23-24.62,22.9-24.62A21.09,21.09,0,0,1,351.45,16l-6.77,7.63a11,11,0,0,0-7.63-3c-5.76,0-10.23,5.05-10.23,13.54,0,8.79,4.47,13.68,10.8,13.68a10.56,10.56,0,0,0,7.64-3.74L352,51.54c-3.89,4.61-9.36,6.91-15.7,6.91C324.66,58.45,314.15,50.53,314.15,34.54Z" transform="translate(0.13 0.13)"/><path class="cls-2" d="M360.66,10.78h12.39V47.22H393V57.59H360.66Z" transform="translate(0.13 0.13)"/><path class="cls-2" d="M401.7,47.22h10.66V21.15H401.7V10.78h33.7V21.15H424.74V47.22H435.4V57.59H401.7Z" transform="translate(0.13 0.13)"/><path class="cls-2" d="M446.2,10.78H478V21.15H458.58V28.5h16.56V38.86H458.58v8.36h20.16V57.59H446.2Z" transform="translate(0.13 0.13)"/><path class="cls-2" d="M487.67,10.78H500.2l7.85,20.88,3.81,10.52h.29c-.58-5-1.73-12.1-1.73-17.86V10.78h11.81V57.59H509.7l-7.85-21L498,26.19h-.29c.58,5.33,1.73,12.1,1.73,17.86V57.59H487.67Z" transform="translate(0.13 0.13)"/><path class="cls-2" d="M542,21.15H528.49V10.78h39.32V21.15H554.34V57.59H542Z" transform="translate(0.13 0.13)"/><path class="cls-2" d="M575.8,10.78h31.82V21.15H588.18V28.5h16.56V38.86H588.18v8.36h20.16V57.59H575.8Z" transform="translate(0.13 0.13)"/><path class="cls-2" d="M166.12,92.86h10.23l-23.76,62.65H142.36Z" transform="translate(0.13 0.13)"/><path class="cls-2" d="M226.6,120.37c0-15.84,7.78-24.05,19.15-24.05s19.16,8.21,19.16,24.05c0,16.27-7.78,24.48-19.16,24.48S226.6,136.64,226.6,120.37Zm25.63,0c0-8.93-2.44-13.39-6.48-13.39s-6.48,4.46-6.48,13.39c0,10.22,2.45,14.4,6.48,14.4S252.23,130.59,252.23,120.37Zm-12.38,23.18,12.53-1.29c1.29,4.17,5.33,5.18,8.5,5.18a9,9,0,0,0,3.88-1l2.16,9.08a14.28,14.28,0,0,1-7.48,1.73C249.71,157.24,242.87,151.62,239.85,143.55Z" transform="translate(0.13 0.13)"/><path class="cls-2" d="M271.1,136.93c12.16-9.94,21.09-17.57,21.09-23.76,0-4.11-2.59-6-6.62-6-3.39,0-6.05,2.16-8.5,4.32l-6.55-6.63c5-5,9.58-7.34,16.78-7.34,9.79,0,16.63,5.91,16.63,15,0,7.34-7.63,15.41-15.12,21.74,2.52-.28,6-.57,8.21-.57h9.21V144H271.1Z" transform="translate(0.13 0.13)"/><path class="cls-2" d="M314.15,120.94c0-15.69,10.23-24.62,22.9-24.62a21.09,21.09,0,0,1,14.4,6.05L344.68,110a11,11,0,0,0-7.63-3c-5.76,0-10.23,5-10.23,13.53,0,8.79,4.47,13.68,10.8,13.68a10.56,10.56,0,0,0,7.64-3.74l6.77,7.49c-3.89,4.61-9.36,6.91-15.7,6.91C324.66,144.85,314.15,136.93,314.15,120.94Z" transform="translate(0.13 0.13)"/><path class="cls-2" d="M359.8,97.18h31.82v10.37H372.18v7.35h16.57v10.36H372.18v8.36h20.17V144H359.8Z" transform="translate(0.13 0.13)"/><path class="cls-2" d="M400.12,138.15l7.05-8.49c3.53,2.66,7.71,4.53,12,4.53,3.74,0,5.18-1.22,5.18-2.73,0-2.74-2.45-3.32-6.77-5.12l-5.83-2.44c-5.4-2-9.86-6.27-9.86-13,0-8,7.2-14.54,17.85-14.54a23.52,23.52,0,0,1,16,6.26l-6.19,7.78c-3.39-2.23-6.05-3.38-10.52-3.38-2.73,0-4.6,1-4.6,3.16s2.66,3,7.34,4.68l5.4,2.24c6.26,2.3,9.86,6.33,9.86,12.81,0,7.92-6.62,15-18.72,15A28.17,28.17,0,0,1,400.12,138.15Z" transform="translate(0.13 0.13)"/></svg>