<svg id="Capa_1" data-name="Capa 1" xmlns="http://www.w3.org/2000/svg" viewBox="0 0 650.72 169.38"><defs><style>.cls-1{fill:#231f20;stroke:#231f20;stroke-miterlimit:10;stroke-width:0.72px;}.cls-2{fill:#f6f6f6;}</style></defs><rect class="cls-1" x="0.36" y="0.36" width="650" height="168.66"/><path class="cls-2" d="M92.17,56h10.54V31.63H92.17V22H125.5v9.68H115V56H125.5v9.67H92.17Z" transform="translate(0.13 0.13)"/><path class="cls-2" d="M134.47,22h12.4l7.76,19.49,3.78,9.81h.28C158.12,46.54,157,40,157,34.58V22h11.68V65.62H156.27l-7.76-19.55-3.78-9.74h-.28c.57,5,1.71,11.29,1.71,16.66V65.62H134.47Z" transform="translate(0.13 0.13)"/><path class="cls-2" d="M179.63,22h31.7v9.68H191.88V40h16.67v9.67H191.88v16H179.63Z" transform="translate(0.13 0.13)"/><path class="cls-2" d="M218.09,43.59c0-14.78,7.69-22.44,18.95-22.44S256,28.81,256,43.59c0,15.18-7.69,22.84-18.94,22.84S218.09,58.77,218.09,43.59Zm25.36,0c0-8.33-2.43-12.5-6.41-12.5s-6.42,4.17-6.42,12.5c0,8.73,2.43,12.9,6.42,12.9S243.45,52.32,243.45,43.59Z" transform="translate(0.13 0.13)"/><path class="cls-2" d="M262.53,22h17.24c10,0,18.52,3.23,18.52,14.11,0,10.55-8.55,14.92-18.52,14.92h-5V65.62H262.53Zm16.38,19.89c4.85,0,7.41-2,7.41-5.78s-2.56-5-7.41-5h-4.13V41.84Zm6.91-1.54,15,25.32H287.18L277.56,48Z" transform="translate(0.13 0.13)"/><path class="cls-2" d="M304.84,22H317.3l3.78,14.25,1.28,5.64h.28l1.29-5.64L327.7,22h12.47V65.62H330.05V55.34c0-5.17,1-17.06,1.57-22.17h-.21l-3.92,13-2.42,7.93h-5.42l-2.56-7.93-3.56-13h-.29c.57,5.11,1.57,17,1.57,22.17V65.62h-10Z" transform="translate(0.13 0.13)"/><path class="cls-2" d="M357.83,22h14.81l14,43.67h-13l-5.2-21.23c-1-4.16-2.35-9.4-3.35-13.84h-.28c-1,4.44-2.21,9.68-3.21,13.84l-5.2,21.23H343.87Zm-3.92,25.47h22.51v8.93H353.91Z" transform="translate(0.13 0.13)"/><path class="cls-2" d="M390.16,44.12c0-14.64,10.12-23,22.65-23a21.49,21.49,0,0,1,14.25,5.64l-6.7,7.12a11.28,11.28,0,0,0-7.55-2.82c-5.7,0-10.11,4.7-10.11,12.63,0,8.2,4.41,12.77,10.68,12.77a10.67,10.67,0,0,0,7.55-3.5l6.7,7c-3.85,4.3-9.26,6.45-15.53,6.45C400.56,66.43,390.16,59,390.16,44.12Z" transform="translate(0.13 0.13)"/><path class="cls-2" d="M434,56h10.54V31.63H434V22h33.33v9.68H456.83V56h10.54v9.67H434Z" transform="translate(0.13 0.13)"/><path class="cls-2" d="M474.49,43.59c0-14.78,7.69-22.44,18.94-22.44s18.95,7.66,18.95,22.44c0,15.18-7.69,22.84-18.95,22.84S474.49,58.77,474.49,43.59Zm10.68-29,13-9.67,6.41,7.39-14,8.06Zm14.68,29c0-8.33-2.43-12.5-6.42-12.5S487,35.26,487,43.59c0,8.73,2.43,12.9,6.41,12.9S499.85,52.32,499.85,43.59Z" transform="translate(0.13 0.13)"/><path class="cls-2" d="M519.07,22h12.4l7.76,19.49L543,51.25h.28c-.57-4.71-1.71-11.29-1.71-16.67V22h11.68V65.62H540.87l-7.76-19.55-3.78-9.74H529c.58,5,1.71,11.29,1.71,16.66V65.62H519.07Z" transform="translate(0.13 0.13)"/><path class="cls-2" d="M8,102.57H39.47v9.68H20.23v6.85H36.62v9.68H20.23v7.79h20v9.67H8Z" transform="translate(0.13 0.13)"/><path class="cls-2" d="M47.16,124.21c0-14.78,7.69-22.44,18.94-22.44s19,7.66,19,22.44c0,15.18-7.69,22.84-19,22.84S47.16,139.39,47.16,124.21Zm25.35,0c0-8.33-2.42-12.5-6.41-12.5s-6.41,4.17-6.41,12.5c0,9.54,2.42,13.43,6.41,13.43S72.51,133.75,72.51,124.21ZM60.26,145.84l12.39-1.21c1.29,3.9,5.28,4.84,8.41,4.84a9.49,9.49,0,0,0,3.85-.94L87,157a14.83,14.83,0,0,1-7.4,1.62C70,158.61,63.25,153.37,60.26,145.84Z" transform="translate(0.13 0.13)"/><path class="cls-2" d="M91.6,129.31V102.57h12.25v28.09c0,3.76,1.21,6.45,5.13,6.45s5.27-2.69,5.27-6.45V102.57h11.82v26.74c0,10.89-5,17.74-17.09,17.74S91.6,140.2,91.6,129.31Z" transform="translate(0.13 0.13)"/><path class="cls-2" d="M134.9,136.57h10.54V112.25H134.9v-9.68h33.34v9.68H157.69v24.32h10.55v9.67H134.9Z" transform="translate(0.13 0.13)"/><path class="cls-2" d="M177.49,102.57h17.38c10,0,18.52,3.5,18.52,14.52,0,10.68-8.83,15.31-18.52,15.31h-5.13v13.84H177.49Zm16.81,20.7c4.85,0,7.12-2.29,7.12-6.18s-2.56-5.38-7.12-5.38h-4.56v11.56Z" transform="translate(0.13 0.13)"/><path class="cls-2" d="M218.09,124.21c0-14.78,7.69-22.44,18.95-22.44S256,109.43,256,124.21c0,15.18-7.69,22.84-18.94,22.84S218.09,139.39,218.09,124.21Zm25.36,0c0-8.33-2.43-12.5-6.41-12.5s-6.42,4.17-6.42,12.5c0,8.73,2.43,12.9,6.42,12.9S243.45,132.94,243.45,124.21Z" transform="translate(0.13 0.13)"/><path class="cls-2" d="M305.69,102.57H319c13.25,0,22.58,6.19,22.58,21.64s-9.33,22-21.87,22h-14ZM318.37,137c5.91,0,10.68-2.55,10.68-12.76s-4.77-12.36-10.68-12.36h-.43V137Z" transform="translate(0.13 0.13)"/><path class="cls-2" d="M349.85,102.57h31.48v9.68H362.1v6.85h16.38v9.68H362.1v7.79H382v9.67H349.85Z" transform="translate(0.13 0.13)"/><path class="cls-2" d="M389.73,140.8l7-7.93a20.88,20.88,0,0,0,11.83,4.24c3.7,0,5.13-1.14,5.13-2.56,0-2.55-2.42-3.09-6.7-4.77l-5.77-2.28c-5.34-1.88-9.76-5.85-9.76-12.16,0-7.46,7.13-13.57,17.67-13.57a24.09,24.09,0,0,1,15.81,5.84l-6.12,7.26a17.55,17.55,0,0,0-10.4-3.16c-2.71,0-4.56.94-4.56,3s2.63,2.75,7.26,4.36l5.35,2.09c6.19,2.15,9.75,5.91,9.75,12,0,7.39-6.55,14-18.52,14A28.9,28.9,0,0,1,389.73,140.8Z" transform="translate(0.13 0.13)"/><path class="cls-2" d="M433.89,102.57h17.38c10,0,18.52,3.5,18.52,14.52,0,10.68-8.83,15.31-18.52,15.31h-5.13v13.84H433.89Zm16.81,20.7c4.85,0,7.13-2.29,7.13-6.18s-2.57-5.38-7.13-5.38h-4.56v11.56Z" transform="translate(0.13 0.13)"/><path class="cls-2" d="M486,102.57h14.81l14,43.67h-13L496.64,125c-1-4.16-2.35-9.4-3.35-13.84H493c-1,4.44-2.21,9.68-3.21,13.84l-5.2,21.23H472.07ZM482.11,128h22.51V137H482.11Z" transform="translate(0.13 0.13)"/><path class="cls-2" d="M518.36,124.75c0-14.65,10.12-23,22.65-23a21.54,21.54,0,0,1,14.25,5.64l-6.7,7.12a11.3,11.3,0,0,0-7.55-2.82c-5.7,0-10.11,4.7-10.11,12.63,0,8.2,4.41,12.77,10.68,12.77a10.67,10.67,0,0,0,7.55-3.5l6.7,7c-3.85,4.3-9.26,6.45-15.53,6.45C528.76,147.05,518.36,139.66,518.36,124.75Z" transform="translate(0.13 0.13)"/><path class="cls-2" d="M561.66,102.57h12.26v16.26h10V102.57h12.25v43.67H583.89V128.91h-10v17.33H561.66Z" transform="translate(0.13 0.13)"/><path class="cls-2" d="M602.69,124.21c0-14.78,7.69-22.44,18.94-22.44s19,7.66,19,22.44c0,15.18-7.69,22.84-19,22.84S602.69,139.39,602.69,124.21Zm25.36,0c0-8.33-2.43-12.5-6.42-12.5s-6.41,4.17-6.41,12.5c0,8.73,2.43,12.9,6.41,12.9S628.05,132.94,628.05,124.21Z" transform="translate(0.13 0.13)"/></svg>