<svg id="Capa_1" data-name="Capa 1" xmlns="http://www.w3.org/2000/svg" viewBox="0 0 650.46 69.46"><defs><style>.cls-1{fill:#231f20;stroke:#231f20;stroke-miterlimit:10;stroke-width:0.46px;}.cls-2{fill:#f6f6f6;}</style></defs><rect class="cls-1" x="0.23" y="0.23" width="650" height="69"/><path class="cls-2" d="M63.91,21.42H71c7.07,0,12,3.49,12,12.23s-5,12.46-11.67,12.46H63.91Zm6.76,19.45c3.15,0,5.7-1.44,5.7-7.22s-2.55-7-5.7-7h-.23V40.87Z" transform="translate(0 0)"/><path class="cls-2" d="M87.46,21.42h16.8v5.47H94v3.88h8.74v5.47H94v4.4h10.64v5.47H87.46Z" transform="translate(0 0)"/><path class="cls-2" d="M108.75,43l3.72-4.49a10.7,10.7,0,0,0,6.31,2.4c2,0,2.73-.65,2.73-1.45,0-1.44-1.29-1.74-3.57-2.69l-3.08-1.3c-2.85-1.06-5.2-3.3-5.2-6.87,0-4.22,3.8-7.68,9.42-7.68a12.42,12.42,0,0,1,8.43,3.31l-3.26,4.1a9,9,0,0,0-5.55-1.78c-1.44,0-2.43.53-2.43,1.67s1.4,1.56,3.87,2.47L123,31.9c3.31,1.22,5.21,3.35,5.21,6.77,0,4.18-3.5,7.9-9.88,7.9A14.88,14.88,0,0,1,108.75,43Z" transform="translate(0 0)"/><path class="cls-2" d="M131.77,34c0-8.29,5.4-13,12.08-13a11.11,11.11,0,0,1,7.6,3.19l-3.57,4a5.8,5.8,0,0,0-4-1.59c-3,0-5.39,2.66-5.39,7.14,0,4.63,2.36,7.22,5.7,7.22a5.6,5.6,0,0,0,4-2l3.57,4a10.46,10.46,0,0,1-8.28,3.65C137.32,46.57,131.77,42.39,131.77,34Z" transform="translate(0 0)"/><path class="cls-2" d="M160.12,21.42H168l7.45,24.69h-6.92l-2.77-12c-.53-2.36-1.25-5.32-1.79-7.83h-.15c-.53,2.51-1.17,5.47-1.71,7.83l-2.77,12h-6.69ZM158,35.82h12v5H158Z" transform="translate(0 0)"/><path class="cls-2" d="M177.68,21.42h9.19c5.32,0,9.88,1.82,9.88,8,0,6-4.56,8.43-9.88,8.43h-2.66v8.28h-6.53Zm8.73,11.24c2.59,0,4-1.13,4-3.26s-1.37-2.81-4-2.81h-2.2v6.07Zm3.69-.87,8,14.32h-7.3l-5.13-10Z" transform="translate(0 0)"/><path class="cls-2" d="M199.79,34c0-8.36,5.21-13,11.63-13a10.07,10.07,0,0,1,7.37,3.19l-3.57,4a4.91,4.91,0,0,0-3.8-1.59c-2.7,0-4.9,2.66-4.9,7.14,0,4.63,1.71,7.22,5.24,7.22a2.84,2.84,0,0,0,1.67-.46V37.07h-3.08V31.75h8.89V43.53a12.43,12.43,0,0,1-7.86,3C205,46.57,199.79,42.39,199.79,34Z" transform="translate(0 0)"/><path class="cls-2" d="M228.52,21.42h7.9l7.45,24.69H237l-2.77-12c-.53-2.36-1.25-5.32-1.79-7.83h-.15c-.53,2.51-1.18,5.47-1.71,7.83l-2.77,12h-6.69Zm-2.09,14.4h12v5h-12Z" transform="translate(0 0)"/><path class="cls-2" d="M269.1,21.42h7.11c7.06,0,12,3.49,12,12.23s-5,12.46-11.66,12.46H269.1Zm6.76,19.45c3.16,0,5.7-1.44,5.7-7.22s-2.54-7-5.7-7h-.22V40.87Z" transform="translate(0 0)"/><path class="cls-2" d="M292.66,21.42h16.8v5.47H299.2v3.88h8.74v5.47H299.2v4.4h10.64v5.47H292.66Z" transform="translate(0 0)"/><path class="cls-2" d="M337,34c0-8.29,5.4-13,12.08-13a11.15,11.15,0,0,1,7.6,3.19l-3.57,4a5.82,5.82,0,0,0-4-1.59c-3,0-5.39,2.66-5.39,7.14,0,4.63,2.35,7.22,5.7,7.22a5.56,5.56,0,0,0,4-2l3.58,4a10.48,10.48,0,0,1-8.29,3.65C342.52,46.57,337,42.39,337,34Z" transform="translate(0 0)"/><path class="cls-2" d="M359.16,33.65c0-8.36,4.11-12.69,10.11-12.69s10.11,4.33,10.11,12.69c0,8.59-4.11,12.92-10.11,12.92S359.16,42.24,359.16,33.65Zm13.53,0c0-4.71-1.29-7.06-3.42-7.06s-3.42,2.35-3.42,7.06c0,4.94,1.29,7.3,3.42,7.3S372.69,38.59,372.69,33.65Z" transform="translate(0 0)"/><path class="cls-2" d="M382.64,21.42h6.65l2,8,.68,3.19h.15l.69-3.19,2-8h6.65V46.11H396.1V40.3c0-2.92.53-9.65.83-12.54h-.11l-2.09,7.34-1.29,4.48h-2.89l-1.37-4.48-1.9-7.34h-.15c.3,2.89.83,9.62.83,12.54v5.81h-5.32Z" transform="translate(0 0)"/><path class="cls-2" d="M405.9,21.42h8.81c5.17,0,9.28,1.29,9.28,6.15a5.45,5.45,0,0,1-4.18,5.32V33c3.49.69,5.24,2.51,5.24,5.78,0,5.09-4.26,7.29-9.58,7.29H405.9Zm8.66,9.73c2.13,0,3-1.07,3-2.59s-.91-2.13-3-2.13h-2.12v4.72Zm.46,10c2.58,0,3.65-1,3.65-2.81S417.6,35.7,415,35.7h-2.58v5.4Z" transform="translate(0 0)"/><path class="cls-2" d="M428.47,36.54V21.42H435V37.3c0,2.13.64,3.65,2.73,3.65s2.81-1.52,2.81-3.65V21.42h6.31V36.54c0,6.16-2.66,10-9.12,10S428.47,42.7,428.47,36.54Z" transform="translate(0 0)"/><path class="cls-2" d="M450.74,43l3.72-4.49a10.73,10.73,0,0,0,6.31,2.4c2,0,2.74-.65,2.74-1.45,0-1.44-1.3-1.74-3.58-2.69l-3.07-1.3c-2.85-1.06-5.21-3.3-5.21-6.87,0-4.22,3.8-7.68,9.42-7.68a12.42,12.42,0,0,1,8.44,3.31l-3.27,4.1a8.94,8.94,0,0,0-5.55-1.78c-1.44,0-2.43.53-2.43,1.67s1.41,1.56,3.88,2.47L465,31.9c3.3,1.22,5.2,3.35,5.2,6.77,0,4.18-3.49,7.9-9.88,7.9A14.88,14.88,0,0,1,450.74,43Z" transform="translate(0 0)"/><path class="cls-2" d="M480,26.89h-7.11V21.42h20.75v5.47h-7.11V46.11H480Z" transform="translate(0 0)"/><path class="cls-2" d="M497.18,40.64h5.62V26.89h-5.62V21.42H515v5.47h-5.63V40.64H515v5.47H497.18Z" transform="translate(0 0)"/><path class="cls-2" d="M519.9,21.42h8.81c5.17,0,9.27,1.29,9.27,6.15a5.45,5.45,0,0,1-4.18,5.32V33c3.5.69,5.25,2.51,5.25,5.78,0,5.09-4.26,7.29-9.58,7.29H519.9Zm8.66,9.73c2.13,0,3-1.07,3-2.59s-.91-2.13-3-2.13h-2.13v4.72Zm.46,10c2.58,0,3.64-1,3.64-2.81S531.6,35.7,529,35.7h-2.59v5.4Z" transform="translate(0 0)"/><path class="cls-2" d="M543.91,21.42h6.54V40.64H561v5.47H543.91Z" transform="translate(0 0)"/><path class="cls-2" d="M566.26,21.42h16.79v5.47H572.79v3.88h8.74v5.47h-8.74v4.4h10.64v5.47H566.26Z" transform="translate(0 0)"/></svg>