<svg id="Capa_1" data-name="Capa 1" xmlns="http://www.w3.org/2000/svg" viewBox="0 0 650.46 69.46"><defs><style>.cls-1{fill:#231f20;stroke:#231f20;stroke-miterlimit:10;stroke-width:0.46px;}.cls-2{fill:#f6f6f6;}</style></defs><rect class="cls-1" x="0.23" y="0.23" width="650" height="69"/><path class="cls-2" d="M83.25,34.43c0-8.28,5.4-13,12.09-13a11.11,11.11,0,0,1,7.6,3.2l-3.58,4a5.79,5.79,0,0,0-4-1.59c-3,0-5.4,2.66-5.4,7.14,0,4.64,2.36,7.22,5.7,7.22a5.58,5.58,0,0,0,4-2l3.57,4A10.43,10.43,0,0,1,95,47C88.8,47,83.25,42.86,83.25,34.43Z" transform="translate(0 0)"/><path class="cls-2" d="M105.45,34.12c0-8.35,4.1-12.69,10.1-12.69s10.11,4.34,10.11,12.69c0,8.59-4.1,12.92-10.11,12.92S105.45,42.71,105.45,34.12Zm13.52,0c0-4.71-1.29-7.06-3.42-7.06s-3.42,2.35-3.42,7.06c0,4.94,1.29,7.3,3.42,7.3S119,39.06,119,34.12Z" transform="translate(0 0)"/><path class="cls-2" d="M129.39,21.89h9.27c5.32,0,9.87,2,9.87,8.21,0,6-4.71,8.66-9.87,8.66h-2.74v7.83h-6.53Zm9,11.7c2.59,0,3.8-1.29,3.8-3.49s-1.37-3-3.8-3h-2.43v6.53Z" transform="translate(0 0)"/><path class="cls-2" d="M152.26,41.11h5.62V27.36h-5.62V21.89H170v5.47h-5.62V41.11H170v5.48H152.26Z" transform="translate(0 0)"/><path class="cls-2" d="M180,21.89h7.9l7.45,24.7h-6.91l-2.78-12c-.53-2.36-1.25-5.32-1.78-7.83h-.16c-.53,2.51-1.17,5.47-1.71,7.83l-2.77,12h-6.69Zm-2.09,14.4h12v5.05h-12Z" transform="translate(0 0)"/><path class="cls-2" d="M220.05,34.43c0-8.28,5.4-13,12.08-13a11.07,11.07,0,0,1,7.6,3.2l-3.57,4a5.8,5.8,0,0,0-4-1.59c-3,0-5.39,2.66-5.39,7.14,0,4.64,2.35,7.22,5.7,7.22a5.6,5.6,0,0,0,4-2l3.57,4A10.43,10.43,0,0,1,231.75,47C225.6,47,220.05,42.86,220.05,34.43Z" transform="translate(0 0)"/><path class="cls-2" d="M244.6,21.89h6.53V41.11h10.53v5.48H244.6Z" transform="translate(0 0)"/><path class="cls-2" d="M266.26,41.11h5.62V27.36h-5.62V21.89H284v5.47h-5.62V41.11H284v5.48H266.26Z" transform="translate(0 0)"/><path class="cls-2" d="M289.74,21.89h16.8v5.47H296.28v3.88H305v5.47h-8.74v4.4h10.64v5.48H289.74Z" transform="translate(0 0)"/><path class="cls-2" d="M311.63,21.89h6.61l4.14,11,2,5.55h.15a86.7,86.7,0,0,1-.91-9.43V21.89h6.23v24.7h-6.61l-4.14-11.06-2-5.51H317a93.12,93.12,0,0,1,.91,9.42v7.15h-6.23Z" transform="translate(0 0)"/><path class="cls-2" d="M340.28,27.36h-7.1V21.89h20.74v5.47h-7.1V46.59h-6.54Z" transform="translate(0 0)"/><path class="cls-2" d="M358.14,21.89h16.8v5.47H364.68v3.88h8.74v5.47h-8.74v4.4h10.64v5.48H358.14Z" transform="translate(0 0)"/><path class="cls-2" d="M415.52,19.61h5.4L408.38,52.67H403Z" transform="translate(0 0)"/><path class="cls-2" d="M447.44,34.12c0-8.35,4.1-12.69,10.11-12.69s10.1,4.34,10.1,12.69c0,8.59-4.1,12.92-10.1,12.92S447.44,42.71,447.44,34.12Zm13.53,0c0-4.71-1.29-7.06-3.42-7.06s-3.42,2.35-3.42,7.06c0,5.4,1.29,7.6,3.42,7.6S461,39.52,461,34.12Zm-6.54,12.24,6.61-.69c.69,2.21,2.81,2.74,4.49,2.74a4.88,4.88,0,0,0,2.05-.53l1.14,4.79a7.61,7.61,0,0,1-4,.91A10.66,10.66,0,0,1,454.43,46.36Z" transform="translate(0 0)"/><path class="cls-2" d="M470.92,42.86c6.42-5.24,11.14-9.27,11.14-12.54,0-2.16-1.37-3.19-3.5-3.19-1.78,0-3.19,1.14-4.48,2.28l-3.46-3.49A11.24,11.24,0,0,1,479.47,22c5.17,0,8.78,3.12,8.78,7.9,0,3.88-4,8.14-8,11.48,1.33-.15,3.15-.31,4.33-.31h4.86v5.48H470.92Z" transform="translate(0 0)"/><path class="cls-2" d="M493.65,34.43c0-8.28,5.39-13,12.08-13a11.11,11.11,0,0,1,7.6,3.2l-3.57,4a5.82,5.82,0,0,0-4-1.59c-3,0-5.4,2.66-5.4,7.14,0,4.64,2.36,7.22,5.7,7.22a5.56,5.56,0,0,0,4-2l3.57,4A10.43,10.43,0,0,1,505.35,47C499.2,47,493.65,42.86,493.65,34.43Z" transform="translate(0 0)"/><path class="cls-2" d="M517.74,21.89h16.79v5.47H524.27v3.88H533v5.47h-8.74v4.4h10.64v5.48H517.74Z" transform="translate(0 0)"/><path class="cls-2" d="M539,43.51,542.74,39a10.73,10.73,0,0,0,6.31,2.4c2,0,2.74-.65,2.74-1.44,0-1.45-1.3-1.75-3.58-2.7L545.14,36c-2.85-1.07-5.21-3.31-5.21-6.88,0-4.22,3.8-7.68,9.42-7.68a12.44,12.44,0,0,1,8.44,3.31l-3.27,4.1A8.94,8.94,0,0,0,549,27.06c-1.44,0-2.43.53-2.43,1.67s1.41,1.56,3.88,2.47l2.85,1.18c3.3,1.21,5.2,3.34,5.2,6.76,0,4.18-3.49,7.9-9.88,7.9A14.88,14.88,0,0,1,539,43.51Z" transform="translate(0 0)"/></svg>