<svg id="Capa_1" data-name="Capa 1" xmlns="http://www.w3.org/2000/svg" viewBox="0 0 650.72 169.38"><defs><style>.cls-1{fill:#231f20;stroke:#231f20;stroke-miterlimit:10;stroke-width:0.72px;}.cls-2{fill:#f6f6f6;}</style></defs><rect class="cls-1" x="0.36" y="0.36" width="650" height="168.66"/><path class="cls-2" d="M91,44.12c0-14.64,10.11-23,22.65-23a21.46,21.46,0,0,1,14.24,5.64l-6.69,7.12a11.32,11.32,0,0,0-7.55-2.82c-5.7,0-10.12,4.7-10.12,12.63,0,8.2,4.42,12.77,10.69,12.77A10.69,10.69,0,0,0,121.8,53l6.69,7c-3.84,4.3-9.26,6.45-15.52,6.45C101.43,66.43,91,59,91,44.12Z" transform="translate(0.13 0.13)"/><path class="cls-2" d="M132.62,43.59c0-14.78,7.69-22.44,18.95-22.44s19,7.66,19,22.44c0,15.18-7.7,22.84-19,22.84S132.62,58.77,132.62,43.59Zm25.36,0c0-8.33-2.42-12.5-6.41-12.5s-6.41,4.17-6.41,12.5c0,8.73,2.42,12.9,6.41,12.9S158,52.32,158,43.59Z" transform="translate(0.13 0.13)"/><path class="cls-2" d="M177.21,22H189.6l7.77,19.49,3.77,9.81h.29c-.57-4.71-1.71-11.29-1.71-16.67V22H211.4V65.62H199l-7.76-19.55-3.78-9.74h-.28c.57,5,1.71,11.29,1.71,16.66V65.62H177.21Z" transform="translate(0.13 0.13)"/><path class="cls-2" d="M230.91,31.63H217.59V22h38.89v9.68H243.16v34H230.91Z" transform="translate(0.13 0.13)"/><path class="cls-2" d="M262.53,22h17.24c10,0,18.52,3.23,18.52,14.11,0,10.55-8.55,14.92-18.52,14.92h-5V65.62H262.53Zm16.38,19.89c4.85,0,7.41-2,7.41-5.78s-2.56-5-7.41-5h-4.13V41.84Zm6.91-1.54,15,25.32H287.18L277.56,48Z" transform="translate(0.13 0.13)"/><path class="cls-2" d="M303.56,43.59c0-14.78,7.69-22.44,18.94-22.44s18.95,7.66,18.95,22.44c0,15.18-7.69,22.84-18.95,22.84S303.56,58.77,303.56,43.59Zm25.35,0c0-8.33-2.42-12.5-6.41-12.5s-6.41,4.17-6.41,12.5c0,8.73,2.42,12.9,6.41,12.9S328.91,52.32,328.91,43.59Z" transform="translate(0.13 0.13)"/><path class="cls-2" d="M350.71,22H363V56h19.73v9.67h-32Z" transform="translate(0.13 0.13)"/><path class="cls-2" d="M433.89,22h13.32c13.25,0,22.58,6.18,22.58,21.64s-9.33,22-21.86,22h-14Zm12.68,34.4c5.91,0,10.69-2.55,10.69-12.76s-4.78-12.37-10.69-12.37h-.43V56.35Z" transform="translate(0.13 0.13)"/><path class="cls-2" d="M478.05,22h31.48v9.68H490.3v6.85h16.39v9.68H490.3V56h19.95v9.67h-32.2Z" transform="translate(0.13 0.13)"/><path class="cls-2" d="M176.5,124.75c0-14.65,10.11-23,22.65-23a21.51,21.51,0,0,1,14.24,5.64l-6.69,7.12a11.32,11.32,0,0,0-7.55-2.82c-5.7,0-10.12,4.7-10.12,12.63,0,8.2,4.42,12.77,10.69,12.77a10.69,10.69,0,0,0,7.55-3.5l6.69,7c-3.84,4.3-9.26,6.45-15.53,6.45C186.89,147.05,176.5,139.66,176.5,124.75Z" transform="translate(0.13 0.13)"/><path class="cls-2" d="M219.8,102.57h12.25v16.26h10V102.57h12.25v43.67H242V128.91h-10v17.33H219.8Z" transform="translate(0.13 0.13)"/><path class="cls-2" d="M260.82,124.21c0-14.78,7.7-22.44,18.95-22.44s19,7.66,19,22.44c0,15.18-7.7,22.84-19,22.84S260.82,139.39,260.82,124.21Zm25.36,0c0-8.33-2.42-12.5-6.41-12.5s-6.41,4.17-6.41,12.5c0,8.73,2.42,12.9,6.41,12.9S286.18,132.94,286.18,124.21Z" transform="translate(0.13 0.13)"/><path class="cls-2" d="M307.83,102.57h31.7v9.68H320.08v8.33h16.67v9.67H320.08v16H307.83Z" transform="translate(0.13 0.13)"/><path class="cls-2" d="M349.85,102.57h31.48v9.68H362.1v6.85h16.39v9.68H362.1v7.79h19.95v9.67h-32.2Z" transform="translate(0.13 0.13)"/><path class="cls-2" d="M390.73,102.57H408c10,0,18.52,3.23,18.52,14.11,0,10.55-8.55,14.92-18.52,14.92h-5v14.64H390.73Zm16.39,19.89c4.84,0,7.4-2,7.4-5.78s-2.56-5-7.4-5H403v10.75Zm6.9-1.54,15,25.32H415.38l-9.62-17.67Z" transform="translate(0.13 0.13)"/></svg>