<svg id="Capa_1" data-name="Capa 1" xmlns="http://www.w3.org/2000/svg" viewBox="0 0 650.46 69.46"><defs><style>.cls-1{fill:#231f20;stroke:#231f20;stroke-miterlimit:10;stroke-width:0.46px;}.cls-2{fill:#f6f6f6;}</style></defs><rect class="cls-1" x="0.23" y="0.23" width="650" height="69"/><path class="cls-2" d="M60,34.08c0-8.28,5.39-13,12.08-13a11.15,11.15,0,0,1,7.6,3.19l-3.57,4a5.82,5.82,0,0,0-4-1.6c-3,0-5.4,2.66-5.4,7.14,0,4.64,2.36,7.22,5.7,7.22a5.55,5.55,0,0,0,4-2l3.57,3.95a10.46,10.46,0,0,1-8.28,3.65C65.5,46.7,60,42.52,60,34.08Z" transform="translate(0 0)"/><path class="cls-2" d="M82.15,33.78c0-8.36,4.1-12.69,10.1-12.69s10.11,4.33,10.11,12.69c0,8.59-4.1,12.92-10.11,12.92S82.15,42.37,82.15,33.78Zm13.52,0c0-4.71-1.29-7.07-3.42-7.07s-3.41,2.36-3.41,7.07c0,4.94,1.29,7.29,3.41,7.29S95.67,38.72,95.67,33.78Z" transform="translate(0 0)"/><path class="cls-2" d="M105.63,21.54h6.65l2,8.06.69,3.19h.15l.68-3.19,2-8.06h6.65v24.7h-5.4V40.43c0-2.93.53-9.65.84-12.54h-.12l-2.09,7.33-1.29,4.49h-2.89l-1.36-4.49-1.9-7.33h-.16c.31,2.89.84,9.61.84,12.54v5.81h-5.32Z" transform="translate(0 0)"/><path class="cls-2" d="M128.89,21.54h8.81c5.17,0,9.27,1.3,9.27,6.16A5.45,5.45,0,0,1,142.79,33v.15c3.5.68,5.25,2.51,5.25,5.78,0,5.09-4.26,7.29-9.58,7.29h-9.57Zm8.66,9.73c2.13,0,3-1.06,3-2.58s-.91-2.13-3-2.13h-2.13v4.71Zm.46,10c2.58,0,3.64-1,3.64-2.82s-1.06-2.58-3.64-2.58h-2.59v5.4Z" transform="translate(0 0)"/><path class="cls-2" d="M151.46,36.67V21.54H158V37.43c0,2.12.65,3.64,2.74,3.64s2.81-1.52,2.81-3.64V21.54h6.31V36.67c0,6.15-2.66,10-9.12,10S151.46,42.82,151.46,36.67Z" transform="translate(0 0)"/><path class="cls-2" d="M173.73,43.16l3.72-4.48a10.71,10.71,0,0,0,6.31,2.39c2,0,2.73-.64,2.73-1.44,0-1.44-1.29-1.75-3.57-2.7l-3.08-1.29c-2.85-1.06-5.2-3.3-5.2-6.88,0-4.21,3.8-7.67,9.42-7.67a12.43,12.43,0,0,1,8.44,3.3l-3.27,4.11a9,9,0,0,0-5.55-1.79c-1.44,0-2.43.53-2.43,1.67s1.41,1.56,3.87,2.47L188,32c3.31,1.22,5.21,3.34,5.21,6.76,0,4.18-3.5,7.91-9.88,7.91A14.84,14.84,0,0,1,173.73,43.16Z" transform="translate(0 0)"/><path class="cls-2" d="M203,27h-7.11V21.54h20.75V27h-7.11V46.24H203Z" transform="translate(0 0)"/><path class="cls-2" d="M220.16,40.77h5.63V27h-5.63V21.54h17.78V27h-5.62V40.77h5.62v5.47H220.16Z" transform="translate(0 0)"/><path class="cls-2" d="M242.89,21.54h8.81c5.17,0,9.27,1.3,9.27,6.16A5.45,5.45,0,0,1,256.79,33v.15c3.5.68,5.25,2.51,5.25,5.78,0,5.09-4.26,7.29-9.58,7.29h-9.57Zm8.66,9.73c2.13,0,3-1.06,3-2.58s-.91-2.13-3-2.13h-2.13v4.71Zm.45,10c2.59,0,3.65-1,3.65-2.82s-1.06-2.58-3.65-2.58h-2.58v5.4Z" transform="translate(0 0)"/><path class="cls-2" d="M266.9,21.54h6.54V40.77H284v5.47H266.9Z" transform="translate(0 0)"/><path class="cls-2" d="M289.24,21.54H306V27H295.78v3.87h8.74v5.47h-8.74v4.41h10.64v5.47H289.24Z" transform="translate(0 0)"/><path class="cls-2" d="M310.52,43.16l3.73-4.48a10.68,10.68,0,0,0,6.3,2.39c2,0,2.74-.64,2.74-1.44,0-1.44-1.29-1.75-3.57-2.7l-3.08-1.29c-2.85-1.06-5.2-3.3-5.2-6.88,0-4.21,3.8-7.67,9.42-7.67a12.41,12.41,0,0,1,8.43,3.3L326,28.5a9,9,0,0,0-5.55-1.79c-1.44,0-2.43.53-2.43,1.67s1.4,1.56,3.87,2.47L324.77,32c3.31,1.22,5.21,3.34,5.21,6.76,0,4.18-3.5,7.91-9.88,7.91A14.88,14.88,0,0,1,310.52,43.16Z" transform="translate(0 0)"/><path class="cls-2" d="M362.58,38.07l-7.82-16.53h7l2.05,5.4c.64,1.9,1.33,3.65,2,5.62H366c.69-2,1.41-3.72,2.09-5.62l2.06-5.4H377l-7.83,16.53v8.17h-6.54Z" transform="translate(0 0)"/><path class="cls-2" d="M392.22,19.26h5.4L385.08,52.32h-5.4Z" transform="translate(0 0)"/><path class="cls-2" d="M401.34,33.78c0-8.36,4.11-12.69,10.11-12.69s10.11,4.33,10.11,12.69c0,8.59-4.11,12.92-10.11,12.92S401.34,42.37,401.34,33.78Zm13.53,0c0-4.71-1.29-7.07-3.42-7.07S408,29.07,408,33.78c0,4.94,1.29,7.29,3.42,7.29S414.87,38.72,414.87,33.78Z" transform="translate(0 0)"/><path class="cls-2" d="M449.22,21.54h16.91V27H455.76v4.71h8.89V37.2h-8.89v9h-6.54Z" transform="translate(0 0)"/><path class="cls-2" d="M472.1,21.54h6.53V40.77h10.53v5.47H472.1Z" transform="translate(0 0)"/><path class="cls-2" d="M493.45,36.67V21.54H500V37.43c0,2.12.64,3.64,2.73,3.64s2.82-1.52,2.82-3.64V21.54h6.3V36.67c0,6.15-2.66,10-9.12,10S493.45,42.82,493.45,36.67Z" transform="translate(0 0)"/><path class="cls-2" d="M516.56,40.77h5.62V27h-5.62V21.54h17.78V27h-5.62V40.77h5.62v5.47H516.56Z" transform="translate(0 0)"/><path class="cls-2" d="M539.28,21.54h7.11c7.06,0,12,3.5,12,12.24s-5,12.46-11.66,12.46h-7.49ZM546,41c3.16,0,5.7-1.45,5.7-7.22s-2.54-7-5.7-7h-.22V41Z" transform="translate(0 0)"/><path class="cls-2" d="M560.94,33.78c0-8.36,4.1-12.69,10.11-12.69s10.1,4.33,10.1,12.69c0,8.59-4.1,12.92-10.1,12.92S560.94,42.37,560.94,33.78Zm13.53,0c0-4.71-1.29-7.07-3.42-7.07s-3.42,2.36-3.42,7.07c0,4.94,1.29,7.29,3.42,7.29S574.47,38.72,574.47,33.78Z" transform="translate(0 0)"/><path class="cls-2" d="M584.12,43.16l3.72-4.48a10.74,10.74,0,0,0,6.31,2.39c2,0,2.74-.64,2.74-1.44,0-1.44-1.3-1.75-3.58-2.7l-3.07-1.29c-2.85-1.06-5.21-3.3-5.21-6.88,0-4.21,3.8-7.67,9.42-7.67a12.41,12.41,0,0,1,8.44,3.3l-3.27,4.11a9,9,0,0,0-5.55-1.79c-1.44,0-2.43.53-2.43,1.67s1.41,1.56,3.88,2.47L598.37,32c3.3,1.22,5.2,3.34,5.2,6.76,0,4.18-3.49,7.91-9.88,7.91A14.84,14.84,0,0,1,584.12,43.16Z" transform="translate(0 0)"/></svg>