<svg id="Capa_1" data-name="Capa 1" xmlns="http://www.w3.org/2000/svg" viewBox="0 0 650.72 169.38"><defs><style>.cls-1{fill:#231f20;stroke:#231f20;stroke-miterlimit:10;stroke-width:0.72px;}.cls-2{fill:#f6f6f6;}</style></defs><rect class="cls-1" x="0.36" y="0.36" width="650" height="168.66"/><path class="cls-2" d="M152.08,44.12c0-14.64,10.11-23,22.65-23A21.46,21.46,0,0,1,189,26.79l-6.69,7.12a11.32,11.32,0,0,0-7.55-2.82c-5.7,0-10.12,4.7-10.12,12.63,0,8.2,4.42,12.77,10.69,12.77a10.69,10.69,0,0,0,7.55-3.5l6.69,7c-3.84,4.3-9.26,6.45-15.52,6.45C162.48,66.43,152.08,59,152.08,44.12Z" transform="translate(0.13 0.13)"/><path class="cls-2" d="M205.21,22H220l14,43.67H221l-5.2-21.23c-1-4.16-2.35-9.4-3.34-13.84h-.29c-1,4.44-2.21,9.68-3.2,13.84l-5.2,21.23H191.25Zm-3.92,25.47H223.8v8.93H201.29Z" transform="translate(0.13 0.13)"/><path class="cls-2" d="M238.11,22h17.24c10,0,18.52,3.23,18.52,14.11,0,10.55-8.55,14.92-18.52,14.92h-5V65.62H238.11ZM254.5,41.84c4.84,0,7.4-2,7.4-5.78s-2.56-5-7.4-5h-4.13V41.84Zm6.91-1.54,15,25.32H262.76L253.14,48Z" transform="translate(0.13 0.13)"/><path class="cls-2" d="M279.57,44.12c0-14.78,9.75-23,21.79-23a19.38,19.38,0,0,1,13.82,5.64l-6.7,7.12a9.48,9.48,0,0,0-7.12-2.82c-5.06,0-9.19,4.7-9.19,12.63,0,8.2,3.21,12.77,9.83,12.77a5.68,5.68,0,0,0,3.14-.81v-6h-5.77v-9.4H316V61.05a24.09,24.09,0,0,1-14.74,5.38C289.4,66.43,279.57,59,279.57,44.12Z" transform="translate(0.13 0.13)"/><path class="cls-2" d="M333.41,22h14.82l14,43.67h-13L344,44.39c-1-4.16-2.35-9.4-3.34-13.84h-.29c-1,4.44-2.21,9.68-3.2,13.84L332,65.62H319.45Zm-3.92,25.47H352v8.93H329.49Z" transform="translate(0.13 0.13)"/><path class="cls-2" d="M409.48,22h13.31c13.25,0,22.59,6.18,22.59,21.64s-9.34,22-21.87,22h-14Zm12.67,34.4c5.92,0,10.69-2.55,10.69-12.76s-4.77-12.37-10.69-12.37h-.42V56.35Z" transform="translate(0.13 0.13)"/><path class="cls-2" d="M453.63,22h31.49v9.68H465.88v6.85h16.39v9.68H465.88V56h19.95v9.67h-32.2Z" transform="translate(0.13 0.13)"/><path class="cls-2" d="M273.65,112.25H260.33v-9.68h38.89v9.68H285.9v34H273.65Z" transform="translate(0.13 0.13)"/><path class="cls-2" d="M303.56,124.21c0-14.78,7.69-22.44,18.95-22.44s18.94,7.66,18.94,22.44c0,15.18-7.69,22.84-18.94,22.84S303.56,139.39,303.56,124.21Zm25.36,0c0-8.33-2.42-12.5-6.41-12.5s-6.41,4.17-6.41,12.5c0,8.73,2.42,12.9,6.41,12.9S328.92,132.94,328.92,124.21Z" transform="translate(0.13 0.13)"/><path class="cls-2" d="M359.11,112.25H345.79v-9.68h38.89v9.68H371.37v34H359.11Z" transform="translate(0.13 0.13)"/><path class="cls-2" d="M392.59,102.57h31.48v9.68H404.84v6.85h16.38v9.68H404.84v7.79h19.94v9.67H392.59Z" transform="translate(0.13 0.13)"/></svg>