<svg id="Capa_1" data-name="Capa 1" xmlns="http://www.w3.org/2000/svg" viewBox="0 0 650.72 169.38"><defs><style>.cls-1{fill:#231f20;stroke:#231f20;stroke-miterlimit:10;stroke-width:0.72px;}.cls-2{fill:#f6f6f6;}</style></defs><rect class="cls-1" x="0.36" y="0.36" width="650" height="168.66"/><path class="cls-2" d="M92,22h13.32c13.24,0,22.57,6.18,22.57,21.64s-9.33,22-21.86,22H92Zm12.67,34.4c5.92,0,10.69-2.55,10.69-12.76s-4.77-12.37-10.69-12.37h-.42V56.35Z" transform="translate(0.13 0.13)"/><path class="cls-2" d="M136.18,22h31.49v9.68H148.43v6.85h16.39v9.68H148.43V56h19.95v9.67h-32.2Z" transform="translate(0.13 0.13)"/><path class="cls-2" d="M176.07,60.18l7-7.93a20.83,20.83,0,0,0,11.82,4.24c3.71,0,5.13-1.15,5.13-2.56,0-2.55-2.42-3.09-6.7-4.77l-5.76-2.28c-5.35-1.88-9.76-5.85-9.76-12.16,0-7.46,7.12-13.57,17.66-13.57A24,24,0,0,1,211.25,27l-6.12,7.26a17.53,17.53,0,0,0-10.4-3.16c-2.71,0-4.56.94-4.56,3s2.64,2.75,7.27,4.36l5.34,2.09c6.2,2.15,9.76,5.91,9.76,12,0,7.38-6.56,14-18.52,14A28.94,28.94,0,0,1,176.07,60.18Z" transform="translate(0.13 0.13)"/><path class="cls-2" d="M219.23,44.12c0-14.64,10.11-23,22.65-23a21.46,21.46,0,0,1,14.24,5.64l-6.69,7.12a11.32,11.32,0,0,0-7.55-2.82c-5.7,0-10.12,4.7-10.12,12.63,0,8.2,4.42,12.77,10.69,12.77A10.69,10.69,0,0,0,250,53l6.69,7c-3.84,4.3-9.26,6.45-15.52,6.45C229.63,66.43,219.23,59,219.23,44.12Z" transform="translate(0.13 0.13)"/><path class="cls-2" d="M272.36,22h14.82l14,43.67h-13L283,44.39c-1-4.16-2.35-9.4-3.34-13.84h-.29c-1,4.44-2.21,9.68-3.2,13.84l-5.2,21.23H258.4Zm-3.92,25.47H291v8.93H268.44Z" transform="translate(0.13 0.13)"/><path class="cls-2" d="M305.26,22H322.5c10,0,18.52,3.23,18.52,14.11C341,46.61,332.47,51,322.5,51h-5V65.62H305.26Zm16.39,19.89c4.84,0,7.4-2,7.4-5.78s-2.56-5-7.4-5h-4.13V41.84Zm6.91-1.54,15,25.32H329.91L320.29,48Z" transform="translate(0.13 0.13)"/><path class="cls-2" d="M346.72,44.12c0-14.78,9.75-23,21.79-23a19.38,19.38,0,0,1,13.82,5.64l-6.7,7.12a9.48,9.48,0,0,0-7.12-2.82c-5.05,0-9.19,4.7-9.19,12.63,0,8.2,3.21,12.77,9.83,12.77a5.66,5.66,0,0,0,3.14-.81v-6h-5.77v-9.4h16.67V61.05a24.14,24.14,0,0,1-14.75,5.38C356.55,66.43,346.72,59,346.72,44.12Z" transform="translate(0.13 0.13)"/><path class="cls-2" d="M400.56,22h14.82l14,43.67h-13l-5.2-21.23c-1-4.16-2.35-9.4-3.34-13.84h-.29c-1,4.44-2.21,9.68-3.2,13.84l-5.2,21.23H386.6Zm-3.92,25.47h22.51v8.93H396.64Z" transform="translate(0.13 0.13)"/><path class="cls-2" d="M476.62,22h13.32c13.25,0,22.58,6.18,22.58,21.64s-9.33,22-21.86,22h-14Zm12.68,34.4c5.92,0,10.69-2.55,10.69-12.76s-4.77-12.37-10.69-12.37h-.42V56.35Z" transform="translate(0.13 0.13)"/><path class="cls-2" d="M520.78,22h31.49v9.68H533v6.85h16.39v9.68H533V56h20v9.67h-32.2Z" transform="translate(0.13 0.13)"/><path class="cls-2" d="M91,124.75c0-14.65,10.11-23,22.65-23a21.51,21.51,0,0,1,14.24,5.64l-6.69,7.12a11.32,11.32,0,0,0-7.55-2.82c-5.7,0-10.12,4.7-10.12,12.63,0,8.2,4.42,12.77,10.69,12.77a10.69,10.69,0,0,0,7.55-3.5l6.69,7c-3.84,4.3-9.26,6.45-15.52,6.45C101.43,147.05,91,139.66,91,124.75Z" transform="translate(0.13 0.13)"/><path class="cls-2" d="M132.62,124.21c0-14.78,7.69-22.44,18.95-22.44s19,7.66,19,22.44c0,15.18-7.7,22.84-19,22.84S132.62,139.39,132.62,124.21Zm25.36,0c0-8.33-2.42-12.5-6.41-12.5s-6.41,4.17-6.41,12.5c0,8.73,2.42,12.9,6.41,12.9S158,132.94,158,124.21Z" transform="translate(0.13 0.13)"/><path class="cls-2" d="M176.64,102.57H189.1l3.78,14.25,1.28,5.64h.28l1.29-5.64,3.77-14.25H212v43.67H201.85V136c0-5.18,1-17.07,1.57-22.18h-.21l-3.92,13-2.42,7.93h-5.42l-2.56-7.93-3.56-13H185c.57,5.11,1.57,17,1.57,22.18v10.27h-10Z" transform="translate(0.13 0.13)"/><path class="cls-2" d="M220.23,102.57h16.52c9.69,0,17.38,2.29,17.38,10.89a9.75,9.75,0,0,1-7.84,9.4v.27c6.56,1.21,9.83,4.44,9.83,10.21,0,9-8,12.9-18,12.9H220.23Zm16.24,17.2c4,0,5.69-1.88,5.69-4.56s-1.71-3.77-5.69-3.77h-4v8.33Zm.85,17.61c4.84,0,6.84-1.75,6.84-5s-2-4.56-6.84-4.56h-4.84v9.54Z" transform="translate(0.13 0.13)"/><path class="cls-2" d="M262.53,129.31V102.57h12.25v28.09c0,3.76,1.21,6.45,5.13,6.45s5.27-2.69,5.27-6.45V102.57H297v26.74c0,10.89-5,17.74-17.1,17.74S262.53,140.2,262.53,129.31Z" transform="translate(0.13 0.13)"/><path class="cls-2" d="M304.27,140.8l7-7.93a20.83,20.83,0,0,0,11.82,4.24c3.71,0,5.13-1.14,5.13-2.56,0-2.55-2.42-3.09-6.7-4.77l-5.77-2.28c-5.34-1.88-9.75-5.85-9.75-12.16,0-7.46,7.12-13.57,17.66-13.57a24,24,0,0,1,15.81,5.84l-6.12,7.26a17.53,17.53,0,0,0-10.4-3.16c-2.71,0-4.56.94-4.56,3s2.64,2.75,7.27,4.36l5.34,2.09c6.19,2.15,9.76,5.91,9.76,12,0,7.39-6.56,14-18.52,14A28.88,28.88,0,0,1,304.27,140.8Z" transform="translate(0.13 0.13)"/><path class="cls-2" d="M359.11,112.25H345.79v-9.68h38.89v9.68H371.36v34H359.11Z" transform="translate(0.13 0.13)"/><path class="cls-2" d="M391.3,136.57h10.54V112.25H391.3v-9.68h33.34v9.68H414.09v24.32h10.55v9.67H391.3Z" transform="translate(0.13 0.13)"/><path class="cls-2" d="M433.89,102.57h16.53c9.68,0,17.38,2.29,17.38,10.89a9.75,9.75,0,0,1-7.84,9.4v.27c6.55,1.21,9.83,4.44,9.83,10.21,0,9-8,12.9-18,12.9H433.89Zm16.24,17.2c4,0,5.7-1.88,5.7-4.56s-1.71-3.77-5.7-3.77h-4v8.33Zm.86,17.61c4.84,0,6.84-1.75,6.84-5s-2-4.56-6.84-4.56h-4.85v9.54Z" transform="translate(0.13 0.13)"/><path class="cls-2" d="M478.9,102.57h12.26v34h19.73v9.67h-32Z" transform="translate(0.13 0.13)"/><path class="cls-2" d="M520.78,102.57h31.49v9.68H533v6.85h16.39v9.68H533v7.79h20v9.67h-32.2Z" transform="translate(0.13 0.13)"/></svg>