<svg xmlns="http://www.w3.org/2000/svg" viewBox="0 0 167.44 126.78"><defs><style>.cls-1{fill:none;}.cls-2{fill:#f7c90d;}.cls-3{fill:#8eb322;}.cls-4{fill:#727176;}.cls-5{fill:#5c7c26;}</style></defs><g id="Capa_2" data-name="Capa 2"><g id="Capa_3" data-name="Capa 3"><path class="cls-1" d="M65.16,24.85a37.62,37.62,0,0,0-22.55,7.43C33.53,39.22,28.13,50.46,28.23,63.4c.18,21.95,16.25,38.63,36.93,38.54a39.75,39.75,0,0,0,16-3.31L68.67,87.74a13.21,13.21,0,0,1-4.91-10.16A12.71,12.71,0,0,1,76.37,64.79c3.68,0,6.14,1.23,8.94,3.68L98.86,80.34a43.81,43.81,0,0,0,3.23-16.94C102,41.54,85.86,24.75,65.16,24.85Z"/><path class="cls-2" d="M152.05,126.78H152a15.21,15.21,0,0,1-15.48-15.61,15.85,15.85,0,0,1,3-10,3.29,3.29,0,0,1,2.61-1.28,3.21,3.21,0,0,1,3.2,3.25,3.46,3.46,0,0,1-.64,2,9.83,9.83,0,0,0-2.14,6.11c0,5.05,4.19,8.69,9.33,8.69H152c5.13,0,9.41-3.55,9.41-8.69a9.61,9.61,0,0,0-2.35-6.5,3,3,0,0,1-.73-2,3,3,0,0,1,5.39-2,15.78,15.78,0,0,1-11.63,26Z"/><path class="cls-2" d="M163.64,97.36H140.29a3.28,3.28,0,0,1-3.3-3.3V77.47a3,3,0,0,1,2.95-3,2.92,2.92,0,0,1,2.91,3V90.81h6.08V79.39a3,3,0,0,1,2.95-3,2.92,2.92,0,0,1,2.9,3V90.81h6.29V77.26a3,3,0,0,1,3-3,2.92,2.92,0,0,1,2.91,3v16.8A3.27,3.27,0,0,1,163.64,97.36Z"/><path class="cls-2" d="M140.12,72.16a3.27,3.27,0,0,1-3.3-3.29v-.73a3.39,3.39,0,0,1,1.71-3l13-8-13-8a3.24,3.24,0,0,1-1.67-3v-.73a3.27,3.27,0,0,1,3.3-3.29h23.77a3.27,3.27,0,1,1,0,6.54H149l8.89,5.77a3.08,3.08,0,0,1,0,5.48l-8.76,5.69H164A3.21,3.21,0,0,1,167.19,69a3.17,3.17,0,0,1-3.21,3.2Z"/><path class="cls-3" d="M65.16,101.94C44.48,102,28.41,85.35,28.23,63.4c-.1-12.94,5.3-24.18,14.38-31.12a37.62,37.62,0,0,1,22.55-7.43c20.7-.1,36.88,16.69,36.93,38.55a43.81,43.81,0,0,1-3.23,16.94l20.7,18.12A61.56,61.56,0,0,0,130.33,63.4C130.23,27.45,101.69-.16,65.16,0A67.62,67.62,0,0,0,26,12.28,61.51,61.51,0,0,0,0,63.4c.32,36.1,28.66,63.53,65.16,63.38a66.15,66.15,0,0,0,36.13-10.48L81.11,98.63A39.75,39.75,0,0,1,65.16,101.94Z"/><path class="cls-3" d="M76.37,64.79A12.71,12.71,0,0,0,63.76,77.58a13.21,13.21,0,0,0,4.91,10.16L81.11,98.63A33.65,33.65,0,0,0,92,91a35.28,35.28,0,0,0,6.83-10.65L85.31,68.47C82.51,66,80.05,64.79,76.37,64.79Z"/><path class="cls-3" d="M124.72,103l-5.16-4.52a65.62,65.62,0,0,1-8.07,9.66,64.4,64.4,0,0,1-10.2,8.18l6.79,6a12.64,12.64,0,0,0,21.55-9.11A13.25,13.25,0,0,0,124.72,103Z"/><path class="cls-4" d="M162.58,26.91H152.46l3.34-2.13c6.79-4.33,10.91-7.4,10.91-13.54v-.09C166.71,4.48,160.8,0,152,0c-5.75,0-10,1.57-13.65,5.11a4.34,4.34,0,0,0-1.35,3c0,2.43,2.22,4.33,5,4.33a5.48,5.48,0,0,0,3.66-1.29c2.14-1.9,3.64-2.58,5.73-2.58,1.28,0,4.25.31,4.25,3.17,0,2.06-1.43,3.62-6.38,7l-11.25,7.6a5.3,5.3,0,0,0-2.74,4.48c0,2.68,2.32,4.48,5.77,4.48h21.5c2.73,0,4.86-1.83,4.86-4.15S165.26,26.91,162.58,26.91Z"/><path class="cls-5" d="M119.56,98.46,98.86,80.34A35.28,35.28,0,0,1,92,91a33.65,33.65,0,0,1-10.92,7.64l20.18,17.67a64.4,64.4,0,0,0,10.2-8.18A65.62,65.62,0,0,0,119.56,98.46Z"/></g></g></svg>