<svg id="Capa_1" data-name="Capa 1" xmlns="http://www.w3.org/2000/svg" viewBox="0 0 651.23 69.46"><defs><style>.cls-1{fill:#231f20;stroke:#231f20;stroke-miterlimit:10;stroke-width:0.46px;}.cls-2{fill:#f1f2f2;}</style></defs><rect class="cls-1" x="0.23" y="0.23" width="650" height="69"/><path class="cls-2" d="M133.83,42.73q-11.36,0-11.35-14.3,0-6.76,2.86-10.49a9.58,9.58,0,0,1,8.08-3.73,10,10,0,0,1,4.39.91,5.79,5.79,0,0,1,2.73,2.59L138,20.58a5.69,5.69,0,0,0-2-2,4.93,4.93,0,0,0-2.58-.72,6.26,6.26,0,0,0-5.31,2.71c-1.34,1.81-2,4.38-2,7.72q0,10.89,8.27,10.9a11,11,0,0,0,4.9-1.18l.79,3.44A15.2,15.2,0,0,1,133.83,42.73Z" transform="translate(4.23 3.23)"/><path class="cls-2" d="M142.36,42.34l7-27.74h5l7,27.74H157.8L152,18h-.31L146,42.34Zm3.26-6.76V31.87H158v3.71Z" transform="translate(4.23 3.23)"/><path class="cls-2" d="M164.58,42.34V14.6h3.57V42.34Zm3.33-10.55V28.08h5a4.13,4.13,0,0,0,3.19-1.23,4.89,4.89,0,0,0,1.14-3.46,5.59,5.59,0,0,0-1.14-3.76A4,4,0,0,0,173,18.32h-5l-.41-3.72H173a7.66,7.66,0,0,1,5.86,2.19A8.69,8.69,0,0,1,180.88,23a9.38,9.38,0,0,1-2.07,6.49,7.47,7.47,0,0,1-5.86,2.3Zm9.75,10.55L172.2,29.29H176l5.8,13.05Z" transform="translate(4.23 3.23)"/><path class="cls-2" d="M194.81,42.73q-5.44,0-8.18-3.57T183.9,28.43q0-6.76,2.83-10.49a9.4,9.4,0,0,1,8-3.73,10.43,10.43,0,0,1,4.47.91A6.06,6.06,0,0,1,202,17.69l-2.56,2.89a5.91,5.91,0,0,0-2-2,4.89,4.89,0,0,0-2.57-.72,6.21,6.21,0,0,0-5.38,2.72q-1.94,2.73-1.93,7.71c0,3.63.64,6.36,1.93,8.17a6.55,6.55,0,0,0,5.73,2.73,10,10,0,0,0,2.87-.37c.83-.24,1.51-.44,2-.61l1.34,3.4c-.48.17-1.32.41-2.53.71A16.66,16.66,0,0,1,194.81,42.73Zm-1.57-10.55V28.47h8.13v3.71Zm4.83,9.38V28.47h3.4V41.56Z" transform="translate(4.23 3.23)"/><path class="cls-2" d="M204.13,42.34l7-27.74h5l7,27.74h-3.61L213.81,18h-.31l-5.77,24.38Zm3.26-6.76V31.87h12.35v3.71Z" transform="translate(4.23 3.23)"/><path class="cls-2" d="M246.94,42.34V14.6h3.57V42.34Zm3.33,0V38.63h2.57a6.75,6.75,0,0,0,5.66-2.44q1.89-2.44,1.89-7.33,0-5.3-1.89-7.92a6.53,6.53,0,0,0-5.66-2.62h-2.5l-.41-3.72h2.91Q264,14.6,264,28.86q0,13.49-11.16,13.48Z" transform="translate(4.23 3.23)"/><path class="cls-2" d="M267.87,42.34V14.6h3.57V42.34Zm0-24V14.6H284v3.72Zm0,12V26.6h13v3.71Zm0,12V38.63H284v3.71Z" transform="translate(4.23 3.23)"/><path class="cls-2" d="M319.14,42.73q-11.36,0-11.36-14.3,0-6.76,2.87-10.49a9.58,9.58,0,0,1,8.08-3.73,10,10,0,0,1,4.39.91,5.79,5.79,0,0,1,2.73,2.59l-2.54,2.87a5.69,5.69,0,0,0-2-2,4.94,4.94,0,0,0-2.59-.72,6.29,6.29,0,0,0-5.31,2.71q-2,2.72-2,7.72,0,10.89,8.27,10.9A11,11,0,0,0,324.63,38l.79,3.44A15.2,15.2,0,0,1,319.14,42.73Z" transform="translate(4.23 3.23)"/><path class="cls-2" d="M337.19,42.73q-9,0-9-14.06,0-14.46,9-14.46t9,14.46Q346.18,42.72,337.19,42.73Zm0-3.59q5.32,0,5.32-10.47,0-10.86-5.32-10.86t-5.32,10.86Q331.87,39.14,337.19,39.14Z" transform="translate(4.23 3.23)"/><path class="cls-2" d="M349.68,42.34V14.6h3.43V42.34ZM356.2,31l-2.64-11.48h-1V14.6H355l2.64,11.92h.14l.34,4.49Zm1,0,.51-4.49h.21l2.64-11.92H363v4.93h-1L359.36,31Zm5.25,11.33V14.6h3.43V42.34Z" transform="translate(4.23 3.23)"/><path class="cls-2" d="M370.82,42.34V14.6h3.57V42.34ZM373,28.71V26.79h7v1.92Zm1.17-1.1V25.84h4a4.27,4.27,0,0,0,3-1A3.63,3.63,0,0,0,382.21,22a3.43,3.43,0,0,0-1.12-2.76,4.85,4.85,0,0,0-3.2-.95h-3.67l-.41-3.72h4.25a8.25,8.25,0,0,1,5.73,1.83,6.66,6.66,0,0,1,2,5.21,5.37,5.37,0,0,1-1.92,4.42,8.47,8.47,0,0,1-5.46,1.55Zm0,14.73V38.63h5a5,5,0,0,0,3.52-1.18,4.35,4.35,0,0,0,1.25-3.31,4.37,4.37,0,0,0-1.3-3.39,5.29,5.29,0,0,0-3.71-1.2h-4.7l-.41-1.78h6a8.25,8.25,0,0,1,5.73,1.82,6.53,6.53,0,0,1,2,5.13,7.8,7.8,0,0,1-1.92,5.63,7.21,7.21,0,0,1-5.45,2Z" transform="translate(4.23 3.23)"/><path class="cls-2" d="M398.89,42.73q-7.81,0-7.82-9.3V14.6h3.57V33.43a7,7,0,0,0,1,4.18A3.82,3.82,0,0,0,399,39c2.88,0,4.33-1.86,4.33-5.59V14.6h3.56V33.43q0,4.65-2,7A7.45,7.45,0,0,1,398.89,42.73Z" transform="translate(4.23 3.23)"/><path class="cls-2" d="M418.71,42.73a19.23,19.23,0,0,1-3.89-.38,14.37,14.37,0,0,1-3.35-1.14l.44-4a21.37,21.37,0,0,0,3.65,1.4,12.94,12.94,0,0,0,3.42.48,5.55,5.55,0,0,0,3.57-1,3.54,3.54,0,0,0,1.17-2.91,3.81,3.81,0,0,0-2.23-3.63l-4.22-2.19a10.78,10.78,0,0,1-3.82-3.11,7.4,7.4,0,0,1-1.33-4.51A7.75,7.75,0,0,1,414,16.21a7.21,7.21,0,0,1,5.44-2,10.91,10.91,0,0,1,4.34.82,11.26,11.26,0,0,1,3.64,2.68l-2.4,2.77a12.47,12.47,0,0,0-2.82-2,6.28,6.28,0,0,0-2.74-.63,3.73,3.73,0,0,0-2.74,1,3.92,3.92,0,0,0-1,2.87,3.52,3.52,0,0,0,.64,2.19,5.54,5.54,0,0,0,1.87,1.52l3.57,1.91A12.65,12.65,0,0,1,426,30.52a7.4,7.4,0,0,1,1.41,4.67,7.15,7.15,0,0,1-2.15,5.66C423.8,42.1,421.63,42.73,418.71,42.73Z" transform="translate(4.23 3.23)"/><path class="cls-2" d="M431.22,18.32V14.6h17.84v3.72Zm7.14,24V14.6h3.56V42.34Z" transform="translate(4.23 3.23)"/><path class="cls-2" d="M453.32,18.32V14.6h14.82v3.72Zm0,24V38.63h14.82v3.71Zm5.61,0V14.6h3.57V42.34Z" transform="translate(4.23 3.23)"/><path class="cls-2" d="M473.77,42.34V14.6h3.57V42.34Zm2.16-13.63V26.79h7v1.92Zm1.17-1.1V25.84h4a4.27,4.27,0,0,0,3-1A3.66,3.66,0,0,0,485.16,22,3.43,3.43,0,0,0,484,19.27a4.85,4.85,0,0,0-3.2-.95h-3.67l-.42-3.72H481a8.25,8.25,0,0,1,5.73,1.83,6.66,6.66,0,0,1,2,5.21,5.37,5.37,0,0,1-1.93,4.42,8.44,8.44,0,0,1-5.45,1.55Zm0,14.73V38.63h5a5,5,0,0,0,3.52-1.18,4.35,4.35,0,0,0,1.25-3.31,4.38,4.38,0,0,0-1.31-3.39,5.25,5.25,0,0,0-3.7-1.2h-4.7l-.42-1.78h6a8.25,8.25,0,0,1,5.73,1.82,6.53,6.53,0,0,1,2,5.13,7.8,7.8,0,0,1-1.92,5.63,7.22,7.22,0,0,1-5.46,2Z" transform="translate(4.23 3.23)"/><path class="cls-2" d="M494.36,42.34V14.6h3.57V42.34Zm0,0V38.63h16.13v3.71Z" transform="translate(4.23 3.23)"/><path class="cls-2" d="M515,42.34V14.6h3.57V42.34Zm0-24V14.6h16.13v3.72Zm0,12V26.6h13v3.71Zm0,12V38.63h16.13v3.71Z" transform="translate(4.23 3.23)"/><text x="4.23" y="3.23"/><text x="4.23" y="3.23"/><text x="4.23" y="3.23"/></svg>