<svg id="Capa_2" data-name="Capa 2" xmlns="http://www.w3.org/2000/svg" viewBox="0 0 154.5 154"><g id="Capa_4" data-name="Capa 4"><path d="M61.9,141.45a60.82,60.82,0,1,1,60.82-60.86A60.82,60.82,0,0,1,61.9,141.45Zm0-114.65a53.83,53.83,0,1,0,53.83,53.83v0A54.09,54.09,0,0,0,61.9,26.8Z" style="fill:#f7c90d"/><polygon points="35.46 38.97 94.98 24.75 154.5 38.97 154.5 126.34 35.46 126.34 35.46 38.97" style="fill:#5c7c26;fill-rule:evenodd"/><rect x="38.27" y="51.57" width="113.14" height="74.77" style="fill:#727176"/><rect x="38.27" y="51.57" width="5.96" height="74.77" style="fill:#898989"/><rect x="145.46" y="51.57" width="5.96" height="74.77" style="fill:#898989"/><polygon points="35.46 38.97 154.5 38.97 154.5 38.97 94.98 24.75 35.46 38.97" style="fill:#5c7c26;fill-rule:evenodd"/><rect x="38.27" y="51.57" width="113.14" height="7.24" style="fill:#898989"/><polygon points="44.23 58.8 54.25 66.29 54.25 126.34 44.23 126.34 44.23 58.8" style="fill:#727176;fill-rule:evenodd"/><polygon points="44.23 58.8 54.25 66.29 135.44 66.29 145.46 58.8 44.23 58.8" style="fill:#727176;fill-rule:evenodd"/><polygon points="145.46 58.8 135.44 66.29 135.44 126.34 145.46 126.34 145.46 58.8" style="fill:#727176;fill-rule:evenodd"/></g></svg>