<svg id="Capa_3" data-name="Capa 3" xmlns="http://www.w3.org/2000/svg" viewBox="0 0 154.5 154"><g id="Capa_7" data-name="Capa 7"><path d="M63.74,143.25a4.18,4.18,0,0,1-1.9,1.31c1.89.12,3.79.18,5.69.14a6.59,6.59,0,0,1-1.42-1.1A4.92,4.92,0,0,1,63.74,143.25Z" style="fill:#f7c90d"/><path d="M4.51,54.77a66,66,0,0,0,52.94,89.37c-2.58-1.63-2.88-5.63-.9-7.81a59.44,59.44,0,0,1-13.81-4.09A58.44,58.44,0,0,1,83.35,22.82,4.42,4.42,0,0,1,86,21,4.64,4.64,0,0,1,87.89,20,5.64,5.64,0,0,1,90,17,66.07,66.07,0,0,0,4.51,54.77Z" style="fill:#f7c90d"/></g><rect x="48.41" y="16.08" width="88.38" height="128.16" rx="4" style="fill:#5c7c26"/><rect x="54.38" y="21.63" width="76.45" height="117.06" style="fill:#fff"/><path d="M79,13h27.12a5,5,0,0,1,5,5v6.23a0,0,0,0,1,0,0H74a0,0,0,0,1,0,0V18A5,5,0,0,1,79,13Z" style="fill:#5c7c26"/><path d="M92.6,4.4A8.64,8.64,0,1,0,101.24,13,8.64,8.64,0,0,0,92.6,4.4Zm0,13A4.32,4.32,0,1,1,96.92,13,4.31,4.31,0,0,1,92.6,17.36Z" style="fill:#5c7c26"/><rect x="110.54" y="45.28" width="9.3" height="9.3" rx="2" style="fill:none;stroke:#5c7c26;stroke-miterlimit:10"/><path d="M106.91,49.65l4.61,4.6a2.52,2.52,0,0,0,3.53,0l9.43-9.43,1.35-1.35a2.5,2.5,0,0,0-3.53-3.53l-9.43,9.42-1.35,1.36h3.53l-4.6-4.6a2.53,2.53,0,0,0-3.54,0,2.55,2.55,0,0,0,0,3.53Z" style="fill:#5c7c26"/><rect x="110.54" y="63.32" width="9.3" height="9.3" rx="2" style="fill:none;stroke:#5c7c26;stroke-miterlimit:10"/><path d="M106.91,67.69l4.61,4.6a2.53,2.53,0,0,0,3.53,0l9.43-9.43,1.35-1.35A2.5,2.5,0,1,0,122.3,58l-9.43,9.43-1.35,1.35h3.53l-4.6-4.6a2.5,2.5,0,0,0-3.54,3.54Z" style="fill:#5c7c26"/><rect x="110.54" y="80.52" width="9.3" height="9.3" rx="2" style="fill:none;stroke:#5c7c26;stroke-miterlimit:10"/><path d="M106.91,84.89l4.61,4.6a2.53,2.53,0,0,0,3.53,0l9.43-9.43,1.35-1.35a2.5,2.5,0,0,0-3.53-3.54l-9.43,9.43L111.52,86h3.53l-4.6-4.6a2.5,2.5,0,0,0-3.54,3.54Z" style="fill:#5c7c26"/><rect x="110.54" y="98" width="9.3" height="9.3" rx="2" style="fill:none;stroke:#5c7c26;stroke-miterlimit:10"/><path d="M106.91,102.37l4.61,4.6a2.53,2.53,0,0,0,3.53,0l9.43-9.43,1.35-1.35a2.5,2.5,0,0,0-3.53-3.54l-9.43,9.43-1.35,1.35h3.53l-4.6-4.6a2.5,2.5,0,0,0-3.54,3.54Z" style="fill:#5c7c26"/><rect x="64.61" y="44.86" width="39.24" height="1.53" rx="0.74" style="fill:#5c7c26"/><rect x="64.61" y="48.81" width="39.24" height="1.53" rx="0.74" style="fill:#5c7c26"/><rect x="64.61" y="52.77" width="29.98" height="1.53" rx="0.74" style="fill:#5c7c26"/><rect x="64.61" y="62.9" width="39.24" height="1.53" rx="0.74" style="fill:#5c7c26"/><rect x="64.61" y="66.85" width="39.24" height="1.53" rx="0.74" style="fill:#5c7c26"/><rect x="64.61" y="70.8" width="29.98" height="1.53" rx="0.74" style="fill:#5c7c26"/><rect x="64.61" y="80.1" width="39.24" height="1.53" rx="0.74" style="fill:#5c7c26"/><rect x="64.61" y="84.05" width="39.24" height="1.53" rx="0.74" style="fill:#5c7c26"/><rect x="64.61" y="88" width="29.98" height="1.53" rx="0.74" style="fill:#5c7c26"/><rect x="64.61" y="97.58" width="39.24" height="1.53" rx="0.74" style="fill:#5c7c26"/><rect x="64.61" y="101.53" width="39.24" height="1.53" rx="0.74" style="fill:#5c7c26"/><rect x="64.61" y="105.48" width="29.98" height="1.53" rx="0.74" style="fill:#5c7c26"/><path d="M141.4,110.7l-5.63-2-3,5.29.18.07a13.37,13.37,0,0,0-3.29.17l.17-.08-3.51-5L121,111.77l1.64,5.84.17-.08a13.49,13.49,0,0,0-2.2,2.44l.06-.17-6-1-2,5.64,5.3,3,.06-.18a14.45,14.45,0,0,0,.17,3.29l-.08-.17-4.95,3.5,2.57,5.4,5.84-1.65-.08-.17a14.36,14.36,0,0,0,2.45,2.21l-.18-.07-1,6,5.64,2,3-5.29-.18-.07a13.39,13.39,0,0,0,3.29-.17l-.17.08,3.5,5,5.4-2.58-1.64-5.84-.18.09a13.57,13.57,0,0,0,2.21-2.45l-.06.18,6,1,2-5.64-5.29-3-.06.18a14.51,14.51,0,0,0-.17-3.3l.08.18L151,122.4l-2.57-5.4-5.84,1.65.08.17a14.36,14.36,0,0,0-2.45-2.21l.18.07Z" style="fill:#636063"/><circle cx="132.06" cy="128.11" r="12.22" transform="translate(-51.41 114.27) rotate(-39.81)" style="fill:#5c7c26"/><circle cx="132.06" cy="128.11" r="9.18" transform="translate(-43.08 184.48) rotate(-61.97)" style="fill:#636063"/><circle cx="132.06" cy="128.11" r="6.38" transform="translate(-51.68 118.61) rotate(-41.17)" style="fill:#fff"/><path d="M149,81.6l-3.6-1.75L143,83.16l.12,0a9.69,9.69,0,0,0-2.21-.13l.12,0-2-3.56-3.78,1.32.66,4,.12,0a9.55,9.55,0,0,0-1.65,1.47l.06-.12L130.57,85l-1.74,3.61,3.3,2.36.06-.11a9.57,9.57,0,0,0-.13,2.2l0-.12-3.56,2,1.32,3.79,4-.67,0-.12a9.49,9.49,0,0,0,1.46,1.65l-.11-.06L134,103.41l3.6,1.75,2.37-3.31-.12,0a9.15,9.15,0,0,0,2.21.12l-.12,0,2,3.55,3.78-1.31-.66-4-.12,0a9.55,9.55,0,0,0,1.65-1.47l-.06.11,3.91,1.13,1.74-3.61L150.83,94l-.06.12a9.69,9.69,0,0,0,.13-2.21l0,.13,3.56-2-1.32-3.79-4,.67,0,.12a9.14,9.14,0,0,0-1.46-1.65l.11,0Z" style="fill:#636063"/><circle cx="141.48" cy="92.5" r="8.18" transform="translate(-2.34 181.33) rotate(-64.88)" style="fill:#5c7c26"/><path d="M144.16,87A6.15,6.15,0,1,1,136,89.83,6.15,6.15,0,0,1,144.16,87Z" style="fill:#636063"/><path d="M143.34,88.65a4.28,4.28,0,1,1-5.71,2A4.28,4.28,0,0,1,143.34,88.65Z" style="fill:#fff"/></svg>