<svg id="Capa_5" data-name="Capa 5" xmlns="http://www.w3.org/2000/svg" viewBox="0 0 154.5 154"><g id="Capa_7" data-name="Capa 7"><path d="M49,14.82A5.23,5.23,0,0,1,48.49,13,66.08,66.08,0,0,0,47.16,140a5.41,5.41,0,0,1-.86-3.27,5.61,5.61,0,0,1,.23-5,58.37,58.37,0,0,1-.4-110.07,5.52,5.52,0,0,1,.77-3.78A4.65,4.65,0,0,1,49,14.82Z" style="fill:#f7c90d"/></g><path d="M49.42,30.46c0,1.32-.78,2.38-1.75,2.38h-3.9c-1,0-1.76-1.06-1.76-2.38V13.59c0-1.31.79-2.38,1.76-2.38h3.9c1,0,1.75,1.07,1.75,2.38Z" style="fill:#5c7c26"/><path d="M64.62,30.46c0,1.32-.78,2.38-1.75,2.38H59c-1,0-1.75-1.06-1.75-2.38V13.59c0-1.31.78-2.38,1.75-2.38h3.9c1,0,1.75,1.07,1.75,2.38Z" style="fill:#5c7c26"/><path d="M79.83,30.46c0,1.32-.79,2.38-1.76,2.38h-3.9c-1,0-1.75-1.06-1.75-2.38V13.59c0-1.31.78-2.38,1.75-2.38h3.9c1,0,1.76,1.07,1.76,2.38Z" style="fill:#5c7c26"/><path d="M95,30.46c0,1.32-.79,2.38-1.76,2.38h-3.9c-1,0-1.75-1.06-1.75-2.38V13.59c0-1.31.79-2.38,1.75-2.38h3.9c1,0,1.76,1.07,1.76,2.38Z" style="fill:#5c7c26"/><path d="M110.23,30.46c0,1.32-.79,2.38-1.75,2.38h-3.9c-1,0-1.76-1.06-1.76-2.38V13.59c0-1.31.79-2.38,1.76-2.38h3.9c1,0,1.75,1.07,1.75,2.38Z" style="fill:#5c7c26"/><path d="M125.43,30.46c0,1.32-.78,2.38-1.75,2.38h-3.9c-1,0-1.75-1.06-1.75-2.38V13.59c0-1.31.78-2.38,1.75-2.38h3.9c1,0,1.75,1.07,1.75,2.38Z" style="fill:#5c7c26"/><path d="M140.64,30.46c0,1.32-.79,2.38-1.76,2.38H135c-1,0-1.75-1.06-1.75-2.38V13.59c0-1.31.78-2.38,1.75-2.38h3.9c1,0,1.76,1.07,1.76,2.38Z" style="fill:#5c7c26"/><path d="M150.14,137.19c0,2.65-1.59,4.81-3.56,4.81H38.25c-2,0-3.56-2.16-3.56-4.81V30.4c0-2.66,1.59-4.81,3.56-4.81H146.58c2,0,3.56,2.15,3.56,4.81Z" style="fill:#fff;stroke:#938c8c;stroke-miterlimit:10"/><path d="M150.14,56.53V30.4c0-2.66-1.59-4.81-3.56-4.81H38.25c-2,0-3.56,2.15-3.56,4.81V56.53Z" style="fill:#5c7c26"/><path d="M59.94,77.92c0,1.31-.78,2.38-1.75,2.38H47.67c-1,0-1.76-1.07-1.76-2.38v-8.3c0-1.31.79-2.38,1.76-2.38H58.19c1,0,1.75,1.07,1.75,2.38Z" style="fill:#5c7c26"/><path d="M79.24,77.92c0,1.31-.78,2.38-1.75,2.38H67c-1,0-1.75-1.07-1.75-2.38v-8.3c0-1.31.78-2.38,1.75-2.38H77.49c1,0,1.75,1.07,1.75,2.38Z" style="fill:#5c7c26"/><path d="M98.54,77.92c0,1.31-.79,2.38-1.76,2.38H86.26c-1,0-1.76-1.07-1.76-2.38v-8.3c0-1.31.79-2.38,1.76-2.38H96.78c1,0,1.76,1.07,1.76,2.38Z" style="fill:#5c7c26"/><path d="M117.83,77.92c0,1.31-.78,2.38-1.75,2.38H105.55c-1,0-1.75-1.07-1.75-2.38v-8.3c0-1.31.78-2.38,1.75-2.38h10.53c1,0,1.75,1.07,1.75,2.38Z" style="fill:#5c7c26"/><path d="M137.13,77.92c0,1.31-.79,2.38-1.76,2.38H124.85c-1,0-1.76-1.07-1.76-2.38v-8.3c0-1.31.79-2.38,1.76-2.38h10.52c1,0,1.76,1.07,1.76,2.38Z" style="fill:#5c7c26"/><path d="M59.94,100.52c0,1.31-.78,2.37-1.75,2.37H47.67c-1,0-1.76-1.06-1.76-2.37V92.21c0-1.31.79-2.37,1.76-2.37H58.19c1,0,1.75,1.06,1.75,2.37Z" style="fill:#5c7c26"/><path d="M79.24,100.52c0,1.31-.78,2.37-1.75,2.37H67c-1,0-1.75-1.06-1.75-2.37V92.21c0-1.31.78-2.37,1.75-2.37H77.49c1,0,1.75,1.06,1.75,2.37Z" style="fill:#5c7c26"/><path d="M98.54,100.52c0,1.31-.79,2.37-1.76,2.37H86.26c-1,0-1.76-1.06-1.76-2.37V92.21c0-1.31.79-2.37,1.76-2.37H96.78c1,0,1.76,1.06,1.76,2.37Z" style="fill:#5c7c26"/><path d="M117.83,100.52c0,1.31-.78,2.37-1.75,2.37H105.55c-1,0-1.75-1.06-1.75-2.37V92.21c0-1.31.78-2.37,1.75-2.37h10.53c1,0,1.75,1.06,1.75,2.37Z" style="fill:#5c7c26"/><path d="M137.13,100.52c0,1.31-.79,2.37-1.76,2.37H124.85c-1,0-1.76-1.06-1.76-2.37V92.21c0-1.31.79-2.37,1.76-2.37h10.52c1,0,1.76,1.06,1.76,2.37Z" style="fill:#5c7c26"/><path d="M59.94,123.11c0,1.31-.78,2.37-1.75,2.37H47.67c-1,0-1.76-1.06-1.76-2.37V114.8c0-1.31.79-2.37,1.76-2.37H58.19c1,0,1.75,1.06,1.75,2.37Z" style="fill:#5c7c26"/><path d="M79.24,123.11c0,1.31-.78,2.37-1.75,2.37H67c-1,0-1.75-1.06-1.75-2.37V114.8c0-1.31.78-2.37,1.75-2.37H77.49c1,0,1.75,1.06,1.75,2.37Z" style="fill:#5c7c26"/><path d="M98.54,123.11c0,1.31-.79,2.37-1.76,2.37H86.26c-1,0-1.76-1.06-1.76-2.37V114.8c0-1.31.79-2.37,1.76-2.37H96.78c1,0,1.76,1.06,1.76,2.37Z" style="fill:#5c7c26"/><path d="M117.83,123.11c0,1.31-.78,2.37-1.75,2.37H105.55c-1,0-1.75-1.06-1.75-2.37V114.8c0-1.31.78-2.37,1.75-2.37h10.53c1,0,1.75,1.06,1.75,2.37Z" style="fill:#5c7c26"/><path d="M137.13,123.11c0,1.31-.79,2.37-1.76,2.37H124.85c-1,0-1.76-1.06-1.76-2.37V114.8c0-1.31.79-2.37,1.76-2.37h10.52c1,0,1.76,1.06,1.76,2.37Z" style="fill:#5c7c26"/><path d="M150.14,105.18A27.34,27.34,0,1,1,123,77.69,27.34,27.34,0,0,1,150.14,105.18Z" style="fill:#5c7c26"/><path d="M145.2,105.15a22.4,22.4,0,1,1-22.28-22.51A22.4,22.4,0,0,1,145.2,105.15Z" style="fill:#fff"/><line x1="122.68" y1="84.5" x2="122.65" y2="88.61" style="fill:none;stroke:#5c7c26;stroke-linecap:round;stroke-linejoin:round;stroke-width:2.85646px"/><line x1="122.47" y1="121.86" x2="122.45" y2="125.97" style="fill:none;stroke:#5c7c26;stroke-linecap:round;stroke-linejoin:round;stroke-width:2.85646px"/><line x1="101.83" y1="105.13" x2="105.94" y2="105.15" style="fill:none;stroke:#5c7c26;stroke-linecap:round;stroke-linejoin:round;stroke-width:2.85646px"/><line x1="139.19" y1="105.33" x2="143.3" y2="105.35" style="fill:none;stroke:#5c7c26;stroke-linecap:round;stroke-linejoin:round;stroke-width:2.85646px"/><line x1="107.94" y1="90.54" x2="110.84" y2="93.45" style="fill:none;stroke:#5c7c26;stroke-linecap:round;stroke-linejoin:round;stroke-width:2.85646px"/><line x1="134.29" y1="117.02" x2="137.19" y2="119.94" style="fill:none;stroke:#5c7c26;stroke-linecap:round;stroke-linejoin:round;stroke-width:2.85646px"/><line x1="108.27" y1="120.26" x2="111.1" y2="117.28" style="fill:none;stroke:#5c7c26;stroke-linecap:round;stroke-linejoin:round;stroke-width:2.85646px"/><line x1="134.02" y1="93.19" x2="136.85" y2="90.22" style="fill:none;stroke:#5c7c26;stroke-linecap:round;stroke-linejoin:round;stroke-width:2.85646px"/><polygon points="122.92 94.87 122.27 104.7 123.53 104.71 122.92 94.87 122.92 94.87" style="fill:#5c7c26"/><path d="M122.91,104.38Zm0,0-15.62.58,15.61.69v-1.27Z" style="fill:#5c7c26"/><polygon points="114.78 90.81 114.53 90.96 124.21 107.81 124.47 107.66 114.78 90.81 114.78 90.81" style="fill:#5c7c26"/><path d="M122.9,103.7a1.32,1.32,0,0,0,0,2.63h0a1.32,1.32,0,1,0,0-2.63Z" style="fill:#5c7c26"/></svg>