<svg id="Capa_1" data-name="Capa 1" xmlns="http://www.w3.org/2000/svg" viewBox="0 0 154.5 154"><g id="Capa_3" data-name="Capa 3"><path d="M28.26,135.69A64.39,64.39,0,0,1,2.78,63.5,61.53,61.53,0,0,1,42.85,22.36l2.31,7.26A54.56,54.56,0,0,0,9.74,65.77a56.51,56.51,0,0,0,3.86,42.55,55.18,55.18,0,0,0,32.19,27.57l-2.23,7.2A60.7,60.7,0,0,1,28.26,135.69Z" style="fill:#f7c90d"/><rect x="42.61" y="14.97" width="108.02" height="135.19" style="fill:#5c7c26"/><rect x="52.88" y="28.45" width="87.49" height="9.09" style="fill:#fff"/><rect x="82.21" y="54.62" width="58.16" height="2.91" style="fill:#d1d3d4"/><rect x="82.21" y="62.32" width="58.16" height="2.91" style="fill:#d1d3d4"/><rect x="82.21" y="70.02" width="58.16" height="2.91" style="fill:#d1d3d4"/><rect x="52.87" y="53.05" width="19.32" height="19.32" style="fill:#fff"/><polygon points="68.84 49.84 61.35 63.59 58.15 56.88 50.55 60.9 61.23 69.94 77.31 52.49 68.84 49.84" style="fill:#5c7c26"/><rect x="82.21" y="84.28" width="58.16" height="2.91" style="fill:#d1d3d4"/><rect x="82.21" y="91.97" width="58.16" height="2.91" style="fill:#d1d3d4"/><rect x="82.21" y="99.67" width="58.16" height="2.91" style="fill:#d1d3d4"/><rect x="52.87" y="83.92" width="19.32" height="19.32" style="fill:#fff"/><polygon points="68.84 80.71 61.35 94.45 58.15 87.75 50.55 91.77 61.23 100.81 77.31 83.36 68.84 80.71" style="fill:#5c7c26"/><rect x="82.21" y="113.92" width="58.16" height="2.91" style="fill:#d1d3d4"/><rect x="82.21" y="121.62" width="58.16" height="2.91" style="fill:#d1d3d4"/><rect x="82.21" y="129.32" width="58.16" height="2.91" style="fill:#d1d3d4"/><rect x="52.87" y="113.57" width="19.32" height="19.32" style="fill:#fff"/><polygon points="68.84 110.36 61.35 124.1 58.15 117.4 50.55 121.42 61.23 130.46 77.31 113.01 68.84 110.36" style="fill:#5c7c26"/><ellipse cx="98.67" cy="11.5" rx="14.76" ry="8.93" style="fill:#fff;stroke:#5c7c26;stroke-miterlimit:10"/><rect x="94.04" y="6.56" width="9.27" height="3.33" rx="0.75" style="fill:#fff"/><rect x="72.71" y="11.04" width="51.92" height="10.3" rx="1.68" style="fill:#fff;stroke:#5c7c26;stroke-miterlimit:10"/><path d="M121.58,15.11H76.09a1.44,1.44,0,0,1-1.43-1.43h0a1.44,1.44,0,0,1,1.43-1.44h45.49A1.44,1.44,0,0,1,123,13.68h0A1.44,1.44,0,0,1,121.58,15.11Z" style="fill:#fff;opacity:0.17"/></g></svg>