<svg id="Capa_1" data-name="Capa 1" xmlns="http://www.w3.org/2000/svg" viewBox="0 0 154.5 154"><g id="Capa_8" data-name="Capa 8"><path d="M27.11,130.2a60.51,60.51,0,0,1-13-12.41A63.13,63.13,0,0,1,5.2,102.28C-2.93,81.72,3,62.66,4,59.86A61.63,61.63,0,0,1,19.4,35,63,63,0,0,1,40.33,21.68a52.74,52.74,0,0,1,31.59-3.21l-2.54,7.91a54.78,54.78,0,0,0-25.69,2.33A53.32,53.32,0,0,0,25.28,39.48a53.82,53.82,0,0,0-14.7,22.76c-6.69,20.29,1.17,37.62,2.88,41.16a54.21,54.21,0,0,0,11.67,15.93,52.64,52.64,0,0,0,19.54,11.54,51.74,51.74,0,0,0,24.49,1.72l4.94,7a68,68,0,0,1-25.94-.65A57.88,57.88,0,0,1,27.11,130.2Z" style="fill:#f7c90d"/></g><path d="M66.61,11.62l85.14.11-.16,118.15-104.33-.15.14-98.95Z" style="fill:#5c7c26"/><polygon points="52.65 33.85 52.52 124.67 146.36 124.8 146.51 16.73 69.92 16.62 69.9 33.85 52.65 33.85" style="fill:#fff"/><rect x="93.57" y="11.45" width="11.15" height="73.88" transform="translate(50.62 147.47) rotate(-89.92)" style="fill:#5c7c26"/><rect x="93.54" y="31.22" width="11.15" height="73.88" transform="translate(30.82 167.19) rotate(-89.92)" style="fill:#5c7c26"/><rect x="93.49" y="70.77" width="11.15" height="73.88" transform="translate(-8.78 206.63) rotate(-89.92)" style="fill:#5c7c26"/><rect x="83.29" y="60.85" width="11.15" height="53.43" transform="translate(1.18 176.31) rotate(-89.92)" style="fill:#5c7c26"/><rect x="34.68" y="102.66" width="50.64" height="39.84" style="fill:#5c7c26"/><path d="M58,130.8l-2.19-8.68a3.45,3.45,0,1,0-2.83,0l-2.19,8.68Z" style="fill:#919191"/><path d="M80.09,102.66h-4V99.41A15.6,15.6,0,0,0,60.52,83.83h-.36A15.59,15.59,0,0,0,44.59,99.41v3.25h-4V99.41A19.59,19.59,0,0,1,60.16,79.84h.36A19.59,19.59,0,0,1,80.09,99.41Z" style="fill:#5c7c26"/><rect x="66.88" y="102.66" width="2.53" height="39.84" style="fill:#919191"/><text transform="translate(75.68 34.32)" style="font-size:15.950933456420898px;fill:#5c7c26;font-family:MyriadPro-Bold, Myriad Pro;font-weight:700">CDFI</text><text transform="translate(116.73 34.32)" style="font-size:15.950933456420898px;fill:#5c7c26;font-family:MyriadPro-Bold, Myriad Pro;font-weight:700">4.0</text></svg>