<?xml version="1.0" encoding="utf-8"?>
<!-- Generator: Adobe Illustrator 25.2.3, SVG Export Plug-In . SVG Version: 6.00 Build 0)  -->
<svg version="1.1" id="Capa_1" xmlns="http://www.w3.org/2000/svg" xmlns:xlink="http://www.w3.org/1999/xlink" x="0px" y="0px"
	 viewBox="0 0 154.5 154" style="enable-background:new 0 0 154.5 154;" xml:space="preserve">
<style type="text/css">
	.st0{fill:#F7C90D;}
	.st1{fill:#5C7C26;}
</style>
<g id="Capa_7">
	<path class="st0" d="M60.9,16.2C27.3,16.2,0.1,43.4,0.1,77s27.2,60.8,60.8,60.8c9.1,0,17.8-2.1,25.5-5.7c-0.6-0.1-1.2-0.2-1.6-0.4
		c-0.7,0.4-1.5,0.6-2.4,0.6c-2.9,0-4.5-2-4.8-4.2c-5.3,1.7-10.9,2.7-16.7,2.7c-29.7,0-53.8-24.1-53.8-53.8s24.1-53.8,53.8-53.8
		c20.5,0.1,38.3,11.6,47.4,28.6c0.2-1.7,1.1-3.2,2.7-3.9c0.1-1.1,0.6-2.2,1.4-3.1C101.7,27.6,82.6,16.2,60.9,16.2z"/>
</g>
<g id="Capa_2">
	<g>
		<path class="st1" d="M69.7,98.9c-7.7,0-15.4-1.2-19.4-3.5c-1.2-0.7-1.8-1.4-1.8-1.5c1.2-15.5,4.3-18.1,10.4-23.3l1.6-1.3
			c2.8,1.3,5.9,2,9.1,2c1.3,0,2.4-0.1,3.6-0.3v-7.3c-1.2,0.3-2.3,0.5-3.6,0.5c-8.1,0-14.6-6.6-14.6-14.6c0-8.1,6.6-14.6,14.6-14.6
			c8.1,0,14.6,6.6,14.6,14.6c0,1.2-0.1,2.2-0.4,3.3h7.2c0.2-1.1,0.3-2.1,0.3-3.3c0-12-9.7-21.7-21.7-21.7C57.7,28,48,37.7,48,49.7
			c0,6.1,2.5,11.6,6.5,15.5l-0.1,0.1c-7.3,6.2-11.5,10.6-12.9,28.4c0,2.2,0.9,5.3,5.3,7.9c5,2.9,14.3,4.4,22.9,4.4L69.7,98.9z"/>
		<path class="st1" d="M69.7,42.2c4.1,0,7.5,3.4,7.5,7.5c0,1,0.8,1.8,1.8,1.8c1,0,1.8-0.8,1.8-1.8c0-6.1-4.9-11-11-11
			c-1,0-1.8,0.8-1.8,1.8C68,41.4,68.8,42.2,69.7,42.2z"/>
		<path class="st1" d="M112,53c-0.2-1.1-0.4-2.2-0.4-3.3c0-8.1,6.6-14.6,14.6-14.6c8.1,0,14.6,6.6,14.6,14.6
			c0,8.1-6.6,14.6-14.6,14.6c-1.2,0-2.4-0.1-3.5-0.4l0,7.2c1.1,0.2,2.3,0.3,3.5,0.3c3.3,0,6.4-0.8,9.2-2.1l1.6,1.4
			c6.1,5.2,9.2,7.8,10.4,23c0,0.4-0.6,1-1.8,1.8c-4,2.3-11.7,3.5-19.4,3.5l0,7.1c8.7-0.1,17.9-1.5,22.9-4.4c4.4-2.5,5.3-5.7,5.3-8.1
			c-1.4-17.5-5.6-21.9-12.9-28.1l-0.2-0.2c4-3.9,6.5-9.4,6.5-15.5c0-12-9.7-21.7-21.7-21.7c-12,0-21.7,9.7-21.7,21.7
			c0,1.1,0.1,2.2,0.3,3.3L112,53z"/>
		<path class="st1" d="M137.3,49.6c0-6.1-4.9-11-11-11c-1,0-1.8,0.8-1.8,1.8c0,1,0.8,1.8,1.8,1.8c4.1,0,7.5,3.4,7.5,7.5
			c0,1,0.8,1.8,1.8,1.8C136.5,51.4,137.3,50.6,137.3,49.6z"/>
		<path class="st1" d="M134.7,79.2c5.2,2.6,5.2,11.1,5.2,13.9c0,1,0.8,1.8,1.8,1.8c1,0,1.8-0.8,1.8-1.8c0-3.3,0-13.5-7.2-17.1
			c-0.9-0.4-1.9-0.1-2.4,0.8C133.5,77.7,133.8,78.7,134.7,79.2z"/>
		<path class="st1" d="M98,70.4c4.1,0,7.5,3.4,7.5,7.5c0,1,0.8,1.8,1.8,1.8c1,0,1.8-0.8,1.8-1.8c0-6.1-4.9-11-11-11
			c-1,0-1.8,0.8-1.8,1.8C96.2,69.7,97,70.4,98,70.4z"/>
		<path class="st1" d="M108,104.3c-0.9-0.4-1.9-0.1-2.4,0.8c-0.4,0.9-0.1,1.9,0.8,2.4c5.2,2.6,5.2,11.1,5.2,13.9
			c0,1,0.8,1.8,1.8,1.8s1.8-0.8,1.8-1.8C115.2,118,115.2,107.9,108,104.3z"/>
		<path class="st1" d="M113.3,93.6l-0.2-0.2c4-3.9,6.5-9.4,6.5-15.5c0-12-9.7-21.7-21.7-21.7C86,56.3,76.2,66,76.2,78
			c0,6.1,2.5,11.6,6.5,15.5l-0.1,0.1c-7.3,6.2-11.5,10.6-12.9,28.4c0,2.2,0.9,5.3,5.3,7.9c5.1,3,14,4.5,22.9,4.5
			c8.9,0,17.8-1.5,22.9-4.5c4.4-2.5,5.3-5.7,5.3-8.1C124.9,104.2,120.7,99.8,113.3,93.6z M112.6,78c0,8.1-6.6,14.6-14.6,14.6
			c-8.1,0-14.6-6.6-14.6-14.6c0-8.1,6.6-14.6,14.6-14.6C106,63.3,112.6,69.9,112.6,78z M78.6,123.7c-1.2-0.7-1.8-1.4-1.8-1.5
			c1.2-15.5,4.3-18.1,10.4-23.3l1.6-1.3c0.3,0.1,0.6,0.3,0.9,0.4l5.1,7.1l-6.2,14.2l6.4,7.8C88.4,126.9,82.1,125.7,78.6,123.7z
			 M117.4,123.7c-3.5,2-9.9,3.2-16.6,3.4l6.4-7.8l-6.2-14.2l5.1-7.1c0.3-0.1,0.7-0.3,1-0.4l1.6,1.4c6.1,5.2,9.2,7.8,10.4,23
			C119.2,122.3,118.7,123,117.4,123.7z"/>
	</g>
</g>
</svg>
