<svg xmlns="http://www.w3.org/2000/svg" viewBox="0 0 154.5 154"><g style="isolation:isolate"><g id="Capa_1" data-name="Capa 1"><g id="Capa_8" data-name="Capa 8"><path d="M30.62,126.07A64.38,64.38,0,0,1,6.68,53.34a61.16,61.16,0,0,1,41-40.23l2.14,7.35A54.14,54.14,0,0,0,13.53,55.79a56.09,56.09,0,0,0,3,42.57,55.19,55.19,0,0,0,31.6,28.29l-2.36,7.15A60.35,60.35,0,0,1,30.62,126.07Z" style="fill:#f7c90d"/></g><g id="Capa_9" data-name="Capa 9"><path d="M140.83,24.38H64.47a4.25,4.25,0,1,0,0,8.5h76.36a4.25,4.25,0,0,0,0-8.5Z" style="fill:#e2e2e2;mix-blend-mode:multiply"/><path d="M140.38,23.61H64a4.25,4.25,0,1,0,0,8.5h76.36a4.25,4.25,0,0,0,0-8.5Z" style="fill:#5c7c26"/><path d="M135.61,26.82H75.53c-1.84,0-3.34.69-3.34,1.53s1.5,1.52,3.34,1.52h60.08c1.85,0,3.34,0,3.34-1.52S137.46,26.82,135.61,26.82Z" style="fill:#2d303a"/><path d="M53.33,10.77a8.65,8.65,0,0,0-8.9,8.2h0v.15h0L44.73,135l4.11,4.33L53,135h.61l4.11,4.33L61.8,135h.61l4.12,4.33L70.64,135h.61l4.12,4.33L79.48,135h.62l4.11,4.33L88.32,135h.62l4.11,4.33L97.17,135h.61l4.11,4.33L106,135h.61l4.12,4.33,4.12-4.33h.61l4.12,4.33V19.13C119.59,14.58,53.33,10.77,53.33,10.77Z" style="fill:#e2e2e2;mix-blend-mode:multiply"/><path d="M126.81,9.86h-9.26V28.47h19.81v-8.7C137.36,14.3,132.64,9.86,126.81,9.86Z" style="fill:#fff"/><path d="M51.29,9.86a8.66,8.66,0,0,0-8.9,8.21h0v.15h0l.31,115.87,4.11,4.34,4.12-4.34h.61l4.12,4.34,4.11-4.34h.61l4.12,4.34,4.11-4.34h.61l4.12,4.34,4.12-4.34h.61l4.11,4.34,4.12-4.34h.61L91,138.43l4.12-4.34h.61l4.12,4.34,4.11-4.34h.61l4.12,4.34,4.12-4.34h.61l4.12,4.34V18.22a8.64,8.64,0,0,1,8.68-8.35H51.29Z" style="fill:#5c7c26"/><path d="M81.11,47.2l-.06.11-.21-.14,0,0,0,0a.43.43,0,0,1,0,.11v.26h-.12v-.31s0,0,0,0l0,0,0,0-.21.14-.06-.12.21-.13,0,0h0l-.09,0-.21-.14.06-.11.21.14,0,0,0,0a.09.09,0,0,1,0-.05.11.11,0,0,1,0,0v-.27h.12v.36l0,0,0,0,.21-.13.06.11L80.9,47l-.05,0,0,0a.16.16,0,0,1,.09,0Z" style="fill:#5e6168"/><path d="M82.57,47.2l0,.11-.22-.14,0,0,0,0a.43.43,0,0,1,0,.11v.26h-.12v-.31a.08.08,0,0,1,0,0l0,0,0,0-.22.14,0-.12.21-.13,0,0h0A.19.19,0,0,1,82,47l-.22-.14.06-.11.22.14,0,0,0,0,0-.05v-.32h.12v.32s0,0,0,0l0,0,0,0,.21-.13.06.11-.21.13,0,0,0,0a.13.13,0,0,1,.08,0Z" style="fill:#5e6168"/><path d="M84,47.2l-.06.11-.21-.14,0,0,0,0a.43.43,0,0,1,0,.11v.26H83.6v-.31a.43.43,0,0,1,0,0l0,0,0,0-.21.14-.06-.12.21-.13,0,0h0l-.09,0-.21-.14.06-.11.21.14,0,0,0,0s0,0,0-.05v-.32h.12v.26s0,0,0,.06a.06.06,0,0,1,0,0l0,0,0,0,.21-.13.06.11-.21.13,0,0-.05,0a.16.16,0,0,1,.09,0Z" style="fill:#5e6168"/><path d="M85.51,47.2l-.06.11-.21-.14,0,0,0,0a.22.22,0,0,1,0,.11v.26h-.12v-.26a.43.43,0,0,1,0-.05.07.07,0,0,1,0,0l0,0,0,0-.21.14-.06-.12.21-.13,0,0H85L85,47l-.21-.14.06-.11.21.14,0,0,0,0s0,0,0-.05a.43.43,0,0,0,0,0v-.27h.12v.36l0,0,0,0,.21-.13.06.11L85.3,47l0,0-.05,0a.16.16,0,0,1,.09,0Z" style="fill:#5e6168"/><path d="M87,47.2l-.06.11-.21-.14,0,0,0,0a.43.43,0,0,1,0,.11v.26h-.12v-.31s0,0,0,0l0,0,0,0-.21.14-.06-.12.21-.13,0,0h.05l-.09,0-.21-.14.06-.11.21.14,0,0,0,0a.09.09,0,0,1,0-.05.11.11,0,0,1,0,0v-.27h.12v.36l0,0,0,0,.21-.13.06.11-.22.13,0,0,0,0a.11.11,0,0,1,.08,0Z" style="fill:#5e6168"/><path d="M88.44,47.2l0,.11-.22-.14,0,0,0,0a.43.43,0,0,1,0,.11v.26H88v-.31a.08.08,0,0,1,0,0l0,0,0,0-.21.14,0-.12.21-.13,0,0h0a.19.19,0,0,1-.09,0l-.22-.14.06-.11.21.14,0,0,0,0,0-.05v-.32h.12v.32s0,0,0,0l0,0,0,0,.21-.13.06.11-.21.13,0,0,0,0a.13.13,0,0,1,.08,0Z" style="fill:#5e6168"/><path d="M89.91,47.2l-.06.11-.21-.14,0,0,0,0a.43.43,0,0,1,0,.11v.26h-.12v-.31a.43.43,0,0,1,0,0l0,0,0,0-.21.14-.06-.12.21-.13.05,0h0l-.09,0-.21-.14.06-.11.21.14,0,0a.08.08,0,0,1,0,0s0,0,0-.05v-.32h.12v.26s0,0,0,.06a.06.06,0,0,1,0,0l0,0,0,0,.21-.13.06.11L89.7,47l0,0,0,0a.16.16,0,0,1,.09,0Z" style="fill:#5e6168"/><path d="M91.38,47.2l-.06.11-.21-.14,0,0,0,0a.22.22,0,0,1,0,.11v.26h-.12v-.26a169620028953.31,169620028953.31,0,0,1,0-.1l0,0,0,0-.21.14-.06-.12.21-.13,0,0h0l-.09,0-.21-.14.06-.11.21.14,0,0,0,0s0,0,0-.05a.43.43,0,0,0,0,0v-.27h.12v.36l0,0,0,0,.21-.13.06.11-.21.13,0,0,0,0a.16.16,0,0,1,.09,0Z" style="fill:#5e6168"/><path d="M92.85,47.2l-.06.11-.21-.14,0,0,0,0a.43.43,0,0,1,0,.11v.26H92.4v-.31s0,0,0,0l0,0,0,0-.21.14-.06-.12.21-.13,0,0h0l-.09,0-.21-.14.06-.11.21.14,0,0,0,0a.09.09,0,0,1,0-.05.11.11,0,0,1,0,0v-.27h.12v.36l0,0,0,0,.21-.13.06.11-.22.13,0,0,0,0a.11.11,0,0,1,.08,0Z" style="fill:#5e6168"/><path d="M94.31,47.2l0,.11L94,47.17l0,0,0,0a.43.43,0,0,1,0,.11v.26h-.12v-.31a.08.08,0,0,1,0,0l0,0,0,0-.21.14-.06-.12.22-.13,0,0h0l-.08,0-.22-.14.06-.11.21.14,0,0,0,0,0-.05v-.32H94v.26a.13.13,0,0,1,0,.06.06.06,0,0,1,0,0l0,0,0,0,.21-.13.06.11L94.1,47l0,0,0,0a.13.13,0,0,1,.08,0Z" style="fill:#5e6168"/><path d="M95.78,47.2l-.06.11-.21-.14,0,0,0,0a.43.43,0,0,1,0,.11v.26h-.12v-.31a.43.43,0,0,1,0,0l0,0,0,0-.21.14L95,47.19l.21-.13,0,0h0l-.09,0L95,46.85l.06-.11.21.14,0,0a.08.08,0,0,1,0,0s0,0,0-.05v-.32h.12v.26s0,0,0,.06a.06.06,0,0,1,0,0l0,0,0,0,.21-.13.06.11-.21.13,0,0,0,0a.16.16,0,0,1,.09,0Z" style="fill:#5e6168"/><path d="M97.25,47.2l-.06.11L97,47.17l0,0a.08.08,0,0,1,0,0,.22.22,0,0,1,0,.11v.26H96.8v-.26a207313368720.71,207313368720.71,0,0,0,0-.1l0,0,0,0-.21.14-.06-.12.21-.13,0,0h0l-.09,0-.21-.14.06-.11.21.14,0,0,0,0s0,0,0-.05a.43.43,0,0,0,0,0v-.27h.12v.36l0,0,0,0,.21-.13.06.11L97,47l0,0,0,0a.16.16,0,0,1,.09,0Z" style="fill:#5e6168"/><path d="M98.72,47.2l-.06.11-.21-.14,0,0,0,0a.43.43,0,0,1,0,.11v.26h-.12v-.31s0,0,0,0l0,0,0,0-.21.14L98,47.19l.21-.13,0,0h0l-.09,0L98,46.85l0-.11.22.14,0,0,0,0a.09.09,0,0,1,0-.05.11.11,0,0,1,0,0v-.27h.12v.36l0,0,0,0,.21-.13.06.11L98.5,47l0,0,0,0a.11.11,0,0,1,.08,0Z" style="fill:#5e6168"/><rect x="49.33" y="46.3" width="26.37" height="1.46" style="fill:#5e6168"/><rect x="102.2" y="46.3" width="6.51" height="1.46" style="fill:#2d303a"/><path d="M81.11,50.62l-.06.11-.21-.14,0,0,0,0a.3.3,0,0,1,0,.1v.26h-.12v-.31l0,0,0,0,0,0-.21.14-.06-.11.21-.14,0,0h0l-.09,0-.21-.13.06-.11.21.13,0,0,0,0a.07.07,0,0,1,0,0,.09.09,0,0,1,0,0V50h.12v.32a.43.43,0,0,0,0,0l0,0,0,0,.21-.13.06.11-.21.13-.05,0h0l.09,0Z" style="fill:#5e6168"/><path d="M82.57,50.62l0,.11-.22-.14,0,0,0,0a.3.3,0,0,1,0,.1v.26h-.12v-.31s0,0,0,0l0,0,0,0-.22.14,0-.11.21-.14,0,0h0a.19.19,0,0,1-.09,0l-.22-.13.06-.11.22.13,0,0,0,0s0,0,0,0V50h.12v.32s0,0,0,0l0,0,0,0,.21-.13.06.11-.21.13,0,0h0a.13.13,0,0,1,.08,0Z" style="fill:#5e6168"/><path d="M84,50.62l-.06.11-.21-.14,0,0,0,0a.3.3,0,0,1,0,.1v.26H83.6v-.31s0,0,0,0l0,0a.05.05,0,0,1,0,0l-.21.14-.06-.11.21-.14,0,0h0l-.09,0-.21-.13.06-.11.21.13,0,0,0,0a.08.08,0,0,1,0,0V50h.12v.27a.43.43,0,0,0,0,0,.11.11,0,0,1,0,0l0,0,0,0,.21-.13.06.11-.21.13,0,0h-.05l.09,0Z" style="fill:#5e6168"/><path d="M85.51,50.62l-.06.11-.21-.14,0,0,0,0a.16.16,0,0,1,0,.1v.26h-.12v-.26s0,0,0-.05a.09.09,0,0,1,0,0l0,0,0,0-.21.14-.06-.11.21-.14,0,0H85l-.09,0-.21-.13.06-.11.21.13,0,0,0,0a.43.43,0,0,1,0,0s0,0,0,0V50h.12v.32a.43.43,0,0,0,0,0l0,0,0,0,.21-.13.06.11-.21.13,0,0h-.05l.09,0Z" style="fill:#5e6168"/><path d="M87,50.62l-.06.11-.21-.14,0,0,0,0a.3.3,0,0,1,0,.1v.26h-.12v-.31l0,0,0,0,0,0-.21.14-.06-.11.21-.14,0,0h.05l-.09,0-.21-.13.06-.11.21.13,0,0,0,0a.07.07,0,0,1,0,0,.09.09,0,0,1,0,0V50h.12v.32a.43.43,0,0,0,0,0s0,0,0,0l0,0,.21-.13.06.11-.22.13,0,0h0a.11.11,0,0,1,.08,0Z" style="fill:#5e6168"/><path d="M88.44,50.62l0,.11-.22-.14,0,0,0,0a.3.3,0,0,1,0,.1v.26H88v-.31s0,0,0,0,0,0,0,0l0,0-.21.14,0-.11.21-.14,0,0h0a.19.19,0,0,1-.09,0l-.22-.13.06-.11.21.13,0,0,0,0s0,0,0,0V50h.12v.32s0,0,0,0l0,0,0,0,.21-.13.06.11-.21.13,0,0h0a.13.13,0,0,1,.08,0Z" style="fill:#5e6168"/><path d="M89.91,50.62l-.06.11-.21-.14,0,0,0,0a.3.3,0,0,1,0,.1v.26h-.12v-.31s0,0,0,0l0,0a.05.05,0,0,1,0,0l-.21.14-.06-.11.21-.14.05,0h0l-.09,0-.21-.13.06-.11.21.13,0,0,0,0a.08.08,0,0,1,0,0V50h.12v.27a.43.43,0,0,0,0,0,.11.11,0,0,1,0,0l0,0,0,0,.21-.13.06.11-.21.13,0,0h0l.09,0Z" style="fill:#5e6168"/><path d="M91.38,50.62l-.06.11-.21-.14,0,0,0,0a.16.16,0,0,1,0,.1v.26h-.12v-.26a169620028953.32,169620028953.32,0,0,1,0-.1l0,0,0,0-.21.14-.06-.11.21-.14,0,0h0l-.09,0-.21-.13.06-.11.21.13,0,0,0,0a.43.43,0,0,1,0,0s0,0,0,0V50h.12v.32a.43.43,0,0,0,0,0l0,0,0,0,.21-.13.06.11-.21.13,0,0h0l.09,0Z" style="fill:#5e6168"/><path d="M92.85,50.62l-.06.11-.21-.14,0,0,0,0a.3.3,0,0,1,0,.1v.26H92.4v-.31l0,0,0,0,0,0-.21.14-.06-.11.21-.14,0,0h0l-.09,0-.21-.13.06-.11.21.13,0,0,0,0a.07.07,0,0,1,0,0,.09.09,0,0,1,0,0V50h.12v.32a.43.43,0,0,0,0,0s0,0,0,0l0,0,.21-.13.06.11-.22.13,0,0h0a.11.11,0,0,1,.08,0Z" style="fill:#5e6168"/><path d="M94.31,50.62l0,.11L94,50.59l0,0,0,0a.3.3,0,0,1,0,.1v.26h-.12v-.31s0,0,0,0,0,0,0,0a.05.05,0,0,1,0,0l-.21.14-.06-.11.22-.14,0,0h0a.2.2,0,0,1-.08,0l-.22-.13.06-.11.21.13,0,0,0,0s0,0,0,0V50H94v.27a186582031848.63,186582031848.63,0,0,1,0,.1l0,0,0,0,.21-.13.06.11-.21.13,0,0h0a.13.13,0,0,1,.08,0Z" style="fill:#5e6168"/><path d="M95.78,50.62l-.06.11-.21-.14,0,0,0,0a.3.3,0,0,1,0,.1v.26h-.12v-.31s0,0,0,0l0,0a.05.05,0,0,1,0,0l-.21.14L95,50.62l.21-.14,0,0h0l-.09,0L95,50.28l.06-.11.21.13,0,0s0,0,0,0a.08.08,0,0,1,0,0V50h.12v.27a.43.43,0,0,0,0,0,.11.11,0,0,1,0,0l0,0,0,0,.21-.13.06.11-.21.13,0,0h0l.09,0Z" style="fill:#5e6168"/><path d="M97.25,50.62l-.06.11L97,50.59l0,0,0,0a.16.16,0,0,1,0,.1v.26H96.8v-.26a207313368720.71,207313368720.71,0,0,0,0-.1l0,0,0,0-.21.14-.06-.11.21-.14,0,0h0l-.09,0-.21-.13.06-.11.21.13,0,0,0,0a.43.43,0,0,1,0,0s0,0,0,0V50h.12v.32a.43.43,0,0,0,0,0l0,0,0,0,.21-.13.06.11-.21.13,0,0h0l.09,0Z" style="fill:#5e6168"/><path d="M98.72,50.62l-.06.11-.21-.14,0,0,0,0a.3.3,0,0,1,0,.1v.26h-.12v-.31l0,0,0,0,0,0-.21.14L98,50.62l.21-.14,0,0h0l-.09,0L98,50.28l0-.11.22.13,0,0,0,0a.07.07,0,0,1,0,0,.09.09,0,0,1,0,0V50h.12v.32a.43.43,0,0,0,0,0s0,0,0,0l0,0,.21-.13.06.11-.22.13,0,0h0a.11.11,0,0,1,.08,0Z" style="fill:#5e6168"/><rect x="49.33" y="49.72" width="14.33" height="1.46" style="fill:#5e6168"/><rect x="102.2" y="49.72" width="6.51" height="1.46" style="fill:#2d303a"/><path d="M81.11,54l-.06.11L80.84,54l0,0,0,0a.36.36,0,0,1,0,.1v.27h-.12V54s0,0,0,0l0,0,0,0-.21.13L80.34,54l.21-.13,0,0h0l-.09,0-.21-.14.06-.11.21.13,0,0,0,0a1865820318486.53,1865820318486.53,0,0,1,0-.1v-.27h.12v.32s0,0,0,0l0,0,0,0,.21-.13.06.11-.21.14-.05,0h0a.18.18,0,0,1,.09,0Z" style="fill:#5e6168"/><path d="M82.57,54l0,.11L82.3,54l0,0,0,0a.36.36,0,0,1,0,.1v.27h-.12V54l0,0,0,0,0,0-.22.13,0-.11.21-.13,0,0h0a.19.19,0,0,1-.09,0l-.22-.14.06-.11.22.13,0,0,0,0s0,0,0,0v-.32h.12v.32l0,0,0,0,0,0,.21-.13.06.11-.21.14,0,0h0s0,0,.08,0Z" style="fill:#5e6168"/><path d="M84,54l-.06.11L83.77,54l0,0,0,0a.36.36,0,0,1,0,.1v.27H83.6V54a.43.43,0,0,0,0,0l0,0,0,0-.21.13L83.27,54l.21-.13,0,0h0l-.09,0-.21-.14.06-.11.21.13,0,0,0,0a.08.08,0,0,1,0,0v-.32h.12v.27s0,0,0,.05a.09.09,0,0,1,0,0l0,0,0,0,.21-.13.06.11-.21.14,0,0h-.05a.18.18,0,0,1,.09,0Z" style="fill:#5e6168"/><path d="M85.51,54l-.06.11L85.24,54l0,0,0,0a.18.18,0,0,1,0,.1v.27h-.12v-.27s0,0,0,0a.11.11,0,0,1,0,0l0,0,0,0-.21.13L84.74,54l.21-.13,0,0H85l-.09,0-.21-.14.06-.11.21.13a.08.08,0,0,1,0,0l0,0a169620028953.26,169620028953.26,0,0,1,0-.1v-.27h.12v.32s0,0,0,0l0,0,0,0,.21-.13.06.11-.21.14,0,0h-.05a.18.18,0,0,1,.09,0Z" style="fill:#5e6168"/><path d="M87,54l-.06.11L86.71,54l0,0,0,0a.36.36,0,0,1,0,.1v.27h-.12V54s0,0,0,0l0,0,0,0-.21.13L86.21,54l.21-.13,0,0h.05l-.09,0-.21-.14.06-.11.21.13s0,0,0,0l0,0a207313368720.72,207313368720.72,0,0,0,0-.1v-.27h.12v.32s0,0,0,0l0,0,0,0,.21-.13.06.11-.22.14,0,0h0a.12.12,0,0,1,.08,0Z" style="fill:#5e6168"/><path d="M88.44,54l0,.11L88.17,54l0,0,0,0a.36.36,0,0,1,0,.1v.27H88V54l0,0a.08.08,0,0,1,0,0l0,0-.21.13,0-.11.21-.13,0,0h0a.19.19,0,0,1-.09,0l-.22-.14.06-.11.21.13,0,0,0,0s0,0,0,0v-.32h.12v.32l0,0,0,0,0,0,.21-.13.06.11-.21.14,0,0h0s0,0,.08,0Z" style="fill:#5e6168"/><path d="M89.91,54l-.06.11L89.64,54l0,0,0,0a.36.36,0,0,1,0,.1v.27h-.12V54a.43.43,0,0,0,0,0l0,0,0,0-.21.13L89.14,54l.21-.13.05,0h0l-.09,0-.21-.14.06-.11.21.13a.08.08,0,0,1,0,0l0,0a.08.08,0,0,1,0,0v-.32h.12v.27s0,0,0,.05a.09.09,0,0,1,0,0l0,0,0,0,.21-.13.06.11-.21.14,0,0h0a.18.18,0,0,1,.09,0Z" style="fill:#5e6168"/><path d="M91.38,54l-.06.11L91.11,54l0,0,0,0a.18.18,0,0,1,0,.1v.27h-.12v-.27a.09.09,0,0,1,0,0,.11.11,0,0,1,0,0l0,0,0,0-.21.13L90.61,54l.21-.13,0,0h0l-.09,0-.21-.14.06-.11.21.13,0,0,0,0a169620028953.3,169620028953.3,0,0,1,0-.1v-.27h.12v.32s0,0,0,0l0,0,0,0,.21-.13.06.11-.21.14,0,0h0a.18.18,0,0,1,.09,0Z" style="fill:#5e6168"/><path d="M92.85,54l-.06.11L92.58,54l0,0,0,0a.36.36,0,0,1,0,.1v.27H92.4V54s0,0,0,0l0,0,0,0-.21.13L92.08,54l.21-.13,0,0h0l-.09,0-.21-.14.06-.11.21.13,0,0,0,0a169620028953.29,169620028953.29,0,0,1,0-.1v-.27h.12v.32s0,0,0,0l0,0,0,0,.21-.13.06.11-.22.14,0,0h0a.12.12,0,0,1,.08,0Z" style="fill:#5e6168"/><path d="M94.31,54l0,.11L94,54l0,0,0,0a.36.36,0,0,1,0,.1v.27h-.12V54l0,0,0,0,0,0-.21.13L93.54,54l.22-.13,0,0h0a.19.19,0,0,1-.08,0l-.22-.14.06-.11.21.13,0,0,0,0s0,0,0,0v-.32H94v.27a169620028953.29,169620028953.29,0,0,1,0,.1l0,0,0,0,.21-.13.06.11-.21.14,0,0h0s0,0,.08,0Z" style="fill:#5e6168"/><path d="M95.78,54l-.06.11L95.51,54l0,0,0,0a.36.36,0,0,1,0,.1v.27h-.12V54a.43.43,0,0,0,0,0l0,0,0,0-.21.13L95,54l.21-.13,0,0h0l-.09,0L95,53.7l.06-.11.21.13a.08.08,0,0,1,0,0l0,0a.08.08,0,0,1,0,0v-.32h.12v.27s0,0,0,.05a.09.09,0,0,1,0,0l0,0,0,0,.21-.13.06.11-.21.14,0,0h0a.18.18,0,0,1,.09,0Z" style="fill:#5e6168"/><path d="M97.25,54l-.06.11L97,54l0,0,0,0a.18.18,0,0,1,0,.1v.27H96.8v-.27a.09.09,0,0,1,0,0,.11.11,0,0,1,0,0l0,0,0,0-.21.13L96.48,54l.21-.13,0,0h0l-.09,0-.21-.14.06-.11.21.13,0,0,0,0a207313368720.66,207313368720.66,0,0,0,0-.1v-.27h.12v.32s0,0,0,0l0,0,0,0,.21-.13.06.11-.21.14a.05.05,0,0,0,0,0h0a.18.18,0,0,1,.09,0Z" style="fill:#5e6168"/><path d="M98.72,54l-.06.11L98.45,54l0,0,0,0a.36.36,0,0,1,0,.1v.27h-.12V54s0,0,0,0l0,0,0,0-.21.13L98,54l.21-.13,0,0h0l-.09,0L98,53.7l0-.11.22.13,0,0,0,0a1865820318485.9,1865820318485.9,0,0,1,0-.1v-.27h.12v.32s0,0,0,0a.05.05,0,0,1,0,0l0,0,.21-.13.06.11-.22.14,0,0h0a.12.12,0,0,1,.08,0Z" style="fill:#5e6168"/><rect x="49.33" y="53.14" width="22.06" height="1.46" style="fill:#5e6168"/><rect x="102.2" y="53.14" width="6.51" height="1.46" style="fill:#2d303a"/><path d="M81.11,57.46l-.06.12-.21-.14,0,0,0,0a.36.36,0,0,1,0,.1v.27h-.12v-.32s0,0,0,0l0,0,0,0-.21.13-.06-.11.21-.13,0,0,0,0a.16.16,0,0,1-.09,0l-.21-.14L80.4,57l.21.14,0,0,0,0a.11.11,0,0,1,0,0,.13.13,0,0,1,0-.06v-.26h.12v.31a.43.43,0,0,1,0,.05l0,0,0,0,.21-.14.06.12-.21.13-.05,0h0l.09,0Z" style="fill:#5e6168"/><path d="M82.57,57.46l0,.12-.22-.14,0,0,0,0a.36.36,0,0,1,0,.1v.27h-.12v-.32a.08.08,0,0,1,0,0l0,0,0,0-.22.13,0-.11.21-.13,0,0,0,0a.12.12,0,0,1-.09,0l-.22-.14.06-.11.22.14,0,0,0,0s0,0,0,0v-.32h.12v.31s0,0,0,.05l0,0,0,0,.21-.14.06.12-.21.13,0,0h0l.08,0Z" style="fill:#5e6168"/><path d="M84,57.46l-.06.12-.21-.14,0,0,0,0a.36.36,0,0,1,0,.1v.27H83.6v-.32s0,0,0,0l0,0,0,0-.21.13-.06-.11.21-.13,0,0,0,0-.09,0-.21-.14.06-.11.21.14,0,0,0,0,0,0v-.32h.12v.26a.43.43,0,0,1,0,0,.07.07,0,0,1,0,.05l0,0,0,0L84,57l.06.12-.21.13,0,0h-.05l.09,0Z" style="fill:#5e6168"/><path d="M85.51,57.46l-.06.12-.21-.14,0,0,0,0a.18.18,0,0,1,0,.1v.27h-.12v-.26s0,0,0-.06a.06.06,0,0,1,0,0l0,0,0,0-.21.13-.06-.11.21-.13,0,0,.05,0a.16.16,0,0,1-.09,0l-.21-.14L84.8,57l.21.14,0,0,0,0a.43.43,0,0,0,0,0s0,0,0-.06v-.26h.12v.31a.43.43,0,0,1,0,.05l0,0,0,0,.21-.14.06.12-.21.13,0,0h-.05l.09,0Z" style="fill:#5e6168"/><path d="M87,57.46l-.06.12-.21-.14,0,0,0,0a.36.36,0,0,1,0,.1v.27h-.12v-.32s0,0,0,0l0,0,0,0-.21.13-.06-.11.21-.13,0,0,.05,0a.16.16,0,0,1-.09,0l-.21-.14.06-.11.21.14,0,0,0,0a.11.11,0,0,1,0,0,.13.13,0,0,1,0-.06v-.26h.12v.31a.43.43,0,0,1,0,.05l0,0,0,0,.21-.14.06.12-.22.13,0,0h0l.08,0Z" style="fill:#5e6168"/><path d="M88.44,57.46l0,.12-.22-.14,0,0,0,0a.36.36,0,0,1,0,.1v.27H88v-.32a.08.08,0,0,1,0,0l0,0,0,0-.21.13,0-.11.21-.13,0,0,0,0a.12.12,0,0,1-.09,0l-.22-.14.06-.11.21.14,0,0,0,0s0,0,0,0v-.32h.12v.31s0,0,0,.05l0,0,0,0,.21-.14.06.12-.21.13,0,0h0l.08,0Z" style="fill:#5e6168"/><path d="M89.91,57.46l-.06.12-.21-.14,0,0,0,0a.36.36,0,0,1,0,.1v.27h-.12v-.32s0,0,0,0l0,0,0,0-.21.13-.06-.11.21-.13.05,0,0,0a.16.16,0,0,1-.09,0l-.21-.14L89.2,57l.21.14,0,0a.08.08,0,0,1,0,0l0,0v-.32h.12v.26a.43.43,0,0,1,0,0,.07.07,0,0,1,0,.05l0,0,0,0,.21-.14.06.12-.21.13,0,0h0l.09,0Z" style="fill:#5e6168"/><path d="M91.38,57.46l-.06.12-.21-.14,0,0,0,0a.18.18,0,0,1,0,.1v.27h-.12v-.26a.13.13,0,0,1,0-.06.06.06,0,0,1,0,0l0,0,0,0-.21.13-.06-.11.21-.13,0,0,0,0a.16.16,0,0,1-.09,0l-.21-.14.06-.11.21.14,0,0,0,0a.43.43,0,0,0,0,0s0,0,0-.06v-.26h.12v.31a.43.43,0,0,1,0,.05l0,0,0,0,.21-.14.06.12-.21.13,0,0h0l.09,0Z" style="fill:#5e6168"/><path d="M92.85,57.46l-.06.12-.21-.14,0,0,0,0a.36.36,0,0,1,0,.1v.27H92.4v-.32s0,0,0,0l0,0,0,0-.21.13-.06-.11.21-.13,0,0,0,0a.16.16,0,0,1-.09,0l-.21-.14.06-.11.21.14,0,0,0,0a.11.11,0,0,1,0,0,.13.13,0,0,1,0-.06v-.26h.12v.31a.43.43,0,0,1,0,.05l0,0,0,0,.21-.14.06.12-.22.13a.05.05,0,0,1,0,0h0l.08,0Z" style="fill:#5e6168"/><path d="M94.31,57.46l0,.12L94,57.44l0,0,0,0a.36.36,0,0,1,0,.1v.27h-.12v-.32a.08.08,0,0,1,0,0l0,0,0,0-.21.13-.06-.11.22-.13,0,0,0,0a.11.11,0,0,1-.08,0l-.22-.14L93.6,57l.21.14,0,0,0,0s0,0,0,0v-.32H94v.26a207313368720.72,207313368720.72,0,0,1,0,.1l0,0,0,0,.21-.14.06.12-.21.13,0,0h0l.08,0Z" style="fill:#5e6168"/><path d="M95.78,57.46l-.06.12-.21-.14,0,0,0,0a.36.36,0,0,1,0,.1v.27h-.12v-.32s0,0,0,0l0,0,0,0-.21.13L95,57.46l.21-.13,0,0,0,0a.16.16,0,0,1-.09,0L95,57.12l.06-.11.21.14,0,0a.08.08,0,0,1,0,0l0,0v-.32h.12v.26a.43.43,0,0,1,0,0,.07.07,0,0,1,0,.05l0,0,0,0,.21-.14.06.12-.21.13,0,0h0l.09,0Z" style="fill:#5e6168"/><path d="M97.25,57.46l-.06.12L97,57.44l0,0a.08.08,0,0,1,0,0,.18.18,0,0,1,0,.1v.27H96.8v-.26a.13.13,0,0,1,0-.06.06.06,0,0,1,0,0l0,0,0,0-.21.13-.06-.11.21-.13,0,0,0,0a.16.16,0,0,1-.09,0l-.21-.14.06-.11.21.14,0,0,0,0a.43.43,0,0,0,0,0s0,0,0-.06v-.26h.12v.31a.43.43,0,0,1,0,.05l0,0,0,0,.21-.14.06.12-.21.13,0,0h0l.09,0Z" style="fill:#5e6168"/><path d="M98.72,57.46l-.06.12-.21-.14,0,0,0,0a.36.36,0,0,1,0,.1v.27h-.12v-.32s0,0,0,0l0,0,0,0-.21.13L98,57.46l.21-.13,0,0,0,0a.16.16,0,0,1-.09,0L98,57.12,98,57l.22.14,0,0,0,0a.11.11,0,0,1,0,0,.13.13,0,0,1,0-.06v-.26h.12v.31a.43.43,0,0,1,0,.05l0,0,0,0,.21-.14.06.12-.22.13a.05.05,0,0,1,0,0h0l.08,0Z" style="fill:#5e6168"/><rect x="49.33" y="56.57" width="17.72" height="1.46" style="fill:#5e6168"/><rect x="102.2" y="56.57" width="6.51" height="1.46" style="fill:#2d303a"/><path d="M81.11,60.89l-.06.11-.21-.14,0,0,0,0a.43.43,0,0,1,0,.11v.26h-.12v-.31l0-.05,0,0,0,0L80.4,61l-.06-.12.21-.13,0,0h0l-.09,0-.21-.13.06-.12.21.14,0,0,0,0a.09.09,0,0,1,0,0,.11.11,0,0,1,0-.05v-.27h.12v.32s0,0,0,0l0,0,0,0,.21-.13.06.11-.21.13-.05,0,0,0a.16.16,0,0,1,.09,0Z" style="fill:#5e6168"/><path d="M82.57,60.89l0,.11-.22-.14,0,0,0,0a.43.43,0,0,1,0,.11v.26h-.12v-.31s0,0,0-.05l0,0,0,0-.22.14,0-.12.21-.13,0,0h0a.19.19,0,0,1-.09,0l-.22-.13.06-.12.22.14,0,0,0,0,0,0v-.32h.12v.32s0,0,0,0l0,0,0,0,.21-.13.06.11-.21.13,0,0,0,0a.13.13,0,0,1,.08,0Z" style="fill:#5e6168"/><path d="M84,60.89,84,61l-.21-.14,0,0,0,0a.43.43,0,0,1,0,.11v.26H83.6v-.31s0,0,0-.05l0,0,0,0-.21.14-.06-.12.21-.13,0,0h0l-.09,0-.21-.13.06-.12.21.14,0,0,0,0s0,0,0,0v-.32h.12v.26s0,0,0,.06a.06.06,0,0,1,0,0l0,0,0,0,.21-.13.06.11-.21.13,0,0-.05,0a.16.16,0,0,1,.09,0Z" style="fill:#5e6168"/><path d="M85.51,60.89l-.06.11-.21-.14,0,0,0,0a.22.22,0,0,1,0,.11v.26h-.12V60.9a.43.43,0,0,1,0,0,.09.09,0,0,1,0-.05l0,0,0,0L84.8,61l-.06-.12.21-.13,0,0H85l-.09,0-.21-.13.06-.12.21.14,0,0,0,0s0,0,0,0a.43.43,0,0,0,0-.05v-.27h.12v.32s0,0,0,0l0,0,0,0,.21-.13.06.11-.21.13,0,0-.05,0a.16.16,0,0,1,.09,0Z" style="fill:#5e6168"/><path d="M87,60.89l-.06.11-.21-.14,0,0,0,0a.43.43,0,0,1,0,.11v.26h-.12v-.31l0-.05,0,0,0,0-.21.14-.06-.12.21-.13,0,0h.05l-.09,0-.21-.13.06-.12.21.14,0,0,0,0a.09.09,0,0,1,0,0,.11.11,0,0,1,0-.05v-.27h.12v.32s0,0,0,0,0,0,0,0l0,0,.21-.13.06.11-.22.13,0,0,0,0a.11.11,0,0,1,.08,0Z" style="fill:#5e6168"/><path d="M88.44,60.89l0,.11-.22-.14,0,0,0,0a.43.43,0,0,1,0,.11v.26H88v-.31s0,0,0-.05l0,0,0,0-.21.14,0-.12.21-.13,0,0h0a.19.19,0,0,1-.09,0l-.22-.13.06-.12.21.14,0,0,0,0,0,0v-.32h.12v.32l0,0,0,0,0,0,.21-.13.06.11-.21.13,0,0,0,0a.13.13,0,0,1,.08,0Z" style="fill:#5e6168"/><path d="M89.91,60.89l-.06.11-.21-.14,0,0,0,0a.43.43,0,0,1,0,.11v.26h-.12v-.31s0,0,0-.05l0,0,0,0L89.2,61l-.06-.12.21-.13.05,0h0l-.09,0-.21-.13.06-.12.21.14,0,0a.08.08,0,0,1,0,0s0,0,0,0v-.32h.12v.26s0,0,0,.06a.06.06,0,0,1,0,0l0,0,0,0,.21-.13.06.11-.21.13,0,0,0,0a.16.16,0,0,1,.09,0Z" style="fill:#5e6168"/><path d="M91.38,60.89l-.06.11-.21-.14,0,0,0,0a.22.22,0,0,1,0,.11v.26h-.12V60.9a.07.07,0,0,1,0,0,.09.09,0,0,1,0-.05l0,0,0,0-.21.14-.06-.12.21-.13,0,0h0l-.09,0-.21-.13.06-.12.21.14,0,0,0,0s0,0,0,0a.43.43,0,0,0,0-.05v-.27h.12v.32s0,0,0,0l0,0,0,0,.21-.13.06.11-.21.13,0,0,0,0a.16.16,0,0,1,.09,0Z" style="fill:#5e6168"/><path d="M92.85,60.89l-.06.11-.21-.14,0,0,0,0a.43.43,0,0,1,0,.11v.26H92.4v-.31l0-.05,0,0,0,0-.21.14-.06-.12.21-.13,0,0h0l-.09,0-.21-.13.06-.12.21.14,0,0,0,0a.09.09,0,0,1,0,0,.11.11,0,0,1,0-.05v-.27h.12v.32s0,0,0,0,0,0,0,0l0,0,.21-.13.06.11-.22.13a.05.05,0,0,1,0,0l0,0a.11.11,0,0,1,.08,0Z" style="fill:#5e6168"/><path d="M94.31,60.89l0,.11L94,60.86l0,0,0,0a.43.43,0,0,1,0,.11v.26h-.12v-.31s0,0,0-.05l0,0,0,0L93.6,61l-.06-.12.22-.13,0,0h0a.2.2,0,0,1-.08,0l-.22-.13.06-.12.21.14,0,0,0,0,0,0v-.32H94v.26a.13.13,0,0,1,0,.06.06.06,0,0,1,0,0l0,0,0,0,.21-.13.06.11-.21.13,0,0,0,0a.13.13,0,0,1,.08,0Z" style="fill:#5e6168"/><path d="M95.78,60.89l-.06.11-.21-.14,0,0,0,0a.43.43,0,0,1,0,.11v.26h-.12v-.31s0,0,0-.05l0,0,0,0-.21.14L95,60.88l.21-.13,0,0h0l-.09,0L95,60.55l.06-.12.21.14,0,0a.08.08,0,0,1,0,0s0,0,0,0v-.32h.12v.26s0,0,0,.06a.06.06,0,0,1,0,0l0,0,0,0,.21-.13.06.11-.21.13,0,0,0,0a.16.16,0,0,1,.09,0Z" style="fill:#5e6168"/><path d="M97.25,60.89l-.06.11L97,60.86l0,0a.08.08,0,0,1,0,0,.22.22,0,0,1,0,.11v.26H96.8V60.9a.07.07,0,0,1,0,0,.09.09,0,0,1,0-.05l0,0,0,0-.21.14-.06-.12.21-.13,0,0h0l-.09,0-.21-.13.06-.12.21.14,0,0,0,0s0,0,0,0a.43.43,0,0,0,0-.05v-.27h.12v.32s0,0,0,0l0,0,0,0,.21-.13.06.11-.21.13,0,0,0,0a.16.16,0,0,1,.09,0Z" style="fill:#5e6168"/><path d="M98.72,60.89l-.06.11-.21-.14,0,0,0,0a.43.43,0,0,1,0,.11v.26h-.12v-.31l0-.05,0,0,0,0L98,61,98,60.88l.21-.13,0,0h0l-.09,0L98,60.55l0-.12.22.14,0,0,0,0a.09.09,0,0,1,0,0,.11.11,0,0,1,0-.05v-.27h.12v.32s0,0,0,0,0,0,0,0l0,0,.21-.13.06.11-.22.13a.05.05,0,0,1,0,0l0,0a.11.11,0,0,1,.08,0Z" style="fill:#5e6168"/><rect x="49.33" y="59.99" width="25.07" height="1.46" style="fill:#5e6168"/><rect x="102.2" y="59.99" width="6.51" height="1.46" style="fill:#2d303a"/><path d="M81.11,64.31l-.06.11-.21-.13,0,0,0,0a.3.3,0,0,1,0,.1v.27h-.12v-.32l0,0,0,0,0,0-.21.13-.06-.11.21-.14,0,0h0l-.09,0L80.34,64l.06-.11.21.13,0,0,0,0a.07.07,0,0,1,0,0,.09.09,0,0,1,0-.05v-.27h.12V64s0,0,0,0l0,0,0,0,.21-.13.06.11-.21.13-.05,0h0a.16.16,0,0,1,.09,0Z" style="fill:#5e6168"/><path d="M82.57,64.31l0,.11-.22-.13s0,0,0,0l0,0a.3.3,0,0,1,0,.1v.27h-.12v-.32s0,0,0,0l0,0,0,0-.22.13,0-.11.21-.14,0,0h0a.19.19,0,0,1-.09,0L81.8,64l.06-.11.22.13,0,0,0,0s0,0,0,0v-.32h.12V64l0,0,0,0,0,0,.21-.13.06.11-.21.13,0,0h0a.13.13,0,0,1,.08,0Z" style="fill:#5e6168"/><path d="M84,64.31l-.06.11-.21-.13s0,0,0,0l0,0a.3.3,0,0,1,0,.1v.27H83.6v-.32s0,0,0,0l0,0,0,0-.21.13-.06-.11.21-.14,0,0h0l-.09,0L83.27,64l.06-.11.21.13,0,0,0,0a.08.08,0,0,1,0,0v-.32h.12V64a.43.43,0,0,0,0,.05.09.09,0,0,1,0,0l0,0,0,0,.21-.13L84,64l-.21.13,0,0h-.05a.16.16,0,0,1,.09,0Z" style="fill:#5e6168"/><path d="M85.51,64.31l-.06.11-.21-.13a.08.08,0,0,1,0,0l0,0a.16.16,0,0,1,0,.1v.27h-.12v-.27s0,0,0,0a.09.09,0,0,1,0,0l0,0,0,0-.21.13-.06-.11.21-.14,0,0H85l-.09,0L84.74,64l.06-.11L85,64l0,0,0,0a.43.43,0,0,1,0,0s0,0,0-.05v-.27h.12V64s0,0,0,0l0,0,0,0,.21-.13.06.11-.21.13,0,0h-.05a.16.16,0,0,1,.09,0Z" style="fill:#5e6168"/><path d="M87,64.31l-.06.11-.21-.13,0,0,0,0a.3.3,0,0,1,0,.1v.27h-.12v-.32l0,0,0,0,0,0-.21.13-.06-.11.21-.14,0,0h.05l-.09,0L86.21,64l.06-.11.21.13,0,0,0,0a.07.07,0,0,1,0,0,.09.09,0,0,1,0-.05v-.27h.12V64s0,0,0,0,0,0,0,0l0,0,.21-.13L87,64l-.22.13,0,0h0a.11.11,0,0,1,.08,0Z" style="fill:#5e6168"/><path d="M88.44,64.31l0,.11-.22-.13,0,0,0,0a.3.3,0,0,1,0,.1v.27H88v-.32s0,0,0,0a.08.08,0,0,1,0,0l0,0-.21.13,0-.11.21-.14,0,0h0a.19.19,0,0,1-.09,0L87.67,64l.06-.11.21.13,0,0,0,0s0,0,0,0v-.32h.12V64l0,0,0,0,0,0,.21-.13.06.11-.21.13,0,0h0a.13.13,0,0,1,.08,0Z" style="fill:#5e6168"/><path d="M89.91,64.31l-.06.11-.21-.13,0,0,0,0a.3.3,0,0,1,0,.1v.27h-.12v-.32s0,0,0,0l0,0,0,0-.21.13-.06-.11.21-.14.05,0h0l-.09,0L89.14,64l.06-.11.21.13,0,0,0,0a.08.08,0,0,1,0,0v-.32h.12V64a.43.43,0,0,0,0,.05.09.09,0,0,1,0,0l0,0,0,0,.21-.13.06.11-.21.13,0,0h0a.16.16,0,0,1,.09,0Z" style="fill:#5e6168"/><path d="M91.38,64.31l-.06.11-.21-.13,0,0,0,0a.16.16,0,0,1,0,.1v.27h-.12v-.27a186582031848.57,186582031848.57,0,0,1,0-.1l0,0,0,0-.21.13-.06-.11.21-.14,0,0h0l-.09,0L90.61,64l.06-.11.21.13,0,0,0,0a.43.43,0,0,1,0,0s0,0,0-.05v-.27h.12V64s0,0,0,0l0,0,0,0,.21-.13.06.11-.21.13,0,0h0a.16.16,0,0,1,.09,0Z" style="fill:#5e6168"/><path d="M92.85,64.31l-.06.11-.21-.13,0,0,0,0a.3.3,0,0,1,0,.1v.27H92.4v-.32l0,0,0,0,0,0-.21.13-.06-.11.21-.14,0,0h0l-.09,0L92.08,64l.06-.11.21.13,0,0,0,0a.07.07,0,0,1,0,0,.09.09,0,0,1,0-.05v-.27h.12V64s0,0,0,0,0,0,0,0l0,0,.21-.13.06.11-.22.13,0,0h0a.11.11,0,0,1,.08,0Z" style="fill:#5e6168"/><path d="M94.31,64.31l0,.11L94,64.29l0,0,0,0a.3.3,0,0,1,0,.1v.27h-.12v-.32s0,0,0,0a.08.08,0,0,1,0,0l0,0-.21.13-.06-.11.22-.14,0,0h0a.2.2,0,0,1-.08,0L93.54,64l.06-.11.21.13,0,0,0,0s0,0,0,0v-.32H94V64A.11.11,0,0,1,94,64a.09.09,0,0,1,0,0l0,0,0,0,.21-.13.06.11-.21.13,0,0h0a.13.13,0,0,1,.08,0Z" style="fill:#5e6168"/><path d="M95.78,64.31l-.06.11-.21-.13,0,0,0,0a.3.3,0,0,1,0,.1v.27h-.12v-.32s0,0,0,0l0,0,0,0-.21.13L95,64.31l.21-.14,0,0h0l-.09,0L95,64l.06-.11.21.13,0,0s0,0,0,0a.08.08,0,0,1,0,0v-.32h.12V64a.43.43,0,0,0,0,.05.09.09,0,0,1,0,0l0,0,0,0,.21-.13.06.11-.21.13,0,0h0a.16.16,0,0,1,.09,0Z" style="fill:#5e6168"/><path d="M97.25,64.31l-.06.11L97,64.29a.08.08,0,0,1,0,0l0,0a.16.16,0,0,1,0,.1v.27H96.8v-.27a186582031848.57,186582031848.57,0,0,0,0-.1l0,0,0,0-.21.13-.06-.11.21-.14,0,0h0l-.09,0L96.48,64l.06-.11.21.13,0,0,0,0a.43.43,0,0,1,0,0s0,0,0-.05v-.27h.12V64s0,0,0,0l0,0,0,0,.21-.13.06.11L97,64.1l0,0h0a.16.16,0,0,1,.09,0Z" style="fill:#5e6168"/><path d="M98.72,64.31l-.06.11-.21-.13,0,0,0,0a.3.3,0,0,1,0,.1v.27h-.12v-.32l0,0,0,0,0,0-.21.13L98,64.31l.21-.14,0,0h0l-.09,0L98,64l0-.11.22.13,0,0,0,0a.07.07,0,0,1,0,0,.09.09,0,0,1,0-.05v-.27h.12V64s0,0,0,0,0,0,0,0l0,0,.21-.13.06.11-.22.13,0,0h0a.11.11,0,0,1,.08,0Z" style="fill:#5e6168"/><rect x="49.33" y="63.41" width="14.33" height="1.46" style="fill:#5e6168"/><rect x="102.2" y="63.41" width="6.51" height="1.46" style="fill:#2d303a"/><path d="M81.11,67.73l-.06.11-.21-.13,0,0,0,0a.36.36,0,0,1,0,.1V68h-.12v-.32s0,0,0,0l0,0,0,0-.21.13-.06-.11.21-.13,0,0h0a.16.16,0,0,1-.09,0l-.21-.14.06-.11.21.13,0,0,0,0a932910159243.43,932910159243.43,0,0,1,0-.1v-.26h.12v.31s0,0,0,0l0,0,0,0,.21-.13.06.11-.21.14-.05,0h0l.09,0Z" style="fill:#5e6168"/><path d="M82.57,67.73l0,.11-.22-.13,0,0,0,0a.36.36,0,0,1,0,.1V68h-.12v-.32a.08.08,0,0,1,0,0l0,0,0,0-.22.13,0-.11L82,67.6l0,0h0a.12.12,0,0,1-.09,0l-.22-.14.06-.11.22.13,0,0,0,0s0,0,0,0v-.31h.12v.31l0,0,0,0,0,0,.21-.13.06.11-.21.14,0,0h0l.08,0Z" style="fill:#5e6168"/><path d="M84,67.73l-.06.11-.21-.13,0,0,0,0a.36.36,0,0,1,0,.1V68H83.6v-.36l0,0,0,0-.21.13-.06-.11.21-.13,0,0h0l-.09,0-.21-.14.06-.11.21.13a.08.08,0,0,1,0,0l0,0a.08.08,0,0,1,0,0v-.31h.12v.26s0,0,0,.05a.09.09,0,0,1,0,0l0,0,0,0,.21-.13.06.11-.21.14,0,0h-.05l.09,0Z" style="fill:#5e6168"/><path d="M85.51,67.73l-.06.11-.21-.13,0,0,0,0a.18.18,0,0,1,0,.1V68h-.12v-.27a.43.43,0,0,0,0,0,.06.06,0,0,1,0,0l0,0,0,0-.21.13-.06-.11L85,67.6l0,0H85a.16.16,0,0,1-.09,0l-.21-.14.06-.11.21.13a.08.08,0,0,1,0,0l0,0a155485026540.57,155485026540.57,0,0,1,0-.1v-.26h.12v.31s0,0,0,0l0,0,0,0,.21-.13.06.11-.21.14,0,0h-.05l.09,0Z" style="fill:#5e6168"/><path d="M87,67.73l-.06.11-.21-.13,0,0,0,0a.36.36,0,0,1,0,.1V68h-.12v-.32s0,0,0,0l0,0,0,0-.21.13-.06-.11.21-.13,0,0h.05a.16.16,0,0,1-.09,0l-.21-.14.06-.11.21.13s0,0,0,0l0,0a233227539810.87,233227539810.87,0,0,0,0-.1v-.26h.12v.31s0,0,0,0,0,0,0,0l0,0,.21-.13.06.11-.22.14,0,0h0l.08,0Z" style="fill:#5e6168"/><path d="M88.44,67.73l0,.11-.22-.13,0,0,0,0a.36.36,0,0,1,0,.1V68H88v-.32l0,0,0,0,0,0-.21.13,0-.11.21-.13,0,0h0a.12.12,0,0,1-.09,0l-.22-.14.06-.11.21.13,0,0,0,0s0,0,0,0v-.31h.12v.31l0,0,0,0,0,0,.21-.13.06.11-.21.14,0,0h0l.08,0Z" style="fill:#5e6168"/><path d="M89.91,67.73l-.06.11-.21-.13,0,0,0,0a.36.36,0,0,1,0,.1V68h-.12v-.36l0,0,0,0-.21.13-.06-.11.21-.13.05,0h0a.16.16,0,0,1-.09,0l-.21-.14.06-.11.21.13a.08.08,0,0,1,0,0l0,0a.08.08,0,0,1,0,0v-.31h.12v.26s0,0,0,.05a.09.09,0,0,1,0,0l0,0,0,0,.21-.13.06.11-.21.14,0,0h0l.09,0Z" style="fill:#5e6168"/><path d="M91.38,67.73l-.06.11-.21-.13,0,0s0,0,0,0a.18.18,0,0,1,0,.1V68h-.12v-.27a.11.11,0,0,1,0,0,.06.06,0,0,1,0,0l0,0,0,0-.21.13-.06-.11.21-.13,0,0h0a.16.16,0,0,1-.09,0l-.21-.14.06-.11.21.13,0,0,0,0a155485026540.57,155485026540.57,0,0,1,0-.1v-.26h.12v.31s0,0,0,0l0,0,0,0,.21-.13.06.11-.21.14,0,0h0l.09,0Z" style="fill:#5e6168"/><path d="M92.85,67.73l-.06.11-.21-.13,0,0,0,0a.36.36,0,0,1,0,.1V68H92.4v-.32s0,0,0,0l0,0,0,0-.21.13-.06-.11.21-.13,0,0h0a.16.16,0,0,1-.09,0l-.21-.14.06-.11.21.13,0,0,0,0a155485026540.56,155485026540.56,0,0,1,0-.1v-.26h.12v.31s0,0,0,0,0,0,0,0l0,0,.21-.13.06.11-.22.14,0,0h0a.2.2,0,0,1,.08,0Z" style="fill:#5e6168"/><path d="M94.31,67.73l0,.11L94,67.71l0,0,0,0a.36.36,0,0,1,0,.1V68h-.12v-.32a.08.08,0,0,1,0,0l0,0,0,0-.21.13-.06-.11.22-.13,0,0h0a.11.11,0,0,1-.08,0l-.22-.14.06-.11.21.13,0,0,0,0s0,0,0,0v-.31H94v.26a155485026540.56,155485026540.56,0,0,1,0,.1l0,0,0,0,.21-.13.06.11-.21.14,0,0h0l.08,0Z" style="fill:#5e6168"/><path d="M95.78,67.73l-.06.11-.21-.13,0,0,0,0a.36.36,0,0,1,0,.1V68h-.12v-.36l0,0,0,0-.21.13L95,67.73l.21-.13,0,0h0a.16.16,0,0,1-.09,0L95,67.39l.06-.11.21.13a.08.08,0,0,1,0,0l0,0a.08.08,0,0,1,0,0v-.31h.12v.26s0,0,0,.05a.09.09,0,0,1,0,0l0,0,0,0,.21-.13.06.11-.21.14,0,0h0l.09,0Z" style="fill:#5e6168"/><path d="M97.25,67.73l-.06.11L97,67.71l0,0s0,0,0,0a.18.18,0,0,1,0,.1V68H96.8v-.27a.11.11,0,0,1,0,0,.06.06,0,0,1,0,0l0,0,0,0-.21.13-.06-.11.21-.13,0,0h0a.16.16,0,0,1-.09,0l-.21-.14.06-.11.21.13,0,0,0,0a233227539810.83,233227539810.83,0,0,0,0-.1v-.26h.12v.31s0,0,0,0l0,0,0,0,.21-.13.06.11-.21.14,0,0h0l.09,0Z" style="fill:#5e6168"/><path d="M98.72,67.73l-.06.11-.21-.13,0,0,0,0a.36.36,0,0,1,0,.1V68h-.12v-.32s0,0,0,0l0,0,0,0-.21.13L98,67.73l.21-.13,0,0h0a.16.16,0,0,1-.09,0L98,67.39l0-.11.22.13,0,0,0,0a932910159243.58,932910159243.58,0,0,1,0-.1v-.26h.12v.31s0,0,0,0a.05.05,0,0,1,0,0l0,0,.21-.13.06.11-.22.14,0,0h0a.2.2,0,0,1,.08,0Z" style="fill:#5e6168"/><rect x="49.33" y="66.83" width="17.72" height="1.46" style="fill:#5e6168"/><rect x="102.2" y="66.83" width="6.51" height="1.46" style="fill:#2d303a"/><path d="M81.11,71.15l-.06.12-.21-.14,0,0,0,0a.36.36,0,0,1,0,.11v.26h-.12v-.31s0,0,0-.05l0,0,0,0-.21.14-.06-.12.21-.13,0,0,0,0a.16.16,0,0,1-.09,0l-.21-.14.06-.11.21.14,0,0,0,0a.09.09,0,0,1,0,0,.13.13,0,0,1,0-.06v-.26h.12v.31a.43.43,0,0,1,0,.05l0,0,0,0,.21-.14.06.12L80.9,71l-.05,0h0l.09,0Z" style="fill:#5e6168"/><path d="M82.57,71.15l0,.12-.22-.14,0,0,0,0a.36.36,0,0,1,0,.11v.26h-.12v-.31a.08.08,0,0,1,0-.05l0,0,0,0-.22.14,0-.12L82,71l0,0,0,0A.12.12,0,0,1,82,71l-.22-.14.06-.11.22.14,0,0,0,0,0,0v-.32h.12v.31s0,0,0,.05l0,0,0,0,.21-.14.06.12-.21.13,0,0h0l.08,0Z" style="fill:#5e6168"/><path d="M84,71.15l-.06.12-.21-.14,0,0,0,0a.36.36,0,0,1,0,.11v.26H83.6v-.31a.43.43,0,0,1,0-.05l0,0,0,0-.21.14-.06-.12.21-.13,0,0,0,0-.09,0-.21-.14.06-.11.21.14,0,0,0,0s0,0,0,0v-.32h.12v.26a.43.43,0,0,1,0,0,.07.07,0,0,1,0,.05l0,0,0,0L84,70.7l.06.12-.21.13,0,0h-.05l.09,0Z" style="fill:#5e6168"/><path d="M85.51,71.15l-.06.12-.21-.14,0,0,0,0a.2.2,0,0,1,0,.11v.26h-.12v-.26a.43.43,0,0,1,0,0,.07.07,0,0,1,0-.05l0,0,0,0-.21.14-.06-.12L85,71l0,0L85,71A.16.16,0,0,1,85,71l-.21-.14.06-.11.21.14,0,0,0,0s0,0,0,0,0,0,0-.06v-.26h.12v.31a.43.43,0,0,1,0,.05l0,0,0,0,.21-.14.06.12L85.3,71l0,0h-.05l.09,0Z" style="fill:#5e6168"/><path d="M87,71.15l-.06.12-.21-.14,0,0,0,0a.36.36,0,0,1,0,.11v.26h-.12v-.31s0,0,0-.05l0,0,0,0-.21.14-.06-.12.21-.13,0,0,.05,0a.16.16,0,0,1-.09,0l-.21-.14.06-.11.21.14,0,0,0,0a.09.09,0,0,1,0,0,.13.13,0,0,1,0-.06v-.26h.12v.31a.43.43,0,0,1,0,.05s0,0,0,0l0,0,.21-.14.06.12-.22.13,0,0h0l.08,0Z" style="fill:#5e6168"/><path d="M88.44,71.15l0,.12-.22-.14,0,0,0,0a.36.36,0,0,1,0,.11v.26H88v-.31a.08.08,0,0,1,0-.05l0,0,0,0-.21.14,0-.12.21-.13,0,0,0,0a.12.12,0,0,1-.09,0l-.22-.14.06-.11.21.14,0,0,0,0,0,0v-.32h.12v.31s0,0,0,.05l0,0,0,0,.21-.14.06.12-.21.13,0,0h0l.08,0Z" style="fill:#5e6168"/><path d="M89.91,71.15l-.06.12-.21-.14,0,0,0,0a.36.36,0,0,1,0,.11v.26h-.12v-.31a.43.43,0,0,1,0-.05l0,0,0,0-.21.14-.06-.12.21-.13.05,0,0,0a.16.16,0,0,1-.09,0l-.21-.14.06-.11.21.14,0,0a.08.08,0,0,1,0,0s0,0,0,0v-.32h.12v.26a.43.43,0,0,1,0,0,.07.07,0,0,1,0,.05l0,0,0,0,.21-.14.06.12L89.7,71l0,0h0l.09,0Z" style="fill:#5e6168"/><path d="M91.38,71.15l-.06.12-.21-.14,0,0a.08.08,0,0,1,0,0,.2.2,0,0,1,0,.11v.26h-.12v-.26a233227539810.83,233227539810.83,0,0,1,0-.1l0,0,0,0-.21.14-.06-.12.21-.13,0,0,0,0a.16.16,0,0,1-.09,0l-.21-.14.06-.11.21.14,0,0,0,0s0,0,0,0,0,0,0-.06v-.26h.12v.31a.43.43,0,0,1,0,.05l0,0,0,0,.21-.14.06.12-.21.13,0,0h0l.09,0Z" style="fill:#5e6168"/><path d="M92.85,71.15l-.06.12-.21-.14,0,0,0,0a.36.36,0,0,1,0,.11v.26H92.4v-.31s0,0,0-.05l0,0,0,0-.21.14-.06-.12.21-.13,0,0,0,0a.16.16,0,0,1-.09,0l-.21-.14.06-.11.21.14,0,0,0,0a.09.09,0,0,1,0,0,.13.13,0,0,1,0-.06v-.26h.12v.31a.43.43,0,0,1,0,.05s0,0,0,0l0,0,.21-.14.06.12-.22.13,0,0h0a.2.2,0,0,1,.08,0Z" style="fill:#5e6168"/><path d="M94.31,71.15l0,.12L94,71.13l0,0,0,0a.36.36,0,0,1,0,.11v.26h-.12v-.31a.08.08,0,0,1,0-.05l0,0,0,0-.21.14-.06-.12.22-.13,0,0,0,0a.11.11,0,0,1-.08,0l-.22-.14.06-.11.21.14,0,0,0,0,0,0v-.32H94v.26a233227539810.84,233227539810.84,0,0,1,0,.1l0,0,0,0,.21-.14.06.12L94.1,71l0,0h0l.08,0Z" style="fill:#5e6168"/><path d="M95.78,71.15l-.06.12-.21-.14,0,0,0,0a.36.36,0,0,1,0,.11v.26h-.12v-.31a.43.43,0,0,1,0-.05l0,0,0,0-.21.14L95,71.15l.21-.13,0,0,0,0a.16.16,0,0,1-.09,0L95,70.81l.06-.11.21.14,0,0a.08.08,0,0,1,0,0s0,0,0,0v-.32h.12v.26a.43.43,0,0,1,0,0,.07.07,0,0,1,0,.05l0,0,0,0,.21-.14.06.12-.21.13,0,0h0l.09,0Z" style="fill:#5e6168"/><path d="M97.25,71.15l-.06.12L97,71.13l0,0a.08.08,0,0,1,0,0,.2.2,0,0,1,0,.11v.26H96.8v-.26a155485026540.57,155485026540.57,0,0,0,0-.1l0,0,0,0-.21.14-.06-.12.21-.13,0,0,0,0a.16.16,0,0,1-.09,0l-.21-.14.06-.11.21.14,0,0,0,0s0,0,0,0,0,0,0-.06v-.26h.12v.31a.43.43,0,0,1,0,.05l0,0,0,0,.21-.14.06.12L97,71l0,0h0L97,71Z" style="fill:#5e6168"/><path d="M98.72,71.15l-.06.12-.21-.14,0,0,0,0a.36.36,0,0,1,0,.11v.26h-.12v-.31s0,0,0-.05l0,0,0,0-.21.14L98,71.15l.21-.13,0,0,0,0a.16.16,0,0,1-.09,0L98,70.81l0-.11.22.14,0,0,0,0a.09.09,0,0,1,0,0,.13.13,0,0,1,0-.06v-.26h.12v.31a.43.43,0,0,1,0,.05s0,0,0,0l0,0,.21-.14.06.12L98.5,71a.05.05,0,0,1,0,0h0a.2.2,0,0,1,.08,0Z" style="fill:#5e6168"/><rect x="49.33" y="70.26" width="21.77" height="1.46" style="fill:#5e6168"/><rect x="102.2" y="70.26" width="6.51" height="1.46" style="fill:#2d303a"/><path d="M81.11,74.58l-.06.11-.21-.14,0,0,0,0a.3.3,0,0,1,0,.1v.26h-.12v-.31l0-.05,0,0,0,0-.21.14-.06-.11.21-.14,0,0h0l-.09,0-.21-.13.06-.12.21.14,0,0,0,0a.09.09,0,0,1,0,0,.09.09,0,0,1,0,0V74h.12v.32a.43.43,0,0,0,0,0l0,0,0,0,.21-.13.06.11-.21.13-.05,0h0a.16.16,0,0,1,.09,0Z" style="fill:#5e6168"/><path d="M82.57,74.58l0,.11-.22-.14,0,0,0,0a.3.3,0,0,1,0,.1v.26h-.12v-.31s0,0,0-.05l0,0,0,0-.22.14,0-.11.21-.14,0,0h0a.19.19,0,0,1-.09,0l-.22-.13.06-.12.22.14,0,0,0,0,0,0V74h.12v.32s0,0,0,0l0,0,0,0,.21-.13.06.11-.21.13,0,0h0a.13.13,0,0,1,.08,0Z" style="fill:#5e6168"/><path d="M84,74.58l-.06.11-.21-.14,0,0,0,0a.3.3,0,0,1,0,.1v.26H83.6v-.31s0,0,0-.05l0,0,0,0-.21.14-.06-.11.21-.14,0,0h0l-.09,0-.21-.13.06-.12.21.14,0,0s0,0,0,0,0,0,0,0V74h.12v.26s0,0,0,.06a.11.11,0,0,1,0,0l0,0,0,0,.21-.13.06.11-.21.13,0,0h-.05a.16.16,0,0,1,.09,0Z" style="fill:#5e6168"/><path d="M85.51,74.58l-.06.11-.21-.14,0,0,0,0a.16.16,0,0,1,0,.1v.26h-.12v-.26a.43.43,0,0,1,0,0,.09.09,0,0,1,0-.05l0,0,0,0-.21.14-.06-.11.21-.14,0,0H85l-.09,0-.21-.13.06-.12.21.14,0,0,0,0s0,0,0,0,0,0,0,0V74h.12v.32a.43.43,0,0,0,0,0l0,0,0,0,.21-.13.06.11-.21.13,0,0h-.05a.16.16,0,0,1,.09,0Z" style="fill:#5e6168"/><path d="M87,74.58l-.06.11-.21-.14,0,0,0,0a.3.3,0,0,1,0,.1v.26h-.12v-.31l0-.05,0,0,0,0-.21.14-.06-.11.21-.14,0,0h.05l-.09,0-.21-.13.06-.12.21.14,0,0,0,0a186582031848.71,186582031848.71,0,0,0,0-.1V74h.12v.32a.43.43,0,0,0,0,0s0,0,0,0l0,0,.21-.13.06.11-.22.13,0,0h0a.11.11,0,0,1,.08,0Z" style="fill:#5e6168"/><path d="M88.44,74.58l0,.11-.22-.14,0,0,0,0a.3.3,0,0,1,0,.1v.26H88v-.31s0,0,0-.05,0,0,0,0l0,0-.21.14,0-.11.21-.14,0,0h0a.19.19,0,0,1-.09,0l-.22-.13.06-.12.21.14,0,0,0,0,0,0V74h.12v.32s0,0,0,0l0,0,0,0,.21-.13.06.11-.21.13,0,0h0a.13.13,0,0,1,.08,0Z" style="fill:#5e6168"/><path d="M89.91,74.58l-.06.11-.21-.14,0,0,0,0a.3.3,0,0,1,0,.1v.26h-.12v-.31s0,0,0-.05l0,0,0,0-.21.14-.06-.11.21-.14.05,0h0l-.09,0-.21-.13.06-.12.21.14,0,0s0,0,0,0,0,0,0,0V74h.12v.26s0,0,0,.06a.11.11,0,0,1,0,0l0,0,0,0,.21-.13.06.11-.21.13,0,0h0a.16.16,0,0,1,.09,0Z" style="fill:#5e6168"/><path d="M91.38,74.58l-.06.11-.21-.14,0,0,0,0a.16.16,0,0,1,0,.1v.26h-.12v-.26a.07.07,0,0,1,0,0,.09.09,0,0,1,0-.05l0,0,0,0-.21.14-.06-.11.21-.14,0,0h0l-.09,0-.21-.13.06-.12.21.14,0,0,0,0s0,0,0,0,0,0,0,0V74h.12v.32a.43.43,0,0,0,0,0l0,0,0,0,.21-.13.06.11-.21.13,0,0h0a.16.16,0,0,1,.09,0Z" style="fill:#5e6168"/><path d="M92.85,74.58l-.06.11-.21-.14,0,0,0,0a.3.3,0,0,1,0,.1v.26H92.4v-.31l0-.05,0,0,0,0-.21.14-.06-.11.21-.14,0,0h0l-.09,0-.21-.13.06-.12.21.14,0,0,0,0a186582031848.65,186582031848.65,0,0,1,0-.1V74h.12v.32a.43.43,0,0,0,0,0s0,0,0,0l0,0,.21-.13.06.11-.22.13,0,0h0a.11.11,0,0,1,.08,0Z" style="fill:#5e6168"/><path d="M94.31,74.58l0,.11L94,74.55l0,0,0,0a.3.3,0,0,1,0,.1v.26h-.12v-.31s0,0,0-.05,0,0,0,0l0,0-.21.14-.06-.11.22-.14,0,0h0a.2.2,0,0,1-.08,0l-.22-.13.06-.12.21.14,0,0,0,0,0,0V74H94v.26a.13.13,0,0,1,0,.06.11.11,0,0,1,0,0l0,0,0,0,.21-.13.06.11-.21.13,0,0h0a.13.13,0,0,1,.08,0Z" style="fill:#5e6168"/><path d="M95.78,74.58l-.06.11-.21-.14,0,0,0,0a.3.3,0,0,1,0,.1v.26h-.12v-.31s0,0,0-.05l0,0,0,0-.21.14L95,74.58l.21-.14,0,0h0l-.09,0L95,74.24l.06-.12.21.14,0,0s0,0,0,0,0,0,0,0V74h.12v.26s0,0,0,.06a.11.11,0,0,1,0,0l0,0,0,0,.21-.13.06.11-.21.13,0,0h0a.16.16,0,0,1,.09,0Z" style="fill:#5e6168"/><path d="M97.25,74.58l-.06.11L97,74.55l0,0,0,0a.16.16,0,0,1,0,.1v.26H96.8v-.26a.07.07,0,0,1,0,0,.09.09,0,0,1,0-.05l0,0,0,0-.21.14-.06-.11.21-.14,0,0h0l-.09,0-.21-.13.06-.12.21.14,0,0,0,0s0,0,0,0,0,0,0,0V74h.12v.32a.43.43,0,0,0,0,0l0,0,0,0,.21-.13.06.11-.21.13,0,0h0a.16.16,0,0,1,.09,0Z" style="fill:#5e6168"/><path d="M98.72,74.58l-.06.11-.21-.14,0,0,0,0a.3.3,0,0,1,0,.1v.26h-.12v-.31l0-.05,0,0,0,0-.21.14L98,74.58l.21-.14,0,0h0l-.09,0L98,74.24l0-.12.22.14,0,0,0,0a.09.09,0,0,1,0,0,.09.09,0,0,1,0,0V74h.12v.32a.43.43,0,0,0,0,0s0,0,0,0l0,0,.21-.13.06.11-.22.13,0,0h0a.11.11,0,0,1,.08,0Z" style="fill:#5e6168"/><rect x="49.33" y="73.68" width="13.62" height="1.46" style="fill:#5e6168"/><rect x="102.2" y="73.68" width="6.51" height="1.46" style="fill:#2d303a"/><line x1="49.32" y1="41.62" x2="49.48" y2="41.62" style="fill:none;stroke:#2d303a;stroke-linecap:round;stroke-linejoin:round;stroke-width:2.4212000000000002px"/><line x1="55.77" y1="41.62" x2="105.42" y2="41.62" style="fill:none;stroke:#2d303a;stroke-linecap:round;stroke-linejoin:round;stroke-width:2.4212000000000002px;stroke-dasharray:0.3142472803592682,6.284945487976074"/><line x1="108.56" y1="41.62" x2="108.72" y2="41.62" style="fill:none;stroke:#2d303a;stroke-linecap:round;stroke-linejoin:round;stroke-width:2.4212000000000002px"/><line x1="49.32" y1="79.31" x2="49.48" y2="79.31" style="fill:none;stroke:#2d303a;stroke-linecap:round;stroke-linejoin:round;stroke-width:2.4212000000000002px"/><line x1="55.77" y1="79.31" x2="105.42" y2="79.31" style="fill:none;stroke:#2d303a;stroke-linecap:round;stroke-linejoin:round;stroke-width:2.4212000000000002px;stroke-dasharray:0.3142472803592682,6.284945487976074"/><line x1="108.56" y1="79.31" x2="108.72" y2="79.31" style="fill:none;stroke:#2d303a;stroke-linecap:round;stroke-linejoin:round;stroke-width:2.4212000000000002px"/><line x1="49.32" y1="100.49" x2="49.48" y2="100.49" style="fill:none;stroke:#2d303a;stroke-linecap:round;stroke-linejoin:round;stroke-width:2.4212000000000002px"/><line x1="55.77" y1="100.49" x2="105.42" y2="100.49" style="fill:none;stroke:#2d303a;stroke-linecap:round;stroke-linejoin:round;stroke-width:2.4212000000000002px;stroke-dasharray:0.3142472803592682,6.284945487976074"/><line x1="108.56" y1="100.49" x2="108.72" y2="100.49" style="fill:none;stroke:#2d303a;stroke-linecap:round;stroke-linejoin:round;stroke-width:2.4212000000000002px"/><path d="M129,10h-.43c-5.06,0-8.72,4.08-8.72,9.14l-.33,9.32h-2V19.16a8.79,8.79,0,0,1,8.89-9.3c.73,0,2.17.15,2.17.15" style="fill:#e2e2e2;mix-blend-mode:multiply"/></g></g></g></svg>