<?xml version="1.0" encoding="utf-8"?>
<!-- Generator: Adobe Illustrator 25.2.3, SVG Export Plug-In . SVG Version: 6.00 Build 0)  -->
<svg version="1.1" id="Capa_1" xmlns="http://www.w3.org/2000/svg" xmlns:xlink="http://www.w3.org/1999/xlink" x="0px" y="0px"
	 viewBox="0 0 154.5 154" style="enable-background:new 0 0 154.5 154;" xml:space="preserve">
<style type="text/css">
	.st0{fill:#F7C90D;}
	.st1{fill:#E2E2E2;}
	.st2{fill:#5C7C26;}
	.st3{fill:#2D303A;}
	.st4{fill:#5E6168;}
	.st5{fill:none;stroke:#2D303A;stroke-width:2.4212;stroke-linecap:round;stroke-linejoin:round;}
	.st6{fill:none;stroke:#2D303A;stroke-width:2.4212;stroke-linecap:round;stroke-linejoin:round;stroke-dasharray:0.3142,6.2849;}
</style>
<g>
	<g id="Capa_1_1_">
		<g id="Capa_8">
			<path class="st0" d="M30.6,126.1C7.5,109.7-2.2,80.2,6.7,53.3c6.1-19.4,21.5-34.5,41-40.2l2.1,7.4c-17.2,5-30.8,18.3-36.3,35.3
				c-4.6,14-3.6,29.3,3,42.6c6.3,13.3,17.7,23.4,31.6,28.3l-2.4,7.2C40.4,132,35.3,129.3,30.6,126.1z"/>
		</g>
		<g id="Capa_9">
			<path class="st1" d="M140.8,24.4H64.5c-2.3,0-4.3,1.9-4.3,4.2s1.9,4.3,4.2,4.3c0,0,0,0,0,0h76.4c2.3,0,4.2-1.9,4.2-4.2
				S143.2,24.4,140.8,24.4z"/>
			<path class="st2" d="M140.4,23.6H64c-2.3,0-4.2,1.9-4.2,4.2s1.9,4.2,4.2,4.2h76.4c2.3,0,4.2-1.9,4.2-4.3S142.7,23.6,140.4,23.6
				L140.4,23.6z"/>
			<path class="st3" d="M135.6,26.8H75.5c-1.8,0-3.3,0.7-3.3,1.5s1.5,1.5,3.3,1.5h60.1c1.9,0,3.3,0,3.3-1.5S137.5,26.8,135.6,26.8z"
				/>
			<path class="st1" d="M53.3,10.8c-4.7-0.1-8.7,3.5-8.9,8.2v0.1L44.7,135l4.1,4.3L53,135h0.6l4.1,4.3l4.1-4.3h0.6l4.1,4.3l4.1-4.3
				h0.6l4.1,4.3l4.1-4.3h0.6l4.1,4.3l4.1-4.3h0.6l4.1,4.3l4.1-4.3h0.6l4.1,4.3l4.1-4.3h0.6l4.1,4.3l4.1-4.3h0.6l4.1,4.3
				c0-42.7,0.1-85.5,0.1-128.2C97.6,11,75.4,10.9,53.3,10.8z"/>
			<path class="st1" d="M126.8,9.9h-9.3v18.6h19.8v-8.7C137.4,14.3,132.6,9.9,126.8,9.9z"/>
			<g>
				<path class="st2" d="M51,12.9c0.1,0,0.2,0,0.3,0H116c-0.9,1.6-1.4,3.3-1.4,5.2c0,0,0,0.1,0,0.1v113.1c-0.4-0.1-0.7-0.2-1.1-0.2
					h-0.6c-0.8,0-1.6,0.3-2.2,0.9l-1.9,2l-1.9-2c-0.6-0.6-1.4-0.9-2.2-0.9H104c-0.8,0-1.6,0.3-2.2,0.9l-1.9,2l-1.9-2
					c-0.6-0.6-1.4-0.9-2.2-0.9h-0.6c-0.8,0-1.6,0.3-2.2,0.9l-1.9,2l-1.9-2c-0.6-0.6-1.4-0.9-2.2-0.9h-0.6c-0.8,0-1.6,0.3-2.2,0.9
					l-1.9,2l-1.9-2c-0.6-0.6-1.4-0.9-2.2-0.9h-0.6c-0.8,0-1.6,0.3-2.2,0.9l-1.9,2l-1.9-2c-0.6-0.6-1.4-0.9-2.2-0.9h-0.6
					c-0.8,0-1.6,0.3-2.2,0.9l-1.9,2l-1.9-2c-0.6-0.6-1.4-0.9-2.2-0.9h-0.6c-0.8,0-1.6,0.3-2.2,0.9l-1.9,2l-1.9-2
					c-0.6-0.6-1.4-0.9-2.2-0.9h-0.6c-0.8,0-1.6,0.3-2.2,0.9l-1.9,2l-1.1-1.2L45.4,18.2v-0.1C45.6,15.2,48,12.9,51,12.9 M51,9.9
					c-4.6,0-8.4,3.6-8.6,8.2v0.1l0.3,115.9l4.1,4.3l4.1-4.3h0.6l4.1,4.3l4.1-4.3h0.6l4.1,4.3l4.1-4.3h0.6l4.1,4.3l4.1-4.3h0.6
					l4.1,4.3l4.1-4.3h0.6l4.1,4.3l4.1-4.3h0.6l4.1,4.3l4.1-4.3h0.6l4.1,4.3l4.1-4.3h0.6l4.1,4.3V18.2c0.2-4.6,4-8.3,8.6-8.4H51.3v0
					C51.2,9.9,51.1,9.9,51,9.9L51,9.9z M126.2,9.9C126.2,9.9,126.1,9.9,126.2,9.9L126.2,9.9C126.2,9.9,126.2,9.9,126.2,9.9
					L126.2,9.9z"/>
			</g>
			<path class="st4" d="M81.1,47.2l-0.1,0.1l-0.2-0.1l0,0l0,0c0,0,0,0.1,0,0.1v0.3h-0.1v-0.3l0,0l0,0l0,0l-0.2,0.1l-0.1-0.1l0.2-0.1
				l0,0l0,0h-0.1L80.4,47l0.1-0.1l0.2,0.1l0,0l0,0c0,0,0,0,0,0l0,0v-0.3h0.1V47l0,0l0,0l0.2-0.1L81,47l-0.1,0h-0.1l0,0
				c0,0,0.1,0,0.1,0L81.1,47.2z"/>
			<path class="st4" d="M82.6,47.2v0.1l-0.2-0.1l0,0l0,0c0,0,0,0.1,0,0.1v0.3h-0.1v-0.3l0,0l0,0l0,0L82,47.4v-0.1l0.2-0.1l0,0l0,0
				c-0.1,0-0.2,0-0.2-0.1l-0.2-0.1l0.1-0.1l0.2,0.1l0,0l0,0v0v-0.3h0.1v0.3l0,0l0,0l0,0l0.2-0.1l0.1,0.1L82.2,47l0,0l0,0
				c0,0,0.1,0,0.1,0L82.6,47.2z"/>
			<path class="st4" d="M84,47.2l-0.1,0.1l-0.2-0.1l0,0l0,0c0,0,0,0.1,0,0.1v0.3h-0.1v-0.3l0,0l0,0l0,0l-0.2,0.1l-0.1-0.1l0.2-0.1
				l0,0l0,0h-0.1L83.2,47l0.1-0.1l0.2,0.1l0,0l0,0c0,0,0,0,0,0v-0.3h0.1v0.3c0,0,0,0,0,0.1l0,0l0,0l0,0l0.2-0.1l0.1,0.1l-0.2,0.1
				l0,0h-0.1c0,0,0.1,0,0.1,0L84,47.2z"/>
			<path class="st4" d="M85.5,47.2l-0.1,0.1l-0.2-0.1l0,0l0,0c0,0,0,0.1,0,0.1v0.3h-0.1v-0.3c0,0,0,0,0,0l0,0l0,0l0,0l-0.2,0.1
				l-0.1-0.1l0.2-0.1l0,0H85V47l-0.2-0.1l0.1-0.1l0.2,0.1l0,0l0,0c0,0,0,0,0,0l0,0v-0.3h0.1v0.4l0,0l0,0l0.2-0.1l0.1,0.1L85.3,47
				l0,0h-0.1c0,0,0.1,0,0.1,0L85.5,47.2z"/>
			<path class="st4" d="M87,47.2l-0.1,0.1l-0.2-0.1l0,0l0,0c0,0,0,0.1,0,0.1v0.3h-0.1v-0.3l0,0l0,0l0,0l-0.2,0.1l-0.1-0.1l0.2-0.1
				l0,0h0.1h-0.1L86.3,47l0.1-0.1l0.2,0.1l0,0l0,0c0,0,0,0,0,0l0,0v-0.3h0.1V47l0,0l0,0l0.2-0.1L87,47l-0.2,0.1l0,0l0,0
				c0,0,0.1,0,0.1,0L87,47.2z"/>
			<path class="st4" d="M88.4,47.2v0.1l-0.2-0.1l0,0l0,0c0,0,0,0.1,0,0.1v0.3H88v-0.3l0,0l0,0l0,0l-0.2,0.1v-0.1l0.2-0.1l0,0l0,0
				c0,0-0.1,0-0.1,0L87.7,47l0.1-0.1L88,47l0,0l0,0v0v-0.3h0.1V47l0,0l0,0l0,0l0.2-0.1l0.1,0.1l-0.2,0.1l0,0l0,0c0,0,0.1,0,0.1,0
				L88.4,47.2z"/>
			<path class="st4" d="M89.9,47.2l-0.1,0.1l-0.2-0.1l0,0l0,0c0,0,0,0.1,0,0.1v0.3h-0.1v-0.3l0,0l0,0l0,0l-0.2,0.1l-0.1-0.1l0.2-0.1
				h0.1l0,0h-0.1L89.2,47l0.1-0.1l0.2,0.1l0,0l0,0c0,0,0,0,0,0v-0.3h0.1v0.3c0,0,0,0,0,0.1l0,0l0,0l0,0l0.2-0.1l0.1,0.1L89.7,47l0,0
				l0,0c0,0,0.1,0,0.1,0L89.9,47.2z"/>
			<path class="st4" d="M92.8,47.2l-0.1,0.1l-0.2-0.1l0,0l0,0c0,0,0,0.1,0,0.1v0.3h-0.2v-0.3l0,0l0,0l0,0l-0.2,0.1l-0.1-0.1l0.2-0.1
				l0,0l0,0h-0.1L92,47l0.1-0.1l0.2,0.1l0,0l0,0c0,0,0,0,0,0l0,0v-0.3h0.1V47l0,0l0,0l0.2-0.1l0.1,0.1l-0.2,0.1l0,0l0,0
				c0,0,0.1,0,0.1,0L92.8,47.2z"/>
			<path class="st4" d="M94.3,47.2v0.1L94,47.2l0,0l0,0c0,0,0,0.1,0,0.1v0.3h-0.1v-0.3l0,0l0,0l0,0l-0.2,0.1l-0.1-0.1l0.2-0.1l0,0
				l0,0h-0.1L93.5,47l0.1-0.1l0.2,0.1l0,0l0,0v0v-0.3H94v0.3c0,0,0,0,0,0.1l0,0l0,0l0,0l0.2-0.1l0.1,0.1L94.1,47l0,0l0,0
				c0,0,0.1,0,0.1,0L94.3,47.2z"/>
			<path class="st4" d="M95.8,47.2l-0.1,0.1l-0.2-0.1l0,0l0,0c0,0,0,0.1,0,0.1v0.3h-0.1v-0.3l0,0l0,0l0,0l-0.2,0.1L95,47.2l0.2-0.1
				l0,0l0,0h-0.1L95,46.8l0.1-0.1l0.2,0.1l0,0l0,0c0,0,0,0,0,0v-0.3h0.1v0.3c0,0,0,0,0,0.1l0,0l0,0l0,0l0.2-0.1l0.1,0.1l-0.2,0.1
				l0,0l0,0c0,0,0.1,0,0.1,0L95.8,47.2z"/>
			<path class="st4" d="M98.7,47.2l-0.1,0.1l-0.2-0.1l0,0l0,0c0,0,0,0.1,0,0.1v0.3h-0.1v-0.3l0,0l0,0l0,0l-0.2,0.1L98,47.2l0.2-0.1
				l0,0l0,0h-0.1L98,46.8v-0.1l0.2,0.1l0,0l0,0c0,0,0,0,0,0l0,0v-0.3h0.1v0.4l0,0l0,0l0.2-0.1l0.1,0.1L98.5,47l0,0l0,0
				c0,0,0.1,0,0.1,0L98.7,47.2z"/>
			<rect x="49.3" y="46.3" class="st4" width="26.4" height="1.5"/>
			<rect x="102.2" y="46.3" class="st3" width="6.5" height="1.5"/>
			<path class="st4" d="M81.1,50.6l-0.1,0.1l-0.2-0.1l0,0l0,0c0,0,0,0.1,0,0.1v0.3h-0.1v-0.3l0,0l0,0l0,0l-0.2,0.1l-0.1-0.1l0.2-0.1
				l0,0l0,0h-0.1l-0.2-0.1l0.1-0.1l0.2,0.1l0,0l0,0l0,0l0,0V50h0.1v0.3l0,0l0,0l0,0l0.2-0.1l0.1,0.1l-0.2,0.1h-0.1l0,0h0.1
				L81.1,50.6z"/>
			<path class="st4" d="M82.6,50.6v0.1l-0.2-0.1l0,0l0,0c0,0,0,0.1,0,0.1v0.3h-0.1v-0.3l0,0l0,0l0,0L82,50.8v-0.1l0.2-0.1l0,0l0,0
				c0,0-0.1,0-0.1,0l-0.2-0.1l0.1-0.1l0.2,0.1l0,0l0,0l0,0V50h0.1v0.3l0,0l0,0l0,0l0.2-0.1l0.1,0.1l-0.2,0.1l0,0l0,0
				c0,0,0.1,0,0.1,0L82.6,50.6z"/>
			<path class="st4" d="M84,50.6l-0.1,0.1l-0.2-0.1l0,0l0,0c0,0,0,0.1,0,0.1v0.3h-0.1v-0.3l0,0l0,0l0,0l-0.2,0.1l-0.1-0.1l0.2-0.1
				l0,0l0,0h-0.1l-0.2-0.1l0.1-0.1l0.2,0.1l0,0l0,0l0,0V50h0.1v0.3l0,0l0,0l0,0l0,0l0.2-0.1l0.1,0.1l-0.2,0.1l0,0h-0.1h0.1L84,50.6z
				"/>
			<path class="st4" d="M85.5,50.6l-0.1,0.1l-0.2-0.1l0,0l0,0c0,0,0,0.1,0,0.1v0.3h-0.1v-0.3c0,0,0,0,0,0l0,0l0,0l0,0l-0.2,0.1
				l-0.1-0.1l0.2-0.1l0,0H85h-0.1l-0.2-0.1l0.1-0.1l0.2,0.1l0,0l0,0l0,0l0,0V50h0.1v0.3l0,0l0,0l0,0l0.2-0.1l0.1,0.1l-0.2,0.1l0,0
				h-0.1h0.1L85.5,50.6z"/>
			<path class="st4" d="M87,50.6l-0.1,0.1l-0.2-0.1l0,0l0,0c0,0,0,0.1,0,0.1v0.3h-0.1v-0.3l0,0l0,0l0,0l-0.2,0.1l-0.1-0.1l0.2-0.1
				l0,0h0.1h-0.1l-0.2-0.1l0.1-0.1l0.2,0.1l0,0l0,0l0,0l0,0V50h0.1v0.3l0,0l0,0l0,0l0.2-0.1l0.1,0.1l-0.2,0.1l0,0l0,0
				c0,0,0.1,0,0.1,0L87,50.6z"/>
			<path class="st4" d="M88.4,50.6v0.1l-0.2-0.1l0,0l0,0c0,0,0,0.1,0,0.1v0.3H88v-0.3l0,0l0,0l0,0l-0.2,0.1v-0.1l0.2-0.1l0,0l0,0
				c0,0-0.1,0-0.1,0l-0.2-0.1l0.1-0.1l0.2,0.1l0,0l0,0l0,0V50h0.1v0.3l0,0l0,0l0,0l0.2-0.1l0.1,0.1l-0.2,0.1l0,0l0,0
				c0,0,0.1,0,0.1,0L88.4,50.6z"/>
			<path class="st4" d="M89.9,50.6l-0.1,0.1l-0.2-0.1l0,0l0,0c0,0,0,0.1,0,0.1v0.3h-0.1v-0.3l0,0l0,0l0,0l-0.2,0.1l-0.1-0.1l0.2-0.1
				h0.1l0,0h-0.1l-0.2-0.1l0.1-0.1l0.2,0.1l0,0l0,0l0,0V50h0.1v0.3l0,0l0,0l0,0l0,0l0.2-0.1l0.1,0.1l-0.2,0.1l0,0l0,0h0.1L89.9,50.6
				z"/>
			<path class="st4" d="M92.8,50.6l-0.1,0.1l-0.2-0.1l0,0l0,0c0,0,0,0.1,0,0.1v0.3h-0.2v-0.3l0,0l0,0l0,0l-0.2,0.1l-0.1-0.1l0.2-0.1
				l0,0l0,0h-0.1L92,50.4l0.1-0.1l0.2,0.1l0,0l0,0l0,0l0,0V50h0.1v0.3l0,0l0,0l0,0l0.2-0.1l0.1,0.1l-0.2,0.1l0,0l0,0
				c0,0,0.1,0,0.1,0L92.8,50.6z"/>
			<path class="st4" d="M95.8,50.6l-0.1,0.1l-0.2-0.1l0,0l0,0c0,0,0,0.1,0,0.1v0.3h-0.1v-0.3l0,0l0,0l0,0l-0.2,0.1L95,50.6l0.2-0.1
				l0,0l0,0h-0.1L95,50.3l0.1-0.1l0.2,0.1l0,0l0,0l0,0V50h0.1v0.3l0,0l0,0l0,0l0,0l0.2-0.1l0.1,0.1l-0.2,0.1l0,0l0,0h0.1L95.8,50.6z
				"/>
			<path class="st4" d="M98.7,50.6l-0.1,0.1l-0.2-0.1l0,0l0,0c0,0,0,0.1,0,0.1v0.3h-0.1v-0.3l0,0l0,0l0,0l-0.2,0.1L98,50.6l0.2-0.1
				l0,0l0,0h-0.1L98,50.3v-0.1l0.2,0.1l0,0l0,0l0,0l0,0V50h0.1v0.3l0,0l0,0l0,0l0.2-0.1l0.1,0.1l-0.2,0.1l0,0l0,0c0,0,0.1,0,0.1,0
				L98.7,50.6z"/>
			<rect x="49.3" y="49.7" class="st4" width="14.3" height="1.5"/>
			<rect x="102.2" y="49.7" class="st3" width="6.5" height="1.5"/>
			<path class="st4" d="M82.6,54v0.1L82.3,54l0,0l0,0c0,0,0,0.1,0,0.1v0.3h-0.1V54l0,0l0,0l0,0L82,54.1V54l0.2-0.1l0,0l0,0
				c0,0-0.1,0-0.1,0l-0.2-0.1l0.1-0.1l0.2,0.1l0,0l0,0l0,0v-0.3h0.1v0.3l0,0l0,0l0,0l0.2-0.1l0.1,0.1l-0.2,0.1l0,0l0,0
				c0,0,0,0,0.1,0L82.6,54z"/>
			<path class="st4" d="M84,54l-0.1,0.1L83.8,54l0,0l0,0c0,0,0,0.1,0,0.1v0.3h-0.2V54l0,0l0,0l0,0l-0.2,0.1L83.3,54l0.2-0.1l0,0l0,0
				h-0.1l-0.2-0.1l0.1-0.1l0.2,0.1l0,0l0,0l0,0v-0.3h0.1v0.3c0,0,0,0,0,0l0,0l0,0l0,0l0.2-0.1l0.1,0.1l-0.2,0.1l0,0h-0.1
				c0,0,0.1,0,0.1,0L84,54z"/>
			<path class="st4" d="M88.4,54v0.1L88.2,54l0,0l0,0c0,0,0,0.1,0,0.1v0.3H88V54l0,0l0,0l0,0l-0.2,0.1V54l0.2-0.1l0,0l0,0
				c0,0-0.1,0-0.1,0l-0.2-0.1l0.1-0.1l0.2,0.1l0,0l0,0l0,0v-0.3h0.1v0.3l0,0l0,0l0,0l0.2-0.1l0.1,0.1l-0.2,0.1l0,0l0,0
				c0,0,0,0,0.1,0L88.4,54z"/>
			<path class="st4" d="M89.9,54l-0.1,0.1L89.6,54l0,0l0,0c0,0,0,0.1,0,0.1v0.3h-0.1V54l0,0l0,0l0,0l-0.2,0.1L89.1,54l0.2-0.1h0.1
				l0,0h-0.1l-0.2-0.1l0.1-0.1l0.2,0.1l0,0l0,0l0,0v-0.3h0.1v0.3c0,0,0,0,0,0l0,0l0,0l0,0l0.2-0.1l0.1,0.1l-0.2,0.1l0,0l0,0
				c0,0,0.1,0,0.1,0L89.9,54z"/>
			<path class="st4" d="M95.8,54l-0.1,0.1L95.5,54l0,0l0,0c0,0,0,0.1,0,0.1v0.3h-0.1V54l0,0l0,0l0,0l-0.2,0.1L95,54l0.2-0.1l0,0l0,0
				h-0.1L95,53.7l0.1-0.1l0.2,0.1l0,0l0,0l0,0v-0.3h0.1v0.3c0,0,0,0,0,0l0,0l0,0l0,0l0.2-0.1l0.1,0.1l-0.2,0.1l0,0l0,0
				c0,0,0.1,0,0.1,0L95.8,54z"/>
			<rect x="49.3" y="53.1" class="st4" width="22.1" height="1.5"/>
			<rect x="102.2" y="53.1" class="st3" width="6.5" height="1.5"/>
			<path class="st4" d="M81.1,57.5l-0.1,0.1l-0.2-0.1l0,0l0,0c0,0,0,0.1,0,0.1v0.3h-0.1v-0.3l0,0l0,0l0,0l-0.2,0.1l-0.1-0.1l0.2-0.1
				l0,0l0,0c0,0-0.1,0-0.1,0l-0.2-0.1l0-0.2l0.2,0.1l0,0l0,0l0,0c0,0,0,0,0-0.1v-0.3h0.1v0.3c0,0,0,0,0,0l0,0l0,0l0.2-0.1l0.1,0.1
				l-0.2,0.1h-0.1l0,0h0.1L81.1,57.5z"/>
			<path class="st4" d="M82.6,57.5v0.1l-0.2-0.1l0,0l0,0c0,0,0,0.1,0,0.1v0.3h-0.1v-0.3l0,0l0,0l0,0L82,57.6v-0.1l0.2-0.1l0,0l0,0
				c0,0-0.1,0-0.1,0l-0.2-0.1l0.1-0.1l0.2,0.1l0,0l0,0l0,0v-0.3h0.1v0.3c0,0,0,0,0,0l0,0l0,0l0.2-0.1l0.1,0.1l-0.2,0.1l0,0l0,0h0.1
				L82.6,57.5z"/>
			<path class="st4" d="M84,57.5l-0.1,0.1l-0.2-0.1l0,0l0,0c0,0,0,0.1,0,0.1v0.3h-0.1v-0.3l0,0l0,0l0,0l-0.2,0.1l-0.1-0.1l0.2-0.1
				l0,0l0,0h-0.1l-0.2-0.1l0.1-0.1l0.2,0.1l0,0l0,0l0,0v-0.3h0.1v0.3l0,0c0,0,0,0,0,0l0,0l0,0L84,57l0.1,0.1l-0.2,0.1l0,0h-0.1h0.1
				L84,57.5z"/>
			<path class="st4" d="M85.5,57.5l-0.1,0.1l-0.2-0.1l0,0l0,0c0,0,0,0.1,0,0.1v0.3h-0.1v-0.3c0,0,0,0,0-0.1l0,0l0,0l0,0l-0.2,0.1
				l-0.1-0.1l0.2-0.1l0,0h0.1c0,0-0.1,0-0.1,0l-0.2-0.1l0-0.2l0.2,0.1l0,0l0,0l0,0c0,0,0,0,0-0.1v-0.3h0.1v0.3c0,0,0,0,0,0l0,0l0,0
				l0.2-0.1l0.1,0.1l-0.2,0.1l0,0h-0.1h0.1L85.5,57.5z"/>
			<path class="st4" d="M87,57.5l-0.1,0.1l-0.2-0.1l0,0l0,0c0,0,0,0.1,0,0.1v0.3h-0.1v-0.3l0,0l0,0l0,0l-0.2,0.1l-0.1-0.1l0.2-0.1
				l0,0h0.1c0,0-0.1,0-0.1,0l-0.2-0.1l0.1-0.1l0.2,0.1l0,0l0,0l0,0c0,0,0,0,0-0.1v-0.3h0.1v0.3c0,0,0,0,0,0l0,0l0,0l0.2-0.1l0.1,0.1
				l-0.2,0.1l0,0l0,0h0.1L87,57.5z"/>
			<path class="st4" d="M88.4,57.5v0.1l-0.2-0.1l0,0l0,0c0,0,0,0.1,0,0.1v0.3H88v-0.3l0,0l0,0l0,0l-0.2,0.1v-0.1l0.2-0.1l0,0l0,0
				c0,0-0.1,0-0.1,0l-0.2-0.1l0.1-0.1l0.2,0.1l0,0l0,0l0,0v-0.3h0.1v0.3c0,0,0,0,0,0l0,0l0,0l0.2-0.1l0.1,0.1l-0.2,0.1l0,0l0,0h0.1
				L88.4,57.5z"/>
			<path class="st4" d="M89.9,57.5l-0.1,0.1l-0.2-0.1l0,0l0,0c0,0,0,0.1,0,0.1v0.3h-0.1v-0.3l0,0l0,0l0,0l-0.2,0.1l-0.1-0.1l0.2-0.1
				h0.1l0,0c0,0-0.1,0-0.1,0l-0.2-0.1l0-0.2l0.2,0.1l0,0l0,0l0,0v-0.3h0.1v0.3l0,0c0,0,0,0,0,0l0,0l0,0l0.2-0.1l0.1,0.1l-0.2,0.1
				l0,0l0,0h0.1L89.9,57.5z"/>
			<path class="st4" d="M91.4,57.5l-0.1,0.1l-0.2-0.1l0,0l0,0c0,0,0,0.1,0,0.1v0.3H91v-0.3c0,0,0,0,0-0.1l0,0l0,0l0,0l-0.2,0.1
				l-0.1-0.1l0.2-0.1l0,0l0,0c0,0-0.1,0-0.1,0l-0.2-0.1l0.1-0.1l0.2,0.1l0,0l0,0l0,0c0,0,0,0,0-0.1v-0.3H91v0.3c0,0,0,0,0,0l0,0l0,0
				l0.2-0.1l0.1,0.1l-0.2,0.1l0,0l0,0h0.1L91.4,57.5z"/>
			<path class="st4" d="M92.8,57.5l-0.1,0.1l-0.2-0.1l0,0l0,0c0,0,0,0.1,0,0.1v0.3h-0.2v-0.3l0,0l0,0l0,0l-0.2,0.1l-0.1-0.1l0.2-0.1
				l0,0l0,0c0,0-0.1,0-0.1,0L92,57.2l0.1-0.1l0.2,0.1l0,0l0,0l0,0c0,0,0,0,0-0.1v-0.3h0.1v0.3c0,0,0,0,0,0l0,0l0,0l0.2-0.1l0.1,0.1
				l-0.2,0.1l0,0l0,0h0.1L92.8,57.5z"/>
			<path class="st4" d="M95.8,57.5l-0.1,0.1l-0.2-0.1l0,0l0,0c0,0,0,0.1,0,0.1v0.3h-0.1v-0.3l0,0l0,0l0,0l-0.2,0.1L95,57.5l0.2-0.1
				l0,0l0,0c0,0-0.1,0-0.1,0L95,57.1l0.1-0.1l0.2,0.1l0,0l0,0l0,0v-0.3h0.1v0.3l0,0c0,0,0,0,0,0l0,0l0,0l0.2-0.1l0.1,0.1l-0.2,0.1
				l0,0l0,0h0.1L95.8,57.5z"/>
			<path class="st4" d="M97.2,57.5l-0.1,0.1L97,57.4l0,0l0,0c0,0,0,0.1,0,0.1v0.3h-0.2v-0.3c0,0,0,0,0-0.1l0,0l0,0l0,0l-0.2,0.1
				l-0.1-0.1l0.2-0.1l0,0l0,0c0,0-0.1,0-0.1,0l-0.2-0.1l0.1-0.1l0.2,0.1l0,0l0,0l0,0c0,0,0,0,0-0.1v-0.3h0.1v0.3c0,0,0,0,0,0l0,0
				l0,0l0.2-0.1l0.1,0.1l-0.2,0.1l0,0l0,0H97L97.2,57.5z"/>
			<path class="st4" d="M98.7,57.5l-0.1,0.1l-0.2-0.1l0,0l0,0c0,0,0,0.1,0,0.1v0.3h-0.1v-0.3l0,0l0,0l0,0l-0.2,0.1L98,57.5l0.2-0.1
				l0,0l0,0c0,0-0.1,0-0.1,0L98,57.1V57l0.2,0.1l0,0l0,0l0,0c0,0,0,0,0-0.1v-0.3h0.1v0.3c0,0,0,0,0,0l0,0l0,0l0.2-0.1l0.1,0.1
				l-0.2,0.1l0,0l0,0h0.1L98.7,57.5z"/>
			<rect x="49.3" y="56.6" class="st4" width="17.7" height="1.5"/>
			<rect x="102.2" y="56.6" class="st3" width="6.5" height="1.5"/>
			<path class="st4" d="M81.1,60.9L81.1,61l-0.2-0.1l0,0l0,0c0,0,0,0.1,0,0.1v0.3h-0.1v-0.3v0l0,0l0,0L80.4,61l-0.1-0.1l0.2-0.1l0,0
				l0,0h-0.1l-0.2-0.1l0.1-0.1l0.2,0.1l0,0l0,0l0,0c0,0,0,0,0,0v-0.3h0.1v0.3l0,0l0,0l0,0l0.2-0.1l0.1,0.1l-0.2,0.1h-0.1l0,0
				c0,0,0.1,0,0.1,0L81.1,60.9z"/>
			<path class="st4" d="M82.6,60.9V61l-0.2-0.1l0,0l0,0c0,0,0,0.1,0,0.1v0.3h-0.1v-0.3c0,0,0,0,0,0l0,0l0,0L82,61v-0.1l0.2-0.1l0,0
				l0,0c0,0-0.1,0-0.1,0l-0.2-0.1l0.1-0.1l0.2,0.1l0,0l0,0l0,0v-0.3h0.1v0.3l0,0l0,0l0,0l0.2-0.1l0.1,0.1l-0.2,0.1l0,0l0,0
				c0,0,0.1,0,0.1,0L82.6,60.9z"/>
			<path class="st4" d="M84,60.9V61l-0.2-0.1l0,0l0,0c0,0,0,0.1,0,0.1v0.3h-0.2v-0.3c0,0,0,0,0,0l0,0l0,0L83.4,61l-0.1-0.1l0.2-0.1
				l0,0l0,0h-0.1l-0.2-0.1l0.1-0.1l0.2,0.1l0,0l0,0l0,0v-0.3h0.1v0.3c0,0,0,0,0,0.1l0,0l0,0l0,0l0.2-0.1l0.1,0.1l-0.2,0.1l0,0h-0.1
				c0,0,0.1,0,0.1,0L84,60.9z"/>
			<path class="st4" d="M85.5,60.9L85.5,61l-0.2-0.1l0,0l0,0c0,0,0,0.1,0,0.1v0.3h-0.1v-0.3l0,0c0,0,0,0,0,0l0,0l0,0L84.8,61
				l-0.1-0.1l0.2-0.1l0,0h0h-0.1l-0.2-0.1l0.1-0.1l0.2,0.1l0,0l0,0l0,0c0,0,0,0,0,0v-0.3h0.1v0.3l0,0l0,0l0,0l0.2-0.1l0.1,0.1
				l-0.2,0.1l0,0h-0.1c0,0,0.1,0,0.1,0L85.5,60.9z"/>
			<path class="st4" d="M87,60.9L86.9,61l-0.2-0.1l0,0l0,0c0,0,0,0.1,0,0.1v0.3h-0.1v-0.3v0l0,0l0,0L86.4,61l-0.1-0.1l0.2-0.1l0,0
				h0.1h-0.1l-0.2-0.1l0.1-0.1l0.2,0.1l0,0l0,0l0,0c0,0,0,0,0,0v-0.3h0.1v0.3l0,0l0,0l0,0l0.2-0.1l0.1,0.1l-0.2,0.1l0,0l0,0
				c0,0,0.1,0,0.1,0L87,60.9z"/>
			<path class="st4" d="M88.4,60.9V61l-0.2-0.1l0,0l0,0c0,0,0,0.1,0,0.1v0.3H88v-0.3c0,0,0,0,0,0l0,0l0,0L87.8,61v-0.1l0.2-0.1l0,0
				l0,0c0,0-0.1,0-0.1,0l-0.2-0.1l0.1-0.1l0.2,0.1l0,0l0,0l0,0v-0.3h0.1v0.3l0,0l0,0l0,0l0.2-0.1l0.1,0.1l-0.2,0.1l0,0l0,0
				c0,0,0.1,0,0.1,0L88.4,60.9z"/>
			<path class="st4" d="M89.9,60.9L89.9,61l-0.2-0.1l0,0l0,0c0,0,0,0.1,0,0.1v0.3h-0.1v-0.3c0,0,0,0,0,0l0,0l0,0L89.2,61l-0.1-0.1
				l0.2-0.1h0.1l0,0h-0.1l-0.2-0.1l0.1-0.1l0.2,0.1l0,0l0,0l0,0v-0.3h0.1v0.3c0,0,0,0,0,0.1l0,0l0,0l0,0l0.2-0.1l0.1,0.1l-0.2,0.1
				l0,0l0,0c0,0,0.1,0,0.1,0L89.9,60.9z"/>
			<path class="st4" d="M91.4,60.9L91.3,61l-0.2-0.1l0,0l0,0c0,0,0,0.1,0,0.1v0.3H91v-0.3l0,0c0,0,0,0,0,0l0,0l0,0L90.8,61l-0.1-0.1
				l0.2-0.1l0,0l0,0h-0.1l-0.2-0.1l0.1-0.1l0.2,0.1l0,0l0,0l0,0c0,0,0,0,0,0v-0.3H91v0.3l0,0l0,0l0,0l0.2-0.1l0.1,0.1l-0.2,0.1l0,0
				l0,0c0,0,0.1,0,0.1,0L91.4,60.9z"/>
			<path class="st4" d="M92.8,60.9L92.8,61l-0.2-0.1l0,0l0,0c0,0,0,0.1,0,0.1v0.3h-0.2v-0.3v0l0,0l0,0L92.2,61l-0.1-0.1l0.2-0.1l0,0
				l0,0h-0.1L92,60.6l0.1-0.1l0.2,0.1l0,0l0,0l0,0c0,0,0,0,0,0v-0.3h0.1v0.3l0,0l0,0l0,0l0.2-0.1l0.1,0.1l-0.2,0.1l0,0l0,0
				c0,0,0.1,0,0.1,0L92.8,60.9z"/>
			<path class="st4" d="M94.3,60.9V61L94,60.9l0,0l0,0c0,0,0,0.1,0,0.1v0.3h-0.1v-0.3c0,0,0,0,0,0l0,0l0,0L93.6,61l-0.1-0.1l0.2-0.1
				l0,0l0,0c0,0-0.1,0-0.1,0l-0.2-0.1l0.1-0.1l0.2,0.1l0,0l0,0l0,0v-0.3H94v0.3c0,0,0,0,0,0.1l0,0l0,0l0,0l0.2-0.1l0.1,0.1l-0.2,0.1
				l0,0l0,0c0,0,0.1,0,0.1,0L94.3,60.9z"/>
			<path class="st4" d="M95.8,60.9L95.7,61l-0.2-0.1l0,0l0,0c0,0,0,0.1,0,0.1v0.3h-0.1v-0.3c0,0,0,0,0,0l0,0l0,0L95.2,61L95,60.9
				l0.2-0.1l0,0l0,0h-0.1L95,60.5l0.1-0.1l0.2,0.1l0,0l0,0l0,0v-0.3h0.1v0.3c0,0,0,0,0,0.1l0,0l0,0l0,0l0.2-0.1l0.1,0.1l-0.2,0.1
				l0,0l0,0c0,0,0.1,0,0.1,0L95.8,60.9z"/>
			<path class="st4" d="M97.2,60.9L97.2,61L97,60.9l0,0l0,0c0,0,0,0.1,0,0.1v0.3h-0.2v-0.3l0,0c0,0,0,0,0,0l0,0l0,0L96.6,61
				l-0.1-0.1l0.2-0.1l0,0l0,0h-0.1l-0.2-0.1l0.1-0.1l0.2,0.1l0,0l0,0l0,0c0,0,0,0,0,0v-0.3h0.1v0.3l0,0l0,0l0,0l0.2-0.1l0.1,0.1
				l-0.2,0.1l0,0l0,0c0,0,0.1,0,0.1,0L97.2,60.9z"/>
			<path class="st4" d="M98.7,60.9L98.7,61l-0.2-0.1l0,0l0,0c0,0,0,0.1,0,0.1v0.3h-0.1v-0.3v0l0,0l0,0L98,61v-0.1l0.2-0.1l0,0l0,0
				h-0.1L98,60.5v-0.1l0.2,0.1l0,0l0,0l0,0c0,0,0,0,0,0v-0.3h0.1v0.3l0,0l0,0l0,0l0.2-0.1l0.1,0.1l-0.2,0.1l0,0l0,0c0,0,0.1,0,0.1,0
				L98.7,60.9z"/>
			<rect x="49.3" y="60" class="st4" width="25.1" height="1.5"/>
			<rect x="102.2" y="60" class="st3" width="6.5" height="1.5"/>
			<path class="st4" d="M81.1,64.3l-0.1,0.1l-0.2-0.1l0,0l0,0c0,0,0,0.1,0,0.1v0.3h-0.1v-0.3l0,0l0,0l0,0l-0.2,0.1l-0.1-0.1l0.2-0.1
				l0,0l0,0h-0.1L80.3,64l0.1-0.1l0.2,0.1l0,0l0,0l0,0c0,0,0,0,0,0v-0.3h0.1V64l0,0l0,0l0,0l0.2-0.1L81,64l-0.2,0.1h-0.1l0,0
				c0,0,0.1,0,0.1,0L81.1,64.3z"/>
			<path class="st4" d="M82.6,64.3v0.1l-0.2-0.1l0,0l0,0c0,0,0,0.1,0,0.1v0.3h-0.1v-0.3l0,0l0,0l0,0L82,64.5v-0.1l0.2-0.1l0,0l0,0
				c0,0-0.1,0-0.1,0L81.8,64l0.1-0.1l0.2,0.1l0,0l0,0l0,0v-0.3h0.1V64l0,0l0,0l0,0l0.2-0.1l0.1,0.1l-0.2,0.1l0,0l0,0
				c0,0,0.1,0,0.1,0L82.6,64.3z"/>
			<path class="st4" d="M84,64.3l-0.1,0.1l-0.2-0.1l0,0l0,0c0,0,0,0.1,0,0.1v0.3h-0.1v-0.3l0,0l0,0l0,0l-0.2,0.1l-0.1-0.1l0.2-0.1
				l0,0l0,0h-0.1L83.3,64l0.1-0.1l0.2,0.1l0,0l0,0l0,0v-0.3h0.1V64c0,0,0,0,0,0.1l0,0l0,0l0,0l0.2-0.1L84,64l-0.2,0.1l0,0h-0.1
				c0,0,0.1,0,0.1,0L84,64.3z"/>
			<path class="st4" d="M85.5,64.3l-0.1,0.1l-0.2-0.1l0,0l0,0c0,0,0,0.1,0,0.1v0.3h-0.1v-0.3l0,0l0,0l0,0l0,0l-0.2,0.1l-0.1-0.1
				l0.2-0.1l0,0H85h-0.1L84.7,64l0.1-0.1L85,64l0,0l0,0l0,0c0,0,0,0,0,0v-0.3h0.1V64l0,0l0,0l0,0l0.2-0.1l0.1,0.1l-0.2,0.1l0,0h-0.1
				c0,0,0.1,0,0.1,0L85.5,64.3z"/>
			<path class="st4" d="M87,64.3l-0.1,0.1l-0.2-0.1l0,0l0,0c0,0,0,0.1,0,0.1v0.3h-0.1v-0.3l0,0l0,0l0,0l-0.2,0.1l-0.1-0.1l0.2-0.1
				l0,0h0.1h-0.1L86.2,64l0.1-0.1l0.2,0.1l0,0l0,0l0,0c0,0,0,0,0,0v-0.3h0.1V64l0,0l0,0l0,0l0.2-0.1L87,64l-0.2,0.1l0,0l0,0
				c0,0,0.1,0,0.1,0L87,64.3z"/>
			<path class="st4" d="M88.4,64.3v0.1l-0.2-0.1l0,0l0,0c0,0,0,0.1,0,0.1v0.3H88v-0.3l0,0l0,0l0,0l-0.2,0.1v-0.1l0.2-0.1l0,0l0,0
				c0,0-0.1,0-0.1,0L87.7,64l0.1-0.1l0.2,0.1l0,0l0,0l0,0v-0.3h0.1V64l0,0l0,0l0,0l0.2-0.1l0.1,0.1l-0.2,0.1l0,0l0,0
				c0,0,0.1,0,0.1,0L88.4,64.3z"/>
			<path class="st4" d="M89.9,64.3l-0.1,0.1l-0.2-0.1l0,0l0,0c0,0,0,0.1,0,0.1v0.3h-0.1v-0.3l0,0l0,0l0,0l-0.2,0.1l-0.1-0.1l0.2-0.1
				h0.1l0,0h-0.1L89.1,64l0.1-0.1l0.2,0.1l0,0l0,0l0,0v-0.3h0.1V64c0,0,0,0,0,0.1l0,0l0,0l0,0l0.2-0.1l0.1,0.1l-0.2,0.1l0,0l0,0
				c0,0,0.1,0,0.1,0L89.9,64.3z"/>
			<path class="st4" d="M92.8,64.3l-0.1,0.1l-0.2-0.1l0,0l0,0c0,0,0,0.1,0,0.1v0.3h-0.2v-0.3l0,0l0,0l0,0l-0.2,0.1l-0.1-0.1l0.2-0.1
				l0,0l0,0h-0.1L92.1,64l0.1-0.1l0.2,0.1l0,0l0,0l0,0c0,0,0,0,0,0v-0.3h0.1V64l0,0l0,0l0,0l0.2-0.1l0.1,0.1l-0.2,0.1l0,0l0,0
				c0,0,0.1,0,0.1,0L92.8,64.3z"/>
			<path class="st4" d="M94.3,64.3v0.1L94,64.3l0,0l0,0c0,0,0,0.1,0,0.1v0.3h-0.1v-0.3l0,0l0,0l0,0l-0.2,0.1l-0.1-0.1l0.2-0.1l0,0
				l0,0c0,0-0.1,0-0.1,0L93.5,64l0.1-0.1l0.2,0.1l0,0l0,0l0,0v-0.3H94V64l0,0l0,0l0,0l0,0l0.2-0.1l0.1,0.1l-0.2,0.1l0,0l0,0
				c0,0,0.1,0,0.1,0L94.3,64.3z"/>
			<path class="st4" d="M95.8,64.3l-0.1,0.1l-0.2-0.1l0,0l0,0c0,0,0,0.1,0,0.1v0.3h-0.1v-0.3l0,0l0,0l0,0l-0.2,0.1L95,64.3l0.2-0.1
				l0,0l0,0h-0.1L95,64l0.1-0.1l0.2,0.1l0,0l0,0l0,0v-0.3h0.1V64c0,0,0,0,0,0.1l0,0l0,0l0,0l0.2-0.1l0.1,0.1l-0.2,0.1l0,0l0,0
				c0,0,0.1,0,0.1,0L95.8,64.3z"/>
			<path class="st4" d="M98.7,64.3l-0.1,0.1l-0.2-0.1l0,0l0,0c0,0,0,0.1,0,0.1v0.3h-0.1v-0.3l0,0l0,0l0,0l-0.2,0.1L98,64.3l0.2-0.1
				l0,0l0,0h-0.1L98,64v-0.1l0.2,0.1l0,0l0,0l0,0c0,0,0,0,0,0v-0.3h0.1V64l0,0l0,0l0,0l0.2-0.1l0.1,0.1l-0.2,0.1l0,0l0,0
				c0,0,0.1,0,0.1,0L98.7,64.3z"/>
			<rect x="49.3" y="63.4" class="st4" width="14.3" height="1.5"/>
			<rect x="102.2" y="63.4" class="st3" width="6.5" height="1.5"/>
			<path class="st4" d="M82.6,67.7v0.1l-0.2-0.1l0,0l0,0c0,0,0,0.1,0,0.1V68h-0.1v-0.3l0,0l0,0l0,0L82,67.8v-0.1l0-0.1l0,0l0,0
				c0,0-0.1,0-0.1,0l-0.2-0.1l0.1-0.1l0.2,0.1l0,0l0,0l0,0v-0.3h0.1v0.3l0,0l0,0l0,0l0.2-0.1l0.1,0.1l-0.2,0.1l0,0l0,0h0.1
				L82.6,67.7z"/>
			<path class="st4" d="M84,67.7l-0.1,0.1l-0.2-0.1l0,0l0,0c0,0,0,0.1,0,0.1V68h-0.1v-0.4l0,0l0,0l-0.2,0.1l-0.1-0.1l0.2-0.1l0,0
				l0,0h-0.1l-0.2-0.1l0.1-0.1l0.2,0.1l0,0l0,0l0,0v-0.3h0.1v0.3c0,0,0,0,0,0.1l0,0l0,0l0,0l0.2-0.1l0.1,0.1l-0.2,0.1l0,0h-0.1h0.1
				L84,67.7z"/>
			<path class="st4" d="M88.4,67.7v0.1l-0.2-0.1l0,0l0,0c0,0,0,0.1,0,0.1V68H88v-0.3l0,0l0,0l0,0l-0.2,0.1v-0.1l0.2-0.1l0,0l0,0
				c0,0-0.1,0-0.1,0l-0.2-0.1l0.1-0.1l0.2,0.1l0,0l0,0l0,0v-0.3h0.1v0.3l0,0l0,0l0,0l0.2-0.1l0.1,0.1l-0.2,0.1l0,0l0,0h0.1
				L88.4,67.7z"/>
			<path class="st4" d="M89.9,67.7l-0.1,0.1l-0.2-0.1l0,0l0,0c0,0,0,0.1,0,0.1V68h-0.1v-0.4l0,0l0,0l-0.2,0.1l-0.1-0.1l0.2-0.1h0.1
				l0,0c0,0-0.1,0-0.1,0l-0.2-0.1l0.1-0.1l0.2,0.1l0,0l0,0l0,0v-0.3h0.1v0.3c0,0,0,0,0,0.1l0,0l0,0l0,0l0.2-0.1l0.1,0.1l-0.2,0.1
				l0,0l0,0h0.1L89.9,67.7z"/>
			<path class="st4" d="M95.8,67.7l-0.1,0.1l-0.2-0.1l0,0l0,0c0,0,0,0.1,0,0.1V68h-0.1v-0.4l0,0l0,0l-0.2,0.1l-0.2,0l0.2-0.1l0,0
				l0,0c0,0-0.1,0-0.1,0L95,67.4l0.1-0.1l0.2,0.1l0,0l0,0l0,0v-0.3h0.1v0.3c0,0,0,0,0,0.1l0,0l0,0l0,0l0.2-0.1l0.1,0.1l-0.2,0.1l0,0
				l0,0h0.1L95.8,67.7z"/>
			<rect x="49.3" y="66.8" class="st4" width="17.7" height="1.5"/>
			<rect x="102.2" y="66.8" class="st3" width="6.5" height="1.5"/>
			<path class="st4" d="M81.1,71.2l-0.1,0.1l-0.2-0.1l0,0l0,0c0,0,0,0.1,0,0.1v0.3h-0.1v-0.3c0,0,0,0,0-0.1l0,0l0,0l-0.2,0.1
				l-0.1-0.1l0.2-0.1l0,0l0,0c0,0-0.1,0-0.1,0l-0.2-0.1l0.1-0.1l0.2,0.1l0,0l0,0l0,0c0,0,0,0,0-0.1v-0.3h0.1v0.3c0,0,0,0,0,0.1l0,0
				l0,0l0.2-0.1l0.1,0.1L80.9,71h-0.1l0,0h0.1L81.1,71.2z"/>
			<path class="st4" d="M82.6,71.2v0.1l-0.2-0.1l0,0l0,0c0,0,0,0.1,0,0.1v0.3h-0.1v-0.3c0,0,0,0,0-0.1l0,0l0,0L82,71.3v-0.1l0-0.2
				l0,0l0,0l0,0l-0.2-0.1l0.1-0.1l0.2,0.1l0,0l0,0l0,0v-0.3h0.1v0.3c0,0,0,0,0,0.1l0,0l0,0l0.2-0.1l0.1,0.1L82.2,71l0,0l0,0h0.1
				L82.6,71.2z"/>
			<path class="st4" d="M84,71.2l-0.1,0.1l-0.2-0.1l0,0l0,0c0,0,0,0.1,0,0.1v0.3h-0.1v-0.3c0,0,0,0,0-0.1l0,0l0,0l-0.2,0.1l-0.1-0.1
				l0.2-0.1l0,0l0,0h-0.1l-0.2-0.1l0.1-0.1l0.2,0.1l0,0l0,0l0,0v-0.3h0.1v0.3l0,0c0,0,0,0,0,0.1l0,0l0,0l0.4-0.2l0.1,0.1l-0.2,0.1
				l0,0h-0.1h0.1L84,71.2z"/>
			<path class="st4" d="M85.5,71.2l-0.1,0.1l-0.2-0.1l0,0l0,0c0,0,0,0.1,0,0.1v0.3h-0.1v-0.3l0,0c0,0,0,0,0-0.1l0,0l0,0l-0.2,0.1
				l-0.1-0.1L85,71l0,0l0,0l0,0l-0.2-0.1l0.1-0.1l0.2,0.1l0,0l0,0l0,0c0,0,0,0,0-0.1v-0.3h0.1v0.3c0,0,0,0,0,0.1l0,0l0,0l0.2-0.1
				l0.1,0.1L85.3,71l0,0h-0.1h0.1L85.5,71.2z"/>
			<path class="st4" d="M87,71.2l-0.1,0.1l-0.2-0.1l0,0l0,0c0,0,0,0.1,0,0.1v0.3h-0.1v-0.3c0,0,0,0,0-0.1l0,0l0,0l-0.2,0.1l-0.1-0.1
				l0.2-0.1l0,0h0.1c0,0-0.1,0-0.1,0l-0.2-0.1l0.1-0.1l0.2,0.1l0,0l0,0l0,0c0,0,0,0,0-0.1v-0.3h0.1v0.3c0,0,0,0,0,0.1l0,0l0,0
				l0.2-0.1l0.1,0.1l-0.2,0.1l0,0l0,0h0.1L87,71.2z"/>
			<path class="st4" d="M88.4,71.2v0.1l-0.2-0.1l0,0l0,0c0,0,0,0.1,0,0.1v0.3H88v-0.3c0,0,0,0,0-0.1l0,0l0,0l-0.2,0.1v-0.1L88,71
				l0,0l0,0c0,0-0.1,0-0.1,0l-0.2-0.1l0.1-0.1l0.2,0.1l0,0l0,0l0,0v-0.3h0.1v0.3c0,0,0,0,0,0.1l0,0l0,0l0.2-0.1l0.1,0.1l-0.2,0.1
				l0,0l0,0h0.1L88.4,71.2z"/>
			<path class="st4" d="M89.9,71.2l-0.1,0.1l-0.2-0.1l0,0l0,0c0,0,0,0.1,0,0.1v0.3h-0.1v-0.3c0,0,0,0,0-0.1l0,0l0,0l-0.2,0.1
				l-0.1-0.1l0.2-0.1h0.1l0,0c0,0-0.1,0-0.1,0l-0.2-0.1l0.1-0.1l0.2,0.1l0,0l0,0l0,0v-0.3h0.1v0.3l0,0c0,0,0,0,0,0.1l0,0l0,0
				l0.2-0.1l0.1,0.1L89.7,71l0,0l0,0h0.1L89.9,71.2z"/>
			<path class="st4" d="M92.8,71.2l-0.1,0.1l-0.2-0.1l0,0l0,0c0,0,0,0.1,0,0.1v0.3h-0.2v-0.3c0,0,0,0,0-0.1l0,0l0,0l-0.2,0.1
				l-0.1-0.1l0.2-0.1l0,0l0,0c0,0-0.1,0-0.1,0L92,70.9l0.1-0.1l0.2,0.1l0,0l0,0l0,0c0,0,0,0,0-0.1v-0.3h0.1v0.3c0,0,0,0,0,0.1l0,0
				l0,0l0.2-0.1l0.1,0.1l-0.2,0.1l0,0l0,0c0,0,0.1,0,0.1,0L92.8,71.2z"/>
			<path class="st4" d="M95.8,71.2l-0.1,0.1l-0.2-0.1l0,0l0,0c0,0,0,0.1,0,0.1v0.3h-0.1v-0.3c0,0,0,0,0-0.1l0,0l0,0l-0.2,0.1
				L95,71.2l0.2-0.1l0,0l0,0c0,0-0.1,0-0.1,0L95,70.8l0.1-0.1l0.2,0.1l0,0l0,0l0,0v-0.3h0.1v0.3l0,0c0,0,0,0,0,0.1l0,0l0,0l0.2-0.1
				l0.1,0.1l-0.2,0.1l0,0l0,0h0.1L95.8,71.2z"/>
			<path class="st4" d="M98.7,71.2l-0.1,0.1l-0.2-0.1l0,0l0,0c0,0,0,0.1,0,0.1v0.3h-0.1v-0.3c0,0,0,0,0-0.1l0,0l0,0l-0.2,0.1
				L98,71.2l0.2-0.1l0,0l0,0c0,0-0.1,0-0.1,0L98,70.8v-0.1l0.2,0.1l0,0l0,0l0,0c0,0,0,0,0-0.1v-0.3h0.1v0.3c0,0,0,0,0,0.1l0,0l0,0
				l0.2-0.1l0.1,0.1L98.5,71l0,0l0,0c0,0,0.1,0,0.1,0L98.7,71.2z"/>
			<rect x="49.3" y="70.3" class="st4" width="21.8" height="1.5"/>
			<rect x="102.2" y="70.3" class="st3" width="6.5" height="1.5"/>
			<path class="st4" d="M81.1,74.6l-0.1,0.1l-0.2-0.1l0,0l0,0c0,0,0,0.1,0,0.1v0.3h-0.1v-0.3v-0.1l0,0l0,0l-0.2,0.1l-0.1-0.1
				l0.2-0.1l0,0l0,0h-0.1l-0.2-0.1l0.1-0.1l0.2,0.1l0,0l0,0l0,0l0,0V74h0.1v0.3l0,0l0,0l0,0l0.2-0.1l0.1,0.1l-0.2,0.1h-0.1l0,0
				c0,0,0.1,0,0.1,0L81.1,74.6z"/>
			<path class="st4" d="M82.6,74.6v0.1l-0.2-0.1l0,0l0,0c0,0,0,0.1,0,0.1v0.3h-0.1v-0.3c0,0,0,0,0-0.1l0,0l0,0L82,74.7v-0.1l0.2-0.1
				l0,0l0,0c0,0-0.1,0-0.1,0l-0.2-0.1l0.1-0.1l0.2,0.1l0,0l0,0l0,0V74h0.1v0.3l0,0l0,0l0,0l0.2-0.1l0.1,0.1l-0.2,0.1l0,0l0,0
				c0,0,0.1,0,0.1,0L82.6,74.6z"/>
			<path class="st4" d="M84,74.6l-0.1,0.1l-0.2-0.1l0,0l0,0c0,0,0,0.1,0,0.1v0.3h-0.1v-0.3c0,0,0,0,0-0.1l0,0l0,0l-0.2,0.1l-0.1-0.1
				l0.2-0.1l0,0l0,0h-0.1l-0.2-0.1l0.1-0.1l0.2,0.1l0,0l0,0l0,0V74h0.1v0.3c0,0,0,0,0,0.1l0,0l0,0l0,0l0.2-0.1l0.1,0.1l-0.2,0.1l0,0
				h-0.1c0,0,0.1,0,0.1,0L84,74.6z"/>
			<path class="st4" d="M85.5,74.6l-0.1,0.1l-0.2-0.1l0,0l0,0c0,0,0,0.1,0,0.1v0.3h-0.1v-0.3l0,0c0,0,0,0,0-0.1l0,0l0,0l-0.2,0.1
				l-0.1-0.1l0.2-0.1l0,0H85h-0.1l-0.2-0.1l0.1-0.1l0.2,0.1l0,0l0,0l0,0l0,0V74h0.1v0.3l0,0l0,0l0,0l0.2-0.1l0.1,0.1l-0.2,0.1l0,0
				h-0.1c0,0,0.1,0,0.1,0L85.5,74.6z"/>
			<path class="st4" d="M88.4,74.6v0.1l-0.2-0.1l0,0l0,0c0,0,0,0.1,0,0.1v0.3H88v-0.3c0,0,0,0,0-0.1s0,0,0,0l0,0l-0.2,0.1v-0.1
				l0.2-0.1l0,0l0,0c0,0-0.1,0-0.1,0l-0.2-0.1l0.1-0.1l0.2,0.1l0,0l0,0l0,0V74h0.1v0.3l0,0l0,0l0,0l0.2-0.1l0.1,0.1l-0.2,0.1l0,0
				l0,0c0,0,0.1,0,0.1,0L88.4,74.6z"/>
			<path class="st4" d="M89.9,74.6l-0.1,0.1l-0.2-0.1l0,0l0,0c0,0,0,0.1,0,0.1v0.3h-0.1v-0.3c0,0,0,0,0-0.1l0,0l0,0l-0.2,0.1
				l-0.1-0.1l0.2-0.1h0.1l0,0h-0.1l-0.2-0.1l0.1-0.1l0.2,0.1l0,0l0,0l0,0V74h0.1v0.3c0,0,0,0,0,0.1l0,0l0,0l0,0l0.2-0.1l0.1,0.1
				l-0.2,0.1l0,0l0,0c0,0,0.1,0,0.1,0L89.9,74.6z"/>
			<path class="st4" d="M91.4,74.6l-0.1,0.1l-0.2-0.1l0,0l0,0c0,0,0,0.1,0,0.1v0.3H91v-0.3l0,0c0,0,0,0,0-0.1l0,0l0,0l-0.2,0.1
				l-0.1-0.1l0.2-0.1l0,0l0,0h-0.1l-0.2-0.1l0.1-0.1l0.2,0.1l0,0l0,0l0,0l0,0V74H91v0.3l0,0l0,0l0,0l0.2-0.1l0.1,0.1l-0.2,0.1l0,0
				l0,0c0,0,0.1,0,0.1,0L91.4,74.6z"/>
			<path class="st4" d="M94.3,74.6v0.1L94,74.6l0,0l0,0c0,0,0,0.1,0,0.1v0.3h-0.1v-0.3c0,0,0,0,0-0.1s0,0,0,0l0,0l-0.2,0.1l-0.1-0.1
				l0.2-0.1l0,0l0,0c0,0-0.1,0-0.1,0l-0.2-0.1l0.1-0.1l0.2,0.1l0,0l0,0l0,0V74H94v0.3c0,0,0,0,0,0.1l0,0l0,0l0,0l0.2-0.1l0.1,0.1
				l-0.2,0.1l0,0l0,0c0,0,0.1,0,0.1,0L94.3,74.6z"/>
			<path class="st4" d="M95.8,74.6l-0.1,0.1l-0.2-0.1l0,0l0,0c0,0,0,0.1,0,0.1v0.3h-0.1v-0.3c0,0,0,0,0-0.1l0,0l0,0l-0.2,0.1
				L95,74.6l0.2-0.1l0,0l0,0h-0.1L95,74.2l0.1-0.1l0.2,0.1l0,0l0,0l0,0V74h0.1v0.3c0,0,0,0,0,0.1l0,0l0,0l0,0l0.2-0.1l0.1,0.1
				l-0.2,0.1l0,0l0,0c0,0,0.1,0,0.1,0L95.8,74.6z"/>
			<path class="st4" d="M97.2,74.6l-0.1,0.1L97,74.6l0,0l0,0c0,0,0,0.1,0,0.1v0.3h-0.2v-0.3l0,0c0,0,0,0,0-0.1l0,0l0,0l-0.2,0.1
				l-0.1-0.1l0.2-0.1l0,0l0,0h-0.1l-0.2-0.1l0.1-0.1l0.2,0.1l0,0l0,0l0,0l0,0V74h0.1v0.3l0,0l0,0l0,0l0.2-0.1l0.1,0.1l-0.2,0.1l0,0
				l0,0c0,0,0.1,0,0.1,0L97.2,74.6z"/>
			<path class="st4" d="M98.7,74.6l-0.1,0.1l-0.2-0.1l0,0l0,0c0,0,0,0.1,0,0.1v0.3h-0.1v-0.3v-0.1l0,0l0,0l-0.2,0.1L98,74.6l0.2-0.1
				l0,0l0,0h-0.1L98,74.2v-0.1l0.2,0.1l0,0l0,0l0,0l0,0V74h0.1v0.3l0,0l0,0l0,0l0.2-0.1l0.1,0.1l-0.2,0.1l0,0l0,0c0,0,0.1,0,0.1,0
				L98.7,74.6z"/>
			<rect x="49.3" y="73.7" class="st4" width="13.6" height="1.5"/>
			<rect x="102.2" y="73.7" class="st3" width="6.5" height="1.5"/>
			<line class="st5" x1="49.3" y1="41.6" x2="49.5" y2="41.6"/>
			<line class="st6" x1="55.8" y1="41.6" x2="105.4" y2="41.6"/>
			<line class="st5" x1="108.6" y1="41.6" x2="108.7" y2="41.6"/>
			<line class="st5" x1="49.3" y1="79.3" x2="49.5" y2="79.3"/>
			<line class="st6" x1="55.8" y1="79.3" x2="105.4" y2="79.3"/>
			<line class="st5" x1="108.6" y1="79.3" x2="108.7" y2="79.3"/>
			<line class="st5" x1="49.3" y1="100.5" x2="49.5" y2="100.5"/>
			<line class="st6" x1="55.8" y1="100.5" x2="105.4" y2="100.5"/>
			<line class="st5" x1="108.6" y1="100.5" x2="108.7" y2="100.5"/>
			<path class="st1" d="M129,10h-0.4c-5.1,0-8.7,4.1-8.7,9.1l-0.3,9.3h-2v-9.3c-0.3-4.8,3.4-9,8.3-9.3c0.2,0,0.4,0,0.6,0
				c0.7,0,2.2,0.1,2.2,0.1"/>
		</g>
	</g>
</g>
</svg>
