<svg id="Capa_1" data-name="Capa 1" xmlns="http://www.w3.org/2000/svg" viewBox="0 0 154.5 154"><g id="Capa_8" data-name="Capa 8"><path d="M29.12,130.87A67.92,67.92,0,0,1,3.86,54.15,64.5,64.5,0,0,1,47.08,11.72l2.26,7.75A57.1,57.1,0,0,0,11.09,56.74a59.18,59.18,0,0,0,3.14,44.9,58.28,58.28,0,0,0,33.33,29.84L45.08,139A63.85,63.85,0,0,1,29.12,130.87Z" style="fill:#f7c90d"/></g><g id="Capa_9" data-name="Capa 9"><path d="M143.35,39.35a3,3,0,0,0-2.18.84l-55.7,55.7,0,0,0,.08a.3.3,0,0,0,0,.13S78,113.31,79.23,114.51s18.52-6.08,18.52-6.08L153.58,52.6C157.37,48.8,148.53,39.35,143.35,39.35Zm8.12,11.14L97.74,104.22,89.54,96c9.83-9.82,50.73-50.73,53.66-53.67a.27.27,0,0,1,.15,0c2.09,0,6.51,3.51,7.87,6.77C151.56,49.91,151.54,50.41,151.47,50.49Z" style="fill:#5c7c26"/><path d="M136.91,73.4v43.38h-20.8v19.11l-.28.26H53.45V17.85h83.46V41.36l8.94-9v-19a4.47,4.47,0,0,0-4.47-4.47H49a4.47,4.47,0,0,0-4.47,4.47V140.62A4.47,4.47,0,0,0,49,145.09h68.55a4.49,4.49,0,0,0,3-1.14l23.84-21.33a4.47,4.47,0,0,0,1.49-3.33V64.47Z" style="fill:#5c7c26"/><path d="M100.16,95.1a1.12,1.12,0,0,1-.79-.33,1.11,1.11,0,0,1,0-1.58l49.55-49.55a1.12,1.12,0,0,1,1.58,1.58L101,94.77A1.15,1.15,0,0,1,100.16,95.1Z" style="fill:#5c7c26"/></g></svg>