<svg id="Capa_1" data-name="Capa 1" xmlns="http://www.w3.org/2000/svg" viewBox="0 0 154.5 154"><g id="Capa_4" data-name="Capa 4"><path d="M60.82,135.86A60.82,60.82,0,1,1,121.64,75,60.88,60.88,0,0,1,60.82,135.86Zm0-114.65A53.83,53.83,0,1,0,114.65,75,54.09,54.09,0,0,0,60.82,21.21Z" style="fill:#f7c90d"/><rect x="87.3" y="10.88" width="10.88" height="25.64" style="fill:#5c7c26"/><path d="M98.18,36.15V10.88H92.74V35.63A29.59,29.59,0,0,1,98.18,36.15Z" style="fill:#5c7c26"/><path d="M115.79,153.85H68.84a8.05,8.05,0,0,1-8-8.09V58.41a31.63,31.63,0,0,1,31.5-31.76h0a31.63,31.63,0,0,1,31.49,31.76v87.35A8.05,8.05,0,0,1,115.79,153.85Z" style="fill:#5c7c26"/><path d="M118.25,65.15a29.51,29.51,0,0,0-24.07-29H88.74v117.7h22a7.52,7.52,0,0,0,7.51-7.52Z" style="fill:#5c7c26"/><path d="M141.62,22.44l-40.15-12L103,5.26l35.13,10.47a5.23,5.23,0,0,1,3.53,6.51Z" style="fill:#5c7c26"/><rect x="85.73" y="30.74" width="14.01" height="5.44" style="fill:#5c7c26"/><path d="M79.34,5.44h0a5.44,5.44,0,0,0,5.44,5.44h1v5.44h14V10.88h.66a17.5,17.5,0,0,0,8.46-2.18h0a17.46,17.46,0,0,1,8.45-2.18h21.33A6.53,6.53,0,0,0,145.17,0H84.78A5.44,5.44,0,0,0,79.34,5.44Z" style="fill:#5c7c26"/><path d="M49.77,77H44.33V67.32A46.11,46.11,0,0,1,90.44,21.21h5.3v5.44H89.21A39.44,39.44,0,0,0,49.77,66.1Z" style="fill:#5c7c26"/><polygon points="60.38 106.91 33.17 106.91 41.88 76.98 51.67 76.98 60.38 106.91" style="fill:#5c7c26"/><rect x="59.22" y="68.16" width="59.03" height="2.83" style="fill:#fff"/><rect x="59.22" y="77.87" width="59.03" height="2.83" style="fill:#fff"/><polygon points="51.67 76.98 46.78 76.98 46.78 106.91 60.38 106.91 51.67 76.98" style="fill:#5c7c26"/></g></svg>