<?xml version="1.0" encoding="utf-8"?>
<!-- Generator: Adobe Illustrator 25.2.3, SVG Export Plug-In . SVG Version: 6.00 Build 0)  -->
<svg version="1.1" id="Capa_1" xmlns="http://www.w3.org/2000/svg" xmlns:xlink="http://www.w3.org/1999/xlink" x="0px" y="0px"
	 viewBox="0 0 154.5 154" style="enable-background:new 0 0 154.5 154;" xml:space="preserve">
<style type="text/css">
	.st0{fill:#F7C90D;}
	.st1{fill:#FFFFFF;}
	.st2{fill:none;stroke:#7A7A7A;stroke-width:4;stroke-linecap:round;stroke-linejoin:round;stroke-miterlimit:10;}
	.st3{fill:#5C7C26;stroke:#7A7A7A;stroke-width:1.9332;stroke-linecap:round;stroke-linejoin:round;stroke-miterlimit:10;}
	.st4{fill:none;stroke:#7A7A7A;stroke-width:1.9332;stroke-linecap:round;stroke-linejoin:round;stroke-miterlimit:10;}
	.st5{fill:#7A7A7A;}
	.st6{fill:#5C7C26;}
</style>
<g>
	<g id="Capa_3">
		<path class="st0" d="M29.3,135.7c-2.8,1.6-11.4-8.2-15.3-13.3c-0.9-1.1-4.3-5.5-6.7-10.3C-5,88.4,2.8,63.5,2.8,63.5
			C12,34,39.7,23.5,42.8,22.4l2.3,7.3c-17,5.5-30.3,19-35.4,36.1c-0.5,1.8-6.6,22.1,3.9,42.5c1,1.9,2.6,5,5.4,8.6
			c0,0,2,2.5,10.3,10.3l0,0C30.8,133.4,30.2,135.2,29.3,135.7z"/>
	</g>
	<g>
		<rect x="29.3" y="22.9" class="st1" width="122" height="120"/>
		<g>
			<rect x="29.3" y="22.9" class="st2" width="122" height="120"/>
			<rect x="29.3" y="22.9" class="st3" width="122" height="31.7"/>
			<line class="st4" x1="29.3" y1="54.7" x2="151.3" y2="54.7"/>
			<line class="st4" x1="29.3" y1="84" x2="151.3" y2="84"/>
			<line class="st4" x1="29.3" y1="114.6" x2="151.3" y2="114.6"/>
			<line class="st4" x1="120.4" y1="54.7" x2="120.4" y2="142.9"/>
			<line class="st4" x1="89.4" y1="54.7" x2="89.4" y2="142.9"/>
			<line class="st4" x1="58.5" y1="54.7" x2="58.5" y2="142.9"/>
			<line class="st4" x1="53.5" y1="30.4" x2="53.5" y2="15.4"/>
			<line class="st4" x1="78.1" y1="30.4" x2="78.1" y2="15.4"/>
			<line class="st4" x1="102.4" y1="30.4" x2="102.4" y2="15.4"/>
			<line class="st4" x1="126.3" y1="30.4" x2="126.3" y2="15.4"/>
			<g>
				<path class="st1" d="M120.4,30c-11.3,0-20.4,9.1-20.4,20.4c0,2.5,0.5,4.9,1.3,7.2l0,0l-1.3,19l15.8-6.3l0,0
					c1.5,0.3,3,0.5,4.6,0.5c11.3,0,20.4-9.1,20.4-20.4C140.8,39.1,131.7,30,120.4,30z"/>
				<path class="st5" d="M100,77.2c-0.1,0-0.3,0-0.4-0.1c-0.2-0.1-0.3-0.3-0.3-0.6l1.3-18.9c-0.9-2.3-1.3-4.8-1.3-7.2
					c0-11.6,9.4-21,21-21s21,9.4,21,21c0,11.6-9.4,21-21,21c-1.5,0-3-0.2-4.5-0.5l-15.7,6.2C100.2,77.2,100.1,77.2,100,77.2z
					 M101.9,57.8l-1.2,17.8l14.8-5.9c0.1-0.1,0.3-0.1,0.5-0.1c1.5,0.3,3,0.5,4.4,0.5c10.9,0,19.7-8.9,19.7-19.7
					c0-10.9-8.9-19.7-19.7-19.7s-19.7,8.9-19.7,19.7c0,2.4,0.4,4.7,1.3,7C102,57.5,102,57.7,101.9,57.8z"/>
			</g>
			<g>
				<g>
					<rect x="109.3" y="52.6" class="st6" width="4.3" height="10.1"/>
					<path class="st5" d="M113.6,63.3h-4.3c-0.4,0-0.6-0.3-0.6-0.6V52.6c0-0.4,0.3-0.6,0.6-0.6h4.3c0.4,0,0.6,0.3,0.6,0.6v10.1
						C114.3,63.1,114,63.3,113.6,63.3z M109.9,62.1h3.1v-8.8h-3.1V62.1z"/>
				</g>
				<g>
					<rect x="111.1" y="46.3" class="st6" width="4.1" height="7.4"/>
					<path class="st5" d="M115.2,54.4h-4.1c-0.4,0-0.6-0.3-0.6-0.6v-7.4c0-0.4,0.3-0.6,0.6-0.6h4.1c0.4,0,0.6,0.3,0.6,0.6v7.4
						C115.8,54.1,115.5,54.4,115.2,54.4z M111.7,53.1h2.8v-6.1h-2.8V53.1z"/>
				</g>
				<g>
					<polygon class="st6" points="115.2,46.3 115.2,50 115.2,53.7 129.8,60 129.8,50 129.8,40 					"/>
					<path class="st5" d="M129.8,60.7c-0.1,0-0.2,0-0.3-0.1l-14.6-6.3c-0.2-0.1-0.4-0.3-0.4-0.6v-7.4c0-0.3,0.2-0.5,0.4-0.6
						l14.6-6.3c0.2-0.1,0.4-0.1,0.6,0.1c0.2,0.1,0.3,0.3,0.3,0.5V60c0,0.2-0.1,0.4-0.3,0.5C130,60.6,129.9,60.7,129.8,60.7z
						 M115.8,53.3l13.3,5.8V40.9l-13.3,5.8V53.3z"/>
				</g>
				<g>
					<path class="st6" d="M111.1,46.3c-4.6,0-4.9,7.4,0,7.4C111.1,52.2,111.1,46.3,111.1,46.3z"/>
					<path class="st5" d="M111.1,54.4c-1.3,0-2.4-0.5-3.2-1.4c-0.7-0.8-1-1.8-1-2.9c0-2.2,1.4-4.4,4.2-4.4c0.4,0,0.6,0.3,0.6,0.6
						v7.4C111.7,54.1,111.4,54.4,111.1,54.4z M110.4,47c-1.6,0.3-2.3,1.7-2.3,3.1c0,0.8,0.3,1.5,0.7,2.1c0.4,0.5,0.9,0.7,1.6,0.9V47
						z"/>
				</g>
			</g>
		</g>
		<path class="st3" d="M79.3,98.8c0,3.1-2.5,5.6-5.6,5.6s-5.6-2.5-5.6-5.6s2.5-5.6,5.6-5.6S79.3,95.7,79.3,98.8z"/>
		<path class="st3" d="M110.4,127.7c0,3.1-2.5,5.6-5.6,5.6s-5.6-2.5-5.6-5.6c0-3.1,2.5-5.6,5.6-5.6S110.4,124.6,110.4,127.7z"/>
		<path class="st3" d="M141.2,97.3c0,3.1-2.5,5.6-5.6,5.6c-3.1,0-5.6-2.5-5.6-5.6s2.5-5.6,5.6-5.6C138.7,91.7,141.2,94.2,141.2,97.3
			z"/>
	</g>
</g>
</svg>
