<svg id="Capa_4" data-name="Capa 4" xmlns="http://www.w3.org/2000/svg" viewBox="0 0 154.5 154"><g id="Capa_7" data-name="Capa 7"><path d="M35,124.83a4.75,4.75,0,0,1,.57-.06,27.13,27.13,0,0,1,3.86.24c-.95-.49-1.88-1-2.79-1.55A4.4,4.4,0,0,1,35,124.83Z" style="fill:#f7c90d"/><path d="M4.91,49.3h0a66,66,0,0,0,26,79.54,4.81,4.81,0,0,1,2.61-3.58,6.13,6.13,0,0,1-.62,0c-4.36,0-5.76-4.58-4.22-7.54A58.43,58.43,0,0,1,83.75,17.35a4.42,4.42,0,0,1,2.68-1.86,4.64,4.64,0,0,1,1.86-.92,5.64,5.64,0,0,1,2.09-3A66.07,66.07,0,0,0,4.91,49.3Z" style="fill:#f7c90d"/></g><path d="M32.07,91.35c0-5.1,0-10.2,0-15.3a10.35,10.35,0,0,1,3.79-8.34,10.75,10.75,0,0,1,7.28-2.42c4.63,0,9.25,0,13.87,0h2.61c-.08-1.62-.15-3.11-.21-4.6A17.41,17.41,0,0,1,74.48,42.38c2-.29,3.79-.39,5.1,1.75.58-.93,1-1.59,1.4-2.24.8-1.27.66-2.18-.6-3.23a11.4,11.4,0,0,1-4.19-8.24,59.15,59.15,0,0,1,0-8.93,13.27,13.27,0,0,1,26.38.12,59,59,0,0,1,0,9.11,11.79,11.79,0,0,1-3.68,7.56c-2,2-2.07,2.19-.48,4.67.2.3.43.58.78,1,1.76-2.52,4.19-1.85,6.49-1.36a17.32,17.32,0,0,1,13.72,17.79c-.06,1.51-.16,3-.26,4.75.72,0,1.36.11,2,.11,4.74,0,9.49,0,14.23,0,7.12,0,11.33,4.3,11.35,11.4q0,7.11,0,14.23a1.5,1.5,0,0,0,.09.35c.1.07.19.18.29.2,5.88,1.12,8,3.63,8,9.58q0,9.41,0,18.8c0,5.5-3.26,8.77-8.72,8.77-6.57,0-13.15,0-19.72,0-5.27,0-8.56-3.23-8.6-8.51q-.09-10.12,0-20.26c0-4.77,3.17-8.09,7.93-8.25,4.43-.14,8.88,0,13.32-.06h2.2c0-.71.09-1.29.09-1.87,0-4.57,0-9.13,0-13.69,0-3-1.81-5.36-4.57-5.45-6-.2-12-.07-18.26-.07-.2,3-.38,6-.59,8.93-.31,4.3-2.68,7.41-6.55,8.48a11.13,11.13,0,0,1-2.88.34c-4.87,0-9.74,0-14.61,0H92.05V99.54c2.35,0,4.64,0,6.93,0,5.71,0,8.92,3.22,9,8.95q0,9.77,0,19.53c0,5.32-3.36,8.6-8.73,8.61H79.49c-5.33,0-8.63-3.33-8.65-8.68q0-9.78,0-19.54c0-5.62,3.25-8.83,8.83-8.86,2.3,0,4.61,0,7.16,0V88.33c-.8,0-1.45-.09-2.1-.09-4.92,0-9.85,0-14.78,0-5.34,0-8.92-3.39-9.33-8.73-.2-2.55-.38-5.1-.47-7.65,0-1.1-.42-1.46-1.52-1.45-5.36.05-10.71,0-16.06,0a5.24,5.24,0,0,0-5.35,4.74,11.92,11.92,0,0,0,0,1.46v14.8c.74,0,1.38.12,2,.12,4.13,0,8.27,0,12.41,0,6,0,9.12,3.16,9.12,9.13q0,9.5,0,19c0,5.76-3.19,9-8.9,9H32.3c-5.34,0-8.62-3.3-8.63-8.68q0-9.76,0-19.53c0-5.12,2.44-8,7.54-8.85A8.42,8.42,0,0,0,32.07,91.35Zm74.32-8.47c4.24.74,6.4-.42,6.63-3.54.48-6.49,1-13,1.24-19.49a12.12,12.12,0,0,0-9.51-12.22,2.38,2.38,0,0,0-2.7.83c-1.65,1.95-3.39,3.83-5.13,5.69-4.44,4.73-10.64,4.72-15.08,0-1.74-1.86-3.49-3.73-5.13-5.68a2.37,2.37,0,0,0-2.7-.83A12.28,12.28,0,0,0,64.5,60.24c.31,6,.77,11.9,1.14,17.85.27,4.28,2.11,5.66,6.59,4.8,0-.64,0-1.29,0-1.94Q71.6,72.58,71,64.21c-.13-1.87.68-3.06,2.16-3.23s2.71.8,2.9,2.76c.28,2.84.44,5.7.66,8.55.28,3.56.58,7.12.87,10.75h23.64c.08-.79.17-1.5.22-2.22q.61-8.1,1.22-16.19c0-.36.06-.73.12-1.09.27-1.77,1.39-2.75,2.92-2.56s2.27,1.34,2.14,3.08C107.36,70.3,106.87,76.54,106.39,82.88Zm-64.3,40.65c3.41,0,6.81,0,10.21,0,2.18,0,3.31-1.1,3.32-3.25q0-10.12,0-20.24c0-2.31-1.07-3.35-3.37-3.36q-10,0-20.06,0c-2.3,0-3.38,1.07-3.4,3.34q0,10,0,20c0,2.39,1.08,3.43,3.47,3.45C35.53,123.55,38.81,123.53,42.09,123.53Zm47.29-18.89c-3.28,0-6.56,0-9.84,0-2.51,0-3.58,1.06-3.58,3.55q0,9.84,0,19.68c0,2.62,1,3.63,3.68,3.64q9.75,0,19.51,0c2.64,0,3.66-1,3.67-3.64q0-9.84,0-19.69c0-2.48-1.08-3.52-3.58-3.54C95.94,104.62,92.66,104.64,89.38,104.64ZM123.15,110h0v9.85c0,2.64,1,3.71,3.59,3.71q9.84,0,19.69,0c2.52,0,3.56-1,3.57-3.53q0-9.94,0-19.88c0-2.39-1.06-3.43-3.49-3.44q-9.93,0-19.87,0c-2.42,0-3.45,1-3.47,3.45C123.12,103.4,123.15,106.68,123.15,110ZM81.2,26h0c0,1.15-.08,2.31,0,3.46a8.22,8.22,0,0,0,16.41,0,51,51,0,0,0,0-7.1,8.19,8.19,0,0,0-16.32,0C81.1,23.54,81.2,24.76,81.2,26Zm2.15,22c3.8,6.08,8,6.1,12.07,0a45.07,45.07,0,0,0-2.81-5.08c-1.36-1.85-3.5-.11-5.22-.73-.3-.11-1,.31-1.22.67C85.18,44.48,84.3,46.2,83.35,48Z" style="fill:#5c7c26"/><path d="M39.34,111.83c2.22-2.85,4.27-5.46,6.32-8.08.3-.39.57-.79.9-1.15,1.14-1.25,2.56-1.46,3.7-.56a2.52,2.52,0,0,1,.27,3.72c-2.5,3.29-5.05,6.53-7.59,9.78-.56.72-1.08,1.47-1.69,2.15-1.27,1.4-2.92,1.44-4.06,0-1.27-1.62-2.44-3.33-3.56-5.06a2.33,2.33,0,0,1,.7-3.5c1.34-.89,2.55-.49,3.52.71C38.3,110.39,38.71,111,39.34,111.83Z" style="fill:#5c7c26"/><path d="M86.53,119.81l6.38-8.15a15.59,15.59,0,0,1,1-1.28,2.52,2.52,0,0,1,3.94,3.15c-1.24,1.73-2.6,3.37-3.9,5-1.72,2.2-3.42,4.42-5.16,6.61s-3.37,2-5-.19c-1-1.38-2-2.76-2.92-4.18a2.58,2.58,0,0,1,.52-3.71c1.2-.84,2.59-.54,3.65.8C85.54,118.47,86,119,86.53,119.81Z" style="fill:#5c7c26"/><path d="M133.68,111.85l5.37-6.84c.64-.81,1.23-1.66,1.91-2.43,1.12-1.28,2.59-1.5,3.7-.51a2.42,2.42,0,0,1,.33,3.58c-3.11,4-6.22,8.09-9.41,12.08a2.44,2.44,0,0,1-4.06-.09c-1.23-1.58-2.37-3.24-3.46-4.92a2.54,2.54,0,1,1,4.2-2.85C132.67,110.39,133,111,133.68,111.85Z" style="fill:#5c7c26"/></svg>