<svg id="Capa_1" data-name="Capa 1" xmlns="http://www.w3.org/2000/svg" viewBox="0 0 154.5 154"><g id="Capa_7" data-name="Capa 7"><path d="M28.59,131.14C15.75,123.25,9.85,112.25,7.3,107.32A63.9,63.9,0,0,1,2.81,59,64.55,64.55,0,0,1,17.08,34,58.49,58.49,0,0,1,31.61,22.69a58.23,58.23,0,0,1,15.63-5.4,68,68,0,0,1,30.35,1L64.42,23.15A57.49,57.49,0,0,0,47.7,24.73,49.94,49.94,0,0,0,33,30.65a50.87,50.87,0,0,0-10,8.06A56.73,56.73,0,0,0,9.72,61.31a56.14,56.14,0,0,0,4.06,42.49,52.11,52.11,0,0,0,15.89,19,50.05,50.05,0,0,0,25.55,9.08l12.54,6.78C62.46,139.45,45.32,141.43,28.59,131.14Z" style="fill:#f7c90d"/><path d="M91.33,16.83A63.17,63.17,0,1,0,154.5,80,63.17,63.17,0,0,0,91.33,16.83ZM96.1,133.41v-4.25a4.77,4.77,0,0,0-9.54,0v4.25A53.71,53.71,0,0,1,37.91,84.62H42a4.77,4.77,0,0,0,0-9.54H37.93A53.72,53.72,0,0,1,86.56,26.59v3.95a4.77,4.77,0,0,0,9.54,0V26.59a53.72,53.72,0,0,1,48.63,48.49h-4.09a4.77,4.77,0,0,0,0,9.54h4.11A53.71,53.71,0,0,1,96.1,133.41Z" style="fill:#5c7c26"/><path d="M119.73,49.23,91.49,78.82h-.16a5,5,0,0,0-1,.1L66.66,61.05a3.58,3.58,0,0,0-4.3,5.72L86,84.62a5.36,5.36,0,0,0,10.7-.45c0-.14,0-.28,0-.42l28.24-29.59a3.58,3.58,0,1,0-5.18-4.93Z" style="fill:#5c7c26"/></g></svg>