<svg id="Capa_2" data-name="Capa 2" xmlns="http://www.w3.org/2000/svg" viewBox="0 0 154.5 154"><g id="Capa_7" data-name="Capa 7"><path d="M64.94,143.56a4.25,4.25,0,0,1-1.9,1.31c1.89.12,3.79.18,5.69.14a7.2,7.2,0,0,1-1.42-1.1A5,5,0,0,1,64.94,143.56Z" style="fill:#f7c90d"/><path d="M5.71,55.08a66,66,0,0,0,52.94,89.37c-2.58-1.63-2.88-5.63-.9-7.81a59.44,59.44,0,0,1-13.81-4.09A58.44,58.44,0,0,1,84.55,23.13a4.4,4.4,0,0,1,2.68-1.86,4.52,4.52,0,0,1,1.86-.92,5.6,5.6,0,0,1,2.09-3A66.06,66.06,0,0,0,5.71,55.08Z" style="fill:#f7c90d"/></g><g id="Capa_3" data-name="Capa 3"><path d="M87.34,96c0-2,0-4,0-6,0-.36-.45-.76-.79-1A29.16,29.16,0,0,1,75.15,71.37a2,2,0,0,0-1.26-1.12,8.12,8.12,0,0,1-5.7-7.42c0-1.39.49-2.19,1.54-2.17,1.23,0,1.59.8,1.65,1.93a4.29,4.29,0,0,0,3.17,4.25c0-.41,0-.81.08-1.2a1.51,1.51,0,0,1,1.62-1.54c1,0,1.46.65,1.57,1.6a52.27,52.27,0,0,0,.69,5.62,25.69,25.69,0,0,0,50.43-1.68,28.51,28.51,0,0,0,.3-3.45c0-1.08.27-2,1.51-2.08s1.71.85,1.73,2a5.23,5.23,0,0,0,.07.68,4.15,4.15,0,0,0,3.09-3.5c.05-.31,0-.65.09-1,.19-1,.7-1.65,1.78-1.55s1.43.87,1.45,1.86a7.75,7.75,0,0,1-5,7.21,3.42,3.42,0,0,0-2.49,2.9,27.87,27.87,0,0,1-10.68,16A2.3,2.3,0,0,0,119.76,91c.09,1.65,0,3.31,0,5.06,2,.17,3.93.26,5.83.5,13.42,1.74,24.89,13.36,26.08,26.88.52,5.83.25,11.72.33,17.59,0,1.2,0,2.4,0,3.6,0,1.72-.49,2.18-2.24,2.21H58c-2.73,0-3-.25-3-3,0-6.52-.15-13,.24-19.54.84-13.79,12.46-25.94,26.18-27.72C83.32,96.28,85.21,96.2,87.34,96Zm40.71,4.06V102c0,5.36,0,10.72,0,16.08,0,2.06-.47,2.51-2.54,2.51H81.44c-2,0-2.45-.45-2.45-2.44,0-5.41,0-10.81,0-16.22,0-.48,0-1-.09-1.76-2.08.88-3.92,1.7-5.78,2.44a1.82,1.82,0,0,0-1.23,2q.06,18.7,0,37.42v1.51H135.1V126.89c0-7.48,0-15,0-22.45,0-.48-.17-1.23-.49-1.39C132.54,102,130.43,101.15,128.05,100.09ZM82.18,117.23h42.55V99.63c-1.42-.09-2.76-.14-4.08-.28a4.18,4.18,0,0,0-3.35,1.18,21.31,21.31,0,0,1-26.85.51,7.26,7.26,0,0,0-5.81-1.59,7.56,7.56,0,0,1-1.25.12c-1,0-1.24.36-1.23,1.31,0,3.83,0,7.67,0,11.5ZM68.62,105.66c-.39.29-.66.45-.9.66a27.31,27.31,0,0,0-9.4,19.84c-.18,4.75,0,9.52,0,14.28v3.07H68.62Zm69.82-.09v38h10.22c0-.43.09-.79.09-1.14,0-5.22.09-10.44,0-15.66a30.11,30.11,0,0,0-.91-6.69A27.13,27.13,0,0,0,138.44,105.57Zm-21.91-14a29.2,29.2,0,0,1-26,0,40.56,40.56,0,0,0,0,4.16,3.35,3.35,0,0,0,.89,2,18.19,18.19,0,0,0,24.36-.13,2.26,2.26,0,0,0,.69-1.38C116.59,94.73,116.53,93.25,116.53,91.55Z" style="fill:#5c7c26"/><path d="M103.51,57.66q-15.6,0-31.18,0c-3.92,0-6.69-2.66-6.54-6.31a5.74,5.74,0,0,1,3.64-5.28,1.54,1.54,0,0,0,1.07-1.5c1.15-12.09,7.09-21,17.74-26.84a2.38,2.38,0,0,0,1.57-2.1,5.79,5.79,0,0,1,6-5.38q7.77-.09,15.52,0a6,6,0,0,1,6.08,5.81,1.86,1.86,0,0,0,.86,1.31c10.36,5.41,16.37,13.91,18.17,25.42a3.25,3.25,0,0,1,.08.69,2.64,2.64,0,0,0,1.77,3,5.74,5.74,0,0,1,2.81,6.74A6.08,6.08,0,0,1,135,57.66c-8,0-16.07,0-24.11,0Zm15.48-36c0,5.33,0,10.5,0,15.68,0,.46.14,1-.09,1.35-.39.53-1,1.22-1.54,1.22s-1.14-.7-1.55-1.22c-.21-.27-.08-.81-.08-1.22,0-5.5,0-11,0-16.5,0-.73,0-1.28-.89-1.61s-1.08-1.19-.88-2.2c.44-2.25-.74-3.71-3-3.73-5,0-9.89,0-14.83,0-2.3,0-3.44,1.54-3,3.79.22,1,0,1.81-1,2.17s-1,.93-.94,1.72c0,5.45,0,10.91,0,16.36,0,.46.1,1-.13,1.34-.37.5-1,1.15-1.49,1.1s-1.14-.7-1.56-1.22c-.21-.26-.07-.8-.07-1.21q0-7.21,0-14.42c0-.43,0-.86-.08-1.49-8.73,5.75-13.43,13.59-14.26,23.87h59.69C133.17,35.94,127,25.9,119,21.66Zm-15.5,27.11H76.74c-1.66,0-3.32,0-5,0a2.73,2.73,0,0,0-2.71,3.15c.18,1.64,1.36,2.47,3.55,2.47h61.8c.33,0,.65,0,1,0a2.84,2.84,0,0,0,2.69-2.82,2.8,2.8,0,0,0-2.7-2.78c-.46,0-.93,0-1.39,0Z" style="fill:#5c7c26"/><path d="M28.59,82.12c2,2,3.76,3.75,5.47,5.58a2.5,2.5,0,0,0,2.83.75c3.07-.9,6.16-1.73,9.26-2.53a2.17,2.17,0,0,0,1.73-1.71c.83-3.22,1.7-6.42,2.56-9.63a2.28,2.28,0,0,0-.7-2.48c-1.85-1.76-3.65-3.59-5.46-5.39l.22-.53a43.24,43.24,0,0,1,5.12,1A16.19,16.19,0,0,1,60.23,86.74a3.14,3.14,0,0,0,.67,3.17c3.21,3.78,6.36,7.63,9.55,11.44,1,1.14,2,1.34,2.68.55.89-1,.46-1.83-.27-2.69-2.91-3.44-5.79-6.91-8.7-10.35a2.46,2.46,0,0,1-.59-2.37c2.76-13.47-9-25.57-22.4-23a2.89,2.89,0,0,0-1.94,1.35c-.19.51.39,1.53.89,2.07,2.08,2.21,4.23,4.35,6.39,6.48a1.57,1.57,0,0,1,.5,1.81c-.67,2.25-1.16,4.56-1.84,6.81A2.1,2.1,0,0,1,44,83.19c-2.27.7-4.57,1.31-6.88,1.85a1.89,1.89,0,0,1-1.5-.42c-2.22-2.14-4.33-4.4-6.56-6.52-.53-.51-1.54-1.09-2.05-.89a2.93,2.93,0,0,0-1.32,2c-2.65,13.31,9.5,25.39,22.71,22.58a2.57,2.57,0,0,1,2.48.62q4.78,4.16,9.68,8.19a2.74,2.74,0,0,0,1.93.66c1.31-.22,1.48-1.88.3-2.9-3.16-2.74-6.36-5.42-9.55-8.13l-.1-.08c-1.6-1.79-3.39-2-5.76-1.48C37.62,100.69,28.06,92.34,28.59,82.12Z" style="fill:#5c7c26"/><path d="M103.56,40a8.61,8.61,0,1,1,8.56-8.67A8.59,8.59,0,0,1,103.56,40Zm-5.41-8.54a5.38,5.38,0,1,0,5.28-5.42A5.31,5.31,0,0,0,98.15,31.47Z" style="fill:#5c7c26"/></g></svg>