<svg id="Capa_1" data-name="Capa 1" xmlns="http://www.w3.org/2000/svg" xmlns:xlink="http://www.w3.org/1999/xlink" viewBox="0 0 154.5 154"><defs><clipPath id="clip-path"><rect id="SVGID" x="67.9" y="102.06" width="49.86" height="49.86" rx="3.97" style="fill:none"/></clipPath><clipPath id="clip-path-2"><rect id="SVGID-2" data-name="SVGID" x="67.9" y="1.93" width="49.86" height="49.86" rx="3.97" style="fill:none"/></clipPath><clipPath id="clip-path-3"><path id="SVGID-3" data-name="SVGID" d="M139.75,51.2H74.12c-3.42,0-6.22,1.79-6.22,4V97.08c0,2.19,2.8,4,6.22,4h65.63c3.43,0,6.22-1.79,6.22-4V55.17C146,53,143.18,51.2,139.75,51.2Z" style="fill:#5c7c26"/></clipPath></defs><g id="Capa_8" data-name="Capa 8"><path d="M49.21,139.43c-15-9.69-21.61-22.72-24.71-29.09a76.32,76.32,0,0,1-3.89-57.81,73,73,0,0,1,49-48.06l2.56,8.78A64.68,64.68,0,0,0,28.79,55.46a67,67,0,0,0,3.57,50.86,61.07,61.07,0,0,0,17.17,22.12,58.32,58.32,0,0,0,25.09,11.4l10.55,10.07A66.9,66.9,0,0,1,49.21,139.43Z" style="fill:#f7c90d"/></g><g id="Capa_10" data-name="Capa 10"><path d="M139.75,52.2H74.12c-3.42,0-6.22,1.79-6.22,4V98.08c0,2.19,2.8,4,6.22,4h65.63c3.43,0,6.22-1.79,6.22-4V56.17C146,54,143.18,52.2,139.75,52.2Z" style="fill:#5c7c26"/><rect x="67.9" y="1.93" width="49.86" height="49.86" rx="3.97" style="fill:#5c7c26"/><g style="clip-path:url(#clip-path)"><rect x="67.9" y="102.06" width="49.86" height="49.86" rx="3.97" style="fill:#5c7c26"/><polygon points="85.04 121.07 83.44 121.07 83.44 113.4 80.96 113.4 80.96 111.8 85.04 111.8 85.04 121.07" style="fill:#fff"/><rect x="80.53" y="111.16" width="1.48" height="2.25" style="fill:#fff"/><polygon points="87.89 111.62 88.17 122.05 90.43 122.14 91.49 111.62 87.89 111.62" style="fill:#fff"/><path d="M47,138.43l51.41-1.34L98,133.57l-1.2-9.51a5.07,5.07,0,0,0-5.07-4.45l-11.58.08L77.56,108.5l-15.5-.09s-2.54,13.35-10.54,15.16c-4.65,1.05-4.35,6.27-4.64,10A23.81,23.81,0,0,0,47,138.43Z" style="fill:#fff"/><path d="M47,138.43l51.41-1.34L98,133.57H46.88A23.81,23.81,0,0,0,47,138.43Z" style="fill:#fff"/><polygon points="63.8 118.32 68.95 120.64 73.83 122.84 76.56 124.07 75.08 110.99 70.43 110.8 66.3 110.62 64.58 110.55 63.8 118.32" style="fill:#5c7c26"/><path d="M94.65,124.34h3.76a1.84,1.84,0,0,0-1.85-1.84H94.65Z" style="fill:#fff"/><rect x="86.47" y="122.5" width="1.48" height="6.61" transform="translate(174.41 251.6) rotate(180)" style="fill:#5c7c26"/><rect x="83.5" y="122.5" width="1.48" height="6.61" transform="translate(168.48 251.6) rotate(180)" style="fill:#5c7c26"/><rect x="80.53" y="122.5" width="1.48" height="6.61" transform="translate(162.55 251.6) rotate(180)" style="fill:#5c7c26"/><path d="M76.05,130.42a.75.75,0,1,0,.74-.75A.75.75,0,0,0,76.05,130.42Z" style="fill:#5c7c26"/><path d="M73.16,127.54a.75.75,0,0,0,.75.74.75.75,0,0,0,0-1.49A.75.75,0,0,0,73.16,127.54Z" style="fill:#5c7c26"/><path d="M66.37,142.59a14.51,14.51,0,0,0,.85-4.9v0h-1a13.32,13.32,0,0,0-.81-4.53l1-.35a14.4,14.4,0,0,0-2.5-4.28l-.78.66a13.23,13.23,0,0,0-3.54-3l.52-.89a14.37,14.37,0,0,0-4.67-1.68l-.17,1a14.07,14.07,0,0,0-2.26-.19,12.89,12.89,0,0,0-2.34.21l-.18-1a14.14,14.14,0,0,0-4.66,1.71l.52.88a13.4,13.4,0,0,0-3.52,3l-.78-.66a14.23,14.23,0,0,0-2.48,4.3l1,.35a13.14,13.14,0,0,0-.79,4.5v0h-1a14.17,14.17,0,0,0,.86,4.88l1-.35a13.39,13.39,0,0,0,2.31,4l-.78.66a14.31,14.31,0,0,0,3.8,3.18l.51-.89a13.22,13.22,0,0,0,4.33,1.57l-.18,1A14.53,14.53,0,0,0,53,152a13.89,13.89,0,0,0,2.49-.22l-.18-1a13.41,13.41,0,0,0,4.32-1.58l.51.89a14.38,14.38,0,0,0,3.8-3.19l-.79-.66a13.3,13.3,0,0,0,2.31-4Z" style="fill:#fff"/><circle cx="52.95" cy="137.7" r="9.65" transform="translate(-47.29 29.45) rotate(-21.77)" style="fill:#e07019"/><path d="M53,145.18a7.48,7.48,0,1,1,7.47-7.48A7.49,7.49,0,0,1,53,145.18Zm0-14.28a6.81,6.81,0,1,0,6.8,6.8A6.81,6.81,0,0,0,53,130.9Z" style="fill:#fff"/><path d="M58.31,137.7A5.37,5.37,0,1,1,53,132.34,5.36,5.36,0,0,1,58.31,137.7Z" style="fill:#fff"/><path d="M56.08,137.7A3.14,3.14,0,1,1,53,134.57,3.13,3.13,0,0,1,56.08,137.7Z" style="fill:#e07019"/><path d="M110.51,142.6a14.13,14.13,0,0,0,.85-4.84v0h-1a13.09,13.09,0,0,0-.81-4.49l.95-.35a14.07,14.07,0,0,0-2.47-4.23l-.77.65a13.49,13.49,0,0,0-3.5-2.92l.5-.88a14.06,14.06,0,0,0-4.62-1.66l-.17,1a13.37,13.37,0,0,0-4.55,0l-.18-1a13.84,13.84,0,0,0-4.61,1.69l.51.87a13.28,13.28,0,0,0-3.48,2.94l-.77-.65A13.9,13.9,0,0,0,83.93,133l.95.35a13.15,13.15,0,0,0-.78,4.46v0h-1a13.93,13.93,0,0,0,.86,4.83l1-.35a13,13,0,0,0,2.29,3.94l-.78.65A14,14,0,0,0,90.17,150l.51-.88A12.83,12.83,0,0,0,95,150.69l-.17,1a14.16,14.16,0,0,0,2.43.21,14.53,14.53,0,0,0,2.47-.21l-.18-1a13.07,13.07,0,0,0,4.28-1.56l.51.88a14.05,14.05,0,0,0,3.75-3.16l-.77-.65a13.23,13.23,0,0,0,2.28-3.94Z" style="fill:#fff"/><circle cx="97.22" cy="137.77" r="9.21" transform="translate(-67.11 175.56) rotate(-67.74)" style="fill:#5c7c26"/><path d="M97.22,145.17a7.4,7.4,0,1,1,7.4-7.4A7.41,7.41,0,0,1,97.22,145.17Zm0-14.13a6.73,6.73,0,1,0,6.74,6.73A6.74,6.74,0,0,0,97.22,131Z" style="fill:#fff"/><circle cx="97.22" cy="137.77" r="5.31" style="fill:#fff"/><path d="M100.33,137.77a3.11,3.11,0,1,1-3.11-3.11A3.11,3.11,0,0,1,100.33,137.77Z" style="fill:#5c7c26"/></g><g style="clip-path:url(#clip-path-2)"><rect x="86.19" y="12.22" width="1.49" height="11.97" transform="translate(128.96 96.46) rotate(-130.07)" style="fill:#fff"/><rect x="77.24" y="19.85" width="0.75" height="12.39" transform="translate(107.63 102.21) rotate(-130.07)" style="fill:#fff"/><rect x="112.22" y="10.24" width="1.49" height="14.22" transform="matrix(0.56, -0.83, 0.83, 0.56, 35.37, 101.26)" style="fill:#fff"/><rect x="102.77" y="5.96" width="0.75" height="9.5" transform="translate(36.54 90.19) rotate(-55.97)" style="fill:#fff"/><rect x="125.46" y="39.15" width="1.49" height="6.44" transform="translate(-6.45 53.53) rotate(-23.37)" style="fill:#fff"/><rect x="122.42" y="29.1" width="0.75" height="10.76" transform="matrix(0.92, -0.4, 0.4, 0.92, -3.6, 51.52)" style="fill:#fff"/><path d="M79.58,35.7,98.35,14.9l0-3.81a2.78,2.78,0,0,1,.68-1.8L99.35,9a1.49,1.49,0,0,0,.16-1.75h0a1.48,1.48,0,0,0-1.89-.56L91.84,9.42A3.34,3.34,0,0,0,90,11.89l-.88,5.49L76.79,33.5Z" style="fill:#fff"/><path d="M79.84,31.52l-4.26,1.2s-.33,2.49-.33,2.49-4.45.52-3.52,4.85,8,6.34,10.52,6.93l.86-1.17a8,8,0,0,1-2.94-10,11.73,11.73,0,0,1-.67-1.22c-.07-.25,1.45-1.93,1.45-1.93Z" style="fill:#fff"/><path d="M134.79,35.05s-1.72-5.91-2.69-6.39-13.87-9.06-13.87-9.06l-4.47-.24L98,12.06a1.31,1.31,0,0,0-1.66.5h0a1.31,1.31,0,0,0,.41,1.76l30.16,19.73,5,17.31Z" style="fill:#fff"/><polygon points="75.45 37.45 72.08 30.63 72.75 30.23 75.47 35.85 75.45 37.45" style="fill:#fff"/><rect x="72.87" y="30.64" width="7.88" height="0.69" transform="translate(9.99 -17.96) rotate(14.25)" style="fill:#fff"/><path d="M73.78,30.49A1.06,1.06,0,1,1,71.72,30a1.06,1.06,0,0,1,2.06.52Z" style="fill:#fff"/><path d="M73.34,30.38a.61.61,0,0,1-.74.44.61.61,0,1,1,.3-1.18A.61.61,0,0,1,73.34,30.38Z" style="fill:#5c7c26"/><path d="M81.5,32.18a1.07,1.07,0,0,1-1.31.78,1.08,1.08,0,1,1,1.31-.78Z" style="fill:#fff"/><path d="M81,32.05a.55.55,0,0,1-.67.39.55.55,0,1,1,.27-1.06A.56.56,0,0,1,81,32.05Z" style="fill:#fff"/><path d="M98.31,13.43a.59.59,0,0,1-1.15.25.6.6,0,0,1,.45-.7A.59.59,0,0,1,98.31,13.43Z" style="fill:#5c7c26"/><path d="M98.46,8a.69.69,0,0,1-.53.82.7.7,0,0,1-.83-.53.69.69,0,0,1,.53-.82A.7.7,0,0,1,98.46,8Z" style="fill:#5c7c26"/><path d="M127.82,32.25l1.45,6.56L133,35.54l-1.93-5.71L118,21.64a31,31,0,0,0-3.93-.16c-.38.15-6.14-2.74-6.14-2.74l-.46.57Z" style="fill:#fff"/><path d="M128.37,31.87,111.52,21.16a11.71,11.71,0,0,0,2.46.94,1.12,1.12,0,0,0,.27,0,7.11,7.11,0,0,1,1.24,0c.88,0,1.92.12,2.3.16l12.75,8L134,38.8l-1.6,9Z" style="fill:#5c7c26"/><path d="M80.17,35.82a11.73,11.73,0,0,1-.67-1.22l-1.37,1.63a6,6,0,0,0,.82,8.5A24.22,24.22,0,0,0,82.25,47l.86-1.17A8,8,0,0,1,80.17,35.82Z" style="fill:#fff"/><path d="M82.16,28.72l8-9.7,1-5.74a.61.61,0,0,1,1-.32l3.18,3.18L83.4,29.76a.8.8,0,0,1-1.16.06h0A.8.8,0,0,1,82.16,28.72Z" style="fill:#5c7c26"/></g><path id="SVGID-4" data-name="SVGID" d="M139.75,51.2H74.12c-3.42,0-6.22,1.79-6.22,4V97.08c0,2.19,2.8,4,6.22,4h65.63c3.43,0,6.22-1.79,6.22-4V55.17C146,53,143.18,51.2,139.75,51.2Z" style="fill:#5c7c26"/><g style="clip-path:url(#clip-path-3)"><path d="M108.28,65c-1.56-1.74-3.92-2.79-8-2.79H92.6a.89.89,0,0,0-.92.85V73.91a.89.89,0,0,0,.92.85h16.57a.86.86,0,0,0,.9-.85C110,71.84,109.72,66.59,108.28,65Z" style="fill:#fff"/><path d="M92.6,75.2h16.57a1.41,1.41,0,0,0,1-.38,1.18,1.18,0,0,0,.39-.92c-.07-2.73-.43-7.56-1.9-9.2h0c-1.8-2-4.47-2.94-8.38-2.94H92.6a1.35,1.35,0,0,0-1.4,1.29V73.92A1.35,1.35,0,0,0,92.6,75.2Zm7.67-12.55c3.61,0,6,.83,7.64,2.62h0c.93,1,1.56,4.26,1.68,8.65a.33.33,0,0,1-.11.28.43.43,0,0,1-.31.12H92.6a.42.42,0,0,1-.44-.4V63.05a.42.42,0,0,1,.44-.4Zm8,2.34Z" style="fill:#646464"/><polygon points="57.03 75.4 125.37 75.4 133.47 80.79 133.47 89.67 57.03 89.67 57.03 75.4" style="fill:#fff"/><path d="M57,90.11h76.44a.47.47,0,0,0,.48-.44V80.79a.43.43,0,0,0-.2-.35l-8.1-5.4a.54.54,0,0,0-.28-.08H57a.46.46,0,0,0-.48.44V89.67A.46.46,0,0,0,57,90.11Zm76-.88H57.51V75.84h67.7L133,81Z" style="fill:#5c7c26"/><path d="M120.42,72.35a5.49,5.49,0,0,1-2.77-1.85c-2.35-2.89-2.75-3.79-7.15-8.78-3-3.42-8.7-3.66-14.85-3.66h-38c-3.35,0-4.32,1.18-4.32,4.26V84.69c0,3.58-.54,6.26,4.53,6.26.35,0,1.54-.66,1.42-1a7.64,7.64,0,0,1-.47-2.66c0-4.64,4.07-8.4,9.1-8.4S77,82.65,77,87.29A7.76,7.76,0,0,1,76.08,91h38.43a7.87,7.87,0,0,1-.91-3.66c0-4.64,4.07-8.4,9.1-8.4s9.11,3.76,9.11,8.4a7.53,7.53,0,0,1-.41,2.47c-.13.41.64,1.19,1.13,1.19h2.86c2.16,0,2.92-2.09,2.92-4.23V81.6a4.47,4.47,0,0,0-2.9-4.57C134.63,76.66,124.38,73.66,120.42,72.35Z" style="fill:#fff"/><path d="M57.84,91.39a2.94,2.94,0,0,0,1.73-.93.67.67,0,0,0,.14-.65,7.47,7.47,0,0,1-.44-2.52c0-4.39,3.87-8,8.62-8s8.63,3.56,8.63,8a7.32,7.32,0,0,1-.87,3.47.42.42,0,0,0,0,.43.51.51,0,0,0,.4.2h38.43a.53.53,0,0,0,.41-.2.44.44,0,0,0,0-.43,7.43,7.43,0,0,1-.86-3.47c0-4.39,3.87-8,8.62-8s8.63,3.56,8.63,8a7.4,7.4,0,0,1-.38,2.34,1.1,1.1,0,0,0,.29,1,1.86,1.86,0,0,0,1.29.74h2.86c2.13,0,3.4-1.74,3.4-4.67V81.6a4.89,4.89,0,0,0-3.16-5c-.43-.21-3-1-7.14-2.25-3-.91-6.1-1.86-7.91-2.45h0A5.09,5.09,0,0,1,118,70.23c-.77-1-1.34-1.7-1.9-2.42-1.13-1.49-2.3-3-5.26-6.37-3.12-3.53-8.74-3.82-15.22-3.82h-38c-3.5,0-4.8,1.27-4.8,4.7V84.69c0,.32,0,.63,0,.94,0,1.93,0,3.6,1.09,4.67C54.71,91.05,56,91.39,57.84,91.39ZM58.76,90a2.54,2.54,0,0,1-.94.53,4.75,4.75,0,0,1-3.23-.83c-.86-.81-.84-2.23-.81-4,0-.31,0-.63,0-1V62.32c0-3,.86-3.82,3.84-3.82h38c6.23,0,11.62.27,14.47,3.5s4.1,4.85,5.23,6.32c.55.73,1.13,1.48,1.92,2.45a6,6,0,0,0,3,2c1.83.6,4.93,1.54,7.93,2.46,3.26,1,6.62,2,7,2.19a4,4,0,0,1,2.65,4.18v5.12c0,1.14-.24,3.79-2.44,3.79h-2.86c-.2,0-.66-.46-.66-.64a8.25,8.25,0,0,0,.42-2.58c0-4.87-4.3-8.84-9.59-8.84s-9.58,4-9.58,8.84a8.31,8.31,0,0,0,.65,3.22H76.82a8.1,8.1,0,0,0,.66-3.22c0-4.87-4.3-8.84-9.59-8.84s-9.58,4-9.58,8.84A8.21,8.21,0,0,0,58.76,90Z" style="fill:#5c7c26"/><path d="M76.33,88.81a.6.6,0,0,1,.58-.41h36.67a.58.58,0,0,1,.57.41l.59,2.09a.34.34,0,0,1-.35.41H76.09a.33.33,0,0,1-.34-.41Z" style="fill:#fff"/><path d="M76.09,91.75h38.3a.86.86,0,0,0,.66-.3.7.7,0,0,0,.15-.66l-.58-2.09a1.05,1.05,0,0,0-1-.74H76.91a1.05,1.05,0,0,0-1,.74h0l-.58,2.09a.69.69,0,0,0,.14.66A.86.86,0,0,0,76.09,91.75Zm38.14-.89h-38l.54-1.94a.11.11,0,0,1,.11-.08h36.67a.11.11,0,0,1,.11.08Z" style="fill:#5c7c26"/><path d="M129.49,87.29A6.87,6.87,0,1,1,122.65,81,6.58,6.58,0,0,1,129.49,87.29Z" style="fill:#fff"/><path d="M122.65,94c4,0,7.32-3,7.32-6.74a7.06,7.06,0,0,0-7.32-6.75c-4,0-7.33,3-7.33,6.75S118.61,94,122.65,94Zm0-12.6a5.88,5.88,0,1,1-6.37,5.86A6.13,6.13,0,0,1,122.65,81.43Z" style="fill:#5c7c26"/><path d="M128.09,87.29a5.47,5.47,0,1,1-5.44-5A5.24,5.24,0,0,1,128.09,87.29Z" style="fill:#fff"/><path d="M122.65,92.72a5.46,5.46,0,1,0-5.93-5.43A5.7,5.7,0,0,0,122.65,92.72Zm0-10a4.57,4.57,0,1,1-5,4.55A4.78,4.78,0,0,1,122.65,82.74Z" style="fill:#5c7c26"/><path d="M124.66,87.29a2,2,0,1,1-2-1.85A1.94,1.94,0,0,1,124.66,87.29Z" style="fill:#fff"/><path d="M122.65,89.58a2.3,2.3,0,1,0-2.5-2.29A2.4,2.4,0,0,0,122.65,89.58Zm0-3.7a1.41,1.41,0,1,1-1.54,1.41A1.48,1.48,0,0,1,122.65,85.88Z" style="fill:#5c7c26"/><path d="M74.78,87.29A6.87,6.87,0,1,1,67.93,81,6.59,6.59,0,0,1,74.78,87.29Z" style="fill:#fff"/><path d="M67.93,94c4,0,7.33-3,7.33-6.74S72,80.54,67.93,80.54a7.06,7.06,0,0,0-7.32,6.75C60.61,91,63.89,94,67.93,94Zm0-12.6a5.88,5.88,0,1,1-6.36,5.86A6.14,6.14,0,0,1,67.93,81.43Z" style="fill:#5c7c26"/><path d="M73.38,87.29a5.47,5.47,0,1,1-5.45-5A5.24,5.24,0,0,1,73.38,87.29Z" style="fill:#fff"/><path d="M67.93,92.72A5.45,5.45,0,1,0,62,87.29,5.71,5.71,0,0,0,67.93,92.72Zm0-10a4.57,4.57,0,1,1-5,4.55A4.78,4.78,0,0,1,67.93,82.74Z" style="fill:#5c7c26"/><path d="M70,87.29a2,2,0,1,1-2-1.85A1.94,1.94,0,0,1,70,87.29Z" style="fill:#fff"/><path d="M67.93,89.58a2.3,2.3,0,1,0-2.49-2.29A2.41,2.41,0,0,0,67.93,89.58Zm0-3.7a1.41,1.41,0,1,1-1.53,1.41A1.48,1.48,0,0,1,67.93,85.88Z" style="fill:#5c7c26"/><path d="M138.56,83.07H136a1.27,1.27,0,0,1-1.21-.81l-.56-1.56a.62.62,0,0,1,.64-.8h3.37Z" style="fill:#fff"/><path d="M136,83.51h2.56a.51.51,0,0,0,.36-.14A.45.45,0,0,0,139,83l-.32-3.17a.47.47,0,0,0-.48-.4h-3.37a1.18,1.18,0,0,0-.93.43,1,1,0,0,0-.16,1l.56,1.56A1.72,1.72,0,0,0,136,83.51Zm2-.88h-2a.79.79,0,0,1-.75-.5l-.56-1.57a.13.13,0,0,1,0-.15.16.16,0,0,1,.15-.07h2.93Z" style="fill:#5c7c26"/><path d="M54.84,72.86H53.06V83.2h1.78a.88.88,0,0,0,.92-.84V73.71A.89.89,0,0,0,54.84,72.86Z" style="fill:#fff"/><path d="M53.06,83.65h1.78a1.35,1.35,0,0,0,1.4-1.29V73.71a1.35,1.35,0,0,0-1.4-1.29H53.06a.46.46,0,0,0-.48.44V83.2A.46.46,0,0,0,53.06,83.65Zm1.78-10.34a.42.42,0,0,1,.44.4v8.65a.42.42,0,0,1-.44.4h-1.3V73.31Z" style="fill:#5c7c26"/><path d="M131.07,90.11c-.46,1.2,1.18.84,2,.84h3.88a1.68,1.68,0,0,0,1.68-1.24l1-4.17a1,1,0,0,0-1.08-1.24h-5.83c-.76,0-1.72.34-1.3,1.56A7.17,7.17,0,0,1,131.07,90.11Z" style="fill:#fff"/><path d="M132,91.44c.22,0,.44,0,.64,0l.43,0h3.88a2.18,2.18,0,0,0,2.15-1.58l1-4.18a1.39,1.39,0,0,0-.31-1.23,1.65,1.65,0,0,0-1.24-.54h-5.83a2,2,0,0,0-1.6.63,1.46,1.46,0,0,0-.15,1.5,6.84,6.84,0,0,1-.32,4A1,1,0,0,0,130.7,91,1.55,1.55,0,0,0,132,91.44Zm6.57-6.7A.67.67,0,0,1,139,85a.55.55,0,0,1,.12.49l-1,4.18a1.23,1.23,0,0,1-1.21.89H133l-.5,0a3,3,0,0,1-1.06,0,1.7,1.7,0,0,1,.06-.23h0a7.52,7.52,0,0,0,.33-4.53.79.79,0,0,1,0-.72,1.13,1.13,0,0,1,.83-.27Z" style="fill:#5c7c26"/><path d="M59.48,89.89c.37.94-.51,1.06-1.27,1.06H54.49a1.68,1.68,0,0,1-1.68-1.24l-1-4.17a1,1,0,0,1,1.08-1.24h5.34c.76,0,1.48.08,1,1.3A7,7,0,0,0,59.48,89.89Z" style="fill:#fff"/><path d="M54.49,91.39h3.72a2,2,0,0,0,1.65-.53,1.08,1.08,0,0,0,.07-1.12h0a6.58,6.58,0,0,1-.24-4,1.44,1.44,0,0,0,0-1.43,1.76,1.76,0,0,0-1.44-.46H52.87a1.65,1.65,0,0,0-1.24.54,1.39,1.39,0,0,0-.31,1.23l1,4.18A2.18,2.18,0,0,0,54.49,91.39Zm3.72-6.65c.51,0,.64.06.66.09s.1.13-.09.63A7.39,7.39,0,0,0,59,90h0c.08.2.06.29,0,.31s-.13.16-.86.16H54.49a1.23,1.23,0,0,1-1.21-.89l-1-4.18a.55.55,0,0,1,.12-.49.67.67,0,0,1,.49-.21Zm1.27,5.15Z" style="fill:#5c7c26"/><path d="M109.34,64.18c1.94,2.16,2.12,8.6,2.13,10.52V86.83" style="fill:#fff"/><path d="M111.47,87.28a.47.47,0,0,0,.48-.45V74.7c0-2.51-.25-8.59-2.24-10.8a.5.5,0,0,0-.67-.06.41.41,0,0,0-.07.62c1.46,1.63,2,6.36,2,10.24V86.83A.46.46,0,0,0,111.47,87.28Z" style="fill:#5c7c26"/><path d="M90.31,86.83v-24a2,2,0,0,1,2.06-1.9" style="fill:#fff"/><path d="M90.31,87.28a.47.47,0,0,0,.48-.45v-24a1.52,1.52,0,0,1,1.58-1.46.45.45,0,1,0,0-.89,2.46,2.46,0,0,0-2.54,2.35v24A.46.46,0,0,0,90.31,87.28Z" style="fill:#5c7c26"/><path d="M107.09,66c-1.31-1.45-3.29-2.33-6.72-2.33H93.93a.74.74,0,0,0-.77.71v9.12a.75.75,0,0,0,.77.71h13.91a.73.73,0,0,0,.76-.71C108.55,71.77,108.3,67.36,107.09,66Z" style="fill:#fff"/><path d="M93.93,74.66h13.91a1.26,1.26,0,0,0,.89-.35,1.08,1.08,0,0,0,.35-.82c-.07-2.3-.37-6.37-1.62-7.76h0c-1.53-1.7-3.78-2.49-7.09-2.49H93.93a1.2,1.2,0,0,0-1.25,1.15v9.12A1.21,1.21,0,0,0,93.93,74.66Zm6.44-10.54c3,0,5,.69,6.35,2.17h0c.77.86,1.29,3.56,1.4,7.23a.25.25,0,0,1-.08.18.28.28,0,0,1-.2.08H93.93a.28.28,0,0,1-.29-.27V64.39a.28.28,0,0,1,.29-.27ZM107.09,66Z" style="fill:#5c7c26"/><path d="M112.73,67.25c0-.06-.14,0-.11,0a25.83,25.83,0,0,1,1.08,6.33.77.77,0,0,0,.79.67h2.64a.36.36,0,0,0,.32-.56Z" style="fill:#fff"/><path d="M114.49,74.74h2.64a.88.88,0,0,0,.76-.43.72.72,0,0,0,0-.82L113.13,67a.57.57,0,0,0-.7-.16.48.48,0,0,0-.26.62,24.37,24.37,0,0,1,1,6.11v.09A1.25,1.25,0,0,0,114.49,74.74Zm2.47-.89h-2.47a.3.3,0,0,1-.31-.25v-.1a41.37,41.37,0,0,0-.5-4.17Zm-4.63-6.36Zm.4-.24h0Zm.34-.1Z" style="fill:#5c7c26"/><path d="M93.88,61.38h4a.45.45,0,1,0,0-.89h-4a.45.45,0,1,0,0,.89Z" style="fill:#5c7c26"/><path d="M91.68,80.85h17.66a.44.44,0,1,0,0-.88H91.68a.44.44,0,1,0,0,.88Z" style="fill:#5c7c26"/><path d="M77.2,80.85H87.61a.44.44,0,1,0,0-.88H77.2a.44.44,0,1,0,0,.88Z" style="fill:#5c7c26"/><path d="M59.16,76.73a.69.69,0,0,0,.72.66h2.37a.69.69,0,0,0,.72-.66V74.54a.69.69,0,0,0-.72-.66H59.88a.69.69,0,0,0-.72.66Z" style="fill:#fff"/><path d="M59.88,77.83h2.37a1.15,1.15,0,0,0,1.2-1.1V74.54a1.16,1.16,0,0,0-1.2-1.1H59.88a1.16,1.16,0,0,0-1.2,1.1v2.19A1.15,1.15,0,0,0,59.88,77.83Zm2.37-3.5a.23.23,0,0,1,.24.21v2.19a.23.23,0,0,1-.24.22H59.88a.23.23,0,0,1-.24-.22V74.54a.23.23,0,0,1,.24-.21Z" style="fill:#5c7c26"/></g></g></svg>