<svg id="Capa_1" data-name="Capa 1" xmlns="http://www.w3.org/2000/svg" viewBox="0 0 154.5 154"><g id="Capa_6" data-name="Capa 6"><path d="M14.28,108.67A63.41,63.41,0,0,1,69.93,8.53l-.49,7.57a55.8,55.8,0,0,0-38.53,99.17l-4.76,5.91A64.12,64.12,0,0,1,14.28,108.67Z" style="fill:#f7c90d"/><path d="M89.66,83.55h-.28c-3.43,0-5.13,0-7-.83s-2.67-2.53-5.15-4.92c-2.11-2-5.89-4.1-6.81-6.31-1.13-2.69-.86-5.62-1.34-9.54-2,1.08-4-4.52-4.46-6.35C64,52.9,62.06,48.29,61.45,45.2a8.7,8.7,0,0,1-.17-1.36c8.16,4.06,23,4.33,28,4.33s19.74-.31,27.92-4.33A8.7,8.7,0,0,1,117,45.2c-.61,3.09-2.56,7.7-3.17,10.41-.41,1.81-2.46,7.3-4.4,6.39-.43,3.79-.19,6.65-1.28,9.3-.92,2.22-4.68,4.31-6.77,6.36-2.47,2.42-3.34,4.19-5.13,5s-3.43.89-6.61.9ZM109,91.16c18.39,12.49,42.91,7,45.23,31.9.05.51.09,23.4.11,30.92H94.93l14-62.82ZM62.8,33.52c-2.14,0-3.88.84-3.88,3.23,0,11,60.69,10.91,60.69,0,0-2.39-1.74-3.23-3.88-3.23ZM89.26,0C104.77,0,117.41,15.09,118,30.59a9,9,0,0,0-2.24-.27H62.8a9,9,0,0,0-2.24.27C61.12,15.09,73.76,0,89.26,0Zm8.43,3.37a37.78,37.78,0,0,0-16.86,0L87.15,22.3h4.23L97.69,3.39Zm-8,90.7-1,0-5.14,7.59.13,1.93L88,107.9l-4.76,7.65L85.05,154h8.62l1.6-38.39-4.76-7.66,4.25-4.31.12-1.93-5.14-7.6ZM69.53,91.16l14,62.82H24.2c0-7.52.05-30.41.1-30.92C26.62,98.13,51.14,103.65,69.53,91.16Z" style="fill:#5c7c26;fill-rule:evenodd"/></g></svg>