<svg id="Capa_5" data-name="Capa 5" xmlns="http://www.w3.org/2000/svg" viewBox="0 0 154.5 154"><g id="Capa_7" data-name="Capa 7"><path d="M70.08,141.18a4.19,4.19,0,0,1-1.76,1.49c1.9-.07,3.79-.2,5.68-.43a6.81,6.81,0,0,1-1.52-1A5,5,0,0,1,70.08,141.18Z" style="fill:#f7c90d"/><path d="M46.3,136.73a5.62,5.62,0,0,1,.23-5,58.37,58.37,0,0,1-.4-110.07,5.5,5.5,0,0,1,.77-3.78,4.7,4.7,0,0,1,2.27-3.2A4.47,4.47,0,0,1,52.78,12a1.27,1.27,0,0,1,.12-.1A66,66,0,0,0,2.33,59h0A66,66,0,0,0,47.16,140,5.43,5.43,0,0,1,46.3,136.73Z" style="fill:#f7c90d"/></g><path d="M99.87,5.77a17.28,17.28,0,0,1,7.79,3.82,2.35,2.35,0,0,0,1.41.24q16.55,0,33.1,0c6.79,0,11,4.18,11,11q0,56.45,0,112.89c0,6.8-4.23,11-11,11H53.74c-6.77,0-11-4.21-11-11,0-1.71,0-3.42,0-5.15-1.52-.12-2.92-.14-4.29-.35A14.09,14.09,0,0,1,26.51,114.9c-.1-2,.59-2.73,2.58-2.73H50.88V21.93c0-.5,0-1,0-1.5.06-1.75.75-2.44,2.52-2.44H72.81c3.16,0,6.33,0,9.49,0a1.22,1.22,0,0,0,1.39-.94c.35-1,.8-2,1.28-3.15H53.68c-4.45,0-6.86,2.41-6.87,6.88v83.58a14.73,14.73,0,0,1,0,1.76,2,2,0,0,1-2,1.93,1.92,1.92,0,0,1-1.95-1.87,10,10,0,0,1,0-1.22q0-42,0-84c0-7,4.18-11.14,11.13-11.15,10.9,0,21.8,0,32.7,0A4,4,0,0,0,88.84,9a18,18,0,0,1,7.23-3.19Zm14.37,16.36a10,10,0,0,1,.37,1.08c.5,2.31,1.76,3.08,4.26,3a9.85,9.85,0,0,1,9.84,9.29c.14,2.07-.55,2.83-2.63,2.83H69.92c-2.17,0-2.87-.75-2.68-2.9a9.85,9.85,0,0,1,4.54-7.64,11.3,11.3,0,0,1,7-1.69c.43,0,1.12-.11,1.26-.39.6-1.13,1-2.34,1.54-3.58H55.06v90h62.22c.46,0,.91,0,1.36,0a1.93,1.93,0,0,1,1.93,1.75c.09.53.12,1.08.18,1.62a10.18,10.18,0,0,0,11.56,8.7c5.41-.94,8.67-5,8.67-10.91q0-44.84,0-89.67V22.13Zm-3.45-8.21c.45,1.09.87,1.94,1.14,2.84s.83,1.26,1.85,1.25c9.36,0,18.72,0,28.09,0,2.68,0,3.19.49,3.19,3.13q0,46.07,0,92.12a18.38,18.38,0,0,1-.28,3.64c-1.39,7-7.14,11.56-14.5,11.56H46.81v5.21c0,4.64,2.38,7,7,7h88c5,0,7.24-2.28,7.25-7.19V101.73q0-40.44,0-80.86c0-4.51-2.4-7-6.79-7H110.79Zm-80,102.35c.16.55.25,1,.4,1.4a10.14,10.14,0,0,0,9.86,6.7h78.41c.37,0,.74-.05,1.32-.1a15.1,15.1,0,0,1-4.09-8Zm93.6-82a6.2,6.2,0,0,0-5.56-4c-1-.06-2,0-3,0-2.64,0-2.74-.07-3.72-2.44-1.54-3.71-3.06-7.43-4.63-11.13a12.19,12.19,0,0,0-1.32-2.5A10.15,10.15,0,0,0,88.54,16c-1.77,4.05-3.43,8.15-5.08,12.25a2.6,2.6,0,0,1-2.85,1.94,34.63,34.63,0,0,0-3.53,0,5.51,5.51,0,0,0-5.26,4Z" style="fill:#5c7c26"/><path d="M89.86,52.88c6.6,0,13.19,0,19.79,0a3.28,3.28,0,0,1,2,.49,2.31,2.31,0,0,1,.67,1.87A2.84,2.84,0,0,1,111,56.77a3.28,3.28,0,0,1-1.59.17H70.27c-.31,0-.63,0-1,0-1.38-.12-2.17-.93-2.12-2.13a2,2,0,0,1,2.19-1.91c3.35,0,6.69,0,10,0Z" style="fill:#5c7c26"/><path d="M89.83,73.23h19.79c.57,0,1.32-.06,1.69.25a2.63,2.63,0,0,1,1,1.82,3.08,3.08,0,0,1-1.3,1.8,3.29,3.29,0,0,1-1.72.19H69.76c-1.7,0-2.6-.79-2.56-2.12s.91-1.94,2.57-1.94Z" style="fill:#5c7c26"/><path d="M89.84,93.59c6.59,0,13.19,0,19.79,0a3.36,3.36,0,0,1,2,.47,2.29,2.29,0,0,1,.69,1.86,2.72,2.72,0,0,1-1.28,1.53,3.62,3.62,0,0,1-1.73.18h-39c-.23,0-.46,0-.68,0-1.59-.08-2.46-.84-2.42-2.13s.89-1.93,2.44-1.93C76.37,93.58,83.1,93.59,89.84,93.59Z" style="fill:#5c7c26"/><path d="M122.74,48.82c1.31,0,2.62,0,3.92,0a1.9,1.9,0,0,1,2.08,2q.07,4.06,0,8.12a1.92,1.92,0,0,1-2.09,2c-2.66,0-5.32.06-8,0a1.93,1.93,0,0,1-2.09-2.16q-.08-3.93,0-7.85c0-1.46.75-2.11,2.23-2.15,1.31,0,2.62,0,3.93,0Zm-2,8h3.88V53h-3.88Z" style="fill:#5c7c26"/><path d="M128.77,75.22c0,1.26,0,2.53,0,3.79,0,1.62-.71,2.32-2.34,2.35q-3.78.08-7.58,0a2,2,0,0,1-2.26-2.27c0-2.57,0-5.15,0-7.72a2,2,0,0,1,2.19-2.18q3.93-.06,7.86,0a1.93,1.93,0,0,1,2.12,2.11c.06,1.31,0,2.62,0,3.93Zm-4.14-1.86h-4c0,1.1-.06,2.09,0,3.07a1.16,1.16,0,0,0,.71.83c1.05.09,2.12,0,3.25,0Z" style="fill:#5c7c26"/><path d="M122.79,89.52c1.22,0,2.43,0,3.65,0,1.56,0,2.28.68,2.31,2.21q.08,3.86,0,7.71c0,1.53-.73,2.23-2.28,2.26q-3.8.08-7.58,0c-1.62,0-2.29-.74-2.32-2.36q-.06-3.73,0-7.45c0-1.7.71-2.34,2.43-2.38C120.26,89.5,121.52,89.52,122.79,89.52Zm1.84,4.19h-4c0,1.11-.06,2.1,0,3.08,0,.31.44.8.71.82,1.05.1,2.12,0,3.25,0Z" style="fill:#5c7c26"/><path d="M104,20a6.1,6.1,0,1,1-6.15-6.06A6.11,6.11,0,0,1,104,20Zm-4.08.1a2,2,0,0,0-2-2.08,2,2,0,1,0,0,4.05A2,2,0,0,0,99.88,20.08Z" style="fill:#5c7c26"/></svg>