<svg id="Capa_5" data-name="Capa 5" xmlns="http://www.w3.org/2000/svg" viewBox="0 0 154.5 154"><g id="Capa_7" data-name="Capa 7"><path d="M44.09,136.84c-.34-.17-.72-.29-1-.48l.17.1c.37.16.75.44,0,0l-.11-.05a15.35,15.35,0,0,0-2.11-.59c-2.73-.59-4.06-3.64-3.49-6.16a4.31,4.31,0,0,1,.73-1.56A58.38,58.38,0,0,1,46.13,21.66a5.52,5.52,0,0,1,.77-3.78A4.65,4.65,0,0,1,49,14.82,5.23,5.23,0,0,1,48.49,13,66.08,66.08,0,0,0,47.16,140a5.52,5.52,0,0,1-.85-2.51A6.21,6.21,0,0,1,44.09,136.84Z" style="fill:#f7c90d"/></g><path d="M147.89,136.19V113.28c0-2.33-1.51-4.22-3.37-4.22H42.05c-1.89,0-3.36,1.89-3.36,4.22v22.91Z" style="fill:#5c7c26"/><path d="M147.38,109.06V49.61c0-6-1.51-10.94-3.37-10.94H41.55c-1.9,0-3.37,4.89-3.37,10.94v59.45Z" style="fill:#5c7c26"/><g id="C_-_178_Chess_clock_timer" data-name="C - 178, Chess, clock, timer"><path d="M143.52,34.67h-3.93V13a2.57,2.57,0,1,0-5.12,0V34.67H51.08V13A2.57,2.57,0,1,0,46,13V34.67H42c-4.52,0-8.26,4.11-8.26,9.08v87.6c0,4.76,3.54,8.65,7.87,8.65H143.92c4.32,0,7.86-3.89,7.86-8.65V43.75C151.78,38.56,148.05,34.67,143.52,34.67ZM42,40.08H143.52a3.63,3.63,0,0,1,3.35,3.67v63.81H38.69V43.75A3.48,3.48,0,0,1,42,40.08Zm0,94.51a3.63,3.63,0,0,1-3.34-3.67V113H146.87v18a3.63,3.63,0,0,1-3.35,3.67Z" style="fill:#7c7c7b"/><path d="M68.77,96.49A21.08,21.08,0,1,0,47.45,75.41,21.26,21.26,0,0,0,68.77,96.49Zm0-37.72A16.65,16.65,0,1,1,51.93,75.41,16.72,16.72,0,0,1,68.77,58.77Z" style="fill:#fff"/><path d="M58.74,78.78H69.85a2.35,2.35,0,0,0,2.32-2.3V65.32a2.33,2.33,0,0,0-4.65,0v8.86h-9a2.36,2.36,0,0,0-2.33,2.3A2.67,2.67,0,0,0,58.74,78.78Z" style="fill:#fff"/></g><text transform="translate(97.83 89.51)" style="font-size:40.95579528808594px;fill:#fff;font-family:MyriadPro-Bold, Myriad Pro;font-weight:700">m</text><text transform="translate(130.75 72.89)" style="font-size:18px;fill:#fff;font-family:MyriadPro-Bold, Myriad Pro;font-weight:700">3</text></svg>