<svg id="Capa_1" data-name="Capa 1" xmlns="http://www.w3.org/2000/svg" viewBox="0 0 154.5 154"><g id="Capa_2" data-name="Capa 2"><path d="M26.91,128.14A64.39,64.39,0,0,1,3.41,55.29a61.5,61.5,0,0,1,41.17-40l2.11,7.33A54.53,54.53,0,0,0,10.3,57.75,56.53,56.53,0,0,0,13,100.38a55.21,55.21,0,0,0,31.43,28.44L42,136A60.48,60.48,0,0,1,26.91,128.14Z" style="fill:#f7c90d"/><path d="M114,50.55l-7.69,7.69L94.87,69.69l-8,8-10,10-7.95,7.95L67.2,97.35,69,99.18l67.85-67.86h0l-1.82-1.82-7.19,7.19V16.82a2.65,2.65,0,0,0-2.65-2.65h-89a2.65,2.65,0,0,0-2.65,2.65V135.69a2.63,2.63,0,0,0,2.65,2.65H109a2.65,2.65,0,0,0,1.86-.77l8.18-8.12h0l8-8.07a2.66,2.66,0,0,0,.77-1.87V58.34l-5.3,5.31V114.2H105.7a2.66,2.66,0,0,0-2.65,2.65V133H38.9V19.47h83.67V42Zm-5.66,69h14.13l-14.13,13.63Z" style="fill:#5c7c26"/><rect x="50.75" y="33.14" width="64.32" height="7.69" style="fill:#5c7c26"/><polygon points="43.48 58.24 106.32 58.24 114.01 50.55 43.48 50.55 43.48 58.24" style="fill:#5c7c26"/><polygon points="43.72 77.64 86.92 77.64 94.87 69.69 43.72 69.69 43.72 77.64" style="fill:#5c7c26"/><polygon points="117.75 77.64 117.75 69.69 116.53 69.69 108.58 77.64 117.75 77.64" style="fill:#5c7c26"/><polygon points="117.75 95.63 117.75 87.68 98.54 87.68 90.59 95.63 117.75 95.63" style="fill:#5c7c26"/><polygon points="43.72 95.63 68.93 95.63 76.88 87.68 43.72 87.68 43.72 95.63" style="fill:#5c7c26"/><polygon points="58.57 113.62 58.83 113.1 62.48 105.68 43.72 105.68 43.72 113.62 58.57 113.62" style="fill:#5c7c26"/><path d="M75.86,109.89l-7.6,3.73H99.35v-7.94H80.54l-2.5,2.5h0l-1.82-1.82-.69-.68h-2l2.62,2.62a1,1,0,0,1,.28.86A1,1,0,0,1,75.86,109.89Z" style="fill:#5c7c26"/><polygon points="122.47 119.5 108.35 119.5 108.35 133.13 122.47 119.5" style="fill:#fff"/><path d="M114,50.55,122.57,42V19.47H38.9V133h64.15V116.85a2.66,2.66,0,0,1,2.65-2.65h16.87V63.65l5.3-5.31,18-18L112.63,73.58l3.9-3.89h1.22v8h-9.17L78,108.18h0l2.5-2.5H99.35v7.94H68.26l-6,2.94-4.19,2a1,1,0,0,1-1.14-.19,1,1,0,0,1-.19-1.14l1.8-3.66H43.72v-7.94H62.48l3-6.16a1,1,0,0,1,.73-.54,1,1,0,0,1,.86.28l6.42,6.42h2l.69.68,67.86-67.85-7.19-7.19L69,99.18,67.2,97.35l1.73-1.72H43.72V87.68H76.88l10-10H43.72v-8H94.87l11.45-11.45H43.48V50.55ZM50.75,33.14h64.32v7.69H50.75ZM90.59,95.63l8-7.95h19.21v7.95Zm47.3-62.94,4.81,4.81L74.85,105.35,70,100.54Z" style="fill:#fff"/><polygon points="108.58 77.64 108.58 77.64 112.63 73.58 108.58 77.64" style="fill:#fff"/><rect x="58.39" y="65.62" width="95.96" height="6.8" transform="translate(-17.65 95.43) rotate(-45)" style="fill:#5c7c26"/><polygon points="78.03 108.18 78.03 108.18 145.89 40.33 144.07 38.51 76.21 106.36 78.03 108.18" style="fill:#5c7c26"/><path d="M67.09,99.26a1,1,0,0,0-.86-.28,1,1,0,0,0-.73.54l-3,6.16-3.65,7.42,3.46,3.46,6-2.94,7.6-3.73a1,1,0,0,0,.55-.73,1,1,0,0,0-.28-.86l-2.62-2.62Z" style="fill:#5c7c26"/><path d="M56.77,117.28a1,1,0,0,0,.19,1.14,1,1,0,0,0,1.14.19l4.19-2-3.46-3.46-.26.52Z" style="fill:#4c4c4c"/><path d="M141.66,22.9l-1.25,1.25-2.11,2.11L136,28.52l10.83,10.83,2.27-2.26L151.24,35l1.25-1.25A7.66,7.66,0,0,0,141.66,22.9Z" style="fill:#5c7c26"/></g></svg>