<svg id="Capa_1" data-name="Capa 1" xmlns="http://www.w3.org/2000/svg" viewBox="0 0 154.5 154"><g id="Capa_8" data-name="Capa 8"><path d="M29.12,130.87C15.84,122.31,10,110.81,7.3,105.18a67.36,67.36,0,0,1-3.44-51A64.5,64.5,0,0,1,47.08,11.72l2.26,7.75A57.1,57.1,0,0,0,11.09,56.74a59.18,59.18,0,0,0,3.14,44.9A54,54,0,0,0,29.4,121.17a51.64,51.64,0,0,0,22.14,10.07l9.32,8.88A58.89,58.89,0,0,1,29.12,130.87Z" style="fill:#f7c90d"/></g><g id="Capa_9" data-name="Capa 9"><path d="M118.26,55.21l8.23-.62-1.2-15.89-8.13.62A40,40,0,0,0,111.41,27L117,21.18l-11.52-11L99.93,16a40.26,40.26,0,0,0-13.71-5.54v-8H70.29v8a40.33,40.33,0,0,0-16.83,7.74l-6.07-5.27L37,25l6.13,5.31a40,40,0,0,0-4.88,15L30,45.89l1.19,15.88,8.26-.62a40.28,40.28,0,0,0,5.81,12.1l-5.77,6L51,90.29l5.81-6.09a39.89,39.89,0,0,0,13.44,5.36V98H86.22V89.56a40.18,40.18,0,0,0,16.55-7.51l6.35,5.51,10.43-12-6.29-5.46A40.12,40.12,0,0,0,118.26,55.21Zm-40,7.7A12.67,12.67,0,1,1,90.93,50.24,12.67,12.67,0,0,1,78.25,62.91Z" style="fill:#5c7c26"/><path d="M87.42,99.21H69.09V90.54a41.4,41.4,0,0,1-12-4.8l-6,6.25L37.81,79.34l5.93-6.21a41.26,41.26,0,0,1-5.13-10.71l-8.5.64L28.73,44.78l8.4-.63a40.83,40.83,0,0,1,4.43-13.61l-6.3-5.46,12-13.86,6.24,5.42A41.67,41.67,0,0,1,69.09,9.48V1.27H87.42V9.48a41.15,41.15,0,0,1,12.32,5l5.69-6,13.26,12.66-5.74,6A41.4,41.4,0,0,1,118,38l8.36-.63,1.38,18.29-8.47.63a40.94,40.94,0,0,1-4.53,13.47l6.47,5.6-12,13.85-6.53-5.66a41.61,41.61,0,0,1-15.29,7ZM71.5,96.8H85V88.58l1-.2A39.16,39.16,0,0,0,102,81.09l.77-.6L109,85.86l8.86-10.21-6.14-5.33.49-.86a38.69,38.69,0,0,0,4.85-14.41l.13-1,8-.6-1-13.48-7.92.59-.26-1a38.82,38.82,0,0,0-5.58-11.92l-.56-.81,5.43-5.69-9.78-9.34-5.39,5.66L99.28,17A38.74,38.74,0,0,0,86,11.64l-1-.2V3.67H71.5v7.77l-1,.2a39.11,39.11,0,0,0-16.33,7.5l-.78.61-5.91-5.13L38.65,24.83l6,5.17-.48.85a38.63,38.63,0,0,0-4.74,14.57l-.11,1-8,.6,1,13.48,8-.61.27,1a38.9,38.9,0,0,0,5.63,11.74l.57.81-5.62,5.89L51,88.59l5.66-5.93.83.52a38.49,38.49,0,0,0,13,5.2l1,.2Zm6.75-32.68A13.88,13.88,0,1,1,92.13,50.24,13.89,13.89,0,0,1,78.25,64.12Zm0-25.35A11.47,11.47,0,1,0,89.72,50.24,11.47,11.47,0,0,0,78.25,38.77Z" style="fill:#6d6d6d"/><path d="M103.61,50.24A25.36,25.36,0,1,1,78.25,24.88,25.35,25.35,0,0,1,103.61,50.24Z" style="fill:#fff"/><path d="M78.25,76.8a26.56,26.56,0,1,1,26.57-26.56A26.59,26.59,0,0,1,78.25,76.8Zm0-50.72a24.16,24.16,0,1,0,24.16,24.16A24.19,24.19,0,0,0,78.25,26.08Z" style="fill:#666"/><path d="M90.93,50.24A12.68,12.68,0,1,1,78.25,37.57,12.68,12.68,0,0,1,90.93,50.24Z" style="fill:#fff"/><path d="M78.25,64.12A13.88,13.88,0,1,1,92.13,50.24,13.89,13.89,0,0,1,78.25,64.12Zm0-25.35A11.47,11.47,0,1,0,89.72,50.24,11.47,11.47,0,0,0,78.25,38.77Z" style="fill:#5c7c26"/><path d="M112.62,50.24h-2.4a32,32,0,0,0-32-32V15.87A34.4,34.4,0,0,1,112.62,50.24Z" style="fill:#7a7a7a"/><path d="M142.84,103.85l9.34-.71-1.36-18-9.23.69a45.66,45.66,0,0,0-6.52-13.94l6.33-6.64L128.33,52.75,122,59.34a45.3,45.3,0,0,0-15.56-6.28V44H88.4v9.06a45.57,45.57,0,0,0-19.1,8.78l-6.89-6L50.57,69.51l6.94,6a45.35,45.35,0,0,0-5.53,17l-9.28.69,1.36,18,9.37-.71A45.8,45.8,0,0,0,60,124.33l-6.55,6.86,13.08,12.47,6.6-6.91a45.32,45.32,0,0,0,15.25,6.09v9.58h18.08v-9.58a45.54,45.54,0,0,0,18.78-8.53l7.21,6.25,11.84-13.65-7.15-6.2A45.51,45.51,0,0,0,142.84,103.85Zm-45.4,8.74a14.38,14.38,0,1,1,14.38-14.38A14.38,14.38,0,0,1,97.44,112.59Z" style="fill:#5c7c26"/><path d="M107.84,153.78H87V144a47.07,47.07,0,0,1-13.66-5.45l-6.77,7.1L51.54,131.24l6.73-7.05A46.9,46.9,0,0,1,52.44,112l-9.64.72L41.24,92l9.52-.71a46.51,46.51,0,0,1,5-15.45l-7.15-6.2L62.28,53.93l7.08,6.15A47.14,47.14,0,0,1,87,52V42.63h20.81V52a46.72,46.72,0,0,1,14,5.64l6.46-6.77,15.05,14.36L136.82,72a46.9,46.9,0,0,1,5.78,12.35l9.48-.72,1.56,20.75-9.6.73a46.49,46.49,0,0,1-5.14,15.27l7.34,6.37L132.6,142.49l-7.41-6.43A47.28,47.28,0,0,1,107.84,144Zm-18.07-2.73h15.34v-9.33l1.1-.22a44.54,44.54,0,0,0,18.22-8.28l.88-.67,7,6.08,10-11.59-7-6,.56-1a44.1,44.1,0,0,0,5.5-16.36l.14-1.1,9.09-.69-1.15-15.3-9,.68-.3-1.08a44.07,44.07,0,0,0-6.33-13.53l-.63-.92,6.16-6.46-11.1-10.59-6.12,6.41-.94-.6a44,44,0,0,0-15.1-6.09l-1.1-.22V45.36H89.77v8.82l-1.1.22a44.56,44.56,0,0,0-18.53,8.51l-.88.69-6.71-5.82L52.49,69.38l6.76,5.86-.55,1a43.88,43.88,0,0,0-5.37,16.53l-.13,1.12-9,.67,1.15,15.3,9.12-.68.31,1.06a44,44,0,0,0,6.39,13.33l.65.92-6.38,6.68L66.5,141.73,72.93,135l.94.59a44.13,44.13,0,0,0,14.8,5.9l1.1.22ZM97.44,114a15.75,15.75,0,1,1,15.75-15.75A15.77,15.77,0,0,1,97.44,114Zm0-28.77a13,13,0,1,0,13,13A13,13,0,0,0,97.44,85.19Z" style="fill:#6d6d6d"/><path d="M126.22,98.21A28.78,28.78,0,1,1,97.44,69.43,28.79,28.79,0,0,1,126.22,98.21Z" style="fill:#fff"/><path d="M97.44,128.35a30.15,30.15,0,1,1,30.14-30.14A30.17,30.17,0,0,1,97.44,128.35Zm0-57.55a27.41,27.41,0,1,0,27.41,27.41A27.43,27.43,0,0,0,97.44,70.8Z" style="fill:#666"/><path d="M111.82,98.21A14.38,14.38,0,1,1,97.44,83.83,14.38,14.38,0,0,1,111.82,98.21Z" style="fill:#fff"/><path d="M97.44,114a15.75,15.75,0,1,1,15.75-15.75A15.77,15.77,0,0,1,97.44,114Zm0-28.77a13,13,0,1,0,13,13A13,13,0,0,0,97.44,85.19Z" style="fill:#5c7c26"/><path d="M136.44,98.21h-2.73A36.32,36.32,0,0,0,97.44,61.93V59.2A39,39,0,0,1,136.44,98.21Z" style="fill:#7a7a7a"/></g></svg>