<svg id="Capa_1" data-name="Capa 1" xmlns="http://www.w3.org/2000/svg" viewBox="0 0 154.5 154"><g id="Uniforme"><path d="M35.72,128.54A55.89,55.89,0,0,1,51.92,23.2" style="fill:none;stroke:#f7c90d;stroke-miterlimit:10;stroke-width:6.989999771118164px"/><path d="M147.65,17.39,114.86,1.85a50.2,50.2,0,0,1-41.15,0L40.92,17.39c7,22.8,12.41,62.49-6.28,61.14h0V152.4H153.93V78.53h0C135.24,79.88,140.67,40.19,147.65,17.39Z" style="fill:#5c7c26;stroke:#fff;stroke-miterlimit:10;stroke-width:0.5px"/><path d="M73.71,1.85,40.92,17.39c7,22.8,12.41,62.49-6.28,61.14h0V152.4H93.28V63.16C93.28,45.19,73.71,23.91,73.71,1.85Z" style="fill:none;stroke:#fff;stroke-linecap:round;stroke-linejoin:round;stroke-width:2px"/><line x1="41.58" y1="19.6" x2="73.79" y2="4.36" style="fill:#fff;stroke:#fff;stroke-linecap:round;stroke-linejoin:round;stroke-width:2px"/><rect x="52.68" y="58.2" width="25.86" height="18.93" style="fill:none;stroke:#fff;stroke-linecap:round;stroke-linejoin:round;stroke-width:2px"/><path d="M45.42,124.21a4,4,0,0,1-2.49-.87v20.5H84.42v-20.5a4,4,0,0,1-2.49.87Z" style="fill:none;stroke:#fff;stroke-linecap:round;stroke-linejoin:round;stroke-width:2px"/><path d="M41.4,112.36v7.83a4,4,0,0,0,4,4H81.93a4,4,0,0,0,4-4v-7.83Z" style="fill:none;stroke:#fff;stroke-linecap:round;stroke-linejoin:round;stroke-width:2px"/><path d="M114.86,1.85l32.79,15.54c-7,22.8-12.41,62.49,6.28,61.14h0V152.4H95.29V63.16C95.29,45.19,114.86,23.91,114.86,1.85Z" style="fill:none;stroke:#fff;stroke-linecap:round;stroke-linejoin:round;stroke-width:2px"/><line x1="146.99" y1="19.6" x2="114.78" y2="4.36" style="fill:#fff;stroke:#fff;stroke-linecap:round;stroke-linejoin:round;stroke-width:2px"/><rect x="110.03" y="59.66" width="9.22" height="17.47" transform="translate(229.28 136.78) rotate(-180)" style="fill:none;stroke:#fff;stroke-linecap:round;stroke-linejoin:round;stroke-width:2px"/><path d="M143.15,124.21a4,4,0,0,0,2.49-.87v20.5H104.16v-20.5a4,4,0,0,0,2.48.87Z" style="fill:none;stroke:#fff;stroke-linecap:round;stroke-linejoin:round;stroke-width:2px"/><path d="M147.17,112.36v7.83a4,4,0,0,1-4,4H106.64a4,4,0,0,1-4-4v-7.83Z" style="fill:none;stroke:#fff;stroke-linecap:round;stroke-linejoin:round;stroke-width:2px"/><path d="M135,65.16a1.36,1.36,0,0,0,1-.52V77.13H119.25V64.64a1.36,1.36,0,0,0,1,.52Z" style="fill:none;stroke:#fff;stroke-linecap:round;stroke-linejoin:round;stroke-width:2px"/><path d="M136.61,57.94v4.78a3.06,3.06,0,0,1-.62,1.92,1.36,1.36,0,0,1-1,.52H120.26a1.36,1.36,0,0,1-1-.52,3.06,3.06,0,0,1-.61-1.92V57.94Z" style="fill:#5c7c26;stroke:#fff;stroke-linecap:round;stroke-linejoin:round;stroke-width:2px"/></g></svg>