<svg id="Capa_1" data-name="Capa 1" xmlns="http://www.w3.org/2000/svg" viewBox="0 0 154.5 154"><g id="Capa_8" data-name="Capa 8"><path d="M30.62,126.07A64.38,64.38,0,0,1,6.68,53.34a61.16,61.16,0,0,1,41-40.23l2.14,7.35A54.14,54.14,0,0,0,13.53,55.79a56.09,56.09,0,0,0,3,42.57,55.19,55.19,0,0,0,31.6,28.29l-2.36,7.15A60.35,60.35,0,0,1,30.62,126.07Z" style="fill:#f7c90d"/><g id="_834_Medical_Medical_Paper_Medical_Report" data-name="834, Medical, Medical Paper, Medical Report"><path d="M105.45,100.37A25.9,25.9,0,0,1,131.53,74.6a14.92,14.92,0,0,1,3,.22V31.94H115.84a1.48,1.48,0,0,1-1.39-1.37V12.1H45.23V134.81h89.53v-8.67c-.93,0-1.85.23-3,.23C117,125.92,105.45,114.51,105.45,100.37ZM57.92,60.45H89.53a1.37,1.37,0,1,1,0,2.74H57.92a1.47,1.47,0,0,1-1.38-1.37C56.31,61.14,57,60.45,57.92,60.45Zm-1.61-10a1.47,1.47,0,0,1,1.38-1.37H75a1.37,1.37,0,1,1,0,2.74H57.69A1.48,1.48,0,0,1,56.31,50.42Zm1.61,21.44H84a1.37,1.37,0,1,1,0,2.74H57.92a1.48,1.48,0,0,1-1.38-1.37A1.32,1.32,0,0,1,57.92,71.86ZM98.3,91.7H57.92a1.37,1.37,0,1,1,0-2.74H98.3a1.37,1.37,0,1,1,0,2.74Zm0-8.44H57.92a1.37,1.37,0,1,1,0-2.73H98.3a1.37,1.37,0,1,1,0,2.73ZM102.45,39a1.47,1.47,0,0,1-1.38,1.37H57.92A1.47,1.47,0,0,1,56.54,39V24.64a1.47,1.47,0,0,1,1.38-1.36h43.15a1.47,1.47,0,0,1,1.38,1.36Z" style="fill:#5c7c26"/><path d="M131.3,77.56a22.81,22.81,0,1,0,23.07,22.81A23,23,0,0,0,131.3,77.56ZM144,99.23,127.6,115.42a1.74,1.74,0,0,1-.92.46,1.19,1.19,0,0,1-.92-.46l-9.69-9.58a6,6,0,0,1,0-8.44,6.19,6.19,0,0,1,8.77,0l2.3,2.29L135.91,91a6.17,6.17,0,0,1,8.77,0A6.57,6.57,0,0,1,144,99.23Z" style="fill:#5c7c26"/><polygon points="116.99 13.92 116.99 28.98 132.22 28.98 116.99 13.92" style="fill:#5c7c26"/><rect x="59.31" y="26.24" width="40.38" height="11.4" style="fill:#5c7c26"/><path d="M139.6,91.7a3,3,0,0,0-2.3.91l-9.7,9.58a1.15,1.15,0,0,1-1.84,0L122.53,99a3.39,3.39,0,0,0-4.62,0,3.15,3.15,0,0,0,0,4.33l8.77,8.67,15.23-15a3.16,3.16,0,0,0,0-4.34A4.15,4.15,0,0,0,139.6,91.7Z" style="fill:#5c7c26"/></g></g></svg>