<svg xmlns="http://www.w3.org/2000/svg" viewBox="0 0 44.34 44.28"><g id="Capa_2" data-name="Capa 2"><g id="SOBRE_NOSOTROS" data-name="SOBRE NOSOTROS"><g id="Capa_22" data-name="Capa 22"><path d="M22.33,3.67A18.45,18.45,0,0,0,3.84,22.14,17.81,17.81,0,0,0,9.25,35.21a18.28,18.28,0,0,0,26,0,17.81,17.81,0,0,0,5.41-13.07A18.45,18.45,0,0,0,22.33,3.67Zm3.5,27.2H25c-.18-.19-.34-.19-.51-.52l-7-7a1.35,1.35,0,0,1-.51-1.22,1.65,1.65,0,0,1,.51-1.22l7-7a1.87,1.87,0,0,1,2.61,0,1.91,1.91,0,0,1,.52,1.23,1.62,1.62,0,0,1-.52,1.22l-5.77,5.73,5.77,5.59a2.93,2.93,0,0,1,.52,1.39,1.65,1.65,0,0,1-.52,1.23c-.18.33-.36.33-.69.52Zm-3.5,13.41h0a21.87,21.87,0,0,1-15.7-6.42A22.34,22.34,0,0,1,0,22.14,22.33,22.33,0,0,1,6.63,6.45,22.7,22.7,0,0,1,22.33,0,23,23,0,0,1,37.88,6.45,22.13,22.13,0,0,1,22.33,44.28Z" style="fill:#fff;fill-rule:evenodd"/></g></g></g></svg>