<svg xmlns="http://www.w3.org/2000/svg" viewBox="0 0 16.89 16.87"><g id="Capa_2" data-name="Capa 2"><g id="HOME"><g id="Contacto_header" data-name="Contacto header"><path d="M9,.5A8.43,8.43,0,0,0,3,3,8.26,8.26,0,0,0,.5,8.87a8.32,8.32,0,0,0,2.46,6,8.24,8.24,0,0,0,6,2.52,8.25,8.25,0,0,0,6-2.52,8.32,8.32,0,0,0,2.46-6A8.26,8.26,0,0,0,14.93,3,8.44,8.44,0,0,0,9,.5ZM9,16.64A7.75,7.75,0,0,1,3.42,3.42,8.1,8.1,0,0,1,9,1.09a8,8,0,0,1,5.51,2.33,7.75,7.75,0,0,1,0,11A7.64,7.64,0,0,1,9,16.64ZM8.14,4.28a.29.29,0,0,0-.26.27V9.14a.87.87,0,0,0-.47.79.93.93,0,0,0,.93,1,1,1,0,0,0,.81-.4h4.39a.34.34,0,0,0,0-.66H9.27A.91.91,0,0,0,8.48,9V4.55a.32.32,0,0,0-.34-.27Z" transform="translate(-0.5 -0.5)" style="fill:#fff"/></g></g></g></svg>