<svg xmlns="http://www.w3.org/2000/svg" viewBox="0 0 36.95 36.95"><g id="Capa_2" data-name="Capa 2"><g id="SOBRE_NOSOTROS" data-name="SOBRE NOSOTROS"><g id="Capa_22" data-name="Capa 22"><path d="M36.23,27.63,25.89,17.3,19.17,24,12.92,17.8l6.74-6.74L9.32.72A2.45,2.45,0,0,0,5.79.78,21.5,21.5,0,0,0,36.17,31.17,2.43,2.43,0,0,0,37,29.42,2.48,2.48,0,0,0,36.23,27.63Zm-27.42.51A17.91,17.91,0,0,1,7.63,4l7.06,7.06-4.25,4.26a3.46,3.46,0,0,0,0,4.93l6.27,6.27a3.49,3.49,0,0,0,4.93,0l4.25-4.26L33,29.32A17.92,17.92,0,0,1,8.81,28.14Z" style="fill:#fff"/></g></g></g></svg>